<svg xmlns="http://www.w3.org/2000/svg" viewBox="0 0 138.43 160.13"><g id="Слой_2" data-name="Слой 2"><g id="Слой_2-2" data-name="Слой 2"><path d="M6.85,69.74c5.51,4.74,13.46,4.33,20.29,4a108.51,108.51,0,0,0,11.67-1.17c3.25-.5,6.5-1.46,8.85-3.88s-1.29-5.85-3.53-3.54c-1.78,1.83-4.42,2.26-6.83,2.63a95.92,95.92,0,0,1-10.16,1,71.55,71.55,0,0,1-9.49,0c-2.55-.22-5.28-.81-7.27-2.52a2.56,2.56,0,0,0-3.53,0,2.53,2.53,0,0,0,0,3.54Z" style="fill:#1c1b38"/><path d="M45.31,63c-8.06,2.07-16-2-23-5.58A63.43,63.43,0,0,0,11,52.48c-3.08-.86-7-.94-9.33,1.59A6.66,6.66,0,0,0,.29,60.46c.66,2.32,2.34,4.09,4,5.7,2.33,2.23,5.87-1.3,3.54-3.53C6.74,61.56,4.74,60,5,58.18c.17-1.28,1.51-1.3,2.74-1.23a16.76,16.76,0,0,1,5.09,1.47c2.19.87,4.31,1.94,6.41,3,8.48,4.27,17.68,8.9,27.42,6.39,3.11-.8,1.79-5.63-1.33-4.82Z" style="fill:#1c1b38"/><path d="M8.85,62a1.08,1.08,0,0,1-.13.77c-.07.13-.54.21,0,.06l.11,0h.56c.07,0,.76.08.52,0A41.64,41.64,0,0,1,14,64a29.82,29.82,0,0,0,8.72.94,2.5,2.5,0,0,0,0-5c-.85,0-1.71,0-2.56,0s-1.68-.13-2.33-.23a47.25,47.25,0,0,1-5.11-1.31,9.82,9.82,0,0,0-5.55-.28A4.43,4.43,0,0,0,4,63.35,2.55,2.55,0,0,0,7.1,65.1,2.55,2.55,0,0,0,8.85,62Z" style="fill:#1c1b38"/><path d="M12.82,69.75c3.65.78,7.3,1.69,11,2.23s7.48.67,11-.78a2.57,2.57,0,0,0,1.75-3.07,2.52,2.52,0,0,0-3.08-1.75,16.41,16.41,0,0,1-9,.67c-3.44-.56-6.85-1.39-10.27-2.12a2.55,2.55,0,0,0-3.07,1.75,2.51,2.51,0,0,0,1.74,3.07Z" style="fill:#1c1b38"/><path d="M15,57.05A18.67,18.67,0,0,0,25.21,54.8a18.26,18.26,0,0,0,2.09-1.36c.41-.3.95-.88,1.45-1,1-.17,2.59,1.25,3.31,1.81,2.54,2,4.7,4.43,7.47,6.16a25.7,25.7,0,0,0,5,2.31c.76.27,1.54.51,2.32.73a6,6,0,0,0,1.22.33c.81.27.65-.41-.48-2.06l-.41.22c-2.82,1.56-.3,5.88,2.52,4.32,2.06-1.13,3.59-3.46,2.11-5.7-1.15-1.73-3.72-1.9-5.54-2.52A19.55,19.55,0,0,1,41,55.43c-1.5-1.1-2.81-2.43-4.21-3.65-3-2.63-7-5.83-11.06-3.35A25.28,25.28,0,0,1,21,51.26a14.47,14.47,0,0,1-6,.79,2.5,2.5,0,1,0,0,5Z" style="fill:#1c1b38"/><path d="M19.61,50.29c-.12-.28-.14-.31-.06-.11-.07-.16-.13-.31-.19-.47-.11-.32-.22-.65-.31-1A12.87,12.87,0,0,1,18.66,47c.07.43-.05-.52-.06-.61,0-.26,0-.51,0-.77a17.85,17.85,0,0,1,.07-1.79c0-.31,0-.34,0-.1,0-.16.05-.33.08-.5.07-.34.14-.67.23-1a12.52,12.52,0,0,1,.56-1.7c-.14.35.23-.49.27-.57s.22-.42.35-.62.16-.26.25-.38c-.16.19-.14.18,0,0s.21-.22.32-.32l-.06,0a2.4,2.4,0,0,1,.27-.16c-.27.1-.27.11,0,0-.32,0-.32,0,0,0a.44.44,0,0,1-.37-.08c0-.09.66.47.27.14.09.08.62.74.39.4.06.08.46.88.3.47.08.22.14.46.2.69s.06.31,0,.05c0,.16,0,.32,0,.48s0,.32,0,0c0,.13-.05.26-.08.39s-.28.82-.14.51a6.34,6.34,0,0,1-.51.92c-.32.53-.69,1-1.06,1.54l-1.19,1.59c-.23.3-.44.64-.69.91q.21-.26-.06,0c.58-.54,1.33-.47,2.24.21a2.53,2.53,0,0,0-3.54,0,2.55,2.55,0,0,0,0,3.53c1.45,1.56,3.86,1,5.11-.51,1-1.23,2-2.57,2.92-3.89,1.92-2.7,2.63-5.92,1.07-9a6.49,6.49,0,0,0-3.68-3.24,5.07,5.07,0,0,0-4.79,1.16A9.14,9.14,0,0,0,15,38.36a16.39,16.39,0,0,0-1.25,4.29,17.78,17.78,0,0,0,1.5,10.16,2.51,2.51,0,0,0,3.42.9,2.57,2.57,0,0,0,.9-3.42Z" style="fill:#1c1b38"/><path d="M51.15,51.22a9.52,9.52,0,0,1-3.81-5.77c-.43-2,0-3.94,2-5a17.86,17.86,0,0,1,3.8-1.28,29.33,29.33,0,0,1,4.65-.88,4,4,0,0,1,1.46.05,1.57,1.57,0,0,1,.33.19c-.15-.11-.12-.15.06.11,0,0,.25.32.13.14s.12.25.14.29a3.56,3.56,0,0,1,.23.88,4.62,4.62,0,0,1-.27,1.72,16.9,16.9,0,0,1-2.06,3.77,28.67,28.67,0,0,1-2.48,3.4c-.75.83-1.27,1.22-2.31,1.06a7.22,7.22,0,0,1-1.76-.56c-.34-.14-.67-.3-1-.46s-.54-.42-.35-.11a3.6,3.6,0,0,1-.21-1.31,16,16,0,0,1,0-2.19,14.52,14.52,0,0,1,2.58-7.22,2.45,2.45,0,0,1,2.2-1.25l1,0c.24,0,.84.08,1,.05-.16,0-.31-.4-.07,0-.16-.28.14.48.12.32a5.59,5.59,0,0,1-.45,2c-.26.67-.51,1.33-.81,2a5.26,5.26,0,0,1-2.49,2.94,1.64,1.64,0,0,1-.45.06s-.42,0-.19,0-.41-.14-.07,0a.73.73,0,0,1-.32-.16c.19.15-.18-.33-.08-.1s-.08-.41-.09-.43L47.4,45.86a9.77,9.77,0,0,0,13.12-.69,2.51,2.51,0,0,0-3-3.92,13.58,13.58,0,0,0-4.35,3.88,24.38,24.38,0,0,1-1.79,2l-.44.4c-.48.44.32-.15-.24.18l-.6.35c-.45.25.25-.07-.29.1A2.56,2.56,0,0,0,48,51.26,2.52,2.52,0,0,0,51.11,53a11.28,11.28,0,0,0,5.09-3.77c.61-.73,1.19-1.48,1.85-2.17a9.14,9.14,0,0,1,1.06-1c-.28.21,0,0,.17-.1s.48-.28.73-.41l-3-3.92-.36.36c-.5.52.14-.06-.19.18a7.81,7.81,0,0,1-.88.52c-.16.07-.15.07,0,0l-.24.09-.49.15-.51.11-.25.05c.19,0,.2,0,0,0a8.85,8.85,0,0,1-1,0c-.44,0,.53.14-.23,0l-.5-.11c-.15,0-.87-.32-.6-.19a6.12,6.12,0,0,1-.56-.31c-.05,0-.49-.33-.23-.13a2.53,2.53,0,0,0-4.18,2.43A5.52,5.52,0,0,0,51.14,49a7.06,7.06,0,0,0,6.24-2.12,15.59,15.59,0,0,0,3.2-5.59c.88-2.2,1.39-4.55.27-6.77s-3.35-2.84-5.67-2.77-4.48.48-6.06,2.2a18.76,18.76,0,0,0-4.47,11.46c-.12,2.15-.08,5,1.47,6.62a7.24,7.24,0,0,0,2.42,1.54,14.16,14.16,0,0,0,3.27,1.16,7.2,7.2,0,0,0,6.5-1.85,26.77,26.77,0,0,0,4-5.24c2.17-3.39,4.2-7.9,1.57-11.66a6.41,6.41,0,0,0-5.93-2.72,35.71,35.71,0,0,0-6.86,1.26,14.16,14.16,0,0,0-6.34,3.09A9,9,0,0,0,42.21,44c-.07,4.67,2.68,9,6.41,11.56a2.5,2.5,0,0,0,2.53-4.32Z" style="fill:#1c1b38"/><path d="M19.62,47.58h2.2a1.88,1.88,0,0,0,1-.22,1.85,1.85,0,0,0,.81-.52,1.83,1.83,0,0,0,.51-.8,1.88,1.88,0,0,0,.22-1l-.09-.67a2.5,2.5,0,0,0-.64-1.1l-.51-.39a2.43,2.43,0,0,0-1.26-.34h-2.2a1.8,1.8,0,0,0-1,.21,1.82,1.82,0,0,0-.8.52,1.85,1.85,0,0,0-.52.8,1.89,1.89,0,0,0-.21,1l.09.66a2.41,2.41,0,0,0,.64,1.1l.51.39a2.54,2.54,0,0,0,1.26.35Z" style="fill:#1c1b38"/><path d="M20.09,31.45l.41-.36.21-.17c.27-.22-.13.08-.17.13a4.09,4.09,0,0,1,1-.66,13.87,13.87,0,0,1,2-1.06l-.6.26a14,14,0,0,1,3.58-1l-.66.09c.27,0,.54-.07.82-.09a2.66,2.66,0,0,0,1.77-.73,2.57,2.57,0,0,0,.73-1.77,2.53,2.53,0,0,0-2.5-2.5,17,17,0,0,0-10.11,4.32,2.5,2.5,0,0,0,0,3.53,2.55,2.55,0,0,0,3.54,0Z" style="fill:#1c1b38"/><path d="M52.87,29.05c1,0,1.91.05,2.86.13.48,0,1,.08,1.43.14l.41.05h-.06l.71.11a22.49,22.49,0,0,1,2.57.52c.12,0,.38.18.5.16-.36-.16-.43-.18-.19-.07l.2.11c.51.3-.32-.34,0,0s.14.13-.12-.18a2,2,0,0,1,.14.25,2.52,2.52,0,0,0,3.42.9,2.57,2.57,0,0,0,.9-3.42c-1.08-2.12-3.55-2.65-5.68-3a44.52,44.52,0,0,0-7.09-.66,2.5,2.5,0,0,0,0,5Z" style="fill:#1c1b38"/><path d="M14.88,49.42A20.53,20.53,0,0,1,12.63,35.2a21,21,0,0,1,8-12.58A57.35,57.35,0,0,1,36.42,14.4a67.53,67.53,0,0,1,17.49-3.76,44.9,44.9,0,0,1,9.2,0,20.6,20.6,0,0,1,8,3A39,39,0,0,1,82.32,24c6,8.19,9.1,18.47,7.85,28.59a19.63,19.63,0,0,1-2.84,8.73,21.64,21.64,0,0,1-7.13,6c-2.79,1.63-5.78,2.56-8.73,3.82s-5.07,3.14-5.35,6.36a2.52,2.52,0,0,0,2.5,2.5,2.55,2.55,0,0,0,2.5-2.5,1.16,1.16,0,0,1,.36-.6,3.89,3.89,0,0,1,1-.72,21.42,21.42,0,0,1,3.4-1.38A40.15,40.15,0,0,0,84.8,70.3a24.41,24.41,0,0,0,7.08-6.8,23.23,23.23,0,0,0,3.05-9.13,45.18,45.18,0,0,0-7.64-32,46.18,46.18,0,0,0-12-12,27.42,27.42,0,0,0-8.63-4.1,35.66,35.66,0,0,0-10.1-.78c-13,.48-26.51,4.47-37.25,12-5.53,3.86-9.76,9-11.34,15.69A26,26,0,0,0,10.56,52c1.6,2.79,5.92.27,4.32-2.53Z" style="fill:#1c1b38"/><path d="M27.34,78.43a23.54,23.54,0,0,0,9.82,4l-1.11-4.18c-2,2.07-5.31,2.37-7.92,3.41a26.63,26.63,0,0,0-7.81,4.87c-4.63,4.11-7.93,9.57-10.83,15-1.69,3.15-3.65,6.42-4.45,9.92a19.07,19.07,0,0,0,.89,10.7,58.47,58.47,0,0,0,4.85,9.69,49.48,49.48,0,0,0,6.11,8.72C21.94,146,29.33,148,36.21,150a86.84,86.84,0,0,0,11.13,2.61,39.13,39.13,0,0,0,11.58.49c3.75-.54,6.38-3.22,9.89-4.35a31.88,31.88,0,0,1,9.77-1.21,33.9,33.9,0,0,1,4.94.1c1.66.23,2.44,1.36,3.74,2.27,3.11,2.16,7,.62,10.26-.35a46.15,46.15,0,0,0,10.74-4.4,27.3,27.3,0,0,0,8.18-7.73c4.14-5.82,6.16-12.94,7.66-19.84.69-3.13-4.13-4.47-4.82-1.33-1.25,5.73-2.8,11.52-5.82,16.6a23.76,23.76,0,0,1-5.53,6.49,27.82,27.82,0,0,1-8.1,4.22c-1.47.51-3,1-4.45,1.41s-3.17,1.24-4.65,1c-1.18-.16-2-1.53-3-2.13a10.36,10.36,0,0,0-5-1.31c-6.41-.32-13.56-.15-19.28,3.1A20.54,20.54,0,0,1,59.34,148a16.57,16.57,0,0,1-5.21.37,55.86,55.86,0,0,1-10.6-1.52c-3.56-.83-7.06-1.9-10.54-3a39.46,39.46,0,0,1-8.9-3.7,21.83,21.83,0,0,1-6.34-6.5,93.11,93.11,0,0,1-5-8.5c-1.49-2.8-2.89-5.88-3.07-9.09-.19-3.43,1.23-6.33,2.77-9.3,2.92-5.64,6-11.44,10.65-15.88A20.62,20.62,0,0,1,30.5,86.1c3.22-1.11,6.6-1.79,9.09-4.31,1.21-1.22.82-3.87-1.1-4.18a20.21,20.21,0,0,1-8.63-3.49,2.52,2.52,0,0,0-3.42.89,2.55,2.55,0,0,0,.9,3.42Z" style="fill:#1c1b38"/><path d="M115.62,119.82a26.41,26.41,0,0,0,15.33-6c4.38-3.57,8.47-9.32,7.27-15.23a2.52,2.52,0,0,0-3.67-1.49,9.11,9.11,0,0,1-4,1.18c-.84,0-3,.11-3.64-.55l.64,1.1-.1-.3v1.33c.07-.46,1.39-1.61,1.84-2.15a17.79,17.79,0,0,0,2.22-3.11,9,9,0,0,0,.82-7c-1.55-4.36-7.78-5.93-10.46-1.67l4.57,1.92c.52-2.49,1.12-5,1.54-7.48.35-2.1.3-4.39-1.32-6a5.52,5.52,0,0,0-6.25-.73c-2,.94-3,2.76-4.35,4.35A19.09,19.09,0,0,1,97,84.12c-3.12-.81-4.45,4-1.33,4.82a24.1,24.1,0,0,0,20-3.8,22.73,22.73,0,0,0,3.85-3.48c.88-1,1.88-3,3.19-3.58a1,1,0,0,1,.71-.06s-.25-.18-.23-.1a4.34,4.34,0,0,1-.11,1.78c-.45,2.27-.94,4.53-1.41,6.79a2.51,2.51,0,0,0,4.57,1.93c-.11.18.07,0,.2-.07-.21,0,.48,0,.15,0a5.55,5.55,0,0,1,.54.15c.5.24.72,1.15.63,1.94-.32,2.77-3,4.55-4.45,6.67a3.32,3.32,0,0,0,.33,4.4,8.12,8.12,0,0,0,4.39,1.62,14.44,14.44,0,0,0,9.06-1.7l-3.67-1.5c.43,2.14-.76,4.28-1.91,6a19.94,19.94,0,0,1-4.37,4.61,21,21,0,0,1-11.5,4.3c-3.2.17-3.22,5.18,0,5Z" style="fill:#1c1b38"/><path d="M68.47,81.34C79.22,81.1,89,86.18,98.31,91c2.85,1.49,5.38-2.82,2.53-4.31C90.77,81.45,80.12,76.08,68.47,76.34c-3.21.07-3.22,5.07,0,5Z" style="fill:#1c1b38"/><path d="M86.44,93.27a35.46,35.46,0,0,0,14.65,1.42,37.65,37.65,0,0,0,6.9-1.46c1-.31,3.36-1.45,4.17-.4s.27,3.76-.22,5a8.39,8.39,0,0,1-3,3.76c-1.57,1.1-3.35,1.88-5,2.85a15.66,15.66,0,0,0-4.64,4c-1.22,1.59.46,3.71,2.15,3.76l4.61.13,2.18.06c.22,0,.94.13,1.07,0s-.08-.39-.28-.4c0,0-1.08,1-1.29,1.11a12.78,12.78,0,0,1-3,1.41c-4.61,1.56-9.59,1.79-13.84,4.37a2.5,2.5,0,0,0-1,3.12,2.57,2.57,0,0,0,3,1.45A1.16,1.16,0,0,1,94,124.9c-.22,1.07-1.68,1.29-2.58,1.35a25.62,25.62,0,0,1-10.46-2c-5.44-2.06-12.35-5.37-12.48-12.06a14.63,14.63,0,0,1,3.37-9.27,2.58,2.58,0,0,0,0-3.54,2.53,2.53,0,0,0-3.54,0,20.17,20.17,0,0,0-4.83,12.44,14.75,14.75,0,0,0,5.75,11.72A39.28,39.28,0,0,0,82.43,130c4.19,1.23,10.22,2.52,14-.32a6.14,6.14,0,0,0-5-11l1.93,4.56c5.2-3.15,11.84-2.44,17-5.88a7.84,7.84,0,0,0,3.27-3.7,4.8,4.8,0,0,0-.93-4.9c-1.44-1.49-3.6-1.32-5.5-1.37l-5.82-.16,2.16,3.76c1.84-2.4,5.27-3.36,7.71-5a13.52,13.52,0,0,0,6-8.91c.6-3.71-.17-8.58-4.54-9.49a11,11,0,0,0-5.56.62,35.9,35.9,0,0,1-5.87,1.43,31.16,31.16,0,0,1-13.56-1.21c-3.07-1-4.39,3.86-1.33,4.82Z" style="fill:#1c1b38"/><path d="M41.32,14.15a47.82,47.82,0,0,1,6.06-6.66c1.82-1.61,4.18-3,6.67-2.29L53.46.63a28.49,28.49,0,0,0-6,5.23,3.77,3.77,0,0,0-.74,4.24c.87,1.48,2.48,1.67,4,1.36a19.86,19.86,0,0,0,7.15-3.15c1.77-1.22,3.58-2.93,5.86-2.62L62,1.42a8.62,8.62,0,0,1-4,2.87c-3,1-1.75,5.83,1.33,4.82A13.27,13.27,0,0,0,65.48,5,2.53,2.53,0,0,0,63.71.69c-2.84-.38-5.36,1.18-7.58,2.74A24.67,24.67,0,0,1,52.7,5.54,13.31,13.31,0,0,1,51,6.21L50,6.5l-.41.1c-.58.11-.54.12.11,0l1.11.65-.18-.2.64,1.1-.2,1.1L51.33,9a5,5,0,0,0,.59-.62c.45-.45.91-.89,1.38-1.31A25.61,25.61,0,0,1,56,5a2.53,2.53,0,0,0-.6-4.57C47.45-1.83,41.2,6.12,37,11.63a2.52,2.52,0,0,0,.89,3.42,2.56,2.56,0,0,0,3.42-.9Z" style="fill:#1c1b38"/><path d="M29.31,97a9,9,0,0,0-7.48,4.82c-1.67,3.05-1.66,6.61-1.4,10A2.52,2.52,0,0,0,24.19,114L33,108.53l-3.43-3.42a7.48,7.48,0,0,0,.1,7.37c1.22,2.22,3.39,3.71,5.45,5.08a2.52,2.52,0,0,0,3.76-2.16,8.51,8.51,0,0,1,1.49-5.09l-4.57-.59a27.21,27.21,0,0,0,4.91,9.13c1.25,1.55,3.67.53,4.18-1.1L47,110.83l-4.57.6a13.47,13.47,0,0,0,5.78,5.18c2.58,1.17,6.16,2.06,8.35-.29,1.78-1.9,1.43-4.81.76-7.09-.93-3.18-1.89-6.35-2.84-9.52s-5.74-1.77-4.82,1.33l2.07,7c.31,1,.65,2,.92,3.08.16.64.13,1.25.22,1.75,0-.15-.06.5.07.06a.41.41,0,0,1,.24-.08,3.88,3.88,0,0,1-.59,0,7.52,7.52,0,0,1-2.18-.65,8.49,8.49,0,0,1-3.66-3.23,2.53,2.53,0,0,0-4.57.6L40,116.42l4.18-1.1a20.83,20.83,0,0,1-3.63-6.93,2.53,2.53,0,0,0-4.57-.6,13.16,13.16,0,0,0-2.17,7.61l3.76-2.16c-1.58-1-5.12-3.25-3.75-5.61,1.24-2.12-1.27-4.76-3.42-3.42l-8.77,5.46,3.77,2.15c-.18-2.29-.44-4.89.52-7.07A4.18,4.18,0,0,1,29.31,102c3.21-.11,3.22-5.11,0-5Z" style="fill:#1c1b38"/><path d="M23.16,141.16a45.06,45.06,0,0,0-6.42,2,9.18,9.18,0,0,0-2.92,1.73,5.17,5.17,0,0,0-1.55,3.32c-.15,1.17.91,2,1.84,2.41a28.73,28.73,0,0,0,9.35,2.18,4.86,4.86,0,0,0,2.64-.59,8.56,8.56,0,0,0,1.68-1.5l.35-.32c-.19.17-.1.06.05,0s.53-.32.81-.48-.1,0,.15-.07l.45-.15a7.23,7.23,0,0,1,1-.21,2.51,2.51,0,0,0,1.75-3.08,2.58,2.58,0,0,0-3.08-1.74,8.72,8.72,0,0,0-3.82,1.55,11.4,11.4,0,0,0-1.68,1.49c-.3.32-.36.34.07.13-.29.07-.31.08,0,0h-.36a19.74,19.74,0,0,1-3.8-.62,29.73,29.73,0,0,1-4.22-1.38l1.83,2.41c0,.08-.18.68-.08.41s.34-.28,0,0a3.84,3.84,0,0,0,.3-.28c-.27.24-.1.08.09,0a8.93,8.93,0,0,1,.87-.45c-.35.16-.07,0,.13,0l.67-.24A52.16,52.16,0,0,1,24.49,146a2.5,2.5,0,0,0-1.33-4.83Z" style="fill:#1c1b38"/><path d="M24.35,154.36a24.33,24.33,0,0,0,21-.57,2.5,2.5,0,0,0-2.52-4.32,19,19,0,0,1-15.92.57,2.58,2.58,0,0,0-3.42.9,2.51,2.51,0,0,0,.9,3.42Z" style="fill:#1c1b38"/><path d="M59.36,155.93A15.54,15.54,0,0,0,65,158.46c2.22.49,5,.83,6.64-1.1a24.33,24.33,0,0,0,1.61-2.51A12.2,12.2,0,0,1,74.75,153,14.38,14.38,0,0,1,79,149.92a2.5,2.5,0,1,0-2.52-4.31,19.68,19.68,0,0,0-7.86,7.17c-.21.34-.39.69-.59,1-.08.13-.24.28-.15.26a1.52,1.52,0,0,0,.29-.2c.1-.12.14,0-.13,0l-.7,0-.33,0-.56-.1a11.22,11.22,0,0,1-4.61-2.06,2.52,2.52,0,0,0-3.42.9,2.56,2.56,0,0,0,.9,3.42Z" style="fill:#1c1b38"/><path d="M70,160.08a30,30,0,0,0,13.18-2.31,44.38,44.38,0,0,0,6.06-3,11.41,11.41,0,0,0,4.48-4.29c1.47-2.85-2.84-5.38-4.32-2.52a7.38,7.38,0,0,1-3.15,2.77,34.68,34.68,0,0,1-5.12,2.51A26,26,0,0,1,70,155.08a2.52,2.52,0,0,0-2.5,2.5,2.55,2.55,0,0,0,2.5,2.5Z" style="fill:#1c1b38"/></g></g></svg>