<svg xmlns="http://www.w3.org/2000/svg" viewBox="0 0 126.48 162.2"><g id="Слой_2" data-name="Слой 2"><g id="Слой_3" data-name="Слой 3"><path d="M31.3,41c-.39,3.74-.33,7.5-.55,11.25a44,44,0,0,1-1.9,10.18c-1.93,6.39-4.64,12.66-4.94,19.42S26.36,94.65,30.23,100c4.12,5.66,8.79,11,13.34,16.32,2.14,2.51,4.65,4.73,7.94,5.54s6.73.13,10.09.63,6.44,2.31,10,1a62.59,62.59,0,0,0,9.63-5c6-3.48,12.14-7.37,17.24-12.1A23.26,23.26,0,0,0,106,87.73a123.25,123.25,0,0,0-1.64-12.54c-.64-4-1.36-8.1-2.36-12.07a110.49,110.49,0,0,0-3.84-11.53c-1.3-3.48-2.62-7.25-1.81-11,.67-3.14-4.15-4.48-4.83-1.33-1.5,7,1.93,13.27,4.08,19.73A121.11,121.11,0,0,1,100,79.57c1,6.47,2.13,13.12-1.45,19a25.37,25.37,0,0,1-6.45,6.66c-2.66,2.06-5.44,4-8.27,5.8s-5.76,3.56-8.74,5.16c-1.34.72-2.69,1.43-4.07,2.1a5.4,5.4,0,0,1-4.15.36,41.2,41.2,0,0,0-4.17-1.08,33.9,33.9,0,0,0-5.42-.28c-2.93,0-5.65-.14-7.93-2.2a69.73,69.73,0,0,1-6.43-7.4c-2.16-2.59-4.34-5.17-6.45-7.79-3.6-4.48-7.14-9.62-7.53-15.53-.45-7,2.6-13.64,4.61-20.19A49.83,49.83,0,0,0,35.7,53c.29-4,.19-8,.6-12a2.52,2.52,0,0,0-2.5-2.5A2.55,2.55,0,0,0,31.3,41Z" style="fill:#1c1b38"/><path d="M41.22,106.6a31.53,31.53,0,0,0,12.84,2.76,38.47,38.47,0,0,0,6.07-.22c1.91-.28,3.55-1.28,5.42-1.63,1.51-.28,3.27.87,4.76,1.18a24.6,24.6,0,0,0,6,.46c4.32-.16,8.55-1.18,12.87-1.21,3.22,0,3.23-5,0-5-4.1,0-8.11.94-12.2,1.18a20.7,20.7,0,0,1-5.33-.25c-1.84-.38-3.58-1.43-5.5-1.43s-3.59.94-5.43,1.48a18.07,18.07,0,0,1-5.19.46,27.94,27.94,0,0,1-11.78-2.1,2.58,2.58,0,0,0-3.42.9,2.52,2.52,0,0,0,.9,3.42Z" style="fill:#1c1b38"/><path d="M53.25,113.1a72.16,72.16,0,0,0,13.06-.48c2.16-.28,4.3-.65,6.44-1.08,1.45-.29,3.07-.69,4.4.16L78.41,107c-3.7,0-7.41.08-11.11,0a34.18,34.18,0,0,1-5.15-.52,23.22,23.22,0,0,0-5.75-.59,2.55,2.55,0,0,0-2.5,2.5,2.53,2.53,0,0,0,2.5,2.5,22.4,22.4,0,0,1,5.34.57,39.8,39.8,0,0,0,5.56.54c3.7.11,7.41,0,11.11,0a2.51,2.51,0,0,0,1.26-4.65c-3.77-2.42-8.59-.48-12.61.12a69.33,69.33,0,0,1-13.81.59c-3.21-.17-3.21,4.83,0,5Z" style="fill:#1c1b38"/><path d="M57.8,78.47q6.31-.19,12.63-.07a2.52,2.52,0,0,0,2.5-2.5,2.55,2.55,0,0,0-2.5-2.5q-6.32-.12-12.63.07a2.5,2.5,0,1,0,0,5Z" style="fill:#1c1b38"/><path d="M48.31,80.38c-5.39,4.31-10.58,9.05-12.94,15.72a2.5,2.5,0,0,0,1.74,3.07,2.57,2.57,0,0,0,3.08-1.74l.21-.58s.19-.47.11-.28.15-.33.17-.38l.22-.45A21.92,21.92,0,0,1,42,93.8c.4-.63.82-1.24,1.28-1.83l.14-.18.4-.48c.24-.29.49-.57.74-.84a61.1,61.1,0,0,1,7.28-6.55,2.51,2.51,0,0,0,0-3.54,2.57,2.57,0,0,0-3.53,0Z" style="fill:#1c1b38"/><path d="M79.23,84.28A14.75,14.75,0,0,1,81,85.45c-.28-.21,0,0,.14.13l.36.31c.26.24.52.48.77.74s.49.52.72.79l.38.45c-.17-.2-.06-.07,0,.06a19,19,0,0,1,1.19,1.91c.17.32.32.64.47,1-.11-.24,0-.1,0,.06s.15.4.22.61c.27.77.49,1.55.71,2.34a25.39,25.39,0,0,0,1.82,5,2.53,2.53,0,0,0,3.42.9,2.56,2.56,0,0,0,.89-3.42,10.88,10.88,0,0,1-.79-2c-.26-.83-.47-1.66-.7-2.49a22,22,0,0,0-2-4.92,18.89,18.89,0,0,0-7-6.94,2.5,2.5,0,1,0-2.52,4.32Z" style="fill:#1c1b38"/><path d="M76.71,89.5a11.8,11.8,0,0,1,1,1l.48.56c.22.25,0,0-.08-.11a2.52,2.52,0,0,0,.24.33,11.51,11.51,0,0,1,.74,1.21c.12.22.23.44.34.66s.18.43,0,.09.05.12.06.16a21,21,0,0,1,.71,2.73c-.06-.24-.06-.48,0-.09l0,.33c0,.25,0,.5,0,.74a10.77,10.77,0,0,1-.08,1.5,2.51,2.51,0,0,0,2.5,2.5,2.58,2.58,0,0,0,2.5-2.5,15,15,0,0,0-5-12.63,2.56,2.56,0,0,0-3.54,0,2.54,2.54,0,0,0,0,3.54Z" style="fill:#1c1b38"/><path d="M52.65,84.69a16.49,16.49,0,0,0-5.79,5.68,2.6,2.6,0,0,0-.25,1.93,2.53,2.53,0,0,0,1.15,1.49,2.49,2.49,0,0,0,1.92.26,2.7,2.7,0,0,0,1.5-1.15,11.69,11.69,0,0,1,.9-1.31l-.39.5a14.37,14.37,0,0,1,2.47-2.46l-.51.4a14.94,14.94,0,0,1,1.52-1,2.52,2.52,0,0,0,1.15-1.49,2.5,2.5,0,0,0-1.74-3.08,2.65,2.65,0,0,0-1.93.25Z" style="fill:#1c1b38"/><path d="M51,53.56a24.09,24.09,0,0,1-3.63,4.88,35.55,35.55,0,0,0-4.29,5.64,46.71,46.71,0,0,1-3.58,5.81,52.87,52.87,0,0,1-5,5.16c-2.34,2.22,1.2,5.75,3.54,3.53a54.06,54.06,0,0,0,5-5.16A48.78,48.78,0,0,0,47.19,67c2.28-4,6-6.81,8.12-10.87,1.46-2.86-2.85-5.39-4.32-2.52Z" style="fill:#1c1b38"/><path d="M58.89,62.08l-.28.22-1.26.34L55.8,61.7a2.56,2.56,0,0,0,2.83,1.15c.3-.05.33-.05.08,0l.51,0h.5c-.26,0-.24,0,.05,0q-.33-.16.06.06c-.19-.13-.17-.1.05.1a5.9,5.9,0,0,0,1.06.88,5.53,5.53,0,0,0,4.71.43,20.79,20.79,0,0,0,3.79-2c.27-.13.31-.16.11-.08l.48-.16.09,0c.3,0,.35,0,.13,0a4.26,4.26,0,0,1,1.65.75,2.5,2.5,0,0,0,2.53-4.32A7.54,7.54,0,0,0,69,57.19a15.92,15.92,0,0,0-4.29,2.13c-.09.06-.34.17-.1.07a3.38,3.38,0,0,1-.48.16,3.74,3.74,0,0,1-.48.12c.28,0,.1,0-.06,0l.2,0c-.26-.08-.3-.08-.15,0s.31.3.1.06a6.06,6.06,0,0,0-.89-.79c-1.64-1.3-3.54-1.2-5.5-.89l2.82,1.15a3,3,0,0,0-4.77-.63,2.55,2.55,0,0,0,0,3.53,2.53,2.53,0,0,0,3.54,0Z" style="fill:#1c1b38"/><path d="M73.47,56.49c3.29,2.81,4.74,7,7,10.6C83,71,86.07,74.58,88,78.86a2.52,2.52,0,0,0,3.42.9,2.56,2.56,0,0,0,.89-3.42c-2-4.41-5.22-8-7.73-12.1C82.2,60.37,80.54,56,77,53a2.55,2.55,0,0,0-3.53,0,2.5,2.5,0,0,0,0,3.53Z" style="fill:#1c1b38"/><path d="M57.91,53a32.35,32.35,0,0,0,2.65-3.49c.69-1.07,1.15-2.3,1.88-3.34l-.9.9c-.31.24-.76.06,0,.12.31,0,.64,0,1,0l2.16.05,4.08.09L66.3,45.46A34.85,34.85,0,0,0,69,50.74a11.28,11.28,0,0,0,3.36,4c1.74,1.07,3.79,1,5.75,1.09l6,.23c3.43.13,7.8.78,9.76-2.81a19,19,0,0,0,1.41-5.4c.4-2,1-4.08.25-6a2.57,2.57,0,0,0-3.08-1.75,2.52,2.52,0,0,0-1.74,3.07c.42,1.16-.06,2.47-.3,3.63-.15.79-.31,1.57-.46,2.35a4.68,4.68,0,0,1-.43,1.71c-.39.53-1.35.39-1.93.38-1.48,0-3-.11-4.44-.17l-4.57-.17c-1,0-2.58.19-3.54-.32s-1.46-1.9-2-2.73a26.17,26.17,0,0,1-1.94-3.71,2.6,2.6,0,0,0-2.41-1.83l-4.8-.11c-1.44,0-3.39-.41-4.69.35s-1.63,2.12-2.29,3.27a23.35,23.35,0,0,1-2.56,3.61,2.56,2.56,0,0,0,0,3.53,2.53,2.53,0,0,0,3.54,0Z" style="fill:#1c1b38"/><path d="M53.24,50a1.44,1.44,0,0,1-.85.35c-.16,0-.7.06-1.08.09-1.08.09-2.16.17-3.25.22a23.63,23.63,0,0,1-6.28-.42c-.52-.12-1-.27-1.54-.44-.09,0-.32-.2-.19-.09s.14.22,0,0a14.32,14.32,0,0,1-1.19-2.5,30.32,30.32,0,0,1-1.67-6.35,2.52,2.52,0,0,0-3.08-1.75,2.58,2.58,0,0,0-1.74,3.08A31.89,31.89,0,0,0,34.6,50a10.54,10.54,0,0,0,1.86,3.26A7.45,7.45,0,0,0,40.11,55a27.59,27.59,0,0,0,8,.68c1.33-.06,2.65-.16,4-.28a7.16,7.16,0,0,0,3.74-1.07,2.57,2.57,0,0,0,.89-3.42A2.52,2.52,0,0,0,53.24,50Z" style="fill:#1c1b38"/><path d="M36.5,43.39,93,42.75c3.22,0,3.23-5,0-5l-56.47.64c-3.22,0-3.23,5,0,5Z" style="fill:#1c1b38"/><path d="M97.76,49.05c1.14-.73.95,2.29.94,2.86a77.82,77.82,0,0,1-.83,7.77c-.59,4.7-.29,10.57,4.62,12.93a2.57,2.57,0,0,0,3.42-.9,2.52,2.52,0,0,0-.89-3.42c-2-1-2.48-3.2-2.44-5.3,0-2.82.61-5.65.92-8.45.29-2.57.52-5.59-.8-7.93a5.31,5.31,0,0,0-7.46-1.87c-2.7,1.73-.19,6.06,2.52,4.31Z" style="fill:#1c1b38"/><path d="M33.69,45.41c-1.78-2.11-5.1-1.52-6.72.42a11.8,11.8,0,0,0-2.21,7.45,14.59,14.59,0,0,0,.55,3.83,23.25,23.25,0,0,1,1,3.14c0-.13,0,.4,0,.47,0-.42-.07.3-.08.35-.09.43.09-.06-.13.36a6.16,6.16,0,0,1-.33.55c-.1.14-.1.14,0,0l-.17.18s-.58.47-.29.27a2,2,0,0,1-1.05.45,2.5,2.5,0,1,0,1.33,4.82A7.47,7.47,0,0,0,30.44,64a8,8,0,0,0,.21-6.66,10.82,10.82,0,0,1-.79-5.58,11.86,11.86,0,0,1,.39-1.56c0-.08.24-.67.11-.36a6.63,6.63,0,0,1,.31-.59c.1-.15.1-.16,0,0l.19-.19s-.54.16-.17.09-.23,0-.33,0-.54-.47-.21-.07a2.54,2.54,0,0,0,3.54,0,2.56,2.56,0,0,0,0-3.54Z" style="fill:#1c1b38"/><path d="M27,46.17c-2.89-.77-5.75-1.63-8.57-2.61-1.16-.4-2.36-.78-3.48-1.29-.67-.3-1.53-.67-1.73-1.38l-1.15,2.83c6.84-3.66,14.75-5,22.36-5.94a222.67,222.67,0,0,1,24.76-1.67c8.38-.13,16.76.07,25.14.36l12.45.45c3.87.14,7.89,0,11.7.8a15.26,15.26,0,0,1,5.25,2.05c.72.47,1.22,1.2,1.9,1.67,0,0,.23.28.23.28.15,0,.21-1.39.29-1.34-.18-.12-1.62.57-1.84.64q-6.66,2.26-13.49,4c-3.11.8-1.79,5.62,1.33,4.82,4.39-1.12,8.74-2.39,13-3.84,2-.69,4.79-1.25,5.48-3.6s-1-4.24-2.63-5.61c-3.23-2.75-7.22-3.9-11.37-4.38-4.47-.52-9-.45-13.54-.62-18.26-.68-36.61-1.42-54.82.53-9.76,1-20,2.38-28.75,7.08A2.52,2.52,0,0,0,8.4,42.22c.93,3.24,4,4.45,6.88,5.51Q20.4,49.61,25.67,51c3.11.82,4.44-4,1.33-4.82Z" style="fill:#1c1b38"/><path d="M16.09,44c5.05,2.54,11.07,5,16.37,1.62a2.53,2.53,0,0,0,0-4.31A11.28,11.28,0,0,0,28,39.4a12.1,12.1,0,0,0-2.48-.2c-.31,0-.66,0-1,0-.77.11.55-.68.8.91l-1.74,3.08A408,408,0,0,1,97,40.06c3.43.16,6.86.37,10.28.61,1.71.13,3.43.26,5.14.41.81.07,1.63.1,2.44.21a2,2,0,0,1,.5.09c.49.11.52.37.22-.07l1.49-3.67A85.35,85.35,0,0,0,98.66,43l2.83,3.67a6.94,6.94,0,0,0-3.82-10,2.54,2.54,0,0,0-3.08,1.75,13.79,13.79,0,0,0-.58,4.6,2.53,2.53,0,0,0,3.16,2.41l7.93-1.33c2.56-.43,2.19-4.17,0-4.82C94.32,36.12,83,35.23,71.84,34.75c-5.57-.23-11.14-.38-16.71-.68S43.68,32.77,38.07,34c-3,.68-6,1.74-9,2.44a70.58,70.58,0,0,1-9.26,1.49,2.57,2.57,0,0,0-2.5,2.5,2.51,2.51,0,0,0,2.5,2.5,86.18,86.18,0,0,0,16.45-3.26,26.32,26.32,0,0,1,7.92-1.29c2.79,0,5.58.34,8.37.52,11,.72,22.1.64,33.1,1.77a99.64,99.64,0,0,1,18.12,3.48V39.34l-7.93,1.33L99,43.08a9.51,9.51,0,0,1,.4-3.27l-3.07,1.74a1.9,1.9,0,0,1,.83,2.64c-1,1.71.73,4.55,2.82,3.67a85.35,85.35,0,0,1,18.44-5.4,2.51,2.51,0,0,0,1.49-3.67c-1.82-2.67-5.06-2.51-8-2.75q-4.89-.42-9.78-.7-9.56-.57-19.11-.69Q63.71,34.39,44.37,36q-11.08.9-22.11,2.42c-1.44.19-1.93,1.89-1.75,3.07.34,2.11,2.6,2.82,4.44,2.75a7.57,7.57,0,0,1,5,1.35V41.27c-3.63,2.29-7.94.08-11.33-1.62-2.87-1.44-5.4,2.87-2.52,4.31Z" style="fill:#1c1b38"/><path d="M35.83,35.61c3.78-5,6.29-10.82,8.73-16.59,1.19-2.81,2.37-5.64,3.69-8.4a16.57,16.57,0,0,1,1.84-3.36c.89-1.1,2-.76,3.19-.41,3,.85,5.84,2.21,8.91,2.78a14.2,14.2,0,0,0,9.68-1.39,26.57,26.57,0,0,0,3.44-2.32c.32-.24.68-.48,1-.73.64-.53.37-.1.14-.21s.55.71.28.41a7.94,7.94,0,0,1,.75,1C79.19,9,80.36,12,81.84,14.79a148.19,148.19,0,0,0,12.06,19,2.58,2.58,0,0,0,3.42.9,2.53,2.53,0,0,0,.9-3.42A146.87,146.87,0,0,1,86.59,13.07c-1.61-3-2.88-6.2-4.69-9A9.68,9.68,0,0,0,78.54.48c-1.89-1-3.84-.31-5.43.87C70.65,3.19,68.21,5.07,65,5s-6.44-1.71-9.53-2.68a11.2,11.2,0,0,0-5.12-.69A6.7,6.7,0,0,0,46,4.4c-2,2.57-3.13,5.87-4.39,8.82C38.7,20.06,36,27.08,31.51,33.08a2.52,2.52,0,0,0,.9,3.42,2.56,2.56,0,0,0,3.42-.89Z" style="fill:#1c1b38"/><path d="M42.11,27.14c14.49.05,29.2-3.17,43.59-.3,2.33.47,4.34-2.34,2.43-4.17a8.73,8.73,0,0,0-4.5-2.07Q80.81,20,78,19.52q-5.65-.94-11.39-1.43a138.86,138.86,0,0,0-22.8,0l2.5,2.5v-.26l-.34,1.26c-.58,1-.84.42-.24.49A6.24,6.24,0,0,0,46.91,22l2.42-.28,5.07-.59c3.28-.38,6.55-.81,9.84-1.1a51.31,51.31,0,0,1,9.6,0,89,89,0,0,1,9.85,1.72A2.53,2.53,0,0,0,86.51,18c-1.35-3-5-3.74-7.84-4.32a71.29,71.29,0,0,0-10.91-1.22c-7.24-.3-14.49.18-21.74-.08l2.16,3.76a7,7,0,0,1,1.31-.26c1.36-.19,2.75-.3,4.12-.43,2.59-.27,5.18-.49,7.78-.6a69.23,69.23,0,0,1,8,.07,24.1,24.1,0,0,0,6.89-.06c2.34-.51,4.88-2.11,5.12-4.71.25-2.82-2.17-4.25-4.63-4.6a11.42,11.42,0,0,0-7.11,1.32A9.67,9.67,0,0,1,67,8.16a23.86,23.86,0,0,1-3.59.2c-5.1.14-10.46,0-15.09-2.37l-.6,4.57a20.29,20.29,0,0,1,8.31.5c2.94.63,5.86,1.26,8.84,1.69s5.87.61,8.74,1.19,5.48,2.16,8.53,2.19c2,0,3.47-2.84,1.77-4.27-1.18-1-2.36-2-3.47-3-.65-.63-1.47-1.36-1.49-2.32-.06-3.21-5.06-3.22-5,0,.08,4,3.63,6.53,6.42,8.87l1.77-4.26a11.7,11.7,0,0,1-4-1A21.6,21.6,0,0,0,74,9c-3.06-.48-6.15-.75-9.22-1.24-6.09-1-12.18-3.26-18.38-2a2.53,2.53,0,0,0-.6,4.57,30,30,0,0,0,12.83,3c2.24.09,4.48,0,6.72-.06a14.64,14.64,0,0,0,3.43-.42A15.68,15.68,0,0,0,72,11.28a6.49,6.49,0,0,1,2.34-.83,7,7,0,0,1,1.29,0,10.91,10.91,0,0,0,1.25.24h0c-.5-.47-.62-.9-.34-1.28.06,0,0,.06-.21.17a4.23,4.23,0,0,1-1,.38,9.53,9.53,0,0,1-2.77.21c-2.28-.09-4.54-.35-6.82-.38-2.52,0-5,.08-7.54.26-2.68.2-5.35.48-8,.77s-4.76.63-6.35,2.82c-1.18,1.62.43,3.7,2.16,3.76,6.62.23,13.24-.14,19.86,0a70.17,70.17,0,0,1,9.39.73,44.52,44.52,0,0,1,4.7,1c1,.27,1.81.51,2.22,1.42L85,16.84a97.64,97.64,0,0,0-11.65-1.95,59,59,0,0,0-11.27.31c-3.77.4-7.54.87-11.31,1.31-1.94.22-3.87.43-5.8.67s-3.63,1.26-3.71,3.43a2.51,2.51,0,0,0,2.5,2.5A139.86,139.86,0,0,1,65.14,23c3.45.25,6.89.63,10.31,1.17q2.61.42,5.2.93c1.14.23,3.08.28,3.95,1.12L87,22c-14.9-3-29.92.17-44.92.12-3.22,0-3.22,5,0,5Z" style="fill:#1c1b38"/><path d="M47.54,25.25a35.53,35.53,0,0,1-4.93,4.88,2.49,2.49,0,0,0-.73,1.77,2.55,2.55,0,0,0,.73,1.77,2.51,2.51,0,0,0,1.77.73l.66-.09a2.48,2.48,0,0,0,1.11-.64,36.16,36.16,0,0,0,4.93-4.89A2.69,2.69,0,0,0,51.81,27a2.51,2.51,0,0,0-2.5-2.5,2.44,2.44,0,0,0-1.77.74Z" style="fill:#1c1b38"/><path d="M51.8,25.44c-.16.22-.32.44-.49.65l.39-.5a20.62,20.62,0,0,1-3.55,3.56,1.93,1.93,0,0,0-.51.81,1.88,1.88,0,0,0-.22,1,2.49,2.49,0,0,0,2.5,2.5l.67-.09a2.5,2.5,0,0,0,1.1-.64A23.13,23.13,0,0,0,56.12,28a1.85,1.85,0,0,0,.29-.93,1.89,1.89,0,0,0,0-1,2.56,2.56,0,0,0-1.15-1.49,2.5,2.5,0,0,0-1.93-.25l-.59.25a2.43,2.43,0,0,0-.9.9Z" style="fill:#1c1b38"/><path d="M58.63,120.48c-7.69,4.41-14.12,11.92-13.85,21.23l4.66-1.26c-.93-1.42-1.23-3.17-2.09-4.64s-2-2.78-2.92-4.19A39.06,39.06,0,0,1,40,122.77a79.13,79.13,0,0,1-3.8-19.71,2.55,2.55,0,0,0-2.5-2.5,2.53,2.53,0,0,0-2.5,2.5c.61,7.11,1.58,14.29,4,21a44.35,44.35,0,0,0,4.61,9.53c1,1.48,2.11,2.84,3,4.34s1.29,3.45,2.31,5c1.3,2,4.74,1.34,4.66-1.26-.22-7.56,5.18-13.36,11.37-16.91,2.79-1.6.28-5.92-2.52-4.32Z" style="fill:#1c1b38"/><path d="M70,126.34c3.91,3.95,7.9,9.25,6.69,15.16a2.52,2.52,0,0,0,4.17,2.43c2.42-2.31,5.12-4.32,7.46-6.71a21.17,21.17,0,0,0,5.25-8.64c1.9-6.29.58-13.37,3.33-19.42a2.57,2.57,0,0,0-.9-3.42,2.51,2.51,0,0,0-3.42.9c-2.82,6.22-1.94,13-3.52,19.46a16.15,16.15,0,0,1-4.42,7.72c-2.31,2.34-4.94,4.31-7.31,6.58l4.18,2.43c1.61-7.82-2.68-14.67-8-20-2.26-2.29-5.8,1.25-3.54,3.54Z" style="fill:#1c1b38"/><path d="M35.68,134.69c3.38,9.82,9.57,18.12,15.9,26.22.89,1.13,2.61.77,3.54,0,1.67-1.39,2-4,2.65-5.94q1-3.3,2.15-6.58c1.52-4.38,3.17-8.72,5-13A2.59,2.59,0,0,0,64,132a60.94,60.94,0,0,0-8-4.48,2.58,2.58,0,0,0-3.42.9,2.52,2.52,0,0,0,.9,3.42,60.44,60.44,0,0,1,8,4.48l-.9-3.42c-1.79,4.23-3.47,8.5-5,12.83-.75,2.1-1.46,4.22-2.13,6.34-.34,1.06-.67,2.13-1,3.19-.22.71-.28,1.64-.88,2.13h3.54c-5.77-7.37-11.54-15.07-14.62-24a2.56,2.56,0,0,0-3.08-1.75,2.52,2.52,0,0,0-1.74,3.08Z" style="fill:#1c1b38"/><path d="M65.09,137.15c6.16,5.79,4.72,14.88,5.21,22.51.12,2,2.75,3.54,4.26,1.77A107.82,107.82,0,0,0,82,151.33a30.34,30.34,0,0,0,2.82-4.88c.77-1.79,1.11-3.76,2-5.51a2.56,2.56,0,0,0-.89-3.42,2.51,2.51,0,0,0-3.42.9,43.34,43.34,0,0,0-1.94,5.32,21.12,21.12,0,0,1-2.62,4.71A99.76,99.76,0,0,1,71,157.89l4.27,1.77c-.59-9.11.64-19.17-6.68-26-2.34-2.2-5.88,1.33-3.53,3.54Z" style="fill:#1c1b38"/><path d="M65.77,135.91c1.28-.64,2.59-1.25,3.91-1.81l-.6.26q2.2-.93,4.47-1.7a2.55,2.55,0,0,0,1.74-3.08,2.51,2.51,0,0,0-3.07-1.74,69.68,69.68,0,0,0-9,3.76,2.52,2.52,0,0,0-.9,3.42,2.56,2.56,0,0,0,3.42.89Z" style="fill:#1c1b38"/><path d="M62.59,136.15a56,56,0,0,0-3.08,9.94c-.64,3-.88,6.34-2.25,9.18-.78,1.6.12,3.86,2.16,3.76a85.49,85.49,0,0,1,9.47,0,2.53,2.53,0,0,0,2.5-2.5q-.24-4.48-.06-9c.06-1.43.16-2.86.27-4.28a10.28,10.28,0,0,0-.3-4.24,2.53,2.53,0,0,0-3.67-1.5,4.58,4.58,0,0,0-2,3.23c-.32,1.39-.66,2.77-1,4.14s-.76,2.62-1.18,3.92c-.21.65-.42,1.29-.65,1.94l-.37,1.05c-.09.25-.59,1-.07.43l1.1-.65-.19.05h1.33l-.19-.06,1.5,1.14-.09-.15c-1.65-2.76-6-.25-4.32,2.52a2.88,2.88,0,0,0,5.11-.31,34.39,34.39,0,0,0,1.78-5c.49-1.53.94-3.08,1.34-4.63.21-.78.4-1.57.58-2.35.09-.36.16-.73.25-1.09.19-.78.15-.17-.36.13l-3.67-1.49a8.07,8.07,0,0,1,.09,3.29c-.11,1.43-.2,2.86-.25,4.29-.11,2.86-.08,5.72.07,8.58l2.5-2.5a85.49,85.49,0,0,0-9.47,0l2.15,3.76c1.54-3.19,2-6.58,2.68-10a57,57,0,0,1,3.16-10.3,2.5,2.5,0,0,0-1.74-3.07,2.56,2.56,0,0,0-3.08,1.74Z" style="fill:#1c1b38"/><path d="M58.18,130.22a18.51,18.51,0,0,0,6.69,1.41,12.16,12.16,0,0,0,3.51-.31,3.76,3.76,0,0,0,2.73-3.66c0-2.9-3.06-4.45-5.55-4.87a5.59,5.59,0,0,0-4.15.72,10.64,10.64,0,0,0-2.5,2.64,2.5,2.5,0,0,0,3.93,3l1.56-1.64.73-.78.33-.35.25-.26c.16-.17.1-.12-.19.13l-1.26.34-.84-.19.18.11a3.07,3.07,0,0,0,.35.24c.26.17.53.33.8.49.52.29,1,.56,1.59.8a22.22,22.22,0,0,0,3.77,1.33,2.5,2.5,0,1,0,1.33-4.82c-.54-.14-1.08-.29-1.61-.46l-.59-.22-.39-.15c.27.12.28.12,0,0a19.6,19.6,0,0,1-2.66-1.47,3.12,3.12,0,0,0-2.62-.58,4,4,0,0,0-1.83,1.34l-2.45,2.6,3.92,3c.07-.09.4-.61.05-.08a2.6,2.6,0,0,1,.3-.36c.1-.12.2-.23.31-.34l.2-.18c.14-.12.09-.09-.16.11,0-.1.3-.18.38-.23s-.44.09,0,0c-.6.07.07,0,.17,0,.47,0-.19-.08.08,0s.75.2,1.13.32-.13-.09.08,0l.4.2c.11.07.58.42.08,0,.35.27-.13-.24,0,0s.06.1-.09-.21l0-.34c0,.22,0,.22,0,0a1.17,1.17,0,0,1,.42-.86c.11-.1.63-.29.43-.27-.53.06,0,.12,0,0a4.37,4.37,0,0,1-1.17.08,16.87,16.87,0,0,1-2.25-.08c-.7-.06.51.1-.18,0l-.53-.09c-.39-.07-.77-.16-1.15-.26a15.75,15.75,0,0,1-2.22-.77,2.52,2.52,0,0,0-3.08,1.75,2.57,2.57,0,0,0,1.75,3.07Z" style="fill:#1c1b38"/><path d="M28.44,124.18c-.77,1.31-1.3,2.77-2,4.15s-1.24,2.6-1.89,3.88-1.33,2.55-2,3.81-1.8,2.66-2.08,4.13a2.5,2.5,0,1,0,4.82,1.33,2.46,2.46,0,0,1,.11-.45q-.14.36.06,0c.21-.3.37-.64.55-.95.34-.59.67-1.17,1-1.76.7-1.26,1.38-2.53,2-3.81s1.28-2.58,1.88-3.89,1.1-2.66,1.83-3.89a2.5,2.5,0,1,0-4.32-2.52Z" style="fill:#1c1b38"/><path d="M26.09,128.39c-3.56,0-7-1.44-10.5-1.84l2.5,2.5c-.47-3.66.1-7.35-.5-11-.26-1.65-.82-3.22-1.21-4.84a24.82,24.82,0,0,1-.52-5.16c-.11-3.21-5.11-3.23-5,0a37.31,37.31,0,0,0,.48,5.48c.32,1.7.93,3.32,1.28,5,.72,3.44,0,7,.47,10.51a2.61,2.61,0,0,0,2.5,2.5c3.56.4,6.88,1.84,10.5,1.84,3.22,0,3.23-5,0-5Z" style="fill:#1c1b38"/><path d="M3.17,113.52c2.6-1,5.21-1.91,7.84-2.8a16.61,16.61,0,0,0,3.84-1.45,11.33,11.33,0,0,0,2.62-3.17q4.83-6.75,9.92-13.28a2.58,2.58,0,0,0,0-3.54,2.53,2.53,0,0,0-3.54,0c-3.29,4.22-6.52,8.5-9.65,12.84l-1,1.45A7.46,7.46,0,0,1,12,105.21c.28-.19-.57.11-.6.12L9.47,106q-3.84,1.31-7.63,2.73a2.56,2.56,0,0,0-1.75,3.07,2.52,2.52,0,0,0,3.08,1.75Z" style="fill:#1c1b38"/><path d="M96.35,126.78c1.22,2.7,2.76,5.22,3.6,8s1.19,5.95,2.32,8.77a2.57,2.57,0,0,0,3.07,1.75,2.53,2.53,0,0,0,1.75-3.08c-1.17-2.92-1.47-6.08-2.41-9.07s-2.66-6-4-8.92a2.52,2.52,0,0,0-3.42-.9,2.55,2.55,0,0,0-.89,3.42Z" style="fill:#1c1b38"/><path d="M102.17,133.18l9-2.49,4.38-1.21c1.56-.43,3.07-.91,3.9-2.42a10,10,0,0,0,.73-4.3c.09-1.5.16-3,.21-4.52.13-3.17.19-6.33.21-9.49s-5-3.23-5,0q0,4.09-.16,8.19c0,1.37-.1,2.73-.17,4.1a28.94,28.94,0,0,0-.2,3.51l-.07.3.41-.53a4.33,4.33,0,0,0-.56.16l-1.88.52-4,1.1-8.14,2.26c-3.09.86-1.78,5.68,1.33,4.82Z" style="fill:#1c1b38"/><path d="M104.33,96.6c2.22,3.65,6,6.08,9.16,8.86,1.51,1.34,2.66,3,4.16,4.35a17.26,17.26,0,0,0,5.66,3.38,2.52,2.52,0,0,0,3.08-1.74,2.56,2.56,0,0,0-1.75-3.08,11.93,11.93,0,0,1-3.88-2.5c-1.37-1.35-2.5-2.88-4-4.15s-2.94-2.37-4.34-3.63a20.45,20.45,0,0,1-3.81-4,2.5,2.5,0,0,0-4.32,2.52Z" style="fill:#1c1b38"/><path d="M39.2,48.78c1.36-.11,2.72-.2,4.08-.24a28.63,28.63,0,0,1,3.93,0l-1.27-.34.14.08L44.93,46.8,45,47V45.63A5.47,5.47,0,0,1,44.42,47a17.13,17.13,0,0,1-1,1.66l3.92-.51a6.17,6.17,0,0,0-6.6-1.8,2.52,2.52,0,0,0,0,4.82c1.81.64,3.62,1.31,5.44,1.92A12.44,12.44,0,0,0,52,53.8c3.8-.56,5.86-3.93,6.8-7.35.86-3.11-4-4.43-4.82-1.33-.09.33-.18.66-.29,1l-.18.49h0a8.62,8.62,0,0,1-.41.8,3.87,3.87,0,0,1-.27.43c-.17.24-.19.28-.06.09a2.56,2.56,0,0,1-2.29,1,7,7,0,0,1-1.67-.29c-.68-.18-1.34-.41-2-.64L42.1,46.32v4.82a2.44,2.44,0,0,1,.46-.14q-.39,0,.06,0c.3,0,.33,0,.06,0a2.33,2.33,0,0,1,.36.08l.35.11c-.23-.08-.21-.06,0,.08l.4.42c1.09,1.31,3.11.71,3.92-.51a18.54,18.54,0,0,0,1.78-3.46c.77-1.93-.13-3.95-2.33-4.14a47.61,47.61,0,0,0-8,.23,2.57,2.57,0,0,0-2.5,2.5,2.51,2.51,0,0,0,2.5,2.5Z" style="fill:#1c1b38"/><path d="M73.4,48.68a51.72,51.72,0,0,1,8,.14l-2.16-3.76-2,3a2.51,2.51,0,0,0,1.5,3.67c-.91-1-1.22-1.17-.92-.65l.15.35a3.66,3.66,0,0,0,.57.84,4,4,0,0,0,2.11,1.16,47.36,47.36,0,0,0,4.89.77,5.67,5.67,0,0,0,2.32,0,3.32,3.32,0,0,0,2.08-1.9,9.07,9.07,0,0,1,2.11-3l-3.93-3A31.67,31.67,0,0,1,85.19,50q-.33.32-.12.09c-.27.14-.31.16-.1.07-.09,0-.78.18-.34.12a6.28,6.28,0,0,1-1.06,0,5.78,5.78,0,0,0-.68-.06c-.81-.12-1.61-.27-2.42-.41a8.58,8.58,0,0,0-.85-.18c.31-.2.84.91.4,0A8.78,8.78,0,0,0,76.75,46a2.5,2.5,0,1,0-2.52,4.32c.06,0,.53.37.39.25s.2.21.24.24.4.44.21.2a4.78,4.78,0,0,1,.29.44A6.83,6.83,0,0,0,77,53.75a6.29,6.29,0,0,0,3,1c1,.18,2.06.37,3.1.47a7.12,7.12,0,0,0,5.49-1.54,15.41,15.41,0,0,0,2-2.36l1.92-2.5a2.47,2.47,0,0,0-.64-3.22,2.52,2.52,0,0,0-3.29.19,15.26,15.26,0,0,0-1.93,2.31c-.23.35-.45.7-.65,1.07-.09.17-.17.33-.25.5s-.11.25-.17.37-.07.15,0,0l1.11-.64c.3,0,.3,0,0,0L86,49.27l-.91-.11c-.83-.11-1.67-.25-2.5-.41-.32-.06-1.45-.46-.41.14.2.27.24.28.1,0l-.15-.34A3.07,3.07,0,0,0,80,46.93l1.5,3.67,2-3a2.47,2.47,0,0,0,0-2.52,2.64,2.64,0,0,0-2.16-1.24,51.72,51.72,0,0,0-8-.14,2.55,2.55,0,0,0-2.5,2.5,2.53,2.53,0,0,0,2.5,2.5Z" style="fill:#1c1b38"/><path d="M2.1,114.05a52.83,52.83,0,0,0,11.68,21.52c5.68,6.34,12.91,11.08,20.15,15.43a112,112,0,0,0,13.51,7.18,2.58,2.58,0,0,0,3.42-.9,2.52,2.52,0,0,0-.9-3.42,126.9,126.9,0,0,1-21.8-12.47c-6.49-4.5-12.22-9.93-16.25-16.77a47.5,47.5,0,0,1-5-11.9c-.84-3.1-5.66-1.78-4.82,1.33Z" style="fill:#1c1b38"/><path d="M80.9,157.47c8.07-4.32,16.19-8.64,23.68-13.93,6.34-4.48,12.52-9.9,15.94-17a35,35,0,0,0,2.24-6.27,21.84,21.84,0,0,1,2.34-6.38c1.73-2.73-2.6-5.24-4.32-2.52-2.18,3.44-2.55,7.54-4,11.28a28.47,28.47,0,0,1-5.75,8.86c-5.41,5.88-12.32,10.22-19.17,14.22-4.44,2.6-9,5-13.51,7.45-2.84,1.52-.31,5.83,2.53,4.32Z" style="fill:#1c1b38"/><path d="M6.5,114.27a40.53,40.53,0,0,1,4.3,10.23c.75,2.82,4.73,2.09,4.91-.66.3-4.82.37-9.93-2.31-14.17a2.58,2.58,0,0,0-2.83-1.15,2.5,2.5,0,0,0-1.83,2.41c.76,6.59,1.57,13.32,4.85,19.21A21.45,21.45,0,0,0,19.42,137a4.65,4.65,0,0,0,4.89.8,3.71,3.71,0,0,0,2-4.31c-.84-3.11-5.66-1.79-4.82,1.33l0-.07.34-1.26c.31-.71,1.38.11.49-.57a10.71,10.71,0,0,1-1-.89,15.73,15.73,0,0,1-1.95-2.2,21.91,21.91,0,0,1-2.74-5.06c-1.68-4.43-2.27-9.14-2.81-13.82l-4.66,1.26c2.19,3.47,1.87,7.73,1.63,11.65l4.91-.67a45.66,45.66,0,0,0-4.8-11.42c-1.63-2.77-6-.26-4.32,2.52Z" style="fill:#1c1b38"/><path d="M104.58,131.35a2.64,2.64,0,0,0-.78,1.85,2.67,2.67,0,0,0,.57,1.61,3,3,0,0,0,2.4,1.14,12.34,12.34,0,0,0,2.27-.11,17,17,0,0,0,5.31-1.55l-3.42-3.42a1.87,1.87,0,0,1-.22.39l.39-.51a2.14,2.14,0,0,1-.36.38l.51-.39a5,5,0,0,1-1,.53l.6-.25a14.59,14.59,0,0,0-2.93,1.32,14.89,14.89,0,0,1-2.38,1.58l.6-.25a3.5,3.5,0,0,1-.68.2l.66-.09-.31,0a2.5,2.5,0,0,0,0,5,6.48,6.48,0,0,0,3.46-1.28,12.13,12.13,0,0,1,2.24-1.46l-.59.26c.76-.32,1.55-.56,2.28-.94a4.42,4.42,0,0,0,2-2,2.8,2.8,0,0,0,.29-1.59,2.37,2.37,0,0,0-.68-1.44,2.94,2.94,0,0,0-1.11-.64,2.62,2.62,0,0,0-1.92.25l-.6.27.6-.25a13.32,13.32,0,0,1-3.39.93l.67-.09a14.67,14.67,0,0,1-2.48.12l.67.08a.47.47,0,0,1-.17,0l.6.25-.08-.05.51.39-.06-.06.39.51,0-.06.34,1.26v-.06l-.73,1.77,0-.05a2.64,2.64,0,0,0,.73-1.77,2.57,2.57,0,0,0-.73-1.77,2.53,2.53,0,0,0-3.53,0Z" style="fill:#1c1b38"/><path d="M46.87,75.78c3.35,1.27,6-2.09,8.69-3.43a11,11,0,0,1,3.9-1.1c1.53-.12,3,.37,4.5.28,2.89-.17,5.81-1.08,8.62.14s4.73,5,8.21,3.33a2.52,2.52,0,0,0,.9-3.42,2.56,2.56,0,0,0-3.42-.9l-.29.14,1.26-.34c.54,0-.31-.34-.44-.44a5.19,5.19,0,0,1-.45-.37c-.63-.53-1.25-1.07-1.93-1.54a11.17,11.17,0,0,0-4-1.72,17.45,17.45,0,0,0-4.26-.36c-1.49.06-3,.42-4.43.49s-2.68-.37-4.06-.3a15.7,15.7,0,0,0-4.49.89,19.31,19.31,0,0,0-4,1.94c-.71.45-1.35,1-2,1.48a3.29,3.29,0,0,1-.63.42c-.32.14.44.29-.36,0a2.52,2.52,0,0,0-3.07,1.75,2.56,2.56,0,0,0,1.74,3.08Z" style="fill:#1c1b38"/></g></g></svg>