<svg xmlns="http://www.w3.org/2000/svg" viewBox="0 0 155.8 145.34"><g id="Слой_2" data-name="Слой 2"><g id="Слой_4" data-name="Слой 4"><path d="M69.81,99.86A9.42,9.42,0,0,0,72,104.77a6.69,6.69,0,0,0,8.94.41,6.68,6.68,0,0,0,1.55-2,9.33,9.33,0,0,0,.64-1.53c.07-.22.14-.43.19-.65s.08-.37.07-.16l-.89.9c.06-.05.3-.14.11-.11s.27-.06.27-.06c.34-.1.68-.22,1-.35a10.49,10.49,0,0,0,2.32-1.1,7.12,7.12,0,0,0,2.91-3.58A4.21,4.21,0,0,0,87.81,92a9,9,0,0,0-4.22-1.75,45.64,45.64,0,0,0-10.14-1.15c-3,.08-6.78.42-8.74,3a3.84,3.84,0,0,0,.64,5.39,9.71,9.71,0,0,0,5.4,2.11,2.52,2.52,0,0,0,2.5-2.5,2.55,2.55,0,0,0-2.5-2.5,9.33,9.33,0,0,1-2-.75c-.06.09-.14,0-.22-.19.44.67.47,1.17.07,1.5.08,0,.52-.38.69-.45a14.45,14.45,0,0,1,5.1-.6,35.71,35.71,0,0,1,5.92.62c1,.17,2,.34,2.92.57a7.67,7.67,0,0,1,.88.24c.22.2.31.23.25.11.36.41.35.25,0-.47,0-.23,0-.19-.08.14,0-.17,0-.11-.15.17.19-.25-.57.53-.34.34a7.18,7.18,0,0,1-2.27,1,4.07,4.07,0,0,0-2.63,1.79c-.42.76-.43,1.69-.91,2.42a1.52,1.52,0,0,1-2.09.54c.46.18-.56-.45-.21-.14a1.8,1.8,0,0,1-.48-.68,9.86,9.86,0,0,1-.56-2.2,2.5,2.5,0,0,0-4.82,1.33Z" style="fill:#1c1b38"/><path d="M74.11,107c-.3,2.14-3.38,3.38-5.1,4.17A21,21,0,0,1,61.78,113a23.3,23.3,0,0,1-7.88-.86c-3-.83-6-1.81-9.17-1.94s-3.21,4.87,0,5,6.41,1.5,9.63,2.21a26.92,26.92,0,0,0,9.72.33,26.25,26.25,0,0,0,8.73-2.88c2.56-1.37,5.68-3.39,6.12-6.52a2.58,2.58,0,0,0-1.74-3.08A2.52,2.52,0,0,0,74.11,107Z" style="fill:#1c1b38"/><path d="M75.24,107.1c.17,3,3,5.55,5.31,7.18a21.5,21.5,0,0,0,8.63,3.3c6.16,1,13.33,1.24,19-1.82,2.83-1.54.31-5.86-2.52-4.32-4.22,2.3-9.79,2-14.41,1.42a19,19,0,0,1-6.64-2A12.38,12.38,0,0,1,81.92,109a11.34,11.34,0,0,1-1.06-1.13c-.15-.19-.28-.38-.41-.58s-.24-.72-.21-.2c-.18-3.2-5.18-3.22-5,0Z" style="fill:#1c1b38"/><path d="M105.32,113.55q-2.76,1.85-5.4,3.87A25,25,0,0,0,95,122c-.67.89-1.45,2.87-2.54,3.22-.74.23-1.9-.41-2.6-.63a22.93,22.93,0,0,0-3.37-.8,58.25,58.25,0,0,0-13.39-.48,20.45,20.45,0,0,0-6.32,1.34c-.59.25-1.15.54-1.73.81-.94.44.09.11,0,.29,0-.09-2.53-1.72-2.8-1.92a88.73,88.73,0,0,1-11.08-9.59c-2.26-2.3-5.8,1.24-3.54,3.53a97.12,97.12,0,0,0,10.65,9.31c1.71,1.29,3.89,3.43,6.14,3.55a6.12,6.12,0,0,0,3.12-.85,12.85,12.85,0,0,1,3.18-1.14,29.5,29.5,0,0,1,6.5-.43,63.76,63.76,0,0,1,7.18.3c2.32.28,4.43,1.26,6.71,1.62a6.17,6.17,0,0,0,6-2.48c.67-.85,1.19-1.78,1.83-2.64a14,14,0,0,1,2.46-2.4c2.07-1.69,4.26-3.23,6.48-4.72,2.66-1.78.16-6.12-2.53-4.32Z" style="fill:#1c1b38"/><path d="M58.52,121.63c.42.14-.57-.28,0,0,.21.15.16.1-.17-.14a1.8,1.8,0,0,1,.2.19l.19.21c-.24-.32-.29-.38-.13-.16s.2.32.28.49l.07.13q.15.33-.06-.15a2,2,0,0,1,.22.66c.14.44.26.89.4,1.33A6.35,6.35,0,0,0,61,126.92a3.69,3.69,0,0,0,4.25.65,15.78,15.78,0,0,0,2.24-1.48,8.17,8.17,0,0,0,2.53-2.29,6.73,6.73,0,0,0,.85-2.69,22.27,22.27,0,0,0,.26-3.36,2.5,2.5,0,0,0-5,0c0,.42,0,.84,0,1.26,0,.18,0,.36,0,.54s0,1,0,.23a5.38,5.38,0,0,1-.19,1c0,.11-.17.41-.15.51.16-.34.19-.43.1-.26a1.28,1.28,0,0,1-.11.2c.25-.3.28-.34.1-.14s-.11.11-.17.17c-.47.42.34-.23-.06,0l-1,.68-1,.7c-.16.11-.32.23-.49.33l-.22.12a1.27,1.27,0,0,1,.65-.2,1.48,1.48,0,0,1,.8.22l-.1-.06c.34.28.41.33.23.15.25.35.3.41.15.2a1.41,1.41,0,0,0-.19-.34c.16.4.19.48.1.24l-.06-.16c-.26-.77-.44-1.57-.73-2.33a6.37,6.37,0,0,0-3.9-4.1,2.52,2.52,0,0,0-3.08,1.74,2.57,2.57,0,0,0,1.75,3.08Z" style="fill:#1c1b38"/><path d="M83.91,116.42A12.79,12.79,0,0,0,85,123c1,2.32,2.87,4.8,5.71,4.42A5.34,5.34,0,0,0,94,125.62a23.14,23.14,0,0,0,1.87-2.7c.11-.14.07-.1-.11.13l.25-.29c.16-.19.34-.37.52-.55a5.14,5.14,0,0,1,.42-.38,3.47,3.47,0,0,1,.29-.25c-.26.2-.28.22-.06,0a13.12,13.12,0,0,1,1.13-.69c.11-.06.86-.47.26-.15a4.41,4.41,0,0,1,.72-.26A2.5,2.5,0,0,0,98,115.71a12.63,12.63,0,0,0-5,3A13.4,13.4,0,0,0,91.18,121c-.21.33-.41.67-.63,1l-.22.32.14-.2c0,.08-.58.56-.29.33s-.53.31-.09.06c.19-.07.17-.07,0,0s-.24.06.13,0c-.41,0,.21.06.39.13-.2-.13-.22-.14-.07,0s.14.09,0-.07c-.31-.47.19.33-.1-.11L90,121.8a6,6,0,0,1-.6-1.15c.19.58,0-.07,0-.15s-.13-.38-.19-.57a7.13,7.13,0,0,1-.3-1.37c0,.44,0,.12,0-.14s0-.4,0-.6a13.14,13.14,0,0,1,.08-1.4,2.51,2.51,0,0,0-2.5-2.5,2.59,2.59,0,0,0-2.5,2.5Z" style="fill:#1c1b38"/><path d="M72.64,116.77l1.91,1.66.51.44a5.12,5.12,0,0,0,.63.5,2.57,2.57,0,0,0,3.19-.35,4.09,4.09,0,0,0,.49-.61l.36-.53.72-1c.11-.15.22-.31.32-.47a2.74,2.74,0,0,0,.3-2.2c-.39-1.32-1.8-2-2.95-2.57a2.62,2.62,0,0,0-1.92-.25,2.58,2.58,0,0,0-1.5,1.15,2.53,2.53,0,0,0-.25,1.92,2.48,2.48,0,0,0,1.15,1.5,13.79,13.79,0,0,1,1.67,1l-.5-.39a.3.3,0,0,1,.08.08l-.39-.51,0,0-.26-.6,0,0-.09-.66V115l.09-.67a.56.56,0,0,1,0,.12l.25-.6c-.21.37-.49.72-.73,1.07s-.49.74-.76,1.09l.4-.51,0,0,1.1-.65,0,0h1.33l-.07,0,.6.26-.06,0,.51.39-2.54-2.21a2.66,2.66,0,0,0-1.77-.73,2.55,2.55,0,0,0-1.77.73,2.51,2.51,0,0,0,0,3.54Z" style="fill:#1c1b38"/><path d="M68,135.85c5.8-5.11,14.4-2.26,20.66.23a2.52,2.52,0,0,0,3.08-1.75A2.56,2.56,0,0,0,90,131.26c-8.24-3.28-18.19-5.4-25.53,1.06A2.5,2.5,0,0,0,68,135.85Z" style="fill:#1c1b38"/><path d="M23.11,115.59A11,11,0,0,0,27,121c1.93,1.44,4.17,1.82,6.47,2.29a39.31,39.31,0,0,1,11.43,4.3A47.8,47.8,0,0,1,54.75,135,58.65,58.65,0,0,1,59,139.66c1.47,1.8,2.69,3.62,5,4.45s4.92.58,7.26.67l7.89.29c2.57.09,5.19.32,7.76.26a8.56,8.56,0,0,0,6.16-3,64.25,64.25,0,0,1,9.64-8.56,82.32,82.32,0,0,1,11.53-6.62c4.44-2.12,9-3.87,13.64-5.59,3.89-1.45,8.59-3.73,9.27-8.33a2.58,2.58,0,0,0-1.75-3.08,2.51,2.51,0,0,0-3.07,1.75c-.44,3-3.89,4.14-6.48,5.09-4,1.47-8,3-11.86,4.79a75.82,75.82,0,0,0-21,13.5c-1.46,1.38-2.71,3-4.24,4.32s-3.83.64-5.6.58l-14.8-.54a8.86,8.86,0,0,1-2.67-.27,4.75,4.75,0,0,1-1.86-1.73c-1.22-1.55-2.47-3.07-3.82-4.5a55.75,55.75,0,0,0-9.19-7.82,46.47,46.47,0,0,0-12.17-5.9c-2.18-.68-4.44-1-6.64-1.55a5.66,5.66,0,0,1-4-3.63c-1-3-5.85-1.74-4.82,1.32Z" style="fill:#1c1b38"/><path d="M62.79,105.15c-4.23,3.35-10.57,1.4-15.44,1.43a23.62,23.62,0,0,0-15.25,5.94,2.54,2.54,0,0,0,0,3.54,2.56,2.56,0,0,0,3.54,0,18.54,18.54,0,0,1,6.53-3.68,21.56,21.56,0,0,1,8-.69c5.76.4,11.33.79,16.12-3a2.51,2.51,0,0,0,0-3.53,2.55,2.55,0,0,0-3.54,0Z" style="fill:#1c1b38"/><path d="M35,105.17a30.1,30.1,0,0,0-12.26,4.52c-1.76,1.07-3.5,2.2-5.17,3.4a9.26,9.26,0,0,0-3.86,4.75l4.57-.6c-2.68-4.94-.58-10.59,2.18-15,1.25-2-.8-4.06-2.82-3.67a28.15,28.15,0,0,0-14.82,8l4.27,1.77c-.52-7.42,3.53-13.85,7.32-19.88a2.53,2.53,0,0,0-2.16-3.76c-3.62-.16-7,1-10.38,2.24l2.83,3.67c3.19-4.77,8.6-7.45,13.57-10a2.54,2.54,0,0,0,1.14-2.83C18.81,75.7,16.94,75,15,74.42a57.78,57.78,0,0,0-6.13-1.37L10,77.23q4.64-6,9.45-11.79a2.55,2.55,0,0,0,0-3.53,2.5,2.5,0,0,0-3.53,0q-4.83,5.81-9.45,11.78c-1,1.31-1,3.82,1.1,4.18,1.43.24,2.86.53,4.26.88.63.15,1.25.32,1.88.49a4.53,4.53,0,0,0,1.09.33c.41,0,.1.73-.22-.43l1.15-2.82C9.89,79.29,4.08,82.54.35,88.09c-1.17,1.74.79,4.43,2.82,3.68,2.93-1.09,5.88-2.2,9.05-2.06L10.06,86c-4.25,6.75-8.58,14.1-8,22.4a2.53,2.53,0,0,0,4.27,1.76,23.5,23.5,0,0,1,12.61-6.7l-2.83-3.67c-3.76,6-5.74,13.46-2.17,20a2.53,2.53,0,0,0,4.57-.6c.34-1.1,1.6-1.8,2.51-2.41,1.51-1,3-2,4.59-3A23.74,23.74,0,0,1,35,110.17a2.58,2.58,0,0,0,2.5-2.5,2.51,2.51,0,0,0-2.5-2.5Z" style="fill:#1c1b38"/><path d="M87,108c4,7.17,13.27,6.3,20.18,5.34,4-.55,7.93-1.59,11.89-2.43,3.31-.7,6.81-1.22,10.15-.47,3,.68,5.76,2.17,7.24,5,.83,1.56,3.54,1.72,4.32,0a5.52,5.52,0,0,0-1.89-7.11l-.6,4.57a7.15,7.15,0,0,1,2.84.15,2.52,2.52,0,0,0,3.16-2.41,16,16,0,0,0-6.5-12.42l-1.26,4.66A16.51,16.51,0,0,1,151.07,109c1.44,1.79,4.23.22,4.27-1.77.19-8.2-2.74-15.92-5.73-23.43l-4.18,2.44a13.73,13.73,0,0,0,7.26,4,2.52,2.52,0,0,0,2.43-4.18c-4.3-4.94-10.67-7.06-15.82-10.89l-.6,4.57a77.67,77.67,0,0,1,9.25-.92c2.05-.09,3.44-2.74,1.77-4.27A126.05,126.05,0,0,1,138.49,63,2.51,2.51,0,0,0,135,63a2.55,2.55,0,0,0,0,3.54,126,126,0,0,0,11.22,11.65L148,73.88A89.48,89.48,0,0,0,137.37,75a2.48,2.48,0,0,0-1.79,2.08,2.61,2.61,0,0,0,1.2,2.49c4.79,3.57,10.81,5.52,14.8,10.11L154,85.48a9.1,9.1,0,0,1-5-2.75c-1.63-1.71-5.13.06-4.18,2.43,2.82,7.07,5.73,14.37,5.55,22.1l4.27-1.76a21.07,21.07,0,0,0-18.07-7.65,2.53,2.53,0,0,0-1.26,4.66,10.69,10.69,0,0,1,4,8.1l3.17-2.41A13.55,13.55,0,0,0,137,108c-2.34.38-2.15,3.47-.6,4.57,0,0,0,.42.09.28h4.32c-3.14-5.87-10.21-8.12-16.5-7.74a77.07,77.07,0,0,0-12.13,2.24A65.43,65.43,0,0,1,100.67,109c-3.39.14-7.5-.22-9.35-3.51-1.57-2.81-5.89-.29-4.31,2.52Z" style="fill:#1c1b38"/><path d="M88.64,98.09a24.23,24.23,0,0,0,5.23,2.58,27.5,27.5,0,0,1,4.6,2.08c.34.2.66.41,1,.64l.53.38c-.25-.19.13.12.21.18a19.26,19.26,0,0,1,1.78,1.72,10.76,10.76,0,0,1,1.34,1.78,18,18,0,0,1,1.23,2.29,2.52,2.52,0,0,0,3.42.9,2.56,2.56,0,0,0,.9-3.42,20.12,20.12,0,0,0-7.42-8.51c-3.35-2.17-7.13-2.72-10.28-4.93a2.53,2.53,0,0,0-3.42.89,2.55,2.55,0,0,0,.9,3.42Z" style="fill:#1c1b38"/><path d="M63.85,91.64a63.77,63.77,0,0,0-11.17,5.53c-3.12,2-6.66,4.53-7.25,8.45a2.57,2.57,0,0,0,1.74,3.08c1.19.27,2.87-.37,3.08-1.75a5.93,5.93,0,0,1,.25-1.09c.13-.38-.26.44.08-.19l.24-.43.27-.42c.42-.63-.14.14.15-.19s.51-.56.79-.82.58-.53.88-.77-.23.17.11-.08l.53-.38c.7-.49,1.43-1,2.17-1.41a57.51,57.51,0,0,1,9.46-4.71,2.57,2.57,0,0,0,1.75-3.07,2.52,2.52,0,0,0-3.08-1.75Z" style="fill:#1c1b38"/><path d="M43.67,49.12A35.07,35.07,0,0,1,49,54a25.59,25.59,0,0,1,3.59,5.79c2,4.23,3.32,8.77,5.15,13.08s4.68,9.2,10,9.82c2.53.29,5-.63,6.17-3A17.66,17.66,0,0,0,75.24,72c-.17-5.71-4-9.77-6.36-14.65a2.5,2.5,0,0,0-4.32,2.52c1.71,3.5,4.57,6.59,5.47,10.44a13,13,0,0,1-.37,6.13c-.08.33-.19.66-.28,1-.16.59-.25.28,0,.17a1.26,1.26,0,0,1-.43.13,3.73,3.73,0,0,1-2.14-.5,9.32,9.32,0,0,1-3.53-4.3A52.84,52.84,0,0,1,61,67.51a94.22,94.22,0,0,0-4.77-11.69c-2.42-4.55-6-7.92-10-11a2.52,2.52,0,0,0-3.42.9,2.56,2.56,0,0,0,.9,3.42Z" style="fill:#1c1b38"/><path d="M85.24,58.21a20.57,20.57,0,0,0-6.49,12.3c-.69,4.73.06,11,5.58,12.42s8.9-4.63,11.37-8.39c2.83-4.31,4.68-8.94,6.77-13.62a18,18,0,0,1,4.63-6.63A27.68,27.68,0,0,1,114,50.36a2.51,2.51,0,0,0,.89-3.42,2.56,2.56,0,0,0-3.42-.89c-4,1.75-7.88,4-10.58,7.56s-3.86,7.81-5.75,11.73a52,52,0,0,1-7.11,11.21c-.83,1-1.85,2.14-3.14,1.23s-1.49-3.09-1.43-4.64a16.07,16.07,0,0,1,5.3-11.39c2.41-2.14-1.14-5.67-3.54-3.54Z" style="fill:#1c1b38"/><path d="M89.31,80.67a11.34,11.34,0,0,0,1.81,12.14c1.38,1.6,3.5,2.52,5.36,3.44a35.18,35.18,0,0,0,6.06,2.43,25.8,25.8,0,0,0,21.8-4.38c4-3,6.87-7,9.95-10.91a2.53,2.53,0,0,0-1.77-4.26c-1.6-.21-2.44-2.59-2.89-3.84A38.33,38.33,0,0,0,127,68.93c-2.44-4.26-6.73-6.44-11.24-7.94a18.66,18.66,0,0,0-7.25-1.07A20.54,20.54,0,0,0,101.35,62c-3.91,1.85-7.85,4.3-10,8.22-1.52,2.83,2.79,5.36,4.32,2.52,1.81-3.35,5.58-5.36,9-6.79a12.36,12.36,0,0,1,6.14-1,20.72,20.72,0,0,1,6,1.8A12.48,12.48,0,0,1,121.69,70a16.32,16.32,0,0,1,2.56,5,20.4,20.4,0,0,0,2.87,6.16,8,8,0,0,0,5.4,3l-1.76-4.27c-2.81,3.51-5.48,7.5-9.1,10.24A20.6,20.6,0,0,1,99.21,92c-1.78-.87-4-1.64-5-3.46-.85-1.54-1.43-3.72-.6-5.37,1.45-2.87-2.86-5.41-4.31-2.53Z" style="fill:#1c1b38"/><path d="M112.12,76.16c.28.11-.58-.38-.52-.33s-.63-.67-.45-.44a5.45,5.45,0,0,1-.5-.86c0,.08-.17-.92-.15-.57a2.88,2.88,0,0,1,1.56-2.88c2.8-1.59.29-5.9-2.52-4.31-3.4,1.93-6.64,4.47-7.3,8.56a20,20,0,0,0,1.68,11.9,4.62,4.62,0,0,0,5.2,2.74c1.84-.44,3.41-2.11,4.57-3.53a7.46,7.46,0,0,0,2-5.34A5.38,5.38,0,0,0,112,76.38a6.13,6.13,0,0,0-3.48-.4,3.6,3.6,0,0,0-2.36,2.62,9.19,9.19,0,0,0-.17,3.22c0,.48,0,1,.08,1.44,0,0,0,.5,0,.16,0,.1-.26.67-.13.43-1.32,2.46,1.87,5.09,3.93,3A13.17,13.17,0,0,0,112.63,83a2.58,2.58,0,0,0-.89-3.42,2.52,2.52,0,0,0-3.42.9L107.61,82a2.58,2.58,0,0,0,.89,3.43,2.52,2.52,0,0,0,3.42-.9l.71-1.53-4.31-2.52a9.22,9.22,0,0,1-2,2.9l3.93,3a7.16,7.16,0,0,0,.76-4c0-.57-.12-1.15-.13-1.73,0-.08,0-.69,0-.52s0,.07.06-.22a1.66,1.66,0,0,1-.53.62l-1.26.34c.28,0,.31,0,.09,0l.43.08c.11,0,.8.2.62.13.28.12.19,0,.37.24-.26-.32.12.41-.06,0a.85.85,0,0,1,0,.68,4.46,4.46,0,0,1-.58,1.08,12.77,12.77,0,0,1-1.39,1.46l-.42.41a4.33,4.33,0,0,1-.51.31l.06-.06c-.17-.2.89,0,.8.18s-.2-.34-.29-.51a9.85,9.85,0,0,1-.61-1.59,14.48,14.48,0,0,1-.48-7.33,4.62,4.62,0,0,1,1.73-2.69,18.67,18.67,0,0,1,3.12-2.13l-2.52-4.31a7.93,7.93,0,0,0-4,7.45A8.05,8.05,0,0,0,110.8,81a2.51,2.51,0,0,0,3.07-1.74,2.56,2.56,0,0,0-1.75-3.08Z" style="fill:#1c1b38"/><path d="M124.3,80.69a20.17,20.17,0,0,1-.92,2.75c-.1.24-.2.48-.29.72s-.26.69,0,.12a14.61,14.61,0,0,1-.61,1.33,37.25,37.25,0,0,1-3.05,4.88,2.51,2.51,0,0,0,.89,3.42,2.56,2.56,0,0,0,3.42-.9A35.14,35.14,0,0,0,126.83,88,29.76,29.76,0,0,0,129.12,82a2.5,2.5,0,1,0-4.82-1.33Z" style="fill:#1c1b38"/><path d="M114.91,82.24a4,4,0,0,1,2.79,1.66,2.48,2.48,0,0,0,2.73.52A2.59,2.59,0,0,0,122,82.13c.23-2.14,1.39-4.1,1.94-6.16a9.87,9.87,0,0,0-.26-6.61c-1.82-4-6.81-5.18-10.77-5.83a9.63,9.63,0,0,0-7,1.38,36.69,36.69,0,0,0-5.56,4A36.76,36.76,0,0,0,95.93,74l-4.36,5.6L95.75,82a31.6,31.6,0,0,1,3.94-8c1.76-2.37,4.41-3.56,7.07-4.63a2.58,2.58,0,0,0,1.74-3.08,2.52,2.52,0,0,0-3.07-1.75c-3.58,1.45-7,3-9.43,6.11a36.41,36.41,0,0,0-5.07,10c-.83,2.27,2.65,4.4,4.18,2.43,2.42-3.11,4.71-6.47,7.42-9.35a23.94,23.94,0,0,1,4-3.32c1.37-.94,3-2.29,4.77-2.13a22.85,22.85,0,0,1,5.33,1.26,3.9,3.9,0,0,1,2.6,2.07c.52,1.48-.15,3.23-.65,4.61A25,25,0,0,0,117,82.13l4.27-1.77a8.94,8.94,0,0,0-6.33-3.12,2.53,2.53,0,0,0-2.5,2.5,2.55,2.55,0,0,0,2.5,2.5Z" style="fill:#1c1b38"/><path d="M44.87,76.94c.24,2.34.42,4.71.79,7a14.65,14.65,0,0,0,.7,2.85c.51,1.4,1.19,2.84,2.75,3.31a3.6,3.6,0,0,0,4.21-2c.5-1.06.88-2.19,1.31-3.28a18.34,18.34,0,0,0,1.73-6.69,2.52,2.52,0,0,0-4.26-1.77l-.15.15c-.14.13-.06.08.23-.16l-.37.21c.08-.15.58-.13.14-.07s.37,0,.1,0c-.12,0-.24,0-.36,0s-.19,0,.05,0,.26,0,0,0l-.13,0c-.25-.09-.18-.06.2.09,0-.07-.3-.18-.36-.23a2.45,2.45,0,0,0-2.52,0,2.61,2.61,0,0,0-1.24,2.16,3.81,3.81,0,0,0,.53,2.23,4.08,4.08,0,0,0,.68.87,4.88,4.88,0,0,0,.62.48c.48.33-.16.05-.39-.45l-.34-1.26.06-.43.64-1.1-.08.07a2.52,2.52,0,0,0,0,3.54,2.56,2.56,0,0,0,3.53,0,2.82,2.82,0,0,0,0-4,5.15,5.15,0,0,0-.7-.53c-.34-.23.12.16.22.24s.14.18,0,0l.14.31,0,.36a1.62,1.62,0,0,1,0-.31L49,80.65a5.26,5.26,0,0,0,6.65-.76l-4.27-1.76c0,.24,0,.48,0,.71l0,.31c0-.32,0-.34,0-.05s-.17.78-.29,1.16c-.25.8-.57,1.57-.88,2.35l-1,2.46-.27.69a2.6,2.6,0,0,0-.1.25c.13-.3.15-.37.07-.21s0,.11.15-.15a1.56,1.56,0,0,1,1-.36c.23,0,1.44.29,1.36.72,0-.09-.24-.28-.2-.38l0,.05-.07-.18c-.14-.4-.27-.8-.37-1.21s-.19-.83-.26-1.25c0-.2-.07-.39-.1-.59-.09-.58,0,.43,0-.11-.2-1.8-.38-3.6-.56-5.4a2.71,2.71,0,0,0-.73-1.77,2.57,2.57,0,0,0-1.77-.73,2.52,2.52,0,0,0-2.5,2.5Z" style="fill:#1c1b38"/><path d="M58.93,77.55a4.78,4.78,0,0,0,.84-2.86l-4.91.66c.63,2.24,2.11,3.9,3.3,5.84a16.42,16.42,0,0,1,2.19,6.27,2.51,2.51,0,0,0,2.41,1.83,2.56,2.56,0,0,0,2.41-1.83,6.84,6.84,0,0,0-.12-4.74,2.54,2.54,0,0,0-2.74-1.79,2.5,2.5,0,0,0-2.17,2.45l0,3.28A7.59,7.59,0,0,1,60,88.49a8.09,8.09,0,0,1-2.33,1.32c-.85.44-1.71.87-2.59,1.25A19.35,19.35,0,0,1,44.14,92.6c-3.72-.67-7.74-1.45-10.91-3.61a20.57,20.57,0,0,1-6.18-7.62L25.56,85a5.65,5.65,0,0,0,3.61-3.34,43.82,43.82,0,0,0,2-5.22,19.61,19.61,0,0,1,1.75-4.9,11.62,11.62,0,0,1,3.15-3.1A15.52,15.52,0,0,1,54,68.15a2.5,2.5,0,0,0,2.52-4.32,20.32,20.32,0,0,0-21.2-.76,16.8,16.8,0,0,0-7.71,8.08c-.72,1.8-1.1,3.72-1.76,5.54-.22.61-.91,3.35-1.58,3.53a2.53,2.53,0,0,0-1.49,3.67A25.23,25.23,0,0,0,31,93.52a22.09,22.09,0,0,0,6.48,2.7,53.51,53.51,0,0,0,7.31,1.49c4.86.59,9.64-.8,14-2.89,1.91-.91,4.45-2,5.58-3.86a7.4,7.4,0,0,0,.69-3.83l.06-3.75-4.91.67a2.52,2.52,0,0,1,.12,2.08h4.82a20.09,20.09,0,0,0-2.28-6.73c-1-1.81-2.64-3.38-3.2-5.38a2.52,2.52,0,0,0-4.92.67c0,.21.44-.51-.16.33a2.51,2.51,0,0,0,.9,3.42,2.55,2.55,0,0,0,3.42-.89Z" style="fill:#1c1b38"/><path d="M25.61,83.06A43.66,43.66,0,0,0,32.1,92a2.52,2.52,0,0,0,3.54,0,2.56,2.56,0,0,0,0-3.53q-.87-.93-1.68-1.89l-.8-1c-.19-.24.34.45.08.1l-.18-.24-.4-.54a42.15,42.15,0,0,1-2.74-4.33,2.52,2.52,0,0,0-3.42-.9,2.55,2.55,0,0,0-.89,3.42Z" style="fill:#1c1b38"/><path d="M46.23,71.55c-1.63-1.5-3.88-1.6-6-1.79q-1.58-.14-3.15-.15a7.91,7.91,0,0,1-2.54-.11v4.83c1.82-.69,3.77-.89,5.56-1.67s3.42-1.89,5.16-2.78a15.27,15.27,0,0,1,5-1.69c1.39-.17,2.67-.11,3.51,1l3-3.93c-7.4-3.27-16.32-3.65-22.56,2.23-2.35,2.21,1.19,5.74,3.54,3.53,4.46-4.2,11.23-3.77,16.5-1.44a2.52,2.52,0,0,0,3-3.93C54.36,62,48.66,63,45,64.56a61.32,61.32,0,0,0-5.86,3c-1.85,1-3.92,1.17-5.87,1.9a2.53,2.53,0,0,0,0,4.83c1.66.59,3.62.24,5.34.32.91,0,1.83.1,2.73.22a8.67,8.67,0,0,1,.89.13c.06,0,.72.28.51.09,2.37,2.18,5.91-1.35,3.54-3.54Z" style="fill:#1c1b38"/><path d="M43.93,72.28c3.22,0,3.22-5,0-5s-3.22,5,0,5Z" style="fill:#1c1b38"/><path d="M91.43,107.4a69.88,69.88,0,0,0,16.48,0A76.41,76.41,0,0,0,116,106c2.4-.56,5-1.15,6.73-3.07,2.14-2.39-1.39-5.94-3.54-3.54-1.25,1.4-3.7,1.61-5.44,2a65.54,65.54,0,0,1-7.25,1.17,69.67,69.67,0,0,1-15.07-.16,2.51,2.51,0,0,0-2.5,2.5,2.57,2.57,0,0,0,2.5,2.5Z" style="fill:#1c1b38"/><path d="M62.48,102.29a122.33,122.33,0,0,1-14.33-.5,47.71,47.71,0,0,1-6.71-1.23A13.61,13.61,0,0,1,36,98.26a2.57,2.57,0,0,0-3.53,0,2.53,2.53,0,0,0,0,3.54c3.93,3.27,9.38,4.18,14.31,4.82a116.41,116.41,0,0,0,15.73.67c3.22,0,3.22-5,0-5Z" style="fill:#1c1b38"/><path d="M20.59,59.49a43.48,43.48,0,0,1-6.46-20.26c-.46-7.83,1.56-15.09,4-22.44Q20.48,10,22.79,3.15L19.12,4.64A108.49,108.49,0,0,0,31.7,10.69c4,1.54,8.24,2.62,12.32,4.07,6.49,2.3,13.58,6.27,15.26,13.5.54,2.31,4.39,2.46,4.83,0,.81-4.62,7.1-6.33,10.94-7.45,5-1.47,10.26-2.59,14.69-5.54l-3.42-3.43a27.73,27.73,0,0,1-11,9.05c-2.67,1.24-.73,5.17,1.92,4.56,7.41-1.7,14.84-3.65,20.85-8.54,2.18-1.77-.72-5.58-3-3.92a48.23,48.23,0,0,0-9.83,9.31,2.56,2.56,0,0,0,0,3.53,2.5,2.5,0,0,0,3.53,0,44.23,44.23,0,0,1,8.82-8.52l-3-3.93c-5.25,4.27-12.19,5.77-18.64,7.25l1.93,4.57A32.58,32.58,0,0,0,90.63,14.37c1.44-2-1.39-4.77-3.42-3.42C82.58,14,77,14.88,71.8,16.58c-5,1.63-11.48,4.5-12.52,10.35h4.83c-1.91-8.18-9.26-13.27-16.63-16.2-4.24-1.68-8.66-2.79-13-4.31A94.65,94.65,0,0,1,21.64.33,2.53,2.53,0,0,0,18,1.82L13.74,14.31a108.1,108.1,0,0,0-3.67,12.44A48.38,48.38,0,0,0,16.27,62c1.69,2.74,6,.23,4.32-2.52Z" style="fill:#1c1b38"/><path d="M88.73,26.3c8.2-2.58,14.7-8.35,22.41-11.93,4.16-1.94,8.66-2.41,13.09-3.4a54.65,54.65,0,0,0,13.61-5.05l-3.67-1.49q1.53,5.88,3.35,11.68c1.19,3.75,2.59,7.44,3.7,11.21a32.26,32.26,0,0,1,1.45,11.29,40.94,40.94,0,0,1-2.36,10.87,100.62,100.62,0,0,1-5.18,11.91c-1.43,2.87,2.88,5.41,4.31,2.52,3.64-7.32,7-14.87,8-23a34.33,34.33,0,0,0-.7-12.2c-.93-3.93-2.41-7.72-3.67-11.56q-2.28-6.93-4.1-14a2.54,2.54,0,0,0-3.67-1.5,50.24,50.24,0,0,1-12.86,4.65c-4.64,1-9.12,1.66-13.49,3.63-7.45,3.37-13.7,9.12-21.57,11.6-3.06,1-1.76,5.79,1.33,4.82Z" style="fill:#1c1b38"/><path d="M12,36.46a67.49,67.49,0,0,0,9,18.66,2.56,2.56,0,0,0,3.42.9,2.52,2.52,0,0,0,.9-3.42,62.91,62.91,0,0,1-8.51-17.47A2.5,2.5,0,0,0,12,36.46Z" style="fill:#1c1b38"/><path d="M24,58.86c1-4.09,4.54-7.4,7.84-9.79a33.17,33.17,0,0,1,12-5.47A2.52,2.52,0,0,0,45,39.42a15.56,15.56,0,0,0-10.37-4.28v5l8.71-.32A2.51,2.51,0,0,0,44,34.91q-6.11-2.27-12.17-4.64l-.66,4.91q8.63-.09,17.24.37c1.79.1,3.26-2.23,2.16-3.76-4-5.5-8.69-10.43-12.67-15.94-1.83-2.54-3.81-5-6.58-6.6C28.19,7.5,24.64,6.36,21.35,5a2.51,2.51,0,0,0-3.07,1.75A2.55,2.55,0,0,0,20,9.83a75.05,75.05,0,0,1,8.74,3.74c2.37,1.35,3.95,3.62,5.51,5.8,3.72,5.19,8.21,9.77,11.95,15l2.16-3.77q-8.61-.45-17.24-.37a2.51,2.51,0,0,0-2.46,2.16,2.56,2.56,0,0,0,1.79,2.75q6.06,2.37,12.17,4.64l.66-4.91-8.71.32a2.5,2.5,0,0,0,0,5A10.27,10.27,0,0,1,41.43,43l1.1-4.18a36.78,36.78,0,0,0-13.86,6.46c-4.1,3.11-8.22,7.12-9.48,12.29-.77,3.12,4,4.45,4.82,1.33Z" style="fill:#1c1b38"/><path d="M61.07,38.85a15.75,15.75,0,0,0,6.85,11.89,2.54,2.54,0,0,0,3.42-.89c.79-1.14.68-2.62.69-3.94l0-3.79-4.27,1.77a18.25,18.25,0,0,0,7,4.83,2.49,2.49,0,0,0,2.63-.89,2.52,2.52,0,0,0,.2-2.78q-1.49-2.44-2.76-5c-.42-.85-.83-1.71-1.22-2.58l-.53-1.2c-.07-.16-.06-.15,0,0L73,36c-.1-.26-.21-.51-.31-.77a2.57,2.57,0,0,0-3.08-1.75c-1.17.38-2.27,1.78-1.74,3.08a76.7,76.7,0,0,0,5.44,11l2.82-3.67c-.24-.09-.18-.09,0,0l-.38-.17L75,43.36a14.59,14.59,0,0,1-1.5-1s-.4-.29-.17-.11-.11-.1-.15-.13c-.22-.17-.43-.36-.63-.54a16.49,16.49,0,0,1-1.24-1.27,2.48,2.48,0,0,0-2.73-.52,2.51,2.51,0,0,0-1.54,2.28l0,3.28c0,.51,0,1,0,1.52a2.22,2.22,0,0,1,0,.63q.09-.52,0-.12c.16-.3.16-.34,0-.11l3.42-.89c-.1-.07-.76-.59-.27-.19l-.45-.37c-.34-.3-.66-.61-1-.94l-.5-.59c-.34-.39.23.36-.08-.11s-.51-.74-.74-1.14a5.26,5.26,0,0,1-.62-1.2c.14.56,0,0,0-.12s-.17-.49-.25-.73a10.19,10.19,0,0,1-.33-1.32,2.72,2.72,0,0,1-.1-.57c0,.7,0-.16,0-.3a2.5,2.5,0,1,0-5,0Z" style="fill:#1c1b38"/><path d="M81.4,44.15c6.5-1.77,8.52-9,11.28-14.32,1.4-2.71,2.82-5.61,5.23-7.58,2.2-1.8,5-2.76,7.65-3.7a2.56,2.56,0,0,0,1.74-3.08,2.5,2.5,0,0,0-3.07-1.74,34.86,34.86,0,0,0-8.39,3.85,21,21,0,0,0-6.18,7.29c-1.61,2.89-3,5.88-4.41,8.85-1.12,2.31-2.52,4.89-5.18,5.61-3.1.85-1.78,5.67,1.33,4.82Z" style="fill:#1c1b38"/><path d="M102.49,37.14A57.57,57.57,0,0,0,112,30.92a62.19,62.19,0,0,0,8-8.59A182.2,182.2,0,0,1,136.9,4.7c2.37-2.18-1.17-5.71-3.54-3.54a183.48,183.48,0,0,0-16.54,17.27,69.43,69.43,0,0,1-7.67,8.4,50.17,50.17,0,0,1-9.18,6c-2.84,1.51-.32,5.83,2.52,4.31Z" style="fill:#1c1b38"/><path d="M104.47,36.92l9.41-2c1.51-.32,3-.66,4.55-.88.74-.1,1.49-.18,2.24-.22.32,0,.64,0,1,0h.73c.37,0,.32,0-.14-.17l-1.15-1.49,0,.23.25-1.92c.28-.49-.12,0-.38.16l-.93.62c-.56.36-1.12.72-1.69,1.06-1.21.74-2.44,1.43-3.69,2.09a65.08,65.08,0,0,1-7.53,3.38,2.5,2.5,0,0,0,.67,4.91c2.82-.13,6.28-.22,8.93.95a7.76,7.76,0,0,1,2.72,2.47c1,1.21,1.87,2.44,2.81,3.66a105.47,105.47,0,0,0,11.87,13.46c2.36,2.18,5.91-1.35,3.53-3.54A112,112,0,0,1,125.1,45.24c-2-2.63-3.8-5.27-7-6.48a26.5,26.5,0,0,0-10.25-1.13l.66,4.91a73.61,73.61,0,0,0,9.9-4.52q2.34-1.29,4.58-2.76c1.61-1.06,3.57-2.22,2.94-4.49s-3.4-2.08-5.24-2a42.87,42.87,0,0,0-6,.83c-3.86.76-7.71,1.64-11.56,2.47-3.14.68-1.81,5.5,1.33,4.83Z" style="fill:#1c1b38"/><path d="M132.21,56.92a36.88,36.88,0,0,0,6.62-7.11,19.46,19.46,0,0,0,2.88-10.14c.12-3.62-.19-7.27-.34-10.88l-.49-11.54c-.14-3.21-5.14-3.22-5,0,.3,7,.84,14.05.85,21.06a15.77,15.77,0,0,1-2,8.63,30.85,30.85,0,0,1-6.06,6.44c-2.41,2.15,1.14,5.67,3.54,3.54Z" style="fill:#1c1b38"/></g></g></svg>