<svg xmlns="http://www.w3.org/2000/svg" viewBox="0 0 157.85 161.26"><g id="Слой_2" data-name="Слой 2"><g id="Слой_5" data-name="Слой 5"><path d="M66.32,154.71c-8.06-7.23-16.12-14.48-23.73-22.19-3.75-3.82-7.29-7.85-11.16-11.56-4.06-3.9-8.4-7.5-12.65-11.19L4.3,97.19l-2.44,4.18c13.11,3.91,23.79,12.95,33.37,22.36a2.51,2.51,0,0,0,3.92-3,63.38,63.38,0,0,0-12.37-15.17c-5-4.46-10.15-8.54-14.18-14L9.77,95.25a31.24,31.24,0,0,1,11.58,8.47c1.66,1.83,3.27,4,5.34,5.36,2.35,1.57,5.51.8,8.14.59,2-.16,3.5-2.71,1.77-4.27a146.11,146.11,0,0,0-18-13.85L18,96.11l4-1.5c1.58-.58,2.7-2.88,1.11-4.18-2.06-1.66-4.18-3.23-6.38-4.69a2.54,2.54,0,0,0-3,.39,54.08,54.08,0,0,1-10.46,8c-1.72,1-1.61,4.19.59,4.57a24.8,24.8,0,0,1,7.55,2.52,2.54,2.54,0,0,0,3.77-2.16,5.89,5.89,0,0,1,2.46-4.53,2.53,2.53,0,0,0,0-3.54,2.58,2.58,0,0,0-3.54,0,10.66,10.66,0,0,0-3.92,8.07L14,96.89a29,29,0,0,0-8.75-3l.6,4.57a60,60,0,0,0,11.47-8.77l-3,.39A66.29,66.29,0,0,1,19.65,94l1.1-4.18-4,1.5a2.54,2.54,0,0,0-.6,4.57,136.85,136.85,0,0,1,17,13.08l1.77-4.27c-1.28.1-2.55.21-3.83.3a2.42,2.42,0,0,1-2.47-.86c-1.82-1.76-3.4-3.75-5.16-5.57A35.1,35.1,0,0,0,11.1,90.43c-1.95-.78-4.09,2-2.82,3.67a63.27,63.27,0,0,0,6.53,7.54c2.47,2.4,5.16,4.55,7.75,6.82a59.72,59.72,0,0,1,12.28,14.77l3.92-3c-10.2-10-21.62-19.49-35.57-23.65-2.31-.69-4.34,2.51-2.43,4.18,8.46,7.35,17.11,14.54,25.38,22.12,3.95,3.63,7.52,7.63,11.25,11.49s7.77,7.77,11.78,11.52c4.49,4.19,9,8.29,13.62,12.39,2.38,2.14,5.93-1.38,3.53-3.54Z" style="fill:#1c1b38"/><path d="M96.73,156.2c9.6-5.35,17.39-13.23,24.76-21.26,7.94-8.65,15.91-17.16,24.81-24.86,4.44-3.84,9.8-7.46,11.47-13.43.55-2-1.83-4.09-3.68-2.82l-12.2,8.39c-1.58,1.09-3.2,2.52-5.06,3.09-2.07.64-4.28.57-6.36,1.12-7.14,1.88-11.26,8.53-17.56,11.84l3,3.93c2.74-2.35,5.49-4.69,8.22-7a28,28,0,0,0,6.2-7c1.64-2.82,4.57-4.61,7.08-6.6l8.6-6.82c1.46-1.16.61-3.81-1.11-4.18a66.09,66.09,0,0,0-9.09-1.29l2.41,3.17.88-3.33a10.7,10.7,0,0,1,.81-2.9l-.89.89.26-.14-1.26.34-.34-.14.47.29c.32.2.63.42.94.63.56.38,1.12.76,1.67,1.15,1.11.79,2.21,1.6,3.29,2.44,2.25,1.76,4.42,3.63,6.51,5.57a2.5,2.5,0,0,0,3.53-3.53,5.45,5.45,0,0,0-6.32-1.09c-2,.91-3.58,2.71-5.27,4.12a80.92,80.92,0,0,1-11.62,7.78c-2.82,1.62-.34,5.71,2.53,4.32a75.74,75.74,0,0,0,6.9-3.79,28.06,28.06,0,0,0,6.33-4.68c1.74-2,2.75-4.69,1.34-7.15a13.29,13.29,0,0,0-2.64-2.91l-3.47-3.24c-2.35-2.2-5.89,1.33-3.53,3.53a64.68,64.68,0,0,1,5,4.67c.9,1-.71,2.18-1.53,2.81a64.92,64.92,0,0,1-10.9,6.44l2.53,4.32a92.42,92.42,0,0,0,10-6.49c1.6-1.22,3.15-2.48,4.63-3.84.55-.49,1.9-2,2.52-1.27l3.53-3.53a103.37,103.37,0,0,0-11.55-9.31c-2-1.37-4.68-3.38-6.75-1-.83,1-1,2.43-1.32,3.64l-1.07,4a2.53,2.53,0,0,0,2.41,3.16,56.21,56.21,0,0,1,7.76,1.11l-1.1-4.18L133.9,98c-2.6,2.07-5.61,4-7.4,6.84a23.09,23.09,0,0,1-2.46,3.57,39.7,39.7,0,0,1-3.41,3.2l-8.22,7c-2.24,1.92.61,5.2,3,3.93,3.29-1.73,6-4.3,8.8-6.71,2.45-2.13,5.08-4.14,8.33-4.81,2.14-.43,4.35-.42,6.41-1.23a27.63,27.63,0,0,0,5.43-3.3l12.21-8.4-3.68-2.82c-1.3,4.65-6,7.64-9.47,10.62q-6.74,5.78-13,12.07c-7.6,7.64-14.4,16-22.27,23.4a71.57,71.57,0,0,1-14,10.47c-2.81,1.56-.29,5.88,2.53,4.32Z" style="fill:#1c1b38"/><path d="M86.59,150.56c2.55-7,5.7-15.77,13.23-18.79a2.56,2.56,0,0,0,1.74-3.07A2.52,2.52,0,0,0,98.49,127a23.22,23.22,0,0,0-10.43,8.65c-2.87,4.12-4.59,8.94-6.29,13.63a2.52,2.52,0,0,0,1.74,3.07,2.56,2.56,0,0,0,3.08-1.74Z" style="fill:#1c1b38"/><path d="M90.93,135.58c3.24-2.37,7-4.55,9.3-7.91,2.11-3.07,2.7-6.91,3-10.54a2.51,2.51,0,0,0-2.5-2.5,2.55,2.55,0,0,0-2.5,2.5c0,.39-.07.79-.11,1.19l-.06.53c0,.44,0-.32,0,.12a23.26,23.26,0,0,1-.47,2.35,13.56,13.56,0,0,1-.69,2.13c.11-.24,0,0-.06.12s-.19.39-.3.58-.4.67-.61,1c0,.06-.23.33-.08.13-.12.15-.24.29-.37.43-.28.32-.59.62-.9.91A19.12,19.12,0,0,1,92.94,128c-1.5,1.11-3,2.21-4.53,3.31a2.58,2.58,0,0,0-.9,3.42,2.51,2.51,0,0,0,3.42.9Z" style="fill:#1c1b38"/><path d="M97.44,124.91l3-7.15a30.53,30.53,0,0,1,3.11-6.14c2.47-3.41,6.63-5.24,10.32-7a2.52,2.52,0,0,0,.9-3.42,2.56,2.56,0,0,0-3.42-.9c-4.47,2.11-8.89,4.41-11.89,8.47a32.64,32.64,0,0,0-3.53,6.88l-3.3,7.91a2.52,2.52,0,0,0,1.74,3.08,2.58,2.58,0,0,0,3.08-1.75Z" style="fill:#1c1b38"/><path d="M108.27,104.47c4.83-3.81,10.45-6.48,15.5-10,4.42-3.07,8.54-7.17,14-8.17a2.5,2.5,0,1,0-1.33-4.82c-6,1.09-10.41,5.33-15.21,8.67-5.41,3.76-11.33,6.69-16.51,10.78a2.5,2.5,0,0,0,0,3.53,2.55,2.55,0,0,0,3.53,0Z" style="fill:#1c1b38"/><path d="M118.44,92.17c3.82-.48,7.34-1.13,10.39-3.65a17.29,17.29,0,0,1,3.76-2.84,17.81,17.81,0,0,1,4.83-1.19,2.52,2.52,0,0,0,1.75-3.08,2.55,2.55,0,0,0-3.07-1.74,20.8,20.8,0,0,0-4.86,1.19,15.63,15.63,0,0,0-4.75,3.07,10.46,10.46,0,0,1-3.58,2.34,23.46,23.46,0,0,1-4.47.9,2.58,2.58,0,0,0-2.5,2.5,2.51,2.51,0,0,0,2.5,2.5Z" style="fill:#1c1b38"/><path d="M133.4,90.08l-.33.52c-.14.22-.12.15,0,0-.24.28-.49.56-.76.82s-.51.45-.77.67.32-.22-.07,0l-.51.35c-1.2.81-2.47,1.5-3.68,2.28a32.53,32.53,0,0,0-7.49,7.23,2.5,2.5,0,0,0,3.54,3.54,46.9,46.9,0,0,1,3.4-3.91,20.28,20.28,0,0,1,2-1.81c-.27.21.07-.06.18-.13s.29-.21.44-.31c.32-.22.65-.42,1-.63,2.75-1.7,5.67-3.26,7.36-6.14a2.52,2.52,0,0,0-.89-3.42,2.55,2.55,0,0,0-3.42.9Z" style="fill:#1c1b38"/><path d="M73.35,142.91a30,30,0,0,1-7.6-13.2c-1.51-5.61-1.17-11.51-2.15-17.22a22.57,22.57,0,0,0-7.69-14,76.26,76.26,0,0,0-6.74-4.81c-2.4-1.6-4.83-3.18-7.35-4.59C36.38,86,30.08,84.47,25.05,80.7a2.51,2.51,0,0,0-3.42.9,2.56,2.56,0,0,0,.9,3.42c4.44,3.33,9.88,4.79,14.77,7.3a98.43,98.43,0,0,1,14.28,9.07,17.63,17.63,0,0,1,4.84,5.23,22.09,22.09,0,0,1,2.36,7.2c1,5.65.64,11.44,2.1,17a35,35,0,0,0,8.94,15.61c2.26,2.29,5.79-1.24,3.53-3.54Z" style="fill:#1c1b38"/><path d="M25.31,85.1a27.55,27.55,0,0,0,4.45,0c.64,0,1.28,0,1.93,0l.54,0c-.22,0-.18,0,.13,0a7.27,7.27,0,0,1,1,.29c-.17-.07-.11,0,.17.09l.49.28c.32.19.63.4.94.62.55.4.74.55,1.27,1a29.84,29.84,0,0,1,3.2,3.16,2.53,2.53,0,0,0,3.54,0,2.57,2.57,0,0,0,0-3.54,30,30,0,0,0-3.42-3.34,17.8,17.8,0,0,0-4.6-3c-3.13-1.23-6.45-.24-9.68-.63a2.51,2.51,0,0,0-2.5,2.5,2.57,2.57,0,0,0,2.5,2.5Z" style="fill:#1c1b38"/><path d="M44.55,103.08c2.38,3.62,6,6.1,9.61,8.36,3.84,2.39,7.86,4.46,11.77,6.74,6.49,3.78,13.36,8.56,16.38,15.75a2.58,2.58,0,0,0,3.07,1.75,2.51,2.51,0,0,0,1.75-3.07c-3.26-7.78-9.65-13.26-16.7-17.57-3.86-2.36-7.89-4.43-11.78-6.73-3.49-2.06-7.5-4.29-9.78-7.76-1.76-2.67-6.09-.17-4.32,2.53Z" style="fill:#1c1b38"/><path d="M38.47,98.7c-5-6.89-12.54-11.61-17-18.87l-.9,3.42c3.89-2.27,7-5.52,10-8.81A73.6,73.6,0,0,1,40.7,65,222.37,222.37,0,0,1,65.53,48.91q7.32-4.09,14.92-7.65a2.53,2.53,0,0,0,.9-3.42,2.58,2.58,0,0,0-3.43-.9A231.43,231.43,0,0,0,51.77,51.32C43.64,56.51,35.28,62,28.67,69.09c-3.29,3.55-6.42,7.37-10.65,9.84a2.53,2.53,0,0,0-.9,3.42c4.53,7.33,12,12,17,18.87a2.57,2.57,0,0,0,3.42.9,2.51,2.51,0,0,0,.9-3.42Z" style="fill:#1c1b38"/><path d="M47.1,57.3a86.33,86.33,0,0,0,15.27-8.7c2.42-1.71,4.78-3.51,7.09-5.37a38.21,38.21,0,0,0,6.3-6l-3,.39a9.74,9.74,0,0,0,4.05,1.62,2.62,2.62,0,0,0,2.82-1.15,2.54,2.54,0,0,0-.39-3c-4.28-4.2-10.91.29-14.64,3.13C60,41.64,55.73,45.45,51.34,49.11a2.52,2.52,0,0,0,0,3.54,2.54,2.54,0,0,0,3.53,0c3.68-3.07,7.33-6.18,11-9.21A38,38,0,0,1,71,39.85c1-.55,3.65-2.27,4.66-1.28l2.43-4.18a6.28,6.28,0,0,1-2.86-1.11,2.5,2.5,0,0,0-3,.39C68.81,38,64,41.4,59.48,44.54A86.86,86.86,0,0,1,44.58,53a2.52,2.52,0,0,0-.9,3.42,2.56,2.56,0,0,0,3.42.89Z" style="fill:#1c1b38"/><path d="M34.24,66.34c3.73-9,7.44-18.09,11.21-27.11,1.85-4.41,3.73-8.81,5.69-13.17,1.88-4.18,4.38-8.38,5.4-12.88l-4.91-.67a23.06,23.06,0,0,0,3.74,15.4,2.54,2.54,0,0,0,4.32,0c2-2.74,1.1-6.14,1.16-9.26a20.07,20.07,0,0,1,.73-4.81,6.39,6.39,0,0,0-.35-5.14l-1.5,3.67L70.12,10,67,7a48.32,48.32,0,0,0-2.63,13.71,24.72,24.72,0,0,0,.2,3.44c.08.6.17,1.21.28,1.8a8.59,8.59,0,0,1,.41,1.74c0,.49-.39.7-.82,1a30.24,30.24,0,0,1-2.79,1.81C58,32.73,54.28,34.87,51.11,37.9a44.06,44.06,0,0,0-7.48,9.59,62.75,62.75,0,0,0-3,6.09C40,55,38.94,57.63,37.09,57.84L39.5,61a48.37,48.37,0,0,1,4.64-10.88,66.88,66.88,0,0,1,6.8-10c2.58-3.07,5.73-5,9.18-7s7.58-4,8.26-8.29a42.21,42.21,0,0,0,.15-7.2c0-2.24,0-4.66-1.3-6.58a2.54,2.54,0,0,0-4.32,0,24.33,24.33,0,0,0-3.49,7.52A24.76,24.76,0,0,0,58.68,23c-.07.84.22,2.14-.4,2.77A13.58,13.58,0,0,1,55.2,27.5a30.24,30.24,0,0,0-3.35,2.15,34.62,34.62,0,0,0-6.13,5.72L49.9,37.8a52.19,52.19,0,0,1,6.2-12.38c1.81-2.68-2.52-5.18-4.32-2.53a57.8,57.8,0,0,0-6.7,13.58c-.78,2.3,2.58,4.35,4.18,2.43a29.62,29.62,0,0,1,6-5.54,32.82,32.82,0,0,1,3.42-2A11.71,11.71,0,0,0,62,29.17c2.11-2.23,1.42-5.25,2-8a20.16,20.16,0,0,1,3.28-7.57H62.91c.89,1.25.61,3,.63,4.52a33.14,33.14,0,0,1,0,5.81c-.29,1.64-1.81,2.47-3.12,3.28-1.64,1-3.34,1.91-5,2.88a30.52,30.52,0,0,0-8.8,7.51,83.23,83.23,0,0,0-6.63,9.82,54,54,0,0,0-5.26,12.28c-.4,1.42.77,3.35,2.41,3.16a8.34,8.34,0,0,0,5.75-3.17A30,30,0,0,0,46,53.61,42.19,42.19,0,0,1,53,43.17a43.2,43.2,0,0,1,10.31-7.81c1.91-1.12,4.15-2.28,5.64-4a5.26,5.26,0,0,0,1.42-3.15,16.23,16.23,0,0,0-.65-3.89c-1-5.38.6-11,2.19-16.07a2.52,2.52,0,0,0-3.07-3.07L58.4,7.55a2.52,2.52,0,0,0-1.49,3.67c.37.61-.42,2.29-.56,3a23.8,23.8,0,0,0-.5,4.46c0,2.1.86,4.91-.48,6.73h4.32a18.77,18.77,0,0,1-3.06-12.87c.33-2.8-4.3-3.38-4.91-.66a29.81,29.81,0,0,1-2.27,6q-1.55,3.29-3,6.59c-2,4.47-3.91,9-5.8,13.48C36.85,46.92,33.15,56,29.41,65a2.53,2.53,0,0,0,1.75,3.08,2.57,2.57,0,0,0,3.08-1.75Z" style="fill:#1c1b38"/><path d="M69.82,9.37l6-2.53,2.86-1.21a3.63,3.63,0,0,1,2.46-.54,19,19,0,0,1,2.52,1.15c1,.47,2.06.92,3.1,1.36,1.89.79,3.82,1.51,5.77,2.15s4.07,1.24,6.15,1.74c1,.22,1.92.43,2.89.62a14.66,14.66,0,0,1,3,.6c1,.46,1.7,3.24,2.1,4.4.68,1.92,1.24,3.89,1.75,5.86,1,4,1.83,8,2.91,11.94a82.24,82.24,0,0,0,3.86,10.88,97.4,97.4,0,0,0,11.4,19.43,159.92,159.92,0,0,0,17,19.2l1.1-4.18A15.18,15.18,0,0,0,139.8,82c-2.81,1.58-.29,5.9,2.52,4.32A11,11,0,0,1,146,85.06c1.89-.33,2.36-3,1.11-4.18C136,70.09,125.84,57.94,119.59,43.64c-3.28-7.49-4.65-15.47-6.78-23.31-.56-2-1.18-4.06-1.94-6s-1.52-4.35-3.39-5.63c-1.68-1.15-4-1.22-6-1.64s-4.14-1-6.18-1.61Q91.85,4.35,88.47,3C86.35,2.07,84.24.67,82,.15c-2.71-.63-5.23.89-7.64,1.91l-7.07,3a2.52,2.52,0,0,0-.89,3.42,2.56,2.56,0,0,0,3.42.9Z" style="fill:#1c1b38"/><path d="M99.49,12.66A95.64,95.64,0,0,0,95.12,26a2.5,2.5,0,1,0,4.82,1.33A95.77,95.77,0,0,1,104.31,14a2.5,2.5,0,0,0-1.75-3.07,2.57,2.57,0,0,0-3.07,1.75Z" style="fill:#1c1b38"/><path d="M112.42,35.48a44.94,44.94,0,0,1-3-4.28,2.53,2.53,0,0,0-4.32,0,13.31,13.31,0,0,1-3.54,3.86,2.55,2.55,0,0,0-.51,3.93c3.75,3.46,7.57,6.84,11.23,10.39a12.64,12.64,0,0,1,3.44,4.69c.72,2,1.07,4.14,2.37,5.9a2.57,2.57,0,0,0,3.42.89,2.52,2.52,0,0,0,.89-3.42,33.51,33.51,0,0,1-5.31-12.25A17.8,17.8,0,0,0,114.77,39a9.91,9.91,0,0,0-2.34-2.49,8.56,8.56,0,0,0-1.22-.76c-.19-.08-.38-.16-.57-.26-.39-.22-.37-.2.07.09a2.52,2.52,0,0,0-3.42-.9,2.57,2.57,0,0,0-.9,3.42c.81,1.76,3,1.92,4.07,3.42,1.22,1.68,1.56,3.86,2,5.83A35.24,35.24,0,0,0,118.1,60l4.31-2.53c-1.18-1.6-1.4-3.6-2.13-5.42a17.89,17.89,0,0,0-4.16-5.89c-3.71-3.68-7.68-7.13-11.52-10.68l-.51,3.93a19.48,19.48,0,0,0,5.34-5.66h-4.32A57.66,57.66,0,0,0,108.88,39a2.52,2.52,0,0,0,3.54,0,2.56,2.56,0,0,0,0-3.53Z" style="fill:#1c1b38"/><path d="M94.2,42.29c2.1,2.15,4.88,3.52,7.1,5.55s4.5,4.5,6.9,6.58,5.07,4.08,7.7,6,5.15,3.84,8.27,4.77,4.41-3.9,1.33-4.82c-2.71-.81-5-2.77-7.26-4.4a89.08,89.08,0,0,1-7.19-5.67c-2.19-2-4.19-4.15-6.38-6.13a38.19,38.19,0,0,0-3.57-2.89,21.77,21.77,0,0,1-3.36-2.51C95.49,36.45,92,40,94.2,42.29Z" style="fill:#1c1b38"/><path d="M95.14,47.75c-.17.19-.35.35-.52.53s-.19.16.07-.05l-.3.21a10.51,10.51,0,0,1-1.14.62l-.35.16c.31-.13.34-.14.08,0l-.55.21q-.75.28-1.53.54a36.86,36.86,0,0,1-6.22,1.42,2.46,2.46,0,0,0-1.49,1.15,2.53,2.53,0,0,0-.26,1.92,2.59,2.59,0,0,0,1.15,1.5,3,3,0,0,0,1.93.25,36.09,36.09,0,0,0,6.63-1.56c2.17-.73,4.47-1.58,6-3.32a2.5,2.5,0,1,0-3.53-3.54Z" style="fill:#1c1b38"/><path d="M98.19,61.15C99.91,60.29,101,58.57,102,57a14,14,0,0,0,2.21-5.16,2.7,2.7,0,0,0-.25-1.93,2.48,2.48,0,0,0-3.42-.89,2.42,2.42,0,0,0-1.15,1.49,9.09,9.09,0,0,1-.61,2.09L99,52a20.87,20.87,0,0,1-2.59,4.33l.39-.5a5.79,5.79,0,0,1-1,1l.51-.39a4.83,4.83,0,0,1-.62.37,2.51,2.51,0,0,0-.89,3.42,2.57,2.57,0,0,0,3.42.9Z" style="fill:#1c1b38"/><path d="M76.05,114.83a30.58,30.58,0,0,0,8.59-.49,2.51,2.51,0,0,0,1.75-3.07,2.58,2.58,0,0,0-3.08-1.75c-.55.11-1.1.2-1.66.27l.67-.08a28.59,28.59,0,0,1-6.27.12,2.49,2.49,0,0,0-1.77.73,2.52,2.52,0,0,0-.73,1.77,2.49,2.49,0,0,0,.73,1.77,2.79,2.79,0,0,0,1.77.73Z" style="fill:#1c1b38"/><path d="M76.27,64.4a4.92,4.92,0,0,0-1.08-4.71,4.27,4.27,0,0,0-2.91-1.18c-.61,0-1.22,0-1.83,0s0-.07.12,0c-.08-.07-.35-.06-.47-.09a7.64,7.64,0,0,1-.91-.24c-.15,0-.3-.1-.44-.15L68.6,58c-.25-.1-.2-.07.16.07,0-.1-.67-.33-.77-.39s-.5-.29-.74-.45c-.06,0-.3-.28-.38-.28.28.22.34.27.2.15l-.18-.15a8.39,8.39,0,0,1-.68-.65L66,56c-.11-.13-.49-.63,0,0a2.73,2.73,0,0,0-1.5-1.15,2.52,2.52,0,0,0-1.92.25c-1,.67-1.74,2.3-.9,3.42a12.35,12.35,0,0,0,6.66,4.67,14.46,14.46,0,0,0,3.88.4c.13,0,.51.11.15,0-.1,0-.68-.31-.39-.11-.33-.28-.41-.34-.22-.17l-.24-.32a1.4,1.4,0,0,1,.1.16c.09.17,0,.06-.12-.32a1.21,1.21,0,0,0,.09.31c.1.26,0-.63,0-.22a1.33,1.33,0,0,1,0,.4c.09-.12.12-.65,0-.16a2.5,2.5,0,0,0,4.82,1.33Z" style="fill:#1c1b38"/><path d="M60.45,90.33l2.82.15,1.52.08.43,0c.66.09.59,0-.19-.3-.07.1,2.8,3.56,3,3.91,1,1.42,2,2.89,2.89,4.39.43.71.84,1.43,1.24,2.15a9.84,9.84,0,0,1,1.08,2.19v-1.32a6.53,6.53,0,0,1-1.1,1.58,25.45,25.45,0,0,1-1.73,2,30.5,30.5,0,0,1-3.93,3.52,2.58,2.58,0,0,0-.9,3.42,2.53,2.53,0,0,0,3.43.89,35.32,35.32,0,0,0,6.89-6.6c1-1.35,2.55-3,2.16-4.82A17.35,17.35,0,0,0,75.82,97,70,70,0,0,0,70,88.44c-1.18-1.49-2.09-2.64-4.1-2.81-1.79-.16-3.6-.2-5.4-.3a2.52,2.52,0,0,0-2.5,2.5,2.55,2.55,0,0,0,2.5,2.5Z" style="fill:#1c1b38"/><path d="M92.17,109.9c-1.49-2.49-3-5-4.47-7.47-.12-.2-.51-1.2-.62-.63.07-.36.8-.81,1.09-1a39.77,39.77,0,0,0,3.08-2.87,37,37,0,0,0,2.67-3.19c.73-1,1.28-2.08,2-3,.53-.69,1.63-.53,2.43-.56,1.48-.06,3,0,4.44,0,3.22.11,3.22-4.89,0-5-1.69,0-3.39,0-5.08,0s-3.6.32-5,1.63a22.13,22.13,0,0,0-2.57,3.64,26.53,26.53,0,0,1-3,3.53c-2.24,2.25-6.08,4.38-4.74,8.14a27.76,27.76,0,0,0,2.64,4.69l2.79,4.68c1.65,2.76,6,.24,4.32-2.53Z" style="fill:#1c1b38"/><path d="M76.67,101.66l6.68-.31a2.64,2.64,0,0,0,1.77-.73,2.51,2.51,0,0,0,.73-1.77,2.53,2.53,0,0,0-2.5-2.5l-6.68.31a2.62,2.62,0,0,0-1.77.74,2.5,2.5,0,0,0,1.77,4.26Z" style="fill:#1c1b38"/><path d="M83.39,96.56c-.85-3.76-.56-7.64-.42-11.46.16-4.1,0-8.19-.27-12.29-.19-3.2-5.19-3.22-5,0,.24,4.25.42,8.49.26,12.75a47,47,0,0,0,.6,12.32c.71,3.14,5.53,1.81,4.83-1.32Z" style="fill:#1c1b38"/><path d="M67.05,85.52a11.25,11.25,0,0,0,0-4.9V82l0-.15-.64,1.11c-.13.12-1,.48-.39.31a4.59,4.59,0,0,0,.48-.17l.94-.34c.67-.25,1.33-.51,2-.79a31.07,31.07,0,0,0,4.06-2A27.47,27.47,0,0,0,77,77.39l.73-.61.3-.24.21-.16c.26-.18.51-.35.78-.51l.41-.22c.07,0,.55-.25.14-.09a2.56,2.56,0,0,0,1.75-3.07c-.38-1.17-1.78-2.27-3.08-1.75A18.51,18.51,0,0,0,73.29,74l-.46.38c-.11.09-.41.33-.13.12-.37.28-.75.54-1.13.78a22.43,22.43,0,0,1-2.39,1.34l-1.25.58c.31-.14-.1,0-.22.08l-.58.24c-.86.33-1.73.64-2.59,1a4,4,0,0,0-1.59.89,2.93,2.93,0,0,0-.64,2.74l0,.26c0-.18,0-.19,0,0a4.86,4.86,0,0,1,0,.66s0,.81,0,.4a6.6,6.6,0,0,1-.17.77,2.5,2.5,0,1,0,4.82,1.33Z" style="fill:#1c1b38"/><path d="M82,76.33c2.12,1.07,4.27,2.09,6.45,3,1.19.53,2.38,1,3.59,1.52l1.63.65.81.32L95,82c.47.19.32.1-.44-.27l-.64-1.1c.06-.78,0-.94-.07-.48l-.12.47c0,.23-.1.47-.14.7a19.09,19.09,0,0,0-.24,2A17.29,17.29,0,0,0,93.52,87a2.5,2.5,0,0,0,3.08,1.74,2.58,2.58,0,0,0,1.75-3.07c.07.51,0-.26,0-.29q0-.3,0-.6a11.63,11.63,0,0,1,0-1.32q0-.36.06-.72c0,.37,0,0,0-.16.07-.44.19-.86.29-1.29A3.54,3.54,0,0,0,98.6,79a3.13,3.13,0,0,0-1.89-1.67l-2.5-1-1.16-.47-.69-.29A2.33,2.33,0,0,1,92,75.5l-2.52-1.1Q87,73.26,84.55,72A2.5,2.5,0,1,0,82,76.33Z" style="fill:#1c1b38"/><path d="M94.12,112.81c2.63-1.19,5.32-2.29,7.89-3.61a12.33,12.33,0,0,0,6.78-13.48,12.64,12.64,0,0,0-3.42-7.36c-2.35-2.21-5.89,1.32-3.54,3.53a8.25,8.25,0,0,1,2.12,5,7.61,7.61,0,0,1-1.18,5.22,9.93,9.93,0,0,1-4.27,3.2c-2.29,1.06-4.6,2.09-6.9,3.13a2.52,2.52,0,0,0-.9,3.42,2.57,2.57,0,0,0,3.42.9Z" style="fill:#1c1b38"/><path d="M66.87,108.36a23.72,23.72,0,0,1-7.81-7.69,6.45,6.45,0,0,1-.86-4.84,20.44,20.44,0,0,1,2.38-5.49c1.59-2.81-2.73-5.33-4.31-2.53a23.46,23.46,0,0,0-3,7.06,11.55,11.55,0,0,0,1.08,7.66c2.16,4.23,6,7.62,10,10.15,2.71,1.74,5.22-2.58,2.52-4.32Z" style="fill:#1c1b38"/><path d="M58.51,97.81c1.05,0,2.11.13,3.16.25.26,0,.53,0,.79.1-.68-.12.16,0,.29,0l.35.07c.27.09.23.06-.12-.07a1.14,1.14,0,0,1-.48-.49l.13.2a8.53,8.53,0,0,1,.67,1.22l.15.34c-.13-.32-.15-.35,0-.09l.27.69c.19.49.38,1,.58,1.47l.28.73.15.37c.09.26.08.19,0-.22l.34-1.26c.24-.27.29-.33.15-.2l-.22.2-.46.4-.85.75-1.78,1.56a2.53,2.53,0,0,0,0,3.54,2.57,2.57,0,0,0,3.54,0l2-1.77a6.81,6.81,0,0,0,2-2.26c.51-1.21,0-2.25-.44-3.36-.31-.77-.6-1.54-.92-2.31-.79-1.91-1.74-3.93-4-4.33a45.11,45.11,0,0,0-5.57-.57,2.5,2.5,0,1,0,0,5Z" style="fill:#1c1b38"/><path d="M98.61,106.05a24.87,24.87,0,0,1-1.09-3.79c0-.17-.07-.35-.1-.52s0-.12,0,.09c0-.65-.38.87-.17.47.13-.24-.28.24,0,.08A13.46,13.46,0,0,0,98.68,101c.94-.87,1.84-1.78,2.72-2.72.24-.25.48-.51.71-.77,0-.06.22-.19.24-.26l-.73.4c-.41,0-.51.06-.31,0a13.79,13.79,0,0,0,1.93.06,2.5,2.5,0,0,0,0-5c-.71,0-1.44-.09-2.15,0a4,4,0,0,0-2.8,1.57c-1.05,1.16-2.16,2.27-3.3,3.34a12.78,12.78,0,0,0-1.9,1.92,4.2,4.2,0,0,0-.53,3.3,23.62,23.62,0,0,0,1.23,4.52,2.5,2.5,0,0,0,4.82-1.33Z" style="fill:#1c1b38"/><path d="M66.8,84.36c.46,2,2.55,2.57,4.35,2.3a7.54,7.54,0,0,0,4-2l-4.18-1.1a3.27,3.27,0,0,0,3.12,2.33,4.49,4.49,0,0,0,3.16-1.7,12,12,0,0,0,2.86-5.43l-4.91-.66a90,90,0,0,1-.43,9.57c-.35,3-1.55,6.18-.37,9.15a2.5,2.5,0,0,0,4.91-.67,15,15,0,0,0-.75-5.36,29.83,29.83,0,0,0-2.69-4.56c-.1-.17-.2-.34-.29-.52s-.17-.37-.08-.14c-.07-.17-.11-.35-.17-.52s-.1-.41-.06-.14a3.09,3.09,0,0,1,0-.53c0-.14,0-.39,0-.11,0-.1.1-.38,0-.12.05-.14.23-.3.05-.1.43-.49,1-.85,1.41-1.35a4.26,4.26,0,0,0,1.1-2.82A2.53,2.53,0,0,0,74,77.74q-3.93,2.39-7.74,5a2.56,2.56,0,0,0-.89,3.42,2.51,2.51,0,0,0,3.42.9q3.8-2.61,7.74-5L72.8,79.9a1.36,1.36,0,0,1,.15-.47c.07-.18.2-.19,0,0l-.68.63a5.93,5.93,0,0,0-1.57,2.11,6.93,6.93,0,0,0,.31,5.6c.65,1.45,1.74,2.62,2.51,4a8.63,8.63,0,0,1,.77,4.39l4.91-.66A5.62,5.62,0,0,1,79,92.19c.29-1.61.57-3.22.75-4.85.33-3.06.36-6.14.39-9.22,0-2.77-4.27-3.46-4.91-.67a6.66,6.66,0,0,1-.85,2.22,6.3,6.3,0,0,1-.53.79c-.13.15-.27.28-.39.43s-.29.25-.16.18a1.73,1.73,0,0,1,1.86.27l.64,1.1-.07-.19a2.54,2.54,0,0,0-4.18-1.1,2.67,2.67,0,0,1-.76.47c-.16.06-.6.08-.71.18.2-.17,1,.37.91.32l.64,1.1,0-.19a2.5,2.5,0,1,0-4.82,1.33Z" style="fill:#1c1b38"/><path d="M31.39,77.62c7.24-2.23,12.45-7.68,18.45-12,6.26-4.47,13.41-7.42,20.52-10.24,4.21-1.67,8.43-3.33,12.55-5.22l-3.42-.9C82,53,86,55.09,89.89,57c4.44,2.2,9,4.17,13.5,6.22L130.85,75.7a2.57,2.57,0,0,0,3.42-.89,2.51,2.51,0,0,0-.9-3.42l-26.55-12c-4.31-2-8.64-3.86-12.91-5.9-3.43-1.65-7.89-3.38-10.1-6.67a2.57,2.57,0,0,0-3.42-.9c-7,3.21-14.3,5.69-21.31,8.87a73.87,73.87,0,0,0-10,5.38c-3.11,2-6,4.45-8.88,6.76A31.91,31.91,0,0,1,30.06,72.8c-3.07.94-1.76,5.77,1.33,4.82Z" style="fill:#1c1b38"/><path d="M55,98.64C53.43,88.12,48.44,78.46,42.15,70c-1-1.32-3.47-1.89-4.32,0a6.61,6.61,0,0,1-2.41,2.75,27.24,27.24,0,0,1-4.11,2.54c-2.64,1.23-5.9-.09-7.65,2.89a2.52,2.52,0,0,0,1.5,3.67A20.42,20.42,0,0,0,43,77.54l-4.18-1.11c1.47,7,6.61,12.67,7.65,19.81L51,94.32c-1.85-3-4.67-4.87-7.61-6.67a23.4,23.4,0,0,1-3.68-2.58c-.75-.7-2.54-2.41-2.17-3.57l-.64,1.1c-.41.45-.22,0-.09.2a7,7,0,0,0,.7.51,8.74,8.74,0,0,1,1.34,1.89C39.93,87,41,88.84,42,90.66c1.62,2.78,5.94.27,4.32-2.52-1-1.77-2-3.54-3.09-5.29a11.37,11.37,0,0,0-3.6-4.18,5.42,5.42,0,0,0-5.56-.25c-2.13,1.35-1.76,4.14-.9,6.13,1.35,3.11,4.14,5.22,6.94,7,2.4,1.49,5,2.84,6.54,5.32a2.5,2.5,0,0,0,3.12,1,2.54,2.54,0,0,0,1.45-3c-1-7.16-6.18-12.79-7.65-19.81-.42-2-2.83-2.18-4.17-1.1a15.07,15.07,0,0,1-12.95,3L28,80.69s-.28.28-.41.25a5.93,5.93,0,0,0,.94,0,12.39,12.39,0,0,0,2.19-.2,14.52,14.52,0,0,0,4.63-1.94c2.6-1.57,5.53-3.4,6.82-6.26H37.83C43.9,80.69,48.66,89.81,50.17,100a2.52,2.52,0,0,0,3.08,1.75A2.57,2.57,0,0,0,55,98.64Z" style="fill:#1c1b38"/><path d="M111.46,98.85A83.15,83.15,0,0,1,114.75,83a26.84,26.84,0,0,1,2.58-7,25,25,0,0,1,4.82-5.14L118,68.45a25.37,25.37,0,0,1-4.38,7C111.44,77.9,109.22,80,108,83A33.44,33.44,0,0,0,106,91.59c-.42,3.26.35,6.79,3.81,7.94a2.53,2.53,0,0,0,2.83-1.15c1.06-1.69,2.21-3.37,3.15-5.14a24.73,24.73,0,0,0,2-5.35,48.31,48.31,0,0,1,3.73-9.79,19.94,19.94,0,0,1,2.58-4.31l0-.08c-.54,0-.53.09,0,.19a8.11,8.11,0,0,0,1.35.42q1.33.44,2.67.9,2.66.94,5.27,2c.81.33,1.62.69,2.43,1.05a7.91,7.91,0,0,1,2.46,1.24l-.64-1.11a3.48,3.48,0,0,1,.11,1.22v.93q0,.77,0,.33l.64-1.11c.23-.25.35,0-.2,0a3.85,3.85,0,0,1-.48,0,10.16,10.16,0,0,1-1.61-.38,21.89,21.89,0,0,0-3.82-.91c-2.85-.31-5.48,1-7.77,2.59A47.7,47.7,0,0,0,113.21,92.3l4.57.6c-.2-.7.74-2.14,1-2.79.51-1.16,1-2.3,1.62-3.42,1-2,2.25-4.36,4-5.8,1.62-1.3,4.19-1.18,6.15-1.36,1.35-.13,2.7-.23,4.05-.28.72,0,1.43,0,2.15,0a5.06,5.06,0,0,0,.95,0c.61-.09.1.07.06,0l-.9-.9,0-.11V77l-.08.31.64-1.11c.15-.17.44,0,.16-.05a4.74,4.74,0,0,0-.55,0,6.05,6.05,0,0,1-1.41-.49c-1.15-.5-2.26-1.08-3.45-1.49a34.64,34.64,0,0,0-7.61-1.49c-1.25-.15-2.49-.28-3.54.57A3.58,3.58,0,0,0,120,76.82a14.11,14.11,0,0,0,3.36,6.32,2.54,2.54,0,0,0,3.54,0,2.56,2.56,0,0,0,0-3.54,8.91,8.91,0,0,1-1.35-2,5.92,5.92,0,0,1-.4-.93,5.8,5.8,0,0,1-.19-.59c-.12-.65-.19-.54-.23.33l-.89.9.26-.15-1.26.34a18,18,0,0,1,5.62.73,35.4,35.4,0,0,1,5.67,2.11c1.88.78,4.17,1.21,6,.1a3.25,3.25,0,0,0,0-5.61c-1.72-1-4.29-.62-6.17-.53-2.13.1-4.25.31-6.36.55a11.62,11.62,0,0,0-5.68,1.75,16.26,16.26,0,0,0-4,4.54,42.78,42.78,0,0,0-3.21,6.06c-1,2.18-2.42,4.59-1.72,7a2.53,2.53,0,0,0,4.56.59,43,43,0,0,1,5.63-6.27,25.88,25.88,0,0,1,6.43-4.67c2.5-1.14,4.75.35,7.24.73a6.8,6.8,0,0,0,4.2-.5c1.63-.85,1.84-2.34,1.81-4s.07-3.08-1.05-4.26-2.68-1.57-4-2.16c-2.86-1.27-5.75-2.42-8.7-3.45s-6.22-2.56-8.63.15a29.87,29.87,0,0,0-4.31,7.34A59.58,59.58,0,0,0,112.85,87c-.92,3.31-2.71,6-4.52,8.87l2.82-1.15c-1-.32.12-4.87.25-5.57A15.45,15.45,0,0,1,114,82.45c1.54-2,3.48-3.67,5-5.71a31.51,31.51,0,0,0,3.84-7A2.52,2.52,0,0,0,121.64,67a2.59,2.59,0,0,0-3,.39,31.15,31.15,0,0,0-5.37,5.81,27.8,27.8,0,0,0-3.18,8.1,91.19,91.19,0,0,0-3.6,17.6,2.5,2.5,0,0,0,5,0Z" style="fill:#1c1b38"/><path d="M39,115c2,1.88,5.14,4.64,4,7.73-.73,1.9-1.54,3.64-.49,5.63.83,1.59,2.44,2.89,3.65,4.17l16.72,17.67A2.52,2.52,0,0,0,67,147.73c-2.26-8-7.49-14.5-12.42-21-.59-.77-1.17-1.54-1.74-2.32s-.9-1.07-.73-2a12.79,12.79,0,0,0-.4-6.26,26,26,0,0,0-2.93-6,18.75,18.75,0,0,0-3.8-4.9,2.53,2.53,0,0,0-4.17,1.11c-1.08,3.51,3.34,5.57,5.66,7.2,2,1.41,4.7,2.86,5.59,5.3a26,26,0,0,1,.92,4.29l.94,5.09,1.86,10.17a2.5,2.5,0,1,0,4.82-1.33A51.11,51.11,0,0,0,54,118.63c-1-1.76-3.22-1.46-4.32,0a7.34,7.34,0,0,0-1,4.9,3.59,3.59,0,0,1-.12,1.63c0,.08-.15.38-.21.34s1.15-.2.29-.31l2.5,2.5c-.86-6.5-2-13.42-7-18.19l-3,3.93a27.62,27.62,0,0,1,4.53,4c1.8,2,4.63-.15,4.18-2.43-.83-4.17-4.85-5.91-7.4-8.86l-3.53,3.54c3.15,2.94,6.54,6.17,7.58,10.53A36.93,36.93,0,0,1,47,126.9a20.28,20.28,0,0,0,1.64,7.49,2.53,2.53,0,0,0,3.42.89,2.57,2.57,0,0,0,.9-3.42c-.94-2.06-1-4.43-1-6.65a27.22,27.22,0,0,0-1-7.46c-1.56-4.67-5-8.28-8.54-11.57-2.37-2.21-5.63,1.12-3.53,3.54,1.87,2.16,5.53,3.76,6.1,6.65l4.18-2.43a33.44,33.44,0,0,0-5.53-4.83c-2.35-1.64-5,2-3,3.93,3.9,3.77,4.82,9.5,5.5,14.65a2.61,2.61,0,0,0,2.5,2.5c2.32.28,4.09-1.68,4.74-3.7a8.68,8.68,0,0,0,.3-3,3.34,3.34,0,0,1,.37-2.38H49.64a47.47,47.47,0,0,1,6.13,17.3l4.82-1.33-1.77-9.69c-.56-3-1-6.11-1.72-9.07a12.38,12.38,0,0,0-4.92-6.79c-1.17-.89-2.38-1.72-3.59-2.57l-1.75-1.23c-.32-.22-.65-.44-1-.68-.82-.62,0-.19-.25.64l-4.18,1.1a16.47,16.47,0,0,1,3.36,4.44,17.15,17.15,0,0,1,2.4,5.45c.39,1.91-.56,3.79-.06,5.66s2,3.38,3.11,4.86c4.65,6.13,9.79,12.28,11.92,19.82l4.17-2.43L49.63,129l-2.05-2.17a4.25,4.25,0,0,1-.65-.68c0-.07-.31.57.06-.26a10.22,10.22,0,0,0,1.16-5c-.3-3.91-2.93-6.8-5.64-9.38-2.33-2.21-5.87,1.32-3.53,3.54Z" style="fill:#1c1b38"/><path d="M96.19,147.9a12.47,12.47,0,0,1,4.06-4.27c2.15-1.57,4.32-3.09,6.51-4.6,3.75-2.58,8.2-4.88,9.77-9.44a2.54,2.54,0,0,0-2.41-3.17c-2.52-.17-4.79,2.11-6.71,3.45s-4.12,2.84-6.14,4.3a48.75,48.75,0,0,0-10.55,9.77l4.57,1.92A11,11,0,0,1,97.94,142a17.1,17.1,0,0,1,4.4-2.69,11.9,11.9,0,0,0,6.15-8.29,18,18,0,0,0,.39-5.22c-.14-1.95-.7-4,.07-5.84s1.66-3.5,2.43-5.26c.49-1.13,1.21-2.77,2.66-2.71l-2.16-3.76-4.26,6a2.53,2.53,0,0,0,.9,3.42,2.56,2.56,0,0,0,3.42-.9,15.9,15.9,0,0,1,3.94-3.46c1.7-1.13,3.12-2.53,3.13-4.71a2.53,2.53,0,0,0-3.76-2.16,21.25,21.25,0,0,1-6.21,2.31l3.08,3.07s-.05-.06,0-.06l-2.83-3.67a15.23,15.23,0,0,1-4.06,4.18c-2.22,1.54-.94,5.42,1.93,4.57a11.2,11.2,0,0,0,5.56-3.63,2.59,2.59,0,0,0,.39-3,2.53,2.53,0,0,0-2.82-1.15c-3.21,1-6.22,3.22-5.37,7,.17.79.05.45.23.17a2.09,2.09,0,0,1-.22.31,7.6,7.6,0,0,1-1.64.75,9,9,0,0,0-4.5,2.52,2.55,2.55,0,0,0-.2,3.29,2.5,2.5,0,0,0,3.23.64,33.06,33.06,0,0,0,8.7-8.63l-4.32-2.52a9.35,9.35,0,0,1-4.49,4.31l3.42,3.42a18,18,0,0,1,7.79-7.38l-2.52-4.32a44.35,44.35,0,0,0-9.29,8l3.92.51s-.14.4,0,.25.28-.5.44-.71a8.21,8.21,0,0,1,1.65-1.52,9,9,0,0,1,3.91-1.61,2.51,2.51,0,0,0,.67-4.92,6.38,6.38,0,0,0-7.89,4.58l3.67-1.49-.14-.09,1.23,2.16v-.16l-.34,1.27-.15.18-1.1.64.2-.08H105.8l.21,0-1.5-3.68c-1.6,2.4-1.68,5.27-1.46,8,.1,1.33.24,2.65.21,4a31.71,31.71,0,0,1-.74,4c-.18,1.17-.07,2.61-.62,3.69a7.47,7.47,0,0,1-2.34,2.2,16.49,16.49,0,0,0-5.47,6.95c-1,2.35,2.59,4.19,4.18,2.44,2.06-2.27,5-3.29,7.49-4.95s4.88-3.95,5.54-7a5.35,5.35,0,0,1,.17-1c.17-.42-.23.08-.09,0a16.31,16.31,0,0,1,2.08-.68,39.48,39.48,0,0,0,4.68-2,36.57,36.57,0,0,0,8.12-5.73l-3.92-3c-.87,1.89-3.13,3.19-4.69,4.48q-3.12,2.58-6.25,5.15-6.16,5.05-12.41,10l3.92,3a78.32,78.32,0,0,1,5.55-9.29c2-2.82,3.59-5.45,3.87-9a22.76,22.76,0,0,1,.44-4.2,11.55,11.55,0,0,1,1.59-3.39,10.8,10.8,0,0,1,5.75-4.21,2.52,2.52,0,0,0-.66-4.92l-4.15,0a9,9,0,0,0-4.31.59,8.85,8.85,0,0,0-2.54,2.3c-.89,1-1.83,2-2.81,3-2.3,2.26,1.24,5.8,3.53,3.54.76-.75,1.5-1.52,2.21-2.31.5-.56,1.22-1.83,1.93-2.11a7.93,7.93,0,0,1,2.48,0l3.66,0-.67-4.91a16.12,16.12,0,0,0-11.26,13.5c-.19,1.68,0,3.41-.6,5a18.59,18.59,0,0,1-2.42,4,79,79,0,0,0-5.9,9.79c-1.35,2.65,1.73,4.77,3.92,3,4.3-3.4,8.56-6.86,12.79-10.33l6.25-5.16c1.83-1.5,4.07-3,5.09-5.18a2.51,2.51,0,0,0-3.92-3,30.58,30.58,0,0,1-12,6.92c-1.66.53-3.17,1.29-3.84,3-.49,1.25-.44,2.49-1.29,3.61a10.57,10.57,0,0,1-3,2.49c-2.72,1.66-5.68,2.91-7.87,5.32l4.18,2.43c1-2.38,3-3.72,4.9-5.28a8.86,8.86,0,0,0,2.57-3,13,13,0,0,0,1-4.41c.15-1.38.64-2.69.8-4.07a18.8,18.8,0,0,0,0-3.75c-.18-2.36-.75-5,.65-7.12a2.52,2.52,0,0,0-1.5-3.68,3.11,3.11,0,0,0-3.43,1.43,2.74,2.74,0,0,0,1,3.75,2.52,2.52,0,0,0,3.67-1.49,1.35,1.35,0,0,1,1.74-1.08l.66-4.91a14.88,14.88,0,0,0-7.86,3.38c-2.16,1.83-4.22,5-2.46,7.73a2.53,2.53,0,0,0,3.93.5,39.79,39.79,0,0,1,8.28-7.26,2.5,2.5,0,0,0-2.52-4.32,22.76,22.76,0,0,0-9.59,9.18,2.52,2.52,0,0,0,3.42,3.42,13.73,13.73,0,0,0,6.29-6.11,2.5,2.5,0,0,0-4.32-2.52,26.36,26.36,0,0,1-6.9,6.83l3,3.93c.78-1,2-1.1,3.14-1.52a7.51,7.51,0,0,0,3.83-2.81,4.62,4.62,0,0,0,.73-2.28c0-.72-.3-1.39-.31-2.08,0,.4.14.07.42-.12a6.08,6.08,0,0,1,1.48-.64l-2.43-4.17a6.64,6.64,0,0,1-3.36,2.34l1.93,4.57a21.76,21.76,0,0,0,5.85-6c1.14-1.73-.78-4.46-2.82-3.67a5.41,5.41,0,0,0-3.45,3.55,2.52,2.52,0,0,0,3.07,3.08,25.83,25.83,0,0,0,7.4-2.81L114,108.59c0-.3-.34.18-.51.31-.71.5-1.45.94-2.13,1.48a20.78,20.78,0,0,0-3.75,3.86l4.32,2.52,4.26-6c1.16-1.63-.42-3.7-2.16-3.76a7,7,0,0,0-5.86,3.18c-1.23,1.71-1.79,3.82-2.75,5.68a13.19,13.19,0,0,0-1.88,6.4c0,2,.48,4,.33,6a9.81,9.81,0,0,1-1.32,4.36c-.93,1.51-2.33,2.16-3.87,2.9a16.45,16.45,0,0,0-8.22,9,2.46,2.46,0,0,0,1.44,2.94,2.54,2.54,0,0,0,3.12-1,41.24,41.24,0,0,1,8.76-8c1.7-1.22,3.42-2.41,5.14-3.61l2.8-1.95c.57-.39,1.75-1.55,2.39-1.51l-2.41-3.16c-.57,1.65-2.12,2.8-3.5,3.76-2,1.38-4,2.7-6,4.09-3.68,2.57-8.26,5.12-10.36,9.27-1.45,2.86,2.86,5.4,4.32,2.52Z" style="fill:#1c1b38"/><path d="M63.86,123.84c1.85,2.24,4.67,3,6.75,5a19.48,19.48,0,0,1,4.56,7.45,27.59,27.59,0,0,1,.73,17.36l4.83,1.33c.51-3.28-.88-5.7-2-8.65a10.22,10.22,0,0,1-.53-4.69,21,21,0,0,0-.23-4.62,18.07,18.07,0,0,0-10-13.09,2.52,2.52,0,0,0-3.42,3.42l9,17.95,3.92-3a12.88,12.88,0,0,1-3.18-5.14,23.69,23.69,0,0,0-3.52-6.46c-1.7-2-4.7.19-4.18,2.43A21.81,21.81,0,0,0,69,139.24c1,1.79,2.5,3.33,3.42,5.2a21,21,0,0,1,1.48,6.12,63,63,0,0,1,.63,7.12,2.52,2.52,0,0,0,2.17,2.46,2.48,2.48,0,0,0,2.75-1.79L80.59,151A2.58,2.58,0,0,0,78.85,148a2.52,2.52,0,0,0-3.08,1.75L74.62,157l4.91.66a74.73,74.73,0,0,0-.66-7.48,30.07,30.07,0,0,0-1.52-6.9,32.05,32.05,0,0,0-3.46-5.68,17.56,17.56,0,0,1-2.5-5.89l-4.18,2.43c1.35,1.62,2,3.78,2.84,5.69a15.32,15.32,0,0,0,3.87,5.91,2.51,2.51,0,0,0,3.93-3l-9-18-3.42,3.42a13.38,13.38,0,0,1,7.72,10.15c.41,2.87-.43,5.7.49,8.54.42,1.31,1.06,2.54,1.6,3.8a5.66,5.66,0,0,1,.69,2.91,2.59,2.59,0,0,0,1.75,3.08,2.54,2.54,0,0,0,3.08-1.75,32.33,32.33,0,0,0-.73-20A27.68,27.68,0,0,0,74.87,126c-2.14-2.37-5.46-3.26-7.48-5.7a2.51,2.51,0,0,0-3.53,0,2.55,2.55,0,0,0,0,3.54Z" style="fill:#1c1b38"/><path d="M63.94,128a5.8,5.8,0,0,0,0,1,9.05,9.05,0,0,0,.25,1.63,2.8,2.8,0,0,0,1.15,1.49,1.77,1.77,0,0,0,.93.3,1.89,1.89,0,0,0,1,0l.6-.26a2.53,2.53,0,0,0,.89-.89l.26-.6a2.72,2.72,0,0,0,0-1.33,4.69,4.69,0,0,1-.14-.65l.09.66a4.94,4.94,0,0,1,0-1.33,2,2,0,0,0-.21-1,2.26,2.26,0,0,0-1.33-1.33,1.93,1.93,0,0,0-1-.21l-.66.09a2.53,2.53,0,0,0-1.11.64l-.39.51a2.53,2.53,0,0,0-.34,1.26Z" style="fill:#1c1b38"/><path d="M46.22,114.5c-.11-4.34-2.3-8.12-5.2-11.21s-6.5-5.47-9.33-8.66l-3,3.93c5.16,3.59,11,7.6,13.49,13.64a2.5,2.5,0,0,0,4.91-.66A18.82,18.82,0,0,0,37.66,95a2.52,2.52,0,0,0-3.42,3.42c1.95,3.77,5.24,6.46,8.5,9,3.09,2.44,6.28,4.92,7.9,8.61,1.13,2.57,5.57.73,4.57-1.92a15.13,15.13,0,0,0-7-8.13,2.51,2.51,0,0,0-3,3.92,15.18,15.18,0,0,1,3.85,10.18c0,2.79,4.21,3.44,4.91.67a20,20,0,0,0,0-9.91l-4.18,2.43c2.74,2.46,2.25,6.48,2,9.79a2.51,2.51,0,0,0,2.5,2.5,2.55,2.55,0,0,0,2.5-2.5,49.5,49.5,0,0,0-.52-14.17c-.38-2.11-3.62-2.43-4.57-.6a23.72,23.72,0,0,0-2.67,10c-.14,3.22,4.86,3.21,5,0a17.68,17.68,0,0,1,2-7.46l-4.57-.6a44.92,44.92,0,0,1,.34,12.84h5c.41-4.69.37-9.92-3.43-13.32a2.52,2.52,0,0,0-4.17,2.43,14.59,14.59,0,0,1,0,7.25l4.91.66a20.4,20.4,0,0,0-5.32-13.71l-3,3.93a9.86,9.86,0,0,1,4.67,5.14L55,113.53c-1.69-3.85-4.93-6.65-8.15-9.21s-6.4-4.87-8.25-8.45l-3.42,3.42a13.78,13.78,0,0,1,6.92,12.25l4.91-.67c-3-7.42-9.39-12.17-15.78-16.63-2.44-1.7-4.82,1.91-3,3.93,2.55,2.88,5.71,5.1,8.46,7.78,2.34,2.28,4.51,5.14,4.6,8.55.08,3.21,5.08,3.22,5,0Z" style="fill:#1c1b38"/><path d="M80.38,118.83A22.28,22.28,0,0,0,99,117.06l-3-3.92a5.78,5.78,0,0,1-2.44,1.08,18.2,18.2,0,0,1-3.28.51,59.41,59.41,0,0,1-8.33.24c-2.28-.1-3.14,2.73-1.76,4.26a22.53,22.53,0,0,0,3,2.63c.56.43,1.11.87,1.63,1.35.2.17.38.35.57.54s.63.74.44.49a8.09,8.09,0,0,1,1.32,3.83c.2,1.32.41,3.16.6,4.67a2.58,2.58,0,0,0,2.5,2.5,2.52,2.52,0,0,0,2.5-2.5c-.14-4.61-.43-9.46-3-13.46a2.5,2.5,0,0,0-4.57,1.92,45,45,0,0,1,1.58,5.7c.09.4.17.8.23,1.21s0-.56,0,.26c0,.18,0,.36,0,.54s0,.35,0,.52-.06.38,0,.11c0,0-.13.63-.1.42s-.23.36,0,.06l4.27,1.77c.22-5.24.24-11-2.91-15.47l-3.42,3.42A4.27,4.27,0,0,1,87.06,122a17,17,0,0,1,1.23,4.25,2.52,2.52,0,0,0,2.41,1.83,2.58,2.58,0,0,0,2.41-1.83,27.46,27.46,0,0,0,1.29-6.6h-5a53.26,53.26,0,0,1,.13,10.18,2.5,2.5,0,0,0,5,0,53.26,53.26,0,0,0-.13-10.18,2.57,2.57,0,0,0-2.5-2.5,2.54,2.54,0,0,0-2.5,2.5A22.19,22.19,0,0,1,88.29,125h4.82c-.78-3.69-2.07-7.75-5.74-9.52a2.59,2.59,0,0,0-3,.39,2.51,2.51,0,0,0-.39,3,12.69,12.69,0,0,1,2.14,5.78,45,45,0,0,1,.09,7.16c-.08,2,2.91,3.5,4.27,1.77,1.61-2.05,1.74-4.28,1.33-6.78A41.33,41.33,0,0,0,90,119.87L85.4,121.8a13.18,13.18,0,0,1,1.9,5.25,45.56,45.56,0,0,1,.41,5.69h5c-.25-2-.47-3.9-.76-5.85a12.1,12.1,0,0,0-1.69-5c-1.73-2.59-4.52-4-6.56-6.23L81.93,120a60.92,60.92,0,0,0,9.36-.35c3-.35,5.85-.93,8.23-3a2.5,2.5,0,0,0-3-3.92A17.25,17.25,0,0,1,81.71,114a2.5,2.5,0,1,0-1.33,4.82Z" style="fill:#1c1b38"/><path d="M90.33,146a29.07,29.07,0,0,1-2.08,4.25l4.32,2.52a77.21,77.21,0,0,1,5.33-8.2l-4.66-1.26c.05.7,0-.24.15-.18s-.43.62-.13.26a14.83,14.83,0,0,1-1.2,1.18l-2.7,2.55,4.27,1.77c.07-.75-.13.41.05-.32l.12-.48c.07-.24.15-.47.24-.7-.13.32,0-.08.1-.2s.2-.36.31-.53.37-.55.23-.36.24-.28.28-.32.35-.35.53-.52l-4.18-2.43c.1-.24,0-.09,0,.06s-.15.28-.23.41a9.23,9.23,0,0,1-.56.91l-.28.39s-.3.41-.16.23-.26.33-.25.31l-.31.38a30.18,30.18,0,0,0-2.68,3.59c-1.7,2.88-1.9,6.22-2,9.48,0,2.77,4.32,3.46,4.91.67.16-.73.34-1.45.57-2.16A15,15,0,0,1,91,155.6a19.26,19.26,0,0,1,1-1.85c.2-.34.41-.67.63-1l.3-.43s.35-.47.16-.22l-3.93-3a73.09,73.09,0,0,0-3.41,7.35,2.51,2.51,0,0,0,1.75,3.08,2.57,2.57,0,0,0,3.07-1.75c.39-1,.78-1.87,1.29-3s1.06-2.15,1.62-3.2a2.52,2.52,0,0,0-.64-3.23,2.47,2.47,0,0,0-3.28.2,23.45,23.45,0,0,0-4.59,9.59l4.91.66c0-.72,0-1.44.07-2.16,0-.41,0-.81.09-1.21,0-.05.07-.52,0-.34s.06-.28.06-.33a11.12,11.12,0,0,1,.57-2.05c.16-.4-.11.22.06-.13l.22-.42a10.74,10.74,0,0,1,.56-.92c.18-.27.37-.53.56-.78-.16.21,0,.05,0-.07l.3-.38c.4-.5.81-1,1.21-1.5a17.67,17.67,0,0,0,2.51-4.14A2.48,2.48,0,0,0,95,141.56a2.59,2.59,0,0,0-3,.39,10.62,10.62,0,0,0-3.32,7,2.46,2.46,0,0,0,1.53,2.28,2.53,2.53,0,0,0,2.74-.52c1.1-1,2.22-2.07,3.32-3.13a5.53,5.53,0,0,0,2-4.21,2.57,2.57,0,0,0-1.83-2.41,2.67,2.67,0,0,0-2.83,1.15,76.21,76.21,0,0,0-5.33,8.2,2.5,2.5,0,0,0,4.32,2.52,36.56,36.56,0,0,0,2.58-5.44,2.5,2.5,0,0,0-1.74-3.07A2.57,2.57,0,0,0,90.33,146Z" style="fill:#1c1b38"/><path d="M86.53,135.58c1.6-4.67-2.23-8.35-4.89-11.64a93.72,93.72,0,0,1-7.13-10.21l-3.92,3c4.34,4,7.13,9.26,9.88,14.43a2.5,2.5,0,0,0,4.31-2.53c-2.93-5.53-6-11.14-10.66-15.43-2-1.88-5.44.52-3.92,3a102.8,102.8,0,0,0,6.77,9.8c1.18,1.51,2.51,2.93,3.66,4.46.86,1.16,1.54,2.39,1.08,3.74a2.5,2.5,0,0,0,4.82,1.33Z" style="fill:#1c1b38"/><path d="M118.88,102.55a105.56,105.56,0,0,1-8.8,7l3.42,3.42a4.57,4.57,0,0,1,.81-1.25L110,109.92a3,3,0,0,0,1.43,2.59,3.23,3.23,0,0,0,2.72.11,13.9,13.9,0,0,0,3.24-1.33,7,7,0,0,0,2.61-2.63,7.22,7.22,0,0,0,.62-1.76c.06-.24.13-.49.17-.73s.09-.31,0-.08-.17.16,0,0l-4.17-2.43a9.66,9.66,0,0,1-2,2.81l3.93,3a11.72,11.72,0,0,1,2.71-2.28,23.31,23.31,0,0,0,3.67-3c.93-1,1.76-2.06,2.66-3.07.45-.49.92-1,1.41-1.4l.11-.09.43-.29c.09-.06.86-.47.57-.35A2.58,2.58,0,0,0,132,95.93a2.51,2.51,0,0,0-3.08-1.74A12.39,12.39,0,0,0,124.71,97c-1.07,1.1-2,2.34-3,3.46-2.18,2.35-5.32,3.68-7.35,6.44a2.5,2.5,0,0,0,3.93,3,15.43,15.43,0,0,0,3.26-5,2.51,2.51,0,0,0-1.15-2.82,2.55,2.55,0,0,0-3,.39,5.07,5.07,0,0,0-1.39,2.57c-.1.41-.16.82-.3,1.22.09-.25,0-.1,0,0-.25.38.09,0-.1.14l-.34.33c-.27.23.43-.21-.16.1l-.42.24s-.6.29-.37.19l-.29.11-.59.2c-.4.13-.8.24-1.2.34l1.93.25-.16-.11.89.9-.09-.17.34,1.26v-.2a2.53,2.53,0,0,0-4.27-1.77,8.53,8.53,0,0,0-1.59,2.27,2.59,2.59,0,0,0,.39,3,2.52,2.52,0,0,0,3,.4,120.23,120.23,0,0,0,9.82-7.75,2.54,2.54,0,0,0,0-3.54,2.56,2.56,0,0,0-3.54,0Z" style="fill:#1c1b38"/><path d="M112.12,124.19l.22-.18-.5.39a29.28,29.28,0,0,1,4.83-3l-2.53-4.32a23.31,23.31,0,0,0-5.29,3.73,10.8,10.8,0,0,0-1.94,2.62,9.57,9.57,0,0,0-1,3.62,2.48,2.48,0,0,0,.73,1.76,2.56,2.56,0,0,0,1.77.74,2.52,2.52,0,0,0,1.77-.74,2.84,2.84,0,0,0,.73-1.76c0-.09,0-.17,0-.25l-.08.66a7,7,0,0,1,.46-1.66l-.25.6a8.69,8.69,0,0,1,1-1.71l-.39.5a11.75,11.75,0,0,1,2-1.91l-.51.39a29.74,29.74,0,0,1,3.59-2.27,2.52,2.52,0,0,0,.89-3.42,2.56,2.56,0,0,0-3.42-.9,31.87,31.87,0,0,0-5.56,3.57,2.53,2.53,0,0,0-.73,1.77,2.49,2.49,0,0,0,2.5,2.5,2.92,2.92,0,0,0,1.77-.73Z" style="fill:#1c1b38"/><path d="M100.38,143a28.32,28.32,0,0,1,9.81-5.68c3.86-1.29,7.7-2.29,11-4.84l-3.53-3.54c-2,1.79-4.72,2.43-7.2,3.19a67.06,67.06,0,0,0-9.48,3.72,2.48,2.48,0,0,0-1,3.13,2.54,2.54,0,0,0,2.94,1.44,56.39,56.39,0,0,0,12.93-3.63,2.59,2.59,0,0,0,1.74-3.08,2.51,2.51,0,0,0-3.07-1.74,25.24,25.24,0,0,1-8.08,1.82,2.55,2.55,0,0,0-2.5,2.5,2.53,2.53,0,0,0,2.5,2.5,29.22,29.22,0,0,0,9.41-2L114.47,132a56.45,56.45,0,0,1-12.92,3.63l1.92,4.57a63.43,63.43,0,0,1,9.26-3.51c3-.93,6-2,8.43-4.18a2.54,2.54,0,0,0,0-3.54,2.56,2.56,0,0,0-3.53,0c-2.86,2.23-6.76,2.77-10.08,4a34.14,34.14,0,0,0-10.7,6.5,2.5,2.5,0,0,0,3.53,3.54Z" style="fill:#1c1b38"/><path d="M31.08,110c3.74,1.17,6.72,3.8,9.19,6.76a51.08,51.08,0,0,1,3.56,5,4.09,4.09,0,0,1,1,2.16,25.86,25.86,0,0,1-.41,3.15h4.83A108.51,108.51,0,0,0,45,113.85c-1.72-4-5-6.55-8.48-9a2.53,2.53,0,0,0-3,.39,2.57,2.57,0,0,0-.39,3l.49,1L37,105.8a43.63,43.63,0,0,0-7.2-2.45,2.55,2.55,0,0,0-3.17,2.41c-.34,3,3.79,4.44,5.91,5.65a25.5,25.5,0,0,1,6.06,4.44c3.43,3.65,4.79,8.74,5.77,13.51L49.22,128,46.58,116.9l-4.82,1.33a97.51,97.51,0,0,1,2,9.55l3.08-3.07c.53.16.13.53.12,0,0-.12-.06-.44-.07-.6-.09-.92-.07-1.85-.1-2.77l-.19-5.78c-.11-3.21-5.11-3.22-5,0,.09,2.67.16,5.34.26,8s.91,5.12,3.65,6c2,.62,3.35-1.31,3.07-3.08a94.67,94.67,0,0,0-2-9.55c-.82-3.11-5.57-1.8-4.82,1.33l2.63,11.13A2.5,2.5,0,1,0,49.22,128c-1-5-2.59-10.09-5.79-14.2a23.61,23.61,0,0,0-5.89-5.25c-1.07-.7-2.18-1.34-3.29-2l-1.68-.93-.84-.47L31.4,105c-.53-.4-.45-.16.25.72l-3.16,2.41a36,36,0,0,1,6,2c2.24,1,4.65-1.05,3.42-3.42l-.5-1L34,109.17c2.79,2,5.49,4,6.72,7.33,1.46,3.88,2.62,7.89,3.74,11.87a2.56,2.56,0,0,0,2.42,1.84,2.51,2.51,0,0,0,2.41-1.84c.37-2.77,1.11-5.48-.41-8a60.8,60.8,0,0,0-4.55-6.48,25.2,25.2,0,0,0-11.92-8.68c-3.08-1-4.4,3.86-1.33,4.82Z" style="fill:#1c1b38"/><path d="M60.1,127.44c.51,5.43,1,11,2.79,16.15.89,2.59,2.27,4.89,3.36,7.37A21.53,21.53,0,0,1,68,158.49c.18,3.2,4.9,3.24,5,0,.18-5.64-2.9-10.4-6.07-14.8a2.57,2.57,0,0,0-3.42-.89,2.52,2.52,0,0,0-.9,3.42c2.63,3.64,5.54,7.56,5.39,12.27h5a27.16,27.16,0,0,0-1.6-8c-1-2.55-2.46-4.84-3.41-7.38-1.88-5-2.41-10.36-2.91-15.65a2.57,2.57,0,0,0-2.5-2.5,2.53,2.53,0,0,0-2.5,2.5Z" style="fill:#1c1b38"/><path d="M87.72,63.37l-.2-1.15-.09-.53-.05-.27c-.07-.49-.08-.23,0,.79l-.64,1.1c-.86.41-1.06.54-.63.39l.32-.09.64-.13,1.31-.21a12.36,12.36,0,0,0,2.71-.85c.92-.39,1.84-.81,2.75-1.22a4.74,4.74,0,0,0,2.44-2A2.5,2.5,0,1,0,92,56.68c-.22.41.31-.33.13-.14s.5-.31.14-.11a6.54,6.54,0,0,1-.59.3L90,57.48l-.8.36c-.43.19.34-.13,0,0l-.4.16a9.25,9.25,0,0,1-1.62.44c-1.23.22-2.64.27-3.67,1.07a2.72,2.72,0,0,0-1.06,1.84,4.82,4.82,0,0,0,.11,1.51l.32,1.86a2.54,2.54,0,0,0,1.15,1.5,2.6,2.6,0,0,0,1.93.25,2.57,2.57,0,0,0,1.74-3.08Z" style="fill:#1c1b38"/><path d="M61.92,78.15a78.52,78.52,0,0,0,13.63-7,2.53,2.53,0,0,0,1.19-2.49A2.46,2.46,0,0,0,75,66.61a17.87,17.87,0,0,1-2.06-.56c-.34-.11-.68-.24-1-.36l-.5-.2c.19.07.14.05-.14-.07-1.22-.55-2.41-1.15-3.6-1.76s-2.3-1.17-3.4-1.83c-.59-.35-1.17-.72-1.73-1.11l-.41-.3L62,60.34l-.78-.67a2.5,2.5,0,1,0-3.53,3.54A34.09,34.09,0,0,0,65.11,68a35.27,35.27,0,0,0,8.51,3.45L73,66.86a75.25,75.25,0,0,1-12.43,6.47,2.57,2.57,0,0,0-1.75,3.08,2.53,2.53,0,0,0,3.08,1.74Z" style="fill:#1c1b38"/><path d="M61.21,74.61a6.77,6.77,0,0,0-1.67-1.14c-.24-.11-.48-.22-.71-.35l-.39-.24c-.34-.22.1,0,.08.06s-.53-.51-.58-.56l-.3-.35c-.27-.31.06.08.06.08s-.9-1.34-1-1.47c-1.42-2.24-2.84-4.49-4.27-6.73a2.5,2.5,0,0,0-4.32,2.52l4.38,6.91a14.62,14.62,0,0,0,2.34,3,7.73,7.73,0,0,0,1.69,1.2c.26.13.53.25.79.39l.31.17c.48.26-.36-.35,0,0a2.5,2.5,0,0,0,3.53-3.54Z" style="fill:#1c1b38"/><path d="M101.42,73c-1.18-.46-1.77-.71-2.94-1.24s-2.23-1-3.33-1.61c-2.15-1.1-4.25-2.32-6.29-3.62l-.6,4.57a35.68,35.68,0,0,0,8.59-3.45,34.41,34.41,0,0,0,7.5-4.77,2.52,2.52,0,0,0,0-3.54,2.55,2.55,0,0,0-3.53,0c-.26.23-.52.46-.79.67.26-.21-.45.32-.53.38-.56.39-1.15.76-1.74,1.11-1.12.66-2.28,1.25-3.44,1.83s-2.4,1.21-3.63,1.76c-.29.12-.34.14-.15.07l-.51.2c-.33.12-.67.25-1,.36a18.94,18.94,0,0,1-2.09.56,2.49,2.49,0,0,0-1.79,2.08,2.54,2.54,0,0,0,1.2,2.49,79.26,79.26,0,0,0,13.75,7,2.51,2.51,0,0,0,3.08-1.74A2.59,2.59,0,0,0,101.42,73Z" style="fill:#1c1b38"/><path d="M104.35,77.83c.33-.31-.29.14,0,0s.25-.15.38-.21.48-.23.72-.35a7.75,7.75,0,0,0,1.74-1.21,13.85,13.85,0,0,0,2.35-3c1.49-2.33,3-4.65,4.46-7a2.52,2.52,0,0,0-.89-3.42,2.56,2.56,0,0,0-3.42.9q-2.19,3.41-4.37,6.83c-.29.44-.58.88-.89,1.31s0-.07.07-.08c-.06,0-.24.27-.29.33a7.14,7.14,0,0,1-.55.55c-.4.38.29-.17,0,0s-.24.16-.37.24-.48.24-.72.36a7.16,7.16,0,0,0-1.77,1.17,2.54,2.54,0,0,0,0,3.54,2.56,2.56,0,0,0,3.54,0Z" style="fill:#1c1b38"/></g></g></svg>