<svg xmlns="http://www.w3.org/2000/svg" viewBox="0 0 188.64 171.32"><g id="Слой_2" data-name="Слой 2"><g id="Слой_6" data-name="Слой 6"><path d="M54.26,77.73C53.7,77,55.68,75.3,56,75c1.64-1.46,3.35-2.85,5-4.26s3.47-2.87,5.21-4.29c1.55-1.27,3-2.66,4.71-3.77a9.64,9.64,0,0,1,5.38-1.4,8.69,8.69,0,0,1,4.83.84c1.21.77.84,2.58.53,3.81a6.83,6.83,0,0,1-2.48,3.87c-3.7,2.82-8.6,3.77-12.06,7h3.53a7.24,7.24,0,0,0-4.62-2.19c-1.4-.12-3.46.16-4.52,1.18-.12.1-.25.19-.38.28.91.17,1.15.13.72-.1a4.44,4.44,0,0,0-1.15-.74,7.17,7.17,0,0,0-2.69-.76,9.28,9.28,0,0,0-5.3,1.32l3,3.92c1-.94,2.28-2.35,3.62-2.86a5.85,5.85,0,0,1,2-.09q1.37,0,2.73.06c1.82.05,3.64.15,5.45.27a5,5,0,0,0,4.26-1.22,2.54,2.54,0,0,0-1.1-4.18,52.14,52.14,0,0,0-5.34-1.48c-.76-.17-1.52-.28-2.27-.46-.15,0-.56-.15-.6-.15l-.26-.15c.32.38.38.38.16,0L63,73.06a16,16,0,0,1,8.15-.29c2.62.45,6.5,2.18,8.34-.52a2.52,2.52,0,0,0-.89-3.42,25.21,25.21,0,0,0-5.32-2.27c-1.49-.43-3.36-.41-4.62-1.36L68,69.77c2.41-.38,5,.2,7.43.52s5.53,1.43,7-1.06c1.61-2.74-1.58-4.77-3.73-5.55-2-.71-4.18-.73-6.08-1.61L73.16,66c-.29.3.1,0,.39,0s.65-.11,1-.15c.78-.09,1.58-.15,2.37-.17s1.43,0,2.14,0a4,4,0,0,0,1.19.07c.46-.13.34.73-.3-.33,1.66,2.75,6,.24,4.32-2.53-1.43-2.36-4.43-2.27-6.88-2.23a35.41,35.41,0,0,0-4,.34,6,6,0,0,0-3.77,1.47c-1,1.06-1,3.24.51,3.93a21,21,0,0,0,4.67,1.43c1.11.24,2.88.41,3.66,1.35l-.65-1.11V68l.34-1.26L78,66.9l.9-.89c.55-.11.69-.17.43-.18l-1-.14-1.44-.2L73.41,65a23.5,23.5,0,0,0-6.7-.07A2.45,2.45,0,0,0,64.92,67a2.57,2.57,0,0,0,1.19,2.49c1.46,1.09,3.25,1.21,5,1.63a19.9,19.9,0,0,1,5,2l-.89-3.42L75,69.9l.9-.9-.2.09L77,68.75a13.55,13.55,0,0,1-3.36-.59c-1.39-.27-2.8-.5-4.22-.65a17.63,17.63,0,0,0-7.77.73,2.54,2.54,0,0,0-1.5,3.67c.87,1.78,2.73,2.41,4.54,2.75a51.35,51.35,0,0,1,6.76,1.78l-1.11-4.18c.43-.44.57,0,.09-.19A3.69,3.69,0,0,0,69.38,72c-.91-.07-1.82-.12-2.73-.17-1.82-.08-3.64-.14-5.45-.15a8.4,8.4,0,0,0-4.93,1.16,31.09,31.09,0,0,0-4,3.26c-2.12,2,.59,5.3,3,3.92a3.68,3.68,0,0,1,2.84-.57,8.64,8.64,0,0,1,1.41.87,4.2,4.2,0,0,0,2.66.54c1.13-.18,1.88-1.14,2.9-1.34a2.26,2.26,0,0,1,2.07.74,2.54,2.54,0,0,0,3.53,0c1.78-1.64,4.38-2.57,6.51-3.65s4.68-2.24,6.45-4.11c3-3.23,5.14-10.31,1.36-13.76a11.07,11.07,0,0,0-6.88-2.47,17.46,17.46,0,0,0-8,1.15c-2.36,1-4.3,2.93-6.28,4.54-2.18,1.78-4.36,3.57-6.52,5.37S52.45,71,50.7,73.4a6.27,6.27,0,0,0,0,7.86,2.5,2.5,0,0,0,3.53,0,2.54,2.54,0,0,0,0-3.53Z" style="fill:#1c1b38"/><path d="M49.35,78.84c-3.29,1-5.2,4-5.54,7.27-.36,3.6,1.59,7,3.4,10s3.72,6.26,6.39,8.46c1.34,1.1,3.42,2.54,5.26,2,2.32-.64,2.76-3.3,2.26-5.31-.46-1.84-1.34-3.46-1.53-5.39a41.49,41.49,0,0,1,0-6.5l-3.77,2.16c1,.56,1.63,1.41,2.86,1.6a5.07,5.07,0,0,0,3.63-.93,7.77,7.77,0,0,0,3.19-6l-.34,1.26.09-.22-.9.9c-.28.19-.74.07-.13.1H65a14.42,14.42,0,0,0,1.47,0A5.37,5.37,0,0,0,70,86.84,5.53,5.53,0,0,0,71.4,84.1a12.78,12.78,0,0,1,.46-2.42A2.57,2.57,0,0,0,71,78.26a2.52,2.52,0,0,0-3.42.9,9,9,0,0,0-.78,2.48,5.42,5.42,0,0,1-.29,1.56,5.54,5.54,0,0,1-.91.07,10.54,10.54,0,0,0-2.69.13,3,3,0,0,0-2,1.55c-.38.73-.23,1.54-.58,2.27-.16.31-.81.74-.84,1,0,0,.7.61.23,0a5.4,5.4,0,0,0-1.3-1,2.53,2.53,0,0,0-3.76,2.16,39.24,39.24,0,0,0,0,7.35,17.58,17.58,0,0,0,.77,3.58c.16.46,1,2.18.85,2.46l.89-.9-.27.14,1.27-.34c-.57-.08-1.36-.9-1.76-1.28a17.44,17.44,0,0,1-1.91-2.29c-1.39-1.94-2.69-3.95-3.88-6-.95-1.66-2-3.54-1.87-5.52a3.11,3.11,0,0,1,1.9-2.93c3.08-.9,1.77-5.73-1.33-4.82Z" style="fill:#1c1b38"/><path d="M61.38,98.05l0,0-.51-.39a1.8,1.8,0,0,1,.36.37l-.39-.51a3.87,3.87,0,0,1,.49.89l-.25-.6c.25.61.48,1.23.72,1.84a1.89,1.89,0,0,0,.45.85,2,2,0,0,0,.7.65,1.85,1.85,0,0,0,.93.29,1.89,1.89,0,0,0,1,0,2.53,2.53,0,0,0,1.49-1.15l.25-.6a2.5,2.5,0,0,0,0-1.33c-.32-.81-.63-1.63-1-2.44a5.06,5.06,0,0,0-.38-.73,5.91,5.91,0,0,0-.62-.8,5.46,5.46,0,0,0-.79-.65,1.85,1.85,0,0,0-.93-.29,1.89,1.89,0,0,0-1,0,2,2,0,0,0-.85.45,2,2,0,0,0-.64.7,2.5,2.5,0,0,0-.25,1.93l.25.59a2.43,2.43,0,0,0,.9.9Z" style="fill:#1c1b38"/><path d="M59.84,114.26a2.45,2.45,0,0,1,.38.24l-.5-.39a3.31,3.31,0,0,1,.49.5l-.39-.5a3.77,3.77,0,0,1,.45.78l-.25-.6a5.55,5.55,0,0,1,.35,1.33l-.09-.66a15,15,0,0,1,.09,1.78,20.17,20.17,0,0,0,.2,2.32,2.46,2.46,0,0,0,1.15,1.49,2.49,2.49,0,0,0,3.42-.89l.25-.6a2.5,2.5,0,0,0,0-1.33l0-.12.09.66a36.58,36.58,0,0,0-.38-4.56,5.83,5.83,0,0,0-2.71-3.77,2.65,2.65,0,0,0-1.93-.25,2.51,2.51,0,0,0-.6,4.57Z" style="fill:#1c1b38"/><path d="M78.33,112.2c-1.24,0-3.11.13-3.78-1.15-.83-1.6-.91-3.9-1.1-5.67a43.73,43.73,0,0,1-.26-6.67,2.37,2.37,0,0,1,.33-1.44c.46-.53,1.64-.66,2.27-.82,8.5-2.19,17.2-3.5,25.62-6,4.23-1.23,8.33-2.85,12.5-4.26a41.38,41.38,0,0,1,6.29-1.78c1.58-.27,3.79-.43,5.16.61,1.17.9,1,2.89,1,4.21l.28,6.85.29,6.86c0,.54.09,1.09.07,1.64,0,.38.46-.27-.1.17a18.32,18.32,0,0,0-2,2c-2.94,3.18-5.52,7.08-6.22,11.43-.39,2.39,0,4.81-.31,7.19a4.13,4.13,0,0,1-.72,1.88c-.19.24-.47.36-.65.56s-.15,0,0,.06l.9.9c-.67-.89-.41-3-.54-4.27a8.81,8.81,0,0,0-2.07-5.26c-2.74-3-6.94-3-10.67-2.58a2.57,2.57,0,0,0-2.5,2.5,2.52,2.52,0,0,0,2.5,2.5c2.1-.24,5.18-.82,6.89.85a3.72,3.72,0,0,1,.89,2.38c.13,1.42.12,2.84.37,4.24a4.42,4.42,0,0,0,2,3.24,4.86,4.86,0,0,0,4.1.09,7.59,7.59,0,0,0,4.35-5.51c.6-2.79-.09-5.66.55-8.42a17.12,17.12,0,0,1,3.17-6.39,28.15,28.15,0,0,1,2.28-2.59,9.24,9.24,0,0,0,2.54-3.13,10.23,10.23,0,0,0,.2-3.94l-.2-4.9c-.13-3.1-.25-6.2-.4-9.3-.13-2.87-.67-5.54-3.13-7.32-4.86-3.51-11.7-.92-16.72.82-5.52,1.92-11,3.89-16.65,5.27S83.07,89.57,77.23,91c-2.79.66-6.33,1.11-8,3.75s-1.12,6.55-.89,9.48c.14,1.75.37,3.5.67,5.23a12.38,12.38,0,0,0,1.32,4.33c1.71,2.87,4.92,3.42,8,3.46s3.22-5,0-5Z" style="fill:#1c1b38"/><path d="M110.65,122.22a22,22,0,0,1-3.47,2c-1.19.52-2.45.78-3.67,1.2-3.43,1.18-4,4.25-3.5,7.49.21,1.34.61,2.63.83,4s.29,2.88.4,4.32l.34,4.37a20.62,20.62,0,0,1,.27,4.63,1.94,1.94,0,0,1-.17.49c.34-.49.15.2,0-.31-.11-.36-.46-.75-.61-1.11a23.82,23.82,0,0,1-.82-2.33,49.08,49.08,0,0,1-2-8.65c-.18-1.38-.29-2.78-.35-4.17-.08-1.6-.15-3.17-1.23-4.45a7.58,7.58,0,0,0-3-1.87c-.89-.4-.94-.73-1.1-1.75-.42-2.74-1.32-6.16-4.71-6.38a3.69,3.69,0,0,0-2.29.52c-.95.6-.94,1.35-1.46,2.14a1.08,1.08,0,0,1-.79.53,3.34,3.34,0,0,1-.95.1h-.7c-.56-.08-.63-.06-.21.07l1.15,1.49a10.56,10.56,0,0,1,.21-2.08c.08-.79.16-1.58.2-2.38a16.88,16.88,0,0,0-.43-4.86c-.77-3.13-5.6-1.8-4.82,1.33a17.12,17.12,0,0,1,.08,5.67c-.19,2-.65,4.84,1.92,5.56a9.7,9.7,0,0,0,5.57-.31,6.35,6.35,0,0,0,2.29-1.49A16.79,16.79,0,0,0,89,123.58l-.9.9.34-.18-1.26.34c1-.1,0,0,0-.14s0,.07,0,0c0,.23.3.75.35,1a20.17,20.17,0,0,0,.58,3.16,5.64,5.64,0,0,0,2.29,2.95c.69.43,2,.59,2.55,1.22-.28-.35-.07.47-.06.7,0,.62,0,1.24.1,1.86.1,1.47.27,2.92.48,4.37A52,52,0,0,0,95.36,148c.77,2.42,1.58,5.36,3.91,6.76a4.82,4.82,0,0,0,6.81-1.74c1.32-2.39.66-5.4.46-8-.22-2.88-.35-5.79-.75-8.65-.21-1.49-.65-2.93-.88-4.4-.09-.57,0-1.13-.09-1.69s.46,0-.22,0c.12,0,.62-.25.78-.29a26.57,26.57,0,0,0,7.79-3.51,2.58,2.58,0,0,0,.9-3.42,2.51,2.51,0,0,0-3.42-.9Z" style="fill:#1c1b38"/><path d="M74.42,109.9c1.4-.65,2.79-1.32,4.19-1.94l-.59.25a.72.72,0,0,1,.25-.07l-.67.09h.13l-.66-.09.11,0-.6-.25a.86.86,0,0,1,.2.13l-.51-.4A18.34,18.34,0,0,1,79,110.46l-.39-.51c.05.08.11.15.17.23a2.75,2.75,0,0,0,1.49,1.15,2.52,2.52,0,0,0,3.08-1.75,2.42,2.42,0,0,0-.26-1.93,23.61,23.61,0,0,0-1.93-2.31c-.85-.87-1.81-1.9-3.06-2.06s-2.51.61-3.65,1.14l-2.52,1.16A2.51,2.51,0,0,0,71,109a2.46,2.46,0,0,0,1.49,1.15,2.82,2.82,0,0,0,1.93-.25Z" style="fill:#1c1b38"/><path d="M71.43,101.8C73,104,74.77,107.56,78,107.47a4.49,4.49,0,0,0,3.32-1.67c.39-.46.71-1,1-1.45s.25-.4.66-.59l-1.27.34c-.26-.09-.27-.06,0,.07l.36.23c.3.19.61.37.92.54.69.37,1.42.68,2.14,1a16,16,0,0,0,4.34,1.14,4.93,4.93,0,0,0,4-1.27,6.81,6.81,0,0,0,1.16-1.56,7.24,7.24,0,0,1,.66-1.37l-1.11.64.28-.1H93.14c.57.12,2,1,2.84,1.38a19,19,0,0,0,3.31,1,5,5,0,0,0,3.49-.11,6.45,6.45,0,0,0,2-2.11,21.35,21.35,0,0,1,2.17-1.84c-.77-.22-1-.23-.6,0l.55.33,1.57,1c2,1.2,4,2.41,6.37,1.66,2.18-.69,2.83-2.55,3.4-4.54.11-.29.12-.35,0-.17.22-.37.14-.32-.26.15-.47.27-.8,0-.06.34A28.78,28.78,0,0,1,121,102c1.26.71,2.56,1.13,3.88.27a4.25,4.25,0,0,0,1.62-2.81c.39-1.62.53-3.5,1.86-4.66a2.5,2.5,0,0,0-3.54-3.54,8.58,8.58,0,0,0-2.39,3.87c-.37,1.1-.37,2.77-1,3.72l.9-.9-.28.17,1.27-.35-.37,0,1.26.34c-2.43-1.23-5.72-3.86-8.54-2.42a4.49,4.49,0,0,0-2.18,2.72c-.16.46-.25.93-.38,1.39-.26.88,0-.07.19.12,0,0-.78-.27-.88-.32-.64-.35-1.25-.76-1.87-1.14-1.3-.81-2.56-1.78-4.17-1.68A7.45,7.45,0,0,0,102.32,99a9.09,9.09,0,0,0-1.22,1.26,11.81,11.81,0,0,0-.74,1l-.22.32c-.25.36-.21.32.12-.11l1.26-.34a8.65,8.65,0,0,1-4-1c-1.53-.66-2.87-2-4.65-1.35a3.58,3.58,0,0,0-2,1.95,5.25,5.25,0,0,1-.77,1.51s.18,0,.19,0a2.91,2.91,0,0,1-1-.12,16.14,16.14,0,0,1-2.25-.67c-1.44-.54-2.68-1.71-4.14-2.12A4.11,4.11,0,0,0,78.62,101a7.66,7.66,0,0,0-1,1.44c.05-.1-.19,0,0,.09s.74-.28.55,0c0,0-2.19-3-2.38-3.22a2.57,2.57,0,0,0-3.42-.9,2.53,2.53,0,0,0-.9,3.42Z" style="fill:#1c1b38"/><path d="M124,100.65c-.76,1.08-2.39,1.32-3.58,1.53-1.76.31-3.53.59-5.29.91a51.47,51.47,0,0,1-10.95.74c-7.42-.21-14.82-1.33-22.24-.51a2.57,2.57,0,0,0-2.5,2.5,2.52,2.52,0,0,0,2.5,2.5c8-.89,16.08.51,24.13.55a65.33,65.33,0,0,0,12.07-1.27c3.85-.71,7.73-.95,10.18-4.43a2.5,2.5,0,1,0-4.32-2.52Z" style="fill:#1c1b38"/><path d="M106.33,105.27c5.14,1.87,10.55.24,15.31-1.91a2.51,2.51,0,0,0,.9-3.42,2.57,2.57,0,0,0-3.42-.9l-.91.4-.32.13c-.53.21-1.07.41-1.62.59a22.49,22.49,0,0,1-3.11.79c-.76.15.48,0-.29,0l-.83.07c-.52,0-1,0-1.56,0l-.61,0c.23,0-.52-.09-.61-.11a10.86,10.86,0,0,1-1.6-.46,2.52,2.52,0,0,0-3.08,1.75,2.57,2.57,0,0,0,1.75,3.07Z" style="fill:#1c1b38"/><path d="M76.63,95.81a8.91,8.91,0,0,1,3.1,1.1c1.25.72,3.44.14,3.68-1.5.11-.76-.08.09-.11.1.35-.08.73-.23,1.08-.32,1.07-.28,2.14-.54,3.22-.79a11.93,11.93,0,0,1,2.86-.59c.91,0,1.65.59,2.63.53,1.92-.11,3.22-1.78,4.9-2.51s3.52-.64,5.42-.74a7.11,7.11,0,0,0,3.24-.94,7.33,7.33,0,0,1,2.1-1.12,20.27,20.27,0,0,1,5.87,0c2.2.18,4,.56,6-.65,1.41-.86,3-1.8,4.65-1.28,3.08,1,4.4-3.87,1.33-4.82a9.46,9.46,0,0,0-7,1c-.38.19-.74.4-1.1.61l-.64.4c-.38.19-.38.22,0,.1a21.44,21.44,0,0,1-3.64-.34,20.34,20.34,0,0,0-6.92.21,10.05,10.05,0,0,0-2.75,1.35,4.47,4.47,0,0,1-2.8.47,14.44,14.44,0,0,0-6.57,1.62c-.26.13-2.64,1.73-2.64,1.74.71,0,.78,0,.21-.17l-.37-.15a6,6,0,0,0-1.83-.31c-2.29,0-4.75.88-6.95,1.44s-4.58,1.41-4.92,3.83l3.67-1.49A12.86,12.86,0,0,0,78,91a2.56,2.56,0,0,0-3.08,1.74,2.53,2.53,0,0,0,1.75,3.08Z" style="fill:#1c1b38"/><path d="M94.89,135a68.06,68.06,0,0,0-8.42-6c-2.52-1.5-4.88,1.86-3,3.93,1.21,1.36.88,3.57-.12,5-1.33,1.86-3.69,2.62-5.85,3L80.55,144a15.34,15.34,0,0,0,0-11.55,11.32,11.32,0,0,0-7.28-6.35,2.52,2.52,0,0,0-2.82,3.67c1.33,2.18,3.83,5.91,1.36,8.18h3.53A124.8,124.8,0,0,0,64.64,128a2.52,2.52,0,0,0-3.28-.19,2.48,2.48,0,0,0-.64,3.22c3.44,4.77,2.61,11.47,2.41,17-.12,3.39-.32,6.8-.77,10.17-.42,3.13-.86,6.6-2.56,9.33l3.93-.51c-.69-.79-.46-2.37-.46-3.32a27.8,27.8,0,0,0-.49-5.06c-.64-3.51-1.28-7-1.67-10.56-.81-7.3-1-14.64-1.25-22a2.52,2.52,0,0,0-4.66-1.26,87.43,87.43,0,0,0-5.51,11.51c-.77,2-1.47,3.93-2.08,5.93-.31,1-.6,2-.86,3a12,12,0,0,1-.66,2.64l.9-.9-.26.17,1.26-.34-.29,0,1.26.34-.25-.18.9.9a14.59,14.59,0,0,1-1.63-3.8,27.83,27.83,0,0,1-1.25-4.39,22.09,22.09,0,0,1,.3-8.14c1.13-5.81,3.24-11.41,3.46-17.38.09-2.35-2.71-3-4.26-1.77A13.07,13.07,0,0,1,36,115.23,2.57,2.57,0,0,0,33,117a2.52,2.52,0,0,0,1.74,3.08,18.55,18.55,0,0,0,15.07-4l-4.27-1.77c-.32,8.58-4.92,16.57-3.82,25.28a28.41,28.41,0,0,0,1.73,6.6c.71,1.88,1.41,5.07,3.63,5.68a3.08,3.08,0,0,0,3.38-1.3,12,12,0,0,0,1-3.39c.55-2.11,1.18-4.18,1.89-6.24a78.81,78.81,0,0,1,6.18-13.47l-4.66-1.26c.24,7.82.48,15.65,1.41,23.42.47,3.89,1.38,7.71,1.88,11.59.43,3.36-.39,6.65,2,9.44a2.53,2.53,0,0,0,3.93-.51c2-3.14,2.55-6.92,3.06-10.52a108,108,0,0,0,.95-11.5c.23-6.44.89-14-3.09-19.53l-3.93,3a121.65,121.65,0,0,1,10.67,9.89,2.54,2.54,0,0,0,3.53,0,8.19,8.19,0,0,0,2.45-6.7c-.25-2.78-1.59-5.21-3-7.55l-2.82,3.68c5.2,1.41,5.37,7.58,3.82,11.75-.74,2,1.39,3.34,3.07,3.08,3.64-.57,7.38-2.51,9.2-5.85a9.1,9.1,0,0,0-1-10.44l-3,3.93a59.92,59.92,0,0,1,7.42,5.21,2.56,2.56,0,0,0,3.53,0,2.5,2.5,0,0,0,0-3.53Z" style="fill:#1c1b38"/><path d="M47.69,108.86a45,45,0,0,1-20.48-.66l-.67,4.91a18.59,18.59,0,0,0,16-10.54A2.55,2.55,0,0,0,41,98.89c-4.08-1.11-8.25-.25-12.12,1.21-3.62,1.37-7.21,3.32-11.12,3.63l.66,4.91c4.51-1.21,8.19-4.18,11.53-7.32a37,37,0,0,0,7.9-11.49A23,23,0,0,0,40.07,83c.36-2.6.36-5.24.56-7.86.4-5.13,1-10.25,1.56-15.37.2-2-2.26-3-3.77-2.16l-5,2.85c-2.79,1.6-.28,5.92,2.53,4.32l5-2.85-3.76-2.16c-.49,4.63-1,9.26-1.43,13.9-.4,4.49-.08,9.08-2,13.26C31.92,90.77,30,94.35,26.9,97.33c-2.83,2.72-5.93,5.45-9.8,6.49-2.64.71-2.21,5.14.67,4.91,4-.32,7.52-1.83,11.19-3.31,3.37-1.36,7.07-2.7,10.72-1.7L38.18,100a13.64,13.64,0,0,1-11.64,8.07c-2.75.11-3.47,4.16-.66,4.91a50.68,50.68,0,0,0,23.14.66,2.5,2.5,0,1,0-1.33-4.82Z" style="fill:#1c1b38"/><path d="M37.22,62.67C46.84,56.32,50.12,45,55.37,35.4A34.14,34.14,0,0,1,65.78,23.24c4.83-3.35,10.26-5.67,15.55-8.17,6-2.83,11.93-6,16.55-10.85,2.24-2.34-1.15-5.68-3.53-3.53A192.84,192.84,0,0,0,78.63,16.55a2.52,2.52,0,0,0-.2,3.28,2.48,2.48,0,0,0,3.23.64c9.83-7.31,22-14.25,34.69-10.55V5.1a29.64,29.64,0,0,0-15.68,8.16,2.53,2.53,0,0,0,1.1,4.18,57,57,0,0,0,24.8,3.26l-2.5-2.5c.05,5,2.49,10.31,7.2,12.47a10.79,10.79,0,0,0,13.23-3.1,2.48,2.48,0,0,0-.65-3.23,2.54,2.54,0,0,0-3.28.2l-11.2,9.35a2.47,2.47,0,0,0-.19,3.28,2.53,2.53,0,0,0,3.22.64c4.16-2,8.55,1.62,11.37,4.29l1.76-4.27a17.49,17.49,0,0,0-8.5,2.72,2.54,2.54,0,0,0,0,4.31,20.73,20.73,0,0,0,16.23,3.81l-1.33-4.82a62,62,0,0,0-11.27,5c-2.32,1.33-1.06,4.42,1.26,4.66l9.58,1-.67-4.92a9.51,9.51,0,0,0-4.71,3.67A2.51,2.51,0,0,0,147,56.7a27.11,27.11,0,0,0,12.47,2.52l-.66-4.91a15,15,0,0,0-9.3,8.12A2.56,2.56,0,0,0,151,66.1l3.13,1.32-.59-4.57c-5.23,2.85-5.24,10.84-.38,14,2.71,1.76,5.22-2.57,2.53-4.31-1.7-1.11-1.53-4.33.37-5.37,2.09-1.14,1.24-3.8-.6-4.57l-3.13-1.32,1.5,3.68a10.18,10.18,0,0,1,6.31-5.83c2.6-.81,2.25-5-.67-4.91a21.61,21.61,0,0,1-9.94-1.84l.89,3.42a3.71,3.71,0,0,1,1.73-1.37,2.51,2.51,0,0,0-.66-4.91l-9.58-1,1.27,4.66a55.07,55.07,0,0,1,10.07-4.5,2.5,2.5,0,0,0-1.33-4.82,15.93,15.93,0,0,1-12.37-3.3v4.31a12.39,12.39,0,0,1,6-2c2.07-.12,3.43-2.69,1.77-4.26-4.69-4.45-10.94-8.22-17.42-5.08l3,3.93,11.2-9.35-3.93-3c-1.54,2-4.92,2.16-7,1-2.79-1.55-4.09-4.79-4.12-7.86a2.51,2.51,0,0,0-2.5-2.5,53.57,53.57,0,0,1-23.47-3.08l1.1,4.17a25.1,25.1,0,0,1,13.48-6.87c2.54-.44,2.21-4.17,0-4.82-14-4.08-27.6,2.91-38.54,11l3,3.93A196.05,196.05,0,0,1,97.88,4.22L94.35.69c-8,8.43-20,11.13-29.59,17.23A38.24,38.24,0,0,0,52.6,30.2c-2.85,4.62-4.93,9.66-7.34,14.52C42.68,49.89,39.63,55.1,34.7,58.35c-2.68,1.77-.17,6.1,2.52,4.32Z" style="fill:#1c1b38"/><path d="M56.72,55.58l6.07.48c2.15.18,4-.74,4-3.14,0-1.49-.3-2.18,1.19-2.85s3.37-.9,5-1.48a37,37,0,0,0,9.61-5.1c2.94-2.17,5.7-5.16,5.35-9.1L84.8,36.8a12.17,12.17,0,0,0,4.78.79,2.53,2.53,0,0,0,1.77-4.27c-1.68-1.8-4-2.57-6.08-3.8A7.6,7.6,0,0,1,81.75,25c-.62-2.2-4.42-2.56-4.82,0a18,18,0,0,1-4,8.11,12.17,12.17,0,0,1-7,4.37,35.57,35.57,0,0,1-4.1.74c-1.86.25-3.12.57-3.87,2.46a30.4,30.4,0,0,1-4.47,8,2.56,2.56,0,0,0,0,3.53,2.5,2.5,0,0,0,3.53,0,34,34,0,0,0,3.45-5q.69-1.24,1.26-2.55c.21-.47.4-.94.59-1.41.11-.27.21-.54.32-.82.15-.48.18-.55.1-.19l-.89.9c-.38.19-.51.13,0,.09.27,0,.54-.07.8-.1.69-.09,1.38-.19,2.06-.3a31,31,0,0,0,3.15-.68,17.16,17.16,0,0,0,6.38-3.21A22.87,22.87,0,0,0,78.9,33.3a18.5,18.5,0,0,0,2.85-7H76.93a12.62,12.62,0,0,0,4.24,6.44c2,1.59,4.89,2.23,6.64,4.11l1.77-4.27A8.47,8.47,0,0,1,86.13,32,2.51,2.51,0,0,0,83,34.39c.21,2.34-1.63,3.9-3.38,5.15a32.76,32.76,0,0,1-7.09,3.93c-2.46,1-5.37,1.19-7.61,2.62a6.87,6.87,0,0,0-2.51,2.65,6.38,6.38,0,0,0-.63,2.43,8.42,8.42,0,0,0,0,.87c0,.07,0,1.13.11.71l.64-1.11-.2.17,1.11-.65c.27-.07.15-.1-.37-.08l-1-.07-1.7-.14-3.64-.29a2.53,2.53,0,0,0-2.5,2.5,2.55,2.55,0,0,0,2.5,2.5Z" style="fill:#1c1b38"/><path d="M92.69,25.59l-.31,6.27a2.51,2.51,0,0,0,2.5,2.5,2.55,2.55,0,0,0,2.5-2.5l.31-6.27a2.51,2.51,0,0,0-2.5-2.5,2.55,2.55,0,0,0-2.5,2.5Z" style="fill:#1c1b38"/><path d="M82.12,24.63l.48.61-.39-.51a34.83,34.83,0,0,1,2.42,3.6,2.52,2.52,0,0,0,1.49,1.15,2.5,2.5,0,0,0,3.08-1.74,2.6,2.6,0,0,0-.26-1.93,37.39,37.39,0,0,0-3.28-4.71,1.85,1.85,0,0,0-.81-.52,1.88,1.88,0,0,0-1-.22,2.54,2.54,0,0,0-1.77.74,2.48,2.48,0,0,0-.73,1.76l.09.67a2.5,2.5,0,0,0,.64,1.1Z" style="fill:#1c1b38"/><path d="M104,21.8a49.32,49.32,0,0,0-3.8,10c-.51,2,1.82,4.16,3.67,2.83A6.34,6.34,0,0,1,107,33a5.52,5.52,0,0,1,3.09.8c2.14,1.23,2.86,3.44,4,5.5a2.51,2.51,0,0,0,3.92.5c.69-.71,1.85-.26,2.67.21,1.57.9,2.87,2.19,4.51,3s4.17,1.48,5.92.4c2.1-1.3,1.05-4,.25-5.7-.64-1.42-1.59-2.72-2.12-4.19s-.59-3.34-1.85-4.66c-2.64-2.8-7.76-1.95-10.82-.46l3.68,1.49c-1-6.17-6.87-9.74-12.55-10.83a2.55,2.55,0,0,0-3.07,1.74,2.52,2.52,0,0,0,1.74,3.08c4.11.79,8.34,2.79,9,7.34.27,1.72,2.39,2.12,3.68,1.5a6.56,6.56,0,0,1,3.6-.63,5.51,5.51,0,0,1,1.12.26s-.25-.46-.08-.07a9,9,0,0,1,.38,1.49,16.26,16.26,0,0,0,1.73,4.18c.48.88,1.57,2.42,1.49,3.3l1.24-2.16c.51-.25-.53-.26-.87-.4a8.57,8.57,0,0,1-1.79-1.07,23.21,23.21,0,0,0-3.63-2.35c-2.59-1.15-5.74-1.12-7.81,1l3.93.5a30.24,30.24,0,0,0-2.58-4.53,10.94,10.94,0,0,0-3.85-3.1A10.7,10.7,0,0,0,106.77,28a10.23,10.23,0,0,0-5.41,2.23L105,33.08a42.86,42.86,0,0,1,3.3-8.76c1.45-2.86-2.86-5.4-4.32-2.52Z" style="fill:#1c1b38"/><path d="M95.06,61.34a67.83,67.83,0,0,0,.8,15.13,2.51,2.51,0,0,0,3.08,1.74,2.56,2.56,0,0,0,1.74-3.07c-.21-1.29-.29-1.92-.42-3.21s-.21-2.32-.26-3.48a64.87,64.87,0,0,1,.06-7.11,2.53,2.53,0,0,0-2.5-2.5,2.57,2.57,0,0,0-2.5,2.5Z" style="fill:#1c1b38"/><path d="M93.63,71.75l9.75-.51a2.5,2.5,0,0,0,0-5l-9.75.51a2.5,2.5,0,0,0,0,5Z" style="fill:#1c1b38"/><path d="M107.15,54.29a16.1,16.1,0,0,0,6.56,17.23c2.69,1.84,6,2.67,9,3.88,3.22,1.3,6.5,2.57,10,2.34,1.91-.12,3.62-2.81,1.77-4.27a7.41,7.41,0,0,0-1-.83c-.33-.17-.1-.31-.24.08.2-.58,1.19-1.1,1.69-1.34a6.44,6.44,0,0,1,4.47-.31,3.22,3.22,0,0,0,3.19-.94c.92-1,.85-2.36.79-3.64a22.37,22.37,0,0,0-1-6.19c-1.48-4.33-5-6.85-8.85-9a37.6,37.6,0,0,0-12.55-4.49,6.26,6.26,0,0,0-3.89.38A31.41,31.41,0,0,0,114.1,49a37.71,37.71,0,0,0-6.2,4.67l4.18,2.44c.81-2.17,3.38-3.11,5.42-3.63a3.85,3.85,0,0,1,3.31.33c1.27.77,2.53,1.55,3.82,2.29,4.29,2.41,9.49,5.05,10.74,10.25l1.75-3.07a28.44,28.44,0,0,0-7,3,13.69,13.69,0,0,0-2.54,2.07,12.09,12.09,0,0,0-1.11,1.37c-.15.2-.29.41-.42.62s-.47.7-.15.36L127,69l-.29.07H128c-.11,0-.6-.49-.68-.49s-.34,1,.1.63a3.38,3.38,0,0,0,.42-.66A14.44,14.44,0,0,1,130,66.29a25.63,25.63,0,0,1,5.42-3.56,2.52,2.52,0,0,0-.6-4.57A14.77,14.77,0,0,0,123,60.52a26.79,26.79,0,0,0-8,8,2.5,2.5,0,0,0,.65,3.22,2.55,2.55,0,0,0,3.28-.19c1.14-.9,2.69-.75,4-1.36,1.59-.76,2.41-2.22,3.28-3.67,1.56-2.62,4.16-5.77,2.73-9a3.46,3.46,0,0,0-4.1-2.17c-1.51.46-2.93,1.93-4.08,3s-2.28,2.23-3.39,3.38c-.87.91-1.9,2.41-3.07,2.91l1.27-.34.08,0,1.11.64c-.55-.55-.54-1.64-1-2.24-.25-.77-.39-.56-.42.64l.31-.26c.28-.17.54-.41.8-.6,1.35-.94,2.79-1.74,4.19-2.6a22.07,22.07,0,0,0,4.17-3,3.17,3.17,0,0,0-.59-5.16c-3.76-2.22-6.88.68-9.72,2.89s-6.89,4.64-5,9a2.51,2.51,0,0,0,3.42.89,2.56,2.56,0,0,0,.89-3.42c.26.59,0,.58.48.11a7.27,7.27,0,0,1,.85-.71c1-.77,1.95-1.52,2.93-2.28.79-.62,1.57-1.28,2.4-1.84A2.52,2.52,0,0,1,121,56c.5-.13.6.29.22-.33l-.34-1.26v.29l.34-1.26c-.5.86-2.25,1.67-3.13,2.21-1.29.78-2.6,1.52-3.85,2.36s-3,1.91-3.55,3.47c-.6,1.77.59,3.54,1.31,5.11.79,1.73,2.11,3.25,4.23,2.67,1.54-.43,2.71-1.91,3.77-3s2.1-2.2,3.19-3.27c.57-.55,1.15-1.1,1.75-1.61.37-.33,1.1-1.09,1.55-1.18H125.1l.25.08-1.1-.64c.36.29,0,.08,0-.09,0,.07.57-.53,0,.19a10.16,10.16,0,0,0-.66,1.32c-.77,1.29-1.53,2.59-2.31,3.87a2.46,2.46,0,0,1-.59.83,6.21,6.21,0,0,1-1.64.35,9.85,9.85,0,0,0-3.71,2l3.92,3a20.48,20.48,0,0,1,5.88-6c2.49-1.78,5.2-2.79,8.28-2.11l-.6-4.57a28.89,28.89,0,0,0-7.13,5c-2.22,2.22-4.68,5.48-2.15,8.42,1,1.13,2.57,2.25,4.12,2.09,1.76-.19,2.11-1.51,3-2.7,1.84-2.36,5-3.28,7.71-4.16A2.56,2.56,0,0,0,140.19,64c-1.75-7.29-8.7-10.67-14.61-14.15-1.52-.89-3-2.06-4.73-2.46a11.2,11.2,0,0,0-5.7.53c-3.56,1.13-6.55,3.25-7.89,6.84-.92,2.45,2.49,4.05,4.17,2.43A27.69,27.69,0,0,1,115.49,54c.75-.49,1.51-1,2.28-1.42a5.92,5.92,0,0,1,1.81-1,6.85,6.85,0,0,1,1.87.35c.79.16,1.57.36,2.34.58a32.21,32.21,0,0,1,4.74,1.78A37.4,37.4,0,0,1,133,56.74a13.27,13.27,0,0,1,3.63,2.9,9.18,9.18,0,0,1,1.54,3.91,15.67,15.67,0,0,1,.25,1.93,8.32,8.32,0,0,1,.09,2.22l.64-1.1-.21.24,1.11-.65c.62,0,.67,0,.14-.11l-.36-.08a12,12,0,0,0-1.58-.21,11.12,11.12,0,0,0-2.51.16,10.4,10.4,0,0,0-4.48,1.91,6.15,6.15,0,0,0-2.89,4.56c-.07,1.93,1.21,3.47,2.63,4.59l1.77-4.27c-2.78.18-5.34-.81-7.88-1.83a65.45,65.45,0,0,1-7.57-3.06A11,11,0,0,1,112,55.61c.76-3.12-4.06-4.45-4.82-1.32Z" style="fill:#1c1b38"/><path d="M132.83,79.84a19.84,19.84,0,0,0,5.43.43,6.11,6.11,0,0,0,1.06-.06c-.08.16-.9-.73-.79-.75s-.1,1.81-.13,2.14c-.17,1.8-.62,3.84.32,5.51a4.77,4.77,0,0,0,5.2,2.08,8.07,8.07,0,0,0,4.63-2.29,14.77,14.77,0,0,0,2.31-5,24.33,24.33,0,0,0,1.26-5.33,9.14,9.14,0,0,0-1.41-5.51c-2.07-3.58-5.06-6.86-9.58-6a2.5,2.5,0,1,0,1.33,4.82c.92-.16,2.08,1,2.71,1.83a9.17,9.17,0,0,1,2,3.86c.17,1.57-.59,3.42-1.08,4.88-.23.7-.48,1.4-.76,2.08-.22.53-.39,1.09-.73,1.25a7.32,7.32,0,0,1-1.22.42c-.08,0-.79.34-.51.19l-.27-.07a.8.8,0,0,1,.58.62c-.16-.12,0-.48,0-.78a31.3,31.3,0,0,0,.34-5,4.19,4.19,0,0,0-4.18-3.91,28.71,28.71,0,0,1-5.16-.19,2.56,2.56,0,0,0-3.07,1.75,2.51,2.51,0,0,0,1.74,3.07Z" style="fill:#1c1b38"/><path d="M149.39,82.17c5.4,5.43,12.93,7.25,19.44,10.87l1.93-4.56A55.6,55.6,0,0,0,151.07,87a2.53,2.53,0,0,0-2.15,3.76A15.88,15.88,0,0,0,159.51,98c5.41,1.16,10.9,0,16.18-1.2L174.36,92c-3.6,1.07-6.77,3-10.09,4.74-3,1.54-6.46,2.83-9.86,1.86l-1.33,4.82c4.28,1.14,5.25,6.25,5.84,10L163.1,111c-4.31-4.89-14-11.1-20-5.19a2.53,2.53,0,0,0,.51,3.93c5,3,12.11,8.08,9.46,14.91l4.57-.59a43.13,43.13,0,0,0-2.5-3.52,12.64,12.64,0,0,0-2.83-3.05,3.65,3.65,0,0,0-4,.05,7.57,7.57,0,0,0-2.08,2.82,7.87,7.87,0,0,1-9.18,3.3c-2.26-.76-3.66,1.85-2.82,3.67l3.22,7,2.83-3.67a15.17,15.17,0,0,1-5.51-2.92c-1.84-1.55-4.85-.12-4.18,2.44.29,1.09.79,3.47-.61,4.1-1.25.56.11-1.34.36-1.82a7.82,7.82,0,0,0,1.21-3.12,3.54,3.54,0,0,0-1.89-3.11,12.87,12.87,0,0,0-6.39-1.71c-3.22-.06-3.22,4.94,0,5a8.53,8.53,0,0,1,2.19.32,6.68,6.68,0,0,1,1,.33l.37.18q.68.44.09-.06l-.34-1.26c.2-.48.17-.45-.08.07l-.42.83c-.28.53-.56,1.06-.82,1.6a5.89,5.89,0,0,0-.69,3.74,5.29,5.29,0,0,0,4.81,4.06,6.14,6.14,0,0,0,5.54-3.14c1.33-2.23,1.18-4.92.54-7.34l-4.17,2.43a21.11,21.11,0,0,0,7.71,4.2c2.26.67,3.69-1.8,2.82-3.67l-3.22-7-2.83,3.67a12.8,12.8,0,0,0,11.49-1.95A13.27,13.27,0,0,0,151,122a3.35,3.35,0,0,0,.32-.57l-1.74.23.27.29c.18.52,1,1.13,1.33,1.58a33.31,33.31,0,0,1,2.14,3,2.54,2.54,0,0,0,4.57-.6c1.54-4,.52-8.63-1.82-12.08-2.49-3.69-6.19-6.21-9.94-8.48l.51,3.93c1.49-1.5,4.08-.81,5.81-.08a20,20,0,0,1,7.07,5.26,2.51,2.51,0,0,0,3,.39,2.6,2.6,0,0,0,1.15-2.82c-.89-5.65-3.2-11.85-9.33-13.48-3.11-.82-4.42,3.94-1.33,4.82,4.14,1.18,8.31.14,12.13-1.59,3.53-1.61,6.74-3.9,10.48-5,3.09-.92,1.81-5.54-1.33-4.82-6.74,1.55-16.9,3.57-21.13-3.8L151.07,92a51.61,51.61,0,0,1,18.36,1.35c2.7.7,4.45-3.17,1.92-4.57-6.07-3.38-13.4-5-18.42-10.09-2.27-2.29-5.81,1.25-3.54,3.53Z" style="fill:#1c1b38"/><path d="M105.58,139.32a14.39,14.39,0,0,0,6.15-2,14.84,14.84,0,0,0,4.77-3.61,2.67,2.67,0,0,0,.74-1.77,2.51,2.51,0,0,0-4.27-1.76c-.28.33-.57.65-.88.95l-.47.44-.25.21c.29-.22.33-.26.11-.1a20.56,20.56,0,0,1-2.12,1.24l-1.17.59-.45.22-.3.13.14-.06c0,.11-1.1.38-1.23.41s-.53,0-.63.13c.4,0,.46-.07.18,0h-.32a2.5,2.5,0,1,0,0,5Z" style="fill:#1c1b38"/><path d="M94.85,115.14c.46.68.94,1.35,1.46,2a10.17,10.17,0,0,0,1.79,1.68c1.05.79,2.28,1.28,3.32,2.08l-.51-.39a9.93,9.93,0,0,1,1,.86,2.53,2.53,0,0,0,3,.39,2.56,2.56,0,0,0,1.15-2.82,20.44,20.44,0,0,1-.54-2.44l.09.67a7.83,7.83,0,0,1,0-1.81l-.09.67a5.45,5.45,0,0,1,.34-1.32l-.25.6a4.64,4.64,0,0,1,.43-.79,2.52,2.52,0,0,0,.25-1.92,2.58,2.58,0,0,0-1.15-1.5,2.55,2.55,0,0,0-1.93-.25A2.79,2.79,0,0,0,101.7,112c-1.69,2.46-1.19,5.57-.46,8.27l4.18-2.43a12.5,12.5,0,0,0-2.5-2,25.28,25.28,0,0,1-2.29-1.38l.5.39a8.4,8.4,0,0,1-1.46-1.52l.39.51q-.47-.62-.9-1.26a2.67,2.67,0,0,0-1.49-1.15,2.5,2.5,0,0,0-2.82,3.68Z" style="fill:#1c1b38"/><path d="M156.11,79.4c2,.16,3.92.27,5.88.3a34.63,34.63,0,0,0,5.58-.13c4.4-.65,2.86-7.35,2.27-10.28-.64-3.12-.86-6.46-1.94-9.47-1.26-3.5-3.71-5.66-6.7-7.72a2.52,2.52,0,0,0-3.42.9,2.55,2.55,0,0,0,.89,3.42,12.08,12.08,0,0,1,3.74,3.37,13.41,13.41,0,0,1,1.51,4.75c.33,1.89.62,3.77,1,5.65.2.92.4,1.86.51,2.8a12.68,12.68,0,0,1,.09,1.74c0,.18-.17,1.23,0,.92l.89-.89c.71-.12.75-.15.11-.1h-.46c-.45,0-.9,0-1.36,0-1,0-2,0-2.94,0-1.89,0-3.78-.14-5.66-.29a2.52,2.52,0,0,0-2.5,2.5,2.55,2.55,0,0,0,2.5,2.5Z" style="fill:#1c1b38"/><path d="M166.41,88a52.12,52.12,0,0,0,7.12-1.3L170.45,85a7.72,7.72,0,0,0,4.92,5.19,4.47,4.47,0,0,0,4-.7,4.74,4.74,0,0,0,1.58-3.8l-4.91.66c1,4.35,7.62,7.46,11,3.85a5.94,5.94,0,0,0,.93-6.7,7.69,7.69,0,0,0-5.48-4v4.82A6,6,0,0,0,186.48,80a8.11,8.11,0,0,0-.37-5.82,8.46,8.46,0,0,0-4.37-3.5,7,7,0,0,0-5.69.15,2.52,2.52,0,0,0-.9,3.42,2.56,2.56,0,0,0,3.42.89c-.2.09.42,0,.2,0a3.69,3.69,0,0,0,.4,0,4.06,4.06,0,0,1,1,.26,4.27,4.27,0,0,1,1.62,1.2c.12.18.12.2.09.5s0,.79-.07,1.11a5.58,5.58,0,0,1-.31,1s-.25.33-.13.19-.31.14-.12.08c-2.21.7-2.55,4.3,0,4.82a3.31,3.31,0,0,1,2.2,1.15,1.6,1.6,0,0,1,.27.84.63.63,0,0,1-.13.36c-.11.14-.09.15-.24.15a2.4,2.4,0,0,1-1-.36,3.5,3.5,0,0,1-.91-.64,1.5,1.5,0,0,1-.46-.79c-.65-2.82-4.8-2.08-4.91.67a2.08,2.08,0,0,0,0,.33c-.09.25,0,.19.18-.18a.5.5,0,0,1,.42-.38c.31-.27.27.13,0-.14.14.12-.27-.19-.32-.23a3,3,0,0,1-1-1.42,2.53,2.53,0,0,0-3.07-1.75A42.27,42.27,0,0,1,166.41,83a2.57,2.57,0,0,0-2.5,2.5,2.52,2.52,0,0,0,2.5,2.5Z" style="fill:#1c1b38"/><path d="M179.36,70.17a44.82,44.82,0,0,0-7.87-25.45,129.6,129.6,0,0,0-8.68-11.12,81.94,81.94,0,0,0-9.61-9.66c-4-3.39-8.37-6.4-12.7-9.39l.89,3.42a17.79,17.79,0,0,0,2-5.64c.32-2,.52-4.1-1.05-5.64-2.68-2.63-7.31-1.79-9.8.61l4.18,1.1c-1.46-3.75-5.71-3.91-8.51-1.52-2.52,2.14-4.62,5.63-4.36,9a2.57,2.57,0,0,0,2.5,2.5,2.52,2.52,0,0,0,2.5-2.5,5.8,5.8,0,0,1,1.57-4.12,6.33,6.33,0,0,1,1.42-1.41c.56-.36.31,0,.05-.64A2.54,2.54,0,0,0,136,10.84a2.58,2.58,0,0,1,1.34-.73,9.25,9.25,0,0,1,1.07.05.6.6,0,0,1,.39.14c-.15-.45-.22-.58-.23-.38a10.73,10.73,0,0,1-.39,2.61,12.86,12.86,0,0,1-1.15,2.92,2.57,2.57,0,0,0,.9,3.42c7.15,4.93,14,10,19.78,16.52,5.56,6.24,11.39,13.1,14.25,21.06a39.88,39.88,0,0,1,2.36,13.72c0,3.22,5,3.22,5,0Z" style="fill:#1c1b38"/><path d="M162.08,51a84.68,84.68,0,0,1-10.23-10.6A109.72,109.72,0,0,1,144,27.79c-1.58-2.8-5.9-.28-4.31,2.53a110.45,110.45,0,0,0,8.13,12.93,91,91,0,0,0,10.76,11.27c2.36,2.18,5.9-1.35,3.53-3.54Z" style="fill:#1c1b38"/><path d="M138.73,33.58c1.36,1.61,2.84,3.17,4.08,4.88a9.4,9.4,0,0,1,1.34,2.37,4.78,4.78,0,0,1,.3,1.24,5,5,0,0,0,0,.55c.14.5-.68.2.59-.39L147,42l-.19-.08-1.33,4.82a13.18,13.18,0,0,1,8.27,7.59l2.42-3.17a3.14,3.14,0,0,1-.44-.36c-2.2-2.35-5.73,1.19-3.53,3.54a6,6,0,0,0,4,1.82A2.51,2.51,0,0,0,158.54,53,18.52,18.52,0,0,0,146.77,41.9a2.53,2.53,0,0,0-3.07,1.75,2.56,2.56,0,0,0,1.74,3.07c2.4,1,3.79-1.66,4-3.57a9.85,9.85,0,0,0-1-4.92c-1.38-3.09-4-5.63-6.2-8.18a2.51,2.51,0,0,0-3.53,0,2.54,2.54,0,0,0,0,3.53Z" style="fill:#1c1b38"/><path d="M31.38,91l-5.65,0H23a5.22,5.22,0,0,0-1.48,0c-.51.24-.21-.72.45.51l.34,1.26c-.1-.87.9-2.45,1.26-3.29.55-1.29,1.11-2.57,1.69-3.84,1.16-2.55,2.38-5.08,3.66-7.57q3.82-7.49,8.31-14.59c1.72-2.73-2.6-5.25-4.32-2.53A186.76,186.76,0,0,0,20.88,83.34c-.89,2-1.75,4-2.58,6s-1.76,4.29.35,5.89c1.61,1.22,4,.84,5.85.83l6.88,0c3.21,0,3.22-5,0-5Z" style="fill:#1c1b38"/><path d="M24.79,98.41a27.1,27.1,0,0,0-9.23-.85,2.54,2.54,0,0,0-2.41,3.16,2.28,2.28,0,0,1-.6,1.94c-.26.29-.56.33-.84.54.08-.06-.27.08-.27.06-.09.35.88.29.35,1.21L7.47,102c-.46,1-1.63,1.56-2.31.46s.41-1.91,1.45-1.85A2.51,2.51,0,0,0,8.76,96.8c-.9-1.55-2.46-4-1.46-5.81.79-1.46,3-1.15,4.33-.84a2.53,2.53,0,0,0,3.16-2.41c.44-17.49,10.71-33.15,24.53-43.29a85.09,85.09,0,0,1,12.62-7.61c2.88-1.43.35-5.74-2.53-4.32-16.6,8.21-30.86,21.72-36.86,39.57A53.47,53.47,0,0,0,9.79,87.74L13,85.33c-3.52-.82-7.64-.47-9.78,2.82C.84,91.75,2.5,96,4.45,99.33l2.16-3.77a6.27,6.27,0,0,0-5.68,9.49,6.27,6.27,0,0,0,10.86-.58c1.36-2.87-2.69-5.36-4.32-2.52a4.13,4.13,0,0,0,.9,5.21,5.21,5.21,0,0,0,5.45.58A7.34,7.34,0,0,0,18,99.39l-2.41,3.17a22.6,22.6,0,0,1,7.9.67c3.12.83,4.44-4,1.33-4.82Z" style="fill:#1c1b38"/><path d="M65.38,56.92a22.88,22.88,0,0,1,2.68,1.53c.27.19,0,0-.12-.1.08.09.21.17.3.26a5.9,5.9,0,0,1,.51.49s.36.44.11.11,0,.09.08.13a5.7,5.7,0,0,1,.37.69l2.83-3.67a7.59,7.59,0,0,0-4.25,0,9.27,9.27,0,0,0-3.3,2.39,39.48,39.48,0,0,0-4.9,5.59,2.52,2.52,0,0,0,.9,3.42,2.57,2.57,0,0,0,3.42-.9l.45-.63,0,0,.24-.3c.32-.4.66-.79,1-1.18.65-.72,1.34-1.41,2-2.09L68.8,61.6l.38-.36c.21-.17.17-.15-.11.07l.28-.19c.24-.12.2-.11-.13,0a2.35,2.35,0,0,1,.35-.11c.28,0,.24,0-.12,0l.36,0,.37,0c.29,0,.25,0-.1,0a2.44,2.44,0,0,1,.73.15,2.51,2.51,0,0,0,2.62-.9,2.55,2.55,0,0,0,.2-2.77c-1.09-2.38-3.48-3.79-5.73-4.91a2.5,2.5,0,0,0-2.52,4.32Z" style="fill:#1c1b38"/><path d="M51.38,72.37a16.94,16.94,0,0,0,4.34-4.47,9.3,9.3,0,0,0,2.14-6.06l-4.27,1.77a38,38,0,0,0,4.95,4.18A2.51,2.51,0,0,0,62,66.9a2.57,2.57,0,0,0-.9-3.42l-.57-.42-.28-.22c.27.22.3.24.08.07s-.73-.59-1.09-.9c-.72-.62-1.41-1.26-2.07-1.94a2.52,2.52,0,0,0-2.74-.51,2.46,2.46,0,0,0-1.53,2.28c0,.23,0,.46,0,.69,0,.53.12-.47,0,0-.06.22-.11.44-.18.66s-.07.22-.11.33l.12-.28a4.05,4.05,0,0,1-.56,1.07c-.12.19-.25.38-.38.57s-.45.63-.21.3-.19.23-.24.28-.25.32-.38.47l-.73.87c-.25.28-.51.56-.78.81L49,68c.3-.23.34-.27.12-.11a1.78,1.78,0,0,1-.27.17,2.5,2.5,0,0,0,2.53,4.32Z" style="fill:#1c1b38"/><path d="M75.35,55.12a16,16,0,0,1,3.05,1.7l-.5-.39a6.36,6.36,0,0,1,1.1,1.1L78.61,57a5.31,5.31,0,0,1,.65,1.1L79,57.53a3.83,3.83,0,0,1,.27,1l-.08-.66s0,.1,0,.16a2.73,2.73,0,0,0,.73,1.76,2.58,2.58,0,0,0,1.77.74,2.54,2.54,0,0,0,1.77-.74A2.4,2.4,0,0,0,84.21,58a7,7,0,0,0-.84-2.85,7.41,7.41,0,0,0-1.52-1.92,15,15,0,0,0-4-2.45A2.7,2.7,0,0,0,76,50.55a2.49,2.49,0,0,0-1.49,1.15,2.53,2.53,0,0,0-.26,1.92,2.46,2.46,0,0,0,1.15,1.5Z" style="fill:#1c1b38"/><path d="M109.84,41.41c-1.54,2-3.65,3.34-4.9,5.53a11.12,11.12,0,0,0-1.13,7.93,2.52,2.52,0,0,0,3.07,1.74,2.55,2.55,0,0,0,1.75-3.07c0-.12,0-.24-.07-.35-.08-.34,0,0,0,.13a5.51,5.51,0,0,0,0-.81c0-.24,0-.48,0-.72s0-.24,0-.36c0-.34-.1.47,0,.13a15.22,15.22,0,0,1,.4-1.47c.12-.36,0,0,0,.1a1.11,1.11,0,0,0,.15-.33,7.94,7.94,0,0,1,.4-.7,3.13,3.13,0,0,1,.2-.3s.28-.39.08-.12.06-.06.1-.11l.24-.28c.36-.39.74-.76,1.12-1.12A22.45,22.45,0,0,0,113.37,45a2.73,2.73,0,0,0,.73-1.77,2.53,2.53,0,0,0-.73-1.77c-.9-.83-2.67-1.1-3.53,0Z" style="fill:#1c1b38"/><path d="M97.38,162.15c0,.14.05.29.07.43l-.09-.67a8.88,8.88,0,0,1,0,2.06,2.45,2.45,0,0,0,1.54,2.29,2,2,0,0,0,1,.21l.67-.09a2.5,2.5,0,0,0,1.1-.64l.39-.51a2.43,2.43,0,0,0,.34-1.26,10.76,10.76,0,0,0-.19-3.15,1.83,1.83,0,0,0-.44-.85,2.26,2.26,0,0,0-1.63-.94,1.89,1.89,0,0,0-1,.05l-.6.25a2.53,2.53,0,0,0-.89.89l-.26.6a2.5,2.5,0,0,0,0,1.33Z" style="fill:#1c1b38"/><path d="M115.36,132.6a11,11,0,0,0-.17,1.81,10.65,10.65,0,0,0,.19,1.78,9.13,9.13,0,0,0,1,2.8,2.58,2.58,0,0,0,1.5,1.15,2.53,2.53,0,0,0,1.92-.26,2.46,2.46,0,0,0,1.15-1.49,2.7,2.7,0,0,0-.25-1.93c-.11-.2-.21-.41-.3-.62l.25.6a6.94,6.94,0,0,1-.5-1.85l.09.66a7.08,7.08,0,0,1,0-1.84l-.09.67a.77.77,0,0,0,0-.15,1.9,1.9,0,0,0,0-1,1.86,1.86,0,0,0-.3-.93,2.56,2.56,0,0,0-1.49-1.15,2.6,2.6,0,0,0-1.93.25,2.44,2.44,0,0,0-1.15,1.5Z" style="fill:#1c1b38"/><path d="M95,65c.79-.18,1.59-.33,2.39-.44l-.66.09a26.12,26.12,0,0,1,5-.18,2.51,2.51,0,0,0,2.5-2.5,2.55,2.55,0,0,0-2.5-2.5,28.37,28.37,0,0,0-8.06.71,2.51,2.51,0,0,0-1.74,3.07A2.54,2.54,0,0,0,95,65Z" style="fill:#1c1b38"/><path d="M94.93,57.07l-.06.62L95,57a9,9,0,0,1-.61,2.21l.26-.6-.12.26a1.85,1.85,0,0,0-.29.93,1.89,1.89,0,0,0,0,1,2.8,2.8,0,0,0,1.15,1.49,2.5,2.5,0,0,0,1.93.25l.59-.25a2.43,2.43,0,0,0,.9-.9,11,11,0,0,0,1.12-4.34,1.88,1.88,0,0,0-.22-1,2.3,2.3,0,0,0-1.32-1.32,1.88,1.88,0,0,0-1-.22,2.54,2.54,0,0,0-1.77.74l-.39.5a2.43,2.43,0,0,0-.34,1.26Z" style="fill:#1c1b38"/></g></g></svg>