<svg xmlns="http://www.w3.org/2000/svg" viewBox="0 0 120.89 155.24"><g id="Слой_2" data-name="Слой 2"><g id="Слой_7" data-name="Слой 7"><path d="M21.17,111a49.45,49.45,0,0,0,27.41,25,16.77,16.77,0,0,0,5,1.17,15.56,15.56,0,0,0,6-1.3c3.36-1.21,6.69-2.49,10-3.87a135.09,135.09,0,0,0,19.6-10c6.36-4,13.58-8.7,16.77-15.77a2.57,2.57,0,0,0-.89-3.42,2.52,2.52,0,0,0-3.42.89c-2.58,5.71-8,9.46-13.11,12.79a123.85,123.85,0,0,1-17.8,9.56q-4.5,2-9.1,3.71c-3,1.15-6.33,2.95-9.61,2.07a39.61,39.61,0,0,1-14.87-8.21,45.14,45.14,0,0,1-11.66-15.22,2.53,2.53,0,0,0-3.42-.9,2.56,2.56,0,0,0-.9,3.42Z" style="fill:#1c1b38"/><path d="M98.9,105.65a46.77,46.77,0,0,0,6.78.68c2.23,0,4.52,0,6.48-1.2,3.42-2.14,6.62-5.35,7.94-9.21,1.38-4,.75-8.48-.28-12.53-.51-2-.91-4.31-2.46-5.75s-4.33-1.37-6.42-1.34c-4.63.06-9.33,1.51-11.91,5.62-1.72,2.73,2.6,5.24,4.31,2.52,2-3.12,6.19-3.24,9.47-3.11a6.66,6.66,0,0,1,1.34.08c-.4-.11-.23-.38,0,.17.32,1,.57,1.94.83,2.92a24.65,24.65,0,0,1,1,5.84,10.9,10.9,0,0,1-.91,5,12.73,12.73,0,0,1-3.56,4.1,10.87,10.87,0,0,1-2.15,1.61,6.2,6.2,0,0,1-2.64.31,39.18,39.18,0,0,1-6.4-.51,2.56,2.56,0,0,0-3.07,1.74,2.52,2.52,0,0,0,1.74,3.08Z" style="fill:#1c1b38"/><path d="M104.25,92.27c.19-.3.39-.59.6-.88s-.21.25,0-.06l.3-.37a13.89,13.89,0,0,1,1.43-1.44l.3-.25.22-.16c.26-.18.52-.34.79-.5a10.2,10.2,0,0,1,.93-.48c-.24.11-.14.06,0,0l.55-.18c.3-.08.6-.14.9-.2s-.36,0,0,0c.19,0,.39,0,.58,0a6.29,6.29,0,0,1,2,.3c.77.21,1.51.49,2.26.76-.22-.07-.23-.11,0,0l.37.2c.57.32-.23-.17,0,0s-.16-.22-.2-.34a2.5,2.5,0,1,0,4.82-1.33c-.74-2.32-2.86-3.16-5-3.87a12.53,12.53,0,0,0-6.45-.54c-3.77.75-6.86,3.62-8.85,6.78a2.52,2.52,0,0,0,.89,3.42,2.55,2.55,0,0,0,3.42-.9Z" style="fill:#1c1b38"/><path d="M109.15,91.07a7.47,7.47,0,0,1,1.55.38l-.6-.25a4.23,4.23,0,0,1,.83.47l-.51-.39a3,3,0,0,1,.47.47l-.39-.51a2.83,2.83,0,0,1,.29.47l-.26-.6a3,3,0,0,1,.17.58l-.09-.67a3.32,3.32,0,0,1,0,.63l.09-.67a4.19,4.19,0,0,1-.27,1l.25-.6a6,6,0,0,1-.61,1l.39-.51A5.81,5.81,0,0,1,109.38,93l.51-.39a8,8,0,0,1-1.73,1l.6-.25c-.31.13-.62.24-.94.34a2.5,2.5,0,0,0,1.33,4.83,9.2,9.2,0,0,0,6-4.91,5.4,5.4,0,0,0,.5-2.44,4.9,4.9,0,0,0-1.19-2.94,6.34,6.34,0,0,0-4-2,2.7,2.7,0,0,0-1.93.25,2.48,2.48,0,0,0-.89,3.42,2.42,2.42,0,0,0,1.49,1.15Z" style="fill:#1c1b38"/><path d="M92.52,81.21q7.61.09,15.19-.47a2.5,2.5,0,0,0,0-5q-7.59.56-15.19.47a2.5,2.5,0,0,0,0,5Z" style="fill:#1c1b38"/><path d="M88.87,72.77a137.81,137.81,0,0,0,28,6.57,2.51,2.51,0,0,0,2.5-2.5,2.57,2.57,0,0,0-2.5-2.5A131.18,131.18,0,0,1,90.2,68a2.53,2.53,0,0,0-3.08,1.74,2.56,2.56,0,0,0,1.75,3.08Z" style="fill:#1c1b38"/><path d="M88.51,81.12c.52,2.94-.85,6.27-2.07,8.9A14.15,14.15,0,0,1,82,96c-2.4,1.64-5.91,2.06-8.75,2.15a15.85,15.85,0,0,1-8.25-2c-2.43-1.36-4.64-3.23-5.29-6a28.46,28.46,0,0,1-.06-9c.25-2.41.9-5,2.83-6.68,2.18-1.83,5.23-2.07,7.94-1.8a44.5,44.5,0,0,1,11.2,3c2.88,1.09,6.26,2.76,7.42,5.84a2.56,2.56,0,0,0,3.07,1.75,2.52,2.52,0,0,0,1.75-3.08,14.93,14.93,0,0,0-8-8.1,53.3,53.3,0,0,0-12.06-3.91c-4.14-.82-8.4-.92-12.27,1a12.4,12.4,0,0,0-6.38,8.51,37.13,37.13,0,0,0-.71,10.88A14.75,14.75,0,0,0,56,94.29a14,14,0,0,0,3.9,4.36A21.3,21.3,0,0,0,70.39,103a22.59,22.59,0,0,0,6-.17,25.23,25.23,0,0,0,6-1.4c3.71-1.51,6.34-4.66,8.1-8.17,2.06-4.12,3.72-8.79,2.9-13.43a2.5,2.5,0,1,0-4.82,1.33Z" style="fill:#1c1b38"/><path d="M89.93,67.38a63.73,63.73,0,0,0-12.76-3c-4.16-.55-8.59-.93-12.7.15-7.51,2-12,9.36-12.14,16.86A27.16,27.16,0,0,0,56,94.6c1.56,2.81,5.88.29,4.32-2.53-3.58-6.48-4.9-16.13,1.93-21.12,3.49-2.55,8.12-2.28,12.21-1.91A58,58,0,0,1,88.6,72.2a2.5,2.5,0,0,0,1.33-4.82Z" style="fill:#1c1b38"/><path d="M8,86.06a10.05,10.05,0,0,1,3.24-6,10.82,10.82,0,0,1,6.66-2.47c5.25-.41,11.55-.43,15.56,3.54a7.71,7.71,0,0,1,2.5,6,16.84,16.84,0,0,1-1,4.12,28,28,0,0,1-1.78,4.35c-1.1,2-2.71,4.07-5.05,4.73a11.47,11.47,0,0,1-4.09,0q-2.46-.24-4.89-.69a14,14,0,0,1-4.23-1.25,8.59,8.59,0,0,1-3-3.21,15.44,15.44,0,0,1-2.59-8.87c.18-3.22-4.82-3.21-5,0A19.8,19.8,0,0,0,7.16,97a13.65,13.65,0,0,0,8.16,6.92,37.56,37.56,0,0,0,5.26,1,36.15,36.15,0,0,0,6.14.57,11.94,11.94,0,0,0,9-4.71,28.5,28.5,0,0,0,4.77-10.49A12.52,12.52,0,0,0,39,80c-4.14-6.32-11.78-7.85-18.86-7.6-4.19.15-8.21.71-11.6,3.37A14.52,14.52,0,0,0,3.2,84.73,2.59,2.59,0,0,0,5,87.81,2.54,2.54,0,0,0,8,86.06Z" style="fill:#1c1b38"/><path d="M6.06,82.06a5,5,0,0,1-.16-5A5.65,5.65,0,0,1,9.8,74.4a43.35,43.35,0,0,1,6.91-1,74,74,0,0,1,7.59-.38c4.14.1,8.15,1.16,10.53,4.78s2.79,8,2.87,12.28c.06,3.21,5.06,3.23,5,0-.09-4.45-.56-8.92-2.52-13a15.37,15.37,0,0,0-9-8c-4.48-1.51-9.37-1.08-14-.71-4.32.35-9.55.42-13.11,3.22a10.05,10.05,0,0,0-2.34,13c1.62,2.78,5.94.27,4.32-2.52Z" style="fill:#1c1b38"/><path d="M39.77,81.45a18,18,0,0,1,6.69-.7l.79.06.53.06c-.19,0-.19,0,0,0,.57.09,1.13.2,1.69.34.26.06.53.13.79.21s.81.33.33.09l.57.31h0c.19.21.2.2,0,0a2.57,2.57,0,0,0,3.42.9,2.53,2.53,0,0,0,.9-3.42c-1.93-2.62-5.19-3.17-8.24-3.48a24,24,0,0,0-8.81.82,2.5,2.5,0,1,0,1.33,4.82Z" style="fill:#1c1b38"/><path d="M40.55,93.77l.83-.13c-.54.07.21,0,.39,0a15.92,15.92,0,0,1,1.69-.07c.57,0,1.12,0,1.69.09-.54-.05.17,0,.36.07s.6.14.9.22.52.18.78.27-.34-.18,0,0l.37.18c.24.13.48.27.71.42,0,0,.4.27.19.12s.14.12.18.15c.94.79,1.76,1.72,2.7,2.52A2.5,2.5,0,0,0,54.85,94c-1-.86-1.91-1.89-3-2.73a12.11,12.11,0,0,0-4.15-2.2A19,19,0,0,0,39.22,89,2.5,2.5,0,0,0,37.47,92a2.58,2.58,0,0,0,3.08,1.75Z" style="fill:#1c1b38"/><path d="M33.36,100.17c-.72,3.24,1.49,5.38,4,6.91a19.79,19.79,0,0,0,6.87,2.75c4.57.74,9.94-.8,12-5.34a2.57,2.57,0,0,0-.9-3.42,2.52,2.52,0,0,0-3.42.9,6.75,6.75,0,0,1-.56,1c-.22.34.2-.21-.07.1l-.35.37c-.16.15-.31.3-.48.44.2-.17,0,0-.12.07-.3.18-.59.35-.9.51l-.24.12c.15-.07.15-.07,0,0l-.5.17c-.34.1-.69.18-1,.25-.18,0-.18,0,0,0l-.26,0-.53,0a10.87,10.87,0,0,1-1.18,0,13.09,13.09,0,0,1-4.56-1.57,19.32,19.32,0,0,1-2.28-1.36,2,2,0,0,1-.63-.57c-.12-.16,0-.32-.07,0a2.5,2.5,0,0,0-4.82-1.33Z" style="fill:#1c1b38"/><path d="M39.21,115.8c13,1.94,25.2-3.34,36.23-9.77l-3.76-2.16c0,1.58.06,3.16.07,4.74A6.11,6.11,0,0,1,71,112.3c-1.4,2-4,3.41-6.25,4.29A29.76,29.76,0,0,1,47,117.74c-3.13-.74-4.46,4.08-1.33,4.82a34.68,34.68,0,0,0,21.73-1.72c3-1.3,6-3.23,7.84-6,2.07-3.19,1.45-7.36,1.4-11a2.53,2.53,0,0,0-3.76-2.16c-9.7,5.65-20.83,11-32.38,9.27a2.57,2.57,0,0,0-3.07,1.74,2.52,2.52,0,0,0,1.74,3.08Z" style="fill:#1c1b38"/><path d="M51.36,129.23a20.41,20.41,0,0,0,11.11-.78A2.73,2.73,0,0,0,64,127.3a2.6,2.6,0,0,0,.25-1.93,2.54,2.54,0,0,0-3.08-1.74,18.06,18.06,0,0,1-2.38.71c-.35.08-.69.14-1,.2l-.35,0c.37,0,.42,0,.14,0l-.53.05a19.79,19.79,0,0,1-2.31,0,4.66,4.66,0,0,1-1.24-.11l.23,0-.27,0-.7-.13a2.5,2.5,0,1,0-1.32,4.82Z" style="fill:#1c1b38"/><path d="M23.61,66.36c1.11-1,2.21-2,3.34-2.94.59-.52,1.2-1,1.8-1.53s.93-.75,1.27-1a17.47,17.47,0,0,1,3.34-2c.16-.08.15-.07,0,0l.48-.18c.32-.1.64-.2,1-.27l.5-.1h.09l.51,0c.53,0,.35,0-.55-.22l-.89-.89q-.16-.51-.06-.15c0,.14.08.28.11.43s.12.47.17.71c.1.51.17.89.21,1.22A19.24,19.24,0,0,1,35,62.61l4.66-1.26c-2-4.08-8.15-3.05-11.49-1.69a2.56,2.56,0,0,0-1.75,3.07c.38,1.17,1.78,2.28,3.08,1.75a15.13,15.13,0,0,1,2.28-.73,7.31,7.31,0,0,1,2-.26c.28,0,.56,0,.84,0s.18.06,0,0l.41.1c.26,0,.2.06,0,0,0,0,.56.3.26.11s.26.23,0-.05.09.17.12.26A2.53,2.53,0,0,0,38.12,65,2.59,2.59,0,0,0,40,62.61,19.49,19.49,0,0,0,39.83,59a11.59,11.59,0,0,0-1-4.15c-1.41-2.53-5.28-1.42-7.39-.53-4.37,1.84-7.91,5.44-11.4,8.56a2.5,2.5,0,0,0,0,3.53,2.55,2.55,0,0,0,3.53,0Z" style="fill:#1c1b38"/><path d="M63.32,61.4a48.06,48.06,0,0,0-.53-7.95l-3.07,3.07,11.15,2.87c1.73.45,3.47.87,5.19,1.38,1,.31,2.9.68,3.45,1.54l2.16-3.76a175.65,175.65,0,0,1-18.42-2.36,2.55,2.55,0,0,0-3.07,1.74A2.52,2.52,0,0,0,61.92,61a184.81,184.81,0,0,0,19.75,2.54,2.52,2.52,0,0,0,2.16-3.76c-2.11-3.33-6.9-4-10.41-4.9L61.05,51.7c-2-.52-3.34,1.24-3.08,3.08a40.7,40.7,0,0,1,.35,6.62c-.07,3.22,4.93,3.22,5,0Z" style="fill:#1c1b38"/><path d="M17.1,77.79a46.54,46.54,0,0,0,1.06,23.08c.94,3.07,5.77,1.76,4.82-1.33a41.22,41.22,0,0,1-1.06-20.42,2.55,2.55,0,0,0-1.75-3.07,2.52,2.52,0,0,0-3.07,1.74Z" style="fill:#1c1b38"/><path d="M9.3,86.06l1.17.15-.66-.09a44.29,44.29,0,0,1,7.7,1.77L18.17,83c-2.88,0-5.76,0-8.63-.1a2.53,2.53,0,0,0-2.41,1.84,3,3,0,0,0,0,1.33,2.43,2.43,0,0,0,1.15,1.49A18.63,18.63,0,0,0,13.06,89c1.67.26,3.35.39,5,.5A2.51,2.51,0,0,0,20.6,87a2.55,2.55,0,0,0-2.5-2.5c-1.33-.09-2.66-.17-4-.35l.67.09a21.63,21.63,0,0,1-2.27-.43c-.35-.09-.71-.19-1.06-.3l-.52-.19-.3-.11.16.07L9.54,87.88c2.87.11,5.75.15,8.63.1a2.5,2.5,0,0,0,.67-4.91,47.92,47.92,0,0,0-9.54-2,2.49,2.49,0,0,0-2.5,2.5,2.53,2.53,0,0,0,.73,1.77,2.89,2.89,0,0,0,1.77.73Z" style="fill:#1c1b38"/><path d="M95.15,82.76a26.41,26.41,0,0,0,1,6.73,2.53,2.53,0,0,0,2.08,1.8,2.38,2.38,0,0,0,1.29-.18,2.23,2.23,0,0,0,1.2-1,8.46,8.46,0,0,0,.52-1.46,11.39,11.39,0,0,0,.22-1.63c.06-.73.07-1.45.16-2.17l-.08.66c.09-.64.23-1.28.37-1.91L97.1,82.25a8,8,0,0,1-.44,1.44l.25-.6a7.76,7.76,0,0,1-1,1.69l.4-.5c-.39.5-.81,1-1.2,1.49a8.63,8.63,0,0,0-1.19,2.09,2.47,2.47,0,0,0,.25,1.93,2.57,2.57,0,0,0,1.19,1,2.41,2.41,0,0,0,1.63.13,2.46,2.46,0,0,0,1.5-1.15,11.21,11.21,0,0,0,.73-2.11c.15-.69.23-1.41.32-2.11.15-1.2.29-2.4.44-3.6a2.49,2.49,0,0,0-.74-1.77,2.5,2.5,0,0,0-3.53,0l-.39.51A2.43,2.43,0,0,0,95,82c-.16,1.28-.3,2.56-.47,3.84l.09-.67A10.48,10.48,0,0,1,94,87.75l.25-.6,0,.12,4.57,1.92,0-.1-.25.6a6.09,6.09,0,0,1,.7-1.15l-.39.51a27.08,27.08,0,0,0,1.91-2.5,10,10,0,0,0,1.17-3,2.65,2.65,0,0,0-.25-1.93,2.51,2.51,0,0,0-4.57.6,24.74,24.74,0,0,0-.51,3c-.08.78-.07,1.56-.18,2.34l.09-.67a5.89,5.89,0,0,1-.29,1.17l.25-.59,0,.11,4.57.6a25.64,25.64,0,0,1-.71-3.33l.09.66a25.07,25.07,0,0,1-.21-2.74,2.5,2.5,0,0,0-5,0Z" style="fill:#1c1b38"/><path d="M97.51,68.32c-.07-1.11.27-2.17.26-3.27a4.94,4.94,0,0,0-1.5-3.67A8.64,8.64,0,0,0,93,59.74a20.09,20.09,0,0,1-3.46-1.23l.9.89-.14-.24.34,1.26c0,.3-.3.54,0,.13a9.06,9.06,0,0,0,.6-.92c.35-.57.69-1.14,1-1.73A36.11,36.11,0,0,0,94,54.1c.93-2.36,2.06-5.28,1.17-7.8-.68-1.92-3.48-2.59-4.57-.59A31.18,31.18,0,0,0,86.88,58.6c-.19,2.86,4.18,3.33,4.92.67a37.88,37.88,0,0,1,3.58-9.58A15.53,15.53,0,0,1,98,46.44c.62-.59,2.32-2.09,3-2l-1.77-.73c-.28-.25,0,0,.09.2s.34.64.5,1c.26.52.52,1,.76,1.56.49,1,.92,2.12,1.32,3.21a47.62,47.62,0,0,1,2,7.3,41.87,41.87,0,0,1,.74,7.07c0,1.22,0,2.45-.07,3.67,0,.57-.08,1.15-.14,1.72,0,.32-.07.64-.11,1,0,.09-.17.78,0,.38l.9-.9L105,70l1.26-.34c.55,0-.48-.21-.64-.26-.43-.15-.87-.29-1.31-.42-.8-.25-1.61-.47-2.42-.67a50.74,50.74,0,0,0-5.17-1l1.83,2.41c-.08.56-.33.88-.77,1l.87-.06,1.95-.13,3.91-.26A2.55,2.55,0,0,0,106.92,67c-.24-1.82-2-2.61-3.48-3.22l-4.81-1.88v4.82a14,14,0,0,1,3.43-.11,7.16,7.16,0,0,0,4-1.1,2.54,2.54,0,0,0,0-4.32,64.19,64.19,0,0,0-11.8-5.17L93.55,61a67.08,67.08,0,0,1,10-.4c2.07.07,3.43-2.85,1.77-4.27-2.92-2.48-6.4-3.85-10-5.14l-.67,4.91,7.53-.38a2.53,2.53,0,0,0,2.16-3.76c-1.36-2.55-4.14-3.54-6.81-4.08l.6,4.57A16.37,16.37,0,0,0,102.45,48c1.73-2.73-2.59-5.24-4.32-2.53a9.86,9.86,0,0,1-2.47,2.68c-1.58,1.15-1.71,4.11.59,4.57,1.35.27,3.14.5,3.82,1.78l2.16-3.76-7.53.38A2.51,2.51,0,0,0,94,56c2.71,1,5.54,2,7.77,3.86l1.76-4.27a67.08,67.08,0,0,0-10,.4,2.51,2.51,0,0,0-.66,4.91,56.91,56.91,0,0,1,10.6,4.67V61.23a3.91,3.91,0,0,1-2.55.4,12.73,12.73,0,0,0-3.64.31,2.55,2.55,0,0,0-1.84,2.41,2.61,2.61,0,0,0,1.84,2.41l3.06,1.2,1.31.51a6,6,0,0,0,.59.23c.48.3.43.19-.16-.33l2.41-3.16c-2.24.15-4.49.23-6.73.45s-4.42,1.52-4.23,4a2.56,2.56,0,0,0,1.84,2.41,51.51,51.51,0,0,1,7.37,1.61,12,12,0,0,0,3.39.93A3,3,0,0,0,109,72.21c1.1-4.69.7-10,0-14.68a50.48,50.48,0,0,0-4.27-13.82c-1-2.11-2.15-5.06-5.08-4.13a14.37,14.37,0,0,0-5.76,3.86c-3.81,4-5.48,9.31-6.91,14.5l4.91.66A25.39,25.39,0,0,1,95,48.23l-4.57-.6a4.21,4.21,0,0,1-.3,2.63,26,26,0,0,1-1.23,3.33,28.22,28.22,0,0,1-1.64,3.13c-.64,1.07-1.53,2.11-1.55,3.42,0,3,3.39,3.51,5.6,4.27a9.86,9.86,0,0,0,1.26.43c.07,0,.46.32.29.08s0-.12,0,.13c0,1.09-.33,2.16-.26,3.27.19,3.19,5.19,3.22,5,0Z" style="fill:#1c1b38"/><path d="M64,96.25a25.71,25.71,0,0,0,5.8.7c1.77.06,3.54.12,5.3,0,3.25-.16,8.13-.58,9.75-3.92.84-1.74.65-4,.69-5.89a34.16,34.16,0,0,0-.23-5.81C84.8,78,83.1,74.62,80,73a2.57,2.57,0,0,0-3.43.9,2.53,2.53,0,0,0,.9,3.42,4.37,4.37,0,0,1,2.06,2,8.47,8.47,0,0,1,.93,3,30.7,30.7,0,0,1,.11,4.6,20.58,20.58,0,0,1-.15,3.84c.05-.17-.22.15-.08.07s-.62.3-.43.22a12.22,12.22,0,0,1-2,.54,22.19,22.19,0,0,1-4.23.38,31.24,31.24,0,0,1-8.36-.6c-3.11-.83-4.44,4-1.33,4.82Z" style="fill:#1c1b38"/><path d="M63.27,79a5.89,5.89,0,0,0-1.52,5.44,9.46,9.46,0,0,0,2.1,4.31,10.2,10.2,0,0,0,3.4,2.86,7.54,7.54,0,0,0,2.2.75,3.42,3.42,0,0,0,2.33-.32,3.37,3.37,0,0,0,1.43-1.88,21.22,21.22,0,0,0,.46-2.1,9.64,9.64,0,0,0,.26-2.62,2.5,2.5,0,1,0-5,0c0,.2,0,.39,0,.58a2.83,2.83,0,0,1,0,.29c.07-.43.08-.52,0-.25s-.08.26-.1.38c.18-.4.21-.48.1-.25s-.08.14.17-.22c-.18.16-.11.11.2-.15-.25.13-.15.09.27-.11l.48-.07h-.17a4.71,4.71,0,0,0-1.45.09,2.26,2.26,0,0,0-1.3.9,2.37,2.37,0,0,0-.54,1.51,2.59,2.59,0,0,0,1.84,2.41,2.79,2.79,0,0,0,2.87-.65,2.87,2.87,0,0,0,.7-1.29s0-.25.07-.26a4.47,4.47,0,0,1-.4.71s.48-.41.53-.47a7.87,7.87,0,0,0,.77-.94,7.11,7.11,0,0,0,.81-1.35,6.45,6.45,0,0,0,.64-4.37A4.81,4.81,0,0,0,72,78.74l-1.93,4.57a1,1,0,0,1,.24,0c-.4-.19-.49-.23-.26-.11s-.49-.43,0,0c.17.2.12.14-.13-.18l.15.24.13.26c-.16-.38-.19-.44-.09-.17s.11.42.17.64,0,.21,0-.17c0,.11,0,.22,0,.33,0,.42,0,.84,0,1.26s0,.75,0,1.12l0,.3c0,.27,0,.2,0-.22,0,.19-.06.39-.1.58s-.09.37-.14.56l-.09.26q-.15.38.09-.21c-.1.14-.16.33-.25.48-.35.56.27-.3,0,0a2.5,2.5,0,0,0,3.54,3.54c1.66-1.85,2-4.34,2-6.74a9.68,9.68,0,0,0-.82-4.09,4.62,4.62,0,0,0-3.11-2.59,2.56,2.56,0,0,0-3,1.45,2.47,2.47,0,0,0,1,3.12l.2.11c.21.14.14.08-.22-.18a1.37,1.37,0,0,1,.17.17c-.25-.35-.31-.41-.16-.2s.12.23.19.34c-.16-.39-.2-.47-.11-.22,0,.09,0,.18.07.26.12.43-.08-.66,0,0,0,.44.17-.57,0-.07a3.33,3.33,0,0,0-.18.6c.15-.35.18-.41.07-.17a2,2,0,0,0-.1.21c-.17.34-.37.66-.57,1s.38-.4,0,0c-.13.13-.26.28-.4.4a4.15,4.15,0,0,0-.92,1.08,3.5,3.5,0,0,0-.34.87c-.33,1.28,3.79-1.06,2.55-1.47v4.82c-.76.12-.2.06,0,.08a3.52,3.52,0,0,0,1-.08,3.78,3.78,0,0,0,1.91-1.13,5.67,5.67,0,0,0,1.2-4h-5c0,.36,0,.72,0,1.06,0-.57.06-.43,0-.14,0,.12-.06.25-.08.37a12.78,12.78,0,0,0-.38,1.84c-.08.25,0,.18.12-.22a2,2,0,0,1,2-.83c-.13,0-.27,0-.4-.09a3.17,3.17,0,0,1-.41-.12l-.26-.1.34.14a2.45,2.45,0,0,0-.51-.26L69,86.87c-.13-.08-.24-.18-.37-.26.6.38.13.1,0,0a9.39,9.39,0,0,1-.71-.7l-.31-.35a2.43,2.43,0,0,1-.2-.25c.22.3.28.37.17.22s-.36-.52-.51-.8-.14-.27-.21-.4c-.23-.44.2.56,0,0a7.75,7.75,0,0,1-.27-.94c-.12-.5,0,.55,0,.07,0-.17,0-.34,0-.51,0-.61-.15.47,0,0a1.9,1.9,0,0,0,.13-.43c-.17.37-.19.43-.07.2l.07-.12c.15-.22.1-.16-.14.17a1.07,1.07,0,0,1,.19-.18,2.51,2.51,0,0,0,0-3.54,2.56,2.56,0,0,0-3.53,0Z" style="fill:#1c1b38"/><path d="M32.91,93.42a15.82,15.82,0,0,1-3,.33c-.62,0,.22.11-.39,0L29,93.58c-.68-.18.25.15-.37-.16-.07,0-.35-.2-.14,0,0,0-.55-.56-.29-.23-.1-.13-.18-.28-.27-.42-.31-.49,0,.26-.14-.31,0-.16-.09-.32-.14-.48s-.11-.5-.15-.75c.05.28,0,0,0-.11,0-.47-.06-.94-.07-1.42a61.45,61.45,0,0,1,.13-6.51c0-.45.09-.87.16-1.31a2.9,2.9,0,0,0,.13-.68c.07.07-.42.45-.54.54s-.42,0-.06.09a4.14,4.14,0,0,0,.61,0,4.91,4.91,0,0,0,1.7-.26,2.57,2.57,0,0,0,1.75-3.07,2.53,2.53,0,0,0-3.08-1.75c-.29.08-.29.11,0,.07a2.17,2.17,0,0,1-.36,0c-.28,0-.57,0-.85,0a4.77,4.77,0,0,0-2.13.54c-1.5.87-1.89,2.42-2.1,4a50.3,50.3,0,0,0-.33,8.85c.1,2.68.71,5.39,3,7.09,2.59,2,5.83,1.57,8.81,1a2.5,2.5,0,1,0-1.33-4.82Z" style="fill:#1c1b38"/><path d="M34.56,84h.16a1.89,1.89,0,0,0,1-.21,1.85,1.85,0,0,0,.8-.52,1.82,1.82,0,0,0,.52-.8,1.8,1.8,0,0,0,.21-1l-.09-.66a2.36,2.36,0,0,0-.64-1.1l-.5-.4A2.54,2.54,0,0,0,34.72,79h-.16a2.83,2.83,0,0,0-1.77.74,2,2,0,0,0-.52.8,2,2,0,0,0-.21,1l.09.67a2.5,2.5,0,0,0,.64,1.1l.51.39a2.43,2.43,0,0,0,1.26.34Z" style="fill:#1c1b38"/><path d="M23.29,62.61c0-.23.05-.47.07-.71s0-.73,0,0a8.68,8.68,0,0,1,.21-1.24q.22-1.23.57-2.43c.22-.8.49-1.6.79-2.38l.19-.49c.11-.26.09-.22,0,.1,0-.11.09-.22.14-.33.17-.38.35-.76.54-1.13a2.5,2.5,0,0,0-4.32-2.52,31,31,0,0,0-3.15,11.17,2.51,2.51,0,0,0,2.5,2.5,2.55,2.55,0,0,0,2.5-2.5Z" style="fill:#1c1b38"/><path d="M8.16,46.34c1.52,4.63,6.2,5.42,10.43,6a36.5,36.5,0,0,0,7.53.43A47,47,0,0,0,33,51.63c9.1-2,18.25-4,27.61-3.88,3.22,0,3.22-5,0-5-8.66-.09-17.22,1.5-25.65,3.33-4.08.89-8,1.93-12.26,1.68A49.55,49.55,0,0,1,16.73,47c-1.29-.24-3.27-.57-3.75-2-1-3-5.83-1.73-4.82,1.33Z" style="fill:#1c1b38"/><path d="M52.71,37.78A42.31,42.31,0,0,1,59.21,44c-.16-.21,0,0,.09.11l.3.42c.2.28.39.57.58.86a16.77,16.77,0,0,1,1,1.81l.22.46c-.11-.24,0,0,.05.12.13.36.26.72.38,1.09a15.71,15.71,0,0,1,.47,2.14,2.34,2.34,0,0,0,1.45,1.62A2.55,2.55,0,0,0,66,52.54c3-1.38,4.12-4.84,4.42-7.89A23.21,23.21,0,0,0,69,34.34a2.56,2.56,0,0,0-3.08-1.75,2.53,2.53,0,0,0-1.74,3.08A23.53,23.53,0,0,1,65.32,40c0,.31.05.37,0,.16a5.43,5.43,0,0,1,.06.55c0,.37.06.74.08,1.11a20.62,20.62,0,0,1,0,2.08c0,.3,0,.61-.07.91s0,.28,0,0c0,.15-.05.29-.08.43a9.74,9.74,0,0,1-.47,1.68c.21-.54-.15.26-.21.36l-.22.35c.19-.23.19-.23,0,0s-.73.62-.25.29a5.13,5.13,0,0,1-.72.41l3.67,1.49c-1-6.58-6-11.44-10.88-15.48a2.5,2.5,0,0,0-3.54,3.54Z" style="fill:#1c1b38"/><path d="M72.73,46.33c-.42.61-.47.24-.17.31,0,0,.56,0,.76,0h8.44l11.32,0c3.22,0,3.23-5,0-5l-13.1,0H73.54c-2.07,0-3.88.36-5.12,2.17a2.52,2.52,0,0,0,.89,3.42,2.55,2.55,0,0,0,3.42-.89Z" style="fill:#1c1b38"/><path d="M101,44.11a7.53,7.53,0,0,1,9.51-5.84l.67-4.91a14,14,0,0,0-13.17,6.69c-1.67,2.77,2.6,5.23,4.32,2.53,1.23-1.94,1.14-4.13.77-6.31-.25-1.44-.91-3.4-.31-4.55l-4.57-1.93q-1.64,5.18-3,10.42h4.82a74.6,74.6,0,0,0-2.47-7.54,18.7,18.7,0,0,0-3.37-6.1c-1.54-1.67-3.57-2.76-5.34-4.15a31.23,31.23,0,0,1-4.49-4.34,30.76,30.76,0,0,1-6-11c-.28-.94-.53-1.89-.73-2.84-.29-1.39-.47-2.81-1.78-3.65-2-1.25-4.84-.41-6.73.57C64.23,3.78,62.52,9.63,63,14.84l4.66-1.26a10.56,10.56,0,0,0-5.38-4.12,70.35,70.35,0,0,0-7.09-2.4,35.24,35.24,0,0,0-15.05-1.4A20.82,20.82,0,0,0,28.61,11.2c-1.68,1.67-2.65,3.73-4,5.62a7.24,7.24,0,0,1-4.51,2.78,7.14,7.14,0,0,1-8.24-6,2.54,2.54,0,0,0-2.17-2.46,2.5,2.5,0,0,0-2.74,1.79,25.81,25.81,0,0,0,7.16,26l1.77-4.26A9.16,9.16,0,0,1,6.74,23.62a2.5,2.5,0,0,0-4.82-1.33C.32,27.21-.7,32.56.57,37.68A15.39,15.39,0,0,0,8.38,47.91,2.57,2.57,0,0,0,11.8,47a2.52,2.52,0,0,0-.9-3.42c-7.59-3.69-6.31-13.38-4.16-20L1.92,22.29A14.42,14.42,0,0,0,4.7,34.52a14.22,14.22,0,0,0,11.16,5.16c2.08,0,3.4-2.77,1.77-4.27a20.83,20.83,0,0,1-5.88-21.16l-4.91-.66a12.52,12.52,0,0,0,7.75,10.35,12.24,12.24,0,0,0,12.69-2.63c1.65-1.59,2.49-3.71,3.88-5.49A13.67,13.67,0,0,1,36,12.07c4-1.93,8.64-2.09,12.91-1.35A56.82,56.82,0,0,1,57.42,13c1.91.65,4.79,1.24,5.93,3.1s4.9,1.33,4.66-1.26a11.07,11.07,0,0,1,1.27-7.15,6,6,0,0,1,1.94-1.9,4.73,4.73,0,0,1,1.38-.61c.12,0,.27-.09.4-.11a4.89,4.89,0,0,1,.54,0c.3,0,.24,0-.17-.1l-.9-.89A7.25,7.25,0,0,1,73,6.37c.21.89.45,1.77.74,2.63A35.88,35.88,0,0,0,76,14.29a35.75,35.75,0,0,0,6.51,9.05,36.57,36.57,0,0,0,4.34,3.72A20.18,20.18,0,0,1,91,30.41a17.92,17.92,0,0,1,2.32,4.9c.75,2,1.4,4.13,2,6.23a2.52,2.52,0,0,0,4.82,0q1.36-5.25,3-10.42c.85-2.68-3.25-4.44-4.57-1.93a9.49,9.49,0,0,0-.58,6.43c.15.82.37,1.67.44,2.45a2.52,2.52,0,0,1-.33,2l4.32,2.53a9,9,0,0,1,8.85-4.22,2.46,2.46,0,0,0,2.45-2.17,2.51,2.51,0,0,0-1.79-2.74c-6.59-2.13-14.46,2.46-15.66,9.33A2.57,2.57,0,0,0,98,45.86,2.53,2.53,0,0,0,101,44.11Z" style="fill:#1c1b38"/><path d="M4.2,38.47c1.74,3.5,6.55,4.42,10.07,4.71A35.61,35.61,0,0,0,26.18,41.7C33.41,39.76,41,36.14,48.66,38a18.67,18.67,0,0,1,9.5,5.7c2.16,2.39,5.69-1.16,3.53-3.54a23.6,23.6,0,0,0-19.52-7.55c-7.92.69-15.1,4.51-23,5.47a21.21,21.21,0,0,1-6.06,0c-1.47-.25-3.9-.6-4.64-2.09-1.43-2.88-5.75-.35-4.32,2.52Z" style="fill:#1c1b38"/><path d="M20.51,44.26a39.74,39.74,0,0,0,10.88.65,73.9,73.9,0,0,0,9.87-2c5-1.25,11.46-2.57,15.81,1a2.58,2.58,0,0,0,3.54,0,2.53,2.53,0,0,0,0-3.54c-5.1-4.23-11.79-4.28-18-3-3.38.72-6.67,1.77-10.08,2.35a32.32,32.32,0,0,1-10.7-.32,2.57,2.57,0,0,0-3.07,1.75,2.52,2.52,0,0,0,1.74,3.08Z" style="fill:#1c1b38"/><path d="M29.66,36.48a29.37,29.37,0,0,1,25-1.22,2.59,2.59,0,0,0,3.42-.89,2.52,2.52,0,0,0-.9-3.42,34.66,34.66,0,0,0-30,1.21c-2.84,1.52-.32,5.84,2.52,4.32Z" style="fill:#1c1b38"/><path d="M31.19,21.17a135.46,135.46,0,0,1,14.69-2.55c4.66-.53,9.4-.82,13.92.6,1.93.61,4.17-1.9,2.83-3.67-3.07-4-7.49-6.1-12.27-7.5A40.45,40.45,0,0,0,35.72,6.58a2.57,2.57,0,0,0-2.5,2.5,2.52,2.52,0,0,0,2.5,2.5,36.15,36.15,0,0,1,12.43,1.05c3.62,1,7.8,2.34,10.16,5.44l2.82-3.67C56.19,12.85,51,13,45.88,13.62a147.22,147.22,0,0,0-16,2.73c-3.14.72-1.81,5.54,1.33,4.82Z" style="fill:#1c1b38"/><path d="M75,26.17c6.32,5,13,10.25,21.19,11.61A2.57,2.57,0,0,0,99.24,36,2.52,2.52,0,0,0,97.5,33c-7.32-1.22-13.31-5.83-19-10.32a2.57,2.57,0,0,0-3.54,0,2.51,2.51,0,0,0,0,3.53Z" style="fill:#1c1b38"/><path d="M94,35.26a27.16,27.16,0,0,1-17.72-7.58c-2.32-2.24-5.78,1.22-3.54,3.54C79.28,38,87.24,45.44,97.46,44.5c2.68-.24,3.56-4.14.67-4.91a54.68,54.68,0,0,0-26.84-.29L74.12,43C75.58,41,78,38.82,77.85,36.2s-2.15-4-3.72-5.71c-3.32-3.65-.77-9.42.78-13.25H70.09a12.66,12.66,0,0,0,7.18,7.22c1.72.71,3.71-1.4,3.08-3.07Q77.76,14.48,75.1,7.6a2.52,2.52,0,0,0-4.82,0,50.06,50.06,0,0,0-2,8.1l4.91.66A14.29,14.29,0,0,1,75,7.54c1.2-2.06-1.29-4.87-3.42-3.42a13.8,13.8,0,0,0-6.07,10,35.61,35.61,0,0,0,.09,5.93,10.58,10.58,0,0,1-.65,5.35l4.56,1.93a4.43,4.43,0,0,1,.75-2l-3.93-.51c0-.66,0-.88-.1-.63a.14.14,0,0,1-.1.07,7.19,7.19,0,0,0-1.2.32,22.87,22.87,0,0,1-3,.33,12.12,12.12,0,0,1-5.83-1.46,24.42,24.42,0,0,0-6.38-2.12,29.66,29.66,0,0,0-7.17-.2,84.23,84.23,0,0,0-13.74,2.39c-1.09.29-2.15.64-3.22,1a6.51,6.51,0,0,1-2.63.59c-1.83-.15-3.41-1.64-4.72-2.78l-3,3.92,4.51,2.54L21.87,30l1.07.6.43.24c.17.09.12,0-.14-.24V29.27l-.1.29.65-1.1a6.88,6.88,0,0,1-1.85.83,19.69,19.69,0,0,1-2.49.84A6.64,6.64,0,0,1,15,29.91a2.48,2.48,0,0,0-2.95,1.45,2.53,2.53,0,0,0,1,3.12,23.71,23.71,0,0,0,10.2,3.57v-5l-3.85.41a2.5,2.5,0,0,0,0,5,10.81,10.81,0,0,0,8.65-2.93A24,24,0,0,1,30.8,33c1.15-.78,2.68-.66,4-.69,6.8-.14,13.67-.25,20.35,1.2,3.13.68,4.47-4,1.33-4.82A95.47,95.47,0,0,1,31.23,18.21a2.51,2.51,0,0,0-3,3.93c4.19,4.15,10.12,4.95,15.73,5.49v-5A42.12,42.12,0,0,1,26.48,19a2.58,2.58,0,0,0-3.42.9,2.52,2.52,0,0,0,.9,3.42c11.08,5,23.2,5.91,35.17,6.66V25l-4.62.62a2.52,2.52,0,0,0-1.26,4.65c1.67,1.24,3.67,1.72,5.58,2.44,1,.37,2.7,1.11,2.78,2.31l3.76-2.16a65.09,65.09,0,0,0-6.16-3.31,2.54,2.54,0,0,0-2.77.19,2.44,2.44,0,0,0-.9,2.63,12.35,12.35,0,0,0,3.86,4.88c1.24,1,2.9,2.13,3.38,3.54.86,2.54,5.07,2.3,4.91-.66-.33-6-1.57-12.3-7.16-15.53-4.72-2.74-10.46-2.17-15.29-4.55L44,24.71a93.21,93.21,0,0,1,25,4.05A2.54,2.54,0,0,0,72.09,27a2.57,2.57,0,0,0-1.75-3.08c-4.74-1.92-10-2.16-15-2.68l-7.77-.82c-2.66-.28-5.33-.72-8,0l3.16,2.41c-.53-5.53-4.92-9.14-9.73-11.24l-1.93,4.57C38.6,17.84,46.4,18.9,54,17c2.7-.7,2.19-5-.66-4.91l-22,.72a2.53,2.53,0,0,0-2.16,3.76c2.08,4.22,6.46,6.73,10.89,7.81,5.33,1.31,10.87.56,16.24,1.48L57,20.9a95.08,95.08,0,0,1-18-3.64l-.66,4.91a130.64,130.64,0,0,1,27.74,6.75c2.64.95,4.46-3.32,1.92-4.57-8.7-4.3-17.62-8.55-27.47-9.16-2.78-.18-3.43,4.34-.66,4.91l10,2a2.57,2.57,0,0,0,3.07-1.75,2.52,2.52,0,0,0-1.74-3.07l-9.95-2-.67,4.91c8.9.56,17.09,4.59,25,8.47l1.93-4.56a135.88,135.88,0,0,0-29.07-6.93,2.47,2.47,0,0,0-2.46,2.17,2.5,2.5,0,0,0,1.79,2.74A101.56,101.56,0,0,0,57,25.9c2.78.28,3.44-4.44.67-4.91-5-.86-10.18-.28-15.16-1.24-3.63-.7-7.27-2.29-9-5.75l-2.15,3.76,22-.72-.67-4.92c-6.68,1.73-13.6.7-20.22-.79a2.51,2.51,0,0,0-3,1.44,2.47,2.47,0,0,0,1,3.12c2.87,1.26,6.92,3.39,7.26,6.93a2.55,2.55,0,0,0,3.17,2.41c2.25-.59,4.84,0,7.11.26l7.29.77c4.62.48,9.34.74,13.69,2.5l1.33-4.82A98.56,98.56,0,0,0,44,19.71c-2.39-.05-3.52,3.55-1.26,4.66a28.53,28.53,0,0,0,7.18,2.24,35.07,35.07,0,0,1,7,1.74c4.76,2,5.52,7.16,5.78,11.78l4.91-.66a11,11,0,0,0-3.67-4.95c-1.18-1-3-2.14-3.57-3.48l-3.67,2.83a64.05,64.05,0,0,1,6.16,3.31A2.52,2.52,0,0,0,66.61,35a7.59,7.59,0,0,0-4.16-6.14c-2.14-1.19-4.68-1.46-6.67-2.92l-1.27,4.66L59.13,30a2.58,2.58,0,0,0,2.5-2.5,2.54,2.54,0,0,0-2.5-2.5c-11-.69-22.44-1.38-32.65-6L24,23.34a48,48,0,0,0,20,4.29,2.5,2.5,0,0,0,0-5c-4.23-.41-9-.89-12.2-4l-3,3.93a100.1,100.1,0,0,0,26.45,11l1.33-4.82c-7-1.51-14.1-1.53-21.2-1.39a18.44,18.44,0,0,0-5,.48,9.68,9.68,0,0,0-4,2.48,17,17,0,0,1-2.82,2.54,6.25,6.25,0,0,1-4.05.67v5l3.85-.41a2.5,2.5,0,0,0,0-5,18.19,18.19,0,0,1-7.68-2.89l-1.93,4.57a11.28,11.28,0,0,0,7.08.22,24.23,24.23,0,0,0,3.49-1.26,8.45,8.45,0,0,0,3-1.69,3.23,3.23,0,0,0,.29-3.9,7.71,7.71,0,0,0-3-2.3l-6.88-3.86c-2.39-1.35-5.23,2-3,3.92,3.15,2.76,6.65,5.08,11,3.88,2-.56,3.94-1.32,6-1.79s4.05-.81,6.09-1.16c4-.69,8.17-1.29,12.14-.35a35,35,0,0,1,5.47,2.14,14.65,14.65,0,0,0,6.28,1.33c2.19-.07,5-.21,6.94-1.35a4.77,4.77,0,0,0,2-6.27,2.51,2.51,0,0,0-3.93-.51,9.37,9.37,0,0,0-2,4.23A2.55,2.55,0,0,0,66.11,29a2.49,2.49,0,0,0,3.12-1c1.84-3.63,1.25-7.38,1.15-11.28-.08-3.25.9-6.3,3.69-8.21L70.65,5a18.84,18.84,0,0,0-2.51,11.34,2.54,2.54,0,0,0,2.17,2.46A2.48,2.48,0,0,0,73.06,17a49.15,49.15,0,0,1,2-8.09H70.28q2.66,6.87,5.25,13.79l3.07-3.08a7.08,7.08,0,0,1-3.69-3.73,2.53,2.53,0,0,0-4.82,0c-1.9,4.7-3.62,9.88-1.58,14.84a11,11,0,0,0,2,3.14c.66.74,1.5,1.34,2.12,2.12l.21.28c.08.08,0,.5.09.08s0,0-.1.06a8.53,8.53,0,0,0-.53.76c-.81,1.1-1.64,2.17-2.46,3.26-1.4,1.85.9,4.14,2.82,3.67a49.12,49.12,0,0,1,24.18.3l.66-4.92c-8.88.81-15.55-6-21.23-11.82l-3.54,3.54a32.48,32.48,0,0,0,21.26,9c3.21.13,3.21-4.87,0-5Z" style="fill:#1c1b38"/><path d="M63.77,30.82a23,23,0,0,1,5.07,8.24c1,2.79,4.56,2.09,4.91-.66A10.56,10.56,0,0,0,73,33l-3.68,2.82a18.81,18.81,0,0,0,14.57,3.33c2.83-.49,2.07-4.89-.67-4.92a72.22,72.22,0,0,0-14.37,1.3c-2.18.43-4.65.94-5.35,3.4A10.67,10.67,0,0,0,63.4,42l.09,3.65L68.4,45a16.18,16.18,0,0,0-5.55-9.18A17.15,17.15,0,0,0,52,32.05a84.06,84.06,0,0,0-13.52,1.27c-3.44.5-7.86,1.33-8.75,5.35-.31,1.4.7,3.38,2.41,3.16A66.54,66.54,0,0,0,41.5,40a12.25,12.25,0,0,0,3.64-1.34c1.47-1,1.86-2.55,2-4.21.32-3.14.56-6.3.84-9.44s.49-6.29-.38-9.32c-1.42-4.88-6.72-9.95-12.07-7a6.63,6.63,0,0,0-2.68,2.89,19.54,19.54,0,0,1-1.48,3c-1.19,1.61-3.19,2.55-4.83,3.61a19.44,19.44,0,0,0-3.18,2.44c-.46.45-.83,1-1.25,1.45l-.12.14c-.38.32-.32.34.18.07a7.44,7.44,0,0,1-.91-.14,39.37,39.37,0,0,1-9-3.07l-1.93,4.57a119.58,119.58,0,0,0,16.81,4.85c3.14.67,4.48-4.15,1.33-4.82A120.94,120.94,0,0,1,11.71,18.8C9,17.81,7.31,22,9.78,23.37a35.47,35.47,0,0,0,7.4,2.84c2.55.71,5.54,1.88,7.85,0,.77-.63,1.29-1.48,2-2.17a14.47,14.47,0,0,1,2.19-1.63,30.86,30.86,0,0,0,5-3.58,10.43,10.43,0,0,0,1.81-2.32,23.6,23.6,0,0,1,1.48-3.08c1-1.27,2.89-.16,3.73.77,3.26,3.59,1.81,9.75,1.43,14.07L42.31,33a8.85,8.85,0,0,1-.24,2l.27-.4,0,0a9.65,9.65,0,0,0-1.23.38,58,58,0,0,1-8.94,1.89L34.54,40c.08-.36.12-.45.32-.6a4.2,4.2,0,0,1,1.44-.62,32.57,32.57,0,0,1,4.62-.8A73.38,73.38,0,0,1,52,37.05a11.86,11.86,0,0,1,7.6,2.56,11.6,11.6,0,0,1,4,6.74c.56,2.77,5,2.13,4.91-.67L68.42,43a13.27,13.27,0,0,0-.06-2.64v0c-.66.58-.71.76-.14.52a4.29,4.29,0,0,0,1-.23c1-.2,1.9-.38,2.86-.53a65.79,65.79,0,0,1,11.13-.79l-.66-4.91a13.9,13.9,0,0,1-10.71-2.82c-1.67-1.26-4.49.87-3.67,2.83a7.52,7.52,0,0,1,.53,4.06l4.91-.67a28.88,28.88,0,0,0-6.35-10.45c-2.22-2.34-5.75,1.2-3.54,3.54Z" style="fill:#1c1b38"/><path d="M4.33,28.89a17.44,17.44,0,0,0,3.92,4.59,1.85,1.85,0,0,0,.81.52,1.84,1.84,0,0,0,1,.22,2.58,2.58,0,0,0,1.77-.74,2.52,2.52,0,0,0,.73-1.76A2.45,2.45,0,0,0,11.79,30a15.59,15.59,0,0,1-2.5-2.57l.39.5a15.46,15.46,0,0,1-1-1.51,2.62,2.62,0,0,0-1.5-1.15,2.58,2.58,0,0,0-1.92.25A2.5,2.5,0,0,0,4.08,27a2.57,2.57,0,0,0,.25,1.92Z" style="fill:#1c1b38"/><path d="M12,45.49a82.17,82.17,0,0,0,34,5.32c3.2-.18,3.22-5.19,0-5a78.58,78.58,0,0,1-32.68-5.15,2.52,2.52,0,0,0-3.07,1.75A2.56,2.56,0,0,0,12,45.49Z" style="fill:#1c1b38"/><path d="M105.6,36.62c-1.68,2.2-3.22,4.58-3.25,7.45s1.67,5.06,3.5,7.06l-.39-3a6.35,6.35,0,0,0-.86,2.95,2.51,2.51,0,0,0,2.5,2.5,2.55,2.55,0,0,0,2.5-2.5c0-.26,0-.3,0-.11s0,.15,0-.11c-.2.4,0-.08.12-.21a2.56,2.56,0,0,0-.39-3c-.34-.36-.67-.74-1-1.12s.26.4-.14-.16c-.12-.18-.24-.35-.35-.53s-.28-.48-.41-.74c.19.39,0,0,0-.18s-.16-.72-.09-.21c0-.27,0-.55,0-.82s0-.15,0,.08a3.73,3.73,0,0,1,.09-.46,5.27,5.27,0,0,1,.19-.68c0-.06.32-.69.1-.28l.38-.73a23.84,23.84,0,0,1,1.82-2.61,2.5,2.5,0,0,0-.89-3.42,2.57,2.57,0,0,0-3.42.89Z" style="fill:#1c1b38"/><path d="M100.83,32c0-.13,0-.26,0-.39l-.09.67a5,5,0,0,1,.32-1.21l-.25.6a5.11,5.11,0,0,1,.62-1.09l-.39.51a4.77,4.77,0,0,1,.83-.85l-.5.4a4.69,4.69,0,0,1,1.1-.65l-.6.25a5.28,5.28,0,0,1,1.24-.33l-.67.09a5.79,5.79,0,0,1,.72,0,2.5,2.5,0,0,0,0-5,7.26,7.26,0,0,0-7.37,7,2.56,2.56,0,0,0,.74,1.77,2.5,2.5,0,0,0,3.53,0,2.69,2.69,0,0,0,.73-1.77Z" style="fill:#1c1b38"/><path d="M100.22,28.14a11.9,11.9,0,0,0,1,9.42A2.5,2.5,0,0,0,105.58,35c-.18-.32-.35-.66-.5-1l.25.6a9.67,9.67,0,0,1-.65-2.41l.09.66a9.44,9.44,0,0,1,0-2.49l-.09.66a10.63,10.63,0,0,1,.36-1.58,2.52,2.52,0,0,0-1.74-3.07,2.55,2.55,0,0,0-3.08,1.74Z" style="fill:#1c1b38"/><path d="M49.71,135.14a18.13,18.13,0,0,0-7.9,14.55,2.5,2.5,0,0,0,5,0c0-.28,0-.57,0-.85s0-.32,0-.47c0-.32,0-.08,0,.1a8.76,8.76,0,0,1,.33-1.68,15.32,15.32,0,0,1,.53-1.62s.24-.57.09-.23.1-.21.1-.22c.12-.26.25-.51.39-.77a14.45,14.45,0,0,1,.89-1.45,3.46,3.46,0,0,1,.22-.31c.19-.28.09-.28,0,0,.06-.21.4-.49.54-.65a13.82,13.82,0,0,1,1.21-1.21,3.85,3.85,0,0,1,.65-.56c-.16.1-.3.22-.06,0l.47-.33a2.5,2.5,0,1,0-2.53-4.32Z" style="fill:#1c1b38"/><path d="M54.55,136.74a20.52,20.52,0,0,0-3.41,7.11,17.72,17.72,0,0,0-.63,4.22,6.82,6.82,0,0,0,1.25,4.46c1.16,1.34,2.93,1,4.5,1l2-.11a5,5,0,0,0,2.57-.52,3,3,0,0,0,1.41-2.74,14.53,14.53,0,0,0-.5-2.17c-.07-.3-.14-.61-.19-.91,0-.1-.14-.85-.1-.52a20.92,20.92,0,0,1-.06-4.11c0-.13,0-.26,0-.39.09-.84,0,.22,0-.26s.12-.7.19-1a20.51,20.51,0,0,1,.56-2,11,11,0,0,1,.71-1.74,2.5,2.5,0,1,0-4.32-2.52c-.71,1.08-1.36,1.77-2.25,3a10.66,10.66,0,0,0-1.79,3.79c-.66,2.8-.15,5.65-.37,8.48a2.51,2.51,0,0,0,2.5,2.5,2.56,2.56,0,0,0,2.5-2.5,37.25,37.25,0,0,0,0-3.81c0-.63,0-1.27,0-1.9,0-.31,0-.62.07-.93s0-.18,0,0c0-.18.07-.35.11-.52a6.86,6.86,0,0,1,1.43-2.8c.4-.55,1.49-1.86,2.11-2.81l-4.32-2.52a22.67,22.67,0,0,0-2.24,8.27,19.7,19.7,0,0,0,.08,3.84c.09.75.2,1.5.35,2.24.07.35.15.69.25,1,0,.17.09.34.14.51.11.47.15.34.1-.4l.64-1.11,1.06-.44h-.29a5.63,5.63,0,0,0-.58,0l-1.16.06c-.82.05-1.65.1-2.47.13-.59,0-.55-.13.46.6s.84.78.68.2a4.37,4.37,0,0,1-.12-.52c-.08-.42,0,.31,0-.12a9.55,9.55,0,0,1,0-1.07c0-.18,0-.36,0-.54,0-.48-.1.56,0-.26a17.6,17.6,0,0,1,1.16-4.08c-.11.24,0,0,.06-.13l.23-.48q.27-.52.57-1.05a19.63,19.63,0,0,1,1.25-1.87,2.51,2.51,0,0,0-.9-3.42,2.58,2.58,0,0,0-3.42.9Z" style="fill:#1c1b38"/><path d="M61.19,136.4A66.25,66.25,0,0,0,64.35,145c.68,1.53,1.39,3,3.19,3.36,1.57.32,3.37-.4,4.89-.79s2.95-.78,4.41-1.2a16.22,16.22,0,0,0,4.44-1.53c3-1.94,1.65-6.55.89-9.32a41.29,41.29,0,0,0-3.78-9.18,2.5,2.5,0,0,0-4.32,2.53,35.35,35.35,0,0,1,2.56,5.64,23.55,23.55,0,0,1,1.46,5.79,6.87,6.87,0,0,1-.07,1,4.56,4.56,0,0,1,.51-.65q.09-.09-.15,0a3.87,3.87,0,0,0-.84.26c-1.12.33-2.25.66-3.38,1s-2.26.62-3.4.91l-1.54.38a6.21,6.21,0,0,0-.85.21l-.27.06c.58.08.67.05.26-.09l1.1.64c-.23-.18-.27-.21-.11-.08-.09-.18-.18-.36-.26-.55-.2-.41-.38-.83-.56-1.24-.31-.69-.58-1.39-.85-2.09-.63-1.65-1.18-3.33-1.67-5a2.5,2.5,0,1,0-4.82,1.33Z" style="fill:#1c1b38"/><path d="M80.42,128.55a12,12,0,0,1,3,4.73,22.41,22.41,0,0,1,.46,6.07c0,4.33-.14,8.63-1.69,12.72a2.52,2.52,0,0,0,2.41,3.17,127,127,0,0,1,14.6-.37c2.26.08,5.37.81,6.3-2a30.7,30.7,0,0,0,1.08-6.81,49.87,49.87,0,0,0-.67-13.47c-.19-1.06-.42-2.1-.69-3.14A7.85,7.85,0,0,0,103.9,126c-1.44-1.61-4.24-1.57-6.23-1.86-5.42-.81-10.88-1.37-16.35-1.65-3.22-.16-3.21,4.84,0,5q5.57.28,11.12.94,2.79.34,5.58.79a10.8,10.8,0,0,0,2.55.43q.72.18-.63-.66c.07.22.13.44.19.66.13.44.24.88.36,1.33a44.21,44.21,0,0,1,1.31,10.24,49,49,0,0,1-.23,5.28c-.09.84-.2,1.68-.34,2.52l-.21,1.13c0,.22-.09.45-.14.67-.11.5-.13.6-.06.31l1.49-1.15c.37-.14-.45,0-.61,0l-1,0-2.23-.08c-1.56,0-3.13-.06-4.7,0-3.06,0-6.11.18-9.15.43L87,153.4c1.8-4.76,1.94-9.92,1.85-15,0-2.43,0-5-.88-7.27A18.78,18.78,0,0,0,84,125c-2.21-2.35-5.75,1.19-3.54,3.54Z" style="fill:#1c1b38"/><path d="M105.91,137.09l.49.13s.63.22.4.12.22.12.26.14l.43.24a5.76,5.76,0,0,1,.51.35c-.21-.16,0,0,.08.08s.48.46.71.7l.29.34.19.26c.19.28.37.58.54.88a10,10,0,0,1,.53,1c-.11-.24,0,0,0,.12l.22.61c1.16,3.51,1,7.26,1.67,10.91a2.52,2.52,0,0,0,3.07,1.75,2.56,2.56,0,0,0,1.75-3.08c-.67-3.88-.49-8.12-2-11.88-1.43-3.47-4-6.64-7.84-7.52a2.56,2.56,0,0,0-3.07,1.75,2.51,2.51,0,0,0,1.75,3.07Z" style="fill:#1c1b38"/><path d="M96.05,131.24a9.47,9.47,0,0,1,.83,3.87c.13,1.64.21,3.28.23,4.92a76.86,76.86,0,0,1-.5,10.06l2.5-2.5-4.78.11-2.17.05a13.31,13.31,0,0,1-2.26.09L91.39,149l-.1-.15.34,1.26c-.1.39-.09.35,0-.11.06-.25.11-.5.16-.76.1-.5.2-1,.27-1.51.16-1,.28-2,.37-3a33.42,33.42,0,0,0,0-5.57,36.88,36.88,0,0,0-2.91-11.49l-2.16,3.77c1.58-.14,3.16-.24,4.75-.29.76,0,1.51,0,2.27,0a7.14,7.14,0,0,1,2,.1l-1.11-.64.17.2-.64-1.1q0-.33,0,.15c0,.21,0,.41,0,.62,0,.48,0,1,0,1.45,0,.82.06,1.65.14,2.47.16,1.79.42,3.56.64,5.35.41,3.34.68,6.73-.32,10l3.67-1.49.13.07.65,1.1a9.35,9.35,0,0,1-.19-2.26c0-1,0-2,0-3,0-1.93.25-3.85.39-5.77.28-3.84-.2-7.5-2.64-10.59a2.5,2.5,0,0,0-3.53,0,2.56,2.56,0,0,0,0,3.54c2.08,2.63,1.17,6.81.94,9.84a59.11,59.11,0,0,0-.17,5.95c0,2-.09,4.29,1.89,5.41a2.54,2.54,0,0,0,3.67-1.5c1.79-5.8.2-11.63-.21-17.5-.1-1.38,0-2.75,0-4.13a3.34,3.34,0,0,0-3.4-3.26,60,60,0,0,0-9.09.28,2.54,2.54,0,0,0-2.15,3.76,30.74,30.74,0,0,1,2.13,15.49c-.14,1.19-.44,2.34-.65,3.52a2.93,2.93,0,0,0,3.07,3.57c3.1.08,6.24-.14,9.34-.21a2.59,2.59,0,0,0,2.5-2.5,78.05,78.05,0,0,0,.48-10.91c-.09-3.44,0-7.38-1.72-10.47-1.55-2.82-5.87-.3-4.32,2.53Z" style="fill:#1c1b38"/><path d="M31.73,80.3c-.74,1-1.77,1.53-2.43,2.57a6.76,6.76,0,0,0-.69,4.31A8.59,8.59,0,0,0,30,91.33a5.82,5.82,0,0,0,3.67,2.49,2.8,2.8,0,0,0,1.93-.25,2.51,2.51,0,0,0,.9-3.43A2.39,2.39,0,0,0,35,89a4,4,0,0,1-.6-.15c-.24-.06.55.31.16.06l-.23-.14c-.29-.17.13.07.17.14a1.9,1.9,0,0,0-.25-.24L34,88.46c-.2-.21.32.48.1.12-.05-.08-.1-.16-.14-.24s-.22-.51-.09-.13,0,0,0-.07l-.12-.37c-.06-.23-.11-.47-.15-.7s-.07-.46,0-.07,0-.09,0-.14c0-.45,0-.89,0-1.34s-.13.56,0,.12a1,1,0,0,0,.08-.3c-.15.34-.19.42-.1.24a.75.75,0,0,1,.07-.12c0-.08.24-.35,0,0s0,0,.07-.06a1.8,1.8,0,0,1,.2-.19,6,6,0,0,1,.47-.41,6.88,6.88,0,0,0,.94-.93A2.76,2.76,0,0,0,36,82.07a2.57,2.57,0,0,0-.73-1.77c-.9-.82-2.67-1.09-3.54,0Z" style="fill:#1c1b38"/><path d="M33.67,94.13a5.12,5.12,0,0,0,.54.1,11.08,11.08,0,0,0,1.14.14,6.31,6.31,0,0,0,1.06,0,1.88,1.88,0,0,0,1-.21,1.77,1.77,0,0,0,.8-.52,1.82,1.82,0,0,0,.52-.8,1.9,1.9,0,0,0,.22-1l-.09-.66a2.52,2.52,0,0,0-.65-1.1l-.5-.4a2.53,2.53,0,0,0-1.26-.34,6,6,0,0,1-1.53,0l.66.09a5.12,5.12,0,0,1-.54-.1,1.89,1.89,0,0,0-1,0,1.85,1.85,0,0,0-.93.29,2,2,0,0,0-.7.65,1.89,1.89,0,0,0-.45.85l-.09.66A2.58,2.58,0,0,0,32.18,93l.39.5a2.41,2.41,0,0,0,1.1.64Z" style="fill:#1c1b38"/></g></g></svg>