<svg xmlns="http://www.w3.org/2000/svg" viewBox="0 0 146.56 163.15"><g id="Слой_2" data-name="Слой 2"><g id="Слой_8" data-name="Слой 8"><path d="M41.54,47.48a73,73,0,0,0,23.5-5c7-2.6,13.9-5.74,19.42-10.89l-3.92-.51c6.09,10,16.68,15.92,27.51,19.54,3.06,1,4.37-3.8,1.33-4.82-9.57-3.2-19.13-8.39-24.53-17.24a2.53,2.53,0,0,0-3.92-.51c-5,4.64-11.34,7.45-17.66,9.77a68.54,68.54,0,0,1-21.73,4.66c-3.21.08-3.23,5.08,0,5Z" style="fill:#1c1b38"/><path d="M108.11,31.94c.24,2.91-.55,5.66-1.23,8.46a23.17,23.17,0,0,0-.7,9.18,2.49,2.49,0,0,0,3.07,1.74,4.35,4.35,0,0,1,4.83.65,4,4,0,0,1,1.2,2.07c.13.63.14.66-.23,1a5.39,5.39,0,0,1-1.65.52c-.56.15-1.12.28-1.69.4s-1.25.31-1.52,0c-.8-.75,0-2.66.75-3.11,2.78-1.62.26-5.94-2.52-4.32a7.55,7.55,0,0,0-2.55,10c2.25,3.9,7.45,2.53,10.88,1.18A5.21,5.21,0,0,0,120.33,55a8.3,8.3,0,0,0-1.59-5.2,9.17,9.17,0,0,0-10.82-3.28L111,48.25c-.41-2.6.39-5.26,1-7.76a26.66,26.66,0,0,0,1.1-8.55,2.56,2.56,0,0,0-2.5-2.5,2.53,2.53,0,0,0-2.5,2.5Z" style="fill:#1c1b38"/><path d="M119.47,51.41q4.4-4.62,9.14-8.89a2.51,2.51,0,0,0-.51-3.92,67.18,67.18,0,0,1-14.63-9.42,2.56,2.56,0,0,0-3.54,0,2.52,2.52,0,0,0,0,3.53,71.74,71.74,0,0,0,15.65,10.2L125.07,39q-4.74,4.26-9.14,8.88a2.5,2.5,0,1,0,3.54,3.54Z" style="fill:#1c1b38"/><path d="M108.44,59.27a39.4,39.4,0,0,0-2.18,4.36A35.27,35.27,0,0,0,105,68.15a11.47,11.47,0,0,1-1.86,3.61c-.93,1.35-1.88,2.69-2.82,4a2.5,2.5,0,0,0,.39,3c1.6,1.35,3.47,1,5.42,1,1.77,0,3.55.07,5.32.22s3.33.39,5,.64a3.22,3.22,0,0,0,4.16-3.36c.49-6.69.53-13.92-3.16-19.8-1.71-2.72-6-.21-4.32,2.52a17.9,17.9,0,0,1,2.53,7.68,41.21,41.21,0,0,1,.17,5c0,.84-.06,1.68-.1,2.51l-.06,1.16c0,.25,0,.51-.05.77,0,.58,0,.51.08-.2l.9-.9-.23.11,1.26-.35a22.7,22.7,0,0,1-3.53-.47c-1.26-.16-2.52-.28-3.79-.36s-2.41-.13-3.61-.14h-1.91l-1,0-.38,0c-.32,0-.36,0-.13,0l1.11.65-.2-.17.39,3c1.81-2.58,4-5.13,5-8.17.47-1.43.64-2.94,1.15-4.36a26.1,26.1,0,0,1,2-4c1.58-2.81-2.74-5.33-4.32-2.52Z" style="fill:#1c1b38"/><path d="M110.78,60.16l-1.43,8.17a2.7,2.7,0,0,0,.25,1.93,2.51,2.51,0,0,0,4.57-.6l1.43-8.17a2.7,2.7,0,0,0-.25-1.93,2.58,2.58,0,0,0-1.5-1.15,2.53,2.53,0,0,0-3.07,1.75Z" style="fill:#1c1b38"/><path d="M115.59,47.28c0-.24,0-.48.07-.72l-.09.67a9.55,9.55,0,0,1,.65-2.41l-.25.6a9.33,9.33,0,0,1,.79-1.5A2.5,2.5,0,0,0,117,42a2.54,2.54,0,0,0-1.14-1.49,2.52,2.52,0,0,0-1.93-.25,2.69,2.69,0,0,0-1.5,1.15,12.12,12.12,0,0,0-1.85,5.88,2.5,2.5,0,0,0,4.27,1.77,2.74,2.74,0,0,0,.73-1.77Z" style="fill:#1c1b38"/><path d="M122.05,50q4.8-.48,9.61-.8c1.56-.11,3.13-.2,4.69-.28a26.4,26.4,0,0,1,4.53-.14l-1.27-.34c-.36-.16-.52-1.14-.3-.23.07.29.19.59.28.88.21.67.4,1.34.58,2,.33,1.28.6,2.57.81,3.88a39.28,39.28,0,0,1,.46,7.66,10.13,10.13,0,0,1-2.09,6.15c-1.61,2.14-3.3,4.23-4.95,6.34h3.54a34.24,34.24,0,0,0-15.6-8.7c-3.12-.78-4.45,4-1.33,4.82a29.07,29.07,0,0,1,13.39,7.42,2.54,2.54,0,0,0,3.54,0l4.7-6a16.08,16.08,0,0,0,3.29-5.85c1.15-4.54.53-9.76-.33-14.29a25.21,25.21,0,0,0-2-6.94c-1.24-2.36-4.07-1.81-6.28-1.7q-7.67.38-15.29,1.13a2.56,2.56,0,0,0-2.5,2.5,2.52,2.52,0,0,0,2.5,2.5Z" style="fill:#1c1b38"/><path d="M117.64,62.22c2,.6,4.11,1.2,6.11,2l.68.26.39.16c-.28-.12-.28-.12,0,0,.48.22,1,.43,1.42.67A23.57,23.57,0,0,1,129,66.9a2.52,2.52,0,0,0,3.42-.9,2.56,2.56,0,0,0-.89-3.42c-3.77-2.58-8.22-3.92-12.56-5.19a2.5,2.5,0,0,0-1.33,4.83Z" style="fill:#1c1b38"/><path d="M119.69,59.78a42,42,0,0,1,15.15-1.65,2.51,2.51,0,0,0,2.5-2.5,2.57,2.57,0,0,0-2.5-2.5A47.31,47.31,0,0,0,118.36,55a2.5,2.5,0,1,0,1.33,4.82Z" style="fill:#1c1b38"/><path d="M120.07,56.19l.71-.32-.6.25a29,29,0,0,1,5.42-1.47,2.49,2.49,0,0,0,1.49-1.15,2.55,2.55,0,0,0,.25-1.93,2.49,2.49,0,0,0-1.15-1.49,2.71,2.71,0,0,0-1.92-.25,26.86,26.86,0,0,0-6.73,2.05,2.51,2.51,0,0,0,.6,4.57,2.82,2.82,0,0,0,1.93-.26Z" style="fill:#1c1b38"/><path d="M29.59,37.14a6.28,6.28,0,0,0-.89,5.23,7.59,7.59,0,0,0,3.17,4.45,10.83,10.83,0,0,0,5,1.65,12.27,12.27,0,0,0,4.86-.36,7.87,7.87,0,0,0,4.46-3.24,7.55,7.55,0,0,0,.89-5.38c-.69-3.85-4.3-6.29-8-6.72a9.42,9.42,0,0,0-5.21,1A8,8,0,0,0,30,38a2.52,2.52,0,0,0,1.75,3.08,2.59,2.59,0,0,0,3.08-1.75c-.28.69.12-.13.2-.28s.25-.18-.1.11c.07-.06.14-.17.21-.24s.48-.57.6-.56-.52.35-.11.1l.42-.26.3-.16c.48-.27-.4.14-.06,0s.47-.17.72-.23l.33-.08.16,0c.22,0,.22,0,0,0l-.16,0,.33,0h.51c.14,0,.57-.06.67,0l-.3,0,.28,0,.45.1.72.23c.56.19-.32-.18,0,0,.16.1.33.17.49.27s.26.16.4.24c.34.2-.07-.06-.06-.06s.56.52.6.57a2,2,0,0,1,.31.34c0-.06-.29-.44-.07-.05.06.1.13.2.19.31l.17.32-.12-.26c.16.16.2.66.26.87s-.12.08,0-.13a1.5,1.5,0,0,0,0,.36c0,.15,0,.3,0,.45v.09c0,.28,0,.24,0-.13.13.2-.31.67-.23.86-.08-.18.2-.42,0,0,0,.08-.15.35-.24.38s.41-.44.06-.08l-.24.25c-.05,0-.49.35-.15.14s-.15.08-.18.1a3.07,3.07,0,0,1-.31.17l-.24.12c-.16.08-.1.05.19-.08-.12,0-.63.21-.76.25a3.55,3.55,0,0,0-.8.16c.22-.15.43,0,.13,0l-.46,0c-.33,0-.66,0-1,0s-.51,0-.76-.05c0,0-.65-.09-.24,0s-.2,0-.23-.05a6.11,6.11,0,0,1-.74-.17l-.46-.14-.26-.1.16.07c-.31-.16-.6-.33-.9-.5s-.12,0,.05.06c-.09,0-.36-.31-.42-.37L34,42c-.36-.36.21.39,0,0-.07-.13-.15-.25-.21-.37l-.12-.23c.13.31.16.37.09.2a5.76,5.76,0,0,1-.24-.9s0,.66,0,.16c0-.17,0-.33,0-.5,0-.48,0,.17,0,.17a4.12,4.12,0,0,1,.13-.47s-.27.53,0,.07c.1-.17.21-.32.32-.48A2.5,2.5,0,0,0,33,36.24a2.57,2.57,0,0,0-3.42.9Z" style="fill:#1c1b38"/><path d="M36.51,33.6a46.3,46.3,0,0,1-3.66-8c-.86-2.79-1.15-5.75-2.78-8.25l-2.16,3.77,17,.59-2.16-3.76a31,31,0,0,0-4.28,17.39,2.56,2.56,0,0,0,2.5,2.5,2.51,2.51,0,0,0,2.5-2.5,26,26,0,0,1,3.6-14.87,2.53,2.53,0,0,0-2.16-3.76l-17-.59a2.52,2.52,0,0,0-2.16,3.76,10.14,10.14,0,0,1,1.39,3.55c.34,1.37.63,2.75,1.08,4.09a56.59,56.59,0,0,0,4,8.63,2.5,2.5,0,1,0,4.31-2.52Z" style="fill:#1c1b38"/><path d="M39.52,34.49c-.08-1-.15-2-.21-3.07a18.89,18.89,0,0,1,0-3l-.09.67a4.26,4.26,0,0,1,.15-.69l.1-.27c.1-.28-.26.6,0,.13A8.25,8.25,0,0,0,40,26.57a2.5,2.5,0,1,0-4.82-1.33,4.94,4.94,0,0,1-.15.55c-.07.18-.3.57,0-.06a8.93,8.93,0,0,0-.57,1.4,8.07,8.07,0,0,0-.25,2.68c0,1.56.17,3.12.28,4.68a2.57,2.57,0,0,0,.73,1.76,2.5,2.5,0,0,0,4.27-1.76Z" style="fill:#1c1b38"/><path d="M30.74,43.9C27.87,48.5,23.47,52.06,20.9,57a2.52,2.52,0,0,0,1.5,3.67,65.33,65.33,0,0,1,16.14,5.55A2.52,2.52,0,0,0,42.3,64a112.41,112.41,0,0,1,1.35-16.39,2.58,2.58,0,0,0-1.75-3.08,2.51,2.51,0,0,0-3.07,1.75A119.5,119.5,0,0,0,37.3,64l3.77-2.16A69.9,69.9,0,0,0,23.73,55.8l1.49,3.67c2.55-4.84,6.92-8.38,9.84-13a2.5,2.5,0,1,0-4.32-2.53Z" style="fill:#1c1b38"/><path d="M33.22,47.79a19.42,19.42,0,0,0-1,5.44A2.51,2.51,0,0,0,32.9,55a2.51,2.51,0,0,0,3.54,0,2.76,2.76,0,0,0,.73-1.77c0-.45.07-.9.13-1.35l-.09.66A17.59,17.59,0,0,1,38,49.12a2.49,2.49,0,0,0-.25-1.92,2.5,2.5,0,0,0-3.42-.9,2.8,2.8,0,0,0-1.15,1.49Z" style="fill:#1c1b38"/><path d="M29.11,42.91A15.93,15.93,0,0,1,24,45c-2,.52-4,1-6,1.45a45.53,45.53,0,0,1-6,1,31,31,0,0,1-3.34.08c-.48,0-1-.05-1.43-.09l-.77-.08c-.6-.15-.63-.1-.07.13L7,48.53a29.39,29.39,0,0,1-2-7.28,24.31,24.31,0,0,1,.75-8,51.81,51.81,0,0,1,2-7,25.22,25.22,0,0,1,1.4-3.09c.26-.5.55-1,.85-1.47.18-.3.38-.6.58-.89l.25-.35c.18-.23.16-.23-.06,0l-1.26.34.27,0-1.26-.34c3.72,1.63,7.29,3.72,10.9,5.57A54.37,54.37,0,0,1,29,31.74a2.57,2.57,0,0,0,3.53,0,2.52,2.52,0,0,0,0-3.54C27.74,24.29,22,21.74,16.47,18.93l-4.21-2.16C10.68,16,9,15.3,7.55,16.71c-2,1.93-3.32,5.09-4.32,7.64a50.07,50.07,0,0,0-2.31,8,28.51,28.51,0,0,0-.79,9.33,29.17,29.17,0,0,0,1,4.71c.42,1.43.76,3.4,1.76,4.54s2.46,1.21,3.9,1.37a28.9,28.9,0,0,0,5,.06,63.13,63.13,0,0,0,10.65-1.85c3.15-.78,6.48-1.46,9.21-3.31s.16-6.12-2.52-4.32Z" style="fill:#1c1b38"/><path d="M32,32.64c-3.37-1.9-7.17-2.4-10.95-2.86a2.48,2.48,0,0,0-1.76.73,2.49,2.49,0,0,0,0,3.54,3,3,0,0,0,1.76.73l1.26.16c.66.08-.43-.07.09,0l.67.1c.77.11,1.55.25,2.32.43a19.78,19.78,0,0,1,2.25.63l.62.23c.51.19-.43-.2,0,0s.8.39,1.19.61A2.5,2.5,0,0,0,32,32.64Z" style="fill:#1c1b38"/><path d="M28.32,34.55c-3.2-.14-6.4-.16-9.61,0-3,.11-6.34,0-8.91,1.69a2.5,2.5,0,0,0,2.53,4.31,3.23,3.23,0,0,1,1.44-.6,5.72,5.72,0,0,1,1.29-.2c1.45-.12,2.89-.18,4.34-.23,3-.1,6-.07,8.92.06a2.52,2.52,0,0,0,2.5-2.5,2.55,2.55,0,0,0-2.5-2.5Z" style="fill:#1c1b38"/><path d="M29.47,38.32a28.23,28.23,0,0,0-4.93,1.31,30.22,30.22,0,0,1-4.73,1.5,2.52,2.52,0,0,0-1.75,3.08A2.58,2.58,0,0,0,21.14,46a31.36,31.36,0,0,0,4.73-1.51,28.89,28.89,0,0,1,4.93-1.31,2.5,2.5,0,0,0,1.74-3.07,2.56,2.56,0,0,0-3.07-1.75Z" style="fill:#1c1b38"/><path d="M48.5,19.66c3.67-3.35,6.13-7.93,10.79-10.06,5-2.28,10.79-3.35,16.23-4,5.69-.67,11.6-1.29,17.15.43a47.14,47.14,0,0,1,7.12,3A17.83,17.83,0,0,1,106,13.48c1.79,2.24,2.79,5.11,3.74,7.77a94.37,94.37,0,0,1,2.83,9.42c.77,3.12,5.59,1.8,4.82-1.33a92.53,92.53,0,0,0-2.75-9.2A40.1,40.1,0,0,0,111,12c-3.26-5.13-9-7.75-14.48-9.89C90.51-.25,84.43-.27,78.08.33A73.92,73.92,0,0,0,59.64,4.11a22,22,0,0,0-8.52,5.28C49,11.57,47.22,14.06,45,16.12s1.16,5.7,3.53,3.54Z" style="fill:#1c1b38"/><path d="M84.47,7.42A15,15,0,0,0,73.13,9.36a2.5,2.5,0,1,0,2.52,4.32,11.68,11.68,0,0,1,1.08-.63l.49-.24c.57-.26-.42.15,0,0a15.89,15.89,0,0,1,2.24-.64c.19,0,.9-.07.11,0l.47,0c.41,0,.83-.05,1.24-.05s.73,0,1.09.07.21,0-.2,0l.31,0,.61.12a2.5,2.5,0,0,0,1.33-4.82Z" style="fill:#1c1b38"/><path d="M86.78,12.36a17.32,17.32,0,0,1,3.61-.89l-.66.09a17.53,17.53,0,0,1,4.52,0l-.67-.09.8.13a2.69,2.69,0,0,0,1.93-.25,2.58,2.58,0,0,0,1.15-1.5,2.52,2.52,0,0,0-1.75-3.07,19.78,19.78,0,0,0-10.26.77A2.63,2.63,0,0,0,84,8.69a2.48,2.48,0,0,0-.25,1.92,2.52,2.52,0,0,0,3.07,1.75Z" style="fill:#1c1b38"/><path d="M84.72,14.32a5.16,5.16,0,0,1,.87.27l-.6-.25a7,7,0,0,1,1.51.89L86,14.84a14.46,14.46,0,0,1,2.36,2.52L88,16.85l.33.44a1.93,1.93,0,0,0,.65.71,1.78,1.78,0,0,0,.85.44,2.55,2.55,0,0,0,1.93-.25,2.51,2.51,0,0,0,1.14-1.49,2.41,2.41,0,0,0-.25-1.93,20.58,20.58,0,0,0-2.73-3.17,8.75,8.75,0,0,0-3.83-2.1,2.6,2.6,0,0,0-1.93.25A2.56,2.56,0,0,0,83,11.24a2.5,2.5,0,0,0,1.75,3.08Z" style="fill:#1c1b38"/><path d="M81.09,10a28,28,0,0,0-4,5.52A2.51,2.51,0,0,0,78,19a2.53,2.53,0,0,0,1.92.25,2.58,2.58,0,0,0,1.5-1.15,26.15,26.15,0,0,1,2.1-3.22l-.39.51c.48-.62,1-1.22,1.52-1.79a2.6,2.6,0,0,0,.74-1.77A2.58,2.58,0,0,0,84.62,10a2.5,2.5,0,0,0-3.53,0Z" style="fill:#1c1b38"/><path d="M70.55,15.26,55,23.65a52.79,52.79,0,0,1-7,3.36c-2.78,1-5.6,1.85-8.33,3a2.52,2.52,0,0,0-.89,3.42,2.56,2.56,0,0,0,3.42.9c2.53-1.08,5.22-1.77,7.79-2.75A66.48,66.48,0,0,0,57.49,28l15.58-8.39c2.84-1.53.31-5.85-2.52-4.32Z" style="fill:#1c1b38"/><path d="M61.09,13.06c-4.58,2-9.25,4-13.75,6.18-4.19,2.08-7.88,5.05-9.53,9.56a2.51,2.51,0,0,0,1.74,3.07,2.55,2.55,0,0,0,3.08-1.74C44,26.54,47.72,24.55,51,23c4.19-2,8.44-3.78,12.66-5.66A2.52,2.52,0,0,0,64.51,14a2.55,2.55,0,0,0-3.42-.89Z" style="fill:#1c1b38"/><path d="M45.91,38.14a42.76,42.76,0,0,0,16.86-3.92c4.82-2.16,10.29-5.14,12.89-9.94,1.54-2.83-2.78-5.36-4.31-2.52-2.18,4-7.11,6.36-11.1,8.14a36.45,36.45,0,0,1-14.34,3.24c-3.21.06-3.22,5.06,0,5Z" style="fill:#1c1b38"/><path d="M90,28.13c3.93,8.23,13,11.3,20,16.22a2.51,2.51,0,0,0,3.42-.9,2.56,2.56,0,0,0-.89-3.42c-6.32-4.44-14.75-7.14-18.22-14.42a2.53,2.53,0,0,0-3.42-.9,2.56,2.56,0,0,0-.9,3.42Z" style="fill:#1c1b38"/><path d="M98.88,23.69l.74.55c.3.22-.3-.25,0,0l.32.26c.45.37.89.74,1.32,1.14s.84.79,1.24,1.21l.62.69.26.31c.3.36-.12-.18,0,.06a18.92,18.92,0,0,1,1.73,2.91c.16.32-.14-.39,0-.05,0,.13.09.25.14.37.1.28.19.57.27.85s.13.52.19.78,0,.32.08.48c.08.37-.06-.61,0,0a2.57,2.57,0,0,0,2.5,2.5,2.53,2.53,0,0,0,2.5-2.5,15.65,15.65,0,0,0-3.08-7.9,29.41,29.41,0,0,0-6.31-6,2.53,2.53,0,0,0-3.43.9,2.58,2.58,0,0,0,.9,3.42Z" style="fill:#1c1b38"/><path d="M102.63,17.7c.52.27,1,.57,1.51.89.23.15.45.32.68.48s-.4-.32,0,0l.38.32a16.29,16.29,0,0,1,1.2,1.15c.19.21.38.41.56.63a2.85,2.85,0,0,0,.31.38c-.18-.16-.25-.33,0,0a16.71,16.71,0,0,1,1.72,2.95c.19.42-.14-.35,0-.06l.15.39q.15.39.27.78a15.89,15.89,0,0,1,.43,1.78,2.52,2.52,0,0,0,3.08,1.75A2.56,2.56,0,0,0,114.54,26a18.25,18.25,0,0,0-9.39-12.6,2.5,2.5,0,1,0-2.52,4.31Z" style="fill:#1c1b38"/><path d="M58,47.31c3.22,0,3.22-5,0-5s-3.22,5,0,5Z" style="fill:#1c1b38"/><path d="M56.12,46.35a3.72,3.72,0,0,0-.51,2.89,4.38,4.38,0,0,0,1.23,2.18,9,9,0,0,0,3.62,2.16,4.6,4.6,0,0,0,4.75-.93,4.24,4.24,0,0,0,1.12-2.13,5,5,0,0,0-.43-3.11l-3.42,3.42c2.8,1.65,7.43.3,7.9-3.19a7.41,7.41,0,0,0-.77-4,5.31,5.31,0,0,0-3.08-2.82,2.52,2.52,0,0,0-3.08,1.75,2.58,2.58,0,0,0,1.75,3.08c-.39-.18-.47-.21-.24-.1s.15.08-.19-.17a3.63,3.63,0,0,0,.28.27c.16.19.11.13-.15-.2,0,.08.1.15.14.23s.13.24.19.36c.21.38-.21-.6,0,0a2.91,2.91,0,0,1,.12.39,3.78,3.78,0,0,0,.13.56c0-.43-.06-.51,0-.24a1.48,1.48,0,0,1,0,.21c0,.6.16-.48,0-.05.19-.38.22-.46.1-.23.25-.29.31-.37.18-.23s-.06.08.22-.16a1.74,1.74,0,0,1-.26.15c.36-.15.42-.17.17-.08l-.21.07c-.11,0-.45,0-.53.13l.21,0H65.1c-.61,0,.44.17,0,0a2.46,2.46,0,0,1-.29-.09c.37.16.43.18.2,0a2.54,2.54,0,0,0-3,.39A2.94,2.94,0,0,0,61.34,48a2.62,2.62,0,0,0,.25,1.92c-.15-.36-.18-.42-.11-.16,0-.39,0-.49,0-.29,0,.58.1-.31,0-.06s0,.1.13-.24a1.76,1.76,0,0,1-.14.23l.23-.3c-.19.18-.12.14.2-.13-.17.09-.15.09,0,0a.88.88,0,0,1,.53-.11,2.36,2.36,0,0,0-.46,0c.39.06.46.06.18,0l-.15,0c-.19,0-.36-.12-.54-.18s-.1,0,.22.1l-.22-.11-.5-.29-.4-.27c-.41-.27.38.36,0,0a3.34,3.34,0,0,0-.33-.32q.34.48.12.15l-.07-.14c.15.39.19.46.12.2l.07.39c-.08.43-.09.52,0,.26-.18.38-.19.46,0,.25A2.51,2.51,0,0,0,60.69,47a2.58,2.58,0,0,0-1.15-1.5,2.55,2.55,0,0,0-1.93-.25,3,3,0,0,0-1.49,1.15Z" style="fill:#1c1b38"/><path d="M89.1,44.88A8.16,8.16,0,0,0,85,48.58a5.89,5.89,0,0,0-.48,3.72A10.2,10.2,0,0,0,85.64,55c1.16,2.11,3.78,2.84,6,3A3.89,3.89,0,0,0,95,56.81a5.77,5.77,0,0,0,1.19-3.29L93,55.93a13.27,13.27,0,0,0,1.77.38,3.3,3.3,0,0,0,2-.57,3.87,3.87,0,0,0,1.55-4.21,2.5,2.5,0,1,0-4.82,1.33c.12.44,0-.52,0-.25s.15-.64,0-.26l.16-.38c-.1.15-.08.13.06-.07a.61.61,0,0,1,.29-.28c.2-.14.22-.16.07-.07a1.89,1.89,0,0,1,.81-.23c.55,0,.43.07.18,0s-.5-.16-.76-.21a2.56,2.56,0,0,0-2.18.44,2.59,2.59,0,0,0-1,2c.1-.91,0,0-.07.2s0,.16-.08.24l.15-.38c-.17.39.42-.41.13-.14A1.47,1.47,0,0,1,92,53l.4-.05A3.23,3.23,0,0,1,92,53c-.17,0-.33,0-.5,0-.58,0,.57.12,0,0a8.28,8.28,0,0,1-1-.25c-.15,0-.33-.14-.48-.17.32.15.4.18.24.1l-.2-.1-.2-.11c-.15-.1-.09,0,.21.18a1.21,1.21,0,0,1-.16-.16c-.13-.15-.08-.07.17.23-.09-.25-.27-.5-.38-.74s-.13-.28-.2-.41l-.07-.14c-.11-.25-.09-.19.07.17a2.59,2.59,0,0,0-.14-.45c-.15-.42,0,.58,0,.11v-.15c0-.27,0-.18,0,.25a3.06,3.06,0,0,0,.1-.41l0-.14c.09-.25.06-.18-.09.2a3.22,3.22,0,0,0,.2-.37l.07-.12c.15-.22.1-.16-.14.17a2.36,2.36,0,0,0,.29-.33l.27-.25c.42-.36-.25.16,0,0a16.62,16.62,0,0,1,1.59-.9,2.52,2.52,0,0,0,.9-3.42,2.56,2.56,0,0,0-3.42-.9Z" style="fill:#1c1b38"/><path d="M95.83,50.78a23.19,23.19,0,0,0,2-1.55,7.38,7.38,0,0,0,1-1.13,4.62,4.62,0,0,0,.63-1.35,1.9,1.9,0,0,0,0-1,2,2,0,0,0-.3-.93,1.88,1.88,0,0,0-.64-.7,1.94,1.94,0,0,0-.85-.45L97,43.58a2.53,2.53,0,0,0-1.26.34l-.51.39a2.53,2.53,0,0,0-.64,1.11c0,.07,0,.14-.08.22l.25-.6a2.67,2.67,0,0,1-.37.63l.39-.51a5.9,5.9,0,0,1-1,1l.5-.39-.92.69a1.8,1.8,0,0,0-.7.64,1.85,1.85,0,0,0-.45.85,1.89,1.89,0,0,0,0,1,2,2,0,0,0,.3.93A2.56,2.56,0,0,0,93.9,51l.67.09a2.54,2.54,0,0,0,1.26-.35Z" style="fill:#1c1b38"/><path d="M99.05,53a3.69,3.69,0,0,1,.46-.08l-.66.08a6.23,6.23,0,0,1,1.67,0l-.66-.09.67.12a2.57,2.57,0,0,0,1.92-.25,1.8,1.8,0,0,0,.7-.64,1.94,1.94,0,0,0,.45-.85l.09-.67a2.43,2.43,0,0,0-.34-1.26,2.59,2.59,0,0,0-1.49-1.15,9.71,9.71,0,0,0-2.07-.27,9.58,9.58,0,0,0-2.07.22,2.8,2.8,0,0,0-1.49,1.15,1.77,1.77,0,0,0-.3.93,1.89,1.89,0,0,0,0,1,2.53,2.53,0,0,0,1.15,1.49l.6.26a2.5,2.5,0,0,0,1.33,0Z" style="fill:#1c1b38"/><path d="M61.43,63c3.54,1.24,7.29,1.64,10.94,2.41a110.71,110.71,0,0,1,11,3L82.29,64.2a12,12,0,0,1-4.51,3.63,10,10,0,0,1-5.4,1,12.6,12.6,0,0,1-5.36-3,6.72,6.72,0,0,1-1.91-2.33,9.23,9.23,0,0,0-1.65-2.74c-2.21-2.35-5.74,1.19-3.53,3.53A21,21,0,0,1,61.28,67a13.37,13.37,0,0,0,3.06,3.13c2.25,1.76,4.89,3.43,7.78,3.76,5,.57,10.65-2.19,13.71-6.12a2.54,2.54,0,0,0-1.1-4.18,110.71,110.71,0,0,0-11-3c-3.65-.77-7.4-1.18-10.94-2.41A2.5,2.5,0,0,0,61.43,63Z" style="fill:#1c1b38"/><path d="M75.11,60.33a17.83,17.83,0,0,0,4.06.42,5.69,5.69,0,0,0,2.56-.66,5.27,5.27,0,0,0,1.75-1.7,5.86,5.86,0,0,0,.78-1.75,4.79,4.79,0,0,0,.06-2.73,8.44,8.44,0,0,0-2.43-3.32A7.1,7.1,0,0,0,80,49.23a5.52,5.52,0,0,0-2.85-.6,2.73,2.73,0,0,0-1.76.73,2.58,2.58,0,0,0-.74,1.77,2.5,2.5,0,0,0,.74,1.77,2.4,2.4,0,0,0,1.76.73,2.89,2.89,0,0,1,.72,0l-.66-.09a3.39,3.39,0,0,1,.81.23l-.6-.26a4.67,4.67,0,0,1,.94.56l-.5-.39a11.6,11.6,0,0,1,1.92,2l-.39-.5a3.16,3.16,0,0,1,.33.56l-.25-.59a2.3,2.3,0,0,1,.12.45l-.09-.67a3.25,3.25,0,0,1,0,.54l.08-.67a4.59,4.59,0,0,1-.31,1.08l.26-.6a4.11,4.11,0,0,1-.43.73l.39-.51A3,3,0,0,1,79,56l.5-.4a2.56,2.56,0,0,1-.45.27l.6-.25a3.34,3.34,0,0,1-.69.18l.66-.09a10.79,10.79,0,0,1-2.72-.11l.66.09q-.54-.07-1.08-.18a2.64,2.64,0,0,0-1.93.25,2.5,2.5,0,0,0,.6,4.57Z" style="fill:#1c1b38"/><path d="M88.33,60.25a10.34,10.34,0,0,0-2.1,3.37,5.81,5.81,0,0,0,.35,4.29,6.84,6.84,0,0,0,6.34,3.7,8.18,8.18,0,0,0,3.82-.94,5.45,5.45,0,0,0,2.52-3.44,8.89,8.89,0,0,0,.45-3.39A5.5,5.5,0,0,0,99,61.48a5.76,5.76,0,0,0-1.7-1.74,8.66,8.66,0,0,0-3.65-1.48,8.14,8.14,0,0,0-2.15-.14,4.53,4.53,0,0,0-1.69.46,3.8,3.8,0,0,0-1.32,1.23,2.55,2.55,0,0,0-.25,1.93,2.58,2.58,0,0,0,1.15,1.5,2.55,2.55,0,0,0,1.93.25,3,3,0,0,0,1.49-1.15,1.24,1.24,0,0,1-.41.47c-.2.15-.23.17-.07.09l-.6.25a2.4,2.4,0,0,1,.44-.12l-.67.09a5.45,5.45,0,0,1,1.34,0l-.66-.09a8,8,0,0,1,1.84.5l-.6-.26a9.15,9.15,0,0,1,1.3.72c.22.14-.45-.44-.15-.11l.23.23c.2.2-.29-.5-.12-.13a3.65,3.65,0,0,1,.18.34l-.25-.59a3.67,3.67,0,0,1,.2.74l-.09-.66a5.26,5.26,0,0,1,0,1.19l.09-.66a9.67,9.67,0,0,1-.6,2.29l.26-.6c0,.09-.09.17-.13.26s-.1.17.16-.19a2,2,0,0,0-.25.26c.33-.24.42-.31.26-.2l-.15.1-.44.22.59-.25a6.14,6.14,0,0,1-1.53.39l.67-.09a6.52,6.52,0,0,1-1.53,0l.66.09a5.51,5.51,0,0,1-1.19-.32l.6.25a4.12,4.12,0,0,1-.66-.34c-.42-.26.16.1.14.13l-.28-.25c-.08-.07-.14-.16-.22-.23s.34.5.12.16a6.15,6.15,0,0,1-.37-.66l.26.59a3.4,3.4,0,0,1-.25-.84l.09.67a3.7,3.7,0,0,1,0-.88l-.09.66a3.93,3.93,0,0,1,.25-.89l-.25.59a5.36,5.36,0,0,1,.56-1l.16-.23c.17-.25-.34.42-.14.18l.39-.46A2.66,2.66,0,0,0,92.6,62a2.5,2.5,0,0,0-4.27-1.77Z" style="fill:#1c1b38"/><path d="M47.31,52.42a8.2,8.2,0,0,0-1.49,3,5.06,5.06,0,0,0,.76,4A7.81,7.81,0,0,0,52,62.66a7.06,7.06,0,0,0,6-1.84,5,5,0,0,0,1.25-4.36,6.88,6.88,0,0,0-1.44-3.05,5.7,5.7,0,0,0-3.51-2.5,9.58,9.58,0,0,0-4,.28A2.5,2.5,0,1,0,51.57,56c.44-.1.88-.2,1.32-.26l-.66.08a5.73,5.73,0,0,1,1.31,0l-.67-.09a3.65,3.65,0,0,1,.74.19l-.6-.25.34.18c.16.1.15.09,0,0s-.18-.14,0,0,.17.17.24.26.39.48.13.14,0,0,.06.09l.25.36a6.23,6.23,0,0,1,.41.76l-.25-.59a4.06,4.06,0,0,1,.27,1l-.09-.67a2.89,2.89,0,0,1,0,.72l.09-.66a2.16,2.16,0,0,1-.16.55l.26-.6-.12.22c-.14.3.12-.2.19-.21s-.64.58-.19.23-.1.06-.21.12a4.44,4.44,0,0,1-.49.24l.59-.25A5.31,5.31,0,0,1,53,57.8l.66-.09a5.47,5.47,0,0,1-1.4,0l.67.09a6.07,6.07,0,0,1-1.46-.4l.6.25a7.24,7.24,0,0,1-.68-.35c-.07,0-.3-.15-.34-.23l.32.25-.17-.15a4.72,4.72,0,0,1-.5-.5c-.29-.31.31.49.09.1-.1-.16-.19-.31-.28-.48l.26.6a2.57,2.57,0,0,1-.19-.67l.09.67a3.09,3.09,0,0,1,0-.68l-.09.66a3.75,3.75,0,0,1,.23-.79l-.26.6a9.45,9.45,0,0,1,1-1.73A2.5,2.5,0,0,0,51.88,53a2.56,2.56,0,0,0-1.15-1.49,2.49,2.49,0,0,0-1.92-.25,2.81,2.81,0,0,0-1.5,1.15Z" style="fill:#1c1b38"/><path d="M40.44,60.79c2.87,4.2,5.8,8.52,9.81,11.72a36.51,36.51,0,0,0,13.92,6.42,49.62,49.62,0,0,0,16.65,1.91c5.5-.45,11.08-.94,15.92-3.83a76.72,76.72,0,0,0,7.05-5,40.33,40.33,0,0,0,6.55-6,2.56,2.56,0,0,0,0-3.53,2.52,2.52,0,0,0-3.54,0c-3,3.53-6.82,6.29-10.6,8.89A20.78,20.78,0,0,1,90,74.55a44.6,44.6,0,0,1-7.28,1.11,44.47,44.47,0,0,1-7.91.26,47.91,47.91,0,0,1-7.22-1.29c-4.46-1-8.93-2.34-12.77-4.91-4.27-2.86-7.22-7.28-10.07-11.45a2.5,2.5,0,1,0-4.32,2.52Z" style="fill:#1c1b38"/><path d="M47,69.59c-6.56,5.1-13,10.3-17.81,17.14-2.4,3.4-4.45,7-6.85,10.45a59.61,59.61,0,0,1-7.81,9c-3.06,2.9-6.44,5.72-10.67,6.61a2.52,2.52,0,0,0-1.49,3.68c8,11.65,20.07,19.63,32.86,25.14,13.76,5.93,29.2,9.25,43.94,5.1A42,42,0,0,0,98.7,135.06a2.53,2.53,0,0,0-.5-3.92c-2.88-1.82-4-5.38-4.81-8.49-1.2-4.44-2.25-8.92-3.26-13.4a140.57,140.57,0,0,1-3.87-28.19c-.07-3.22-5.07-3.23-5,0,.19,10.28,2,20.46,4.26,30.46,1.06,4.63,2.07,9.33,3.45,13.88,1.21,4,3.09,7.77,6.71,10.06l-.51-3.93c-8.87,9.58-22.29,12.94-35,11.81a73.6,73.6,0,0,1-21-5.43,92.87,92.87,0,0,1-17.45-9.26A56.74,56.74,0,0,1,6.65,113.92l-1.5,3.67c4.06-.85,7.52-3.2,10.62-5.86a63,63,0,0,0,8.62-9c2.64-3.38,4.85-7,7.18-10.61a54.22,54.22,0,0,1,7.89-9.72,131.44,131.44,0,0,1,11-9.23,2.52,2.52,0,0,0,0-3.54,2.56,2.56,0,0,0-3.53,0Z" style="fill:#1c1b38"/><path d="M81.48,94.21c10.19,5.23,21.37,10.75,33.08,10.73,2.81,0,5.59-.74,6.89-3.48a7.58,7.58,0,0,0-.91-7.65,16.71,16.71,0,0,0-6.42-5c-2.53-1.27-5.13-2.44-7.74-3.55A67.88,67.88,0,0,0,87.2,79.83a2.52,2.52,0,0,0-2.5,2.5,2.55,2.55,0,0,0,2.5,2.5,56.53,56.53,0,0,1,14.11,3.73c2.19.85,4.33,1.8,6.47,2.78a48.6,48.6,0,0,1,6.47,3.3c1.27.83,3,2.3,2.88,4s-2.67,1.31-3.94,1.26a45.91,45.91,0,0,1-14-3.14A137.4,137.4,0,0,1,84,89.9c-2.86-1.47-5.39,2.84-2.53,4.31Z" style="fill:#1c1b38"/><path d="M32.67,78.17a9.63,9.63,0,0,1-3.08.41l-4.12.36-7.74.68a21.81,21.81,0,0,1-7.56-.26c-.8-.22-4.25-1.27-4-2.41.09-.47,1.13-1,1.53-1.24A16.09,16.09,0,0,1,11,74.46a45.38,45.38,0,0,1,7.12-1.35A149,149,0,0,1,34,72.35q9.13,0,18.23.84a2.51,2.51,0,0,0,2.5-2.5,2.55,2.55,0,0,0-2.5-2.5c-6.22-.58-12.47-.87-18.72-.83a126.23,126.23,0,0,0-18.54,1.18c-4.64.7-13.6,2.27-13.77,8.41-.08,2.82,2.27,5,4.62,6.08a19.51,19.51,0,0,0,8.81,1.8c3.39-.08,6.79-.53,10.17-.82l5.32-.47a14.91,14.91,0,0,0,5.12-1.06,2.52,2.52,0,0,0,.9-3.42,2.55,2.55,0,0,0-3.42-.89Z" style="fill:#1c1b38"/><path d="M17.48,114.23c4.68,2,5.37,8.17,2,11.57-1.65,1.63,0,5.16,2.43,4.17a13,13,0,0,1,10-.27c2.32,1,4,3.7,2.89,6.22a2.55,2.55,0,0,0,.64,3.23,2.49,2.49,0,0,0,3.29-.2c1.22-1.42,3.18-1.82,5-2.1a15.45,15.45,0,0,1,5.83.18c3.19.76,6.33,2.82,7.62,5.95a2.56,2.56,0,0,0,2.08,1.79,2.44,2.44,0,0,0,2.49-1.19,9.85,9.85,0,0,1,8.45-6.21c4.51-.22,7.63,2.65,10.63,5.63,1.72,1.69,5,0,4.18-2.44-1.81-5.51,2.72-9.92,7.25-12.16A2.52,2.52,0,0,0,93,125a2.56,2.56,0,0,0-3.42-.9c-6.52,3.22-12.05,10.2-9.55,17.81l4.18-2.43c-4-4-8.57-7.55-14.59-7.07a14.73,14.73,0,0,0-12.34,8.66l4.56.6a15.89,15.89,0,0,0-11.11-9.44,21.29,21.29,0,0,0-8.49-.18c-2.61.44-5.39,1.32-7.17,3.39l3.93,3a9.91,9.91,0,0,0-3.76-12.56c-4.28-2.65-10.18-2.59-14.74-.74L23,129.33a12,12,0,0,0-4.17-19.92,2.52,2.52,0,0,0-3.07,1.75,2.55,2.55,0,0,0,1.74,3.07Z" style="fill:#1c1b38"/><path d="M75.72,131.61c3.22,0,3.22-5,0-5s-3.22,5,0,5Z" style="fill:#1c1b38"/><path d="M58.79,133.43c3.22,0,3.23-5,0-5s-3.22,5,0,5Z" style="fill:#1c1b38"/><path d="M42.86,129.8c3.21,0,3.22-5,0-5s-3.23,5,0,5Z" style="fill:#1c1b38"/><path d="M30.64,122c3.21,0,3.22-5,0-5s-3.23,5,0,5Z" style="fill:#1c1b38"/><path d="M40.38,81.72c5.23-.08,10-2.16,14.67-4.31l-3.76-2.16a30.49,30.49,0,0,0,2.89,13.91,2.5,2.5,0,0,0,3.42.9,35.71,35.71,0,0,0,8.52-9.28l-4.66-1.26a33.07,33.07,0,0,0,.65,7.5c.54,2.24,1.68,5.31,4.13,6.06,2.68.81,4.73-1.75,6.36-3.49a45.31,45.31,0,0,0,4.85-6.26l-4.66-1.26a15.37,15.37,0,0,0,9,12.47,2.59,2.59,0,0,0,3.42-.89,2.51,2.51,0,0,0-.9-3.42,10.5,10.5,0,0,1-6.48-8.16c-.29-2.4-3.23-3.49-4.66-1.26a37.79,37.79,0,0,1-3,4.1c-.57.67-1.17,1.32-1.79,2l-1,.92-.49.46c-.53.41-.11.52,1.27.3,0-.18-.73-1.31-.85-1.63a13.68,13.68,0,0,1-.59-2.47,35.1,35.1,0,0,1-.23-4.92,2.52,2.52,0,0,0-4.66-1.26,29.06,29.06,0,0,1-6.72,7.48l3.42.9a25.08,25.08,0,0,1-2.21-11.39c.07-2-2.14-2.9-3.76-2.15-3.85,1.76-7.84,3.56-12.15,3.62-3.21,0-3.22,5,0,5Z" style="fill:#1c1b38"/><path d="M35.91,126.74c4.45-4,10-6.35,14.8-9.91A39.75,39.75,0,0,0,62.2,103.75H57.89a15.24,15.24,0,0,1,.83,3.68,37.9,37.9,0,0,0,1,4.19c.82,2.8,1.93,5.5,3,8.22a116.56,116.56,0,0,1,5.15,17.24c.67,3.15,5.49,1.82,4.82-1.33a116.93,116.93,0,0,0-5.32-17.66c-1-2.72-2.14-5.43-2.93-8.24s-.95-5.88-2.18-8.63c-.76-1.72-3.49-1.54-4.31,0a34.86,34.86,0,0,1-10.71,12c-4.88,3.42-10.33,5.94-14.8,10-2.4,2.15,1.14,5.68,3.53,3.53Z" style="fill:#1c1b38"/><path d="M84.93,127a14.47,14.47,0,0,1-1.6-6.4,49.56,49.56,0,0,1-.17-8.26,45.31,45.31,0,0,1,1.66-7.54,60.64,60.64,0,0,1,2.45-7.6,2.52,2.52,0,0,0-1.74-3.08,2.57,2.57,0,0,0-3.08,1.75,64.8,64.8,0,0,0-2.57,8,47.47,47.47,0,0,0-1.76,8.91,54,54,0,0,0,.28,8.62,18.85,18.85,0,0,0,2.21,8.09c1.63,2.77,6,.26,4.32-2.53Z" style="fill:#1c1b38"/><path d="M24.33,115.91c6.6-2.9,12.1-8.8,16.2-14.59C45,95,46.76,87.51,47.28,79.9a2.51,2.51,0,0,0-2.5-2.5,2.55,2.55,0,0,0-2.5,2.5c-.46,6.77-2.1,13.3-6.07,18.89a50.86,50.86,0,0,1-6.41,7.26,27.59,27.59,0,0,1-8,5.54,2.52,2.52,0,0,0-.9,3.42,2.57,2.57,0,0,0,3.42.9Z" style="fill:#1c1b38"/><path d="M19.8,134.66c-1.34,2.6-3.41,4.82-4.13,7.72a10.17,10.17,0,0,0,1.64,8.37,10.05,10.05,0,0,0,8.11,4.11,11,11,0,0,0,8-3.84,21.57,21.57,0,0,0,5.36-9.25,2.55,2.55,0,0,0-1.75-3.07A2.52,2.52,0,0,0,34,140.44a16.5,16.5,0,0,1-4.48,7.47,6.17,6.17,0,0,1-3,1.84l-.54.1c.21,0,.15,0-.16,0H25c-.31,0-.36,0-.16,0a5.17,5.17,0,0,1-.54-.11,6.36,6.36,0,0,1-1.05-.32c.17.07.12,0-.16-.09l-.48-.28a2.31,2.31,0,0,1-.57-.43,3.72,3.72,0,0,1-.93-1.16,5.39,5.39,0,0,1-.72-3.1c0-.31,0-.35,0-.13a4.82,4.82,0,0,1,.11-.52,7,7,0,0,1,.35-1.1c.1-.23.54-1,.81-1.45.81-1.33,1.74-2.58,2.45-4a2.55,2.55,0,0,0-.89-3.42,2.52,2.52,0,0,0-3.42.89Z" style="fill:#1c1b38"/><path d="M53.94,147.53a10.81,10.81,0,0,0-.22,8c.8,2.46,2,5,4.38,6.27a10.51,10.51,0,0,0,3.37,1.06,9.86,9.86,0,0,0,4.15.11c1.56-.46,2.54-2,3.44-3.22a28.37,28.37,0,0,0,2-3.12c1.53-2.81,2.34-6.12.67-9.07a2.5,2.5,0,0,0-4.32,2.52,3.84,3.84,0,0,1,.21.4c-.11-.25-.11-.23,0,0a3.48,3.48,0,0,1,.1.44c0-.29,0-.28,0,0s0,.53,0,.79,0,.16,0-.1a3.57,3.57,0,0,1-.11.47,9,9,0,0,1-.29.92c.15-.42-.21.43-.25.51-.26.52-.55,1-.85,1.52s-.63,1-1,1.51c-.19.28-.39.55-.6.83s-.2.27-.07.1l-.32.4s-.41.53-.46.5a1.11,1.11,0,0,1,.32-.21c.26-.06.24-.08-.06-.07a8.91,8.91,0,0,0-.89-.08l-.44-.05.13,0a12.15,12.15,0,0,1-1.59-.34l-.41-.13q-.34-.13-.09,0c.28.13-.38-.23-.45-.26-.23-.16-.23-.15,0,0-.11-.09-.22-.18-.32-.28l-.3-.33c.17.21.17.2,0,0-.25-.46-.51-.9-.72-1.39.21.48-.15-.4-.18-.49s-.17-.45-.24-.68a13.26,13.26,0,0,1-.45-1.86c.08.51,0-.16,0-.27,0-.32,0-.62,0-.93s0-.31,0,0c0-.16.06-.31.1-.45s.33-.94.13-.5a2.5,2.5,0,1,0-4.32-2.52Z" style="fill:#1c1b38"/><path d="M37.35,26.72l-.19-2.5L37.07,23A6.34,6.34,0,0,1,37,21.8l-.09.67a.84.84,0,0,1,0-.17l-.25.6,0-.06-.39.51a.47.47,0,0,1,.14-.14L36,23.6l.11-.07-.59.26a1.24,1.24,0,0,1,.33-.09l-.66.09a15.85,15.85,0,0,1,1.69,0c.57,0,1.16,0,1.73,0l-.66-.09a1.89,1.89,0,0,1,.34.09l-.6-.25a.41.41,0,0,1,.11.07l-.5-.39.09.08L37,22.8a.24.24,0,0,1,.06.11l-.25-.59,0,.08-.09-.67a1.13,1.13,0,0,1,0,.26l.09-.66c-.19,1-.46,2.05-.69,3.08a2.7,2.7,0,0,0,.25,1.93,2.56,2.56,0,0,0,1.5,1.14A2.5,2.5,0,0,0,41,25.74c.23-1,.48-2,.68-3a3.3,3.3,0,0,0-.27-2.31,3,3,0,0,0-1.14-1.15A4.42,4.42,0,0,0,38,18.78H36.39a9.78,9.78,0,0,0-2,.12A3.14,3.14,0,0,0,32.13,21a5.54,5.54,0,0,0-.06,2.07l.28,3.64a2.66,2.66,0,0,0,.73,1.77,2.51,2.51,0,0,0,3.54,0,2.46,2.46,0,0,0,.73-1.77Z" style="fill:#1c1b38"/><path d="M35.66,49.92a27.13,27.13,0,0,0-1.41,4c-.15.58-.28,1.17-.39,1.76,0,.32-.09.64-.14,1s-.23.42.1-.07l.23-.29c.87-.4,1.09-.54.68-.44l.67-.09H35l.67.09a13.21,13.21,0,0,1-2.6-.86l-1.3-.51-.73-.29c-.08,0-.46-.19-.08,0,.19.08.22.09.12,0-.48-.26-.2.12.82,1.14L32,56v-.14l-.08.67c0,.11-.28.46-.07.23a2.78,2.78,0,0,0,.21-.27l.45-.62.87-1.17c.13-.19.27-.37.4-.55a2.35,2.35,0,0,1,.19-.25c-.06.06-.37.41-.13.18a1.89,1.89,0,0,0,.2-.2c-.32.22-.39.28-.23.18s.08,0-.11,0c-.37.16-.06,0,0,0l.35-.07-.66.09a16.48,16.48,0,0,0,4.08-.52,5.07,5.07,0,0,0,3.34-3.42A2.5,2.5,0,0,0,36,48.86a1.05,1.05,0,0,1-.05.19c-.06.18,0,.08.14-.31-.06,0-.29.42,0,.06s0-.06,0,0-.13.12.06,0,.2-.15,0,0l-.28.16c-.25.15.58-.2.18-.08a5.36,5.36,0,0,1-.88.21l.66-.09c-.91.12-1.83.1-2.75.22a4.44,4.44,0,0,0-3,1.58c-.66.81-1.26,1.67-1.88,2.51-.24.32-.49.64-.71,1a2.93,2.93,0,0,0-.29,2.82c.57,1.35,1.95,1.74,3.2,2.23.84.34,1.68.65,2.53,1a5.09,5.09,0,0,0,3.19.39,3.51,3.51,0,0,0,2.41-3.05,26.28,26.28,0,0,1,.6-2.8c.14-.48.29-.94.45-1.41.07-.21.14-.41.22-.61s.42-1,.12-.32a2.67,2.67,0,0,0,.25-1.92A2.58,2.58,0,0,0,39.08,49a2.53,2.53,0,0,0-1.92-.25,2.43,2.43,0,0,0-1.5,1.15Z" style="fill:#1c1b38"/><path d="M32.29,22.62c3.22,0,3.22-5,0-5s-3.22,5,0,5Z" style="fill:#1c1b38"/><path d="M112.16,65.67c-.09,1.71-.21,3.41-.36,5.11l-.12,1.28c0,.14,0,.28-.05.41.08-.83,0-.16,0,0s-.07.27-.11.4c-.13.47.24-.58,0,0-.1.16,0,.08.2-.24l-.19.2c.33-.24.38-.29.16-.14s-.16.08,0,0c.43-.2-.18,0-.24,0,.43,0,.51-.07.24,0h-.14l-.29,0c.41.06.47.06.19,0l-.5-.15-.32-.12c.33.14.37.15.11,0l-.47-.22c-.09-.05-.53-.35-.17-.06.18.15.2.17.06,0a1.83,1.83,0,0,1,.45,1.76,1.42,1.42,0,0,1-.37.64l.1-.1.5-.44,1-.85,1-.86.43-.37.29-.25c.38-.31.17-.19-.65.37H111.6l-1.16-.87.09.15a3.14,3.14,0,0,0,.24.39l.42.69a2.5,2.5,0,1,0,4.32-2.52c-.75-1.22-1.57-2.82-3.24-2.75-1.44.07-2.42,1.17-3.44,2a20.38,20.38,0,0,0-2.15,1.88,3.69,3.69,0,0,0-1,2.31,3.12,3.12,0,0,0,1,2.31,8.16,8.16,0,0,0,3,1.6,6,6,0,0,0,3.37.18,4.56,4.56,0,0,0,2.86-2.22,7.92,7.92,0,0,0,.79-3.06c.23-2.17.38-4.35.5-6.53a2.52,2.52,0,0,0-2.5-2.5,2.55,2.55,0,0,0-2.5,2.5Z" style="fill:#1c1b38"/><path d="M116.81,47.77a28.34,28.34,0,0,0,5.09-3.32,5.52,5.52,0,0,0,2.17-2.65,3.27,3.27,0,0,0-1.83-3.75,32.56,32.56,0,0,1-4.7-2.83l-.31-.23,0,0-.46-.37-1.34-1.07a6.32,6.32,0,0,0-2.81-1.31,2.7,2.7,0,0,0-1.93.26A2.39,2.39,0,0,0,109.58,34a3.41,3.41,0,0,0,1,3.29c.43.46,1,.82,1.44,1.24a17.58,17.58,0,0,1,1.37,1.36c.23.26.46.52.69.8.07.09.39.44,0,0a5.09,5.09,0,0,1,.34.47l.9-3.42A2.61,2.61,0,0,1,115,38c-.25.12-.2.1.14-.05a1.92,1.92,0,0,1-.32.09c-.27.06-.22,0,.17,0h-.33c-.28,0-.23,0,.17,0a5.5,5.5,0,0,1-.64-.19,2.51,2.51,0,0,0-3.08,1.75,2.57,2.57,0,0,0,1.75,3.07,5.58,5.58,0,0,0,4.94-.57,2.52,2.52,0,0,0,.9-3.42,24.7,24.7,0,0,0-2.5-3c-.39-.38-.79-.75-1.21-1.1l-.64-.53c-.1-.08-.19-.18-.29-.27s-.07-.07,0,.08a1.45,1.45,0,0,1,.27,1.5l-3.07,1.74.52.11c.49.08-.36-.23.05,0a3.85,3.85,0,0,1,.9.58c-.38-.45-.08-.06.06.05l.42.35c.41.34.84.67,1.27,1a30.32,30.32,0,0,0,4,2.56l1,.54c.07,0,.37.23.43.21l-.29-.23a1.83,1.83,0,0,1,0-2.47,7.3,7.3,0,0,0-.83.75l-.45.37c-.4.33.35-.26-.11.08a26.9,26.9,0,0,1-4,2.45,2.52,2.52,0,0,0-.9,3.42,2.56,2.56,0,0,0,3.42.9Z" style="fill:#1c1b38"/></g></g></svg>