<svg xmlns="http://www.w3.org/2000/svg" viewBox="0 0 144.26 178.76"><g id="Слой_2" data-name="Слой 2"><g id="Слой_9" data-name="Слой 9"><path d="M116.52,47.82c-.12,5-1.7,10.82-5.37,14.39-1.85,1.8-4.43,2.47-6.86,3.08a63.6,63.6,0,0,1-8.56,1.61c-5.64.65-11.82,1-17.25-.94a31.78,31.78,0,0,1-7-3.87c-2.32-1.57-4.62-3.18-6.86-4.85a49.67,49.67,0,0,1-6.32-5.53C56.59,49.86,55,47.87,53.26,46c-3.67-4-7.9-7.13-13.3-8.39S28.14,36,22.72,37.53a10.29,10.29,0,0,0-5.93,3.9c-1.61,2.42-1.38,5.41-.54,8.06,3.84,12.09,15.32,18.87,26.21,23.79a2.58,2.58,0,0,0,3.42-.9A2.51,2.51,0,0,0,45,69c-9.13-4.12-19.14-9.37-23.29-19.09-.7-1.64-1.85-4.31-.58-5.91,1.12-1.39,3.38-1.82,5.05-2.05,5.24-.73,11.38-.51,16.26,1.74,4.51,2.08,7.56,6.18,10.76,9.81A71.13,71.13,0,0,0,65.87,64.24c4.5,3.15,9.06,6.35,14.55,7.45,5.7,1.13,11.69.73,17.41-.06a64.6,64.6,0,0,0,9.74-2,16.19,16.19,0,0,0,7.69-4.44c4.15-4.62,6.11-11.2,6.26-17.32.08-3.22-4.92-3.22-5,0Z" style="fill:#1c1b38"/><path d="M29.67,51.73a19.67,19.67,0,0,1,19,4l2.43-4.18c-3-.91-6.73-.28-8.49,2.54A5.77,5.77,0,0,0,44,61.8a7.12,7.12,0,0,0,1.42.73l0,0c-.18-.5-.27-.61-.24-.33a6.92,6.92,0,0,0-.25,1.16,22.83,22.83,0,0,1-1.35,3.85c-1.26,2.79-2.82,5.43-4,8.24a23.55,23.55,0,0,0-2.18,9.3A36.59,36.59,0,0,0,39.09,95a80.29,80.29,0,0,0,8,18.63,31.66,31.66,0,0,0,5.56,7.52c2.55,2.31,5.72,3.36,9,4.33,6.86,2.07,13.68,3.7,20.9,3.58,7-.11,14.46-1.06,21-3.63a61.89,61.89,0,0,0,9.25-4.71,74.09,74.09,0,0,0,8.3-5.5,23.71,23.71,0,0,0,6.58-8.59A62.79,62.79,0,0,0,132,95.9c2.05-7.68-.09-15.44-3.5-22.38a2.53,2.53,0,0,0-3.42-.9,2.56,2.56,0,0,0-.9,3.42c2.53,5.15,4.49,11.18,3.36,17a41.09,41.09,0,0,1-2.95,8.47,28.86,28.86,0,0,1-4.09,7.44,28.19,28.19,0,0,1-6.7,5.34c-2.59,1.62-5.2,3.23-7.91,4.63a48.52,48.52,0,0,1-17.68,4.8,54,54,0,0,1-19.24-1.36c-3-.76-5.92-1.59-8.79-2.59a12.21,12.21,0,0,1-6-4.53,68.2,68.2,0,0,1-8.21-15.63A70.34,70.34,0,0,1,43.2,91a21,21,0,0,1-.56-9.15c1.22-5.87,5.24-10.68,6.91-16.41.46-1.61.94-3.46.3-5.08-.57-1.46-1.94-2.08-3.06-2.65-.14-.07-.09-.77.15-1,.73-.75,2-.56,2.87-.29,2.34.71,4.29-2.5,2.43-4.18a24.81,24.81,0,0,0-23.9-5.29c-3.06,1-1.75,5.81,1.33,4.83Z" style="fill:#1c1b38"/><path d="M103.55,71a39.71,39.71,0,0,0,10.39,2.72c3.84.52,7.55.62,11.26-.68a75.34,75.34,0,0,0,9.8-4.49c3-1.57,6.83-3.05,8.2-6.39.61-1.51-.93-3.21-2.41-3.17-2.23.07-4.37.67-6.57.84a15.83,15.83,0,0,1-6.13-.93,36.25,36.25,0,0,1-10.43-5.42,2.52,2.52,0,0,0-3.42.9,2.56,2.56,0,0,0,.9,3.42,40.38,40.38,0,0,0,11.62,5.92,20,20,0,0,0,7,1.14c2.37-.1,4.68-.79,7-.87l-2.41-3.16c-.11.26-.68.49-.9.63-.63.39-1.29.75-1.94,1.12q-2,1.14-4.09,2.19a57.44,57.44,0,0,1-8,3.59,18.89,18.89,0,0,1-8.62.48,33.7,33.7,0,0,1-8.74-2.16,2.58,2.58,0,0,0-3.42.9,2.52,2.52,0,0,0,.89,3.42Z" style="fill:#1c1b38"/><path d="M99.1,71.71a4,4,0,0,0-.49,6.2c1.25,1.18,3,1.7,4.6,2.37,1.29.55,2.61,1.2,4,.41a7.7,7.7,0,0,0,1.94-1.88A7.37,7.37,0,0,0,111,72.6a2.5,2.5,0,0,0-4.91.66c0,.11,0,.21,0,.32l0-.36c-.05.09-.08.34-.12.45-.14.49.28-.46,0,0a4.53,4.53,0,0,0-.26.4l.2-.26c-.07.09-.14.16-.21.24s-.33.33-.35.31.5-.34,0,0c-.14.09-.3.16-.45.24s-.1,0,.2-.08l-.24.08-.5.14a1.76,1.76,0,0,1-.42.09c.37,0,.42-.06.14,0l-.17,0a7.11,7.11,0,0,0-1,0c.34.06.42.06.23,0L103,74.7l-.24-.07.21.08-.15-.08c-.23-.16-.19-.13.11.09a2.31,2.31,0,0,1-.34-.36c0,.06.32.46,0,0-.09-.14-.17-.28-.25-.42a2.26,2.26,0,0,1-.11-.22c.13.31.16.38.1.21l-.12-.4c-.18-.47,0,.49,0,0,0-.11,0-.21,0-.32l0,.36c.11-.48-.29.4,0,0s-.27.48,0,0c.16-.13.15-.13,0,0s-.18.14,0,0a2.87,2.87,0,0,0,.39-.2l-.32.14.29-.1.44-.14.85-.31a2.53,2.53,0,0,0,1.79-2.74,2.49,2.49,0,0,0-2.45-2.17h-2.47c-1.22,0-2.47,0-3.38,1-1.3,1.4-1.53,3.47-1.56,5.29a11.78,11.78,0,0,0,.22,2.78,5.82,5.82,0,0,0,1.48,2.65A9.09,9.09,0,0,0,102,82.27a8.07,8.07,0,0,0,3.55.29,3.86,3.86,0,0,0,1.55-.75,4.07,4.07,0,0,0,1.3-1.84,2.46,2.46,0,0,0-.25-1.93,2.56,2.56,0,0,0-1.49-1.15,2.6,2.6,0,0,0-1.93.25,3,3,0,0,0-1.15,1.5,1.76,1.76,0,0,1,.63-.88c-.39.27.51-.13.08,0,.37,0,.45,0,.24,0h-.28l.19,0-.29-.06a18.23,18.23,0,0,1-2.17-.57L101.8,77l.08,0c-.11,0-.36-.18-.45-.23l-.39-.26s.47.41.07,0c-.12-.11-.22-.23-.33-.34s-.07-.07.15.2l-.12-.2c-.3-.49,0,.29,0,0s-.09-.36-.14-.54,0,.5,0,0c0-.18,0-.37,0-.56,0-.35,0-.71,0-1.06s.07-.69.07-1c0,.61,0,.2,0,0s.09-.33.14-.49c.15-.51-.27.43,0,0,.56-.87-.53.75-1.37.62a7.49,7.49,0,0,0,1.16,0h2.37l-.67-4.91a27.17,27.17,0,0,0-2.72,1,4.69,4.69,0,0,0-2.33,3,6.52,6.52,0,0,0,2.91,6.64c2.11,1.3,5,.94,7.19-.06a6.39,6.39,0,0,0,3.68-5.62l-4.91.67c0-.27,0-.43,0-.06,0,.1-.05.46,0,.1l0,.19c0,.11-.07.22-.1.34-.11.36,0-.08,0-.11a2.12,2.12,0,0,0-.21.4,3.26,3.26,0,0,1-.46.7c.12-.12.24-.29,0-.07l-.31.36a8.37,8.37,0,0,0-.57.62c-.17.25.06,0,.19-.1l1.37-.17c-.19-.06-.19-.06,0,0s-.07,0-.14-.06l-.46-.2c-1-.44-2.07-.83-3.06-1.33l-.35-.2c-.35-.17.15.05.13.12s-.41-.48-.13-.08-.09-.3.1.21c.08.2.1.24.06.11s0-.08,0,.34a1.13,1.13,0,0,0,0-.26c.08.2-.12.61-.22.78.1-.16.08-.15,0,.05a1.37,1.37,0,0,1-.42.41,2.5,2.5,0,0,0-2.53-4.32Z" style="fill:#1c1b38"/><path d="M59.85,73A6.33,6.33,0,0,0,58,76.05a5.1,5.1,0,0,0,0,4.07,6.36,6.36,0,0,0,2.66,2.29,10.34,10.34,0,0,0,3.43,1,8.89,8.89,0,0,0,5.86-1.35,5,5,0,0,0,2.29-3.88,7.19,7.19,0,0,0-.37-3,7.3,7.3,0,0,0-4.59-4.75c-2.34-.74-5.16.11-7.24,1.24-2.32,1.25-3.48,4-3.7,6.49a5.58,5.58,0,0,0,1.08,3.7,14.11,14.11,0,0,0,2.21,2.48A6.49,6.49,0,0,0,63.77,86a10.78,10.78,0,0,0,3.93-1,8.7,8.7,0,0,0,3.5-2.24,5.5,5.5,0,0,0,1.26-4.68,2.5,2.5,0,0,0-3.07-1.74,2.56,2.56,0,0,0-1.75,3.07l0-.33c0,.12,0,.23,0,.34l0-.33a2.58,2.58,0,0,1-.1.33l.12-.28a3.14,3.14,0,0,1-.18.31c-.25.47.37-.3,0,0-.13.1-.43.53,0,.07a1.83,1.83,0,0,1-.46.3,5.36,5.36,0,0,1-1,.49c.62-.21,0,0-.08,0l-.58.22c-.39.14-.78.23-1.18.35-.6.17.48,0-.13,0a2,2,0,0,1-.6,0c.53.17.16,0,0,0s-.12,0,.19.1l-.31-.16c-.11-.07-.65-.33-.07,0a1.93,1.93,0,0,1-.4-.35c-.27-.25-.51-.51-.75-.78s-.23-.27-.35-.41l-.11-.14c-.17-.21-.15-.18.06.08a1.12,1.12,0,0,1-.21-.29l-.17-.31c.12.33.14.36,0,.1-.1-.64-.07.54,0-.11,0-.12,0-.77,0-.12a3.91,3.91,0,0,1,.31-1.16c.06-.19.13-.38.2-.56.16-.45,0,0,0,.07a2,2,0,0,1,.26-.51q.24-.35-.06.06l.24-.24c.38-.4-.44.22,0,0l.46-.25.16-.08c.25-.11.21-.1-.12,0a2.3,2.3,0,0,1,.5-.18c.32-.12.63-.23,1-.32a5.66,5.66,0,0,1,.59-.15l.39-.07c-.33,0-.36,0-.07,0,.13,0,.48-.07.59,0l-.27,0,.35.08.15,0q.38.14-.18-.09c.06.08.32.16.4.21a2.71,2.71,0,0,0,.25.17l-.26-.21.22.21c.11.1.21.22.32.33s.13.15-.11-.15c.06.09.12.17.17.26a3.3,3.3,0,0,1,.23.41l.07.14c.11.24.09.19-.07-.17a5.57,5.57,0,0,0,.26.91c.07.27-.11.13,0-.21a1.87,1.87,0,0,0,0,.47,1.61,1.61,0,0,1,0,.54c.06-.36,0-.4,0-.13s-.07.23,0-.1c-.19.5.34-.31,0,0,.49-.43.1-.09,0,0a5.65,5.65,0,0,1-.72.38l.3-.13-.31.1-.46.14a2,2,0,0,0-.48.1q.59-.07.18,0l-.33,0h-.48a3,3,0,0,0-.65,0c.11-.1.53.1.18,0s-.43-.09-.64-.15l-.46-.14c-.26-.1-.21-.08.14.07l-.29-.14c-.15-.07-1-.43-1-.59l.25.18-.24-.21c-.2-.22-.17-.15.08.23a1,1,0,0,1,.25.68c0,.64,0,.22,0,0s.1-.45.17-.67.1-.33.15-.49.08-.22-.06.12c0-.1.09-.2.14-.3s.2-.41.27-.43c-.23.29-.25.33-.07.13a2.52,2.52,0,0,1,.25-.21,2.51,2.51,0,0,0,0-3.54,2.57,2.57,0,0,0-3.53,0Z" style="fill:#1c1b38"/><path d="M105.46,82.47c1.5.5,2.9-.33,4-1.33.59-.58,1.19-1.15,1.79-1.72A6.82,6.82,0,0,0,113,76.78a7.27,7.27,0,0,0,.26-2.86,2.64,2.64,0,0,0-.73-1.77,2.57,2.57,0,0,0-1.77-.73,2.49,2.49,0,0,0-2.5,2.5,9.14,9.14,0,0,1,0,1.48l.09-.66a3.69,3.69,0,0,1-.2.81l.25-.6a3.4,3.4,0,0,1-.41.69l.39-.5A15.16,15.16,0,0,1,107,76.55c-.5.48-1,1-1.53,1.45l.5-.39a2.73,2.73,0,0,1-.43.26l.59-.25-.27.08.66-.09h-.18l.66.09-.18,0a2.5,2.5,0,1,0-1.33,4.82Z" style="fill:#1c1b38"/><path d="M69.13,113.84l.18,0-.66-.09a2.8,2.8,0,0,1,.63.17l-.6-.25a2.08,2.08,0,0,1,.54.32l-.5-.39.29.26a1.82,1.82,0,0,0,.8.52,2.32,2.32,0,0,0,1.93,0,1.77,1.77,0,0,0,.8-.52l.4-.5a2.54,2.54,0,0,0,.34-1.27l-.09-.66a2.52,2.52,0,0,0-.65-1.1l-.16-.17c-.22-.19-.45-.36-.68-.53a3.09,3.09,0,0,0-.42-.25,6,6,0,0,0-1-.4L70,109c-.3,0-.59-.09-.89-.11a2.69,2.69,0,0,0-1.77.73,1.92,1.92,0,0,0-.52.8,2,2,0,0,0-.21,1l.09.66a2.53,2.53,0,0,0,.64,1.11l.51.39a2.53,2.53,0,0,0,1.26.34Z" style="fill:#1c1b38"/><path d="M101.73,112l0-.09-.25.59a4.9,4.9,0,0,1,.62-1.06l-.39.51a4.56,4.56,0,0,1,.85-.85,1.93,1.93,0,0,0,.51-.81,1.84,1.84,0,0,0,.22-1,1.88,1.88,0,0,0-.22-1,1.93,1.93,0,0,0-.51-.81l-.51-.39a2.53,2.53,0,0,0-1.26-.34l-.67.09a2.5,2.5,0,0,0-1.1.64A7.16,7.16,0,0,0,97.78,109a7,7,0,0,0-.87,1.7,1.85,1.85,0,0,0,0,1,1.79,1.79,0,0,0,.29.93,1.85,1.85,0,0,0,.65.71,1.78,1.78,0,0,0,.85.44l.66.09a2.43,2.43,0,0,0,1.26-.34l.51-.39a2.5,2.5,0,0,0,.64-1.1Z" style="fill:#1c1b38"/><path d="M58.85,53.29c1.46-1.14,3.87-1.44,5.64-1.64a31.94,31.94,0,0,1,6.63,0,56.61,56.61,0,0,1,13.13,3.2,54.33,54.33,0,0,0,6.44,2.09,17.44,17.44,0,0,0,7.23,0c2.2-.44,4.38-.72,6.6-1.06a17.82,17.82,0,0,0,6.32-2.45c2.24-1.3,4.48-2.62,6.67-4a13.81,13.81,0,0,0,5.1-4.91c1.54-2.82-2.78-5.35-4.32-2.52a9.62,9.62,0,0,1-3.81,3.42q-3,1.82-6,3.57A14.48,14.48,0,0,1,102.74,51c-2.32.27-4.56.75-6.85,1.14-4.23.72-8.39-1.57-12.3-2.84A55.56,55.56,0,0,0,70,46.53c-4.88-.3-10.69.11-14.66,3.22a2.52,2.52,0,0,0,0,3.54,2.56,2.56,0,0,0,3.53,0Z" style="fill:#1c1b38"/><path d="M120.84,42.51c.41-.56-.33.37.12-.16.11-.13.22-.27.34-.4.25-.28.52-.56.79-.82s.58-.51.86-.76-.31.21.08-.06l.51-.36a13.53,13.53,0,0,1,2-1.13c.06,0,.59-.26.27-.13s.32-.12.39-.14c.36-.13.72-.25,1.09-.35s.68-.17,1-.24l.61-.11c-.59.12.06,0,.17,0,.34,0,.69,0,1-.06H131a1.5,1.5,0,0,1-1.12-.73l-.12-.26c.05.23.06.24,0,0-.06-.39,0,.15,0,.23a9.73,9.73,0,0,1,0,1.08c0,.34.06.31,0,0a1.83,1.83,0,0,1-.13.55c-.12.48.25-.3-.05.08.26-.33.11-.14-.09.05a2.51,2.51,0,0,0,0,3.53,2.54,2.54,0,0,0,3.53,0c1.79-1.62,2.09-4.67,1.51-6.91-.84-3.25-4.6-2.84-7.16-2.4A17.28,17.28,0,0,0,116.52,40a2.5,2.5,0,0,0,.9,3.42,2.57,2.57,0,0,0,3.42-.89Z" style="fill:#1c1b38"/><path d="M119,34.16a14.7,14.7,0,0,1,10.31-3c3.23.29,7.35,1.73,7.66,5.46a11.68,11.68,0,0,1-1.42,5.83,31.63,31.63,0,0,1-3.12,5.64,22,22,0,0,1-4.26,3.85,22.48,22.48,0,0,0-4.38,4.28,2.52,2.52,0,0,0,.9,3.42,2.56,2.56,0,0,0,3.42-.9c2.14-2.84,5.63-4.34,7.86-7.13a27.94,27.94,0,0,0,3.09-5,30.26,30.26,0,0,0,2.44-5.82c1-3.9.45-8.44-2.81-11.15a17.06,17.06,0,0,0-10.54-3.53,19,19,0,0,0-11.68,3.77,2.58,2.58,0,0,0-.89,3.42,2.52,2.52,0,0,0,3.42.9Z" style="fill:#1c1b38"/><path d="M111.76,49.18a59.39,59.39,0,0,0,5.74-6.94A16.28,16.28,0,0,0,119.67,34c.14-5-1.58-10.23-5.48-13.49A2.53,2.53,0,0,0,110,23a13.07,13.07,0,0,1-.05,5.5,6.51,6.51,0,0,1-1.95,4,24.15,24.15,0,0,1-4.46,2.45,13.53,13.53,0,0,1-5,1.48c-3.2.19-3.22,5.19,0,5a19.46,19.46,0,0,0,7.15-2,24.45,24.45,0,0,0,6.07-3.6c3.65-3.28,4-9.68,3.09-14.15l-4.17,2.43c3,2.47,4.12,6.18,4,10a11.24,11.24,0,0,1-1.6,5.89,56.3,56.3,0,0,1-4.84,5.74,2.56,2.56,0,0,0,0,3.54,2.52,2.52,0,0,0,3.53,0Z" style="fill:#1c1b38"/><path d="M54.43,49.2c3.73-1.65,7.46-3.32,11-5.29a46.87,46.87,0,0,1,4.88-2.52A21.23,21.23,0,0,1,76,40a55.34,55.34,0,0,1,12.13-.39c3.66.41,7.12,2.14,10.43,3.67a33.17,33.17,0,0,1,10,6.47c2.26,2.3,5.8-1.24,3.54-3.53a34.36,34.36,0,0,0-9.55-6.54c-3.69-1.8-7.63-3.8-11.67-4.65-4.36-.91-8.9-.55-13.3-.19a30.33,30.33,0,0,0-12.32,3.46c-4.39,2.35-8.8,4.53-13.35,6.55A2.51,2.51,0,0,0,51,48.3a2.57,2.57,0,0,0,3.42.9Z" style="fill:#1c1b38"/><path d="M74.8,35.82c-.69-2.46,0-5.09.36-7.55.47-3,.9-6,1.33-9,.81-5.63,2.21-11.61.59-17.22L72.52,4a103.43,103.43,0,0,1,8.84,14.72C83.93,24,86,29.45,88,34.92a2.56,2.56,0,0,0,3.07,1.75,2.53,2.53,0,0,0,1.75-3.08c-2.13-5.72-4.28-11.46-7-17a102.51,102.51,0,0,0-9-15.14,2.51,2.51,0,0,0-4.57,1.93,20,20,0,0,1,.33,7.9c-.32,2.87-.79,5.74-1.2,8.6s-.85,5.82-1.31,8.72-.89,5.68-.1,8.52c.86,3.1,5.69,1.78,4.82-1.33Z" style="fill:#1c1b38"/><path d="M76.65,24.18l1-1.32-.39.51a43.67,43.67,0,0,1,3.17-3.62,11,11,0,0,0,3-4.31,2.52,2.52,0,0,0-1.74-3.08,2.56,2.56,0,0,0-3.08,1.75c0,.12-.08.24-.13.36l.25-.59a5.81,5.81,0,0,1-.8,1.33l.4-.51c-.87,1.09-1.93,2-2.85,3.07a46.12,46.12,0,0,0-3.08,3.89,2.48,2.48,0,0,0-.25,1.92,2.48,2.48,0,0,0,3.07,1.75,2.79,2.79,0,0,0,1.49-1.15Z" style="fill:#1c1b38"/><path d="M75.65,34.45a19.79,19.79,0,0,0,6.63-2.92c2.16-1.51,4.54-3.5,5.2-6.17A2.5,2.5,0,1,0,82.66,24c0,.13-.09.26-.12.4s.22-.41.07-.15-.25.44-.38.65c-.29.46.25-.28,0,0l-.27.32-.52.54c-.36.35-.73.68-1.11,1a2,2,0,0,1-.32.26c.11,0,.38-.29.11-.09l-.68.48a19.57,19.57,0,0,1-2.62,1.44c-.51.23.37-.15.07,0l-.39.15-.71.25c-.49.16-1,.3-1.51.42a2.52,2.52,0,0,0-1.75,3.07,2.55,2.55,0,0,0,3.08,1.75Z" style="fill:#1c1b38"/><path d="M92,36.23a4.17,4.17,0,0,1,.79,0l-.66-.09a8.42,8.42,0,0,1,2.08.61l-.6-.25A10.8,10.8,0,0,1,96,37.85l-.51-.4a10.81,10.81,0,0,1,1.83,1.81,2.5,2.5,0,0,0,4.27-1.77,2.94,2.94,0,0,0-.73-1.77,12.63,12.63,0,0,0-3.55-3,15.14,15.14,0,0,0-2.33-1A6.92,6.92,0,0,0,92,31.23a2.71,2.71,0,0,0-1.77.73,2.57,2.57,0,0,0-.73,1.77,2.53,2.53,0,0,0,.73,1.77,2.42,2.42,0,0,0,1.77.73Z" style="fill:#1c1b38"/><path d="M59.86,44.07c.46-.57.9-1.16,1.33-1.75l.31-.41c-.13.18-.17.21,0,0s.35-.42.54-.62.43-.43.66-.63l.31-.26c.28-.23-.32.22,0,0,.52-.34,1-.71,1.54-1,1.06-.7,2.11-1.41,3.17-2.1a16.19,16.19,0,0,1,1.44-.87c.06,0,.28-.19.35-.17-.1,0-.4.14,0,0a6.21,6.21,0,0,1,.94-.25L67.3,33c0,.14-.09.29-.15.44s-.18.45,0,.14-.08.14-.11.21l-.23.4c-.06.11-.13.21-.2.32-.25.38,0,.16,0,0,0,.16-.52.58-.62.69a2.5,2.5,0,0,0,0,3.53,2.53,2.53,0,0,0,3.53,0,10.3,10.3,0,0,0,2.64-4.43,2.51,2.51,0,0,0-.65-2.43A2.61,2.61,0,0,0,69,31.2a10,10,0,0,0-3.62,1.6c-1.15.74-2.28,1.51-3.42,2.26a22.15,22.15,0,0,0-3.29,2.48,17.47,17.47,0,0,0-1.46,1.76l-.56.75-.25.33c-.41.56.32-.39-.12.15a2.57,2.57,0,0,0,0,3.54,2.55,2.55,0,0,0,3.54,0Z" style="fill:#1c1b38"/><path d="M49.24,143.51c3-1.24,6.11-2.66,9.36-2.78s6,1.23,8.6,2.86a10.45,10.45,0,0,1,2.8,2.32,10,10,0,0,1,1.57,3.87,20,20,0,0,1,.81,4.54,13.37,13.37,0,0,1-.85,4.46,9.31,9.31,0,0,1-4.88,5.87,23.88,23.88,0,0,1-9.12,1.68A14.09,14.09,0,0,1,49.21,164a14.35,14.35,0,0,1-4.54-6.66,17.8,17.8,0,0,1-1.36-4.89,13.11,13.11,0,0,1,1-5.2c1-2.72,2.89-5.74,6.1-5.7s3.22-5,0-5c-8.47-.1-13.19,10.64-11.83,17.91a25.51,25.51,0,0,0,4.58,10.45,16.23,16.23,0,0,0,9.65,6,28.58,28.58,0,0,0,12.64-.57,14.24,14.24,0,0,0,9.11-6.21,18.06,18.06,0,0,0,2.68-11.47c-.49-3.78-1.45-8-4.21-10.79A22,22,0,0,0,61.73,136c-4.85-.78-9.41.88-13.82,2.74a2.58,2.58,0,0,0-1.75,3.08,2.51,2.51,0,0,0,3.08,1.74Z" style="fill:#1c1b38"/><path d="M97.73,144.36a15.56,15.56,0,0,0-5.09,10.23,14.12,14.12,0,0,0,3.9,10.71c5.62,6.09,15.61,7,23.14,4.45a21,21,0,0,0,13.56-15.95,13.64,13.64,0,0,0-2.78-11.42,18.76,18.76,0,0,0-9.73-6c-4.39-1.22-9.59-1.88-14.07-.85S98,140,94.94,143.44a2.56,2.56,0,0,0,0,3.54,2.52,2.52,0,0,0,3.53,0,21.89,21.89,0,0,1,7.82-6.08c3-1.24,6.61-.88,9.76-.38,5.14.81,11.9,3.34,12.49,9.41.54,5.49-3.31,11.34-7.94,14a18.79,18.79,0,0,1-9.23,2.12,16.5,16.5,0,0,1-9-2.28,10.14,10.14,0,0,1-4.79-7,10.4,10.4,0,0,1,3.63-8.82c2.41-2.15-1.14-5.67-3.53-3.53Z" style="fill:#1c1b38"/><path d="M106.81,125.75a3,3,0,0,1,.93.33c-.1-.11-.36-.16-.06,0a4.54,4.54,0,0,1,.45.21,16,16,0,0,1,1.59,1c.4.26-.18-.16,0,0l.3.25a9.07,9.07,0,0,1,.72.67,7.45,7.45,0,0,1,.6.65s.4.48.18.2.15.21.15.22a12.67,12.67,0,0,1,1,1.63s.26.59.13.28.09.24.11.29c.1.3.2.61.28.91a9.22,9.22,0,0,1,.24,1c0,.11.08.62,0,.06,0,.14,0,.28.05.42a12.5,12.5,0,0,1,0,2.12,2.51,2.51,0,0,0,2.5,2.5,2.55,2.55,0,0,0,2.5-2.5,14.71,14.71,0,0,0-10.36-15.07,2.5,2.5,0,1,0-1.33,4.82Z" style="fill:#1c1b38"/><path d="M113.51,122.17a35.4,35.4,0,0,1,3.48,2.66,11.49,11.49,0,0,1,2.73,3.25,12,12,0,0,1,1.13,4.27c.24,2,.46,4,.69,6a2.58,2.58,0,0,0,2.5,2.5,2.51,2.51,0,0,0,2.5-2.5c-.25-2.15-.48-4.3-.75-6.45a17,17,0,0,0-1.75-6.29c-1.81-3.31-5-5.59-8-7.71a2.5,2.5,0,0,0-2.52,4.32Z" style="fill:#1c1b38"/><path d="M122,131.5c.64,2.15,2.59,3,4.55,3.63a19.52,19.52,0,0,0,6.3,1,2.53,2.53,0,0,0,1.77-4.27,21.85,21.85,0,0,1-3.36-4.18,14,14,0,0,1-1.53-4.74c-.58-3.53-.52-7.15-1.83-10.53l-2.41,3.17c2.89.16,5.83.37,8.73.27a16.48,16.48,0,0,0,4.13-.59c1.28-.39,2.9-1,3.44-2.32,1.31-3.23-3.08-4.77-5.14-6.2a29.29,29.29,0,0,1-5.81-5.25,2.53,2.53,0,0,0-3.54,0,2.56,2.56,0,0,0,0,3.54,32.6,32.6,0,0,0,5.11,4.78c1.8,1.38,3.81,2.41,5.64,3.73l-.9-.9.21.29-.34-1.27V112l.73-1.77c.32-.2.27-.19-.17,0l-.55.18a10.17,10.17,0,0,1-1.35.31,19,19,0,0,1-2.92.11c-2.42,0-4.84-.14-7.26-.28a2.51,2.51,0,0,0-2.41,3.16c1.4,3.64,1.23,7.57,2,11.35.82,4.13,3.16,7.32,6,10.31l1.77-4.27a14.47,14.47,0,0,1-3.65-.44,14.25,14.25,0,0,1-1.75-.55c-.2-.08-.41-.2-.61-.26-.62-.2-.28-.58,0,.27-.93-3.08-5.75-1.77-4.82,1.33Z" style="fill:#1c1b38"/><path d="M129.43,98a23.06,23.06,0,0,0,6.48,0,18.06,18.06,0,0,0,2.72-.59A8.86,8.86,0,0,0,141.92,96a2.76,2.76,0,0,0,.84-2.48,3.26,3.26,0,0,0-1.57-2.25c-.69-.47-1.42-.87-2.11-1.34l-1-.69-.52-.39s-.3-.23,0,0-.06,0-.11-.09c-.65-.52-1.28-1.07-1.88-1.65A25.42,25.42,0,0,1,133.62,85l.11.14s-.2-.27-.22-.3l-.41-.6c-.27-.41-.53-.83-.76-1.26A2.5,2.5,0,0,0,128,85.49a22.52,22.52,0,0,0,4.72,5.83,35.37,35.37,0,0,0,3.13,2.47c.48.34,1,.67,1.46,1l.79.49.32.19c.2.13.21.13,0,0a1.15,1.15,0,0,1-.33-.33l-.34-1.26.05-.39.64-1.1c.73-.39.88-.49.46-.31l-.19.07-.58.22c-.39.13-.79.26-1.18.37s-.74.19-1.11.27l-.61.12-.38.06c.37-.05-.21,0-.28,0l-.62.06c-.41,0-.82,0-1.24,0s-.82,0-1.23,0l-.52,0c-.13,0-.89-.11-.26,0a2.73,2.73,0,0,0-1.92.25,2.54,2.54,0,0,0-1.15,1.5c-.27,1.17.36,2.88,1.74,3.07Z" style="fill:#1c1b38"/><path d="M59.89,137A22.87,22.87,0,0,1,60,133.7c0-.13,0-.27,0-.4,0,.32,0,.34,0,0s.1-.54.16-.81A11.34,11.34,0,0,1,60.6,131l.12-.33c-.14.33-.16.37,0,.12s.19-.42.3-.62a3.84,3.84,0,0,1,.75-1.17c-.22.28-.24.31-.07.1l.22-.26.48-.49.26-.23c.21-.17.17-.15-.1.07a2.27,2.27,0,0,1,.57-.38,2.5,2.5,0,0,0-2.53-4.32,11.81,11.81,0,0,0-4.66,5.85,18.86,18.86,0,0,0-1,7.64,2.5,2.5,0,0,0,5,0Z" style="fill:#1c1b38"/><path d="M51.56,121.3a21.32,21.32,0,0,0-6.76,19,2.52,2.52,0,0,0,3.07,1.75A2.58,2.58,0,0,0,49.62,139c0,.28,0,.07,0-.08s0-.42,0-.63,0-.67,0-1a19.27,19.27,0,0,1,.1-2.14c0-.45,0,.06,0-.21s.05-.33.08-.49q.09-.49.21-1a16.44,16.44,0,0,1,.66-2.17,3.8,3.8,0,0,1,.18-.47c.15-.39-.13.28,0-.1s.32-.69.49-1a19.17,19.17,0,0,1,1.1-1.85,8.67,8.67,0,0,1,1.07-1.38,18.7,18.7,0,0,1,1.61-1.6,2.5,2.5,0,0,0-3.53-3.53Z" style="fill:#1c1b38"/><path d="M43.29,133.07c-3.45,1.61-6.86,3.34-10.19,5.19-3.17,1.75-6.2,3.77-9.43,5.41-6.16,3.15-13.2,2.81-19.71,1-2.77-.77-4.33,3.08-1.93,4.57a83.09,83.09,0,0,0,9.45,5.58,26.44,26.44,0,0,0,10.29,2.06,43.32,43.32,0,0,0,20-4.46,2.52,2.52,0,0,0,.9-3.42,2.56,2.56,0,0,0-3.42-.9,37.9,37.9,0,0,1-17.45,3.78,20.27,20.27,0,0,1-8.6-1.77c-3-1.48-5.78-3.43-8.62-5.19l-1.92,4.57c7.38,2,15.26,2.3,22.35-.91,3.49-1.58,6.68-3.79,10-5.66q5.3-3,10.82-5.53a2.5,2.5,0,0,0-2.53-4.32Z" style="fill:#1c1b38"/><path d="M14.13,155.94c.57,2.53,3,4.43,5.27,5.51a27.47,27.47,0,0,0,7.22,2.16c5.47,1,11.06.94,16.13-1.58,2.88-1.43.35-5.75-2.52-4.32-3.64,1.81-7.93,1.81-11.86,1.16a30.07,30.07,0,0,1-5.82-1.46c-1.21-.48-3.29-1.42-3.6-2.8-.71-3.14-5.53-1.81-4.82,1.33Z" style="fill:#1c1b38"/><path d="M41.6,161.34c-2.06.48-4.56,1.57-5.79,3.39-1.46,2.16-.34,4.59,1.52,6.07,3.52,2.8,8.44,2.89,12.72,3.41Q64.72,176,79.49,177T109,178.28c9.7.15,19.36.32,28.43-3.6,2.28-1,4.37-2.42,5.29-4.83a5.92,5.92,0,0,0-1.94-6.76,17.71,17.71,0,0,0-13.46-3.9,2.58,2.58,0,0,0-2.5,2.5,2.53,2.53,0,0,0,2.5,2.5,13.49,13.49,0,0,1,9.29,2c1,.62,2,1.27,1.16,2.41s-2.66,1.69-3.94,2.17c-7.67,2.86-15.78,2.63-23.84,2.52q-25.27-.35-50.43-3c-4.53-.47-9.07-1-13.58-1.6a13.58,13.58,0,0,1-5-1.4,6,6,0,0,1-1-.81s0,1,0,1a1.6,1.6,0,0,0,.25-.18,13.19,13.19,0,0,0,1.3-.75,8.1,8.1,0,0,1,1.43-.43c3.13-.74,1.81-5.56-1.33-4.82Z" style="fill:#1c1b38"/><path d="M71.21,164.11A82.83,82.83,0,0,0,94.69,164a2.51,2.51,0,0,0,1.75-3.07,2.56,2.56,0,0,0-3.07-1.75,74.16,74.16,0,0,1-20.83.13A2.58,2.58,0,0,0,69.46,161a2.52,2.52,0,0,0,1.75,3.08Z" style="fill:#1c1b38"/><path d="M62.53,57.72a66.1,66.1,0,0,1,11.1-2.8,2.51,2.51,0,0,0,1.74-3.08A2.56,2.56,0,0,0,72.3,50.1a65.15,65.15,0,0,0-11.1,2.8A2.55,2.55,0,0,0,59.46,56a2.51,2.51,0,0,0,3.07,1.74Z" style="fill:#1c1b38"/><path d="M67.76,62.13a112.86,112.86,0,0,0,18.73-4,2.5,2.5,0,1,0-1.33-4.82,106.7,106.7,0,0,1-17.4,3.79,2.57,2.57,0,0,0-2.5,2.5,2.52,2.52,0,0,0,2.5,2.5Z" style="fill:#1c1b38"/><path d="M77.35,66.84a98.55,98.55,0,0,0,24-8.24,2.5,2.5,0,1,0-2.52-4.32A92.53,92.53,0,0,1,76,62a2.53,2.53,0,0,0-1.75,3.08,2.56,2.56,0,0,0,3.08,1.75Z" style="fill:#1c1b38"/><path d="M90.7,69.35c9.84-1.16,18.07-6.45,26.07-11.93a2.56,2.56,0,0,0,.89-3.42,2.53,2.53,0,0,0-3.42-.9C107.12,58,99.51,63.31,90.7,64.35a2.58,2.58,0,0,0-2.5,2.5,2.51,2.51,0,0,0,2.5,2.5Z" style="fill:#1c1b38"/><path d="M41.83,170.08a13.65,13.65,0,0,1,1.56.12l-.67-.09a14.36,14.36,0,0,1,3.59,1l-.6-.25a13.46,13.46,0,0,1,1.61.81,2.5,2.5,0,0,0,2.53-4.32,16.9,16.9,0,0,0-8-2.25,2.51,2.51,0,0,0-2.5,2.5,2.55,2.55,0,0,0,2.5,2.5Z" style="fill:#1c1b38"/><path d="M66.27,173.85a73.39,73.39,0,0,0,12.77-5c1.59-.8,1.43-2.75.51-3.93a4.17,4.17,0,0,0-6.13-.1A2.53,2.53,0,0,0,75.86,169a77.85,77.85,0,0,1,15-1.49,6.91,6.91,0,0,1,2.61.12,5.91,5.91,0,0,1,1.07.87,13.54,13.54,0,0,0,1.73,1.18,35.85,35.85,0,0,0,6.42,2.53c8.46,2.82,18.67,4.73,26.38-1.08a17.16,17.16,0,0,0,2.69-2.49c.64-.73.6-1.07,1.43-.67,2.52,1.21,5,2.65,7.35,4.1l.59-4.57a122.84,122.84,0,0,1-15.3,3.39l1.33,4.82c4.42-1.27,9.31-3,11.49-7.43.91-1.83-.61-4.4-2.82-3.68l-2.61.86a10.46,10.46,0,0,1-2.1.69l1.26.34.14.12.64,1.1c-.22-.58,0-.15,0-.11a4.16,4.16,0,0,0,0-.61,4.52,4.52,0,0,0-.44-1.84,3.91,3.91,0,0,0-3.34-2c-2.47-.1-4.1,2.15-5.81,3.6-3.65,3.08-8.12,4.36-12.73,5.24a73.93,73.93,0,0,1-15.53,1.81,107.53,107.53,0,0,1-16.09-1.91q-4.56-.8-9.06-1.83c-1.42-.33-2.84-.67-4.25-1-1-.25-2.2-.37-2.91-1.18l-1.77,4.27c7,0,14.09-.19,21.12,0a81.51,81.51,0,0,1,20.1,2.57l.66-4.91A166.29,166.29,0,0,1,80,169.8a2.52,2.52,0,0,0-2.5,2.5,2.55,2.55,0,0,0,2.5,2.5,166.29,166.29,0,0,0,23.09-.09c2.73-.2,3.51-4.12.67-4.91C90,166,75.29,167,61.18,167.08a2.53,2.53,0,0,0-1.76,4.27c1.77,2,4.77,2.4,7.23,3q4.38,1.07,8.8,1.91a140.86,140.86,0,0,0,17.84,2.43c5.93.36,11.74-.61,17.55-1.66,5.23-.94,10.41-2.3,14.71-5.57a17.24,17.24,0,0,0,3.51-3c.06-.09.27-.18.31-.28s0-.11-.19-.06c-.57,0-.93-.35-1.07-1.13a4,4,0,0,0,.15,1.83c1.12,4.15,6.31,1.45,8.9.61l-2.83-3.68c-1.58,3.19-5.32,4.23-8.5,5.14a2.5,2.5,0,0,0,1.33,4.82,122.84,122.84,0,0,0,15.3-3.39,2.53,2.53,0,0,0,.6-4.57c-2.2-1.33-4.44-2.6-6.73-3.78-2.45-1.26-4.82-1.88-7.1.08-1.5,1.28-2.51,2.81-4.26,3.83a15.88,15.88,0,0,1-5.76,1.92c-4.68.66-9.42-.56-13.84-2a34.74,34.74,0,0,1-6.58-2.47c-1-.54-1.7-1.34-2.63-1.93a6.73,6.73,0,0,0-3.6-.91,81.48,81.48,0,0,0-18,1.66L77,168.32a1,1,0,0,1-.65.14c-.2,0-.69-.54-.3,0l.51-3.93A66.11,66.11,0,0,1,64.94,169c-3.09.89-1.78,5.71,1.33,4.82Z" style="fill:#1c1b38"/></g></g></svg>