<svg xmlns="http://www.w3.org/2000/svg" viewBox="0 0 153.86 162.16"><g id="Слой_2" data-name="Слой 2"><g id="Слой_10" data-name="Слой 10"><path d="M16.34,48.37c3.18,2.46,7.36,3,11.23,3.53,4.22.58,8.23.36,12-1.76,6.6-3.7,11.28-11.78,10.9-19.37a15.66,15.66,0,0,0-4.23-10.12c-2.93-3.07-6.82-4-10.91-4.3-7.87-.6-17.23.61-22.15,7.5A21,21,0,0,0,9.8,35.76a16.69,16.69,0,0,0,1.2,7,19.63,19.63,0,0,0,4,5.35c2.22,2.34,5.75-1.2,3.53-3.53a16.4,16.4,0,0,1-2.88-3.61,10.21,10.21,0,0,1-.87-4.6,17.61,17.61,0,0,1,1.57-8c2.94-5.93,9.82-7.06,15.85-7.06,3.05,0,6.65,0,9.25,1.83a10.06,10.06,0,0,1,3.87,6.37c1.11,5.61-2.25,12.05-6.69,15.37a12.73,12.73,0,0,1-9.48,2.3c-3.49-.39-7.45-.85-10.31-3a2.51,2.51,0,0,0-3.42.89,2.55,2.55,0,0,0,.9,3.42Z" style="fill:#1c1b38"/><path d="M26.77,36.07a8.08,8.08,0,0,1,2.43-2.29c.11-.06.35-.16.1-.06a4.59,4.59,0,0,1,.48-.17,9.1,9.1,0,0,1,1-.27q.51-.11,1-.18c-.28,0,0,0,.1,0l.59-.05a13.53,13.53,0,0,1,1.91,0l.48,0,.26,0,.26,0,.46.1a8.52,8.52,0,0,1,.9.26s.48.18.25.08.18.1.22.12a8,8,0,0,1,.8.47c.32.21-.25-.23,0,0l.43.4A2.5,2.5,0,1,0,42,31.05c-2.58-2.52-6.29-3.27-9.79-3a14.67,14.67,0,0,0-5.56,1.4,13,13,0,0,0-4.23,4.09,2.51,2.51,0,0,0,.9,3.42,2.58,2.58,0,0,0,3.42-.9Z" style="fill:#1c1b38"/><path d="M71.11,27.32c1,3.42,2.21,7.61,4.93,10.11a13.31,13.31,0,0,0,9.64,3.14A41.05,41.05,0,0,0,97,38.38c3.37-1.15,6.37-3,8-6.26,1.54-3.15,2.8-7.09,2.57-10.62a12.86,12.86,0,0,0-4.42-8.75,18.27,18.27,0,0,0-9.58-4.16,22,22,0,0,0-5.06-.23,11.92,11.92,0,0,0-5.74,2.26C76.52,14.91,67.92,21,69.89,29.71c.71,3.14,5.53,1.81,4.82-1.33-1.18-5.28,5.08-9.45,8.67-12.08A30.64,30.64,0,0,1,86.82,14a7.18,7.18,0,0,1,3.91-.64,15.67,15.67,0,0,1,7.85,2.21,8.66,8.66,0,0,1,3.83,5c.66,2.6-.4,5.5-1.28,7.93a7.41,7.41,0,0,1-4.6,4.74,40.3,40.3,0,0,1-8.4,2.07c-2.72.44-6,.58-8.33-1.22A7.62,7.62,0,0,1,77.71,31a48.67,48.67,0,0,1-1.78-5c-.93-3.07-5.76-1.77-4.82,1.33Z" style="fill:#1c1b38"/><path d="M85,28.44c.1-.1.21-.21.33-.31s.22-.14,0,0c.28-.17.55-.36.85-.51,0,0,.47-.19.21-.1s.18-.05.23-.06a6.46,6.46,0,0,1,.86-.24c.17,0,1.07-.17.58-.12L89,27a18.5,18.5,0,0,1,2,0l.91.06.45.05c.4,0-.37-.07,0,0a15.33,15.33,0,0,1,1.9.42,8.69,8.69,0,0,1,.86.29c-.43-.18.27.16.4.24s.3.2.46.3-.22-.24,0,0,.48.47.7.72a2.49,2.49,0,0,0,3.53,0,2.55,2.55,0,0,0,0-3.53c-2.23-2.69-5.94-3.38-9.24-3.56s-7,.43-9.51,2.88a2.52,2.52,0,0,0,0,3.53,2.55,2.55,0,0,0,3.54,0Z" style="fill:#1c1b38"/><path d="M47.16,59.44c.45-3.7,3.26-6.86,5.41-9.72a35.68,35.68,0,0,0,5.82-11.15c2.31-7.71,1.45-16.42-3.39-23A22.41,22.41,0,0,0,46.43,8.3C42.2,6.37,37.6,6,33,6.17,25,6.45,16.49,8,10,13A26.09,26.09,0,0,0,0,33.1,28.39,28.39,0,0,0,8.51,53.65a31.88,31.88,0,0,0,9.2,6.48,45.93,45.93,0,0,0,5.32,2c1.31.43,2.78,1,3,2.54a8.51,8.51,0,0,1-1.26,4.56c-1,1.86-2.2,3.59-3.31,5.36Q17.79,80.41,14.6,86.5A172.68,172.68,0,0,0,3.8,111.73C.87,120.52-1,129.91.6,139.16a29.23,29.23,0,0,0,12.31,19.16,22.48,22.48,0,0,0,10.23,3.75c4,.44,7.82-.8,11.61-2a21.34,21.34,0,0,1,5.61-1.28c2-.07,3.21.67,4.85,1.65,4.24,2.52,8.8-.63,12.7-2.44,3.4-1.58,7.22-3.18,11-2,2.12.67,4.06,1.68,6.36,1.46s4.14-1.37,6.28-2c3.52-1,7.28.35,10.75,1,4.15.77,8.13.8,11.88-1.36,1.68-1,3.24-2.29,5.14-2.77s4.1-.07,6.07.08a14.71,14.71,0,0,0,6.42-.65,27.71,27.71,0,0,0,5.28-3c6.94-4.54,16-4.24,22.34-10a13.19,13.19,0,0,0,4.4-10.84,20.81,20.81,0,0,0-4.91-11.25c-4.82-6-11.91-9.59-19-12.07-8.1-2.82-16.61-4.5-24.93-6.51l-14-3.37c-3.13-.76-4.46,4.06-1.33,4.82,9.07,2.18,18.14,4.34,27.21,6.55,6.87,1.67,13.88,3.5,20.08,7,5.56,3.18,12,8.8,12,15.77,0,7.86-9.54,9.87-15.42,11.61a42.9,42.9,0,0,0-5.83,2.16,49,49,0,0,0-5.1,3.08,9.4,9.4,0,0,1-4.81,1.69c-2.06,0-4.1-.34-6.16-.37a13.16,13.16,0,0,0-6.07,1.34c-1.72.85-3.21,2.16-5,2.92-3.14,1.34-6.74.29-9.92-.38-3.68-.77-7.53-1.38-11.17-.1-1.67.59-3.52,1.8-5.36,1.53-2-.3-3.79-1.43-5.83-1.72-4.16-.6-8.09.8-11.84,2.48-1.86.84-3.68,1.77-5.56,2.57a4.89,4.89,0,0,1-2.35.67,7.54,7.54,0,0,1-2.08-1.21C39,151,31.7,157.49,24.19,157.15c-6.49-.29-12.2-4.94-15.47-10.29-4.15-6.8-4.39-15.2-3-22.85,1.55-8.51,4.73-16.78,8.22-24.66a175.92,175.92,0,0,1,12.29-23C28.32,73,30.67,69.69,31,65.68a7.59,7.59,0,0,0-1.39-5.08,10,10,0,0,0-5.23-3.31c-6.51-2.1-12.23-5.76-15.89-11.68A22.65,22.65,0,0,1,6.25,26.37C8.55,19.56,14.14,15.06,20.88,13A45.72,45.72,0,0,1,32,11.21c3.92-.19,8.09-.23,11.77,1.34C49.83,15.14,54,21.53,54.55,28a25.2,25.2,0,0,1-1.73,11.39c-1.39,3.61-3.74,6.62-6,9.7s-4.17,6.39-4.64,10.32a2.53,2.53,0,0,0,2.5,2.5,2.55,2.55,0,0,0,2.5-2.5Z" style="fill:#1c1b38"/><path d="M92.29,124.32c3.21-8.78,2.5-18.24,1.13-27.3C92,87.51,90.19,78,88.56,68.56c-.79-4.63-1.88-9.69-1.3-14.41,0-.2.27-.78,0-.43a2.48,2.48,0,0,1,.81-.51c1-.48,2-.9,3-1.34,2.13-.93,4.25-1.87,6.33-2.87,7.63-3.68,15.13-8.63,19.42-16.16,4.09-7.17,4.63-16.66-.58-23.43C111.41,3.09,103.2.52,95.51.07c-8-.47-16.43,1.51-22.87,6.42A26.36,26.36,0,0,0,62.17,26.37a22.61,22.61,0,0,0,2.72,11.15C66.73,41,69.36,44.21,70.65,48a14.68,14.68,0,0,1,.74,6.34c-.06.59-.12,2.07-.57,2.5.05,0,.12-.13-.11-.08a16.77,16.77,0,0,1-2.12.14c-4.87.3-9.76.38-14.64.27-2.48-.06-5-.18-7.44-.34a2.5,2.5,0,0,0,0,5q7.18.47,14.39.37c2.48,0,5-.14,7.44-.28,2.26-.14,4.81-.06,6.36-2,1.36-1.67,1.63-4.19,1.74-6.27a18.73,18.73,0,0,0-.84-6.61c-1.24-3.94-3.68-7.26-5.71-10.81a18.48,18.48,0,0,1-2.72-9.87A20.49,20.49,0,0,1,70,16.86c3.76-6.49,10.56-10.18,17.8-11.43,7-1.2,15-.28,21,3.7,6.31,4.21,7.69,12.13,4.92,18.9-3,7.38-10.06,12.23-16.91,15.73-2,1-4,2-6.07,2.86a43.22,43.22,0,0,0-5.8,2.62c-2,1.31-2.58,3.28-2.68,5.59a46.17,46.17,0,0,0,.35,7.34c1.12,9.5,3.11,18.94,4.73,28.37,1.47,8.53,3.27,17.49,1.83,26.16A35.34,35.34,0,0,1,87.47,123a2.5,2.5,0,0,0,4.82,1.33Z" style="fill:#1c1b38"/><path d="M21.6,119.13a15.94,15.94,0,0,1,1.95,3.4l-.25-.59c.11.25.21.5.3.76a2.67,2.67,0,0,0,1.15,1.49,2.48,2.48,0,0,0,1.92.25,2.51,2.51,0,0,0,1.5-1.15,2.44,2.44,0,0,0,.25-1.92,18.08,18.08,0,0,0-2.51-4.76,1.8,1.8,0,0,0-.64-.7,1.85,1.85,0,0,0-.85-.45,2.5,2.5,0,0,0-3.08,1.74,2.41,2.41,0,0,0,.26,1.93Z" style="fill:#1c1b38"/><path d="M29.32,117.51,31,120.64a1.8,1.8,0,0,0,.64.7,1.94,1.94,0,0,0,.85.45,1.89,1.89,0,0,0,1,0,2,2,0,0,0,.93-.3,2.58,2.58,0,0,0,1.15-1.5l.09-.66a2.53,2.53,0,0,0-.34-1.26L33.64,115a1.93,1.93,0,0,0-.65-.71,1.78,1.78,0,0,0-.85-.44,2.71,2.71,0,0,0-1.92.25,2.46,2.46,0,0,0-1.15,1.49l-.09.67a2.43,2.43,0,0,0,.34,1.26Z" style="fill:#1c1b38"/><path d="M70,136c.08.08.15.17.22.25l-.4-.5a5.18,5.18,0,0,1,.67,1.13l-.25-.59a5,5,0,0,1,.36,1.31l-.09-.66a.59.59,0,0,1,0,.14,1.88,1.88,0,0,0,.22,1,1.83,1.83,0,0,0,.51.8,1.85,1.85,0,0,0,.81.52,1.88,1.88,0,0,0,1,.22,2.5,2.5,0,0,0,1.77-.74l.39-.5a2.43,2.43,0,0,0,.34-1.26,9.69,9.69,0,0,0-.23-1.43,8.9,8.9,0,0,0-.51-1.33,7.31,7.31,0,0,0-1.25-1.86,2.4,2.4,0,0,0-2.73-.51,1.93,1.93,0,0,0-.81.51,2.55,2.55,0,0,0-.73,1.77l.09.66A2.48,2.48,0,0,0,70,136Z" style="fill:#1c1b38"/><path d="M77.64,136.46a4.1,4.1,0,0,1,.49.53l-.39-.51a4.43,4.43,0,0,1,.51.86l-.25-.59a4.34,4.34,0,0,1,.29,1.07l-.09-.67a4.18,4.18,0,0,1,0,1l.09-.66a2.07,2.07,0,0,1,0,.22,1.85,1.85,0,0,0,0,1,1.82,1.82,0,0,0,.29.93,2.54,2.54,0,0,0,1.5,1.15,2.47,2.47,0,0,0,1.92-.25,2.44,2.44,0,0,0,1.15-1.5,6.58,6.58,0,0,0,.15-1.66,6.39,6.39,0,0,0-1-3.16,6.23,6.23,0,0,0-1.06-1.28,2.66,2.66,0,0,0-1.77-.73,2.53,2.53,0,0,0-1.77.73,2.5,2.5,0,0,0,0,3.53Z" style="fill:#1c1b38"/><path d="M111.41,119.75a.49.49,0,0,1,.17.06l-.59-.26a1.14,1.14,0,0,1,.23.15l-.5-.39a1.61,1.61,0,0,1,.22.23l-.39-.51a2.82,2.82,0,0,1,.21.38l-.25-.6a3.45,3.45,0,0,1,.17.63l-.09-.67c0,.38,0,.77,0,1.15a11.79,11.79,0,0,0,.12,1.18,2.59,2.59,0,0,0,.16.59,2,2,0,0,0,.45.85,1.88,1.88,0,0,0,.7.64,2,2,0,0,0,.93.3,1.86,1.86,0,0,0,1,0,2.51,2.51,0,0,0,1.5-1.15l.25-.59a2.5,2.5,0,0,0,0-1.33,2.69,2.69,0,0,1-.16-.62l.09.66a10.85,10.85,0,0,1,0-1.14c0-.16,0-.32,0-.49a7.43,7.43,0,0,0-.18-1,4.61,4.61,0,0,0-1-1.75,3.64,3.64,0,0,0-.78-.64.51.51,0,0,0-.16-.09,3.73,3.73,0,0,0-.78-.31,2.53,2.53,0,0,0-1.92.25,2.5,2.5,0,0,0,.6,4.57Z" style="fill:#1c1b38"/><path d="M117.93,119.83a1.46,1.46,0,0,1,.3.17l-.5-.39a1.92,1.92,0,0,1,.28.29l-.39-.51a2.08,2.08,0,0,1,.22.38l-.25-.59a1.66,1.66,0,0,1,.12.45l-.09-.67a1.85,1.85,0,0,1,0,.47l.09-.66a1.61,1.61,0,0,1-.1.36l.25-.6a1.51,1.51,0,0,1-.15.28,1.86,1.86,0,0,0-.3.93,1.89,1.89,0,0,0,0,1,1.83,1.83,0,0,0,.44.85,1.87,1.87,0,0,0,.7.64l.6.26a2.72,2.72,0,0,0,1.33,0l.6-.26a2.53,2.53,0,0,0,.89-.89,1.74,1.74,0,0,0,.11-.18,5.92,5.92,0,0,0,.31-.73,4.29,4.29,0,0,0,.18-1,1.61,1.61,0,0,0,0-.38,5.51,5.51,0,0,0-.15-1,5.7,5.7,0,0,0-.37-.92,5.28,5.28,0,0,0-.58-.8,1.66,1.66,0,0,0-.27-.26,3.58,3.58,0,0,0-.81-.57,1.9,1.9,0,0,0-.93-.3,2,2,0,0,0-1,.05,1.89,1.89,0,0,0-.85.45,1.83,1.83,0,0,0-.65.7l-.25.6a2.46,2.46,0,0,0,0,1.32l.25.6a2.43,2.43,0,0,0,.9.9Z" style="fill:#1c1b38"/><path d="M52,78.15a20.22,20.22,0,0,1,.47,2.29l-.09-.66a19.14,19.14,0,0,1,.12,3.55,2.5,2.5,0,0,0,4.26,1.77,2.77,2.77,0,0,0,.74-1.77,20.15,20.15,0,0,0-.68-6.51,2.63,2.63,0,0,0-1.15-1.49A2.5,2.5,0,0,0,52,78.15Z" style="fill:#1c1b38"/><path d="M36.79,81.35C43.9,80.11,51,78.58,58.18,77.93a67.1,67.1,0,0,1,11.07-.16c.85.06,2.44-.1,2.94.7.65,1,.41,2.91.39,4.07A22.77,22.77,0,0,1,70,92.21c-1.4,2.79-4.1,3.82-6.89,4.86-5.66,2.1-12.23,3.18-17.82.29a12.53,12.53,0,0,1-6-6A21.52,21.52,0,0,1,38,85.89c-.22-1.62-.61-3.43-.14-5,.92-3.09-3.91-4.41-4.82-1.33a14,14,0,0,0-.12,5.69A35.42,35.42,0,0,0,34,91.37a17,17,0,0,0,6.21,8.75c6.11,4.58,14.22,4.76,21.31,2.72a49.28,49.28,0,0,0,6-2.24,14.2,14.2,0,0,0,4.77-3,16,16,0,0,0,2.94-5.1,30.77,30.77,0,0,0,1.86-5.74,26.34,26.34,0,0,0,.39-6.33,9.36,9.36,0,0,0-1.4-5c-1.32-1.85-3.3-2.27-5.43-2.49a58.79,58.79,0,0,0-6.5-.29c-9.7.1-19.23,2.26-28.74,3.92a2.52,2.52,0,0,0-1.74,3.08,2.55,2.55,0,0,0,3.07,1.74Z" style="fill:#1c1b38"/><path d="M41,96c2.14-1.52,4.63-1.58,7.18-1.42a16.5,16.5,0,0,1,3.77.55,14.16,14.16,0,0,1,3.57,2,2.51,2.51,0,0,0,3-.39,10.72,10.72,0,0,1,10.52-4.12,2.55,2.55,0,0,0,3.07-1.74,2.53,2.53,0,0,0-1.75-3.08A15.64,15.64,0,0,0,55,93.17l3-.39a19.11,19.11,0,0,0-4.53-2.4,20.9,20.9,0,0,0-5.33-.8c-3.35-.22-6.89.11-9.7,2.1a2.57,2.57,0,0,0-.9,3.43A2.52,2.52,0,0,0,41,96Z" style="fill:#1c1b38"/><path d="M40.07,81.81c.58,3.21,2.2,5.56,5.62,6a64.45,64.45,0,0,0,9.92.37c1.57-.06,3.14-.16,4.7-.33a25.39,25.39,0,0,0,4.83-.73c3.36-1,3.94-5,4.86-7.86l-.65,1.1.16-.17-1.77.74a.75.75,0,0,1,.47,0c.49.13.58.14.26.06l-.9-.9c-.1-.29-.08-.19.05.31.07.3.13.61.19.91s.12.79.16,1.19A15.8,15.8,0,0,1,68,85.63l.34-1.26-.15.29.9-.89c.46-.25-.29,0-.46,0s-.58.1-.87.16a18.44,18.44,0,0,0-1.94.51c-1.21.38-2.39.84-3.59,1.26a26.26,26.26,0,0,1-7.37,1.55,30.77,30.77,0,0,1-7.29-.58,39.21,39.21,0,0,0-4-.55,16.74,16.74,0,0,1-3.75-.37l1.1.64-.21-.21.65,1.1c-.67-1.64-.48-3.92-.42-5.66a2.53,2.53,0,0,0-2.5-2.5,2.55,2.55,0,0,0-2.5,2.5,11.72,11.72,0,0,0,.94,5.06c.37,1.08-.13,2.86-.41,4.1-.7,3.14,4.12,4.48,4.83,1.33A19.05,19.05,0,0,0,42,86.56,11.52,11.52,0,0,0,41.14,84a5.5,5.5,0,0,1-.2-2.32h-5a29.93,29.93,0,0,0,.17,4.54c.19,1.69.34,3.47,2.08,4.29a12.74,12.74,0,0,0,4.49.61,37,37,0,0,1,4,.51,33.07,33.07,0,0,0,17.71-1.35C65.7,89.78,67,89.3,68.26,89c1.52-.4,3.35-.27,4.29-1.77.76-1.21.57-2.89.46-4.24a18.8,18.8,0,0,0-.74-4.6c-.55-1.61-1.93-2.15-3.49-2.38a3.06,3.06,0,0,0-3.73,2.37A21.67,21.67,0,0,1,63.84,82c-.09.2-.51.59-.12.36a1.33,1.33,0,0,1-.44.09c-.74,0-1.54.24-2.27.33a67.36,67.36,0,0,1-10.14.41c-1.66-.06-3.29-.22-4.94-.35-.15,0-.6-.28-.25,0a1.22,1.22,0,0,1-.38-.57,8.1,8.1,0,0,1-.41-1.75,2.53,2.53,0,0,0-3.08-1.75,2.56,2.56,0,0,0-1.74,3.08Z" style="fill:#1c1b38"/></g></g></svg>