<svg xmlns="http://www.w3.org/2000/svg" viewBox="0 0 148.71 104.94"><g id="Слой_2" data-name="Слой 2"><g id="Слой_2-2" data-name="Слой 2"><path d="M5.36,7.08A25.5,25.5,0,0,1,6.83,4c.27-.48.51-1,1.08-1.15a8.62,8.62,0,0,1,1.76,0l3.65,0H15c.27,0,.6-.07.81.11s.2.59.23.9c.44,4.49.7,9.11-.29,13.56-.53,2.34-1.89,4.67-1.66,7.12,0,.24.21.53.5.5,3.45-.37,6.92-.57,10.39-.6a.5.5,0,0,0,.48-.63l-1.65-8.36a12.19,12.19,0,0,1-.35-1.88c0-.68.79-.65,1.3-.66,1.41,0,2.82,0,4.23,0s2.9.05,4.36.12c.66,0,1.32,0,2,.09a1.36,1.36,0,0,1,.92.28,1.81,1.81,0,0,1,.28.94,56,56,0,0,1,.33,8.29,66.74,66.74,0,0,1-.74,8.36A43.11,43.11,0,0,0,35.41,39c.16,4,1.86,8.46,5.67,10.3,2.51,1.22,5.58,1,8.29,1l9.71.34a.51.51,0,0,0,.35-.86,44.5,44.5,0,0,1-10-14.41c-.26-.58-1.12-.08-.87.51a45.53,45.53,0,0,0,10.2,14.61l.36-.85-9-.31-4.32-.15a11,11,0,0,1-3.94-.66c-4.48-1.9-5.66-7.37-5.43-11.72.15-2.86.74-5.68,1.06-8.52a64.38,64.38,0,0,0,.42-8.78c0-1.42-.11-2.84-.23-4.26-.09-1,0-2.32-.91-2.94A3,3,0,0,0,35.11,12l-2.24-.11c-1.49,0-3-.09-4.48-.1H25.9a11.46,11.46,0,0,0-2,.09,1.73,1.73,0,0,0-1.2.74,2.26,2.26,0,0,0-.06,1.66q.95,4.84,1.91,9.69l.48-.63c-3.47,0-6.94.23-10.39.6l.5.5a9,9,0,0,1,.72-3.78,28.92,28.92,0,0,0,1-3.64,34.46,34.46,0,0,0,.58-7.59c0-1.31-.1-2.63-.21-3.94,0-.62-.11-1.23-.17-1.85a2.69,2.69,0,0,0-.34-1.42,1.3,1.3,0,0,0-1.11-.47c-.68,0-1.36,0-2,0l-4.14,0a6.39,6.39,0,0,0-2,.14A2.43,2.43,0,0,0,6.24,3,23.8,23.8,0,0,0,4.39,6.81c-.23.6.74.86,1,.27Z"/><path d="M49.12,31.1a27.68,27.68,0,0,1,.06-8.62A22.43,22.43,0,0,1,52,15.69a29,29,0,0,1,9.36-9.55A27.91,27.91,0,0,1,68.31,3,.5.5,0,0,0,68,2c-9,2.7-16.87,10-19.55,19.08-1,3.26-.71,6.67-.37,10,.06.63,1.06.64,1,0Z"/><path d="M74.54,2.11A47,47,0,0,1,87.92,6.7a46.55,46.55,0,0,1,5.93,3.69A22.07,22.07,0,0,1,99,15.25a15.16,15.16,0,0,1,2.37,6.69,54.84,54.84,0,0,1,.66,7.35,23.37,23.37,0,0,1-.92,7.35,18.41,18.41,0,0,1-3,5.76C95.1,46.26,91,49.08,87,51.79c-.53.36,0,1.23.51.86C91.24,50.13,95,47.52,98,44.11a21,21,0,0,0,3.5-5.52A21.36,21.36,0,0,0,103,31.31a45.29,45.29,0,0,0-.4-7.63,23,23,0,0,0-1.72-7.22A16.26,16.26,0,0,0,96.31,11a45.34,45.34,0,0,0-6-4.17A48,48,0,0,0,74.81,1.14c-.63-.11-.9.85-.27,1Z"/><path d="M74.23,15.52C79.67,16,85.47,18.77,87,24.44a15.71,15.71,0,0,1,.46,4.43,11.54,11.54,0,0,1-.63,4.49,14.17,14.17,0,0,1-5.44,5.53,18.39,18.39,0,0,1-7.12,2.61c-2.64.38-5.69.28-8-1.1a11.86,11.86,0,0,1-3.06-2.81,16.66,16.66,0,0,1-2.24-3.46,11.65,11.65,0,0,1-.63-7.91c1.57-5.95,6.95-9.73,12.71-11.1.63-.15.36-1.11-.27-1C67.2,15.47,62,18.9,59.86,24.33a13,13,0,0,0-.51,8.44,16.42,16.42,0,0,0,4.87,7.39,11.53,11.53,0,0,0,8.25,2.5,19.09,19.09,0,0,0,8.07-2.14,18.22,18.22,0,0,0,6.28-5.25A7.89,7.89,0,0,0,88.36,31a24.12,24.12,0,0,0,0-4.73A12.12,12.12,0,0,0,83.8,18a17.66,17.66,0,0,0-9.57-3.48c-.64-.06-.63.94,0,1Z"/><path d="M71,25.19c4,1.95,6.57,5.75,9,9.36.35.53,1.22,0,.86-.51-2.48-3.74-5.16-7.69-9.31-9.71-.58-.29-1.09.58-.51.86Z"/><path d="M71.66,33.65a25.79,25.79,0,0,1,8.39-9.22c.54-.36,0-1.22-.5-.86a26.74,26.74,0,0,0-8.75,9.58c-.3.57.56,1.07.86.5Z"/><path d="M97.57,52.71,105,52.5a25,25,0,0,1,7.17.5.5.5,0,0,0,.27-1,25.25,25.25,0,0,0-7.2-.54l-7.67.22c-.64,0-.64,1,0,1Z"/><path d="M120,52.85c4.09-1.34,8.6.85,12.56-1.21s3.46-7.19,3-10.9c-.14-1.18-.32-2.35-.56-3.51-.11-.54-.24-1.08-.37-1.62a3.83,3.83,0,0,0-.51-1.43c-.61-.79-2-.5-2.87-.5h-3.85c-5.09,0-10.18,0-15.26,0-.56,0-1.21,0-1.48-.6a3,3,0,0,1-.12-1.58,35.36,35.36,0,0,1,.66-4.1c.59-2.73,1.42-5.39,2.24-8.06.19-.61-.78-.88-1-.26-.7,2.28-1.41,4.57-2,6.89-.28,1.16-.52,2.33-.71,3.5a12.69,12.69,0,0,0-.28,3.06,2.17,2.17,0,0,0,1.17,1.91,7.37,7.37,0,0,0,3,.24h18.65c.26,0,.78-.08,1,.14a2.23,2.23,0,0,1,.22.72c.15.57.28,1.14.41,1.72a38.11,38.11,0,0,1,.83,7.05c0,1.95-.13,4.16-1.59,5.61s-3.91,1.74-6,1.67c-2.54-.08-5.1-.51-7.56.3-.61.2-.35,1.16.26,1Z"/><path d="M115.46,11.05l2-5.52L118.44,3l.42-1.15c.09-.24.14-.57.41-.69a2.7,2.7,0,0,1,.9,0L125.82,1a5,5,0,0,1,2.4.26A2.78,2.78,0,0,1,129.42,3c1,3.32-.43,7.15-1.79,10.15-.73,1.61-1.55,3.18-2.29,4.79a20.12,20.12,0,0,0-1.81,4.85c-.3,1.81,2.1,1.51,3.21,1.54,1.8.05,3.6.14,5.41.16a5.4,5.4,0,0,0,3.46-.86c1.25-1,1.07-2.67.93-4.11a36.78,36.78,0,0,0-.93-5.32,6.58,6.58,0,0,1-.39-1.39c0-.59.61-.5,1.05-.56,1-.14,2-.26,3-.37a16.2,16.2,0,0,1,5.06,0c1.64.36,3.3,1.23,3.34,3.1s-.88,3.76-1.69,5.47a29.69,29.69,0,0,0-2,5.32,27.24,27.24,0,0,0-.5,11.4c.1.63,1.07.36,1-.27A26.07,26.07,0,0,1,145,25.83,30.4,30.4,0,0,1,147,20.77a16.27,16.27,0,0,0,1.66-4.7A4,4,0,0,0,147.15,12a8.08,8.08,0,0,0-4.51-1.31,33.9,33.9,0,0,0-5.41.41,7.79,7.79,0,0,0-2.45.43c-.73.37-.65,1.07-.45,1.76a35.63,35.63,0,0,1,1.18,6,8.22,8.22,0,0,1,.07,2.57A2,2,0,0,1,134,23.29a17,17,0,0,1-4.84.09l-2.67-.08c-.48,0-1,0-1.45,0s-.48,0-.49-.44a3.08,3.08,0,0,1,.25-.87c1.09-3.46,3-6.57,4.39-9.93a20.68,20.68,0,0,0,1.42-5.23,9.23,9.23,0,0,0-.45-4.69A3.45,3.45,0,0,0,128.72.41a4.7,4.7,0,0,0-2.4-.4c-2.22,0-4.43.07-6.65.13a1.86,1.86,0,0,0-1.09.21,1.91,1.91,0,0,0-.6,1l-1.14,3.1-2.34,6.34c-.22.6.74.86,1,.26Z"/><path d="M145.67,49.49a88.07,88.07,0,0,1,.45,11c0,.64,1,.64,1,0a88.07,88.07,0,0,0-.45-11c0-.63-1-.64-1,0Z"/><path d="M145.37,68.51a54.83,54.83,0,0,1,1.35,13.27,12.73,12.73,0,0,1-.93,5.18,6,6,0,0,1-4.11,3.25c-2.29.61-4.71.44-7,.85-.63.12-.36,1.08.27,1,3.89-.7,8.79.07,11.29-3.76A10.89,10.89,0,0,0,147.67,83a46.35,46.35,0,0,0-.11-6.77,56.84,56.84,0,0,0-1.23-8c-.14-.63-1.11-.36-1,.27Z"/><path d="M128.5,90.47q-11.49.68-23,.36c-.65,0-.64,1,0,1q11.51.32,23-.36c.64,0,.64-1,0-1Z"/><path d="M91.64,78.63A10.11,10.11,0,0,1,99,80.46a17.65,17.65,0,0,1,5.12,5.38,5.88,5.88,0,0,1,.52,4,29.84,29.84,0,0,1-.66,3.39,9,9,0,0,1-1.56,3.34A9.52,9.52,0,0,1,99.6,98.8a38.39,38.39,0,0,1-8.35,3.75l.61.35c-.61-1.94.19-4,.38-5.92a45,45,0,0,0-.06-6.14,85.78,85.78,0,0,1,.43-12.72c.07-.64-.93-.64-1,0a86.44,86.44,0,0,0-.42,13,35.83,35.83,0,0,1,0,6.3c-.25,1.93-.9,3.85-.29,5.77a.5.5,0,0,0,.61.35,39.28,39.28,0,0,0,8.23-3.64,11.47,11.47,0,0,0,3.25-2.4,9.26,9.26,0,0,0,1.78-3.35,25.56,25.56,0,0,0,.8-3.87,7.37,7.37,0,0,0-.18-4.06,12.27,12.27,0,0,0-2.25-3.28,20.32,20.32,0,0,0-3-2.82,11.34,11.34,0,0,0-8.79-2.42c-.63.11-.37,1.08.26,1Z"/><path d="M92,81.23l-3.44,0c-.81,0-1.85-.15-2.37.63a6.2,6.2,0,0,0-.75,2.6,16.06,16.06,0,0,0,0,3.1A42.64,42.64,0,0,1,85.61,94c-.1,1.14-.28,2.27-.43,3.4a13.89,13.89,0,0,0-.26,3.08c.1,1.1,1.07,1.16,2,1.16h3.85a.5.5,0,0,0,0-1H87.13a4.51,4.51,0,0,1-.9,0c-.34-.08-.31-.16-.32-.5A15.26,15.26,0,0,1,86,98.46a42.84,42.84,0,0,0,.61-7.14c-.12-2.24-.56-4.51-.26-6.76a7.75,7.75,0,0,1,.38-1.65c.12-.34.17-.56.57-.63a4.38,4.38,0,0,1,.81,0l3.8,0a.5.5,0,0,0,0-1Z"/><path d="M69.3,78.79a43.56,43.56,0,0,1,.59,6.84c.06,2.18.13,4.37,0,6.55a41.53,41.53,0,0,1-1.09,6.35,12,12,0,0,0-.06,6l.48-.63a13.87,13.87,0,0,1-12.78-8.69,12.11,12.11,0,0,1-.51-7.31,19.26,19.26,0,0,1,4.31-7.58c2.15-2.41,5.42-4.22,8.67-3,.61.23.87-.74.27-1-3-1.13-6.2.07-8.48,2.08a20.65,20.65,0,0,0-5.25,7.72,13.73,13.73,0,0,0,4.19,15.21,15.31,15.31,0,0,0,9.58,3.52.5.5,0,0,0,.48-.63c-.65-2.13-.22-4.3.26-6.41a33.33,33.33,0,0,0,1-6.19c.09-2.18,0-4.37,0-6.55a44.66,44.66,0,0,0-.61-6.63c-.11-.63-1.08-.36-1,.27Z"/><path d="M71.25,83.67h5.84a.5.5,0,0,0,0-1H71.25a.5.5,0,0,0,0,1Z"/><path d="M70.59,98.41a63.77,63.77,0,0,1,7.93.55.5.5,0,0,0,0-1,63.77,63.77,0,0,0-7.93-.55.5.5,0,0,0,0,1Z"/><path d="M54.19,90.08c-5-.11-10,.28-14.93.27a57.09,57.09,0,0,1-7.4-.44,24.55,24.55,0,0,1-3.62-.67,2.67,2.67,0,0,1-2-2.09,17.7,17.7,0,0,0-.76-3c-.47-1-1.65-2.31-1-3.51.29-.58-.57-1.08-.87-.51A3.16,3.16,0,0,0,23.71,83c.26.54.61,1,.86,1.58A6.85,6.85,0,0,1,25,86.15,6.4,6.4,0,0,0,26,89a4.38,4.38,0,0,0,2.71,1.41c5.33,1.16,10.83,1,16.25.86,3.09-.1,6.18-.22,9.28-.15a.5.5,0,0,0,0-1Z"/><path d="M24.94,72.82q-.35-3.63-.4-7.28c0-1.19,0-2.39,0-3.58s-.17-2.52.43-3.43c.36-.54-.51-1-.86-.51a6.11,6.11,0,0,0-.55,3.2c0,1.27,0,2.55,0,3.83q0,3.89.41,7.77c.06.63,1.06.64,1,0Z"/><path d="M25.34,53.11l-.88-10.17a31.14,31.14,0,0,1-.31-4.82c.1-1.53,1-2.9.9-4.47a.52.52,0,0,0-.5-.5c-4.06-.53-8.11-1.09-12.17-1.61a25.38,25.38,0,0,0-6-.24,36.78,36.78,0,0,1-5.83.57l.48.37a8.14,8.14,0,0,1,1-4.47,14.67,14.67,0,0,0,1.34-4.26c.07-.64-.93-.63-1,0-.32,3.14-2.82,5.71-2.27,9a.5.5,0,0,0,.48.37,36.78,36.78,0,0,0,5.83-.57,25.38,25.38,0,0,1,6,.24c4.06.52,8.11,1.08,12.17,1.61l-.5-.5c.05,1.51-.78,2.87-.9,4.36a31.32,31.32,0,0,0,.31,4.93l.88,10.17c.06.64,1.06.64,1,0Z"/><path d="M66.18,101.67a51.74,51.74,0,0,1-4.92-3.52,6.63,6.63,0,0,1-2.37-4.49A15.55,15.55,0,0,1,60.8,83.44a7.24,7.24,0,0,1,2.06-2.31,9.32,9.32,0,0,1,3-1.06c.63-.15.36-1.11-.26-1a11.84,11.84,0,0,0-2.86.94,6.64,6.64,0,0,0-2.08,1.87,13.81,13.81,0,0,0-2.42,5.21,18.28,18.28,0,0,0-.4,5.9,8.37,8.37,0,0,0,1.86,5,18.77,18.77,0,0,0,2.8,2.29c1,.76,2.1,1.49,3.19,2.2.54.35,1-.52.51-.87Z"/><path d="M67.06,81.14q-.53,9.51-.52,19a.5.5,0,0,0,1,0q0-9.53.52-19c0-.65-1-.64-1,0Z"/><path d="M62.67,52.8c2,1.51,4,3.05,6.58,3.4a25.94,25.94,0,0,0,4,0,28.06,28.06,0,0,1,4.57.29c.63.09.9-.87.26-1A31.33,31.33,0,0,0,74,55.24c-1.39,0-2.78.14-4.16,0-2.58-.22-4.69-1.81-6.67-3.33-.51-.39-1,.48-.51.86Z"/><path d="M30.08,60.1a67.78,67.78,0,0,0,7.54-.17,3,3,0,0,0,2.46-1.11,4.52,4.52,0,0,0,.48-3c-.06-.64-1.06-.64-1,0a3.45,3.45,0,0,1-.4,2.62c-.61.69-1.9.57-2.73.62-2.12.13-4.24.15-6.35.09a.5.5,0,0,0,0,1Z"/><path d="M94.21,84.42a112.93,112.93,0,0,1-.62,14.94.5.5,0,0,0,.63.48c1.84-.5,3.73-1.08,5-2.6a10.52,10.52,0,0,0,2.27-5.43,13.3,13.3,0,0,0-.89-5.94,7.18,7.18,0,0,0-3-4,.5.5,0,0,0-.51.87,6.2,6.2,0,0,1,2.59,3.63,12.45,12.45,0,0,1,.8,5.19,9.49,9.49,0,0,1-2,4.94c-1.16,1.39-2.88,1.89-4.57,2.35l.64.48a112.93,112.93,0,0,0,.62-14.94c0-.64-1-.64-1,0Z"/><path d="M8.21,6.05A79.28,79.28,0,0,0,4.82,25.13c0,.72-.06,1.43-.08,2.14,0,.4,0,.8,0,1.2a2,2,0,0,0,.14,1.07c.31.5.95.42,1.46.4.81,0,1.63,0,2.45,0a28.18,28.18,0,0,1,5.19.42c1.56.3,3.09.71,4.65,1,3.34.57,6.86.54,10,1.93l-.18-.69a10.65,10.65,0,0,0-1.09,5c-.05,2,0,4.1,0,6.15l0,12.6a.5.5,0,0,0,1,0l0-12.1c0-2,0-3.93,0-5.89a10.61,10.61,0,0,1,1-5.22.52.52,0,0,0-.18-.69,28.24,28.24,0,0,0-8.19-1.73c-3.07-.37-6-1.33-9.12-1.61a42.2,42.2,0,0,0-4.77-.1,4.56,4.56,0,0,1-1.22,0c-.08,0-.12,0-.11,0s0-.48,0-.59c0-.8,0-1.59.06-2.38a79,79,0,0,1,1-9.46A80.68,80.68,0,0,1,9.17,6.32c.19-.62-.77-.88-1-.27Z"/><path d="M120.31,4.56c-.78,4.4-2.36,8.61-3.5,12.92a102.2,102.2,0,0,0-2.56,13.2.49.49,0,0,0,.37.49,130.53,130.53,0,0,0,16.89,1.23c1.36,0,2.75-.11,4.11,0a1.75,1.75,0,0,1,1.47.72,4,4,0,0,1,.46,1.55c.42,2.86.73,5.74,1,8.62s.82,6.07-.43,8.8c-.27.58.6,1.09.86.51,1.16-2.52,1-5.28.7-8q-.44-4.6-1-9.2a5.66,5.66,0,0,0-1-3.19c-.8-.89-2-.87-3.11-.85-3.11.05-6.22,0-9.32-.17-3.47-.2-6.93-.53-10.37-1l.37.48a100.18,100.18,0,0,1,2.59-13.17c1.13-4.23,2.67-8.36,3.43-12.68.12-.63-.85-.9-1-.27Z"/><path d="M64.36,7.7c-3.93,1.16-6.8,4.3-8.9,7.68a27.63,27.63,0,0,0-2.93,6.1,24.91,24.91,0,0,0-.88,7.29,24.28,24.28,0,0,0,.72,7,19.91,19.91,0,0,0,3.34,6.09A21.55,21.55,0,0,0,60.3,46.7a37.54,37.54,0,0,0,6.18,3.77,19.25,19.25,0,0,0,7.72,1.58c2.89.08,5.79,0,8.67-.21.64,0,.64-1,0-1q-3.65.24-7.29.23a23.75,23.75,0,0,1-6.82-.78,24.62,24.62,0,0,1-6-3.12,20.22,20.22,0,0,1-5-4.31,29.94,29.94,0,0,1-3.68-5.47,16.19,16.19,0,0,1-1.4-6.62A32.69,32.69,0,0,1,53,23.71a21.3,21.3,0,0,1,2.4-6.25c2.06-3.75,5-7.53,9.23-8.8a.5.5,0,0,0-.27-1Z"/><path d="M87.5,41.15A26.21,26.21,0,0,0,91,35.06c.93-2.18,2-4.45,2.07-6.87a18.87,18.87,0,0,0-1.56-7,14.43,14.43,0,0,0-3.73-5.45A10.4,10.4,0,0,0,81.37,13c-.64,0-.64,1,0,1,4.23.17,7.41,3.45,9,7.12A19.37,19.37,0,0,1,92,27.48c.14,2.34-.8,4.39-1.67,6.49a26.52,26.52,0,0,1-3.55,6.48c-.4.5.3,1.21.7.7Z"/></g></g></svg>