<svg id="Слой_1" data-name="Слой 1" xmlns="http://www.w3.org/2000/svg" viewBox="0 0 419.55 418.14"><path d="M23.62,16.13l94.63-.59L212.48,15l94.23-.59,46.93-.29,23.85-.15,11.73-.07c3,0,6.4-.2,9.11,1.31,3.46,1.93,3.57,5.82,3.57,9.34V389.66c0,1.91,0,3.82,0,5.73,0,1.6-.08,3.58-1.21,4.85-1.39,1.55-4,1.18-5.92,1.19l-5.87,0-23.86.15-47.34.3-94.28.61-94.28.61-94.28.6c-3.88,0-7.76.08-11.64.08-3.71,0-7.83-.49-9.14-4.57-1-3.11-.57-6.75-.56-10l0-11.29.17-47,.35-94.76.35-94.37.34-94.36c0-7.64-.29-15.38.14-23,.2-3.69,1.45-7,4.71-9a19.19,19.19,0,0,1,8.34-2.25c7.07-.58,14.31-.12,21.41-.08l23.86.1,94.3.4,94.3.41,94.3.41,45.78.19a.5.5,0,0,0,0-1l-96.25-.41-96.26-.42-96.25-.41L65,12.31l-23.87-.1c-6.16,0-12.91-.74-18.88,1.13C16.89,15,14.18,19,13.88,24.53c-.43,7.76-.11,15.63-.14,23.4l-.17,48.16-.36,96.33-.36,96.32q-.16,48-.35,96c0,3.57-.14,7.16,0,10.73.09,2.41.46,5,2.17,6.83s4.51,2.38,7,2.48c3.84.14,7.72,0,11.56-.05l48.12-.31,96.24-.62,96.24-.61,96.23-.62,23.87-.16c2.56,0,6,.51,7.71-1.87,1.42-2,1.2-4.71,1.2-7V33.09c0-3.79.21-7.65-.06-11.43-.17-2.47-.84-4.94-2.83-6.57a11.64,11.64,0,0,0-6.6-2.16c-3.59-.27-7.24,0-10.84,0l-23.85.15-96.19.6-96.19.59-96.19.6-46.53.29a.5.5,0,0,0,0,1Z"/><path d="M405.24,21.88C403.76,41,400.24,59.8,400,79s1.8,38.33,3.07,57.47c2.55,38.42-.4,76.79-1.08,115.21-.67,37.68,3.42,75.43.9,113.07a239.31,239.31,0,0,1-3.53,28.5,44.72,44.72,0,0,1-1.29,5.95c-.92,2.75-3,4-5.76,4.23-4.39.4-8.92.11-13.32.13l-58.35.24-116.7.49L88,404.75,29.67,405c-4.52,0-9.22.41-13.72,0-2.88-.27-4.93-1.63-4.59-4.85.25-2.36.92-4.7,1.28-7.05,1.39-9.06,1.5-18.26,1.71-27.41q1.32-58.18,1.34-116.39,0-58-1.28-116-.64-28.89-1.62-57.78c-.29-8.83-.86-17.68-.86-26.51,0-6.7.49-13.55,2.6-19.95,2-6.08,5.69-11.35,11.52-14.23.58-.29.07-1.15-.5-.87C13.66,19.82,11.26,34.3,11,46.28c-.21,8.42.4,16.87.69,25.28q.51,14.93.94,29.87,1.7,59.35,2,118.74t-.72,118.76q-.25,14.54-.59,29.09c-.23,9.78-.45,19.63-2.42,29.25-.61,2.94-1.28,6.36,2,8s7.84.8,11.31.79l29.56-.13,118.67-.5,119.07-.5,59.53-.25,29.57-.12c4.23,0,8.82.48,13-.28,3.28-.6,5-2.76,5.77-5.9,2.2-8.84,3.23-18.13,4-27.19.86-9.47,1.21-19,1.27-28.48.12-19.39-.95-38.76-1.49-58.13-1.08-39.14,2.23-78.18,2-117.3-.1-19.65-1.83-39.17-3.15-58.76-.66-9.69-1.13-19.4-1-29.12a273,273,0,0,1,2.11-29c1.12-9.49,2.4-19,3.14-28.49.05-.65-.95-.64-1,0Z"/><path d="M21,5.44l142.37-.62L305.71,4.2l70.77-.31c5.93,0,11.86-.07,17.79-.08,4.65,0,10.08.07,13.86,3.21s4.37,8.44,4.47,13.1c.12,5.75,0,11.51,0,17.26l.22,141.87.22,142.28.11,70.73c0,6,.18,12.1,0,18.13-.09,3.48-1.65,5.52-5.13,5.78a76.7,76.7,0,0,1-8.16-.18q-17.87-.62-35.74-1.1Q293.53,413,222.83,413q-71.12,0-142.19,1.93-17.88.5-35.74,1.1-8.73.3-17.46.63c-5.26.19-10.63.75-15.89.49A12.37,12.37,0,0,1,5,415.28C2.38,413.43,2,410.33,2,407.41c-.07-5.77,0-11.54,0-17.31l0-35.77q0-71-.07-142l-.07-142,0-35.81c0-5.48-.34-11.08.17-16.54a16.71,16.71,0,0,1,7.45-13c9.08-6,20.31-3.86,30.42-2.57,11.7,1.5,23.51,1.38,35.27.8s23.34-1.51,35-1.83,23.39-.22,35.08.12c23.68.69,47.32,2.36,71,3.56C239.62,6.32,263,6.77,286.39,6s46.7-2.27,70.07-2.93c11.81-.34,23.64-.45,35.45-.13,5.21.14,10.94.29,15.06,3.94,3.75,3.31,6.42,8.2,8.18,12.82,6.82,17.86,2.09,38-.13,56.32-5.66,46.66-3.89,93.94-3.66,140.83q.34,70.84.22,141.7,0,17.67-.08,35.33l0,8.31c0,2.9.26,6-.23,8.86-.6,3.58-3.11,4.74-6.51,4.72-2.9,0-5.82-.25-8.72-.38q-35.24-1.59-70.5-2.43-71-1.7-141.93-.44-35.25.63-70.49,2c-22.85.88-45.74,2-68.61.89a286.8,286.8,0,0,1-33.23-3.35c-2.77-.45-5.52-1-8.26-1.51-1.79-.37-2-.53-1.91-2.45L1.21,404l.56-17.09a.5.5,0,0,0-1,0L0,410.54a.49.49,0,0,0,.37.48c45.41,9.64,92.43,5,138.41,3.6q71.76-2.22,143.57-1.41,36.11.41,72.2,1.58,17.83.58,35.66,1.35l8.29.37c2.7.12,5.57.53,8.26.17,4.06-.55,5.49-3.66,5.66-7.42.27-5.94.07-11.93.08-17.87s0-11.91.05-17.87q0-18.07.06-36.15,0-35.75-.07-71.48-.09-36.15-.31-72.31c-.14-23.61-.44-47.24.36-70.84.4-11.77,1.08-23.54,2.19-35.27,1-10.77,2.75-21.44,3.89-32.19,1-9.09,1.44-18.4-.23-27.44a46.48,46.48,0,0,0-4-12.21c-1.9-3.81-4.49-7.93-8-10.43C402.68,2.52,397.87,2.15,393.4,2c-5.71-.19-11.44-.24-17.15-.23-12.1,0-24.19.4-36.27.9-23.63,1-47.25,2.47-70.9,2.75C221.4,6,173.92.39,126.25.27c-11.83,0-23.65.37-35.46,1.09S66.92,3,55,2.63A169,169,0,0,1,36.84,1.09C31.31.34,25.7-.41,20.13.26,12.48,1.18,4.51,5.3,2,13,.31,18,.81,23.57.82,28.72V46.21l0,36.23,0,72L1,298.57q0,35.79,0,71.57c0,12.2-.05,24.4,0,36.6,0,3.72.41,7.57,3.88,9.69s7.9,1.75,11.75,1.59q71.88-2.83,143.82-3.7t143.86.28q35.76.56,71.5,1.62,9.15.27,18.29.57l8.31.28a29.63,29.63,0,0,0,7.23-.11c4.51-1,4.57-5.06,4.56-8.89l0-18.31L414,245.81l-.22-143.95-.11-71.55c0-7.82,1.82-19.69-5.85-24.78-3.48-2.31-7.91-2.65-12-2.71-5.89-.09-11.78,0-17.67.06l-143.62.63-144,.62L21,4.44a.5.5,0,0,0,0,1Z"/></svg>