<svg id="Слой_1" data-name="Слой 1" xmlns="http://www.w3.org/2000/svg" viewBox="0 0 424.84 432.62"><path d="M20.39,21.37c25.58-2.57,51.21-5.15,77-5.2s51.18,3,76.79,4.34c51.4,2.63,102.86-.1,154.22-2.49,13.06-.61,26.11-1.2,39.18-1.67q9.59-.34,19.18-.6c5-.13,10.14-.43,15.06.71s9.31,4,10.7,9.25c1.47,5.56.37,12,.09,17.62q-.94,19.65-1.64,39.32c-1.82,51.64-2.4,103.32-2.59,155s0,103.37-.24,155.05l-.06,9.64c0,2.78.36,5.95-.43,8.64-1.13,3.84-4.76,3.42-8,3.45l-10.47.09-38.63.35-78.08.69-155.35,1.39L39,417.63c-6,.05-12.24.56-18.25.09-3-.24-5.64-1.34-6-4.68a85.52,85.52,0,0,1-.05-10l.06-38.67L15,208.1l.25-155.46c0-12.35-.1-24.72.5-37.07,0-.64-1-.64-1,0-.64,13.15-.48,26.33-.51,39.49l-.06,39.47L14,173.47l-.26,158.68-.06,39.47c0,13.36-.41,26.77-.06,40.12.11,4.27,2.33,6.48,6.56,6.93a72.16,72.16,0,0,0,8.32.05L39,418.63l39.44-.35L237,416.87l158.57-1.42a68.54,68.54,0,0,0,8.36-.15,5.1,5.1,0,0,0,4.21-2.91c.88-1.86.85-4,.87-6,0-3.48,0-7,.06-10.44q.1-19.68.13-39.37.07-39.77.05-79.54c.05-52.74.27-105.5,1.59-158.23q1-39.34,2.88-78.65c.27-5.35,1.22-11.38-.89-16.48a13.51,13.51,0,0,0-8.18-7.39c-4.24-1.54-8.92-1.69-13.39-1.61-6.45.1-12.89.33-19.34.55-52.35,1.8-104.66,5.59-157.06,5.39-26.34-.1-52.49-1.78-78.73-3.73-12.91-1-25.84-1.71-38.79-1.68s-26,.69-38.91,1.68c-12.7,1-25.37,2.25-38,3.52-.63.06-.64,1.06,0,1Z"/><path d="M399.8,414.89l-156,1.22L88.65,417.33l-39.6.31-19.39.15-8.89.07c-3.66,0-7.09-.35-7.47-4.77-.23-2.68,0-5.46,0-8.15l0-10.36.06-19.28.13-38.79L14,181.35l.26-78.23.13-38.64.07-19.33c0-5.87-.48-12,.46-17.86.9-5.53,4-9.68,9.45-11.42,4.8-1.53,10-1.32,14.93-1.25L78,15.14l77.35,1,155.47,2.08,77.31,1,9.66.13,4,.06a37.9,37.9,0,0,1,5.64.07c3,.52,2.74,2.33,2.73,4.63l0,4.82-.06,9.64q-.11,19.26-.22,38.53L409,232.74q-.46,77.51-.92,155c0,6,.11,12.08-.14,18.1-.13,3.07-.57,6.47-2.62,8.91-1.84,2.18-4.86,3.52-7.62,2.35-.59-.24-1.1.62-.51.87,3.6,1.52,7.53-.35,9.58-3.5,3-4.61,2.22-11,2.25-16.23l.23-39.56.48-79.94q.46-79.89.95-159.79.23-39.36.46-78.72l.06-9.63c0-3,.41-6.27,0-9.24a3,3,0,0,0-3-2.8c-3.37-.37-6.92-.1-10.31-.15l-39.46-.53L198.87,15.76,40.14,13.63c-8.62-.12-20.4-.72-24.73,8.57-2,4.36-1.88,9.4-1.89,14.1l-.07,20.12-.27,79.7L12.64,295.3l-.27,80-.06,20.07,0,9.57a61.19,61.19,0,0,0,.11,8.88c.7,4.93,5.08,5.06,9.2,5l20.2-.16,160-1.25L361,416.2l38.79-.31a.5.5,0,0,0,0-1Z"/><path d="M4.51,382.1q1.06-79.5,1.87-159c.46-53,.68-106,.39-159q-.1-20.19-.31-40.39c0-3.05-.11-6.1-.1-9.14s.22-6.36,2-9c2.7-4,7.66-4.72,12.14-4.46,4.68.27,9.24,1.47,13.82,2.4a69.69,69.69,0,0,0,18,1C65,3.79,77.47,1.19,90.21,1.17c25.89,0,51.21,6.55,77,8.19,12.86.82,25.77.78,38.65.72l39.42-.18,158.59-.75,19.71-.1-.5-.5c2,27.14-.3,54.3-2.79,81.33-1.22,13.26-2.47,26.53-3.25,39.84-.79,13.55-1.06,27.12-1.13,40.69-.27,54.48.47,109,.76,163.45l.47,91.73.5-.5L327,426.32l-90.61,1.22-90.18,1.22L55.61,430q-22.54.31-45.09.61c-1.69,0-3.79.22-5.19-.89-1.71-1.37-1.45-3.88-1.46-5.84l0-11q0-11.21-.08-22.4l0-11a.5.5,0,0,0-1,0c.06,15.21,0,30.44.17,45.65,0,2.07.19,4.37,2.12,5.59,2.25,1.43,5.59.87,8.1.84l23.19-.31L128.61,430l92.33-1.25,92.76-1.25L406,426.25l11.59-.16a.5.5,0,0,0,.5-.5l-.85-163.74c-.14-27.09-.36-54.17-.4-81.26s1.08-54.27,3.54-81.39c2.75-30.12,5.93-60.38,3.65-90.65a.51.51,0,0,0-.5-.5L262.4,8.81c-26.4.13-52.86.71-79.26.19a337.51,337.51,0,0,1-39.91-3.19C130.54,4,117.88,1.88,105.1.82A164,164,0,0,0,85.65.25c-6.49.22-12.92,1-19.36,1.85A158.68,158.68,0,0,1,47.44,3.69a84.28,84.28,0,0,1-18-2.26c-7-1.45-17.22-3.49-22,3.62C4.6,9.4,5.37,15.32,5.42,20.27q.11,9.89.19,19.77C6.06,93.9,6,147.76,5.56,201.61Q5,282,3.78,362.33L3.51,382.1a.5.5,0,0,0,1,0Z"/><path d="M9.61,430.16a.5.5,0,0,0,0-1,.5.5,0,0,0,0,1Z"/><path d="M9.61,430.16a.5.5,0,0,0,0-1,.5.5,0,0,0,0,1Z"/><path d="M13.05,431.5c28.71-2,57.48-3,86.25-3.42s57.59-.17,86.38.19,57.32.86,86,1,57.57.06,86.34-.83q21.48-.68,42.91-2c5.29-.33,11.61-.08,16.2-3.17,4.27-2.86,5.64-8.12,5.87-13,.61-12.76-6.46-24.95-4.07-37.73,1.16-6.21,4.27-11.89,4.85-18.23.61-6.62-1.23-13.14-2.72-19.52-3.23-13.91-3.06-28.1-2.69-42.3q.57-21.61,1.15-43.23l2.3-86.92Q423,119,424.11,75.51c.38-14.24.76-28.51.06-42.75-.18-3.62-.42-7.24-.76-10.85a54.62,54.62,0,0,0-1.14-8.73c-1.35-5.17-5.63-6.31-10.46-6.36-28.89-.27-57.79-.13-86.68-.2l-86.75-.2-86.81-.21L65.1,6l-22,0c-6.59,0-13.23-.24-19.81,0C14.72,6.34,3.92,8.56,1.77,18.31c-1.26,5.71.85,11.55,2.34,17A83.47,83.47,0,0,1,6.94,55.56c.31,13.84-2.07,27.56-4.09,41.2-2,13.48-3.33,26.86-2.69,40.5.67,14.36,2.73,28.6,3.63,42.94,1.78,28.52-1.07,57.06-2.38,85.54q-2,43.14-1.12,86.34Q.71,373.58,1.85,395,2.42,406,3.18,416.9c.23,3.21.34,6.46.74,9.65.24,1.93.76,4.06,2.45,5.23s3.94.87,5.89.45c3.43-.76,6.83-1.6,10.24-2.4L43.17,425c.62-.14.36-1.11-.27-1l-20.67,4.84c-3.3.77-6.6,1.58-9.92,2.32-1.66.37-3.63.86-5.2-.1C5.37,430,5,427.73,4.85,425.89,3.44,412,2.93,398,2.32,384.09Q.45,342,1.29,299.84c.55-28,2.72-56,3.74-84a354.68,354.68,0,0,0-.7-41.88c-1.15-13.89-3-27.73-3.34-41.68C.69,118.53,2.61,105,4.65,91.48c1.91-12.77,3.84-25.69,3.2-38.64a84.6,84.6,0,0,0-3-18.5C3.2,28.28.7,21.18,4,15.21c5.28-9.61,19.7-8.3,28.89-8.27l169.54.39,169.28.4c13.67,0,27.4-.3,41.07.11,3.42.1,6.78.87,8.16,4.39,1.21,3.1,1.22,6.81,1.52,10.09.63,7,.94,13.93,1.06,20.91.23,14-.29,28-.66,42l-1.12,42.4c-1.49,56.47-3.2,112.93-4.48,169.4-.3,13.4.11,26.57,3.21,39.66,1.63,6.89,3.34,13.92,1.79,21-1.32,6-4.19,11.54-4.71,17.71-1,12.37,5.54,24,4.34,36.4-.3,3.12-1.14,6.39-3.21,8.83s-5.07,3.51-8.11,4c-6.57,1.14-13.5,1.07-20.15,1.42-56.11,3-112.32,2.43-168.48,1.65s-112.37-1.74-168.51.52q-20.2.81-40.37,2.22c-.63,0-.64,1,0,1Z"/></svg>