<svg xmlns="http://www.w3.org/2000/svg" viewBox="0 0 356.11 2.07"><g id="Слой_2" data-name="Слой 2"><g id="Слой_2-2" data-name="Слой 2"><path d="M.5,1.43A12.47,12.47,0,0,0,2.23,1.3c.11,0-.16,0-.06,0s-.18,0-.11,0-.12-.05-.09,0l.41.16c.39.12.79.22,1.18.31a.51.51,0,0,0,.62-.35A.52.52,0,0,0,3.83.76C3.46.68,3.08.59,2.72.48L2.48.4l-.07,0,.07,0A.87.87,0,0,0,2,.33l-.1,0h0c-.06,0,.16,0,.07,0H1.8C1.37.4.93.42.5.43a.51.51,0,0,0-.5.5.51.51,0,0,0,.5.5Z"/><path d="M12.17,1.32H16a.5.5,0,0,0,0-1H12.17a.5.5,0,0,0,0,1Z"/><path d="M24.72,1.25c.55,0,1.09,0,1.63.06a2.34,2.34,0,0,0,.59-.09c.4-.07.83-.13,1.2-.17a.52.52,0,0,0,.5-.5c0-.25-.23-.54-.5-.5a17.39,17.39,0,0,0-1.76.27c-.12,0,0,0,.06,0h-.06L26,.28c-.44,0-.87,0-1.31,0a.5.5,0,0,0-.5.5.51.51,0,0,0,.5.5Z"/><path d="M40.28.75l-.14,0c-.15,0,.1,0,0,0l-.27,0h-.57c-.32,0-.64,0-1-.08h-.08c.06,0,.1,0,0,0l-.11,0-.21,0a5.91,5.91,0,0,0-.94,0,.51.51,0,0,0-.5.5.5.5,0,0,0,.5.5c.21,0,.43,0,.65,0s.2,0,.29,0-.19,0-.1,0h.08l.42.06a7.18,7.18,0,0,0,2.22,0,.5.5,0,0,0,.35-.62.51.51,0,0,0-.61-.35Z"/><path d="M49.6,1.21l3.74.14a.51.51,0,0,0,.5-.5.51.51,0,0,0-.5-.5L49.6.21a.51.51,0,0,0-.5.5.51.51,0,0,0,.5.5Z"/><path d="M62.7,1.32h3.64a.51.51,0,0,0,.5-.5.51.51,0,0,0-.5-.5H62.7a.51.51,0,0,0-.5.5.51.51,0,0,0,.5.5Z"/><path d="M74.92,1.27l4,.12a.5.5,0,0,0,0-1l-4-.12a.5.5,0,0,0,0,1Z"/><path d="M86.13,1.47a22.66,22.66,0,0,1,4,0,.51.51,0,0,0,.5-.5.51.51,0,0,0-.5-.5,22.66,22.66,0,0,0-4,0,.51.51,0,0,0-.5.5.51.51,0,0,0,.5.5Z"/><path d="M97.25,1.4a12.58,12.58,0,0,0,5.11.23.5.5,0,0,0,.35-.61.52.52,0,0,0-.62-.35A11.36,11.36,0,0,1,97.52.44a.5.5,0,0,0-.27,1Z"/><path d="M108.94,1.57l4.4-.15c.65,0,.65-1,0-1l-4.4.15c-.64,0-.64,1,0,1Z"/><path d="M120.93,1.4c-.06.1-.1.05,0,0h.15c.18,0,.35,0,.53,0h3.71a.5.5,0,0,0,0-1h-3.2c-.36,0-.71,0-1.07,0a1.11,1.11,0,0,0-1,.47c-.35.54.51,1,.86.5Z"/><path d="M131.66,1.41a15.54,15.54,0,0,0,3,.34c1.11,0,2.21-.11,3.31-.11a.5.5,0,0,0,0-1c-1.09,0-2.17.07-3.26.11a14,14,0,0,1-2.81-.3.5.5,0,0,0-.61.35.49.49,0,0,0,.34.61Z"/><path d="M144.06,1.39c2-.12,4-.19,6.06-.19a.5.5,0,0,0,0-1c-2,0-4.05.07-6.06.19-.64,0-.65,1,0,1Z"/><path d="M156.5,1.22l5.84.32c.64,0,.64-1,0-1L156.5.22c-.64,0-.64,1,0,1Z"/><path d="M168.38,1.62c2-.07,4-.26,6-.38.64,0,.65-1,0-1-2,.12-4,.31-6,.38-.64,0-.64,1,0,1Z"/><path d="M180.5,1.2l6.39.15a.5.5,0,0,0,0-1L180.5.2c-.64,0-.64,1,0,1Z"/><path d="M192.72,1c1.17.12,2.34.27,3.52.31s2.35-.06,3.53-.12c.64,0,.64-1,0-1-1.18.06-2.36.15-3.53.12S193.89.12,192.72,0c-.64-.06-.64.94,0,1Z"/><path d="M204.39,1.69c2.18-.12,4.33-.28,6.49-.51a.51.51,0,0,0,.5-.5.51.51,0,0,0-.5-.5c-2.16.23-4.31.39-6.49.51-.64,0-.64,1,0,1Z"/><path d="M227.29.34a81.11,81.11,0,0,0-10.8.13c-.64,0-.64,1,0,1a81.11,81.11,0,0,1,10.8-.13c.64.06.63-.94,0-1Z"/><path d="M233.68,1.31a79.73,79.73,0,0,0,12.65-.22c.64-.06.65-1.06,0-1a79.73,79.73,0,0,1-12.65.22c-.65,0-.64,1,0,1Z"/><path d="M252.17,1.43c2,.2,4,.37,5.94.41s4,0,5.95-.15c.64,0,.65-1,0-1-2,.11-4,.2-5.95.15s-4-.21-5.94-.41c-.64-.07-.63.93,0,1Z"/><path d="M269.77,1.4a126.48,126.48,0,0,1,16.86,0c.64,0,.64-1,0-1a126.48,126.48,0,0,0-16.86,0c-.63,0-.64,1,0,1Z"/><path d="M293,1.49c8-.57,16.06-.05,24.09.31,4.06.19,8.13.32,12.19.25s8.27-.35,12.41-.51a89,89,0,0,1,13.95.37c.63.07.63-.93,0-1-8.24-1-16.51-.14-24.76.1-8.08.23-16.13-.4-24.19-.68A130.24,130.24,0,0,0,293,.49c-.64,0-.64,1,0,1Z"/></g></g></svg>