<svg xmlns="http://www.w3.org/2000/svg" viewBox="0 0 468.26 311.32"><g id="Слой_2" data-name="Слой 2"><g id="Слой_10" data-name="Слой 10"><path d="M315.64,301.08c-19.56-5.93-39.13-11.86-58.35-18.86q-8.16-3-16.22-6.23l-.53,3.92a333.73,333.73,0,0,1,46.24,1.93c1.85.21,2.46-2.25,1.42-3.41q-21-23.16-40.6-47.45-5.59-6.91-11.07-13.92l-1.94,3.35c2.18.32,3.93,1.53,5.72,2.75l6.37,4.34L259.2,236l25.26,17.23,14.37,9.8c2.13,1.45,4.13-2,2-3.46l-51.13-34.86-7.18-4.9c-2.12-1.45-4.3-2.92-6.89-3.3a2,2,0,0,0-1.94,3.34q19.23,24.6,39.83,48.1,5.86,6.67,11.83,13.27l1.41-3.42a333.73,333.73,0,0,0-46.24-1.93c-2.38.07-2.55,3.12-.53,3.93,18.95,7.68,38.41,14,57.94,20q8.31,2.56,16.63,5.07c2.47.75,3.53-3.11,1.06-3.86Z" style="fill:#10123b"/><path d="M213.82,68.37C229.15,91,236.33,117.65,245,143.24c2.23,6.56,4.56,13.09,7.17,19.51s5.77,12.79,8.7,19.18a57.38,57.38,0,0,1,3.66,10.22,106.45,106.45,0,0,0,2.6,10.42,40,40,0,0,0,4.91,9c1.88,2.77,3.79,5.56,4.78,8.8,1.18,3.83,1.47,7.87,2.63,11.71a44.09,44.09,0,0,0,4.62,10.12c4,6.55,9.29,12.2,14.54,17.73,1.78,1.88,4.6-1,2.83-2.82-4.6-4.85-9.24-9.76-12.92-15.36A42.39,42.39,0,0,1,284,233a69.22,69.22,0,0,1-2.43-10.16,29.73,29.73,0,0,0-3.73-9.75c-1.75-2.86-3.85-5.51-5.44-8.47a37.9,37.9,0,0,1-3.19-10,64,64,0,0,0-3-10.42c-2.64-6.61-6.08-12.88-8.86-19.44-2.64-6.22-5-12.56-7.19-18.93-4.46-12.83-8.38-25.85-13-38.62-5.18-14.24-11.29-28.24-19.81-40.82-1.44-2.12-4.91-.12-3.46,2Z" style="fill:#10123b"/><path d="M213.82,66.49c15.75,22.66,28.73,47.08,41.12,71.7,3,6,5.92,12.15,9.37,17.95S272,166.83,276.13,172s6.71,10.86,9.68,16.63a52.39,52.39,0,0,0,5.2,8.26c2,2.58,4.28,4.95,6.44,7.41A113.59,113.59,0,0,1,310,222.47c4,6.89,7.93,13.84,11.88,20.77,1.28,2.23,4.74.22,3.46-2-3.51-6.14-7-12.28-10.52-18.41A149.78,149.78,0,0,0,304,206.08c-4-5.18-9-9.62-12.4-15.2s-5.63-11.69-9.26-17.07c-3.73-5.53-8.47-10.29-12.18-15.83a157.17,157.17,0,0,1-9.59-17.39c-6.13-12.27-12.37-24.49-19-36.5a449.71,449.71,0,0,0-24.34-39.62c-1.46-2.1-4.93-.11-3.45,2Z" style="fill:#10123b"/><path d="M325,241.76c-6.41-14-6.4-29.78-6.55-44.85q-.25-25.49-1.81-50.94-.88-14.49-2.22-29l-3.93.53q9.19,23.41,16.06,47.63t11.3,49q2.49,13.92,4.21,28a2,2,0,0,0,3.93.53l20.67-54.86,5.89-15.64-3.93-.53.86,30.28c.28,10,.6,19.93.36,29.89-.13,5.67-.45,11.34-1.05,17-.23,2.23,3.47,2.73,3.93.53C377.82,224.49,386,200.5,394,176.52c4-11.93,7.91-23.88,11.38-36,1.75-6.07,3.4-12.17,5.42-18.16,2.08-6.15,4.55-12.16,7-18.15q8.56-20.8,17.15-41.6a2,2,0,0,0-1.4-2.46,2.06,2.06,0,0,0-2.46,1.4l-15.25,37c-2.49,6-5,12.06-7.3,18.19s-4,12.18-5.79,18.36c-6.89,24.23-15.47,47.9-23,71.93-4.25,13.56-8.1,27.26-11,41.19l3.93.53c2.1-19.92.88-40.07.32-60l-.49-17.12a2,2,0,0,0-3.93-.53L348,225.92l-5.89,15.64,3.93.53Q343,217,337.47,192.25c-3.68-16.51-8.17-32.85-13.47-48.91q-4.49-13.58-9.71-26.87A2,2,0,0,0,312.1,115a2,2,0,0,0-1.73,2q2.37,26,3.37,52,.5,13,.64,26.07c.09,7.81.09,15.63.84,23.41a77.63,77.63,0,0,0,6.28,25.26,2,2,0,0,0,2.73.72,2.05,2.05,0,0,0,.72-2.74Z" style="fill:#10123b"/><path d="M405.68,241.5c-.64-6.24,1.92-12.14,3.59-18a172.23,172.23,0,0,0,4-18.23c2.09-12.31,3.31-24.74,5.48-37C423,143.82,430.38,120.09,435,95.75A207.88,207.88,0,0,0,439,54.57c0-2.58-4-2.58-4,0,.34,24.73-5.41,48.9-11.25,72.77-2.95,12.07-5.95,24.14-8.24,36.36s-3.6,24.65-5.54,37A188.63,188.63,0,0,1,405.79,221c-1.81,6.67-4.84,13.4-4.11,20.46a2.06,2.06,0,0,0,2,2,2,2,0,0,0,2-2Z" style="fill:#10123b"/><path d="M406.41,242.69c7.14-14.6,19.07-25.94,31.5-36.09,3.56-2.91,7.19-5.74,10.82-8.56l-3.34-1.95q-13.72,34.42-29.06,68.17-3.82,8.44-7.76,16.83c-.66,1.4-1.31,2.8-2,4.19-.21.44-.48,1.47-.88,1.79s-.92.11-1.36.09a88.13,88.13,0,0,0-9.05.2c-12.14.87-24,4-35.6,7.45-13.62,4.09-27.18,8.36-40.77,12.55-2.46.76-1.41,4.62,1.06,3.86,12.37-3.81,24.73-7.65,37.1-11.43,11.79-3.61,23.76-7.1,36.08-8.26a92.47,92.47,0,0,1,9.27-.41,19,19,0,0,0,4.06,0,4.47,4.47,0,0,0,3-2.68c2.82-5.67,5.39-11.48,8-17.24q7.88-17.18,15.34-34.55,8.43-19.61,16.34-39.45a2,2,0,0,0-.92-2.26,2.09,2.09,0,0,0-2.42.31c-12.94,10.06-26,20.36-35.79,33.68A78.07,78.07,0,0,0,403,240.67c-1.13,2.3,2.32,4.33,3.46,2Z" style="fill:#10123b"/><path d="M336.43,299l-30.26-22.39-1,3.73a38.3,38.3,0,0,1,18.3,2.68c1.33.54,2.41-.8,2.53-1.93a55.71,55.71,0,0,0-1.26-19.21l-2.94,2.26A180.15,180.15,0,0,1,342.2,281.6a2,2,0,0,0,3.34-2c-2.31-10-4.74-20-7.45-30l-3.35,2A185.22,185.22,0,0,1,350,271.33a2,2,0,0,0,2.74.72,68.91,68.91,0,0,0,12.62-12.63l-3.73-1a36.65,36.65,0,0,1-5,18.67c-1.1,1.89,1.69,4.24,3.14,2.42a173,173,0,0,1,25.56-25.77L382,251.78a122.12,122.12,0,0,1-13,26.37c-1.13,1.75,1.06,3.65,2.74,2.74a157.59,157.59,0,0,1,32.75-13.21L403,264l-34.63,25.59a2,2,0,0,0-.72,2.73,2,2,0,0,0,2.74.72L405,267.48c1.72-1.27.8-4.31-1.54-3.66a162.5,162.5,0,0,0-33.7,13.62l2.74,2.73a127.44,127.44,0,0,0,13.37-27.32c.72-2.08-1.95-3.09-3.34-1.95A172.51,172.51,0,0,0,357,276.67l3.14,2.42a40.69,40.69,0,0,0,5.52-20.68c0-2.16-2.59-2.48-3.73-1a61.42,61.42,0,0,1-11.18,11.2l2.73.71a194.44,194.44,0,0,0-15.89-20.52c-1.36-1.53-3.85.09-3.34,2,2.71,9.93,5.14,19.94,7.45,30l3.34-1.94a185.25,185.25,0,0,0-21.21-18c-1.49-1.09-3.31.7-2.94,2.26A52.22,52.22,0,0,1,322,281.13l2.53-1.93a40.92,40.92,0,0,0-19.36-2.82,2,2,0,0,0-1,3.72l30.26,22.39a2,2,0,0,0,2.74-.71,2,2,0,0,0-.72-2.74Z" style="fill:#10123b"/><path d="M210.07,25.57c-3.72-3-7.39-6-11.18-8.93C195.41,14,191.53,11.9,187,12.09c-8.81.37-16.67,6.2-23.22,11.56-3.3,2.71-6.86,5.27-6.93,10a29.71,29.71,0,0,0,1,6.67l1.57,7.29c.53,2.43,1,4.86,1.58,7.29a8.83,8.83,0,0,0,2.5,5.09c1.62,1.36,3.88,1.68,5.91,2a34.62,34.62,0,0,0,6.35.32c9.71-.43,18.95-4.54,26.78-10.09a2.06,2.06,0,0,0,.72-2.74,2,2,0,0,0-2.74-.72,51,51,0,0,1-20.52,9.09,31.42,31.42,0,0,1-10.77.09c-1.58-.28-3.2-.44-3.85-2.09a39,39,0,0,1-1.37-5.86c-.92-4.28-1.86-8.56-2.76-12.85-.36-1.68-.82-3.68-.1-5.34s2.33-2.66,3.59-3.72c5.71-4.78,11.94-9.72,19.34-11.47a12.5,12.5,0,0,1,6.51,0A17.7,17.7,0,0,1,196,19.46c3.85,2.82,7.49,6,11.22,8.94a2,2,0,0,0,2.82,0,2,2,0,0,0,0-2.83Z" style="fill:#10123b"/><path d="M272.08,291a331.74,331.74,0,0,1-37,2.35c-11.81-.08-24-1-35.23-4.86-10.59-3.62-19-10.64-26.49-18.74A250.64,250.64,0,0,1,152.9,244.6c-12.48-17.57-22.64-36.95-28.22-57.84-5.47-20.44-6.3-42.37-1.11-63a100.57,100.57,0,0,1,12.52-29.3c6-9.5,13.52-18,21.21-26.13,1.94-2.07,3.91-4.12,5.87-6.17,1.78-1.86-1-4.69-2.83-2.83-8.06,8.43-16.12,16.9-23,26.31a106.3,106.3,0,0,0-15.36,29.42c-6.92,20.82-7.38,43.54-3,64.93,4.46,21.58,14,41.93,26.12,60.24a258.75,258.75,0,0,0,20.29,26.58c7.22,8.34,15,16.66,24.87,21.88,10.58,5.59,22.75,7.49,34.56,8.28,12.72.86,25.49.12,38.17-1.07,3-.28,6.07-.59,9.1-.91a2.05,2.05,0,0,0,2-2,2,2,0,0,0-2-2Z" style="fill:#10123b"/><path d="M211.64,29.91a114.38,114.38,0,0,1,92.21-3.7c14,5.49,26.9,13.59,38.56,23a245.3,245.3,0,0,1,32.77,32.4,146.09,146.09,0,0,1,14.56,20,95.94,95.94,0,0,1,9.76,22.83c.58,2,1.09,4.12,1.55,6.2.56,2.51,4.41,1.45,3.86-1.06a103,103,0,0,0-8.7-24.51A126.3,126.3,0,0,0,382.28,84a246.05,246.05,0,0,0-33.08-34.3c-11.84-10.06-24.86-18.88-39.12-25.14a118.18,118.18,0,0,0-94.95-.6c-1.86.8-3.69,1.65-5.51,2.55-2.31,1.14-.28,4.59,2,3.45Z" style="fill:#10123b"/><path d="M171.55,27.07a3.79,3.79,0,0,0,6.1-2.2c.66-2.89-1.86-5.08-3.77-6.8A79.36,79.36,0,0,0,160,8C150.4,2.51,139.35-.7,128.22.13c-11,.81-21.51,5.27-28.94,13.5s-11.46,18.75-17,28.24c-3.12,5.32-7.07,10.25-13.07,12.4s-12.49,2-18.76,1.79c-2.58-.08-2.57,3.92,0,4,5.31.16,10.67.23,15.91-.84a25.61,25.61,0,0,0,13.55-7.34c3.61-3.78,6.16-8.41,8.58-13s4.63-9.12,7.25-13.52A50.43,50.43,0,0,1,105,13.6a36.19,36.19,0,0,1,12.61-7.3,46.74,46.74,0,0,1,29.59.26,63.46,63.46,0,0,1,15.45,7.72,76.31,76.31,0,0,1,6.89,5.25c1.14,1,2.3,1.95,3.34,3a3.39,3.39,0,0,1,.9,1.29c.16.52,0-.06.05.07a.22.22,0,0,1-.07.09c-.26.15,0,.22.67.23-2-1.63-4.81,1.18-2.83,2.83Z" style="fill:#10123b"/><path d="M174.26,24.47l-14.33-10c-4.23-3-8.43-6.12-13.2-8.19C136.92,2,126,3.44,116.1,6.78a59.83,59.83,0,0,0-13.7,6.34A37.1,37.1,0,0,0,92,23.9c-3,4.47-5.52,9.22-8.22,13.85L79.53,45a28.86,28.86,0,0,1-4.24,6c-6.88,6.91-18.25,5.63-27,4.57a2,2,0,0,0-2,2,2.05,2.05,0,0,0,2,2c8.39,1,17.74,1.79,25.44-2.42,4.14-2.26,6.84-5.93,9.19-9.92,2.82-4.8,5.6-9.62,8.41-14.43,2.54-4.37,5-8.88,8.6-12.51a36.44,36.44,0,0,1,12-7.68c9.08-3.84,19.69-6.68,29.48-4,5.53,1.51,10.22,4.92,14.86,8.16l16,11.16c2.12,1.47,4.12-2,2-3.46Z" style="fill:#10123b"/><path d="M49.05,56.44A141.12,141.12,0,0,1,32.89,38.57a2.07,2.07,0,0,0-2.74-.72,2,2,0,0,0-.71,2.74A146.47,146.47,0,0,0,46.22,59.27c1.88,1.76,4.72-1.06,2.83-2.83Z" style="fill:#10123b"/><path d="M44.57,55.88Q36.29,59,28.21,62.61a2,2,0,0,0-.71,2.74,2,2,0,0,0,2.73.71q7.6-3.41,15.41-6.32A2.07,2.07,0,0,0,47,57.28a2,2,0,0,0-2.47-1.4Z" style="fill:#10123b"/><path d="M41.29,54.31,31.07,50.59A2,2,0,0,0,28.61,52,2,2,0,0,0,30,54.45l10.21,3.72a2,2,0,0,0,2.46-1.4,2.06,2.06,0,0,0-1.39-2.46Z" style="fill:#10123b"/><path d="M45,54.32,58.9,34.68A2,2,0,0,0,58.18,32a2,2,0,0,0-2.74.71L41.53,52.3A2,2,0,0,0,42.25,55,2,2,0,0,0,45,54.32Z" style="fill:#10123b"/><path d="M45.23,56.48a99.58,99.58,0,0,1,15,28.26c.82,2.43,4.69,1.39,3.86-1.06a103.05,103.05,0,0,0-15.4-29.22A2.07,2.07,0,0,0,46,53.74a2,2,0,0,0-.72,2.74Z" style="fill:#10123b"/><path d="M44.75,58.12A91.73,91.73,0,0,0,33.26,77.9,2.08,2.08,0,0,0,34,80.64a2,2,0,0,0,2.74-.72A91.73,91.73,0,0,1,48.21,60.14a2,2,0,0,0-.72-2.73,2,2,0,0,0-2.74.71Z" style="fill:#10123b"/><path d="M48.29,57.11A76.14,76.14,0,0,0,70.7,44.18a2,2,0,0,0,0-2.83,2,2,0,0,0-2.83,0,70.25,70.25,0,0,1-20.65,11.9,2,2,0,0,0-1.39,2.46,2,2,0,0,0,2.46,1.4Z" style="fill:#10123b"/><path d="M39.8,54.44H1.93c-2.57,0-2.58,4,0,4H39.8c2.58,0,2.58-4,0-4Z" style="fill:#10123b"/><path d="M39.66,52.14,24,38.34a2.05,2.05,0,0,0-2.83,0,2,2,0,0,0,0,2.83L36.84,55a2,2,0,1,0,2.82-2.83Z" style="fill:#10123b"/><path d="M44.67,48.52,45.59,30a2,2,0,0,0-4,0l-.92,18.51a2,2,0,0,0,2,2,2,2,0,0,0,2-2Z" style="fill:#10123b"/><path d="M49.91,55.11,60.15,42.88a2.05,2.05,0,0,0,0-2.83,2,2,0,0,0-2.83,0L47.08,52.29a2,2,0,1,0,2.83,2.82Z" style="fill:#10123b"/><path d="M45.29,55.34A173.21,173.21,0,0,1,63.91,76.49a2.08,2.08,0,0,0,2.74.72,2,2,0,0,0,.72-2.74A178.59,178.59,0,0,0,48.12,52.52c-1.86-1.79-4.69,1-2.83,2.82Z" style="fill:#10123b"/><path d="M46.13,59.52A47,47,0,0,0,48,73.27a2,2,0,1,0,3.86-1.06,42.24,42.24,0,0,1-1.7-12.69,2,2,0,0,0-2-2,2,2,0,0,0-2,2Z" style="fill:#10123b"/><path d="M40.11,55.14q-12,8.69-23.26,18.42c-2,1.69.89,4.51,2.83,2.83Q30.5,67,42.13,58.6a2.07,2.07,0,0,0,.72-2.74,2,2,0,0,0-2.74-.72Z" style="fill:#10123b"/><path d="M189.19,146.7l-.47,4.71c-.17,1.7-.05,3.36,1.61,4.32a11.06,11.06,0,0,0,4.07.9,11.7,11.7,0,0,0,4-.17,6.88,6.88,0,0,0,5.14-5.23,10.39,10.39,0,0,0-1.23-7.29,10.16,10.16,0,0,0-6.82-5.11,2.07,2.07,0,0,0-2.46,1.4,2,2,0,0,0,1.4,2.46,7.88,7.88,0,0,1,1.35.35c-.27-.1.17.09.25.13s.46.26.68.4a8.93,8.93,0,0,1,1.59,1.54,10.12,10.12,0,0,1,.75,1.21c.08.17.17.34.24.51-.14-.32.1.28.13.39a10.69,10.69,0,0,1,.31,1.27c-.06-.34,0,.08,0,.21s0,.49,0,.74,0,.24,0,.36,0,.33,0,.1-.08.36-.1.44-.1.34-.15.51c-.1.35,0,.09,0,0a3,3,0,0,1-.16.31l-.18.3s-.18.26-.05.08-.25.28-.31.33-.39.3-.2.17a4.38,4.38,0,0,1-.7.4c.29-.13-.28.08-.37.1s-.46.11-.69.15c.3,0-.2,0-.28,0a7.85,7.85,0,0,1-.84,0,13.52,13.52,0,0,1-2.64-.32,3.52,3.52,0,0,0-.8-.18s.19.14.19.14l.2.39,0-.19s0,.33,0,0,0-.34,0-.51c0-.36.07-.72.1-1.08l.43-4.3a2,2,0,0,0-2-2,2,2,0,0,0-2,2Z" style="fill:#10123b"/><path d="M283,107.5c3,4.32,10.09,4,12.92-.32a4.69,4.69,0,0,0,.52-4.19,11,11,0,0,0-2.52-3.46c-1.8-1.93-4.1-3.71-6.86-3.75-3.18-.06-5.49,2.26-7.32,4.57a2.06,2.06,0,0,0,0,2.83,2,2,0,0,0,2.83,0,20.86,20.86,0,0,1,1.86-2.13l.46-.42c.26-.22-.19.14.08-.06l.25-.18.52-.31s.34-.17.06,0l.38-.13a3.9,3.9,0,0,1,.59-.14c-.3,0,.3,0,.39,0l.3,0c-.05,0-.26,0,0,0a6.82,6.82,0,0,1,.77.23c.22.08,0,0,0,0l.27.14a5.63,5.63,0,0,1,.62.37,5.1,5.1,0,0,1,.94.74,21.91,21.91,0,0,1,2,2,4,4,0,0,1,.68.93c.11.2.05.07,0,0,.1.21.08.27.06.09a2.8,2.8,0,0,1,0,.29c0,.29.08-.25,0,0,0,.09-.05.19-.08.28,0-.1.13-.27-.05,0s.06,0-.16.24-.29.29-.44.43-.14.12-.07.07l-.33.22-.47.25c-.32.18-.09,0,0,0l-.25.1c-.17,0-.33.11-.51.15l-.35.08s-.41.08-.17,0l-.44,0c-.24,0-.47,0-.71,0,0,0-.33,0-.08,0s-.13,0-.17,0a5.06,5.06,0,0,1-.67-.17l-.24-.08c.17.06.18.09,0,0s-.4-.22-.59-.34c0,0-.24-.19-.07,0s-.18-.18-.18-.18l-.17-.19c-.21-.22.25.37-.06-.07a2,2,0,0,0-2.73-.72,2,2,0,0,0-.72,2.73Z" style="fill:#10123b"/><path d="M236.22,120.17c-5.62,1.25-11.39,3.07-15.11,7.76a28.7,28.7,0,0,0-4.3,8.56q-1.81,5.13-3.2,10.42c-1.55,6-2.93,12.22-2,18.4.86,5.71,4.18,10.62,9.59,12.84a16.12,16.12,0,0,0,16.34-2.41c2-1.65-.87-4.47-2.83-2.83-3.17,2.65-7.73,3-11.54,1.73-4.44-1.52-6.93-5.54-7.65-10-.84-5.23.44-10.67,1.71-15.72q1.17-4.6,2.67-9.11a36.66,36.66,0,0,1,3.38-8.07c3.1-4.9,8.67-6.5,14-7.69,2.52-.56,1.45-4.42-1.06-3.86Z" style="fill:#10123b"/><path d="M270.13,160.35c6.22-1.41,12.51-3,18.12-6.1,5-2.79,10.63-7.65,7.89-14-1.17-2.72-3.43-4.85-5.43-7s-4.27-4.46-6.58-6.52a39.45,39.45,0,0,0-16.25-9.21c-7.26-1.87-14.83-1.39-22.17-.28a2,2,0,0,0-1.39,2.46,2.05,2.05,0,0,0,2.46,1.4c5.72-.87,11.69-1.31,17.43-.29a32.91,32.91,0,0,1,14.86,6.86,89.63,89.63,0,0,1,11.61,11.44c1.49,1.72,2.88,3.89,1.81,6.19s-3.43,3.79-5.51,5c-5.49,3.23-11.76,4.73-17.92,6.12-2.51.57-1.44,4.43,1.07,3.86Z" style="fill:#10123b"/><path d="M242.08,173.26l.14-.18.33-.4c.2-.23.4-.47.61-.7.42-.45.86-.89,1.31-1.31a20.46,20.46,0,0,1,2.81-2.26,34,34,0,0,1,3.28-2c.56-.29,1.12-.57,1.69-.83l1-.44.39-.16.3-.13a2.07,2.07,0,0,0,1.4-2.46,2,2,0,0,0-2.46-1.4c-5.54,2.27-10.55,5.42-14.22,10.23a2,2,0,0,0,.72,2.73,2.06,2.06,0,0,0,2.74-.71Z" style="fill:#10123b"/><path d="M260.16,143.31c4.4-.85,9.29-1,13.19,1.55,3.7,2.41,5.63,6.8,7.43,10.65a2,2,0,0,0,2.74.72,2.05,2.05,0,0,0,.72-2.74c-2.18-4.66-4.64-9.51-9.19-12.28-4.78-2.93-10.63-2.79-15.95-1.76-2.53.49-1.46,4.34,1.06,3.86Z" style="fill:#10123b"/><path d="M243.61,167.2c-3.62-1.84-5.17-6.18-4.26-10a13.34,13.34,0,0,1,3.06-5.77,13.64,13.64,0,0,1,2.51-2.35,23.12,23.12,0,0,1,2.84-1.22c2.32-1.13.29-4.58-2-3.46a18.34,18.34,0,0,0-3.55,1.76,19.31,19.31,0,0,0-3.07,3,17,17,0,0,0-3.77,7.68c-1,5.34,1.23,11.3,6.24,13.85,2.29,1.16,4.32-2.29,2-3.45Z" style="fill:#10123b"/><path d="M253.17,129.52a41,41,0,0,0,5.69-9l-3.66-.48c.49,3-.41,5.74-1.08,8.65a14,14,0,0,0,.91,9.39c.71,1.6,3.27,1.09,3.65-.48A56.24,56.24,0,0,1,261,129.7a42,42,0,0,1,3.93-7l-3.73-1q-.43,7.92-1.46,15.78c-.26,2,2.84,2.65,3.73,1l8.72-16.07-3.65-1.54a140,140,0,0,0-3.1,18.18,2,2,0,0,0,2,2,2,2,0,0,0,2-2l2-16.09-3.73,1a20.45,20.45,0,0,1,4,14.31c-.22,2.22,3.6,2.77,3.92.54l1.41-9.61a2,2,0,0,0-3.86-1.06l-4.5,13,3.86,1.06a10.35,10.35,0,0,1,7.07-7.45l-2.46-2.46-3.64,10c-.7,1.91,2,3.34,3.34,1.94l7.56-8-3.34-2a51.15,51.15,0,0,0-3.2,13.41c-.23,2.27,3.37,2.66,3.93.53a25.79,25.79,0,0,1,4.71-9.51l-3.34-.88a24.23,24.23,0,0,1-1.18,15.4l3.93.53a18.45,18.45,0,0,1,5.78-13l-3.14-2.42A42.43,42.43,0,0,0,284,150.16a2,2,0,0,0,2.94,2.26,14,14,0,0,0,7-9.49c.49-2.51-3.36-3.59-3.86-1.06a10.13,10.13,0,0,1-5.12,7.1l2.93,2.26a38.7,38.7,0,0,1,4.24-10.88,2,2,0,0,0-3.14-2.43,22.53,22.53,0,0,0-7,15.85,2,2,0,0,0,1.74,2,2.05,2.05,0,0,0,2.19-1.44,27.84,27.84,0,0,0,1.18-17.52c-.35-1.35-2.39-2.09-3.35-.89A30.63,30.63,0,0,0,278,147.17l3.93.53a47.66,47.66,0,0,1,3-12.34c.75-1.91-2-3.32-3.34-2l-7.56,8,3.34,1.94,3.65-10a2,2,0,0,0-2.47-2.46,14.46,14.46,0,0,0-9.86,10.25c-.63,2.52,3,3.48,3.86,1.06l4.5-13-3.86-1.06-1.4,9.6,3.93.53A23.75,23.75,0,0,0,271.18,122a2,2,0,0,0-3.72,1l-2,16.09h4A131.86,131.86,0,0,1,272.39,122c.52-2.15-2.53-3.6-3.65-1.54L260,136.49l3.73,1q1-7.86,1.46-15.78c.12-2.09-2.7-2.56-3.72-1a46.27,46.27,0,0,0-4.24,7.67,58.29,58.29,0,0,0-2.42,8.19l3.66-.48c-1.18-2.62-.86-5-.15-7.72a22,22,0,0,0,.73-9.36c-.26-1.64-3-2-3.66-.48a37,37,0,0,1-5.06,8.16,2.06,2.06,0,0,0,0,2.83,2,2,0,0,0,2.83,0Z" style="fill:#10123b"/><path d="M216.54,166.92a152,152,0,0,0,11.18-37.73,2,2,0,0,0-1.16-2.36,2,2,0,0,0-2.5.82,95.89,95.89,0,0,0-8.67,43.41,2,2,0,0,0,3.93.53c5.33-14.51,10.68-29.12,13.12-44.45l-3.93-.53-5.75,49.65c-.26,2.23,3.51,2.75,3.93.54a78.22,78.22,0,0,0,.77-24.38,2,2,0,0,0-4,0l-3.29,25.83c-.29,2.3,3.31,2.62,3.93.53,5.31-18.06,9.38-36.45,13.43-54.83l-3.92-.53L229,176.49c-.2,2.35,3.25,2.57,3.93.53l2-6.06c.31-.94.59-1.88.93-2.8.09-.25.2-.46.3-.7a.68.68,0,0,1,.24-.33c-.24.11-.19.13.15,0l-2.46-1.4a14.81,14.81,0,0,1,.38,5.66l2.94-1.19c-3-2.2-2.33-6.74-1.4-9.75,1.21-4,3-7.62,3.25-11.82.18-2.81-.45-5.53-.64-8.33a11.64,11.64,0,0,1,2.83-8.23l-3.66-1.54a31.56,31.56,0,0,0-2.25,8.68,62,62,0,0,1-1.24,8.36,2,2,0,0,0,3.34,1.95,28.87,28.87,0,0,1,3.65-3,7.23,7.23,0,0,0,2.21-1.9,4.55,4.55,0,0,0,.6-2.63c0-1.65-.26-3.3-.38-4.94-.16-2.17-3.3-2.8-3.93-.53s-1.34,5.1.43,7.12c.17.19.36.38.54.56s.47.52.09.08a1.72,1.72,0,0,1,.22.37c-.16-.44.17.73.18.75a12.83,12.83,0,0,1,0,2.77h4a6.72,6.72,0,0,0-2.59-5.72l-.36-.33-.17-.18c.15.21.16.22,0,0l-.07-.13a.45.45,0,0,1,.1.37s.07-.58,0-.28a5.29,5.29,0,0,1,.48-1.25c.07-.13.16-.27.22-.41.19-.46-.25.26-.45.38l-1,.27h0l-1-.28,0,0-.72-.72c.28.48-.45-1.4-.25-.7-.09-.3.09-.48,0-.15s-.1.58-.16.86a11.32,11.32,0,0,0-.33,2,2.1,2.1,0,0,0,2.6,2.17c1-.27,1.46-1.21,1.87-2l-3.66-1.54a7.27,7.27,0,0,0-.35,3.72,2.27,2.27,0,0,0,2.9,1.48,4,4,0,0,0,1-.49c.52-.34-.14,0-.43,0-1.15-.2-1.73-.74-1.74-1.6a1,1,0,0,1,0,.25c0,.2,0,.2,0,0,0,.15-.05.3-.08.45a6.77,6.77,0,0,0-.3,2.4,2,2,0,0,0,3.35.88c1.51-1.87.88-4.92-2-4.48l2.46,1.4v1c-.27.69.17-.11.3-.3a7.26,7.26,0,0,0,.57-.91,2.25,2.25,0,0,0-1.21-3.23c-1.49-.69-1.56-2.62-1.6-4.09-.07-2.18.29-4.38-.2-6.53s-1.95-4.38-3-6.46c-.93-1.84-3.68-.87-3.73,1-.12,5.07,2.35,9.48,3,14.41.19,1.35,1.94,1.73,2.94,1.19a20.12,20.12,0,0,0,2.06-.87c2.14-1.42.14-4.88-2-3.46-.61.41-1.39.52-2.06.88l2.94,1.2c-.62-4.56-3-8.69-2.87-13.35l-3.72,1a32.19,32.19,0,0,1,2.46,5,16,16,0,0,1,.18,4.84c0,3.69.61,7.72,4.55,9.08l-.88-.51,0,0-.59-1.42c.27-.73.31-.91.13-.54l-.22.33c-.15.24-.33.46-.48.7a2.45,2.45,0,0,0-.45,2,2.05,2.05,0,0,0,2.46,1.4l.17,0-1.54-.2.08,0-.72-.71,0,.09-.27-1c0,.35.07-.26,0,0s-.36.45.32-.39l3.34.88v1a8.55,8.55,0,0,0,.42-3.68,2.29,2.29,0,0,0-2.79-1.69,3.8,3.8,0,0,0-1.39.7c.5-.8,2.44,1.09,2.4,1.07.22.09-.13.59,0,.11,0-.21,0-.21,0,0,0-.15.05-.3.08-.45.09-.4.18-.79.28-1.19.54-2.12-2.62-3.64-3.65-1.54-.12.25-.27.49-.38.73-.25.52.14-.15.42-.31l1-.28h0l1,.27h0l.71.71c-.32-.57.42,1.39.25.74,0,0-.11.55,0,.11.06-.24.09-.49.14-.73.11-.56.23-1.12.3-1.69.33-2.59-2.64-3.55-4-1.34-1.1,1.78-1.83,4.13-.56,6a15.3,15.3,0,0,0,1.8,1.8,1.68,1.68,0,0,1,.37.45,3.75,3.75,0,0,1,.19,1.67c-.13,2.59,3.8,2.54,4,0s.11-4.92-1.62-6.8l-.55-.56c.49.53.11.08.06,0s-.08-.14.05.15a2.68,2.68,0,0,1-.07-.27c-.11.29,0,.15,0-.13s0-.52,0-.62a16.66,16.66,0,0,1,.55-2.4l-3.93-.53c.12,1.54.29,3.07.37,4.61,0,.21,0,.41,0,.62s0,.66,0,.29-.16.26,0,0-.46.34.13-.21c-.08.08-.18.23-.28.27.36-.13.18-.13-.07,0l-1.09.74a37.08,37.08,0,0,0-4,3.3l3.35,2a62,62,0,0,0,1.33-9,30,30,0,0,1,2.16-8.07,2,2,0,0,0-1.16-2.36,2,2,0,0,0-2.49.82,15.51,15.51,0,0,0-3.37,8,34.12,34.12,0,0,0,.52,6.69,20.14,20.14,0,0,1-.89,8.65c-1.15,3.52-2.79,6.89-3,10.64a10.9,10.9,0,0,0,4.14,9.6,2,2,0,0,0,2.94-1.19,20.24,20.24,0,0,0-.38-7.79,2.07,2.07,0,0,0-2.47-1.4c-2.33.34-3.15,2.8-3.79,4.72L229.07,176l3.93.53,4.61-53.07c.19-2.24-3.45-2.72-3.93-.53-4.06,18.38-8.12,36.77-13.44,54.83l3.93.53,3.29-25.83h-4a74.72,74.72,0,0,1-.63,23.31l3.93.53,5.75-49.65c.26-2.22-3.58-2.76-3.93-.53-2.44,15.32-7.78,29.94-13.12,44.45l3.93.53a91.32,91.32,0,0,1,8.13-41.39l-3.66-1.54a148.32,148.32,0,0,1-10.77,36.77,2.07,2.07,0,0,0,.71,2.74,2,2,0,0,0,2.74-.72Z" style="fill:#10123b"/><path d="M197.93,150.23a12.15,12.15,0,0,1,.36-4.6l-3.86-1.06a52,52,0,0,1-2.85,9.11l3.66-.48s-.29-.54-.15-.17c0-.05-.13-.52-.09-.26s0-.24,0-.29c0-.52-.09.29,0-.22a9.5,9.5,0,0,1,.28-.95c-.12.33.1-.22.11-.24l.24-.46a15,15,0,0,1,2.6-3.53h-2.82s.25.2.07,0,.11.24,0,0,.11.45,0,.15,0,.05,0,.09l0,.36c0,.21,0,.42,0,.63a9.77,9.77,0,0,0,.65,3,11.3,11.3,0,0,0,1.64,2.86c.77,1,1.79,2,3.16,1.58s1.74-1.77,2-3a9.62,9.62,0,0,0,.21-3.7,5.82,5.82,0,0,0-1.37-2.87,4.84,4.84,0,0,0-1.26-1,5.77,5.77,0,0,0-.56-.27l-.67-.28-.1-.05a6.76,6.76,0,0,1-.71-.36l-.24-.16s-.32-.23-.18-.12-.08-.07-.09-.08-.23-.21-.34-.33-.31-.32-.46-.48l-.25-.3c.14.16,0,0,0-.05s-.3-.42-.44-.64c-.29-.43-.56-.87-.83-1.31a2,2,0,0,0-3.46,2c1.4,2.27,2.93,4.38,5.46,5.45l.38.16.33.16.36.2.17.11c-.12-.08-.13-.08,0,0s-.13-.22.05,0a3.38,3.38,0,0,1,.24.41c-.1-.19,0-.08,0,0l.12.47c.07.31,0-.28,0,0a4.47,4.47,0,0,1,0,.52c0,.15,0,.3,0,.46-.06.7,0-.13,0,.27s-.14.68-.23,1c0,.15-.09.29-.12.44-.11.52.05-.09.18-.19l.88-.52-.12,0H201c.54.39.67.45.37.18l-.13-.15a4.19,4.19,0,0,1-.39-.45c.2.27-.15-.23-.16-.23-.11-.16-.21-.33-.31-.51l-.27-.52c-.26-.55.09.31-.1-.26a8.74,8.74,0,0,1-.32-1.14c0-.08-.1-.63-.06-.25,0-.19,0-.38,0-.57,0-.36,0-.72-.08-1.07a4.06,4.06,0,0,0-1.26-2.74,2,2,0,0,0-2.82,0,18.81,18.81,0,0,0-3.51,4.89c-.9,1.88-1.43,4.24-.14,6.08a2,2,0,0,0,2,.95,2.07,2.07,0,0,0,1.67-1.43,52.59,52.59,0,0,0,2.85-9.11,2,2,0,0,0-3.86-1.06,16.15,16.15,0,0,0-.5,5.66,2,2,0,0,0,2,2,2,2,0,0,0,2-2Z" style="fill:#10123b"/><path d="M285.45,102.53l.44.5.19.24c.1.13.23.41,0,0,.2.36.51.69.74,1a20.72,20.72,0,0,1,1.28,2.25,2,2,0,0,0,2.26.92,2.12,2.12,0,0,0,1.47-1.93,11.22,11.22,0,0,0-1.21-6A3,3,0,0,0,289.1,98a2.62,2.62,0,0,0-2.4.18,3.21,3.21,0,0,0-1.36,1.81,4.88,4.88,0,0,0,0,2.15l-.07-.53a3.94,3.94,0,0,1,0,.84l.07-.53c0,.11-.17.55,0,.21s0,0,0,0,.36-.41.1-.15c-.05.06-.24.21,0,0s0-.05,0,0c-.22.15.18-.11.22-.09l-.28.07.54-.08a.5.5,0,0,1-.21,0l.53.07,1.1,1.11.07.53a6.52,6.52,0,0,0-.12-1.31,2.81,2.81,0,0,0-1.26-1.59,4.39,4.39,0,0,0-2.49-.52,2,2,0,0,0-.53,3.93,22.84,22.84,0,0,0,7.39,1,2,2,0,0,0,0-4,21.54,21.54,0,0,1-3.59-.18l.53.07a20.3,20.3,0,0,1-3.27-.72l-.53,3.93a3.84,3.84,0,0,1,.76,0l-.53-.08.33.07c.41.12-.27-.14-.15-.07.33.18-.36-.34-.15-.12-.22-.32-.29-.4-.19-.24-.14-.37-.18-.46-.14-.27l-.07-.53c0,.3,0,.6,0,.9a2.29,2.29,0,0,0,1.16,1.73,3,3,0,0,0,2.94-.2,3.85,3.85,0,0,0,1.6-2,4.67,4.67,0,0,0,.08-2.49l.07.54a4.47,4.47,0,0,1,0-.73l-.07.53c0-.08,0-.15.05-.23s-.24.43-.06.16c0,0-.31.37-.12.19a.93.93,0,0,1-.42.26c-.19.07-.22.08-.08,0l-.53.08a.32.32,0,0,1,.17,0l-.53-.07c.32.07.14,0-.55-.35.14.14.1.09-.12-.17a2.24,2.24,0,0,0,.22.4c0,.07.07.14.1.22s.07.14-.06-.15c0,.15.12.3.17.45a9.27,9.27,0,0,1,.45,1.87l-.07-.53a9.94,9.94,0,0,1,0,2l3.72-1a21.58,21.58,0,0,0-3.25-4.8,2,2,0,0,0-2.83,0,2.05,2.05,0,0,0,0,2.83Z" style="fill:#10123b"/><path d="M241,45.94c2.19-.29,4.44.18,6.64.11A9.85,9.85,0,0,0,254,43.8c3.38-2.93,5.64-8.32,4.92-12.79a3.77,3.77,0,0,0-1.66-2.74,6.83,6.83,0,0,0-3.52-.59,62,62,0,0,0-7.82.38,64.19,64.19,0,0,0-8,1.39c-2.11.51-4.89.93-6.43,2.62-1.92,2.12-.92,5.14,1.08,6.78a84.49,84.49,0,0,0,7.49,5c2.16,1.42,4.16-2,2-3.45L236.93,37c-.5-.34-2.91-1.65-2.36-2.36.34-.44,1.51-.58,2-.72,1-.29,2.07-.56,3.12-.8a57.18,57.18,0,0,1,5.82-1c1.9-.23,3.82-.37,5.74-.42,1,0,2,0,3,0a3.51,3.51,0,0,0,1.07,0c-.32.12-.13-.59-.29-.14,0,0,0,.5,0,.5a11.29,11.29,0,0,1-3.95,9c-1.44,1.09-3.3,1.06-5,1a34.87,34.87,0,0,0-6.13.06,2,2,0,0,0-1.39,2.46A2,2,0,0,0,241,45.94Z" style="fill:#10123b"/><path d="M278.47,46c-1.27-.69-1.36-2.36-.85-3.59.73-1.78,2.78-2.64,4.5-3.11,4.95-1.34,10.53-1.13,15.55-.34,10.78,1.71,21.13,6.35,30.62,11.61a51.62,51.62,0,0,1,6.59,4.23,16.06,16.06,0,0,1,4.76,5.12,4.6,4.6,0,0,1-.19,4.92c-1.37,1.74-4.11.75-5.81.08-4.52-1.76-8.19-5.33-12.22-7.94A67.17,67.17,0,0,0,308,50.31a58.75,58.75,0,0,0-33-2.39c-2.51.57-1.45,4.43,1.06,3.86,10.77-2.45,22-1.1,32.27,2.91a64.61,64.61,0,0,1,14.33,8c4.29,3.13,9.08,7.07,14.69,7.14s8.17-6.26,6.21-11c-2.15-5.16-7.78-8.63-12.44-11.28a135.32,135.32,0,0,0-16.48-7.88,73.86,73.86,0,0,0-17.75-4.83,47.3,47.3,0,0,0-10-.3c-3.09.25-6.35.66-9.1,2.2a8.29,8.29,0,0,0-4.4,6.3,6.35,6.35,0,0,0,3.05,6.41c2.26,1.24,4.28-2.22,2-3.45Z" style="fill:#10123b"/><path d="M206.44,247.33a9.79,9.79,0,0,1-2.95-2.08,3.38,3.38,0,0,1-.73-3.37c.64-1.51,2.55-2,4.19-2,4.81.07,9.12,2.78,13.16,5.39L235,255l7.38,4.78c1.42.92,5.75,2.78,6,4.48-7.28-1.44-14.64-4.61-21.5-7.38q-5.28-2.13-10.45-4.54-2.62-1.22-5.21-2.51C210.05,249.2,207.71,247.33,206.44,247.33Z" style="fill:#10123b"/><path d="M222,241.4c-.75-.62-1.54-1.43-1.42-2.39a2,2,0,0,1,2.22-1.54,5.31,5.31,0,0,1,2.67,1.22c1.25.92,9.15,7.52,7.8,9C231.74,249.36,223.31,242.48,222,241.4Z" style="fill:#10123b"/><path d="M234,188.07a3.21,3.21,0,0,1-.35-1.62,2.22,2.22,0,0,1,2.8-1.46,6.33,6.33,0,0,1,2.82,2.11,382.89,382.89,0,0,1,24.76,30.33c1.17,1.6,5.66,6.07,5,8.1-3-.75-6.15-3.28-8.67-5a74.91,74.91,0,0,1-21.22-22.35A72.14,72.14,0,0,1,234,188.07Z" style="fill:#10123b"/><path d="M292.17,161.28c-.54-1.69-1-3.7.08-5.08s3.62-1.31,5.09-.13a10.6,10.6,0,0,1,2.88,4.81,196,196,0,0,1,8.16,28.83c1,4.94,1.81,9.93,2.43,14.93.38,3.12,2.41,10.42.52,13.09-2.3-3.93-3.39-9.26-4.89-13.6Q304,197.05,301.6,190,296.77,175.66,292.17,161.28Z" style="fill:#10123b"/><path d="M345.09,156.69c.23-2.28,1.09-5.13,3.37-5.32a3.48,3.48,0,0,1,3.33,2.75,10.16,10.16,0,0,1-.21,4.64l-3,14.88c-.73,3.61-.77,9.51-2.93,12.5C343.19,177.18,344.16,165.85,345.09,156.69Z" style="fill:#10123b"/><path d="M441,149.37a5.94,5.94,0,0,1,1.67-2.53,2,2,0,0,1,2.75.15c.74,1,0,2.39-.72,3.39-3,4.1-5.75,8.93-9.21,12.56C435.43,158.8,439.32,153.15,441,149.37Z" style="fill:#10123b"/><path d="M436.72,176.64c4.19-5.3,8.84-10.29,12.16-16.17,2.4-4.23,4.07-8.85,6.79-12.88s6.82-7.52,11.67-7.85c1.67,3.2.89,7.22-1,10.29s-4.74,5.41-7.47,7.76a188.13,188.13,0,0,0-16.26,15.81q-3.87,4.23-7.47,8.7c-1.61,2-3.7,6.26-6.2,7.08C430.08,184.79,433.83,180.29,436.72,176.64Z" style="fill:#10123b"/></g></g></svg>