<svg xmlns="http://www.w3.org/2000/svg" viewBox="0 0 43.4 41.82"><g id="Слой_2" data-name="Слой 2"><g id="Слой_2-2" data-name="Слой 2"><path d="M30.94,1.7a70.12,70.12,0,0,0,9.06,8c.52.38,1-.49.5-.87A67.74,67.74,0,0,1,31.65,1c-.45-.46-1.15.24-.71.71Z"/><path d="M23.18,2.26c5.26,5,11,9.52,16.39,14.36.48.43,1.19-.27.71-.7C34.87,11.08,29.14,6.57,23.89,1.56c-.47-.45-1.18.26-.71.7Z"/><path d="M13.09,1.18C21.07,7.62,28.52,14.72,36,21.7c2.17,2,4.35,4.05,6.51,6.08.47.45,1.18-.26.71-.7C35.67,20,28.09,12.82,20.28,6Q17.1,3.15,13.8.47c-.5-.4-1.21.3-.71.71Z"/><path d="M4.78.84C5.94,1.86,7.06,2.93,8.21,4s2.35,1.91,3.54,2.86q3.66,2.89,7.12,6t6.62,6.41c2.18,2.26,4.24,4.64,6.44,6.88a72,72,0,0,0,8,6.8c.51.39,1-.48.51-.86a70.37,70.37,0,0,1-7.31-6.15c-2.2-2.19-4.23-4.55-6.38-6.8A141.73,141.73,0,0,0,13.36,6.83c-1.3-1-2.68-2-3.94-3.13S6.82,1.3,5.49.13C5-.29,4.3.41,4.78.84Z"/><path d="M.66,6.56C7.17,9.9,12.57,14.89,18,19.76c2.44,2.22,4.86,4.43,7.2,6.75s4.91,4.95,7.39,7.4a106.43,106.43,0,0,0,8.09,7.37c.5.4,1.21-.3.71-.7-5.28-4.22-9.91-9.22-14.69-14-2.34-2.34-4.74-4.6-7.19-6.81-2.7-2.44-5.37-4.91-8.17-7.22A56.66,56.66,0,0,0,1.16,5.69c-.57-.29-1.07.57-.5.87Z"/><path d="M1.75,15.35A78.84,78.84,0,0,1,14.56,24.7c2,1.73,3.93,3.5,5.88,5.27s3.69,3.26,5.37,5.07c1.88,2,3.64,4.15,5.56,6.13a.5.5,0,0,0,.71-.7c-1.73-1.79-3.33-3.68-5-5.52s-3.46-3.44-5.28-5.09C17.89,26.3,14,22.71,9.78,19.5a64.22,64.22,0,0,0-7.52-5,.5.5,0,0,0-.51.86Z"/><path d="M1.62,22.37Q13,31.52,23.5,41.68c.46.44,1.17-.26.7-.71Q13.72,30.82,2.32,21.66c-.49-.4-1.2.3-.7.71Z"/><path d="M1.19,29.66Q7,35.35,13.27,40.46c.5.4,1.21-.31.71-.71C9.79,36.34,5.75,32.74,1.9,29c-.46-.46-1.17.25-.71.7Z"/><path d="M0,34.67c-.06.72.65,1.26,1.1,1.71S2.21,37.49,2.77,38q1.68,1.63,3.42,3.21c.47.43,1.18-.28.7-.71-1.06-1-2.12-2-3.16-3Q3,36.85,2.23,36.1l-.76-.76c-.17-.18-.49-.4-.47-.67a.5.5,0,0,0-.5-.5.51.51,0,0,0-.5.5Z"/></g></g></svg>