<svg id="Слой_1" data-name="Слой 1" xmlns="http://www.w3.org/2000/svg" viewBox="0 0 102.19 252.02"><g id="Слой_6" data-name="Слой 6"><path d="M0,151.36l.6,7.75.27,3.47c.08,1-.12,2.76.69,3.57s2.05.54,3,.55l4.08.06,7.34.12,3.67.05c1,0,2.59.34,3.43-.49s.56-1.91.59-2.81c0-1.3.07-2.59.09-3.89v-7.57c0-1-.08-2.09-1.1-2.64s-2.54-.32-3.67-.35l-17.38-.4c-1.93-.05-1.93,2.95,0,3l10.55.24,5.18.12,2.48.06a6.42,6.42,0,0,0,1.24,0c.38-.07.68.26.05-.33s-.36-.21-.35.27q.11,5.22,0,10.44a9.58,9.58,0,0,0-.08,2.45l.53-.55c.66-.41.77-.59.33-.55a2.08,2.08,0,0,0-.61,0H19.51l-5.1-.08-5.91-.09H3.22c-.36,0-.28,0,.24.11l.69.9a13.71,13.71,0,0,1-.28-3.13l-.27-3.47L3,151.36C2.86,149.45-.14,149.43,0,151.36Z" style="fill:#1c1b38"/><path d="M5.6,149.89A18.88,18.88,0,0,1,6.84,146c.09-.2.18-.39.28-.58s.09-.29-.32,0h.92l2.19.09,4.38.18,2.19.09a7.41,7.41,0,0,1,2.1.14l-.66-.38a5.29,5.29,0,0,1,.47,1.13l.58,1.37,1.18,2.74a1.51,1.51,0,0,0,2.05.54,1.55,1.55,0,0,0,.54-2l-1.44-3.36c-.44-1-.76-2.46-1.92-2.88a12.16,12.16,0,0,0-3.4-.27l-3.71-.16-3.54-.14c-1.1,0-2.36-.29-3.33.35s-1.29,1.9-1.67,2.87a20.9,20.9,0,0,0-1,3.36c-.41,1.89,2.48,2.69,2.9.8Z" style="fill:#1c1b38"/><path d="M10,143.18A8.64,8.64,0,0,0,11.34,141a9.63,9.63,0,0,0,.43-1.21q.06-.25.12-.54v-.27l0-.4h0v.05h0a.57.57,0,0,1-.45.36c-.45.18-.56.28-.32.28a2.43,2.43,0,0,0,.66,0l1.4.1,1.32.09.75.06h.32c.21,0-.2,0-.24-.06l-.54-.54c-.21-.3-.08-.64-.09-.28v1A7.46,7.46,0,0,0,14.9,141a5,5,0,0,0,1.31,2.61,1.5,1.5,0,1,0,2.19-2l-.07-.08-.17-.19h0a2,2,0,0,1-.24-.43c.11.24,0,0,0-.11a3.13,3.13,0,0,0-.12-.49c-.09-.34,0,.21,0-.11v-1.42a2,2,0,0,0-1.7-2.26l-.21,0c-.75-.08-1.5-.11-2.26-.17l-2.3-.16a2,2,0,0,0-2.21,1.68,3.56,3.56,0,0,0-.06.44v-.07a2.59,2.59,0,0,1-.11.54,8.75,8.75,0,0,1-.28.91h0l-.12.25-.19.36c-.1.16-.19.31-.3.46s-.11.15-.16.22h0a1.53,1.53,0,0,0,0,2.12,1.51,1.51,0,0,0,2.12,0Z" style="fill:#1c1b38"/><path d="M3.81,167a14.78,14.78,0,0,1,.65,3.28c.08,1.14-.22,2.47.77,3.3s2.18.56,3.21.53c1.19,0,2.38-.16,3.58-.27s2.28-.21,3.43-.24h1.77c.59,0,1,.18,1.54.18a1.85,1.85,0,0,0,1.67-.91,4.77,4.77,0,0,0,.38-1.87l.4-3.59a1.5,1.5,0,0,0-1.5-1.5,1.54,1.54,0,0,0-1.5,1.5l-.2,2.2-.13,1.1-.06.56c-.05.3-.05.36,0,.17l.54-.54-.15.08.75-.21a8.56,8.56,0,0,1-1.43-.15,15.07,15.07,0,0,0-1.64-.06c-1,0-2.11.08-3.16.18s-2.11.2-3.16.27c-.55,0-1.1.06-1.65.07h-1l.54.54c0,.3.08.33.07.12v-1.08c0-.49-.07-1-.14-1.47a19.3,19.3,0,0,0-.64-3c-.57-1.84-3.47-1-2.9.8Z" style="fill:#1c1b38"/><path d="M76.76,150.68a113.15,113.15,0,0,1,.12,14.73,1.51,1.51,0,0,0,1.55,1.49,1.48,1.48,0,0,0,.35-.05c3-.65,6.13-.3,9.18,0a70.94,70.94,0,0,0,9.45.24,2.77,2.77,0,0,0,1.91-.58,2.84,2.84,0,0,0,.64-2c.11-1.56.14-3.12.15-4.68a87.63,87.63,0,0,0-.53-9.71,1.53,1.53,0,0,0-1.5-1.5q-9.85.6-19.74.34a1.5,1.5,0,0,0,0,3q9.87.27,19.74-.34l-1.5-1.5q.4,3.69.5,7.38v6.86c-.06.32,0,.29.31-.08L98,164a53.88,53.88,0,0,1-10.08-.2,33.86,33.86,0,0,0-10,.16l1.89,1.45a113.15,113.15,0,0,0-.12-14.73c-.14-1.91-3.14-1.93-3,0Z" style="fill:#1c1b38"/><path d="M82.84,149.76l1-3.7c0-.1.27-.66.21-.76-.68.34-.81.49-.38.44H92a7.12,7.12,0,0,1,1.9.07l-.66-.39a6.76,6.76,0,0,1,.47.93l.67,1.32,1.28,2.51c.88,1.72,3.47.2,2.59-1.52l-1.48-2.9c-.43-.85-.84-2.19-1.71-2.7s-2.22-.31-3.22-.32h-6.6c-1,0-2.18-.2-3.06.35s-1.09,1.76-1.35,2.72L80,149a1.5,1.5,0,1,0,2.9.79Z" style="fill:#1c1b38"/><path d="M86.78,143.27c.14-.8.29-1.6.45-2.39s.27-1.58.49-2.34l-.39.66.06-.08-.66.39h.9l1.35.1,1.28.09h.3c.33.05.23-.07-.31-.36-.38-.44-.53-.55-.44-.32a3.38,3.38,0,0,0,.18.62l1.48,5a1.5,1.5,0,0,0,2.9-.8l-1.27-4.26a5.2,5.2,0,0,0-1-2.31c-.71-.66-1.87-.56-2.77-.62l-2.26-.16a3.29,3.29,0,0,0-1.17,0A1.82,1.82,0,0,0,84.7,138c-.3,1.44-.59,2.89-.85,4.34a1.49,1.49,0,0,0,2.85.85Z" style="fill:#1c1b38"/><path d="M79.7,166.72l1.06,3.39A8.27,8.27,0,0,0,82,173.23c.88,1,2.26.62,3.41.58s2.3-.07,3.45-.06,2.31.05,3.46.11,2.47.43,3.42-.27.84-2.12.87-3.23l.08-3.48a1.5,1.5,0,0,0-3,0l-.06,2.68a7.52,7.52,0,0,1-.12,2.32l.38-.66h0l.76-.21a17.84,17.84,0,0,1-2.74-.15q-1.45-.08-2.91-.09H86.21a13,13,0,0,0-1.52.06,4.27,4.27,0,0,1-1.13,0l.66.39c.1.2.12.21,0,0l-.12-.39-.21-.65-.45-1.44-.9-2.87c-.57-1.84-3.47-1-2.89.8Z" style="fill:#1c1b38"/><path d="M37.71,177.13a41.26,41.26,0,0,0,.08,7.7c.12,1.23.29,2.46.52,3.68a2.68,2.68,0,0,0,1.7,2.35,11.13,11.13,0,0,0,3.36.17l4.11.05,8,.09c1.29,0,2.59.07,3.89.05,1.14,0,2.21-.28,2.53-1.54a9.88,9.88,0,0,0-.22-3.16c-.14-1.34-.23-2.69-.27-4s0-2.54,0-3.82c0-1.07.36-2.41-.1-3.42a2.51,2.51,0,0,0-2.3-1.41c-1.36-.11-2.74-.12-4.1-.16a144.52,144.52,0,0,0-17.78.71c-1.9.2-1.92,3.2,0,3q6.48-.66,13-.74c2.13,0,4.26,0,6.39.08l1.6.07a3.92,3.92,0,0,0,.91,0l-.23-.25c-.19-.33-.27-.36-.24-.12-.2.22-.08,1.19-.09,1.49q0,.9-.06,1.8a59.72,59.72,0,0,0,.24,6.28,13.15,13.15,0,0,0,.34,3l.2-.4c.31-.33.3-.47,0-.4-.2-.12-.67,0-.92,0h-1.6l-13-.16H41.61c-.47-.13-.58-.07-.33.19s.16.27.1.07,0-.23-.07-.35a31.9,31.9,0,0,1-.5-3.53,41.91,41.91,0,0,1,0-7.26c.15-1.93-2.85-1.92-3,0Z" style="fill:#1c1b38"/><path d="M43.12,175.4,45.38,172c.25-.37.5-1,.94-1.16a7.55,7.55,0,0,1,1.9,0h8.2l-.9-.69c.1.33.18.67.25,1l.31,1.39.64,2.78c.43,1.88,3.32,1.08,2.89-.8l-.77-3.4c-.22-1-.28-2.3-1.11-2.94s-2.2-.41-3.19-.41H47.61a5.32,5.32,0,0,0-3.11.6,9,9,0,0,0-2,2.59l-1.91,2.86c-1.07,1.61,1.52,3.12,2.59,1.52Z" style="fill:#1c1b38"/><path d="M41.33,190.58a12.84,12.84,0,0,0,.06,3.61,8.51,8.51,0,0,0,1,3.35c.81,1.26,2.4,1,3.68,1a25,25,0,0,1,3.76.32c2.06.36,6,1.92,7.14-.66a14.31,14.31,0,0,0,.75-3.55c.22-1.34.4-2.68.56-4a1.5,1.5,0,0,0-3,0c-.23,1.93-.52,3.85-.9,5.75a3.92,3.92,0,0,0-.15.66c.6-.31.74-.45.41-.42h-.33a6.45,6.45,0,0,1-1.17-.14c-1-.18-2-.44-3-.59s-2.06-.26-3.09-.31l-1.48,0a5.47,5.47,0,0,0-.81,0c-.58.14.17-.19.14.28a5.76,5.76,0,0,0-.38-1.22,8.06,8.06,0,0,1-.23-1.19,11.25,11.25,0,0,1,0-2.84,1.5,1.5,0,0,0-1.5-1.5,1.54,1.54,0,0,0-1.5,1.5Z" style="fill:#1c1b38"/><path d="M21.12,167.42c.48,1.92.37,3.93,1.39,5.7a11.45,11.45,0,0,0,3.91,3.7c3.55,2.34,7.16,4.59,10.73,6.88,1.63,1.05,3.14-1.55,1.52-2.59l-10.13-6.48a10.14,10.14,0,0,1-3.32-2.82c-1-1.52-.79-3.49-1.21-5.19C23.54,164.75,20.65,165.54,21.12,167.42Z" style="fill:#1c1b38"/><path d="M62.53,185.11c4.11-2,8.16-4,11.56-7.11,1.52-1.37,3.47-2.92,4.26-4.85a60.38,60.38,0,0,0,2-6.89,1.51,1.51,0,0,0-1.1-1.81,1.49,1.49,0,0,0-1.79,1c-.57,2.09-1,4.24-1.73,6.29a5.63,5.63,0,0,1-1.56,2.05c-.79.79-1.58,1.57-2.41,2.3-3.13,2.79-7,4.62-10.71,6.42-1.74.84-.22,3.43,1.52,2.59Z" style="fill:#1c1b38"/><path d="M47.46,165.88l.47-7.33a7.83,7.83,0,0,0-.14-3.3,6.73,6.73,0,0,0-2-2.37c-2.84-2.54-6.28-4.64-8.08-8.12-.89-1.71-3.48-.2-2.59,1.52,1.73,3.33,4.78,5.53,7.59,7.89a24.25,24.25,0,0,1,2,1.8c.64.69.28,1.91.22,2.78l-.46,7.13c-.12,1.93,2.88,1.93,3,0Z" style="fill:#1c1b38"/><path d="M56.26,165.78l.51-6.25.12-1.44a4.45,4.45,0,0,1,.12-1.45c.28-.61,1.46-1.09,2.06-1.48a29.79,29.79,0,0,0,4.22-3.22,15.65,15.65,0,0,0,3.15-4.48c.8-1.52,2-2.73,2.7-4.31a14.46,14.46,0,0,0,1-5,85.18,85.18,0,0,0-.5-12.16c-.17-1.9-3.18-1.92-3,0a89.16,89.16,0,0,1,.51,12,9.87,9.87,0,0,1-1.27,4.9c-.45.73-1,1.37-1.5,2.1s-.89,1.74-1.39,2.58a12.94,12.94,0,0,1-3.64,3.73c-.77.57-1.57,1.12-2.38,1.63a11.43,11.43,0,0,0-2.06,1.35c-1.29,1.25-1,3.61-1.17,5.25l-.51,6.25c-.15,1.92,2.85,1.91,3,0Z" style="fill:#1c1b38"/><path d="M36.93,144.39a16,16,0,0,1-2.18-5,26.72,26.72,0,0,1-.13-5.44l.11-5.67a6.27,6.27,0,0,1,0-1.37c-.22.29-.17.33.15.1l.31-.13A16.85,16.85,0,0,1,38,126l-1.85-1.85a25.1,25.1,0,0,0,.93,11.29,1.5,1.5,0,0,0,1.87,1,1.56,1.56,0,0,0,.33-.14l4-3a1.55,1.55,0,0,0,.54-2.05,1.52,1.52,0,0,0-2-.54l-4,3,2.2.9a21.66,21.66,0,0,1-.92-9.69A1.53,1.53,0,0,0,38,123.14a1.54,1.54,0,0,0-.74,0c-1.67.36-4.67.94-5.27,2.83a11.81,11.81,0,0,0-.2,3.3l-.07,3.65a37.54,37.54,0,0,0,.15,6.87,18.36,18.36,0,0,0,2.55,6.15A1.5,1.5,0,1,0,37,144.42Z" style="fill:#1c1b38"/><path d="M41.33,121.4a13.18,13.18,0,0,0,1.21,12.86,11.66,11.66,0,0,0,2.19,2.41,2.73,2.73,0,0,0,1.77.87,2,2,0,0,0,1.76-1.19,15.51,15.51,0,0,0,1.66-3.69c.22-.75.22-2.18.79-2.75,0,0-.23-.06-.06,0a2,2,0,0,1,.31.19,2.61,2.61,0,0,1,.47.67c.38.66.72,1.34,1.07,2l2.44,4.62a1.51,1.51,0,0,0,2,.54c2.86-1.67,4.18-5.22,4.62-8.34a12.27,12.27,0,0,0-2.21-9.4,8,8,0,0,0-3.7-2.89c-1.63-.47-3.61-.22-5.29-.24-1.91,0-3.85-.16-5.77-.09a2.56,2.56,0,0,0-2.21,1c-.24.37-.32,1-.61,1.29-1.39,1.34.73,3.46,2.12,2.13a3.22,3.22,0,0,0,.86-1.44c.1-.43.2-.18,0-.17-.24.18-.17.22.22.14h.72L50,120a44.31,44.31,0,0,1,4.46.08,4.59,4.59,0,0,1,2.6,2,9.37,9.37,0,0,1,1.56,7c-.31,2.19-1.16,5-3.2,6.22l2.06.54-2.93-5.55c-.84-1.6-1.84-3.37-3.88-3.44-1.85-.06-2.89,1.55-3.27,3.15a23.6,23.6,0,0,1-.67,2.5,7.38,7.38,0,0,1-1.23,2.4l1.06-.44h-.22l.76.2a8.92,8.92,0,0,1-3.62-5.37,9.7,9.7,0,0,1,.39-6.46,1.56,1.56,0,0,0-.54-2,1.53,1.53,0,0,0-2,.54Z" style="fill:#1c1b38"/><path d="M68.31,123.73l-2.79-.2c-1-.06-2-.19-2.66.7s-.36,2-.35,2.89,0,1.93,0,2.89c0,1.85-.16,3.7-.33,5.54a3.53,3.53,0,0,0,0,.46c0,.07,0,.14,0,.21-.2.57.31.44,1.52-.4a3.17,3.17,0,0,0-.77-.78,5.16,5.16,0,0,0-2.34-1.1A1.56,1.56,0,0,0,58.62,135v0a1.5,1.5,0,0,0,1,1.85,2.42,2.42,0,0,1,1.29.56c.61.55,1,1.26,2,1.27,2,0,2.14-2.24,2.26-3.72s.23-3.21.28-4.82V126c0-.09.07-.65,0-.39l-.38.67.1-.11-.66.39h.59l1,.07,2.1.15a1.5,1.5,0,0,0,0-3Z" style="fill:#1c1b38"/><path d="M43.46,137.59l1.41,16.2a1.54,1.54,0,0,0,1.5,1.5,1.5,1.5,0,0,0,1.5-1.5l-1.41-16.2a1.54,1.54,0,0,0-1.5-1.5A1.51,1.51,0,0,0,43.46,137.59Z" style="fill:#1c1b38"/><path d="M55.68,138.09a63.07,63.07,0,0,0-.77,16.8,1.5,1.5,0,0,0,3,0,59.58,59.58,0,0,1,.67-16,1.55,1.55,0,0,0-1-1.85,1.52,1.52,0,0,0-1.85,1.05Z" style="fill:#1c1b38"/><path d="M62.92,155a103.92,103.92,0,0,1,14,.53,1.5,1.5,0,0,0,0-3,103.92,103.92,0,0,0-14-.53C61,152,61,155,62.92,155Z" style="fill:#1c1b38"/><path d="M69,141.27c3.78,2,7.49,4.22,11.21,6.39a1.52,1.52,0,0,0,2.09-.54,1.54,1.54,0,0,0-.54-2.09c-3.71-2.17-7.43-4.34-11.21-6.39a1.54,1.54,0,0,0-2,.54,1.5,1.5,0,0,0,.54,2Z" style="fill:#1c1b38"/><path d="M24.68,155.68a73.13,73.13,0,0,1,18.87-.29,1.5,1.5,0,0,0,1.5-1.5,1.54,1.54,0,0,0-1.5-1.5,75.23,75.23,0,0,0-19.66.4,1.5,1.5,0,1,0,.64,2.93Z" style="fill:#1c1b38"/><path d="M22.4,146.53a22.26,22.26,0,0,1,5.37-3c2.13-1,4.27-1.87,6.41-2.8a1.5,1.5,0,1,0-1.42-2.64l-.09,0c-2.21,1-4.42,1.9-6.61,2.88a23.41,23.41,0,0,0-5.78,3.43,1.51,1.51,0,0,0,0,2.12,1.53,1.53,0,0,0,2.12,0Z" style="fill:#1c1b38"/><path d="M24.11,161.54l11.71.06a19.58,19.58,0,0,0,5.29-.36,11.77,11.77,0,0,0,4.36-2.67c1.47-1.25-.66-3.37-2.12-2.12a7.66,7.66,0,0,1-3.76,2.05,29.85,29.85,0,0,1-5,.09l-10.5-.05a1.5,1.5,0,0,0,0,3Z" style="fill:#1c1b38"/><path d="M55.9,158c1.19,1.17,2.49,3,4.19,3.39a9.89,9.89,0,0,0,2.55.06l3.11-.08L78,161.11c1.93-.05,1.94-3.05,0-3l-11,.29-5.4.13a1.81,1.81,0,0,1-1.72-.76L58,155.94c-1.37-1.36-3.5.76-2.12,2.12Z" style="fill:#1c1b38"/><path d="M30.5,168.31a64.32,64.32,0,0,1,15-.23,1.5,1.5,0,0,0,0-3,67.52,67.52,0,0,0-15.82.34,1.5,1.5,0,0,0-1.05,1.84,1.53,1.53,0,0,0,1.85,1.05Z" style="fill:#1c1b38"/><path d="M28.47,167.82c.41,2.3,2.44,3.87,4.4,4.88a18.66,18.66,0,0,0,7.16,2,1.5,1.5,0,0,0,0-3,15.66,15.66,0,0,1-5.49-1.52c-.42-.21-.84-.44-1.24-.69a4,4,0,0,1-.87-.66,2.89,2.89,0,0,1-.69-.79,1.35,1.35,0,0,1-.15-.26c0-.07-.1-.19,0,0a2.64,2.64,0,0,1-.2-.73,1.5,1.5,0,0,0-2.89.8Z" style="fill:#1c1b38"/><path d="M57,168.75a107.17,107.17,0,0,1,15.09.59l-1.45-1.9c-.27.8-1.27,1.42-2,1.86a26.27,26.27,0,0,1-2.8,1.53c-2.19,1.06-4.4,2-6.64,3a1.49,1.49,0,0,0-.53,2,1.54,1.54,0,0,0,2,.54c2.47-1,4.92-2.14,7.32-3.34,2.12-1.07,4.62-2.48,5.45-4.84a1.53,1.53,0,0,0-1.12-1.85,1.88,1.88,0,0,0-.33-.05,107.94,107.94,0,0,0-15-.54C55.08,165.82,55.07,168.82,57,168.75Z" style="fill:#1c1b38"/><path d="M42.78,178.09a87.29,87.29,0,0,1,.88,9.27,1.5,1.5,0,0,0,3,0,94.57,94.57,0,0,0-1-10.07,1.51,1.51,0,0,0-1.84-1,1.54,1.54,0,0,0-1,1.85Z" style="fill:#1c1b38"/><path d="M53.58,177.45A59.38,59.38,0,0,0,53.94,188a1.54,1.54,0,0,0,1.5,1.5,1.5,1.5,0,0,0,1.5-1.5,60.19,60.19,0,0,1-.36-10.57,1.5,1.5,0,0,0-3,0Z" style="fill:#1c1b38"/><path d="M46.26,191.65a15.43,15.43,0,0,0,.67,4.92,1.5,1.5,0,0,0,2.91-.71.29.29,0,0,1,0-.09,13.5,13.5,0,0,1-.49-2.27v.4a16.79,16.79,0,0,1-.12-2.25,1.5,1.5,0,0,0-3,0Z" style="fill:#1c1b38"/><path d="M50.51,191.76a47.61,47.61,0,0,1-.08,5.07,1.51,1.51,0,0,0,1.5,1.5,1.54,1.54,0,0,0,1.5-1.5,47.61,47.61,0,0,0,.08-5.07,1.5,1.5,0,0,0-3,0Z" style="fill:#1c1b38"/><path d="M82.92,152.67c0,3.76-.82,7.48,0,11.21a1.5,1.5,0,0,0,2.91-.71.29.29,0,0,1,0-.09c-.77-3.41.07-7,.09-10.41a1.5,1.5,0,0,0-3,0Z" style="fill:#1c1b38"/><path d="M92.32,152a48.81,48.81,0,0,0,.82,13.16,1.5,1.5,0,0,0,2.9-.8A45.74,45.74,0,0,1,95.32,152a1.5,1.5,0,0,0-3,0Z" style="fill:#1c1b38"/><path d="M84.85,167.17l.68,5a1.37,1.37,0,0,0,.69.9,1.45,1.45,0,0,0,1.15.15,1.54,1.54,0,0,0,.9-.69,1.82,1.82,0,0,0,.15-1.15l-.67-5a1.51,1.51,0,0,0-1.85-1h0a1.49,1.49,0,0,0-.89.7,1.73,1.73,0,0,0-.16,1.16Z" style="fill:#1c1b38"/><path d="M89.91,167.12a20.14,20.14,0,0,0-.73,4.94,1.5,1.5,0,0,0,3,0,16.2,16.2,0,0,1,.17-2.08l-.06.4a17.36,17.36,0,0,1,.52-2.46,1.5,1.5,0,1,0-2.9-.8Z" style="fill:#1c1b38"/><path d="M5.2,152.24q.27,7.11.72,14.21a1.5,1.5,0,0,0,3,0q-.45-7.08-.72-14.21C8.13,150.32,5.13,150.31,5.2,152.24Z" style="fill:#1c1b38"/><path d="M16.54,152.35q-.18,5.91-.28,11.78a1.5,1.5,0,0,0,3,0q.1-5.9.28-11.78a1.5,1.5,0,0,0-3,0Z" style="fill:#1c1b38"/><path d="M9,167a28,28,0,0,0,1.1,4.62,1.49,1.49,0,0,0,1.89,1,1.51,1.51,0,0,0,1-1.75,27.32,27.32,0,0,1-1.09-4.63,1.53,1.53,0,0,0-1.87-1,1.5,1.5,0,0,0-.88.68A1.73,1.73,0,0,0,9,167Z" style="fill:#1c1b38"/><path d="M13.78,166.59a18,18,0,0,0-.9,5.14,1.51,1.51,0,0,0,1.5,1.5,1.54,1.54,0,0,0,1.5-1.5A13.9,13.9,0,0,1,16,170l-.05.4a16.25,16.25,0,0,1,.71-3.05,1.5,1.5,0,0,0-2.9-.79Z" style="fill:#1c1b38"/><path d="M30.66,125.46c-2.21.45-4.42.93-6.63,1.36a8.3,8.3,0,0,1-5.74-.44A15.61,15.61,0,0,1,16,124.9a5.33,5.33,0,0,1-1.19-.92c-.33-.44-.25-.72-.3-1.24a11.58,11.58,0,0,0-1.87-5.39l-.89,2.2c1.64-.57,4.5-.94,5.17-2.82a6.41,6.41,0,0,0,0-2.89c-.15-1.21-.3-2.42-.43-3.63q-.81-7.41-1.06-14.86a209.11,209.11,0,0,1,1-29.5c.51-4.94,1.22-10,3.51-14.45.87-1.72-1.72-3.24-2.6-1.52a37.05,37.05,0,0,0-3.44,12c-.62,4.52-1,9.09-1.26,13.66a208.8,208.8,0,0,0,.28,28.3c.2,2.59.45,5.19.75,7.77.08.73.17,1.46.26,2.18a5.52,5.52,0,0,1,.19,1.71c-.12.44.06,0,0,0-.16.21-.89.31-1.14.4l-2.05.71a1.53,1.53,0,0,0-1,1.89,1.73,1.73,0,0,0,.14.31,9,9,0,0,1,1.33,3c.23,1.08,0,2.29.57,3.29a7.4,7.4,0,0,0,2.36,2.16,16.54,16.54,0,0,0,2.86,1.79,10.76,10.76,0,0,0,6.76.74c2.53-.43,5-1,7.55-1.54,1.89-.39,1.09-3.28-.8-2.89Z" style="fill:#1c1b38"/><path d="M19.88,50.3Q22.07,42.62,24.6,35a56.64,56.64,0,0,1,6.21-13.68c1.33-2,2.79-3.9,4.3-5.77.7-.87,1.42-1.73,2.13-2.59a17.34,17.34,0,0,1,2.36-2.64c1.78-1.43,4.95-1.07,7.09-1,2.73,0,5.46.12,8.18.21,3,.09,5.92.18,8.87.33,2.45.12,5.36.41,6.78,2.69,1,1.63,3.62.13,2.59-1.51-2.93-4.7-9.19-4.19-14-4.37q-4.5-.17-9-.27a54.53,54.53,0,0,0-8.76.19c-2.67.36-4.17,1.8-5.84,3.79s-3.3,4-4.87,6a52,52,0,0,0-7.73,14.18c-2.22,6.23-4.16,12.57-6,18.93a1.5,1.5,0,1,0,2.9.79Z" style="fill:#1c1b38"/><path d="M73,9.36c-4,2.17-5,7.39-2.84,11.2,2.48,4.47,7.77,5.87,12.54,5.08s9-4.07,9.37-9.16a9.35,9.35,0,0,0-7.79-9.65c-1.56-.26-3.14-.44-4.71-.55A29.81,29.81,0,0,0,75.26,6c-2.65.19-5.37,2.22-4.55,5.16a1.49,1.49,0,0,0,1.89,1,1.51,1.51,0,0,0,1-1.75C73.16,8.8,76.27,9,77.07,9.08c2,.14,4.07.26,6.08.58,3.2.53,6,2.74,6,6.21,0,7.45-11.37,9.07-15.6,4.29-2.17-2.44-2.12-6.53,1-8.21,1.7-.92.19-3.51-1.51-2.59Z" style="fill:#1c1b38"/><path d="M79.61,7.47a19,19,0,0,0-.42-6.33,1.5,1.5,0,1,0-2.92.72l0,.08c.11.47.2,1,.28,1.43v0a2.54,2.54,0,0,1,0,.39l.06.73a17.9,17.9,0,0,1-.08,2.93A1.5,1.5,0,0,0,78.06,9a1.55,1.55,0,0,0,1.5-1.5Z" style="fill:#1c1b38"/><path d="M86.83,8.13C86.92,6,87,3.88,87,1.75a1.5,1.5,0,0,0-3,0c0,2.13-.09,4.25-.18,6.38a1.5,1.5,0,0,0,1.5,1.5A1.52,1.52,0,0,0,86.83,8.13Z" style="fill:#1c1b38"/><path d="M68.29,128.8c3.28,2.18,7.35,2.42,11.12,1.62a33.07,33.07,0,0,0,6.1-2.1c1.59-.68,3.67-1.24,4.41-3,.34-.81.35-1.68.74-2.47a12.12,12.12,0,0,0,1.27-2.76,3.64,3.64,0,0,0-1.82-4.18c-.64-.33-1.42-.38-2-.72s-.27-1.14-.17-1.84c.33-2.34.66-4.68,1-7,1.29-9,2.54-18.11,2.93-27.24A140.51,140.51,0,0,0,90.51,53,127.77,127.77,0,0,0,83,24.73c-.7-1.78-3.6-1-2.89.8A131,131,0,0,1,89,73.31a196,196,0,0,1-2,25.61c-.58,4.31-1.22,8.62-1.83,12.93-.23,1.64-.86,3.65.3,5.08A3.67,3.67,0,0,0,87,118c.5.2,1.44.27,1.82.65.57.56-.14,1.58-.46,2.14a10.43,10.43,0,0,0-1.09,2.84c-.22,1-1.19,1.17-2,1.55-1,.47-2.11.92-3.19,1.32-4,1.45-8.51,2.18-12.25-.3-1.61-1.07-3.12,1.53-1.51,2.59Z" style="fill:#1c1b38"/><path d="M51.83,117.93a8.52,8.52,0,0,0,9.2-5.1,7,7,0,0,0-4-9,14.3,14.3,0,0,0-11.33.28c-3.49,1.73-5.58,6-3.7,9.65a11.61,11.61,0,0,0,4.77,4.42,12.49,12.49,0,0,0,6.7,1.72c1.92-.09,1.93-3.09,0-3a10.7,10.7,0,0,1-8-3.4,3.71,3.71,0,0,1-1.2-3.24,4.82,4.82,0,0,1,2-3c3.2-2.25,13.14-2.32,12.19,3.65-.5,3.17-3.77,4.41-6.63,4a1.5,1.5,0,0,0,0,3Z" style="fill:#1c1b38"/><path d="M42.87,7.64l.46-2a5.29,5.29,0,0,0,.25-1.13l.1-.45L43,4.51c0,.11,4.09.07,4.47.07l9.18.15,8.94.14a9.24,9.24,0,0,0,2.23,0h.5L68,4.36s.28,1,.32,1.08A20.64,20.64,0,0,0,70,9.29c.94,1.68,3.53.17,2.59-1.52A41.24,41.24,0,0,1,70.82,3.3c-.7-1.67-2.45-1.39-4-1.41L56.2,1.72,45.52,1.55c-1.38,0-3.44-.47-4.36.84-.81,1.14-.88,3.12-1.15,4.45-.42,1.88,2.47,2.69,2.89.8Z" style="fill:#1c1b38"/><path d="M28.48,126.92l-3.09-7.76L24.34,121c1.9-.65,4-.6,5.83-1.29a6.22,6.22,0,0,0,4-3.81,10.31,10.31,0,0,0,.44-2.82v-1.4a2.53,2.53,0,0,0,0-.55c-.15-.81-.21.32-.34.11a6.63,6.63,0,0,0,1.54-.07H41a1.5,1.5,0,0,0,0-3,62.78,62.78,0,0,0-6.86.1,2.53,2.53,0,0,0-2.36,1.48,9.08,9.08,0,0,0-.23,3.07c0,1.72-.36,3.24-2.08,4-1.87.8-4,.68-5.94,1.34A1.5,1.5,0,0,0,22.52,120l3.08,7.77a1.53,1.53,0,0,0,1.85,1,1.5,1.5,0,0,0,1-1.84Z" style="fill:#1c1b38"/><path d="M62.37,111.34a36.57,36.57,0,0,1,6,.38,2.43,2.43,0,0,0,.61.1s-.11-.32-.22-.2,0,.89,0,1a9.63,9.63,0,0,0,.44,2.44,11,11,0,0,0,2.29,4,10.15,10.15,0,0,0,1.74,1.53,6.36,6.36,0,0,0,.93.59,3.07,3.07,0,0,1,.89.48l-.39-.66a6.72,6.72,0,0,1-.17,1.79l-.2,2-.41,4a1.5,1.5,0,0,0,1.5,1.5,1.53,1.53,0,0,0,1.5-1.5l.44-4.4.23-2.19a5.18,5.18,0,0,0,0-2c-.39-1.2-1.79-1.46-2.71-2.12a7.38,7.38,0,0,1-2.13-2.42,7,7,0,0,1-1-2.91c-.11-1.15.07-2.34-.83-3.23s-2.65-.89-3.87-1a40.89,40.89,0,0,0-4.69-.21,1.5,1.5,0,0,0,0,3Z" style="fill:#1c1b38"/><path d="M68.84,122.67a7.93,7.93,0,0,1-1.47-.38l-.28-.1c.21.08-.09,0-.13-.06l-.68-.35a9,9,0,0,1-1.21-.8l-.11-.09c-.1-.09-.21-.17-.3-.26s-.4-.36-.59-.55a15.21,15.21,0,0,1-1.83-2.18c-.31-.44-.62-.89-.9-1.35a4.86,4.86,0,0,1-.6-1.26,1.5,1.5,0,0,0-2.92.72l0,.08a11.93,11.93,0,0,0,1.75,3.26A20,20,0,0,0,62,122.2,11.44,11.44,0,0,0,68,125.56a1.54,1.54,0,0,0,1.85-1,1.52,1.52,0,0,0-1-1.84Z" style="fill:#1c1b38"/><path d="M37.41,125a68.11,68.11,0,0,0,5.53-4.38,7.93,7.93,0,0,0,2.83-6.11,1.5,1.5,0,0,0-3,0h0q0,.34,0,.69v.12l-.06.3a4.49,4.49,0,0,1-.21.65h0l-.07.14c0,.09-.09.19-.14.28a7.44,7.44,0,0,1-1.7,2c-1.52,1.38-3.09,2.48-4.69,3.7a1.53,1.53,0,0,0-.54,2,1.51,1.51,0,0,0,2,.54Z" style="fill:#1c1b38"/><path d="M30.94,116.75c-1-5.72-2.13-11.34-3.46-17s-.93-11.33-.61-17c.07-1.26,0-2.39.86-3.35a8.62,8.62,0,0,1,3.35-2.49,10.87,10.87,0,0,1,3.9-.2l4.71.2q8.93.34,17.86.44,10.17.12,20.34-.14a1.5,1.5,0,0,0,0-3q-19.35.45-38.7-.32c-2.9-.12-6.31-.77-9.12.2a9.86,9.86,0,0,0-3.26,2,8.29,8.29,0,0,0-2.53,3.08A13.94,13.94,0,0,0,23.86,83c-.1,1.69-.17,3.37-.21,5a53,53,0,0,0,.28,9c.47,3.42,1.53,6.74,2.24,10.11s1.3,6.88,1.88,10.33c.31,1.9,3.2,1.1,2.89-.8Z" style="fill:#1c1b38"/><path d="M74.57,77.49l1.73,2c.49.56,1,1,.93,1.73a44.23,44.23,0,0,1-1,5,82.22,82.22,0,0,0-1.07,10.14c-.29,6.5.8,13.78-3.31,19.35-1.15,1.56,1.45,3,2.59,1.52C79,111,77.87,103,78.22,95.88a77.49,77.49,0,0,1,1.41-11.46c.32-1.59,1-3.35.33-4.93s-2.19-2.88-3.27-4.12C75.42,73.92,73.3,76.05,74.57,77.49Z" style="fill:#1c1b38"/><path d="M30.94,84.14l1.94-2a6,6,0,0,0,.55-.57c-.13.17-.4,0,0,.11a11.06,11.06,0,0,0,1.41,0h5.74c.59.06,1.05.71,1.48,1.11l.48.45.2.18c.17.18.19.18,0,0s-.14-.15-.12,0a2.94,2.94,0,0,1,0,.42,2.63,2.63,0,0,1-.07.69,35.78,35.78,0,0,0,0,5.67l1.1-1.44q-3.39.51-6.81.73a45.33,45.33,0,0,1-6.89.2l.76.21-.19-.1.54.54L31,90.18l.21.76a16.89,16.89,0,0,1,.73-6.7,1.51,1.51,0,0,0-1.1-1.81,1.49,1.49,0,0,0-1.79,1,21.8,21.8,0,0,0-.9,6c0,1-.11,2.21.73,2.87s2.15.44,3.16.42a94.1,94.1,0,0,0,12.43-1,1.5,1.5,0,0,0,1.1-1.45c-.09-1.15-.12-2.3-.1-3.46s.19-2.3.24-3.45a3.46,3.46,0,0,0-1.59-2.76,5.84,5.84,0,0,0-2.65-1.81,21.62,21.62,0,0,0-3.5-.14H34.58c-1.2,0-2.28-.11-3.22.75s-1.67,1.74-2.49,2.6c-1.34,1.39.78,3.51,2.12,2.12Z" style="fill:#1c1b38"/><path d="M59.3,81.24l-.21,5.07L59,88.59a5.37,5.37,0,0,0,.13,2.67c.49.93,1.43.92,2.35.93h9.85c.94,0,1.86,0,2.4-.91a7.34,7.34,0,0,0,.47-2.5c.1-.81.19-1.62.25-2.44s.12-1.55.15-2.33a9.74,9.74,0,0,0,0-2.53,2.61,2.61,0,0,0-1.8-1.66,23.85,23.85,0,0,0-2.31-.74A25.42,25.42,0,0,0,60,78.69a1.49,1.49,0,0,0,.85,2.85,21.51,21.51,0,0,1,8.73.46c.48.13,1,.27,1.44.43l.65.23.44.16H72l-.38-.66a5.44,5.44,0,0,1,0,1.8c0,.74-.07,1.47-.13,2.21s-.12,1.38-.2,2.07a5.57,5.57,0,0,1-.1.82l-.09.61c0,.09-.13.43,0,.29l.89-.69H66.41c-1.93,0-3.91.1-5.82-.07l.76.21-.12-.06.54.54v-.12l.21.76c0-1.51.11-3.06.17-4.57l.2-4.69a1.5,1.5,0,0,0-3,0Z" style="fill:#1c1b38"/><path d="M30.89,97.82c2.16,0,4.32,0,6.47-.1l3.11-.14,1.55-.1a9.58,9.58,0,0,1,1.42-.07L42.77,97l.13.11-.39-.66c-.06-.18,0-.26,0,0a2.43,2.43,0,0,1-.13.6c0,.2-.12.69-.17,1a14.3,14.3,0,0,0-.15,2.26,16.38,16.38,0,0,0,.62,4.35,1.51,1.51,0,0,0,1.94.89,1.53,1.53,0,0,0,1-1.69,13.34,13.34,0,0,1-.42-5.37c.11-.91.58-1.91.31-2.82-.36-1.24-1.54-1.41-2.64-1.33-4,.28-7.94.4-11.91.39a1.5,1.5,0,0,0,0,3Z" style="fill:#1c1b38"/><path d="M29.37,98.52a32.05,32.05,0,0,0,.46,5.27,6.3,6.3,0,0,0,.61,2.38c.58.94,1.64,1,2.63,1.06a33,33,0,0,0,10.19-.79,1.5,1.5,0,0,0-.8-2.89,30.22,30.22,0,0,1-8.26.75,5.54,5.54,0,0,1-1-.06h-.45c-.4,0-.67-.21-.07.25s.39.29.31-.08a2.52,2.52,0,0,0-.1-.46c-.07-.38-.14-.76-.2-1.15a27.32,27.32,0,0,1-.31-4.24,1.5,1.5,0,0,0-3,0Z" style="fill:#1c1b38"/><path d="M60,95.66l-.3,5.41c0,.92-.12,1.84-.16,2.76a1.78,1.78,0,0,0,1.55,2,1.7,1.7,0,0,0,.45,0,63.7,63.7,0,0,1,10.52-.15,1.51,1.51,0,0,0,1.5-1.5,1.54,1.54,0,0,0-1.5-1.5c-1.82-.14-3.65-.2-5.47-.16a21.92,21.92,0,0,0-2.69.11c-.89.11-1.82.21-2.72.23l.76.2-.13,0,.53.53-.05-.11.21.75c0-1.39.14-2.83.22-4.22l.28-4.3a1.5,1.5,0,0,0-3,0Z" style="fill:#1c1b38"/><path d="M62.59,96.41A39.53,39.53,0,0,1,67,96.26h1.87c-.18-.06.12.08.16.09.27.15-.16-.13.11.08a4.41,4.41,0,0,0,.83.58,2.17,2.17,0,0,0,.94.3c.3.1.21,0-.26-.44-.27-.55-.39-.67-.37-.36a2.53,2.53,0,0,0,0,.55v6.73a1.5,1.5,0,0,0,1.5,1.5,1.53,1.53,0,0,0,1.5-1.5v-5.1c0-.76.06-1.53,0-2.29a2.07,2.07,0,0,0-1.8-2c-.15,0-.3-.14-.11,0l-.21-.14h0a6.16,6.16,0,0,0-.91-.63,6.77,6.77,0,0,0-2.63-.44,43.88,43.88,0,0,0-5,.13,1.5,1.5,0,1,0,0,3Z" style="fill:#1c1b38"/><path d="M37.44,74.2A162.84,162.84,0,0,1,35.68,46l-1.1,1.45c1.56-.26,4.08-.15,5.11-1.55s.41-3.69.49-5.26a34.92,34.92,0,0,1,2.58-11.43,47.07,47.07,0,0,1,5.62-10c1.12-1.55,2.32-3,3.58-4.48a7.12,7.12,0,0,1,1.8-1.83,6.58,6.58,0,0,1,2.89-.25c1.83.11,2.66,1.27,3.44,2.78.94,1.81,1.81,3.67,2.65,5.52a95.23,95.23,0,0,1,4.55,11.37c1.18,3.91.77,7.91,1.47,11.88a4.46,4.46,0,0,0,2.2,3.4,3.83,3.83,0,0,0,2.09.26,1.85,1.85,0,0,0,.47,0h.15l-.6-.46A7.15,7.15,0,0,0,73,49a81.36,81.36,0,0,1-1.8,13.47C70.21,66.76,67.85,71,68,75.5a1.5,1.5,0,0,0,3,0c-.1-4.15,2.13-8.09,3.09-12.06a76.7,76.7,0,0,0,1.8-12.63c.11-1.51.8-4.13-.41-5.36a2.67,2.67,0,0,0-1.92-.67c-.72,0-1.17.32-1.56-.34A5.67,5.67,0,0,1,71.52,42c-.09-1.11-.13-2.21-.2-3.32a31.94,31.94,0,0,0-.89-6.37,83.73,83.73,0,0,0-4.51-11.63q-1.31-3-2.75-5.86a10.52,10.52,0,0,0-3-4.16,8.06,8.06,0,0,0-5.37-1,5.88,5.88,0,0,0-2.58.59,9.12,9.12,0,0,0-2.11,2,62.43,62.43,0,0,0-7,9.43A43.45,43.45,0,0,0,38,34.29a36,36,0,0,0-.88,7v2.87l.28-.26a27.45,27.45,0,0,1-3.7.61A1.52,1.52,0,0,0,32.61,46,165.38,165.38,0,0,0,34.55,75c.28,1.9,3.17,1.1,2.89-.8Z" style="fill:#1c1b38"/><path d="M40.58,36.71a117.9,117.9,0,0,1,28,2c1.89.36,2.69-2.53.8-2.9A121.9,121.9,0,0,0,40.6,33.67c-1.93.09-1.94,3.09,0,3Z" style="fill:#1c1b38"/><path d="M45.23,20.57A77.92,77.92,0,0,0,47,34.18a1.5,1.5,0,0,0,1.78,1.15,1.51,1.51,0,0,0,1.15-1.79s0-.1,0-.15a73.71,73.71,0,0,1-1.71-12.82,1.54,1.54,0,0,0-1.5-1.5,1.51,1.51,0,0,0-1.5,1.5Z" style="fill:#1c1b38"/><path d="M61,18.85a42.53,42.53,0,0,0-3.66,16.91,1.5,1.5,0,0,0,3,0A38.88,38.88,0,0,1,63.6,20.37a1.56,1.56,0,0,0-.54-2.06,1.53,1.53,0,0,0-2,.54Z" style="fill:#1c1b38"/><path d="M49.46,25.82c.3,1.67.66,3.32,1.1,5,.26,1,.47,2.07,1.53,2.52a4,4,0,0,0,1.37.22l1.3.08a2.59,2.59,0,0,0,1.5-.18,1.65,1.65,0,0,0,.75-1c0-.16.09-.68,0-.31l.06-.41c.12-.82.27-1.63.45-2.44s.38-1.61.61-2.41c.1-.36.24-.71.32-1.08a1.83,1.83,0,0,0-.87-2,3.25,3.25,0,0,0-1.68-.27H51.59a1.5,1.5,0,0,0,0,3H56.5a1,1,0,0,1-.88-.75V25a15.24,15.24,0,0,1-.47,1.67c-.15.55-.29,1.11-.42,1.67s-.24,1.12-.34,1.69a5.69,5.69,0,0,1-.13.81l-.06.41v.28c-.09.55-.07.53.06-.07l.9-.69H55l-.62-.05-1.17-.07a.88.88,0,0,0-.23,0,.79.79,0,0,1,.39.11s.49.43.42.5l-.09-.3c-.11-.38-.21-.76-.31-1.14-.4-1.53-.73-3.07-1-4.62A1.52,1.52,0,0,0,50.62,24l-.12,0a1.53,1.53,0,0,0-1,1.84Z" style="fill:#1c1b38"/><path d="M43.22,53.14c3.66,0,7.32,0,11,0,1.83,0,3.66,0,5.49.08l2.74.06c.25,0,1.38.18.84-.15s-.18-.1-.28.2a3.84,3.84,0,0,0,0,.83q-.33,5.43-.67,10.83l-.18,2.71L62,69v.62c0,.2-.31,1.27.18.55.38-.55.25-.17-.07-.33a2.7,2.7,0,0,0-.62-.08l-1.24-.16c-1-.11-1.94-.21-2.91-.29A84.72,84.72,0,0,0,45,69.16l1.5,1.5c.16-6.32.74-13-1.64-19-.71-1.78-3.61-1-2.9.79,2.29,5.77,1.69,12.17,1.54,18.23a1.5,1.5,0,0,0,1.5,1.5,86.41,86.41,0,0,1,12.77.13c1,.1,2.09.21,3.13.34a4.84,4.84,0,0,0,2.72,0c1.79-.83,1.43-3.49,1.54-5.13Q65.59,61.28,66,55c.1-1.83.52-4.31-1.92-4.67a47.87,47.87,0,0,0-6.22-.17q-7.27-.12-14.56,0a1.5,1.5,0,1,0,0,3Z" style="fill:#1c1b38"/><path d="M74.1,25.58a22,22,0,0,0,2,6.82c1,2.06,2.36,3.86,3.14,6.05a69.6,69.6,0,0,1,3.61,14.34,92.61,92.61,0,0,1,.58,14.7c-.06,2.05-.31,4.17.93,6,.9,1.29,2.72,2.18,3.22,3.7.6,1.82,3.5,1,2.89-.8s-1.9-2.73-3.14-4c-1.48-1.53-.92-3.86-.87-5.8A92.83,92.83,0,0,0,85.74,52,71.6,71.6,0,0,0,82.13,37.7a42,42,0,0,0-3-6A19.69,19.69,0,0,1,77,24.79c-.28-1.91-3.17-1.1-2.89.79Z" style="fill:#1c1b38"/><path d="M60.84,13.58a22.9,22.9,0,0,0,2.62,0,1.63,1.63,0,0,1,.78.18,10.92,10.92,0,0,1,1,.68l1,.71.5.37c-.15-.11.26.22.31.25.31.26.62.54.92.83l.42.45c0,.05.37.45.26.3a1.48,1.48,0,1,0,2.54-1.51,18.75,18.75,0,0,0-4.52-4,6.36,6.36,0,0,0-2.94-1.24c-1-.11-2,.13-3,0a1.5,1.5,0,0,0-1.5,1.5,1.54,1.54,0,0,0,1.5,1.5Z" style="fill:#1c1b38"/><path d="M52.17,10.56a14.4,14.4,0,0,0-7.54.19,11.39,11.39,0,0,0-3.37,1.15,13.35,13.35,0,0,0-2.64,2.39A52.16,52.16,0,0,0,29.91,27.1,115.74,115.74,0,0,0,24,42.22,138.22,138.22,0,0,0,19.25,58a37.94,37.94,0,0,0-.67,8.7,5.11,5.11,0,0,1-.92,3.66,8.18,8.18,0,0,1-3.19,1.87c-1.76.73-1,3.63.8,2.9,2-.81,4-1.69,5.21-3.52s1.09-4.3,1-6.53c-.1-5.35,1.63-10.49,3.23-15.54C27.9,39.48,31.07,29,37.44,20.35c.83-1.13,1.73-2.21,2.67-3.26a12.12,12.12,0,0,1,2.79-2.65,13.8,13.8,0,0,1,4-1.09,9.31,9.31,0,0,1,4.42.14c1.85.57,2.64-2.33.79-2.89Z" style="fill:#1c1b38"/><path d="M32.86,39.56h.24l-.4-.05a1.91,1.91,0,0,1,.45.13l-.36-.16a13.64,13.64,0,0,1,1.94,1.25c.64.45,1.27.91,1.9,1.39a1.49,1.49,0,0,0,2-.54,1.59,1.59,0,0,0,.15-1.15l-.15-.4a1.55,1.55,0,0,0-.54-.54c-.75-.57-1.51-1.13-2.28-1.66s-1.87-1.39-3-1.31A1.64,1.64,0,0,0,31.8,37,1.54,1.54,0,0,0,31.36,38a1.51,1.51,0,0,0,1.5,1.5Z" style="fill:#1c1b38"/><path d="M33.51,37.47,34,36.1c.14-.42.25-.86.42-1.26l-.15.35a1.19,1.19,0,0,1,.12-.22l-.24.31.13-.14-.31.24.11-.06-.36.15h.14l-.4.05h.17l-.4-.05a7.08,7.08,0,0,1,1.47.44l-.35-.15a8.21,8.21,0,0,1,1.59.94l-.3-.23.25.2a1.54,1.54,0,0,0,1.06.44A1.48,1.48,0,0,0,38,36.63a1.53,1.53,0,0,0,0-2.12,9.15,9.15,0,0,0-1.89-1.26,7.08,7.08,0,0,0-2.49-.77,2,2,0,0,0-1.6.67,3.5,3.5,0,0,0-.65,1.31l-.71,2.21a1.5,1.5,0,1,0,2.86.89l0-.09Z" style="fill:#1c1b38"/><path d="M35.28,33.23a6.57,6.57,0,0,1,.2-1.39,11.46,11.46,0,0,1,.43-1.49,19.37,19.37,0,0,1,1.25-2.75c.25-.46.51-.92.77-1.38l.42-.72a2.59,2.59,0,0,1,.19-.31c-.1.14,0,0,0,0a.55.55,0,0,1-.49.2H38l.17.07.84.39,1.68.77a1.47,1.47,0,0,0,1.47-2.54l-2-.93a4.67,4.67,0,0,0-2.38-.69c-1.58.21-2.23,1.84-2.92,3.08a18.36,18.36,0,0,0-2.61,7.73,1.5,1.5,0,0,0,1.5,1.5,1.55,1.55,0,0,0,1.5-1.5Z" style="fill:#1c1b38"/><path d="M71.57,42.32a5,5,0,0,0,3.49-2.77,5.18,5.18,0,0,0,.52-2.39,3.62,3.62,0,0,0-.13-.79,1.88,1.88,0,0,0-1-1.14A3.3,3.3,0,0,0,72.9,35,5.64,5.64,0,0,0,70,36a1.49,1.49,0,0,0-.54,2,1.52,1.52,0,0,0,2,.54,3.85,3.85,0,0,1,.82-.46l-.35.15A4.74,4.74,0,0,1,73,38l-.4.06a4.79,4.79,0,0,1,1.07,0l-.4-.05.17.05-.35-.15h0l-.31-.24h0l-.24-.3a.33.33,0,0,1,.06.1l-.15-.36.06.24-.06-.4a3.39,3.39,0,0,1,0,.78v-.4a4,4,0,0,1-.25.92l.15-.36a4,4,0,0,1-.49.83l.23-.3a3.92,3.92,0,0,1-.67.68l.3-.23a4,4,0,0,1-.77.45l.35-.15a3,3,0,0,1-.69.2,1.51,1.51,0,0,0-.89.69,1.47,1.47,0,0,0-.15,1.16,1.44,1.44,0,0,0,.69.89,1.59,1.59,0,0,0,1.15.15Z" style="fill:#1c1b38"/><path d="M75.78,36.59A10.7,10.7,0,0,0,75.49,32c-.36-1.45-.76-2.89-1.19-4.32a14.22,14.22,0,0,0-.73-2.11,2.42,2.42,0,0,0-2.08-1.28,14.23,14.23,0,0,0-4.35.68,1.5,1.5,0,0,0,.71,2.92l.09,0a13.18,13.18,0,0,1,3.24-.56h.31l-.32-.08c-.24-.29-.32-.35-.22-.19s0,.08,0,0h0l.15.45c.19.59.36,1.17.54,1.76.33,1.14.65,2.29.93,3.44a7.44,7.44,0,0,1,.32,3.14,1.49,1.49,0,0,0,2.85.85Z" style="fill:#1c1b38"/><path d="M14.89,118a34,34,0,0,0,4.59,11.24,1.5,1.5,0,1,0,2.59-1.52,31.4,31.4,0,0,1-4.29-10.52,1.5,1.5,0,1,0-2.92.72l0,.08Z" style="fill:#1c1b38"/><path d="M83.58,117a9.61,9.61,0,0,1-.87,2.67l-1.14,2.88-2.38,6a1.49,1.49,0,0,0,1,1.85,1.51,1.51,0,0,0,1.85-1.05l2.46-6.21,1.23-3.1a9.46,9.46,0,0,0,.8-3,1.5,1.5,0,0,0-3,0Z" style="fill:#1c1b38"/><path d="M84.81,178c-.8,2.2-1.45,4.64-.4,6.88s3.25,2.4,5.16,3.4a6.74,6.74,0,0,1,3.57,4.5c.31,1.13.61,2.26.92,3.39a8.13,8.13,0,0,1,.46,3.93c-.42,1.88,2.48,2.69,2.89.8.55-2.49-.28-4.85-.92-7.24-.6-2.2-1.13-4.36-2.77-6a14.23,14.23,0,0,0-5.3-3c-2.51-1-1.42-3.86-.72-5.79s-2.24-2.61-2.89-.8Z" style="fill:#1c1b38"/><path d="M90.06,178.59a6.38,6.38,0,0,0,2.45,3.64,10.69,10.69,0,0,0,2,1,5,5,0,0,1,1.26.76c1.76,1.53,2.6,3.93,3.41,6.15a1.53,1.53,0,0,0,1.84,1,1.5,1.5,0,0,0,1.05-1.84c-.9-2.48-1.86-5.09-3.71-7a8.09,8.09,0,0,0-1.47-1.21,14.39,14.39,0,0,0-2.07-1A3.14,3.14,0,0,1,93,177.79c-.47-1.87-3.37-1.08-2.89.8Z" style="fill:#1c1b38"/><path d="M14.23,176.6a8.49,8.49,0,0,0,.51,8.14,8,8,0,0,0,3.2,2.88c1.19.58,3.8,1.09,4,2.71a6.83,6.83,0,0,1-.69,2.54,9.91,9.91,0,0,0,.68,7.23c1.48,3,4.68,4.28,6.43,7,1,1.62,3.64.11,2.59-1.51-1.61-2.5-4.5-3.82-6.05-6.31a7,7,0,0,1-1-4.28c.14-1.6,1.09-3,1.06-4.66a4.66,4.66,0,0,0-2-3.56c-1.31-1-3-1.28-4.33-2.21a5.43,5.43,0,0,1-1.79-6.45c.79-1.74-1.79-3.27-2.59-1.51Z" style="fill:#1c1b38"/><path d="M8,177.09a10,10,0,0,0-.92,6.47,9.37,9.37,0,0,0,1.14,3c.57.95,1.28,1.81,1.79,2.8a1.51,1.51,0,0,0,2.05.54,1.53,1.53,0,0,0,.54-2.05c-.85-1.66-2.14-2.95-2.55-4.71a6.68,6.68,0,0,1,.54-4.5,1.53,1.53,0,0,0-.54-2,1.51,1.51,0,0,0-2.05.54Z" style="fill:#1c1b38"/><path d="M47.52,202.89a12.85,12.85,0,0,1,1.53,9.25,20.71,20.71,0,0,0-.86,5.17,10.77,10.77,0,0,0,1.34,4.83A8.2,8.2,0,0,0,57,226.36c1.54,0,2.64.25,3.36,1.74a10.74,10.74,0,0,1,.83,4.72,1.5,1.5,0,0,0,3,0c0-2.91-.52-6.72-3.15-8.5-1.39-.94-3-.91-4.58-1a4.88,4.88,0,0,1-3.94-2.08,7.54,7.54,0,0,1-1.31-4.79c.11-1.82.83-3.55,1-5.37a15.63,15.63,0,0,0-2.12-9.73c-1-1.64-3.61-.14-2.59,1.51Z" style="fill:#1c1b38"/><path d="M64.08,240.92c.13.23-.09-.26,0-.08s0,0,0-.08,0-.15,0,0a1,1,0,0,0,0,.17c0-.11,0-.33,0-.08a9,9,0,0,0-.18,1.16,4.75,4.75,0,0,0,.49,2.37,8,8,0,0,0,2.7,2.77,1.49,1.49,0,0,0,1.15.15,1.5,1.5,0,0,0,1-1.85,1.74,1.74,0,0,0-.69-.89l-.32-.24.09.07-.17-.14c-.2-.16-.39-.33-.57-.5l-.28-.29a1.34,1.34,0,0,1-.11-.14c-.2-.22.14.22,0,.07s-.15-.22-.21-.33a1.19,1.19,0,0,1-.08-.16c-.13-.23.08.26,0,.08s-.08-.24-.11-.37,0-.08,0,0a1.41,1.41,0,0,0,0-.2,3.38,3.38,0,0,1,0-.45c0-.05,0-.29,0-.05s0,0,0-.09a3.37,3.37,0,0,0-.19-2.44,1.5,1.5,0,0,0-2-.54,1.53,1.53,0,0,0-.54,2Z" style="fill:#1c1b38"/><path d="M52.11,201.48a3.38,3.38,0,0,0,.62,2.83c.54.74,1.35,1.29,1.85,2.06s.16,1.73,0,2.56a5.81,5.81,0,0,0,.21,3.5c.79,1.78,3.15,2.59,3.46,4.58,0,.26,0,1.16,0,1.65a4.84,4.84,0,0,0,.76,2.33c1.05,1.61,3.65.11,2.59-1.52a1.79,1.79,0,0,1-.37-1.27,12.1,12.1,0,0,0-.13-2,5.41,5.41,0,0,0-1-2.17c-.69-.93-1.68-1.52-2.38-2.41a2.87,2.87,0,0,1-.21-2.45,7.21,7.21,0,0,0,.07-3.2,5.81,5.81,0,0,0-1.56-2.4c-.24-.25-1.17-1-1.1-1.31.4-1.88-2.49-2.68-2.9-.79Z" style="fill:#1c1b38"/></g></svg>