<svg xmlns="http://www.w3.org/2000/svg" viewBox="0 0 73.61 153.38">
  <g transform="translate(-14 -12)">
    <mask id="waveMask2" maskUnits="userSpaceOnUse">
      <rect x="14" y="12" width="0" height="65" fill="white">
        <animate attributeName="x" from="56" to="14" dur="1s" fill="freeze" />
        <animate attributeName="width" from="0" to="64.8" dur="1s" fill="freeze" />

        <animate attributeName="width" values="64.8;45;64.8" begin="2s" dur="5s" repeatCount="indefinite" calcMode="spline" keyTimes="0;0.5;1" keySplines="0.55 0 0.45 1;0.55 0 0.45 1" />
		<animate attributeName="x" values="14;23;14" begin="2s" dur="5s" repeatCount="indefinite" calcMode="spline" keyTimes="0;0.5;1" keySplines="0.55 0 0.45 1;0.55 0 0.45 1" />
      </rect>
    </mask>
    <g mask="url(#waveMask2)">
      <g transform="translate(0 22)">
        <path fill="none" style="stroke-width:2;stroke:#10123b" d="
      M -20,35 
      Q 5,35 30,45 
      T 80,45 
      T 80,35 
      L 80,235 
      L -20,235 
      Z">
          <animate attributeName="d" dur="5s" repeatCount="indefinite" values="
          M -20,35 Q 5,35 30,45 T 80,45 T 80,35 L 80,235 L -20,235 Z;
          M -20,35 Q 5,45 30,35 T 80,35 T 80,35 L 80,235 L -20,235 Z;
          M -20,35 Q 5,35 30,45 T 80,45 T 80,35 L 80,235 L -20,235 Z
        " calcMode="spline" keyTimes="0;0.5;1" keySplines="0.55 0 0.45 1;0.55 0 0.45 1" />
        </path>
      </g>
    </g>
    <path id="motionPath" d="M5.28,18.79S21.73,17.86,25.19,21,20.42,26,13.92,25.66,5.28,24.24,5,23s8.79-3.25,12.82-2.06,4.12,3.45-.08,3S7.51,22,5.28,18.79Z" style="stroke-width:1;fill:none;" />
    <mask id="waveMask" maskUnits="userSpaceOnUse">
      <rect x="-20" y="0" width="200" height="200" fill="white" />
      <path fill="black" d="
	  M -20,57 
	  Q 5,57 30,67 
	  T 80,67 
	  T 80,57 
	  L 80,257 
	  L -20,257 
	  Z">
        <animate attributeName="d" dur="5s" repeatCount="indefinite" values="
		  M -20,57 Q 5,57 30,67 T 80,67 T 80,57 L 80,257 L -20,257 Z;
		  M -20,57 Q 5,67 30,57 T 80,57 T 80,57 L 80,257 L -20,257 Z;
		  M -20,57 Q 5,57 30,67 T 80,67 T 80,57 L 80,257 L -20,257 Z
		" calcMode="spline" keyTimes="0;0.5;1" keySplines="0.55 0 0.45 1;0.55 0 0.45 1" />
      </path>
    </mask>
    <g mask="url(#waveMask)">
      <g transform="translate(0 50)">
        <animateTransform attributeName="transform" type="translate" begin="1s" dur="5s" from="0 50" to="0 0" repeatCount="1" fill="freeze" />
        <g>
          <animateMotion dur="15s" repeatCount="indefinite" rotate="0">
            <mpath href="#motionPath" />
          </animateMotion>
          <g>
            <animateTransform attributeName="transform" type="rotate" begin="0s" dur="5s" values="15 32 23; -15 0 23; 15 32 23" repeatCount="indefinite" calcMode="spline" keyTimes="0;0.5;1" keySplines="0.55 0 0.45 1;0.55 0 0.45 1" fill="freeze" />
            <g transform="rotate(90) translate(-45 50) scale(0.8)" style="transform-origin:center">
              <path d="M11.23,28.18c16-.58,32-1.16,48-1.05,15,.09,30.14,1.25,45.14,0a97,97,0,0,0,24.38-4.9,1.43,1.43,0,0,0,.93-1.79,1.41,1.41,0,0,0-1-.93c-7.29-2.38-14.56-4.55-22.24-5.21-3.87-.33-7.76-.38-11.65-.44s-7.86-.12-11.79-.14q-23.6-.15-47.17.63-13.19.44-26.37,1.16c-1.8.1-1.79,2.92,0,2.82Q32.95,17,56.4,16.67q11.77-.2,23.58-.14c7.73,0,15.49,0,23.21.39a68.49,68.49,0,0,1,12.68,1.74C120,19.64,124,21,128,22.26l0-2.75C114.08,24.44,99.23,25,84.55,24.83c-7.51-.11-15-.41-22.53-.5-8-.09-15.9,0-23.86.18-9,.2-18,.52-26.94.85-1.81.06-1.8,2.89,0,2.82Z" style="fill:#10123b" />
              <path d="M74.84,16.33c0,.09.06.38,0,.47s.06-.26,0-.09a1.06,1.06,0,0,1,0,.23c-.07.29-.17.56-.27.85a5.55,5.55,0,0,0-.34,1.75,3.18,3.18,0,0,0,.5,1.83,2.75,2.75,0,0,0,2,1.18,13.09,13.09,0,0,0,2,0l2,0a4.13,4.13,0,0,0,1.92-.41A2.51,2.51,0,0,0,83.8,20a8.39,8.39,0,0,0-.28-2.17c0-.17-.07-.34-.11-.52a.32.32,0,0,0,0-.17c0-.16-.06-.22,0,0a3.3,3.3,0,0,1,0-1,1.34,1.34,0,0,0-.42-1,1.4,1.4,0,0,0-2,0,1.75,1.75,0,0,0-.41,1,9.36,9.36,0,0,0,.41,3.2c0,.17,0-.06,0-.08v.52c0,.12,0,.4,0,.21h0c.05-.1.12-.18,0-.05s.22-.29.26-.25-.09.08-.11.06h0l.17-.07-.14,0a.35.35,0,0,0-.14,0s.3,0,.14,0h-.33c-1.13,0-2.26.05-3.34.07h-.5s.28.07.11,0l-.16,0s.23.13.09,0,.09.09.09.09L77,19.73s.2.21.09.11-.1-.22,0,0,0-.06,0-.12a.29.29,0,0,0,0-.13s0,.31,0,.15v-.45c0-.18,0,.28,0,.1a1.51,1.51,0,0,0,.07-.31c.07-.27.17-.53.26-.8a5.12,5.12,0,0,0,.33-2,1.41,1.41,0,1,0-2.82,0Z" style="fill:#10123b" />
              <path d="M96.9,15.92l.24,2.75a7.72,7.72,0,0,1,0,2.25c-.19.77-.55,1.48-.7,2.27a3.89,3.89,0,0,0,.41,2.75A1.41,1.41,0,0,0,99.3,24.5h0c-.08-.15-.1-.17,0-.05a1.38,1.38,0,0,1-.08-.27c0,.25,0-.18,0-.2v-.06a1.43,1.43,0,0,1,0-.22c0-.18.1-.36.16-.53a11,11,0,0,0,.63-2.38,12,12,0,0,0-.08-2.32l-.21-2.57a1.41,1.41,0,1,0-2.82,0Z" style="fill:#10123b" />
              <path d="M11.59,16.32a40.32,40.32,0,0,0,.69-7.27c0-1.18,0-2.36-.15-3.54-.05-.59-.11-1.17-.2-1.76,0-.3-.08-.61-.13-.91a3.35,3.35,0,0,0-.08-.54c0-.35-.06-.36-.12,0l-.51.51c-.23.16-.28,0,0,0a4.85,4.85,0,0,0,.66,0h1.2l2.41,0A3.85,3.85,0,0,1,17,3a6.11,6.11,0,0,1,1.42,1.36,45.52,45.52,0,0,0,3.37,3.16A10.25,10.25,0,0,0,25.61,10a24.09,24.09,0,0,0,4.91.32l4.81.16c1.62.06,3.25.11,4.87.07s3.3-.36,4.95-.34c2.85,0,4.91,2.63,6.56,4.63a1.41,1.41,0,1,0,2-2c-2.42-2.93-5.28-5.71-9.38-5.41-2.22.16-4.4.35-6.63.31s-4.42-.14-6.63-.22L27.76,7.4a4.06,4.06,0,0,1-2.61-.77,43.88,43.88,0,0,1-4.69-4.24,11,11,0,0,0-2-1.81A6.15,6.15,0,0,0,15.31,0H12.1c-1,0-2.28-.13-2.94.88s-.06,2.57.07,3.7.21,2.35.24,3.53a37.45,37.45,0,0,1-.59,7.48,1.45,1.45,0,0,0,1,1.73,1.41,1.41,0,0,0,1.72-1Z" style="fill:#10123b" />
              <path d="M8.79,27.61a71.9,71.9,0,0,0,.54,13.91c.13,1.21.64,2.11,2,2.09a32.31,32.31,0,0,0,3.53-.4A31.13,31.13,0,0,0,18,42.72a9.68,9.68,0,0,0,2.9-1.47,25,25,0,0,0,4.67-3.67c.65-.7,1.11-1.5,1.71-2.27a1.19,1.19,0,0,1,.6-.48,6.76,6.76,0,0,1,1.74,0l13.89.1c2.26,0,4.92.27,6.71-1.42a13.66,13.66,0,0,0,2-3l1.93-3.26a1.41,1.41,0,0,0-2.45-1.4l-2.55,4.3a4.62,4.62,0,0,1-1,1.41,3.15,3.15,0,0,1-1.73.51c-1.61.1-3.25,0-4.86,0l-5,0h-5l-2.5,0a5.63,5.63,0,0,0-2.6.38c-1.25.62-1.79,2-2.66,2.94A16.36,16.36,0,0,1,20.64,38a10.2,10.2,0,0,1-4.07,2.09c-.84.14-1.69.25-2.55.36l-1.49.17-.56.06-.41,0c-.37,0-.36,0,0,.13l.51.5c.15.27,0-.46,0-.56,0-.28-.05-.56-.08-.83-.06-.61-.12-1.21-.17-1.81-.11-1.13-.2-2.32-.27-3.48a52.59,52.59,0,0,1,.06-7.1,1.41,1.41,0,0,0-2.82,0Z" style="fill:#10123b" />
              <path d="M37.74,34.67a54.22,54.22,0,0,1-5.45,3.06c-.56,0-1.12,0-1.69,0a19.36,19.36,0,0,0-3.64.52l1.71,1.05c-.29-2.77-.38-2.16.11-4.91a1.12,1.12,0,0,0-1-1.34,1.41,1.41,0,0,0-1.64.78h0a12.13,12.13,0,0,0-.2,5.49,1.26,1.26,0,0,0,1.38,1.08,1.66,1.66,0,0,0,.32,0,14.89,14.89,0,0,1,3.06-.47A8.26,8.26,0,0,0,34,39.59a21.28,21.28,0,0,0,2.47-1.53c.85-.54,1.68-1.09,2.51-1.65,3.22-2.2.46-1.16,3.36-3.65" style="fill:#10123b" />
              <path d="M52.3,12.37q-.06,8.72,0,17.45a1.42,1.42,0,0,0,1.42,1.4,2.25,2.25,0,0,1,1.79.65c.75.64,1.53,1.25,2.34,1.82,2.2,1.35,5,.7,7.38.51q8.34-.75,16.67-1.54c11.12-1.07,22.22-2.27,33.27-3.77,6.28-.84,12.16-1,18.44-2a1.41,1.41,0,1,0-.77-2.71c-10.93,1.86-21.5,2.51-32.5,3.77s-22,2.32-33.07,3.29l-4.73.41a5.14,5.14,0,0,1-3.31-.35c-1.8-1.11-3.18-3.12-5.55-2.84l1.42,1.4q-.11-8.73,0-17.48C55.14,10.53,52.32,10.55,52.3,12.37Z" style="fill:#10123b" />
              <path d="M55,13.1c4.82-3.08,10.76-3,16.27-2.58,6.67.52,13.33,1.21,20,1.82,13.66,1.25,27.34,2.42,41,4.05q5.64.67,11.24,1.48c2.39.34,5.7.59,7,2.92V19.37a3.39,3.39,0,0,1-2.13,1.87,32,32,0,0,1-4.29,1.17A79.63,79.63,0,0,1,134.35,24a1.46,1.46,0,0,0-1.4,1.42,1.43,1.43,0,0,0,1.42,1.4,85.48,85.48,0,0,0,12.71-2.28,11.43,11.43,0,0,0,4.53-2,4.79,4.79,0,0,0,1.32-1.77c.46-1.07-.29-2-1-2.77-2.46-2.48-6.42-2.68-9.66-3.13q-6.41-.9-12.82-1.6c-17.13-2-34.32-3.37-51.49-4.95-8-.78-17.19-2.24-24.4,2.32-1.53,1-.1,3.39,1.44,2.42Z" style="fill:#10123b" />
              <path d="M60.27,9.63c.32,7.59-1.69,15.48,1.19,22.79a1.47,1.47,0,0,0,1.75,1,1.44,1.44,0,0,0,1-1.75c-2.78-7-.78-14.72-1.09-22-.07-1.81-2.9-1.8-2.82,0Z" style="fill:#10123b" />
              <path d="M129.39,22q11.33.24,22.64-.27c1.81-.08,1.8-2.9,0-2.82q-11.31.49-22.64.27C127.55,19.18,127.58,22,129.39,22Z" style="fill:#10123b" />
              <path d="M14.26,38.69a1.41,1.41,0,0,0,0-2.82A1.41,1.41,0,0,0,14.26,38.69Z" style="fill:#10123b" />
              <path d="M14.32,34.49a1.41,1.41,0,0,0,0-2.82A1.41,1.41,0,0,0,14.32,34.49Z" style="fill:#10123b" />
              <path d="M14.22,7.85a1.41,1.41,0,0,0,0-2.82A1.41,1.41,0,0,0,14.22,7.85Z" style="fill:#10123b" />
              <path d="M14.15,12a1.41,1.41,0,0,0,0-2.82A1.41,1.41,0,0,0,14.15,12Z" style="fill:#10123b" />
              <path d="M37.81,8.08c-.43-.28-5-3.22-5.43-3.21s-1.12,0-1.67,0a18.26,18.26,0,0,1-3.62-.51l1.67-1.15c-.24,3-.34,2.32.19,5.28A1.21,1.21,0,0,1,28,10a1.36,1.36,0,0,1-1.63-.82h0a14,14,0,0,1-.29-5.9,1.28,1.28,0,0,1,1.35-1.19,1.73,1.73,0,0,1,.32,0,12.83,12.83,0,0,0,3,.45A7.62,7.62,0,0,1,34,2.84a20.53,20.53,0,0,1,2.47,1.61C37.33,5,38.17,5.61,39,6.19c3.22,2.32.48,1.25,3.39,3.87" style="fill:#10123b" />
              <path d="M9.58,25.27A12.24,12.24,0,0,1,6,24.93a12.46,12.46,0,0,1-1.79-.58c-.2-.08-.45-.2-.67-.31s-.28-.16-.42-.22-.09,0-.22-.16l.38.66c0-.17-.06-.18,0,0l0-.42,0-.83-.09-1.66a4.62,4.62,0,0,0,0-.83c0-.41-.1-.24-.35.49L3,20.84,4.22,20a17.89,17.89,0,0,1,5.16-2.51,1.5,1.5,0,0,0-.8-2.89,19.45,19.45,0,0,0-5.41,2.51l-1.25.82a8.41,8.41,0,0,0-1.32,1c-.87.91-.56,2.3-.5,3.44S0,24.93.73,25.78a7.26,7.26,0,0,0,2.81,1.53,15,15,0,0,0,6,1,1.54,1.54,0,0,0,1.5-1.5,1.51,1.51,0,0,0-1.5-1.5Z" style="fill:#10123b" />
              <path d="M13.29,26.18c.17-.88.54-1.7.68-2.59a9.53,9.53,0,0,0,0-2.92A8.84,8.84,0,0,0,11.68,16a1.51,1.51,0,0,0-2.13,0,1.54,1.54,0,0,0,0,2.12c.12.13.24.26.35.4-.2-.25.13.18.16.23a8.48,8.48,0,0,1,.52.93c.07.15.08.16,0,0a2.6,2.6,0,0,1,.1.25,5,5,0,0,1,.16.51,4.77,4.77,0,0,1,.13.51c0,.07.11.62.06.26a7.54,7.54,0,0,1,.06,1.06l0,.53h0a2.34,2.34,0,0,1,0,.26c-.15.8-.48,1.54-.64,2.34a1.5,1.5,0,0,0,2.9.79Z" style="fill:#10123b" />
            </g>
          </g>
        </g>
      </g>
    </g>
  </g>
</svg>