<svg xmlns="http://www.w3.org/2000/svg" viewBox="0 0 58.5 56.96" preserveAspectRatio="none"><g><path d="M10.07,9.15q15.67.3,31.36-.18l4-.14c1.07,0,2.76-.47,3.42.61,1.19,2,.7,4.64.45,6.79a21.47,21.47,0,0,0-.19,3.4,28.33,28.33,0,0,0,.56,3.54,30.45,30.45,0,0,1,0,7.69l-1.2,15.35c0,.59-.08,1-.74,1.17a18.38,18.38,0,0,1-2,.32,33.16,33.16,0,0,1-3.72.23c-2.59,0-5.17-.14-7.76-.26a64.89,64.89,0,0,0-7.51,0c-2.55.17-5.1.37-7.66.3s-5.19-.34-7.77-.62l-1-.11c-.32,0-.44,0-.43-.37,0-.67.1-1.35.15-2l.29-3.75c.19-2.52.45-5.06.41-7.6a46.94,46.94,0,0,0-1-7.27c-.8-4.68.93-9.3.48-14a12.69,12.69,0,0,0-.71-3.16c-.23-.6-1.19-.34-1,.26C10.3,14,8.43,19,8.52,23.78c0,2.62.9,5.1,1.15,7.69a46.91,46.91,0,0,1-.18,8l-.31,4L9,45.35a10.33,10.33,0,0,0-.11,1.84c.14,1.18,1.52,1.07,2.42,1.17,1.35.15,2.71.29,4.06.4a56.68,56.68,0,0,0,8.24.14c2.66-.17,5.3-.39,8-.33,5.28.12,10.59.82,15.83-.12,1-.18,1.79-.47,2-1.58s.21-2.54.31-3.79l.63-8c.21-2.68.51-5.37.57-8a20.65,20.65,0,0,0-.25-3.85,27.51,27.51,0,0,1-.57-3.82c-.05-2.42.62-4.8.46-7.21a7.11,7.11,0,0,0-.9-3.25A2.61,2.61,0,0,0,47,7.77c-10.94.42-21.9.59-32.85.45l-4.11-.07a.5.5,0,0,0,0,1Z"/><path d="M26.46,8.33a21.25,21.25,0,0,0,.08-5.52l-.09-.65a4.23,4.23,0,0,1-.12-.68.17.17,0,0,1,.08-.26,1.44,1.44,0,0,1,.36-.07c.23,0,.47,0,.7,0l2.86-.06L33.19,1a3.47,3.47,0,0,1,.72,0c.21.05.21.12.29.34a4.66,4.66,0,0,1,.28,1.27c.13,1.78-.47,3.51-.64,5.26-.06.64.94.63,1,0a48.14,48.14,0,0,0,.65-4.78A5.74,5.74,0,0,0,35.06.81a1.32,1.32,0,0,0-.52-.68A2.21,2.21,0,0,0,33.46,0L28.27.12A5.55,5.55,0,0,0,25.9.35c-.78.4-.56,1.2-.44,1.91a19.78,19.78,0,0,1,0,5.8c-.09.63.87.9,1,.27Z"/><path d="M8.86,22.79c-1.93.07-3.9,0-5.81.27-.68.08-1.73.17-2.17.78a1,1,0,0,0-.1.93A3.69,3.69,0,0,1,1.13,26,5.59,5.59,0,0,1,.49,28.5a3.22,3.22,0,0,0-.38,2.36c.48,1.44,2.26,1.6,3.54,1.63,2.17.06,4.38-.22,6.51.32.62.16.89-.81.26-1a18.24,18.24,0,0,0-4.84-.37c-.83,0-1.65,0-2.48,0A3.11,3.11,0,0,1,1.44,31c-.65-.46-.43-1.23-.16-1.85A10.8,10.8,0,0,0,2,27.12a4.22,4.22,0,0,0,0-2.06c-.08-.26-.38-.58-.11-.73a3.66,3.66,0,0,1,1.27-.28C5,23.81,7,23.86,8.86,23.79c.64,0,.65-1,0-1Z"/><path d="M50.59,24.4l4.55.26a6.69,6.69,0,0,1,1.79.19c.65.22.62.73.41,1.29a9.24,9.24,0,0,0-.61,1.91,8,8,0,0,0,0,2.13c0,.32.08.65.13,1s.16.62,0,.76-.66.13-.85.15c-.37,0-.74.08-1.12.1a16,16,0,0,1-5-.49.5.5,0,0,0-.26,1,16.79,16.79,0,0,0,5.14.54c.4,0,.8-.06,1.2-.11a5.2,5.2,0,0,0,1.19-.21c.68-.27.75-1,.65-1.63a13.22,13.22,0,0,1-.21-2.43,7.27,7.27,0,0,1,.63-2.32,1.92,1.92,0,0,0-.15-2,2.51,2.51,0,0,0-1.68-.73c-.93-.1-1.87-.11-2.8-.16l-3.06-.18c-.65,0-.64,1,0,1Z"/><path d="M25,48.91a41.65,41.65,0,0,0-.42,5.79c0,.75-.18,1.79.7,2.1a3.77,3.77,0,0,0,2.45-.26c1.69-.51,3.5.16,5.2.34.64.07,1.85.28,2.14-.5a1.84,1.84,0,0,0-.1-1.06c-.13-.46-.3-.91-.44-1.37a4.21,4.21,0,0,1,.09-2.78,5.19,5.19,0,0,0,.4-2.69c-.12-.63-1.08-.36-1,.27a4,4,0,0,1-.36,2,5.69,5.69,0,0,0-.4,2,7.65,7.65,0,0,0,.51,2.16l.15.48a3.16,3.16,0,0,0,.15.57c-.06-.1.29,0,0-.07a1,1,0,0,0-.24,0c-.22,0-.44,0-.66,0-1.44-.11-2.85-.57-4.31-.55a6.37,6.37,0,0,0-2.07.43c-.29.1-.86.27-1.15.09s-.14-.79-.14-1.08a39.12,39.12,0,0,1,.39-5.62c.09-.63-.88-.9-1-.27Z"/></g></svg>