<svg xmlns="http://www.w3.org/2000/svg" viewBox="0 0 46.18 127.95" preserveAspectRatio="none"><g id="Слой_2" data-name="Слой 2"><g id="Слой_2-2" data-name="Слой 2"><path d="M42.15,3.41c2.6,10.37,2.57,21.12,1.92,31.73S42.2,56.62,42.15,67.42c-.06,11,.71,22,1.51,33,.4,5.52.81,11,1.12,16.58.08,1.36.16,2.72.22,4.08a6.89,6.89,0,0,1-.37,3.09,3.1,3.1,0,0,1-2.79,1.63,26.78,26.78,0,0,1-3.8,0c-5.25-.27-10.53-1.17-15.77-.22-2.63.47-5.18,1.3-7.87,1.36a38.79,38.79,0,0,1-8-.87,3.59,3.59,0,0,1-2.81-1.7,9.74,9.74,0,0,1-.75-3.29c-.34-2.71-.62-5.43-.86-8.16-.47-5.44-.74-10.89-.86-16.35-.25-10.95.08-21.89.54-32.83S2.69,41.9,3,31c.15-5.48.23-11,.17-16.44,0-2.45-.22-4.93-.09-7.37.09-1.62.37-3.63,1.64-4.79,1.81-1.64,4.24,0,6.2.42a14.09,14.09,0,0,0,6.56-.66C19.75,1.51,22,.79,24.42,1.07a27.5,27.5,0,0,1,6.43,2,15.85,15.85,0,0,0,6.32,1.29c1.57-.09,4-.72,5.27.45.91.8.73,2.25.75,3.34l.08,4.18.15,8.37L44,54.13l.6,33.33.3,16.73.14,8.36c.05,2.52.23,5.07.05,7.58-.15,2.12-.78,4.33-2.68,5.52a9,9,0,0,1-5.73.9,66.16,66.16,0,0,1-7.11-1.4l-8.09-1.77c-2.31-.51-4.72-1.08-7.07-.59-2.17.44-3.71,2-5.61,3a3.18,3.18,0,0,1-2.84.3,3.2,3.2,0,0,1-1.58-2A10.54,10.54,0,0,1,4,121.25c0-1.34-.08-2.69-.11-4q-.45-16.68-.52-33.37t.23-33.25q.3-16.68,1-33.36c.11-2.74.19-5.48.35-8.22A15.4,15.4,0,0,1,5.5,5.19a2.41,2.41,0,0,1,2.44-2c1.29,0,2.59.18,3.88.27s2.67.18,4,.24c2.77.14,5.53.21,8.3.22,5.37,0,10.74-.19,16.08-.62.64-.06.65-1.06,0-1Q31.69,3,23.13,3q-4.29,0-8.55-.28c-1.43-.08-2.85-.18-4.27-.29a9.79,9.79,0,0,0-3.58,0C4.49,3.07,4.15,6,4,8c-.26,2.77-.29,5.58-.4,8.36q-.35,8.6-.6,17.19-.5,17.19-.61,34.38t.18,34.39q.14,8.6.38,17.19c.06,2,0,4.19,1,6A3.66,3.66,0,0,0,8.55,127c2-.8,3.57-2.58,5.71-3.15,2.53-.67,5.22.11,7.7.65l8.34,1.83a49.67,49.67,0,0,0,7,1.27A9.33,9.33,0,0,0,43,126.47a7.09,7.09,0,0,0,3-5.14,45.46,45.46,0,0,0,.11-7.38l-.15-8.62-.62-34.47L44.7,36.39l-.31-17.24-.15-8.61c0-1.37,0-2.77-.1-4.13a3.41,3.41,0,0,0-1.2-2.5c-1.46-1.12-3.58-.74-5.27-.61a15,15,0,0,1-6.56-1.22,29,29,0,0,0-6.49-2,17.92,17.92,0,0,0-7,1c-2.33.65-4.77,1.31-7.17.6-2-.59-4.15-1.69-6.08-.28A6.42,6.42,0,0,0,2.21,5.8a43.62,43.62,0,0,0-.06,6.86c.17,11.3-.24,22.6-.74,33.89S.3,69.12.08,80.42a306.35,306.35,0,0,0,1,33.74c.25,2.72.52,5.46.91,8.16a6.9,6.9,0,0,0,1,2.94A4.15,4.15,0,0,0,5.5,126.9c1.28.31,2.61.49,3.91.67a33.74,33.74,0,0,0,4,.37,34,34,0,0,0,7.94-1.17c5.5-1.18,11-.27,16.55,0a27,27,0,0,0,3.92,0,4.71,4.71,0,0,0,2.88-1.07c1.64-1.51,1.31-4.1,1.21-6.1-.59-11.39-1.63-22.76-2.26-34.15-.32-5.69-.53-11.38-.53-17.08s.27-11.18.68-16.76c.81-11,2-21.94,1.5-32.94a80.8,80.8,0,0,0-2.2-15.57.5.5,0,0,0-1,.26Z"/></g></g></svg>