<svg xmlns="http://www.w3.org/2000/svg" viewBox="0 0 45.45 47.21" preserveAspectRatio="none"><g id="Слой_2" data-name="Слой 2"><g id="Слой_2-2" data-name="Слой 2"><path d="M41.17,2.06C43,8.79,44.77,15.65,44.4,22.68c-.2,3.6-.84,7.17-1.39,10.73s-1.1,7.12-1.66,10.68a2.37,2.37,0,0,1-.74,1.76,2.84,2.84,0,0,1-1.72.35,21.18,21.18,0,0,1-4.21-1c-3.37-.85-6.79-1.54-10.23-2.06A111.63,111.63,0,0,0,3.86,42.05c-.8,0-1.56,0-2-.77a6.66,6.66,0,0,1-.52-2.12,23.32,23.32,0,0,1-.14-4.87c.21-3.18.85-6.3,1.24-9.46a27.89,27.89,0,0,0-.17-9.16C1.73,13,.69,10.13,1.06,7.33A5.46,5.46,0,0,1,6.27,2.6c2.78-.27,5.54.52,8.27,1A50.31,50.31,0,0,0,34.17,2.8c1.62-.39,3.17-1,4.78-1.4.75-.2,1.44-.13,1.69.71a9.78,9.78,0,0,1,.14,2.59L41,15.44l.36,21.74.09,5.24.63-.48a35.54,35.54,0,0,0-11.18-.44c-3.88.33-7.75.7-11.65.79A117,117,0,0,1,7.37,42c-1-.08-2-.17-2.95-.27-.69-.07-2,0-2.48-.57s-.4-1.95-.4-2.71a25.61,25.61,0,0,1,.2-2.77c.46-3.71,1.47-7.32,1.44-11.08A73.87,73.87,0,0,0,1.91,13.68c-.29-1.85-.54-3.7-.65-5.57a20.22,20.22,0,0,1,.21-5.44c.23-1,.93-1.25,1.87-1.41a18.25,18.25,0,0,1,3-.24c1.93,0,3.86.16,5.78.32L38.79,3.47c.64,0,.64-1,0-1L13.92.48C11.9.32,9.87.12,7.85.05A16.42,16.42,0,0,0,2.17.5C.48,1.07.38,2.81.27,4.34a32.06,32.06,0,0,0,.15,5.71c.4,3.82,1.24,7.59,1.6,11.42a30.91,30.91,0,0,1,0,5.85c-.2,2-.61,3.92-.95,5.88a30,30,0,0,0-.56,5.67c0,1.58.16,3.23,2,3.59A47.4,47.4,0,0,0,8.35,43c2.06.14,4.11.23,6.17.27A117.17,117.17,0,0,0,27,42.86a63.15,63.15,0,0,1,11.82-.46,21.6,21.6,0,0,1,3,.51.52.52,0,0,0,.64-.49l-.38-23L41.84,8c0-1.8.07-3.66-.12-5.45A2.15,2.15,0,0,0,39.27.32,13.86,13.86,0,0,0,37,1q-1.26.41-2.55.72a46.74,46.74,0,0,1-5.09,1,49,49,0,0,1-10.69.35C15.47,2.81,12.36,2,9.17,1.65,6.59,1.38,3.7,1.56,1.79,3.53s-2,5-1.52,7.61c.54,3.09,1.51,6,1.51,9.19,0,6.68-2.57,13.28-1.24,20,.27,1.32.83,2.56,2.32,2.74A15.29,15.29,0,0,0,5.3,43c1,0,1.92,0,2.88,0a109.6,109.6,0,0,1,11,.56,108.1,108.1,0,0,1,10.89,1.7c1.76.37,3.52.78,5.26,1.24a13.08,13.08,0,0,0,4.11.74,2.8,2.8,0,0,0,2.63-1.74,15,15,0,0,0,.46-2.58L43,39.94c.58-3.76,1.19-7.51,1.74-11.28a49,49,0,0,0,.59-11A66.9,66.9,0,0,0,43.49,7c-.43-1.75-.89-3.49-1.36-5.23a.5.5,0,0,0-1,.26Z"/></g></g></svg>