<svg xmlns="http://www.w3.org/2000/svg" viewBox="0 0 47.37 168.77" preserveAspectRatio="none"><g id="Слой_2" data-name="Слой 2"><g id="Слой_2-2" data-name="Слой 2" ><path d="M43.7,3.29c4.2,12.15,2,25.14.45,37.55a171.26,171.26,0,0,0-1.31,19.73c-.05,6.78.13,13.57.28,20.35s.35,13.64.72,20.45.94,13.38,1.46,20.07c1,13.24,1.86,26.66-.17,39.85-.12.81-.25,1.6-.39,2.4a3.94,3.94,0,0,1-.82,2.32,3.45,3.45,0,0,1-2,.61c-.81.08-1.61.12-2.42.14a56.82,56.82,0,0,1-9.39-.67c-6.09-.87-12.19-2.21-18.37-2a40.7,40.7,0,0,0-4.41.47c-.68.1-1.6.21-2-.49A6.36,6.36,0,0,1,5,161.56c-.28-3.41-.5-6.82-.71-10.22q-.65-10.2-1.16-20.41-1-20.42-1.53-40.85T1,49.38C1,36.22,1.11,23,3.58,10q.46-2.43,1-4.83a4.39,4.39,0,0,1,.86-2.1,4.08,4.08,0,0,1,2.06-.92A43.18,43.18,0,0,1,17.36,1a47.23,47.23,0,0,1,9.55,1,55.23,55.23,0,0,0,8.48,1.34,13.69,13.69,0,0,0,7.48-1.62l-.75-.43A175.82,175.82,0,0,0,43.46,22.2c.86,6.84,2.16,13.63,2.39,20.53s-.36,13.93-.68,20.87-.58,14-.76,21.06q-.54,21-.24,42,.15,10.54.51,21.07.18,5.23.41,10.45c.12,2.58.93,6.7-1.6,8.42a8.79,8.79,0,0,1-4.44,1.16,23.35,23.35,0,0,1-4.8-.33c-3.07-.48-6.1-1.29-9.2-1.54a30.62,30.62,0,0,0-8.78,1c-2.84.58-6,1.09-8.6-.57-4.24-2.72-3.86-9-3.56-13.34.47-6.89.58-13.78.44-20.68-.28-13.85-1.45-27.66-2-41.5C2.23,83.89,2.09,77,2.27,70.16S3.09,56.25,3.66,49.3a199.6,199.6,0,0,0,.9-20.89c-.17-6.85-1-13.66-1.43-20.49,0-.87-.1-1.74-.13-2.6a5.1,5.1,0,0,1,.14-2.43c.37-.68,1.36-.78,2-.89a15.79,15.79,0,0,1,2.47-.18A49.1,49.1,0,0,1,17,3.26a29.32,29.32,0,0,0,9.1.59C29.06,3.52,32,2.8,35,2.48a14.56,14.56,0,0,1,8.47,1.16c.57.3,1.08-.56.5-.86-5.54-2.9-11.8-.65-17.6,0a29.86,29.86,0,0,1-9.56-.61A44.19,44.19,0,0,0,7.36.82a10.26,10.26,0,0,0-4,.64c-1.25.59-1.4,1.8-1.36,3,.12,3.53.42,7.05.72,10.57a178,178,0,0,1,.81,21.41C3.22,43.67,2.5,50.84,1.94,58S1.13,72.2,1.2,79.31c.15,14.29,1.36,28.54,2,42.81.32,7.07.5,14.15.34,21.22-.08,3.46-.29,6.91-.49,10.36a27.71,27.71,0,0,0,.33,7.39,9.33,9.33,0,0,0,3.24,5.65c2.27,1.74,5.11,1.83,7.83,1.43,3.1-.46,6.1-1.44,9.27-1.37s6.55,1,9.81,1.51c2.91.48,6.1.8,9-.15s3.72-3.25,3.75-6c0-3.43-.28-6.89-.41-10.31-.14-3.59-.26-7.19-.36-10.78q-.6-21.74-.31-43.48c.19-14.42.74-28.83,1.47-43.24.18-3.55.32-7.1.25-10.65A95.91,95.91,0,0,0,46,33c-.93-7-2-14-2.49-21.15q-.34-5.26-.36-10.55a.52.52,0,0,0-.76-.44C37,4,30.55,1.58,24.94.63A45,45,0,0,0,15,.07a46.65,46.65,0,0,0-4.72.52A17.58,17.58,0,0,0,5.82,1.65,3.88,3.88,0,0,0,3.76,4.48C3.34,6.1,3,7.76,2.68,9.41c-.62,3.22-1.1,6.48-1.47,9.74C.46,25.82.19,32.54.09,39.25-.12,53.14.07,67.05.34,81s.73,27.9,1.36,41.85q.46,10.46,1.08,20.91c.2,3.48.41,6.95.64,10.43q.17,2.64.36,5.28A22.75,22.75,0,0,0,4.23,164a2.3,2.3,0,0,0,2.5,1.64c1.52-.07,3-.44,4.56-.52a51.1,51.1,0,0,1,9.33.52c6.37.84,12.72,2.32,19.18,2.11a11.66,11.66,0,0,0,4-.54c1.25-.54,1.58-1.7,1.81-2.94a97.53,97.53,0,0,0,1.3-9.92A155.88,155.88,0,0,0,47.13,134c-.33-6.9-.94-13.77-1.48-20.66s-1-13.82-1.21-20.75-.38-14-.51-20.94-.21-13.85.23-20.76C45,37.94,48.31,25,46.71,12a44.44,44.44,0,0,0-2-9c-.21-.61-1.18-.35-1,.26Z"/></g></g></svg>