<svg xmlns="http://www.w3.org/2000/svg" viewBox="0 0 46.65 88.47" preserveAspectRatio="none"><g id="Слой_2" data-name="Слой 2"><g id="Слой_2-2" data-name="Слой 2"><path d="M43.43,3c1,8.43,1.63,16.91,1.94,25.4s.33,16.93.2,25.39-.41,17-.71,25.53c-.06,1.85.18,4.16-.79,5.82A5.27,5.27,0,0,1,40,87.42a18.54,18.54,0,0,1-6-.81q-3-.7-6.13-1.15a77.89,77.89,0,0,0-12.21-.82c-2.08,0-4.15.13-6.23.32-1,.09-2,.23-2.94.32a2.66,2.66,0,0,1-2.32-.54,6.31,6.31,0,0,1-.89-2.67c-.22-1-.43-2-.62-3-.38-2-.69-4-.93-6.07A115.91,115.91,0,0,1,1,61.11C.91,53,1.47,44.93,2,36.85a234.93,234.93,0,0,0,.58-24.32c-.08-2-.21-4-.4-5.95-.09-.9-.24-1.8-.26-2.71s.13-1.7,1-2a9.64,9.64,0,0,1,2.73-.4q1.34-.09,2.67-.06a43.42,43.42,0,0,1,5.34.48c6.92,1,13.94,3.15,21,2.07a23.24,23.24,0,0,0,4.9-1.4c1.13-.42,3.05-1.21,4.07-.18a3.46,3.46,0,0,1,.56,2.52c0,1.09,0,2.17,0,3.25l0,6.5-.16,25.73L43.73,66.2l-.08,12.87c0,1.68.38,4.16-1.29,5.21-1.45.92-3.56.85-5.21.91-7.9.28-15.71-1.44-23.6-1.19a38,38,0,0,0-5.73.61c-1,.18-1.92.42-2.87.69s-1.85.49-2.09-.63A12.52,12.52,0,0,1,2.8,81.8c0-1,.1-2,.19-3,.2-2.1.51-4.19.81-6.28A68.9,68.9,0,0,0,4.74,60.3c-.13-4.25-.69-8.47-1.23-12.69s-1-8.4-1.14-12.64-.16-8.49,0-12.74S2.73,13.65,3,9.36q.23-3.15.46-6.31c.06-.89.18-1.67,1.25-1.57a7.59,7.59,0,0,1,2.16.7C10.39,3.6,14.28,3.4,18,3.1c4.26-.34,8.52-.71,12.78-1.07L43.12,1c.63-.05.64-1,0-1C34.33.74,25.55,1.59,16.76,2.19a30.08,30.08,0,0,1-6,0,15.1,15.1,0,0,1-2.89-.65C7.1,1.22,6.37.84,5.59.63c-1.44-.39-2.85,0-3,1.67-.27,2.17-.33,4.38-.48,6.56a231.7,231.7,0,0,0-.67,26.61c.21,4.39.69,8.76,1.25,13.12A109.68,109.68,0,0,1,3.77,61.76,90,90,0,0,1,2.5,74.66C2.21,76.75,2,78.85,1.84,81a27.56,27.56,0,0,0,0,3.15A2.77,2.77,0,0,0,2.46,86a2.25,2.25,0,0,0,2.11.41c1-.2,1.89-.53,2.85-.73A35,35,0,0,1,13.55,85a99.86,99.86,0,0,1,12.22.65,83,83,0,0,0,12.41.49C39.8,86,41.71,86,43.09,85s1.54-2.77,1.55-4.43q.09-13.43.17-26.85L45,26.85l.09-13.49,0-6.62c0-1.61.42-3.92-.9-5.16-1.08-1-2.7-.76-4-.37-1.63.5-3.15,1.2-4.83,1.55a31.4,31.4,0,0,1-11-.08c-3.7-.55-7.35-1.37-11.06-1.87A42.18,42.18,0,0,0,7.85.37c-.93,0-1.85,0-2.77.1A9.58,9.58,0,0,0,2.47.91C.92,1.53.78,3.21.93,4.67c.21,2.07.41,4.14.52,6.23.24,4.21.25,8.44.14,12.66C1.37,32,.67,40.33.28,48.72a146.09,146.09,0,0,0,.54,25q.38,3.08,1,6.1c.21,1,.43,2,.67,3.07a5.76,5.76,0,0,0,.93,2.45c1.14,1.4,3.19.92,4.74.74q3.17-.34,6.34-.43a75.74,75.74,0,0,1,13,.75c2.13.3,4.26.7,6.36,1.19a20.18,20.18,0,0,0,6,.84,6.89,6.89,0,0,0,4.32-1.8c1.31-1.28,1.56-3,1.63-4.8.18-4.38.31-8.76.44-13.14.28-8.84.47-17.68.43-26.52s-.3-17.65-1-26.46c-.32-4.25-.74-8.51-1.25-12.74-.08-.63-1.08-.64-1,0Z"/></g></g></svg>