<svg xmlns="http://www.w3.org/2000/svg" viewBox="0 0 45.47 56.58"><g id="Слой_2" data-name="Слой 2"><g id="Слой_2-2" data-name="Слой 2"><path d="M41.16,2.39C42.89,10.14,44.63,18,44.46,26a112.39,112.39,0,0,1-1.12,11.87L41.83,49.69l-.37,3c-.11.84-.1,1.94-.83,2.52-1,.77-2.52.33-3.56,0a98.29,98.29,0,0,0-11.32-3,93.46,93.46,0,0,0-11.42-1.52q-2.84-.2-5.67-.21c-1,0-1.9,0-2.84,0a20.34,20.34,0,0,1-2.7.07c-1-.12-1.26-1.05-1.44-1.88a22,22,0,0,1-.39-2.92,38.78,38.78,0,0,1,0-5.39c.25-3.72.87-7.4,1.23-11.11a39.36,39.36,0,0,0-.28-10.73C1.7,15.37.8,12.19,1,9c.22-3,2-5.67,5.11-6.08s6,.74,8.92,1.26A42.13,42.13,0,0,0,36.64,2.39c.81-.29,1.6-.68,2.43-.91,1.08-.3,1.51.41,1.63,1.38a21.84,21.84,0,0,1,.07,2.43l0,3.24L41,20.75l.37,24.19.09,6,.63-.48c-3.82-1.1-7.8-.9-11.71-.49-4.13.43-8.23.85-12.38.9a95.9,95.9,0,0,1-12.45-.65,13.4,13.4,0,0,1-3-.44c-1-.37-1-1.72-1-2.62a35.9,35.9,0,0,1,.36-6c.52-4,1.29-8,1.23-12A103.68,103.68,0,0,0,2,17,62.42,62.42,0,0,1,1.26,5.1,8.14,8.14,0,0,1,1.7,2.23C2.1,1.38,3.2,1.28,4,1.16a27.27,27.27,0,0,1,6.32.06c8.4.8,16.81,1.65,25.21,2.47L38.78,4c.64.06.63-.94,0-1L12.3.41A52.42,52.42,0,0,0,5.92,0a16.19,16.19,0,0,0-3.1.36A2.8,2.8,0,0,0,1,1.46,5.28,5.28,0,0,0,.35,3.93C.25,5,.21,6,.2,7.08a57.89,57.89,0,0,0,.35,6.18c.45,4.18,1.18,8.33,1.5,12.52A44.37,44.37,0,0,1,2.14,32c-.13,2.14-.46,4.27-.77,6.39a62.87,62.87,0,0,0-.73,6.28,26.37,26.37,0,0,0,0,3.08,3.73,3.73,0,0,0,.71,2.39A3.44,3.44,0,0,0,3.61,51c1.05.14,2.11.27,3.17.38q3.22.33,6.46.45a96.51,96.51,0,0,0,13.06-.4c4.1-.41,8.23-1.09,12.35-.63a19.38,19.38,0,0,1,3.19.64.51.51,0,0,0,.63-.48l-.39-25.57-.2-12.72-.09-6.36c0-1,0-2-.06-3.05a3.84,3.84,0,0,0-.59-2.09c-1.08-1.46-2.93-.39-4.23.09a41.82,41.82,0,0,1-5.6,1.65,41.15,41.15,0,0,1-11.61.87,39.73,39.73,0,0,1-5.94-.86c-1.49-.33-3-.7-4.48-.91C6.45,1.61,3.47,2,1.62,4.39s-1.77,6-1.32,9c.53,3.57,1.46,7,1.5,10.67C1.87,31.77-.54,39.42.44,47.17c.18,1.42.33,3.48,1.84,4.15a6,6,0,0,0,2.59.16c1,0,2-.06,3-.06a88.17,88.17,0,0,1,12.26.8A89.36,89.36,0,0,1,32,54.66c1.84.5,3.64,1.18,5.48,1.66A4.43,4.43,0,0,0,41.12,56c1.38-1,1.29-3,1.48-4.5l.81-6.41C43.94,41,44.52,36.81,45,32.64a64.73,64.73,0,0,0,.3-12.37A101.16,101.16,0,0,0,43.41,8c-.41-2-.85-3.94-1.29-5.91-.14-.63-1.1-.36-1,.26Z"/></g></g></svg>