<svg xmlns="http://www.w3.org/2000/svg" viewBox="0 0 45.21 44.33"><g id="Слой_2" data-name="Слой 2"><g id="Слой_2-2" data-name="Слой 2"><path d="M6.5,17.84a6.16,6.16,0,0,1,1.36-4.57,25.25,25.25,0,0,1,2.9-3.68C13,7.34,16.09,6.81,19.11,6.36c.64-.09.37-1.06-.26-1-3.38.49-6.67,1.19-9.08,3.79a26.24,26.24,0,0,0-3.13,4.13,6.65,6.65,0,0,0-1.11,4.79c.13.63,1.09.36,1-.27Z"/><path d="M27.05,5.76c.66-.32,1.74.25,2.35.51a13.13,13.13,0,0,1,1.93,1,15.82,15.82,0,0,1,3.36,2.86A20.41,20.41,0,0,1,39,18a.5.5,0,0,0,1-.26A21.46,21.46,0,0,0,35,9a16.41,16.41,0,0,0-3.81-3,14.92,14.92,0,0,0-2.27-1,3,3,0,0,0-2.39-.12c-.58.28-.07,1.14.5.86Z"/><path d="M39.24,25.55c-1.3,2.9-2.32,6.17-4.79,8.31a25.05,25.05,0,0,1-3.62,2.46,12.29,12.29,0,0,1-4.28,1.86c-.63.09-.36,1.06.27,1a12.74,12.74,0,0,0,4.43-1.91A28.75,28.75,0,0,0,35,34.7c2.64-2.22,3.72-5.58,5.1-8.64.26-.58-.6-1.09-.87-.51Z"/><path d="M18.27,38.14c-2.64-1-5.39-2-7.37-4.14a20.85,20.85,0,0,1-2.53-3.58,17.54,17.54,0,0,1-2-4.2.5.5,0,0,0-1,.26,18.36,18.36,0,0,0,2.09,4.35,22.45,22.45,0,0,0,2.74,3.88c2.09,2.23,5,3.35,7.82,4.4.6.22.86-.74.26-1Z"/><path d="M.48,21.71q8.9.64,17.83.66a.5.5,0,0,0,0-1q-8.92,0-17.83-.66c-.64-.05-.64.95,0,1Z"/><path d="M22.45.36A49.4,49.4,0,0,0,22.72,17c.11.63,1.08.36,1-.27A48,48,0,0,1,23.41.63c.1-.63-.86-.9-1-.27Z"/><path d="M27.78,22.36l16.95.16a.5.5,0,0,0,0-1l-16.95-.16a.5.5,0,0,0,0,1Z"/><path d="M23.12,43.85a105.31,105.31,0,0,0,0-17.4c0-.64-1-.65-1,0a105.31,105.31,0,0,1,0,17.4c-.05.64.95.63,1,0Z"/><path d="M17.84,16.64a14.27,14.27,0,0,1,4.4-1.56A5,5,0,0,1,24.73,15a5.12,5.12,0,0,1,1.66,1.34c2,2.05,4.64,5.06,3.21,8.15a11.3,11.3,0,0,1-2.81,3.39,6.35,6.35,0,0,1-4.42,1.24A4.93,4.93,0,0,1,20,28.78a5.65,5.65,0,0,1-1.72-1.58,11.78,11.78,0,0,1-2.07-3.93,7.36,7.36,0,0,1-.25-4.63c.57-1.53,2.31-1.9,3.41-3,.46-.44-.24-1.15-.71-.7-1.16,1.1-2.8,1.45-3.51,3A7.39,7.39,0,0,0,15,22.65a12.85,12.85,0,0,0,2.12,4.67c1,1.37,2.19,2.61,4,2.78a10,10,0,0,0,5.27-.65,8.08,8.08,0,0,0,2-1.64,18.47,18.47,0,0,0,1.63-1.91c2.27-3.22.34-6.86-2-9.38a16.77,16.77,0,0,0-2.05-2,3.65,3.65,0,0,0-2.69-.59,15.39,15.39,0,0,0-5.86,1.84c-.56.31-.06,1.17.51.86Z"/></g></g></svg>