<svg xmlns="http://www.w3.org/2000/svg" viewBox="0 0 31.9 32.77"><g id="Слой_2" data-name="Слой 2"><g id="Слой_10" data-name="Слой 10"><path d="M1.28,16.34c4.24-1.24,7.93-3.83,11.65-6.13L25.21,2.59c1.1-.67.09-2.4-1-1.72L12.32,8.23C8.64,10.52,5,13.19.75,14.41a1,1,0,0,0,.53,1.93Z" style="fill:#1d1d1b"/><path d="M.48,17.7q13.69,8,28,15c1.15.57,2.16-1.16,1-1.72Q15.19,24,1.49,16a1,1,0,0,0-1,1.72Z" style="fill:#1d1d1b"/><path d="M31.89,29a101.88,101.88,0,0,1-1-16.37c.08-4,1.24-9-1.71-12.33-.87-1-2.28.46-1.42,1.41,1.44,1.6,1.43,3.85,1.35,5.87-.1,2.34-.24,4.67-.24,7A106.7,106.7,0,0,0,30,29.55c.18,1.27,2.1.73,1.93-.53Z" style="fill:#1d1d1b"/><path d="M11.14,21.06a74.43,74.43,0,0,0,8.51-4.94q4.23-2.67,8.39-5.47c1.07-.71.07-2.45-1-1.73q-4.16,2.79-8.39,5.47a73,73,0,0,1-8.51,4.94c-1.17.54-.16,2.26,1,1.73Z" style="fill:#1d1d1b"/><path d="M18.62,25.64c1.84-.23,3.4-1.46,4.95-2.4l4.94-3c1.1-.67.09-2.4-1-1.73l-4.62,2.83-2.23,1.36a5.66,5.66,0,0,1-2,1,1,1,0,0,0-1,1,1,1,0,0,0,1,1Z" style="fill:#1d1d1b"/></g></g></svg>