<svg xmlns="http://www.w3.org/2000/svg" viewBox="0 0 130.21 111.75"><g id="Слой_2" data-name="Слой 2"><g id="Слой_11" data-name="Слой 11"><path d="M61.4,98.09a10.69,10.69,0,0,0,10.1-.52,7.35,7.35,0,0,0,3.61-4.21,8.48,8.48,0,0,0-.59-5.65c-1.47-3.32-5-4.53-8.35-4.48a12.14,12.14,0,0,0-5.23,1,8.49,8.49,0,0,0-3.58,3.66c-2.15,4.25,1.54,8.49,5,10.68a2.5,2.5,0,0,0,2.53-4.32l-.74-.5c.36.25-.17-.15-.28-.24a12.49,12.49,0,0,1-1.24-1.28c-.05,0-.33-.42-.16-.18s0-.09-.07-.11c-.17-.26-.33-.53-.49-.8,0-.08-.18-.43,0,0a3.22,3.22,0,0,1-.14-.44c0-.05,0-.39,0-.12s.08-.38,0,.09c0-.14.07-.27.11-.41,0,.11-.22.4,0,0l.16-.28c0-.06.3-.44.12-.19s.1-.12.15-.17l.21-.25.31-.31c.05,0,.5-.38.24-.22s.14-.06.2-.1a2.1,2.1,0,0,1,.3-.15c-.4.17,0,0,.05,0l.45-.11.45-.09s-.38,0-.08,0l1-.08c.53,0,1-.05,1.58,0,.24,0,.48,0,.73.06-.51,0-.19,0,0,0l.5.1c.23.06.46.13.68.21.44.15,0,0,0,0a7.13,7.13,0,0,1,.69.4s-.29-.27-.11-.07.21.19.31.3.27.45.07.08c.12.22.25.44.38.65s-.09-.35,0,0c0,.14.1.27.14.41a6.08,6.08,0,0,1,.16.74c0-.11,0-.46,0,0a5.42,5.42,0,0,0,0,.57c0,.26,0,0,0-.1a3.27,3.27,0,0,1-.1.45c-.1.44,0,.14,0,0-.06.13-.15.24-.21.37,0,0,.26-.29.07-.09s-.19.21-.3.3-.38.35-.15.16-.26.17-.26.18c-.24.15-.49.3-.75.43l-.39.2c-.41.21.16,0-.11,0a18.15,18.15,0,0,1-1.79.48c.49-.1.13,0,0,0l-.54,0a7.71,7.71,0,0,1-1,0c.53.06-.21-.07-.39-.12l-.41-.13c-.5-.15.33.17-.19-.09a2.55,2.55,0,0,0-3.42.9,2.52,2.52,0,0,0,.9,3.42Z" style="fill:#1d1d1b"/><path d="M68.17,66.44c-2.21.42-3.64-2.57-4.29-4.16a24.25,24.25,0,0,1-2-8.48c-.09-3.43.14-6.88.17-10.31s-.12-6.64.06-10c.14-2.46.6-5.06,3.19-5.95a3,3,0,0,1,3,.2,21.13,21.13,0,0,1,3,2.84,7.33,7.33,0,0,1,1.64,2.57c.46,1.39-.07,2.87-.39,4.25-.75,3.21-1.48,6.43-2.26,9.64C68.45,54.29,65.6,61.51,67,69a2.5,2.5,0,0,0,4.82-1.33c-.7-3.7.07-7.45,1-11s2-7.29,2.84-11Q76.34,43,77,40.23A23.69,23.69,0,0,0,78.05,34c-.15-3.44-2.4-6.17-4.8-8.43a13.14,13.14,0,0,0-3.91-2.83,8.12,8.12,0,0,0-5.76.16,9.55,9.55,0,0,0-6.19,7.91c-.63,3.84-.31,7.82-.35,11.69s-.32,7.86-.16,11.77A28.6,28.6,0,0,0,60.12,66c1.84,3.54,5.28,6,9.38,5.24a2.51,2.51,0,0,0,1.74-3.07,2.55,2.55,0,0,0-3.07-1.75Z" style="fill:#1d1d1b"/><path d="M11.94,108.2c13,2.38,26.24,2.37,39.38,2.72,12.94.35,25.92,1,38.86.8a106,106,0,0,0,18.48-1.63,60.16,60.16,0,0,0,8.67-2.3,29.16,29.16,0,0,0,7.81-3.7c5-3.69,6-10,4.33-15.67a49.55,49.55,0,0,0-3.83-8.7L121,70.65c-6-11.6-11.72-23.36-18-34.8A107.16,107.16,0,0,0,92.42,20.28c-1.9-2.36-3.82-4.7-5.55-7.19-1.55-2.22-2.79-4.64-4.38-6.83A14.33,14.33,0,0,0,76.12,1c-2.74-1.07-5.8-1-8.7-.9a22.58,22.58,0,0,0-9,1.66A18.14,18.14,0,0,0,52,7.48c-4,5.18-7.59,10.63-11.36,15.94S33,34.11,29.21,39.47,22,49.93,18.69,55.39a163.65,163.65,0,0,0-8.78,17c-2.65,5.87-5,11.84-7.41,17.83-2.2,5.58-4.29,12,0,17.14a8.23,8.23,0,0,0,6.86,3.12,2.56,2.56,0,0,0,2.5-2.5,2.53,2.53,0,0,0-2.5-2.5,4,4,0,0,1-3.94-2.73c-1.07-2.43-.23-5.31.59-7.68C7.9,89.5,10.27,84,12.61,78.6A185.91,185.91,0,0,1,30,47.09C37,36.89,44.24,26.88,51.4,16.8c1.6-2.26,3.14-4.6,4.85-6.77A11.47,11.47,0,0,1,62,5.68,28.89,28.89,0,0,1,70,5c2.38,0,4.77.32,6.58,2a25.83,25.83,0,0,1,4.07,5.7,72.14,72.14,0,0,0,5,7.05c3.54,4.53,7.2,8.88,10.21,13.79C99,38.64,101.62,44,104.35,49.3l8.54,16.58,8.54,16.58c2.22,4.31,5.32,9.84,3.13,14.77-1,2.18-3,3.4-5.09,4.37a46.22,46.22,0,0,1-7.76,2.68A78.86,78.86,0,0,1,95,106.59c-12,.53-24.17-.16-36.22-.47s-24.45-.27-36.58-1.49c-3-.3-5.94-.71-8.89-1.25a2.56,2.56,0,0,0-3.07,1.74,2.52,2.52,0,0,0,1.74,3.08Z" style="fill:#1d1d1b"/></g></g></svg>