<svg xmlns="http://www.w3.org/2000/svg" viewBox="0 0 78.93 116.99"><g id="Слой_2" data-name="Слой 2"><g id="Слой_4" data-name="Слой 4"><path d="M28.34,109.69c-4.15-.63-7.47-3.28-10.73-5.74-3-2.25-6-4.71-7.89-8a22.1,22.1,0,0,1-2-5.7c-.54-2.24-1-4.49-1.49-6.75A47.57,47.57,0,0,1,5.11,70.24a24.82,24.82,0,0,1,4-11.41c2.35-3.66,5.56-6.62,8.6-9.68a69.08,69.08,0,0,0,14.67-21c3.66-8.51,5.22-18.42.66-26.91l-3.92,3C35,8.84,40.92,13.76,45.2,19.94c4.62,6.67,6.5,14.36,6.89,22.39.23,4.72,0,9.44-.14,14.16a2.52,2.52,0,0,0,3.16,2.41A21.83,21.83,0,0,0,69.66,40.62l-4.91.66c2.54,11.93,7.46,23.39,8.81,35.57,1.14,10.34-.33,21.46-8.08,29a20,20,0,0,1-13.37,6l2.41,3.16c1.68-5.09,6-8.8,8.11-13.75a24.76,24.76,0,0,0,1.24-14.49,24.15,24.15,0,0,0-7.62-13.15c-2.14-1.9-4.52-3.53-6.6-5.5a23.49,23.49,0,0,1-4.39-5.72,23.91,23.91,0,0,1-2.57-15.88,2.51,2.51,0,0,0-4.57-1.93,64.39,64.39,0,0,0-9.46,22C27,74,26.25,82.23,31.15,88.54l3-3.93A22.88,22.88,0,0,1,21.35,68.2c-.5-2.57-4.11-2.17-4.82,0a45.62,45.62,0,0,0,6.06,39.48,42.88,42.88,0,0,0,7.86,8.61,2.57,2.57,0,0,0,3.54,0,2.53,2.53,0,0,0,0-3.54A40.83,40.83,0,0,1,19.47,79.89a38,38,0,0,1,1.88-10.36H16.53a27.53,27.53,0,0,0,15.13,19.4,2.51,2.51,0,0,0,3-3.93c-3.86-5-2.27-12.76-.91-18.31a60.31,60.31,0,0,1,8.66-19.51l-4.57-1.93A29.32,29.32,0,0,0,48.28,73.59c4,3.31,8,6.33,9.89,11.42a20.45,20.45,0,0,1,.28,13.29c-1.88,5.7-6.85,9.7-8.75,15.44a2.53,2.53,0,0,0,2.41,3.17C63,116.66,72,108.65,76,98.94,81,87.06,78.78,73.66,75.5,61.66c-2-7.23-4.37-14.36-5.93-21.7a2.49,2.49,0,0,0-2.74-1.8,2.55,2.55,0,0,0-2.17,2.46A16.63,16.63,0,0,1,53.78,54.08L57,56.49c.35-8.68.64-17.54-1.51-26-2-8.09-6.65-15-12.49-20.86A111.41,111.41,0,0,0,32.67.71,2.54,2.54,0,0,0,29.39.52a2.51,2.51,0,0,0-.64,3.22c3.78,7,2.12,15.66-1,22.63-3.59,8-9,14.72-15.16,20.85A51.65,51.65,0,0,0,4.15,57.38a30.16,30.16,0,0,0-4,12.86,51.47,51.47,0,0,0,1.2,14.1c.86,4.36,1.64,8.94,3.52,13,2,4.33,5.74,7.48,9.45,10.32s7.84,6.12,12.73,6.86a2.56,2.56,0,0,0,3.07-1.74,2.52,2.52,0,0,0-1.74-3.08Z" style="fill:#1d1d1b"/></g></g></svg>