<svg xmlns="http://www.w3.org/2000/svg" viewBox="0 0 137.68 137.36"><g id="Слой_2" data-name="Слой 2"><g id="Слой_3" data-name="Слой 3"><path d="M66.12,38c5.21-.21,10.76-1.76,14.83-5.14,4.24-3.52,5-9.8.47-13.41A18.54,18.54,0,0,0,67.54,16a22.7,22.7,0,0,0-6.93,2.05c-2.16,1-4.46,2.5-5.53,4.73a8.6,8.6,0,0,0,.56,8A14.71,14.71,0,0,0,62,36.12a2.56,2.56,0,0,0,3.42-.9,2.52,2.52,0,0,0-.9-3.42c-2.28-1.12-6-3.29-5.13-6.43.39-1.38,2-2.14,3.2-2.75a17.45,17.45,0,0,1,4.6-1.55,14.43,14.43,0,0,1,9.43,1.25c1.15.61,2.69,1.5,2.92,2.92a4.5,4.5,0,0,1-1.86,3.87c-3,2.65-7.66,3.77-11.59,3.93-3.21.13-3.23,5.13,0,5Z" style="fill:#1d1d1b"/><path d="M53.75,50.1a66,66,0,0,0,20.73-1.35,13.42,13.42,0,0,1,2.2-.58s-.33-.18-.31-.14a2.26,2.26,0,0,1,.25.67,40,40,0,0,1,1.09,5A67.53,67.53,0,0,1,78.82,63.9a34.67,34.67,0,0,1-.19,5.29c-.22,1.65-.67,3.26-1,4.89-.63,3.17-.78,6.44.75,9.39a8.34,8.34,0,0,0,3.19,3.29c1.26.75,2.69,1.13,4,1.82a4.47,4.47,0,0,1,2.23,4.57c-.32,2.29-2.32,3.4-4.45,4a85.42,85.42,0,0,1-9.42,1.62c-3.43.53-6.85,1.15-10.29,1.56-3,.37-6.17.52-9-.7a7.42,7.42,0,0,1-3-2.21,3,3,0,0,1-.7-2.6c.61-1.41,3.94-.93,5.45-1.11a8.59,8.59,0,0,0,3.94-1.26,10,10,0,0,0,3.1-3.79,44.1,44.1,0,0,0,3.37-9.53c1.65-6.6,4-15,0-21.28a5.62,5.62,0,0,0-5.32-2.62c-1.92.1-3.89.58-5.81.29a4,4,0,0,1-2.91-1.59,1.44,1.44,0,0,1-.19-.83c0-.05.23-.65.18-.55s.32-.28.08-.18a2.57,2.57,0,0,0,1.74-3.07,2.51,2.51,0,0,0-3.07-1.75,6.14,6.14,0,0,0-3.35,8.3c1.47,3.27,5.11,4.64,8.49,4.73a26.2,26.2,0,0,0,2.94-.16c.64-.07,2.18-.51,2.76-.2s1.18,2.59,1.35,3.44c.65,3.22,0,6.65-.74,9.81a66,66,0,0,1-3,10.8A11,11,0,0,1,57.9,88c-.82.8-2.07.79-3.18.84-2.95.14-6.19.37-7.93,3.16-1.88,3-.66,6.89,1.62,9.32,5.47,5.82,14.1,4.24,21.08,3.16L81,102.69c3.11-.49,6.27-1.17,8.73-3.27,4.91-4.16,3.71-12.51-2-15.34a24.47,24.47,0,0,1-3.95-1.84A4.49,4.49,0,0,1,82.18,79a14.35,14.35,0,0,1,.47-4.52,49.32,49.32,0,0,0,1.07-6.26A57.8,57.8,0,0,0,83,55.16q-.48-3.3-1.25-6.54c-.41-1.78-1-3.68-2.58-4.74-2-1.31-4.36-.31-6.48.15a57,57,0,0,1-5.82,1,64.64,64.64,0,0,1-13.12.09,2.51,2.51,0,0,0-2.5,2.5,2.55,2.55,0,0,0,2.5,2.5Z" style="fill:#1d1d1b"/><path d="M100.46,4.31C97.72,1.86,94.36.88,90.78.46A108.57,108.57,0,0,0,79.66,0a141.41,141.41,0,0,0-23.9,1.41C42.32,3.53,29,9,19.63,19.22A44.75,44.75,0,0,0,9.87,36.94,66.92,66.92,0,0,1,6.13,47.62c-1.73,3.46-3.84,6.75-5,10.48-2.35,7.63-.58,15.79.94,23.4,1.41,7.06,3.16,14.43,7.5,20.34,4,5.48,9.67,9.28,15.63,12.4,3,1.55,6,3,9,4.45,3.32,1.65,6.54,3.49,9.81,5.26a65,65,0,0,0,10.73,4.83,49.13,49.13,0,0,0,11.6,2.13,73.37,73.37,0,0,0,11.67-.2c2-.17,4-.44,6-.68a10.35,10.35,0,0,1,5.35.46c1.8.73,3.5,1.72,5.29,2.48s3.61,1.45,5.47,2a57.66,57.66,0,0,0,11.48,2.29c3.24.32,7.65-.51,7.68-4.62,0-1.92-1.17-3.26-2.21-4.74a7.65,7.65,0,0,1-1.39-3.7,18.39,18.39,0,0,1,2-9,109,109,0,0,1,5.3-10c3.85-6.67,7.87-13.26,10.63-20.48a66.13,66.13,0,0,0,1.82-40.36c-3.44-12.84-11-25.93-22.51-33.07a31.46,31.46,0,0,0-9.06-3.82c-3.13-.75-4.46,4.07-1.33,4.82,12.18,2.95,20.69,14.37,25.35,25.37a62,62,0,0,1,3.51,37,70,70,0,0,1-7.55,19c-3.45,6.25-7.44,12.27-10.4,18.78a28.28,28.28,0,0,0-2.71,9.5,13.41,13.41,0,0,0,2.79,9.42c.26.35.48.74.76,1.08l.09.33a.55.55,0,0,1,.19-.65s-.19.09-.14.09c-.55,0-1,.16-1.57.13-.92,0-1.86-.15-2.78-.28a52.06,52.06,0,0,1-10.51-2.58,49.24,49.24,0,0,1-4.81-2,32.5,32.5,0,0,0-5.09-2.24c-3.68-1-7.65,0-11.37.39-7.34.67-14.86.58-22-1.66-6.77-2.15-12.73-6.24-19-9.39-5.7-2.85-11.61-5.4-16.82-9.11A29.1,29.1,0,0,1,9.61,90.92,80.13,80.13,0,0,1,7.07,81,104.07,104.07,0,0,1,5.2,70,27.11,27.11,0,0,1,6,59.43c1-3.38,3-6.34,4.59-9.49,3.12-6.33,4-13.52,7.32-19.74C23.5,19.78,34,12.68,45.08,9.07a86.25,86.25,0,0,1,22-3.83A178.78,178.78,0,0,1,89,5.3c2.76.19,5.78.64,7.92,2.55,2.39,2.14,5.94-1.38,3.53-3.54Z" style="fill:#1d1d1b"/></g></g></svg>