<svg xmlns="http://www.w3.org/2000/svg" viewBox="0 0 112.63 113.6"><g id="Слой_2" data-name="Слой 2"><g id="Слой_3" data-name="Слой 3"><path d="M33.13,10.23C44.24,6.82,56.41,3,68.05,6.1c5.42,1.42,10.5,4.23,15.42,6.87,4.61,2.46,9.15,5.33,12.29,9.6a62.3,62.3,0,0,1,7.64,14.79,35.23,35.23,0,0,1,2.18,8.37c.34,3.1.15,6.23.56,9.32.39,2.92,1.34,5.78,1.47,8.74a21.64,21.64,0,0,1-1.2,7.77c-1.7,5.17-4.71,9.88-7.52,14.5-5.07,8.34-11,16.83-20.81,19.86-5.5,1.71-11.36,2.06-17.08,2.37a132.4,132.4,0,0,1-18.79.08,21.72,21.72,0,0,1-7.9-2.12,49.12,49.12,0,0,1-6.87-4.35A56,56,0,0,1,16.08,91.26,39.64,39.64,0,0,1,9.3,76.7,152,152,0,0,1,5.73,58.87c-1.5-10.84-1.07-22.65,5-32.15C16,18.38,25.22,13.53,34.09,9.83,36.38,8.87,38.7,8,41,7.08A2.56,2.56,0,0,0,42.77,4,2.51,2.51,0,0,0,39.7,2.26c-10,3.85-20.46,7.94-28.22,15.64C3.06,26.26-.17,38.07,0,49.69a106.48,106.48,0,0,0,2.54,19.8c1.26,6.14,2.58,12.34,5.32,18a44.78,44.78,0,0,0,10.28,13.25,60.4,60.4,0,0,0,14,10c6,2.9,12.66,2.88,19.2,2.83A161.23,161.23,0,0,0,71,112.44c5.8-.74,11.54-2.18,16.46-5.47A45,45,0,0,0,98.81,95.34a136.7,136.7,0,0,0,8.77-14.24c2.83-5.23,5.24-11,5-17.1-.11-3.24-1.13-6.3-1.55-9.49s-.17-6.32-.57-9.46c-.8-6.35-3.41-12.23-6.25-17.91-2.73-5.46-6.07-10.24-11-13.95-4.58-3.46-9.87-6-15-8.47A43.92,43.92,0,0,0,60,0,69.87,69.87,0,0,0,40.88,2.76c-3.05.81-6.07,1.72-9.08,2.65S30,11.17,33.13,10.23Z" style="fill:#1e1e1c"/><path d="M11.12,21.46c5.65,5.14,12.91,8,19,12.52a123,123,0,0,1,16.24,15c5.29,5.59,10.43,11.31,15.88,16.73q8.41,8.37,17.51,16,10.38,8.71,21.54,16.44a2.52,2.52,0,0,0,3.42-.9,2.56,2.56,0,0,0-.9-3.42A280.4,280.4,0,0,1,67.61,63.9c-10.79-10.53-20.18-22.64-32-32A84,84,0,0,0,25.1,24.79c-3.62-2.07-7.34-4-10.44-6.86-2.38-2.17-5.93,1.36-3.54,3.53Z" style="fill:#1e1e1c"/><path d="M17.69,101.48C23.21,96.69,27.77,91,32.22,85.2q7.26-9.4,14.47-18.86c9.22-12,18.63-24,26.77-36.79,2.16-3.39,4.14-6.89,6.19-10.35,1.75-2.92,3.68-5.88,6.52-7.86a2.56,2.56,0,0,0,.9-3.42A2.52,2.52,0,0,0,83.65,7c-5.79,4-8.73,10.58-12.28,16.43C67.47,29.86,63.21,36,58.79,42.1c-9.23,12.67-18.94,25-28.48,37.45-5,6.48-10,13-16.16,18.4a2.51,2.51,0,0,0,0,3.53,2.55,2.55,0,0,0,3.54,0Z" style="fill:#1e1e1c"/></g></g></svg>