<svg xmlns="http://www.w3.org/2000/svg" viewBox="0 0 143.36 198.91"><g id="Слой_2" data-name="Слой 2"><g id="Слой_2-2" data-name="Слой 2"><path d="M8.86,57.89l14.4-.71c2.38-.12,4.76-.3,7.14-.36.53,0,.65-.08.84.32a5,5,0,0,1,.07,1.41,16.65,16.65,0,0,0,.58,3.12c1.15,4,3.32,7.65,4.2,11.79a92.61,92.61,0,0,1,1.25,12.45,41.53,41.53,0,0,0,2.85,13.63,1.52,1.52,0,0,0,2.06.54c4-2.63,5.3-8.16,6.32-12.52,1.17-5,1.69-10.2,2.4-15.32S52.54,62.17,54.5,57.5c.32-.78.37-.59,1.25-.64l2-.12,4.42-.24c2.85-.14,5.72-.26,8.58-.36,1.39,0,2.78-.09,4.17-.12l2-.05a9.51,9.51,0,0,0,2.45-.06h.35l-.19-.41a3.8,3.8,0,0,0-.34.7c-.31.62-.64,1.23-1,1.85-.64,1.23-1.27,2.46-1.89,3.7a159.78,159.78,0,0,0-6.68,14.88C65.74,86.78,64.46,97.41,62.33,108a89.78,89.78,0,0,1-5.13,16.9c-2.27,5.43-4.63,10.8-5.36,16.7l1.9-1.45A25.37,25.37,0,0,0,43,138.63a38.66,38.66,0,0,0-5.26.71,25.71,25.71,0,0,0-5.62,1.48l.23.33c-.11-.22-.21-.43-.31-.66-.19-.4-.37-.81-.54-1.22-.36-.84-.69-1.69-1-2.55-.67-1.81-1.26-3.65-1.8-5.5-1-3.59-1.86-7.23-2.66-10.88-1.58-7.2-3.12-14.39-5.7-21.31-1.35-3.61-2.86-7.16-4.1-10.81a76.82,76.82,0,0,1-2.7-11.28,35.83,35.83,0,0,0-4-11.7,79.07,79.07,0,0,0-7-9.74C1.27,54-.84,56.12.35,57.62a75.53,75.53,0,0,1,6.33,8.76A32.14,32.14,0,0,1,10.51,77a85.59,85.59,0,0,0,2.61,11.32c1.21,3.66,2.71,7.21,4.07,10.81,2.7,7.14,4.31,14.54,5.94,22,.8,3.64,1.63,7.29,2.67,10.87a54.72,54.72,0,0,0,3.83,10.4c1.08,2.06,2.95,1.38,4.77.85a43.87,43.87,0,0,1,6.11-1.37A24.55,24.55,0,0,1,52.94,143c1,.39,1.79-.58,1.9-1.44.68-5.43,3-10.5,5.08-15.5a88.54,88.54,0,0,0,4.93-15.51c2.38-11,3.53-22.26,7.55-32.9a155.84,155.84,0,0,1,7-15.42c.63-1.23,1.26-2.47,1.9-3.7.51-1,1.29-2.12,1.18-3.3-.27-3-4.29-2.31-6.36-2.26q-9,.23-17.9.73a29.93,29.93,0,0,0-4.12.29,3.09,3.09,0,0,0-2.23,2.1,44.48,44.48,0,0,0-2.41,7.63c-1.33,5.83-1.79,11.8-2.74,17.69a64.47,64.47,0,0,1-1.92,8.69c-.78,2.55-1.7,5.82-4.05,7.38l2.05.53c-3.5-8.1-2-17.31-3.89-25.77-1-4.38-3.54-8.23-4.42-12.62-.36-1.83.15-4.23-1.76-5.35A5,5,0,0,0,30,53.84L26.24,54l-17.38.86c-1.92.09-1.94,3.1,0,3Z" style="fill:#1c1b38"/><path d="M89.62,102.2c-2.32.3-4.71-2.12-5.87-3.93-.58-.91-1-2,.1-2.67A5.39,5.39,0,0,1,87,94.92a7.4,7.4,0,0,1,5.15,2.49c1.43,1.64,1.44,4.24,3.82,5a16.72,16.72,0,0,0,3.94.38c1.62.07,3.25.09,4.88.06a76.06,76.06,0,0,0,8.91-.72c2.24-.31,5.37-.37,7-2.22a5.86,5.86,0,0,0,1.14-3.24c.23-1.51.46-3,.66-4.53a9.67,9.67,0,0,0-1.69-7.45A19.27,19.27,0,0,0,115.4,80a34.69,34.69,0,0,0-13.78-4.51,70.07,70.07,0,0,0-7.37-.55c-2.31-.07-5.24-.48-7.42.41S83,78.82,81.57,80.64C80,82.7,78.41,84.84,77,87.06a80.54,80.54,0,0,0-12,32.59,1.52,1.52,0,0,0,2.2,1.69c2.05-1.08,4.39-.59,6.48.11a56.34,56.34,0,0,1,6.81,3c3.46,1.69,7.94,3.64,9.71,7.33a4.57,4.57,0,0,1,.54,2.45c-.17,1.18-1,.54-1.85.24a16.29,16.29,0,0,1-5.85-3.26,6.7,6.7,0,0,1-1.65-2.49,9.59,9.59,0,0,0-.83-2.68c-1.29-1.87-4.19-.92-6-.67a174.86,174.86,0,0,0-17.43,3.29,1.52,1.52,0,0,0-.66,2.51c1.64,1.69,1,4.71.89,6.83-.17,2.75-.6,5.62-.51,8.38.07,2.5,2.65,3.79,4.52,5A44,44,0,0,0,68,154.79c9.93,4.15,20.89,4.73,31.45,3.23a103.21,103.21,0,0,0,16.62-3.93c4.08-1.3,9-2.8,10.88-7.06,2.08-4.63-.15-10.42-2.49-14.54a33,33,0,0,0-10.17-10.62c-8.78-6.1-20.48-9.88-25.41-20.16-.84-1.74-3.43-.22-2.59,1.51,4,8.41,12.57,13,20.29,17.39,4.14,2.39,8.26,4.91,11.58,8.39a24.13,24.13,0,0,1,6.46,12.4,6.79,6.79,0,0,1-1.63,6.14,13.86,13.86,0,0,1-5.24,2.84,106.35,106.35,0,0,1-15.59,4.17c-10,1.86-20.49,1.83-30.22-1.46a42.71,42.71,0,0,1-7.31-3.27,39.71,39.71,0,0,1-3.37-2.13c-.37-.27-1.22-.68-1.42-1.14a4.1,4.1,0,0,1,0-1.67c.2-3,.44-6.09.58-9.14.12-2.42-.14-4.9-1.91-6.72l-.66,2.51a168.88,168.88,0,0,1,18-3.37,7.44,7.44,0,0,0,1.9-.23l.33,0c0-.27,0-.29,0-.07s.11.57.15.74a8.47,8.47,0,0,0,1.42,3.27,13.88,13.88,0,0,0,5.84,4.45c2,.9,5,2.63,7,.81,1.59-1.48,1.41-4,.7-5.88-1.72-4.48-6.3-6.93-10.35-9a60.56,60.56,0,0,0-8.79-3.83c-2.79-.88-5.74-1.09-8.39.32l2.2,1.7a78.47,78.47,0,0,1,9.73-28.67,75.71,75.71,0,0,1,8.86-12.39,3.55,3.55,0,0,1,2.78-1.53c1.32-.06,2.66,0,4,0a71.68,71.68,0,0,1,7.18.44,32.35,32.35,0,0,1,13.45,4.24,13.63,13.63,0,0,1,5.17,4.91c1.24,2.4.32,5.39,0,7.92-.15,1-.08,2.43-1.16,2.9a15.31,15.31,0,0,1-3.74.74,70.85,70.85,0,0,1-9.08.78c-1.38,0-2.76,0-4.15,0-.73,0-1.46-.06-2.19-.11-.55,0-1.57.08-2-.29s-.49-1-.66-1.39a8.74,8.74,0,0,0-.7-1.36,9.75,9.75,0,0,0-2.09-2.35A10.63,10.63,0,0,0,87,91.92c-2.35-.1-5.31.69-6.44,3-1.21,2.42.43,5,2.07,6.75,1.79,1.89,4.22,3.93,7,3.57a1.56,1.56,0,0,0,1.5-1.5,1.5,1.5,0,0,0-1.5-1.5Z" style="fill:#1c1b38"/><path d="M28.46,197a151.9,151.9,0,0,1-1-34.49l-2.56,1.06,13.6,14.19A1.52,1.52,0,0,0,41,176.73c1.06-8.81.82-17.69.55-26.54l-1.9,1.45,5.54,2.14c1.48.57,3.14.95,4-.75.73-1.42.48-3.54.52-5.1q.08-3,0-6c-.05-1.93-3.05-1.94-3,0,.09,2.9.06,5.81-.09,8.71,0,.12-.12.76,0,.84s0,.13.17-.09.24-.24-.05-.27a6.92,6.92,0,0,0-2.08-.8l-4.15-1.61a1.51,1.51,0,0,0-1.9,1.45c.27,8.85.51,17.73-.55,26.54l2.56-1.06L27,161.48a1.53,1.53,0,0,0-2.57,1.06,154.9,154.9,0,0,0,1.13,35.29c.28,1.9,3.17,1.09,2.89-.8Z" style="fill:#1c1b38"/><path d="M78.06,64.26c1.68.5,3.37,1,5.06,1.5,1.26.37,2.6.58,3.59-.51s1.13-2.85,1.44-4.2c.37-1.65.73-3.3,1.06-5a194.66,194.66,0,0,0,3-20.24l-2.26,1.29q8.18,3.91,16,8.57a1.51,1.51,0,0,0,2-.53c8.6-16.49,21.9-29.69,35-42.62,1.37-1.36-.75-3.48-2.13-2.12C130.43,10.68,120,21,111.72,33.07a101.57,101.57,0,0,0-6.39,10.59l2.06-.54q-7.78-4.65-16-8.57a1.52,1.52,0,0,0-2.25,1.3q-.81,8.58-2.39,17.07Q86,57.08,85,61.19c-.08.34-.2,1.67-.47,1.85s-1-.27-1.35-.38l-4.37-1.29c-1.85-.55-2.64,2.34-.79,2.89Z" style="fill:#1c1b38"/><path d="M140.52,1.5c-9.15,15.08-18.32,30.88-20,48.8a54.66,54.66,0,0,0,.62,15l1-1.85A3.67,3.67,0,0,1,120,62.9c-.84-.36-1.66-.73-2.49-1.1l-4.75-2.09-9.5-4.19A1.53,1.53,0,0,0,101,56.81a30.31,30.31,0,0,0,2.25,14.52l1.44-1.89-5.64-.27a17.23,17.23,0,0,0-5.41.29c-3,.8-5.31,3.51-4.63,6.69.4,1.89,3.3,1.09,2.89-.79-.54-2.53,3-3.24,4.71-3.27,2.69,0,5.4.22,8.08.35a1.51,1.51,0,0,0,1.45-1.9A28.45,28.45,0,0,1,104,56.81l-2.26,1.3,10.86,4.79L118,65.29c1.62.72,3.1,1.45,4.91,1a1.53,1.53,0,0,0,1-1.84c-3.12-17.14,3.5-34.07,11.67-48.81C138,11.4,140.57,7.2,143.11,3c1-1.65-1.59-3.16-2.59-1.51Z" style="fill:#1c1b38"/><path d="M28.27,197.14l6-14.61-2.2.89A142.25,142.25,0,0,1,44,193.73a1.51,1.51,0,0,0,2.51-.66,333.63,333.63,0,0,1,9.55-32.77l-2.2.9a44.16,44.16,0,0,0,7.47,4.61,1.52,1.52,0,0,0,2.26-1.29,122.83,122.83,0,0,0,.22-12.87c-.07-1.93-3.07-1.94-3,0a122.83,122.83,0,0,1-.22,12.87l2.26-1.3a44.49,44.49,0,0,1-7.48-4.61c-.83-.63-1.92.09-2.2.9a336.27,336.27,0,0,0-9.56,32.76l2.51-.66a147.66,147.66,0,0,0-12.51-10.78c-.85-.66-1.88.12-2.2.9l-6,14.62c-.74,1.78,2.16,2.56,2.89.79Z" style="fill:#1c1b38"/><path d="M25.39,176.4c.11.15.2.31.3.46-.14-.21,0,0,0,.09s.05.18.07.26.08.37.12.55,0-.34,0,.1l0,.28a15.16,15.16,0,0,0,.48,2.69,12.54,12.54,0,0,0,2.65,4.77,1.51,1.51,0,0,0,2.12,0,1.55,1.55,0,0,0,0-2.13,5.63,5.63,0,0,1-.38-.45c.1.13,0,0,0-.05l-.17-.24a9,9,0,0,1-.65-1.07c-.09-.18-.18-.35-.26-.53l-.07-.16c.05.12-.05-.14-.06-.16a11.09,11.09,0,0,1-.38-1.2c0-.19-.09-.38-.12-.58s-.09-.59-.06-.32c-.05-.38-.08-.76-.13-1.13a5.65,5.65,0,0,0-.91-2.7,1.53,1.53,0,0,0-2.05-.53,1.52,1.52,0,0,0-.54,2.05Z" style="fill:#1c1b38"/><path d="M29.89,168.6a33.86,33.86,0,0,0,3.49,16.25c.86,1.73,3.45.21,2.59-1.52a30.61,30.61,0,0,1-3.08-14.73c.07-1.93-2.93-1.92-3,0Z" style="fill:#1c1b38"/><path d="M36.2,175.4l1.44,6.72a11.73,11.73,0,0,0,2.28,5.39,1.51,1.51,0,0,0,2.12,0,1.53,1.53,0,0,0,0-2.12c-1-1.17-1.27-3-1.61-4.52L39.1,174.6a1.5,1.5,0,0,0-2.9.8Z" style="fill:#1c1b38"/><path d="M41,166.83c.11,6,2.32,11.65,4.59,17.15a1.53,1.53,0,0,0,1.84,1,1.5,1.5,0,0,0,1-1.84C46.28,178,44.06,172.56,44,166.83c0-1.93-3-1.94-3,0Z" style="fill:#1c1b38"/><path d="M40,154.72c2.47,7.16,7,13.89,7.44,21.62.12,1.92,3.12,1.93,3,0-.48-8.08-5-14.94-7.55-22.42-.63-1.81-3.53-1-2.89.8Z" style="fill:#1c1b38"/><path d="M44.73,152.07a59.14,59.14,0,0,0,7,15.87c1,1.63,3.62.13,2.59-1.51a56.6,56.6,0,0,1-6.71-15.15,1.5,1.5,0,0,0-2.89.79Z" style="fill:#1c1b38"/><path d="M49,148.09A57.74,57.74,0,0,0,56,163.6c1.05,1.62,3.65.11,2.59-1.51a55.32,55.32,0,0,1-6.76-14.79,1.5,1.5,0,0,0-2.9.79Z" style="fill:#1c1b38"/><path d="M50.76,141.7a75.49,75.49,0,0,0,9,16,1.54,1.54,0,0,0,2,.54,1.52,1.52,0,0,0,.54-2.06,72.88,72.88,0,0,1-8.65-15.28,1.55,1.55,0,0,0-1.84-1,1.5,1.5,0,0,0-1.05,1.84Z" style="fill:#1c1b38"/><path d="M59.92,121.16c.49.94,1,1.9,1.42,2.86.22.48.44,1,.65,1.43l.31.72.16.36c.06.16.06.14,0,0,0,.06.05.13.08.2a1.67,1.67,0,0,0,.69.9,1.52,1.52,0,0,0,1.16.15,1.5,1.5,0,0,0,.89-.69,1.42,1.42,0,0,0,.16-1.15c-.89-2.13-1.85-4.22-2.91-6.26a1.51,1.51,0,0,0-2-.53,1.53,1.53,0,0,0-.54,2Z" style="fill:#1c1b38"/><path d="M63.65,109.06a35.16,35.16,0,0,0,3.61,4.88,1.51,1.51,0,0,0,2.12,0,1.54,1.54,0,0,0,0-2.12c-.46-.53-.91-1.06-1.33-1.62l.23.31a33.91,33.91,0,0,1-2-3,1.5,1.5,0,0,0-2.59,1.52Z" style="fill:#1c1b38"/><path d="M65.22,98.69a53.47,53.47,0,0,0,3.57,5.47,1.59,1.59,0,0,0,.9.69,1.49,1.49,0,0,0,1.15-.15,1.51,1.51,0,0,0,.54-2,54.59,54.59,0,0,1-3.57-5.47,1.5,1.5,0,1,0-2.59,1.51Z" style="fill:#1c1b38"/><path d="M67,87.77a68.63,68.63,0,0,0,4.41,11.12A1.5,1.5,0,0,0,74,97.37,64.63,64.63,0,0,1,69.91,87a1.5,1.5,0,1,0-2.89.8Z" style="fill:#1c1b38"/><path d="M69.59,81.09,75.36,93.4a1.52,1.52,0,0,0,2,.54,1.54,1.54,0,0,0,.54-2L72.18,79.58A1.5,1.5,0,0,0,70.13,79a1.54,1.54,0,0,0-.54,2Z" style="fill:#1c1b38"/><path d="M74.2,72.61a54.73,54.73,0,0,0,3.45,14.26,1.54,1.54,0,0,0,1.84,1,1.51,1.51,0,0,0,1.05-1.85A52.16,52.16,0,0,1,77.2,72.61a1.54,1.54,0,0,0-1.5-1.5,1.5,1.5,0,0,0-1.5,1.5Z" style="fill:#1c1b38"/><path d="M79.49,66.22A39,39,0,0,0,82.71,81a1.5,1.5,0,1,0,2.59-1.51,35.23,35.23,0,0,1-2.81-13.3c0-1.93-3-1.94-3,0Z" style="fill:#1c1b38"/><path d="M85.42,64.89A60.65,60.65,0,0,0,89.52,76a1.51,1.51,0,0,0,2,.54,1.54,1.54,0,0,0,.54-2.05,57.23,57.23,0,0,1-3.79-10.37,1.5,1.5,0,1,0-2.9.8Z" style="fill:#1c1b38"/><path d="M88.58,52.92a92,92,0,0,0,7.23,18.25c.9,1.71,3.49.2,2.59-1.51a88.52,88.52,0,0,1-6.92-17.54,1.51,1.51,0,0,0-2.9.8Z" style="fill:#1c1b38"/><path d="M91.36,39.35c.22,4.52,2.19,8.79,3.7,13l4.75,13.19c.65,1.81,3.55,1,2.89-.79L98.12,52c-1.45-4-3.55-8.32-3.76-12.66-.09-1.92-3.09-1.93-3,0Z" style="fill:#1c1b38"/><path d="M98.85,40.46q3,8.45,6.76,16.57a1.52,1.52,0,0,0,2,.54,1.54,1.54,0,0,0,.54-2q-3.61-7.77-6.45-15.86c-.64-1.8-3.54-1-2.9.8Z" style="fill:#1c1b38"/><path d="M106.25,42.84a96.52,96.52,0,0,0,9,17.7c1,1.61,3.65.11,2.59-1.52a92.38,92.38,0,0,1-8.74-17,1.56,1.56,0,0,0-1.85-1,1.52,1.52,0,0,0-1,1.85Z" style="fill:#1c1b38"/><path d="M110.26,40.39a137,137,0,0,0,8.89,16.26c1,1.62,3.63.12,2.59-1.52a135.47,135.47,0,0,1-8.89-16.26,1.52,1.52,0,0,0-2-.54,1.54,1.54,0,0,0-.54,2.06Z" style="fill:#1c1b38"/><path d="M114.1,35.94a39.15,39.15,0,0,0,7.35,9.49,1.52,1.52,0,0,0,2.12,0,1.54,1.54,0,0,0,0-2.12,35.75,35.75,0,0,1-6.88-8.88,1.5,1.5,0,1,0-2.59,1.51Z" style="fill:#1c1b38"/><path d="M117,31.27l5,7.3a1.52,1.52,0,0,0,2,.53,1.51,1.51,0,0,0,.54-2.05l-5-7.3a1.54,1.54,0,0,0-2-.54,1.52,1.52,0,0,0-.54,2.06Z" style="fill:#1c1b38"/><path d="M120.29,24.48a32.79,32.79,0,0,1,2.16,3.34c.33.57.63,1.15.92,1.74.15.3.29.61.43.92l.21.46a2.29,2.29,0,0,0,.1.23c-.07-.16-.07-.17,0,0a1.67,1.67,0,0,0,.69.9,1.52,1.52,0,0,0,1.16.15,1.5,1.5,0,0,0,1-1.84A35.08,35.08,0,0,0,122.88,23a1.54,1.54,0,0,0-2-.54,1.52,1.52,0,0,0-.54,2.06Z" style="fill:#1c1b38"/><path d="M124.1,21l3.09,6.27a1.5,1.5,0,0,0,2.05.54,1.54,1.54,0,0,0,.54-2.05l-3.09-6.27A1.5,1.5,0,1,0,124.1,21Z" style="fill:#1c1b38"/><path d="M129.12,15.1l.44,2.64a1.49,1.49,0,0,0,.69.9,1.59,1.59,0,0,0,1.15.15,1.49,1.49,0,0,0,.9-.69l.15-.36a1.55,1.55,0,0,0,0-.8L132,14.3a1.55,1.55,0,0,0-.69-.9,1.59,1.59,0,0,0-1.15-.15,1.53,1.53,0,0,0-.9.69l-.15.36a1.55,1.55,0,0,0,0,.8Z" style="fill:#1c1b38"/><path d="M33.29,141.41a146.87,146.87,0,0,0,8.36-18.7c.66-1.82-2.23-2.6-2.89-.8a142,142,0,0,1-8.06,18c-.91,1.71,1.68,3.22,2.59,1.52Z" style="fill:#1c1b38"/><path d="M41.27,120.16c-6.09-5.12-8.46-12.92-10.48-20.33-2.52-9.24-5.47-18.28-8.72-27.29-1.82-5-4.34-10.33-4.23-15.79,0-1.93-3-1.93-3,0-.1,5,1.85,9.69,3.52,14.32,1.78,4.91,3.55,9.82,5.19,14.78,1.51,4.58,2.84,9.2,4.09,13.86a88.94,88.94,0,0,0,3.79,11.61,28.84,28.84,0,0,0,7.72,11c1.47,1.23,3.6-.88,2.12-2.12Z" style="fill:#1c1b38"/><path d="M41.15,122.75l4-.55a15.64,15.64,0,0,0,3.61-.66c2.17-.86,3-3.49,4-5.41A143.52,143.52,0,0,0,59,102.72a66.81,66.81,0,0,0,3.9-14.43,94.64,94.64,0,0,1,3.53-15.22c1.89-5.78,3.82-11.55,5.74-17.33.61-1.84-2.29-2.62-2.89-.8l-4.84,14.6A93.19,93.19,0,0,0,60.56,84a89.44,89.44,0,0,1-3,14.12,100.56,100.56,0,0,1-5.61,13.08c-.62,1.23-1.25,2.45-1.88,3.67a26.11,26.11,0,0,1-1.77,3.35c-.74,1-2.33.91-3.46,1.07l-4.44.62c-1.91.27-1.1,3.16.79,2.89Z" style="fill:#1c1b38"/><path d="M46.55,121.7a20.85,20.85,0,0,1,4.37,5.65,26.27,26.27,0,0,1,1.17,3.58l1.17,4a1.5,1.5,0,0,0,2.89-.8,58.2,58.2,0,0,0-2.64-8.28,23.73,23.73,0,0,0-4.84-6.26c-1.35-1.39-3.47.73-2.12,2.12Z" style="fill:#1c1b38"/><path d="M66.69,130.39a13,13,0,0,0,7.6,14.94,22.61,22.61,0,0,0,9.93,1.23,95.79,95.79,0,0,0,10.56-1c3.41-.59,5.86-3.16,7.33-6.17a12.53,12.53,0,0,0,.38-10.09C99.93,122.54,93.49,119,88,115a26.33,26.33,0,0,1-8.32-9.14c-1.61-3.09-2.79-8.08,1.2-9.92,1.75-.8.22-3.39-1.52-2.59a7.85,7.85,0,0,0-4.23,7c-.11,3.31,1.49,6.6,3.28,9.29,3.87,5.81,9.93,8.8,15.22,13,5,4.07,9.12,10.41,5.11,16.65a7.29,7.29,0,0,1-3.13,2.92c-1.57.67-3.53.62-5.21.78a67.39,67.39,0,0,1-9.83.59c-3.34-.16-6.73-1.15-8.92-3.83a10.07,10.07,0,0,1-2-8.58c.44-1.88-2.45-2.68-2.89-.8Z" style="fill:#1c1b38"/><path d="M98.7,101.2c3.66-1.59,7.94-4,7.92-8.61,0-4-3.51-7.58-6.75-9.5a8.7,8.7,0,0,0-6.18-1.38,17.21,17.21,0,0,0-5.45,2.68,35.76,35.76,0,0,0-9,8.5c-1.16,1.54,1.44,3,2.59,1.51a31.34,31.34,0,0,1,6.91-6.74,30.62,30.62,0,0,1,4-2.39,4.93,4.93,0,0,1,4.93,0c2.51,1.29,5.61,3.89,5.95,6.89.4,3.53-3.81,5.29-6.41,6.42-1.77.77-.24,3.36,1.51,2.59Z" style="fill:#1c1b38"/></g></g></svg>