<svg xmlns="http://www.w3.org/2000/svg" viewBox="0 0 242.02 58.46"><g id="Слой_2" data-name="Слой 2"><g id="Слой_1-2" data-name="Слой 1"><path d="M.61,14.62a3.31,3.31,0,0,1,.63-2.4,3.27,3.27,0,0,1,2.42-.64q9.78.09,19.56.81c-1.93-2.36.21-6.2,3.13-7.06s6,.25,8.87,1.35l15.93,6.17a13.46,13.46,0,0,1,3.73,1.92c1.68,1.39,2.58,3.51,4.1,5.08s4.35,2.36,5.77.7a59.94,59.94,0,0,1-.58-9.75c0-1.49.22-3.17,1.39-4.09a5.12,5.12,0,0,1,3.07-.79,63,63,0,0,1,9,.37,3.83,3.83,0,0,1,2.41.88A4,4,0,0,1,80.79,10l-.08,10.67a75.29,75.29,0,0,1,33.68,3.22,52.25,52.25,0,0,0,.25-12.62,10.42,10.42,0,0,1,4.49-.67c.85-2.32-1.67-4.69-1.32-7.13s3.66-3.59,6-2.7,4,3,5.65,4.94a54.5,54.5,0,0,0,19,14.18,7.36,7.36,0,0,0,4.27.9,10.74,10.74,0,0,0,3.2-1.5c5.34-3,11.86-2.39,17.94-1.72L235,24.36c3,.33,7.07,1.93,6.42,4.92-.45,2-2.88,2.84-4.93,3.25-21.41,4.29-43.28,5.7-65.08,7.11-7.32.47-15.24.79-21.37-3.24.17,2.23-2.88,2.9-5,3.44-5.29,1.33-8.76,6.2-12.21,10.42s-8.23,8.43-13.62,7.6a29.06,29.06,0,0,1,0-9.67c-2.76.55-5.29-2.18-5.61-5s.88-5.51,2.07-8.06c-1.32-1.87-4.17-1.36-6.37-.73A93.79,93.79,0,0,1,79.78,38l-.73,10.37a2.77,2.77,0,0,1-.54,1.76,2.88,2.88,0,0,1-2.1.62l-13.08.2a21.47,21.47,0,0,1,1.13-12.15l-7.83,0L35.5,50.29c-2.76,1.5-5.83,3.05-8.91,2.41s-5.42-4.72-3.29-7c-.33.36-4.17-.41-4.84-.46-1.82-.13-3.64-.23-5.46-.28-3.4-.09-7.28.67-10.61.19C-.43,44.71.74,40,.73,37.66l0-10.81Z" style="fill:none;stroke:#1d1d1b;stroke-miterlimit:10"/></g></g></svg>