<svg xmlns="http://www.w3.org/2000/svg" viewBox="0 0 237.53 207.54"><g id="Слой_2" data-name="Слой 2"><g id="Слой_3" data-name="Слой 3"><path d="M86.33,132.58a22.72,22.72,0,0,1-4.86.79,17.12,17.12,0,0,0-4.34,1.12,37.2,37.2,0,0,0-7.72,4.59,72,72,0,0,1-17.16,9.52l1.46,2.51L70,134.7a1.5,1.5,0,0,0-.3-2.35c-8.65-4.51-9.87-15.15-10-23.86a1.51,1.51,0,0,0-1.5-1.5c-8.89.16-17.81.31-26.67-.74v3A109.75,109.75,0,0,0,59,104.61a21.68,21.68,0,0,0,5.34-2.38c1.45-.94,3.23-2.34,3.74-4.08.57-2-1-3.48-1.83-5.09a19.83,19.83,0,0,1-2-5.48A20.16,20.16,0,0,1,66,74.68a1.52,1.52,0,0,0-1.3-2.25,56.81,56.81,0,0,1-29.29-12L33.91,63l21.88,5.19,5.34,1.27c1.73.41,3.67,1.12,5.46.87A5.69,5.69,0,0,0,70.08,68a16.44,16.44,0,0,1,3.2-2.92A15.86,15.86,0,0,1,82,62.49c2.76,0,6.3-.47,7.27-3.59a5.58,5.58,0,0,0-.67-4.12c-.77-1.67-1.59-3.31-2.43-4.94Q83.88,45.36,81.37,41a208.37,208.37,0,0,0-12.71-19.6L66.3,23.19,89.61,44.42c1.56,1.42,3,3.06,5.34,2.86A19.43,19.43,0,0,0,98,46.46a11.8,11.8,0,0,1,2.89-.42,13.87,13.87,0,0,1,10.55,4.41c1.31,1.42,3.43-.7,2.12-2.12a16.78,16.78,0,0,0-10.45-5.19,16.13,16.13,0,0,0-5.91.42c-.9.24-2.12,1-3.07.71s-1.77-1.37-2.43-2L68.42,21.07c-1.19-1.09-3.41.37-2.36,1.81A208.44,208.44,0,0,1,85.61,55.46c.53,1.11,1.38,2.39.15,3.33s-3.2.66-4.7.72a18.52,18.52,0,0,0-7.94,2.2A18.12,18.12,0,0,0,69.89,64c-1,.85-1.73,1.93-2.69,2.8-1.2,1.11-2.9.34-4.3,0L57.56,65.5,34.71,60.08c-1.33-.32-2.71,1.51-1.46,2.5A60.42,60.42,0,0,0,64.66,75.43l-1.3-2.26a23.52,23.52,0,0,0,.25,21.23c.4.76.89,1.44,1.32,2.17.28.46.38.58.16,1a4.87,4.87,0,0,1-1,1.11,13.74,13.74,0,0,1-4.71,2.63,82.63,82.63,0,0,1-12.6,3.15,113.8,113.8,0,0,1-15.29,1.76,1.5,1.5,0,0,0,0,3c8.86,1,17.78.9,26.67.74l-1.5-1.5c.17,9.78,1.87,21.42,11.51,26.45l-.31-2.36L51.59,149c-1,1,0,3,1.46,2.51a72.21,72.21,0,0,0,17.2-9.34,39.83,39.83,0,0,1,7.67-4.78c3-1.25,6.21-.84,9.21-1.91,1.8-.64,1-3.54-.8-2.89Z" style="fill:#1e1e1c"/><path d="M115.54,49.05A125.43,125.43,0,0,0,113,6l-2.89.79q3.28,13.8,7.26,27.43c1.12,3.86,1.91,8.52,5.12,11.26,2.74,2.34,6.29,3.24,9.72,4A1.55,1.55,0,0,0,134,48.37c.49-1.29,2.1-1.78,3.28-2.21a18,18,0,0,0,4.24-1.85,11.84,11.84,0,0,0,3.51-4.53q1.83-3.37,3.64-6.75L163.14,6.25l-2.59-1.51c-5.22,12-10.42,24.23-11.9,37.39a1.47,1.47,0,0,0,.75,1.29A15.44,15.44,0,0,1,156.23,62c-.59,1.56,1.47,2.3,2.5,1.46a182.79,182.79,0,0,1,43.54-26.11L200.45,35c-9.87,9.06-26,13.78-29.27,28.43a1.51,1.51,0,0,0,1,1.85c8.27,1.17,12.09,10.34,12.33,17.79a1.53,1.53,0,0,0,1.5,1.5l33.48,1.21v-3a306.23,306.23,0,0,1-35.82,1.77,1.51,1.51,0,0,0-1.3,2.25,11.62,11.62,0,0,1-.7,11.15c-1.07,1.69-3,2.8-3.69,4.7-.81,2.07.11,4,.92,5.93a7.83,7.83,0,0,1,.74,3,7.09,7.09,0,0,0,.66,3.21c1.08,2,3.52,3,5.38,4q6.75,3.78,13.76,7.06c5.2,2.45,10.51,4.68,15.89,6.72l.8-2.9-37.37-9.24a1.5,1.5,0,0,0-.8,2.89c2.6.85,4,3.64,4.15,6.21a25,25,0,0,1-1.83,10.13c-2.18,5.76-9,4.48-13.69,3.23a1.52,1.52,0,0,0-1.69,2.21l11.33,24.47,2.36-1.82a222.3,222.3,0,0,0-33.15-27,1.52,1.52,0,0,0-2.26,1.3c0,1.07-1.21,1.53-2,1.92a27.58,27.58,0,0,0-3.59,1.73,5.69,5.69,0,0,0-2.7,4c-.32,2.26.37,4.66.54,6.91.78,10.18-1.14,20.28-3,30.23h2.89a174.22,174.22,0,0,0-4.81-20.53c-1-3.32-2.08-6.63-3.29-9.89-1-2.69-2.21-5.46-4.37-7.45a12.43,12.43,0,0,0-13.31-1.91c-5.71,2.55-7.11,9.16-8.92,14.55l-7.69,22.86,3,.4c.13-17,0-34.9-8.3-50.22-.92-1.7-3.52-.19-2.59,1.51,8.07,14.83,8,32.28,7.89,48.71a1.51,1.51,0,0,0,3,.4l6.27-18.67c1-3.07,2-6.14,3.1-9.2.84-2.43,1.83-5,3.94-6.66a9.48,9.48,0,0,1,11.23,0c2.11,1.68,3.19,4.37,4.1,6.83q1.63,4.47,3,9a175.75,175.75,0,0,1,4.95,21,1.51,1.51,0,0,0,2.89,0c1.92-10,3.89-20.27,3.18-30.54-.08-1.21-.2-2.42-.36-3.62a11.68,11.68,0,0,1-.26-3.38c.26-1.48,1.66-2.12,2.9-2.69,2.45-1.12,5.46-2.17,5.48-5.37L144,143.39a218.42,218.42,0,0,1,32.55,26.49,1.5,1.5,0,0,0,2.35-1.82l-11.33-24.47-1.7,2.21a24.39,24.39,0,0,0,10,1,9.31,9.31,0,0,0,7.42-6.33c2.35-6.38,4-17.3-4.41-20l-.8,2.89,37.37,9.25a1.51,1.51,0,0,0,.8-2.9,212.48,212.48,0,0,1-27.09-12.45c-1-.56-2.05-1.13-3.07-1.71a9.28,9.28,0,0,1-2.88-1.93c-.6-.78-.41-1.87-.49-2.79a9.68,9.68,0,0,0-.8-3,14.6,14.6,0,0,1-1.09-2.84,2.57,2.57,0,0,1,1-2.43,16.22,16.22,0,0,0,3.43-4.62,14.71,14.71,0,0,0-.15-12.6l-1.29,2.26a306.23,306.23,0,0,0,35.82-1.77,1.5,1.5,0,0,0,0-3l-33.48-1.21,1.5,1.5c-.28-8.66-4.93-19.32-14.53-20.68l1,1.84c1.39-6.29,6.07-11.14,11.13-14.84,5.73-4.18,12.11-7.44,17.37-12.27,1.37-1.25-.37-3-1.81-2.36a185,185,0,0,0-44.15,26.58l2.51,1.46a18.43,18.43,0,0,0-8.21-22l.74,1.3c1.42-12.58,6.5-24.37,11.49-35.88.74-1.72-1.66-3.25-2.59-1.51L145.87,32c-1.21,2.25-2.41,4.51-3.63,6.75a7.56,7.56,0,0,1-3.6,3.79c-2.93,1.29-6.22,1.75-7.51,5.09l1.85-1c-3.09-.67-6.59-1.37-8.92-3.69a11.48,11.48,0,0,1-2.52-5q-.95-3.15-1.85-6.32Q116,18.81,113,6c-.45-1.88-3.33-1.09-2.89.79a123.35,123.35,0,0,1,2.46,42.3c-.22,1.91,2.78,1.9,3,0Z" style="fill:#1e1e1c"/><path d="M47.52,123.65a306.86,306.86,0,0,1-35.83,2.68c-1.93,0-1.94,3,0,3a306.86,306.86,0,0,0,35.83-2.68,1.55,1.55,0,0,0,1.5-1.5,1.5,1.5,0,0,0-1.5-1.5Z" style="fill:#1e1e1c"/><path d="M52,85.52,33,85C31.06,85,31.06,88,33,88l19,.51c1.93,0,1.93-3,0-3Z" style="fill:#1e1e1c"/><path d="M21.93,83.65Q11.7,82.93,1.45,82.9a1.5,1.5,0,0,0,0,3q10.25,0,20.48.75c1.93.13,1.92-2.87,0-3Z" style="fill:#1e1e1c"/><path d="M80.05,150.1Q68.58,168.3,57.72,186.88a1.5,1.5,0,0,0,2.59,1.51q10.85-18.58,22.33-36.77c1-1.64-1.56-3.15-2.59-1.52Z" style="fill:#1e1e1c"/><path d="M112.62,167.22A56.26,56.26,0,0,0,111.53,179a1.5,1.5,0,0,0,3,0,52,52,0,0,1,1-11,1.54,1.54,0,0,0-1-1.85,1.52,1.52,0,0,0-1.85,1.05Z" style="fill:#1e1e1c"/><path d="M110.89,191.23l-.61,14.87c-.08,1.93,2.92,1.92,3,0l.61-14.87c.08-1.93-2.92-1.92-3,0Z" style="fill:#1e1e1c"/><path d="M145.45,152.67a15.58,15.58,0,0,0,3.08,6.75,1.52,1.52,0,0,0,1.07.44,1.58,1.58,0,0,0,1.06-.44,1.56,1.56,0,0,0,.44-1.06,1.8,1.8,0,0,0-.44-1.06c.26.33,0-.05-.08-.11l-.24-.34-.44-.7a12.82,12.82,0,0,1-.73-1.43c-.16-.36.08.22,0-.07l-.15-.39a7.13,7.13,0,0,1-.26-.78,13,13,0,0,1-.38-1.61,1.51,1.51,0,0,0-1.85-1.05,1.56,1.56,0,0,0-1.05,1.85Z" style="fill:#1e1e1c"/><path d="M153,167a70.83,70.83,0,0,1,12.6,23c.59,1.82,3.49,1,2.89-.8a74.52,74.52,0,0,0-13.37-24.35c-1.22-1.49-3.33.64-2.12,2.12Z" style="fill:#1e1e1c"/><path d="M191.39,146q9.62,5.58,19.4,10.92c1.69.92,3.21-1.67,1.51-2.59q-9.77-5.34-19.4-10.92a1.5,1.5,0,0,0-1.51,2.59Z" style="fill:#1e1e1c"/><path d="M192.46,106.25a65.32,65.32,0,0,0,10,1.13,1.5,1.5,0,0,0,1.5-1.5,1.53,1.53,0,0,0-1.5-1.5,59.57,59.57,0,0,1-9.17-1,1.5,1.5,0,1,0-.79,2.89Z" style="fill:#1e1e1c"/><path d="M211,108.74a198.36,198.36,0,0,1,25.09,1.16c1.92.22,1.9-2.79,0-3A198.36,198.36,0,0,0,211,105.74c-1.93,0-1.94,3,0,3Z" style="fill:#1e1e1c"/><path d="M190,67a227.19,227.19,0,0,0,36-16.94,1.5,1.5,0,0,0-1.51-2.59,222.76,222.76,0,0,1-35.24,16.64c-1.79.66-1,3.57.8,2.89Z" style="fill:#1e1e1c"/><path d="M163.61,40.82a138.79,138.79,0,0,0,5.8-15.46c.57-1.85-2.32-2.64-2.89-.8A131.3,131.3,0,0,1,161,39.31a1.54,1.54,0,0,0,.54,2,1.5,1.5,0,0,0,2.05-.54Z" style="fill:#1e1e1c"/><path d="M176.62,15a86.64,86.64,0,0,1,8.21-12.39,1.55,1.55,0,0,0,0-2.12,1.5,1.5,0,0,0-2.12,0,90.53,90.53,0,0,0-8.68,13c-.93,1.7,1.66,3.21,2.59,1.51Z" style="fill:#1e1e1c"/><path d="M137.43,28.42c.68-6.85-.8-13.79.3-20.61a1.54,1.54,0,0,0-1-1.84,1.51,1.51,0,0,0-1.85,1c-1.15,7.12.29,14.28-.41,21.41-.19,1.92,2.81,1.91,3,0Z" style="fill:#1e1e1c"/><path d="M102.22,33.9,96.66,22.22a1.52,1.52,0,0,0-2-.54,1.54,1.54,0,0,0-.54,2.06l5.56,11.67a1.51,1.51,0,0,0,2.05.54,1.53,1.53,0,0,0,.54-2.05Z" style="fill:#1e1e1c"/><path d="M91,12.33,82.07,3.11A1.5,1.5,0,1,0,80,5.23l8.94,9.22a1.51,1.51,0,0,0,2.12,0,1.53,1.53,0,0,0,0-2.12Z" style="fill:#1e1e1c"/><path d="M61.88,47.79a74.76,74.76,0,0,0-13.8-16.64c-1.43-1.28-3.56.83-2.12,2.13a71.68,71.68,0,0,1,13.33,16c1,1.65,3.6.14,2.59-1.51Z" style="fill:#1e1e1c"/><path d="M67.41,105.49c1.54,10,10.75,15.7,19.13,19.61l-.74-1.29c-.53,4.52.51,9.71,4.19,12.73,4.36,3.56,10.22,3,15.34,1.85,1.37-.31,2.73-.68,4.1-1a3.91,3.91,0,0,1,3.68.93A26.55,26.55,0,0,0,120,142a20.82,20.82,0,0,0,14.55,0A17.74,17.74,0,0,0,145,131.24l-1.84,1c7.12,2.27,15.27,4.82,22.65,2.19,5.61-2,10.78-6.92,10.86-13.2a13.28,13.28,0,0,0-1.06-5.2,23.74,23.74,0,0,0-1.08-2.28,13.65,13.65,0,0,1-1.36-2.32c-.2-.67.74-1.07,1.24-1.48a12.64,12.64,0,0,0,1.63-1.56,15.6,15.6,0,0,0,2.45-3.76c2.61-5.66,2.49-12.4,1.1-18.37-.8-3.42-2.25-6.91-4.89-9.33-3.09-2.83-7.21-3.62-11.26-3.88l1.5,1.5a16.91,16.91,0,0,0-26.18-12.79l1.82.24c-3.65-3.68-8.58-5.42-13.45-6.8-5.28-1.5-10.84-2.94-16.34-1.82a15.8,15.8,0,0,0-6.46,2.89A12.51,12.51,0,0,0,102,58.69c-.26.33-.59,1-1,1.24s-1.35-.17-1.88-.35a18.11,18.11,0,0,0-14.85,1.28A15.77,15.77,0,0,0,76.5,74.18l.74-1.3a25.74,25.74,0,0,0-9.3,33.7c.87,1.72,3.46.2,2.59-1.52a22.94,22.94,0,0,1,0-20.64,23.53,23.53,0,0,1,6.15-7.51c.66-.52,1.39-.93,2-1.44s.71-1.32.78-2.23a11.62,11.62,0,0,1,1.28-4.47c3.32-6.44,10.93-8.54,17.53-6.3,1.65.57,3.33.89,4.76-.38,1.15-1,1.82-2.45,3.07-3.42A14.53,14.53,0,0,1,115.48,56c4.35.11,8.68,1.41,12.81,2.68,3.72,1.14,7.39,2.65,10.17,5.46a1.53,1.53,0,0,0,1.82.23A13.93,13.93,0,0,1,162,74.6a1.54,1.54,0,0,0,1.5,1.5c3.27.21,6.8.78,9.28,3.13a15,15,0,0,1,3.88,7.5C177.9,91.92,178.17,98,176,103a13.29,13.29,0,0,1-1.94,3.18c-.93,1.1-2.19,1.81-3.13,2.87-2.32,2.64,1,5.72,2,8.22a9.37,9.37,0,0,1-.4,8.26,13.71,13.71,0,0,1-6,5.43c-7.08,3.48-15.51.66-22.52-1.57a1.52,1.52,0,0,0-1.84,1,14.6,14.6,0,0,1-7.94,8.48,17.67,17.67,0,0,1-12.84.39,23,23,0,0,1-6.23-3.2,10.87,10.87,0,0,0-2.62-1.61,6.72,6.72,0,0,0-3.64,0c-4.74,1-9.8,2.9-14.6,1.1s-6-7.17-5.45-11.78a1.48,1.48,0,0,0-.74-1.3c-7.72-3.6-16.33-8.59-17.76-17.81-.29-1.91-3.18-1.1-2.89.79Z" style="fill:#1e1e1c"/><path d="M83.49,87.56a10.82,10.82,0,0,1,3-17.1c3.46-1.71,7.59-1.22,11.08.1,1.69.63,3.49,1.31,4.78-.42.9-1.21,1.24-2.73,2.24-3.93,4.24-5.06,11.6-5.72,17.08-2.38a17.54,17.54,0,0,1,6.54,7.3,3.48,3.48,0,0,0,1.23,1.73,2.11,2.11,0,0,0,2.39-.25,11.48,11.48,0,0,1,3.87-2.49c3.45-1.05,7.47-.53,10.84.6a8,8,0,0,1,4.61,3.3,4.3,4.3,0,0,1-.14,4.9,1.52,1.52,0,0,0,.9,2.21,13,13,0,0,1,7,20.28,1.51,1.51,0,0,0,1.29,2.25c3.81.18,6.13,3.83,6.19,7.35A12.88,12.88,0,0,1,162,120.6a13.6,13.6,0,0,1-18.75-.71,1.52,1.52,0,0,0-2.51.67,47.23,47.23,0,0,1-4.46,9.15A5.47,5.47,0,0,1,133,132.3a14.7,14.7,0,0,1-4.44.23,23,23,0,0,1-15.14-7.31,1.51,1.51,0,0,0-1.82-.24c-2.56,1.84-5.5,3.76-8.76,3.86a6.56,6.56,0,0,1-6.3-3.34l-1.29,2.26a11.54,11.54,0,0,0,11.38-6.55c.49-1.06-.34-2.71-1.69-2.21a10.07,10.07,0,0,1-12.43-5.13c-.48-1.11-.64-2.41-1.77-3.08s-2.67-.06-3.63.83a5.93,5.93,0,0,0-1,7.19c.69,1.21,3,.78,2.79-.75L88,111c-.13-1.12-.93-4.9,1.07-5.08s2-3,0-3c-4.1,0-9.49.06-11.66-4.15A3.88,3.88,0,0,1,77.94,94c1.44-1.36,3.61-1.75,5.51-2a1.51,1.51,0,0,0,1-1.85,1.53,1.53,0,0,0-1.84-1c-2.53.34-5.28,1.07-7.07,3a6.78,6.78,0,0,0-1.23,7.15c2.36,6,9.08,6.64,14.7,6.62v-3c-2.79.25-4.26,2.66-4.31,5.3a35.76,35.76,0,0,0,.48,4.73l.61,5.12,2.8-.76a2.84,2.84,0,0,1-.11-2.63c.21-.47.58-.69.86-1.07.36-.13.36-.2,0-.2s-.35-.08-.19.14a2.08,2.08,0,0,0,.19.58,12.16,12.16,0,0,0,3.81,5.42,13,13,0,0,0,12.52,2.36l-1.7-2.21a8.66,8.66,0,0,1-8.79,5.07c-1.22-.12-1.76,1.34-1.3,2.26a9.41,9.41,0,0,0,8.2,4.82c4,.17,7.79-2,11-4.27l-1.81-.23a26,26,0,0,0,18,8.22c3.61.12,6.86-.61,9.06-3.66a44.14,44.14,0,0,0,5.22-10.55l-2.5.66a16.72,16.72,0,0,0,19.15,3.36c6.29-3.1,10.9-10.92,8.55-17.93a9.68,9.68,0,0,0-8.61-6.78l1.3,2.26a16.23,16.23,0,0,0,1.85-15.14,16.41,16.41,0,0,0-10.6-9.54l.89,2.2c2.36-3.08,1.15-7.64-1.59-10-2.91-2.56-7-3.45-10.79-3.74s-7.49.33-10.34,2.73a4,4,0,0,0-.52.48c-.25.38-.53.15.31.46s.49.25.36-.2a3.22,3.22,0,0,0-.23-.5,18.13,18.13,0,0,0-1.5-2.55,20.33,20.33,0,0,0-3.86-4.21c-5.85-4.75-14.15-5.69-20.41-1.1a14.93,14.93,0,0,0-3.62,3.73,18.24,18.24,0,0,0-1.21,2.32c-.21.45-.15.45-.65.33s-1.2-.49-1.78-.69a16.82,16.82,0,0,0-12.46.26,13.87,13.87,0,0,0-7.55,9.39,14,14,0,0,0,3.58,12.58c1.32,1.41,3.44-.72,2.12-2.12Z" style="fill:#1e1e1c"/><path d="M93.89,93a1.16,1.16,0,0,1-.62-.29,1.82,1.82,0,0,1-.51-.68,6.36,6.36,0,0,1-.51-2.28,3.88,3.88,0,0,1,1.35-3.49,8.25,8.25,0,0,1,3.86-2c1.65-.31,3.24.54,4.66,1.26a1.54,1.54,0,0,0,2-.54,1.51,1.51,0,0,0-.54-2c-2.21-1.13-4.44-2.06-7-1.56a10.91,10.91,0,0,0-5.56,3.13,7.31,7.31,0,0,0-1.6,2.66,7.7,7.7,0,0,0-.15,3.41c.3,2.26,1.26,4.75,3.74,5.3a1.55,1.55,0,0,0,1.85-1,1.52,1.52,0,0,0-1-1.84Z" style="fill:#1e1e1c"/><path d="M105.57,94.42a8.47,8.47,0,0,0-3.53,5.64,6.38,6.38,0,0,0,2.9,6.61,14.64,14.64,0,0,0,7.28,1.83c2.37,0,5.69-.52,6.11-3.4a1.54,1.54,0,0,0-1-1.84,1.5,1.5,0,0,0-1.84,1c-.22,1.5-2.71,1.24-3.85,1.18a11.44,11.44,0,0,1-5-1.3,3.33,3.33,0,0,1-1.67-3.52A5.39,5.39,0,0,1,107.08,97a1.56,1.56,0,0,0,.54-2.06,1.51,1.51,0,0,0-2.05-.53Z" style="fill:#1e1e1c"/><path d="M130.08,116.12c.16,0,.19,0,.11,0s-.05,0,.1,0l-.07,0c-.05-.09-.05-.09,0,0s.05.09,0,0l0,.15c0-.17,0,.19,0,.15a3.31,3.31,0,0,1-.69,1.51,5.81,5.81,0,0,1-2.34,1.87,3.55,3.55,0,0,1-1.6.27,3.22,3.22,0,0,1-1.4-.71c-1.08-.83-2-2-3.09-2.81a1.51,1.51,0,0,0-2,.54,1.54,1.54,0,0,0,.54,2c1.4,1.06,2.37,2.59,4,3.38a6,6,0,0,0,5.68-.42,8.32,8.32,0,0,0,3.46-3.75,4.17,4.17,0,0,0,.26-3.17,3,3,0,0,0-2.2-1.94,1.55,1.55,0,0,0-1.85,1,1.51,1.51,0,0,0,1.05,1.84Z" style="fill:#1e1e1c"/><path d="M134.84,111.81A12.11,12.11,0,0,0,147,103.75a9.82,9.82,0,0,0-.79-8.37,9.27,9.27,0,0,0-6.11-4.85,23.62,23.62,0,0,0-4.89-.53c-1.57,0-3.14,0-4.37,1.1-1.43,1.3.7,3.42,2.13,2.12.36-.32,1.1-.21,1.53-.22.77,0,1.53,0,2.3.07a12.89,12.89,0,0,1,3.69.7,5.6,5.6,0,0,1,2.71,2.42,7.79,7.79,0,0,1,1.43,3.81c.16,5.29-4.81,9.15-9.81,8.81-1.93-.13-1.92,2.87,0,3Z" style="fill:#1e1e1c"/><path d="M111.54,72.09c2.93-1.81,6.47-1.13,9.48.11a10.15,10.15,0,0,1,2.17,1.06,1.85,1.85,0,0,1,.6,1.5c.06,1.22.07,3-1.12,3.7-1.65,1-.14,3.59,1.51,2.59,2-1.22,2.6-3.49,2.62-5.71a6.28,6.28,0,0,0-.67-3.22A5.59,5.59,0,0,0,123.4,70c-4.19-1.93-9.18-3.08-13.37-.49-1.64,1-.13,3.61,1.51,2.59Z" style="fill:#1e1e1c"/><path d="M139.78,82c.08-.16.16-.32.25-.47a1.37,1.37,0,0,1,.13-.2c.08-.13.14-.18,0,0,.11-.12.21-.24.32-.35a2.09,2.09,0,0,1,.22-.2s.23-.19.08-.07l.14-.1.2-.12a5.39,5.39,0,0,1,.48-.25c.18-.09-.23.07,0,0l.28-.1c.17-.05.35-.08.52-.12s-.26,0,0,0l.23,0a4.87,4.87,0,0,1,.54,0c.27,0-.14,0,.06,0l.3.07a4.88,4.88,0,0,1,.65.2l.29.11c-.18-.07.05,0,.12.06s.33.15.5.24a5.58,5.58,0,0,1,.52.32c-.17-.12,0,0,.06.07a2.73,2.73,0,0,1,.23.25,1.51,1.51,0,0,0,2.12,0,1.53,1.53,0,0,0,0-2.12,6.9,6.9,0,0,0-2.9-1.77,6.42,6.42,0,0,0-3.36-.35,6.15,6.15,0,0,0-4.51,3.39,1.53,1.53,0,0,0,.54,2,1.5,1.5,0,0,0,2.05-.54Z" style="fill:#1e1e1c"/><path d="M150.67,92.47a2.26,2.26,0,0,1,.45,0c-.27,0,.14,0,.19,0s.41.18.2.07l.4.22c.11.08.23.15.34.24-.16-.13,0,0,.07.07s.35.35.52.54c-.19-.22,0,.08.09.13l.21.35.18.36c-.13-.28,0,.12,0,.15s.06.27.1.4,0-.1,0,.07,0,.54,0,.81.06-.2,0,.08-.06.26-.1.39-.17.43,0,.15c-.06.12-.12.24-.19.36a2.46,2.46,0,0,1-.22.34c.16-.21-.07,0-.12.11l-.25.23c-.08.07-.07.06,0,0l-.17.11a6.19,6.19,0,0,1-.67.36c.27-.12-.1,0-.16,0l-.4.13a13.2,13.2,0,0,1-1.66.34,1.51,1.51,0,0,0-1,1.85,1.56,1.56,0,0,0,1.85,1,8.77,8.77,0,0,0,4.19-1.62,5.56,5.56,0,0,0,2-4A6.12,6.12,0,0,0,155,91.52a5.31,5.31,0,0,0-4.29-2,1.5,1.5,0,0,0,0,3Z" style="fill:#1e1e1c"/><path d="M61.76,114.51a12.41,12.41,0,0,1,.76-1c.32-.39.64-.76,1-1.14.64-.73,1.31-1.44,2-2.17A22.72,22.72,0,0,0,69,105.26a1.5,1.5,0,0,0-2.59-1.51,15.52,15.52,0,0,1-1.57,2.51c0,.06-.13.18,0,0l-.23.29-.48.58c-.32.38-.65.75-1,1.12a52.19,52.19,0,0,0-4,4.7,1.5,1.5,0,0,0,.53,2,1.54,1.54,0,0,0,2.06-.54Z" style="fill:#1e1e1c"/><path d="M63.41,121.88q4-5.53,8.45-10.74a1.53,1.53,0,0,0,0-2.12,1.51,1.51,0,0,0-2.12,0q-4.68,5.51-8.92,11.35a1.51,1.51,0,0,0,.54,2,1.54,1.54,0,0,0,2-.54Z" style="fill:#1e1e1c"/><path d="M66.41,129a16.49,16.49,0,0,1,2.12-2.8,28.92,28.92,0,0,0,5.59-10c.6-1.83-2.3-2.62-2.89-.79a26.72,26.72,0,0,1-3.07,6.34c-1.32,2-3.21,3.64-4.34,5.75-.91,1.7,1.68,3.22,2.59,1.51Z" style="fill:#1e1e1c"/><path d="M69,134a49.87,49.87,0,0,0,9.58-12.51c.91-1.7-1.68-3.22-2.59-1.52a47.2,47.2,0,0,1-9.11,11.91c-1.41,1.33.72,3.45,2.12,2.12Z" style="fill:#1e1e1c"/><path d="M75.64,135.17a59.08,59.08,0,0,0,7.27-11.95,1.55,1.55,0,0,0-.54-2,1.51,1.51,0,0,0-2.05.54,56.46,56.46,0,0,1-6.8,11.34,1.55,1.55,0,0,0,0,2.12,1.51,1.51,0,0,0,2.12,0Z" style="fill:#1e1e1c"/><path d="M81.11,133.46c1.77-.05,2.77-1.64,3.62-3a21.91,21.91,0,0,0,2-4,1.45,1.45,0,0,0-.15-1.15,1.49,1.49,0,0,0-.9-.69,1.53,1.53,0,0,0-1.84,1l-.18.44c-.07.2.12-.25,0-.06s0,.13-.08.19c-.12.27-.25.54-.38.81-.27.55-.57,1.09-.89,1.61s-.65,1-1,1.48c-.11.15.19-.23.06-.09a1.71,1.71,0,0,0-.11.14,1.92,1.92,0,0,0-.29.28c0-.05.27-.17.09-.07a.6.6,0,0,0-.15.09l.17-.07-.09,0c-.13.07.39,0,.11,0a1.5,1.5,0,1,0,0,3Z" style="fill:#1e1e1c"/><path d="M93.88,145a58.82,58.82,0,0,1,5.17-8.31,1.51,1.51,0,0,0-.54-2.05,1.53,1.53,0,0,0-2.05.54,58.72,58.72,0,0,0-5.17,8.3A1.5,1.5,0,0,0,93.88,145Z" style="fill:#1e1e1c"/><path d="M94.38,152.51q6-8.73,12.43-17.18a1.5,1.5,0,0,0-.53-2.05,1.54,1.54,0,0,0-2.06.54Q97.82,142.26,91.79,151c-1.1,1.59,1.5,3.09,2.59,1.51Z" style="fill:#1e1e1c"/><path d="M96.43,159c2.55-3.92,5.66-7.49,8.58-11.14l9.08-11.36c1.19-1.49-.92-3.63-2.12-2.12l-9.36,11.71c-3,3.73-6.16,7.39-8.77,11.4-1.06,1.62,1.54,3.13,2.59,1.51Z" style="fill:#1e1e1c"/><path d="M109.43,150.16q4.21-5.07,8.11-10.39a1.51,1.51,0,0,0-.54-2.05,1.53,1.53,0,0,0-2,.53q-3.67,5-7.64,9.79a1.55,1.55,0,0,0,0,2.12,1.51,1.51,0,0,0,2.12,0Z" style="fill:#1e1e1c"/><path d="M118.16,146.9l.14-.21c-.07.11-.12.13,0,0a3.89,3.89,0,0,1,.34-.36c.13-.13.27-.25.41-.37s.23-.19.09-.08.08-.05.1-.07l1.93-1.39,4-2.9a1.54,1.54,0,0,0,.54-2,1.52,1.52,0,0,0-2-.54L119.4,142a13.59,13.59,0,0,0-3.83,3.36,1.5,1.5,0,1,0,2.59,1.52Z" style="fill:#1e1e1c"/><path d="M123.57,149.32a38.11,38.11,0,0,0,5.75-6.91,1.5,1.5,0,0,0-2.59-1.51c-.39.59-.79,1.17-1.21,1.74l-.32.43s-.16.24-.06.08-.08.1-.1.13l-.67.83a40.56,40.56,0,0,1-2.92,3.09,1.51,1.51,0,0,0,0,2.12,1.54,1.54,0,0,0,2.12,0Z" style="fill:#1e1e1c"/><path d="M127.11,154l8.72-13.82c1-1.64-1.56-3.14-2.59-1.51l-8.72,13.81c-1,1.64,1.56,3.15,2.59,1.52Z" style="fill:#1e1e1c"/><path d="M128.66,160.36c2.49-3.56,4.1-7.64,6.26-11.4s4.83-7.58,7.41-11.25c1.12-1.58-1.48-3.08-2.59-1.52-2.58,3.68-5.17,7.36-7.41,11.26s-3.77,7.83-6.26,11.4c-1.11,1.58,1.49,3.09,2.59,1.51Z" style="fill:#1e1e1c"/><path d="M131.29,168.1q3.17-6.47,6.32-13a1.54,1.54,0,0,0-.54-2,1.5,1.5,0,0,0-2,.53q-3.15,6.49-6.33,13a1.55,1.55,0,0,0,.54,2,1.52,1.52,0,0,0,2.06-.54Z" style="fill:#1e1e1c"/><path d="M133,175.32a33.59,33.59,0,0,0,3.19-3.85,1.5,1.5,0,0,0-1.69-2.2,1.67,1.67,0,0,0-.9.69l-.67.9.24-.3a33.83,33.83,0,0,1-2.29,2.64,1.56,1.56,0,0,0-.44,1.06,1.5,1.5,0,0,0,1.5,1.5,1.56,1.56,0,0,0,1.06-.44Z" style="fill:#1e1e1c"/><path d="M96.24,166.13c.61-.55,1.23-1.08,1.86-1.6l1-.8.47-.37,0,0,.3-.22c1.32-1,2.69-2,4.09-2.86a1.5,1.5,0,1,0-1.51-2.59A68.16,68.16,0,0,0,94.11,164a1.52,1.52,0,0,0,0,2.12,1.55,1.55,0,0,0,2.13,0Z" style="fill:#1e1e1c"/><path d="M143.05,144.58c2.88-3.29,4-7.61,6.69-11.06a1.51,1.51,0,0,0-.54-2.05,1.53,1.53,0,0,0-2,.53c-2.46,3.23-3.62,7.48-6.22,10.46a1.54,1.54,0,0,0,0,2.12,1.51,1.51,0,0,0,2.12,0Z" style="fill:#1e1e1c"/><path d="M149.49,143.09c.79-1.44,1.45-2.94,2.24-4.38a18.14,18.14,0,0,1,1.26-2c.08-.1.17-.21,0,0l.2-.25.38-.42a8.39,8.39,0,0,1,.93-.86,1.51,1.51,0,0,0,0-2.13,1.55,1.55,0,0,0-2.12,0c-2.71,2.21-3.88,5.6-5.51,8.56a1.5,1.5,0,1,0,2.59,1.52Z" style="fill:#1e1e1c"/><path d="M153.5,144.25l6-9.15a1.51,1.51,0,0,0-.54-2,1.53,1.53,0,0,0-2.05.54l-6,9.15a1.5,1.5,0,0,0,.53,2,1.54,1.54,0,0,0,2.06-.54Z" style="fill:#1e1e1c"/><path d="M156.94,147.47q4.2-5.52,8.07-11.29a1.51,1.51,0,0,0-.54-2.05,1.53,1.53,0,0,0-2.05.54q-3.87,5.76-8.07,11.28a1.5,1.5,0,0,0,.53,2.05,1.55,1.55,0,0,0,2.06-.53Z" style="fill:#1e1e1c"/><path d="M160.45,150.21q8.16-10.69,16.68-21.11c1.21-1.48-.9-3.62-2.13-2.12q-8.75,10.71-17.15,21.71a1.51,1.51,0,0,0,.54,2.05,1.54,1.54,0,0,0,2.06-.53Z" style="fill:#1e1e1c"/><path d="M163.68,153.35c.22-.3.44-.61.67-.9l-.24.3a26,26,0,0,1,3.42-3.62,1.51,1.51,0,0,0,0-2.12,1.55,1.55,0,0,0-2.13,0,27.49,27.49,0,0,0-4.31,4.83,1.5,1.5,0,0,0,1.69,2.2,1.71,1.71,0,0,0,.9-.69Z" style="fill:#1e1e1c"/><path d="M167,156.35a23.38,23.38,0,0,0,4.32-2.6,1.63,1.63,0,0,0,.69-.9,1.5,1.5,0,0,0-1-1.84,1.42,1.42,0,0,0-1.16.15,23.71,23.71,0,0,1-4.32,2.6,1.5,1.5,0,0,0,.36,2.75,1.71,1.71,0,0,0,1.15-.16Z" style="fill:#1e1e1c"/><path d="M170.86,144.32c2.66-7.38,8.67-12.88,14.3-18.07,1.43-1.31-.7-3.43-2.12-2.12-6.06,5.58-12.21,11.47-15.07,19.4-.65,1.82,2.24,2.6,2.89.79Z" style="fill:#1e1e1c"/><path d="M177.21,143.35c.09-.39.19-.78.31-1.17.07-.22.14-.43.22-.64a1.86,1.86,0,0,1,.1-.25s.15-.37.07-.2.09-.2.09-.19.08-.17.11-.25.18-.36.28-.54c.2-.38.41-.75.64-1.11a11.9,11.9,0,0,1,.7-1c-.09.12-.06.07,0,0l.22-.26c.13-.15.26-.31.4-.46.29-.31.59-.62.91-.91l.45-.4.21-.17s.37-.29.12-.1a1.54,1.54,0,0,0,.54-2.05,1.51,1.51,0,0,0-2.05-.54,16.68,16.68,0,0,0-6.23,9.46,1.5,1.5,0,0,0,2.9.8Z" style="fill:#1e1e1c"/><path d="M50.44,71.31l6-3.45a1.5,1.5,0,0,0-1.51-2.59l-6,3.45a1.5,1.5,0,1,0,1.51,2.59Z" style="fill:#1e1e1c"/><path d="M57.59,73.1a27.51,27.51,0,0,0,6.46-3,1.5,1.5,0,1,0-1.51-2.59,27.45,27.45,0,0,1-2.91,1.6l-.71.32,0,0-.2.08-.41.17c-.52.2-1,.38-1.57.55a1.5,1.5,0,1,0,.8,2.89Z" style="fill:#1e1e1c"/><path d="M64.06,79.92c5.71-4.07,10.12-9.5,14.45-15a1.56,1.56,0,0,0,0-2.13,1.52,1.52,0,0,0-2.12,0C72.24,68.07,68,73.43,62.55,77.33a1.54,1.54,0,0,0-.54,2,1.51,1.51,0,0,0,2.05.54Z" style="fill:#1e1e1c"/><path d="M65.78,87.1l.18-.26c.12-.19,0,0,0,0,.1,0,.31-.36.38-.45.26-.27.54-.53.82-.78.55-.5,1.13-1,1.69-1.44a7.94,7.94,0,0,0,2.64-4,1.5,1.5,0,0,0-2.9-.8,3.94,3.94,0,0,1-.14.49s-.12.34,0,.11,0,0,0,.09-.17.3-.26.45l-.17.25c-.11.16,0,0,0,0-.25.23-.45.53-.7.77s-.52.5-.8.74a15.93,15.93,0,0,0-3.26,3.3,1.51,1.51,0,0,0,.53,2,1.53,1.53,0,0,0,2.06-.54Z" style="fill:#1e1e1c"/><path d="M82,43.31l4-4.08A1.5,1.5,0,1,0,83.8,37.1l-4,4.09a1.51,1.51,0,0,0,0,2.12,1.53,1.53,0,0,0,2.12,0Z" style="fill:#1e1e1c"/><path d="M85.29,47.4l4.83-4.3a1.5,1.5,0,0,0,0-2.12A1.55,1.55,0,0,0,88,41l-4.83,4.3a1.51,1.51,0,0,0,0,2.12,1.54,1.54,0,0,0,2.12,0Z" style="fill:#1e1e1c"/><path d="M88.46,51.79a5.61,5.61,0,0,1,.29-.54c.06-.09,0-.06-.07.08l.11-.12A1.8,1.8,0,0,1,89,51a4.58,4.58,0,0,1,.46-.42l.22-.18c-.3.22,0,0,.07,0a15.26,15.26,0,0,0,2.14-1.87c.59-.66,1.12-1.37,1.68-2.06.26-.32.53-.64.82-.95s.31-.31.47-.46l.27-.24c.06,0,.34-.27.07-.06a1.56,1.56,0,0,0,.54-2.06,1.53,1.53,0,0,0-2.06-.53,12.56,12.56,0,0,0-2.16,2.09c-.58.71-1.13,1.46-1.75,2.14a9.07,9.07,0,0,1-.93.93l-.27.22c-.3.25.25-.18-.06,0l-.55.41a5.94,5.94,0,0,0-2.07,2.3,1.65,1.65,0,0,0-.15,1.15,1.49,1.49,0,0,0,.69.9,1.52,1.52,0,0,0,2-.54Z" style="fill:#1e1e1c"/><path d="M90.9,57.87l11.55-12c1.33-1.39-.79-3.51-2.13-2.12l-11.54,12c-1.34,1.4.78,3.52,2.12,2.12Z" style="fill:#1e1e1c"/><path d="M98.06,58.68c3.12-4.4,7.93-7.24,11.55-11.19a1.5,1.5,0,0,0-2.12-2.12c-3.81,4.16-8.72,7.15-12,11.8a1.51,1.51,0,0,0,.54,2,1.53,1.53,0,0,0,2-.54Z" style="fill:#1e1e1c"/><path d="M107.3,56.08A75.59,75.59,0,0,0,113.67,51a1.5,1.5,0,0,0,0-2.12,1.53,1.53,0,0,0-2.12,0c-1,.85-1.93,1.67-2.92,2.46l-.36.28-.18.14-.08.06c.16-.12,0,0-.07.06l-.18.14-.41.31c-.52.39-1,.77-1.57,1.14a1.64,1.64,0,0,0-.69.9,1.54,1.54,0,0,0,.15,1.15,1.52,1.52,0,0,0,2.06.54Z" style="fill:#1e1e1c"/><path d="M116.26,43.83l.57-.77-.23.3a25.36,25.36,0,0,1,3.54-3.71,1.48,1.48,0,0,0,.44-1.06,1.5,1.5,0,0,0-1.5-1.5,1.7,1.7,0,0,0-1.06.44,26.39,26.39,0,0,0-4.35,4.79,1.54,1.54,0,0,0-.15,1.15,1.5,1.5,0,0,0,1.84,1.05,1.67,1.67,0,0,0,.9-.69Z" style="fill:#1e1e1c"/><path d="M116.35,50l3.92-4.34a1.5,1.5,0,1,0-2.12-2.12l-3.92,4.34A1.5,1.5,0,1,0,116.35,50Z" style="fill:#1e1e1c"/><path d="M118.7,54.28l8.54-8a1.51,1.51,0,0,0,0-2.13,1.54,1.54,0,0,0-2.12,0l-8.54,8a1.5,1.5,0,0,0,0,2.12,1.53,1.53,0,0,0,2.12,0Z" style="fill:#1e1e1c"/><path d="M124.49,54.58a24.66,24.66,0,0,0,7-5.35,1.5,1.5,0,1,0-2.12-2.12,20,20,0,0,1-1.45,1.46c-.25.24-.51.46-.77.69l-.44.36-.18.14c-.22.18.14-.1,0,0A24,24,0,0,1,123,52a1.5,1.5,0,1,0,1.51,2.59Z" style="fill:#1e1e1c"/><path d="M131.6,57.28a94.08,94.08,0,0,1,18.56-14.45,1.5,1.5,0,0,0-1.51-2.59,97.88,97.88,0,0,0-19.17,14.91,1.5,1.5,0,0,0,2.12,2.13Z" style="fill:#1e1e1c"/><path d="M136.36,59.49a209.45,209.45,0,0,1,20.57-12.8c1.69-.92.18-3.51-1.52-2.59a211.84,211.84,0,0,0-20.57,12.8c-1.56,1.1-.07,3.7,1.52,2.59Z" style="fill:#1e1e1c"/><path d="M144.44,60.33c4.28-5.07,11.07-6.78,16.43-10.37,1.6-1.06.1-3.66-1.51-2.59-5.59,3.74-12.57,5.55-17,10.84a1.54,1.54,0,0,0,0,2.12,1.51,1.51,0,0,0,2.12,0Z" style="fill:#1e1e1c"/><path d="M151.72,60a69,69,0,0,0,7.56-3.23,1.5,1.5,0,0,0,.54-2,1.54,1.54,0,0,0-2-.54c-1.15.57-2.32,1.11-3.5,1.62l-.14.06-.51.21-.9.36c-.59.23-1.2.46-1.8.67a1.5,1.5,0,1,0,.8,2.9Z" style="fill:#1e1e1c"/><path d="M146.4,38.29a23.18,23.18,0,0,0,4-2.37,1.6,1.6,0,0,0,.68-.89,1.52,1.52,0,0,0-.15-1.16,1.5,1.5,0,0,0-2-.54,22.82,22.82,0,0,1-4.05,2.37,1.52,1.52,0,0,0-.69.9,1.57,1.57,0,0,0,.16,1.16,1.45,1.45,0,0,0,.89.68,1.67,1.67,0,0,0,1.16-.15Z" style="fill:#1e1e1c"/><path d="M162.73,66.64c2.15-2.1,4.91-3.38,7.6-4.65a33,33,0,0,0,7.94-4.73c1.46-1.28-.67-3.39-2.12-2.12-2.26,2-5.08,3.2-7.77,4.47a27.8,27.8,0,0,0-7.78,4.9c-1.38,1.35.74,3.47,2.13,2.13Z" style="fill:#1e1e1c"/><path d="M166.18,70.17a1.74,1.74,0,0,1,.11-.18c-.13.17-.14.19,0,.07s.1-.09-.07,0l.18-.12a5.26,5.26,0,0,1,.67-.34c.64-.29,1.29-.56,1.94-.84l4-1.73a1.5,1.5,0,0,0,.54-2,1.55,1.55,0,0,0-2.05-.54l-4.3,1.85c-1.32.56-2.85,1-3.61,2.33a1.52,1.52,0,0,0,.53,2,1.54,1.54,0,0,0,2.06-.54Z" style="fill:#1e1e1c"/><path d="M169.23,75.16c2.5-1.52,5.06-3,7.65-4.31a1.51,1.51,0,0,0,.54-2,1.53,1.53,0,0,0-2-.54c-2.6,1.36-5.15,2.79-7.66,4.31a1.51,1.51,0,0,0-.53,2.05,1.53,1.53,0,0,0,2,.54Z" style="fill:#1e1e1c"/><path d="M174.27,77.6a64.64,64.64,0,0,1,9.18-3.07,1.5,1.5,0,0,0-.79-2.89,64.35,64.35,0,0,0-9.19,3.07,1.54,1.54,0,0,0-1.05,1.84,1.52,1.52,0,0,0,1.85,1Z" style="fill:#1e1e1c"/><path d="M178.86,81.22l3.12-.94c.5-.14,1-.28,1.51-.39.25-.06.51-.1.76-.15s-.25,0,.08,0l.47,0a1.53,1.53,0,0,0,1.5-1.5,1.51,1.51,0,0,0-1.5-1.5,31.58,31.58,0,0,0-6.74,1.64,1.5,1.5,0,1,0,.8,2.89Z" style="fill:#1e1e1c"/><path d="M180.26,86.11l4-.71a1.47,1.47,0,0,0,.89-.69,1.49,1.49,0,0,0,.15-1.15,1.51,1.51,0,0,0-.69-.9,1.69,1.69,0,0,0-1.15-.15l-4,.7a1.5,1.5,0,0,0-.89.69,1.52,1.52,0,0,0-.15,1.16,1.49,1.49,0,0,0,.68.89,1.73,1.73,0,0,0,1.16.16Z" style="fill:#1e1e1c"/><path d="M181,93.93a22.08,22.08,0,0,0,3.15-.28,1.5,1.5,0,0,0,.36-2.74l-.36-.15a1.51,1.51,0,0,0-.79,0l-.38,0,.4,0a18.91,18.91,0,0,1-2.38.17,1.5,1.5,0,0,0-1.5,1.5,1.56,1.56,0,0,0,.44,1.06,1.58,1.58,0,0,0,1.06.44Z" style="fill:#1e1e1c"/><path d="M175.8,116.34c.92-.85,1.86-1.66,2.83-2.45l.69-.54.11-.09c-.16.13,0,0,.07-.05l.35-.26c.51-.39,1-.76,1.56-1.13a1.5,1.5,0,1,0-1.52-2.59,60.54,60.54,0,0,0-6.21,5,1.51,1.51,0,0,0,0,2.12,1.54,1.54,0,0,0,2.12,0Z" style="fill:#1e1e1c"/><path d="M179.81,121.41a15.34,15.34,0,0,0,4.76-4.66,1.51,1.51,0,0,0-.54-2,1.53,1.53,0,0,0-2.05.53c-.21.32-.42.62-.65.92l.23-.31a13.2,13.2,0,0,1-2.42,2.42l.3-.23a13,13,0,0,1-1.15.79,1.5,1.5,0,0,0,1.52,2.59Z" style="fill:#1e1e1c"/><path d="M186.52,123.58q2.72-1,5.51-1.85a1.5,1.5,0,0,0-.79-2.89q-2.79.82-5.52,1.84a1.67,1.67,0,0,0-.9.69,1.61,1.61,0,0,0-.15,1.16,1.54,1.54,0,0,0,1.85,1Z" style="fill:#1e1e1c"/><path d="M166.53,84.11c.05,0,.36,0,.12,0s.11,0,.13,0l.47.13.1,0c.1,0,.07,0-.11,0,0,0,.17.08.19.1a1.53,1.53,0,0,1,.46.28c-.12-.12-.15-.12,0,0l.15.15a1.12,1.12,0,0,1,.17.2c-.07-.15-.14-.19,0,0s.13.32.23.41c-.1-.09-.1-.25,0,0a2.5,2.5,0,0,1,.07.26c0,.06,0,.14,0,.2-.11-.28,0-.19,0,0v.26c0,.22,0,0,0-.08a2.54,2.54,0,0,0-.13.51.68.68,0,0,0-.07.2c.08-.18.09-.22,0-.12l0,.09a6.36,6.36,0,0,1-.54.87s-.22.29-.08.11-.07.1-.08.11l-.35.42a1.5,1.5,0,0,0,2.13,2.12A11,11,0,0,0,171,88a4.81,4.81,0,0,0,.36-3.25,5.08,5.08,0,0,0-4.78-3.62,1.5,1.5,0,0,0-1.5,1.5,1.54,1.54,0,0,0,1.5,1.5Z" style="fill:#1e1e1c"/><path d="M169.65,98.09l.25,0c.17,0,.1.06,0,0l.22.13c-.24-.15,0,0,0,0s.12.13.18.19-.09-.17,0,0,.19.31.28.46a8.46,8.46,0,0,1,.87,2.34c0,.11.05.22.06.33.05.27,0-.17,0,.1s0,.45,0,.67a2.64,2.64,0,0,0,0,.29c0,.22.05-.22,0,0s-.08.4-.14.59l-.09.26c0-.14.05-.11,0,0s-.17.31-.26.46.06,0-.05.07-.12.13-.19.19-.22.2-.09.1-.18.11-.18.11a1.5,1.5,0,1,0,1.51,2.59c2.2-1.37,2.81-4,2.33-6.41a11.16,11.16,0,0,0-1.28-3.33,4.06,4.06,0,0,0-2.68-2.14,1.5,1.5,0,0,0-.8,2.89Z" style="fill:#1e1e1c"/><path d="M77.27,105.35a5.88,5.88,0,0,0-2.08,7.41,7.59,7.59,0,0,0,3.19,3.06A14.2,14.2,0,0,0,83,117.44a1.54,1.54,0,0,0,1.85-1,1.51,1.51,0,0,0-1-1.84,12.37,12.37,0,0,1-3.47-1.09,10.18,10.18,0,0,1-1.43-.86c.11.08-.17-.15-.2-.17l-.33-.31c-.1-.11-.2-.22-.29-.34.15.2-.11-.18-.11-.18l-.19-.35c.09.18,0,.1,0,0s-.12-.43-.16-.65c.06.36,0,0,0-.09a2.41,2.41,0,0,1,0-.38c0-.06.06-.45,0-.09,0-.12,0-.25.07-.37l.09-.3s.15-.4.07-.22.07-.13.08-.16a3.37,3.37,0,0,1,.19-.32c0-.05.27-.35.06-.1l.24-.27.28-.25c-.2.16,0,0,.09-.06a1.5,1.5,0,0,0-1.51-2.59Z" style="fill:#1e1e1c"/><path d="M77.9,104.87l-.67-.07.4.06a11.57,11.57,0,0,1-1.3-.28l-.63-.21c-.07,0-.21-.12-.27-.11.21.09.24.11.1,0l-.13-.06a4.53,4.53,0,0,1-.54-.27c-.11-.07-.38-.31,0,0-.2-.18.15.28,0,0s.08.32,0,.06-.06-.22-.08-.32-.07-.46-.11-.69l.06.4a15.37,15.37,0,0,1-.14-2.35,1.5,1.5,0,0,0-3,0,18.16,18.16,0,0,0,.19,2.75,6.16,6.16,0,0,0,.2,1,2.85,2.85,0,0,0,1.12,1.5,7.76,7.76,0,0,0,2.25,1,11,11,0,0,0,2.55.46,1.52,1.52,0,0,0,1.5-1.5,1.54,1.54,0,0,0-1.5-1.5Z" style="fill:#1e1e1c"/><path d="M75.94,88l-.06-.34c0-.12,0-.07,0,.15a1.36,1.36,0,0,1,0-.2c0-.2,0-.39,0-.59s0-.46,0-.69-.07.34,0,0l.06-.29c0-.21.15-.41.2-.62-.08.35-.09.19,0,.06a1.55,1.55,0,0,1,.12-.22A2.61,2.61,0,0,1,76.4,85c.07-.1.26-.25,0,0,.13-.12.23-.26.37-.38l.09-.08q.18-.15-.12.09c.07,0,.14-.1.21-.14l.21-.12.14-.07c-.22.09-.28.12-.17.08l.48-.13c-.37.11-.25,0-.09,0h.26c.35,0-.33-.08,0,0l.22,0,.21.07c.27.08-.35-.17-.05,0l.23.13c.22.13-.26-.24-.07,0l.16.15c.18.17-.22-.32,0,0A1.5,1.5,0,1,0,81,83.09a4,4,0,0,0-3-1.8,4.35,4.35,0,0,0-3.14,1A5.37,5.37,0,0,0,73.09,85a8,8,0,0,0,0,3.73,1.49,1.49,0,0,0,1.84,1,1.53,1.53,0,0,0,1-1.84Z" style="fill:#1e1e1c"/></g></g></svg>