<svg xmlns="http://www.w3.org/2000/svg" viewBox="0 0 68.84 80.8"><g id="Слой_2" data-name="Слой 2"><g id="Слой_13" data-name="Слой 13"><path fill="black" d="M14.77,25C24.83,18,38.56,13.4,50,20.19,60.81,26.62,64.6,39.79,64.19,51.7,64,57.64,62.61,63.57,58,67.64s-10.2,8-16.45,9.12a70.66,70.66,0,0,1-10.16,1A19.45,19.45,0,0,1,22,76.16,43.62,43.62,0,0,1,14.25,71a16.16,16.16,0,0,1-5.64-7,53.28,53.28,0,0,1-3.1-10.63c-.64-3.87.06-7.72.74-11.53C7.41,35.29,9.39,28,15.59,24.53a1.5,1.5,0,0,0-1.51-2.59C8.23,25.23,5.38,31.59,4,37.87A66.12,66.12,0,0,0,2.26,49.05,32,32,0,0,0,4.11,60c1,3.22,2,6.61,4.05,9.31s5,4.61,7.64,6.54a24.81,24.81,0,0,0,9.14,4.46c3.67.78,7.41.45,11.11.12a40.47,40.47,0,0,0,10.65-2,37.4,37.4,0,0,0,8.92-5.19c2.77-2,5.59-4.1,7.58-7a22.18,22.18,0,0,0,3.4-8.81c2.28-12.86-.86-28.12-11-36.95A28,28,0,0,0,34.77,14c-7.85.64-15.13,4-21.52,8.47-1.57,1.1-.07,3.7,1.52,2.59Z"/><path fill="black" d="M13.11,37.7c3.68-2.29,5.07-6.52,8.25-9.27,3.57-3.09,9.36-3.13,13.81-3.43a32.86,32.86,0,0,1,8,0,15.3,15.3,0,0,1,6.45,3.46A26.22,26.22,0,0,1,55,33.61,18.24,18.24,0,0,1,57.88,40a29.33,29.33,0,0,1-.15,14.27c-1.34,5-5,8.43-9,11.41a22.31,22.31,0,0,1-6.32,3.48,18.37,18.37,0,0,1-7.63.56,75.92,75.92,0,0,1-8.35-1.32,18.08,18.08,0,0,1-7-2.8c-4.07-3-6.22-7.88-7-12.72a41,41,0,0,1-.32-9.07c.16-2.82.23-5.93,1.61-8.47.92-1.7-1.67-3.21-2.59-1.51-1.37,2.51-1.66,5.32-1.89,8.13a52.9,52.9,0,0,0-.07,8.81,25.41,25.41,0,0,0,5.51,14.42c3.72,4.41,9,5.85,14.44,6.76a45.7,45.7,0,0,0,9.46.92,18.8,18.8,0,0,0,7.62-2.07A34.52,34.52,0,0,0,53,66,26.22,26.22,0,0,0,58.56,60c2.76-4.54,3.35-10.41,3-15.61S59.56,33.94,55.9,30a39.81,39.81,0,0,0-6.54-5.46,14.6,14.6,0,0,0-7.55-2.72,62.07,62.07,0,0,0-10.19.48,30.49,30.49,0,0,0-8.77,1.79,14.68,14.68,0,0,0-6.2,5.19c-1.52,2.08-2.81,4.44-5,5.83-1.64,1-.13,3.62,1.51,2.59Z"/><path fill="black" d="M11.05,49.68a28.17,28.17,0,0,0,3.31-.23,1.25,1.25,0,0,0,.57-.13,1.21,1.21,0,0,0,.49-.31A1.56,1.56,0,0,0,15.86,48a1.59,1.59,0,0,0-.44-1.07,1.43,1.43,0,0,0-1.06-.43,28.17,28.17,0,0,1-3.31.23,1.58,1.58,0,0,0-1.06.44,1.56,1.56,0,0,0-.44,1.06A1.54,1.54,0,0,0,10,49.24a1.58,1.58,0,0,0,1.06.44Z"/><path fill="black" d="M18.24,30.86a10.08,10.08,0,0,1,1.2,1.33l-.23-.31a11.78,11.78,0,0,1,.8,1.19,1.52,1.52,0,0,0,.9.69,1.54,1.54,0,0,0,1.15-.15,1.52,1.52,0,0,0,.69-.9,1.54,1.54,0,0,0-.15-1.15,13.58,13.58,0,0,0-2.23-2.83,1.53,1.53,0,0,0-2.13,0,1.53,1.53,0,0,0-.43,1.07,1.51,1.51,0,0,0,.43,1.06Z"/><path fill="black" d="M35.09,24.62a24.23,24.23,0,0,0,.3,3.8,1.5,1.5,0,0,0,1.85,1,1.5,1.5,0,0,0,.89-.69l.16-.36a1.51,1.51,0,0,0,0-.79c0-.16,0-.31-.07-.47l.05.4a20.72,20.72,0,0,1-.18-2.94,1.57,1.57,0,0,0-.44-1.07,1.51,1.51,0,0,0-2.56,1.07Z"/><path fill="black" d="M50.47,33.5a3.7,3.7,0,0,0,.81-.07,2.23,2.23,0,0,0,.43-.1,4.58,4.58,0,0,0,.71-.33,5.74,5.74,0,0,0,.47-.35l.17-.15a1.11,1.11,0,0,0,.31-.49,1.06,1.06,0,0,0,.13-.58,1,1,0,0,0-.13-.57,1.11,1.11,0,0,0-.31-.49A1.54,1.54,0,0,0,52,29.93l-.4.06a1.57,1.57,0,0,0-.66.38l-.18.17.3-.24a2.43,2.43,0,0,1-.44.26l.36-.15a2.17,2.17,0,0,1-.5.13l.4-.05a1.89,1.89,0,0,1-.41,0,1.06,1.06,0,0,0-.58.13,1.36,1.36,0,0,0-.79.79A1.06,1.06,0,0,0,49,32l.05.4a1.49,1.49,0,0,0,.39.66l.3.23a1.45,1.45,0,0,0,.76.21Z"/><path fill="black" d="M56.11,48l2.33.73a1.49,1.49,0,0,0,1.15-.15,1.52,1.52,0,0,0,.69-.9,1.49,1.49,0,0,0-.15-1.15,1.57,1.57,0,0,0-.89-.69l-2.33-.73a1.5,1.5,0,0,0-1.85,1,1.54,1.54,0,0,0,.16,1.15,1.57,1.57,0,0,0,.89.69Z"/><path fill="black" d="M49,62.36a5.6,5.6,0,0,1,.72.74l-.24-.31A5,5,0,0,1,50,63.84l-.15-.36,0,.06a1,1,0,0,0,.26.51,1.24,1.24,0,0,0,.43.39,1,1,0,0,0,.55.17,1.11,1.11,0,0,0,.6,0,1.55,1.55,0,0,0,.9-.69l.15-.36a1.55,1.55,0,0,0,0-.8,6.76,6.76,0,0,0-.71-1.36,6.62,6.62,0,0,0-1-1.15,1.24,1.24,0,0,0-.48-.31,1.46,1.46,0,0,0-1.16,0,1.24,1.24,0,0,0-.48.31,1.54,1.54,0,0,0-.44,1.07A1.52,1.52,0,0,0,49,62.36Z"/><path fill="black" d="M34.39,67.77a9.35,9.35,0,0,0-.06,2,1.27,1.27,0,0,0,.13.58,1.34,1.34,0,0,0,.8.79,1,1,0,0,0,.57.13,1.52,1.52,0,0,0,1.07-.44,1.45,1.45,0,0,0,.43-1.06,9.35,9.35,0,0,1,.06-2,1.15,1.15,0,0,0-.13-.58A1.11,1.11,0,0,0,37,66.7a1.24,1.24,0,0,0-.48-.31,1.17,1.17,0,0,0-.58-.12,1.49,1.49,0,0,0-1.06.43l-.24.31a1.51,1.51,0,0,0-.2.76Z"/><path fill="black" d="M18.34,65.14c.62-.7,1.22-1.42,1.81-2.14a1.21,1.21,0,0,0,.31-.49,1.15,1.15,0,0,0,.13-.58,1.58,1.58,0,0,0-.44-1.06,1.56,1.56,0,0,0-1.06-.44l-.4.06a1.51,1.51,0,0,0-.66.38c-.59.73-1.2,1.45-1.82,2.15a1.6,1.6,0,0,0-.43,1.06,1.49,1.49,0,0,0,1.5,1.5,1.52,1.52,0,0,0,1.06-.44Z"/><path fill="black" d="M32.66,43.73a4.47,4.47,0,0,0-2.45,4.65,4.61,4.61,0,0,0,1.61,2.28,4.15,4.15,0,0,0,2.66,1.12,6.65,6.65,0,0,0,2.78-.8,4.25,4.25,0,0,0,2-1.82,4.16,4.16,0,0,0-.86-5A5,5,0,0,0,35.42,43c-.82-.08-1.64,0-2.46,0a1.52,1.52,0,0,0-1.5,1.5,1.54,1.54,0,0,0,1.5,1.5c.57,0,1.14,0,1.72,0h.42c.08,0,.37,0,.42,0s-.31-.06-.09,0l.2,0,.44.14c.19.06-.25-.14-.07,0l.13.07.17.11c.23.13-.06,0-.07-.06s.22.21.28.27c.19.21-.07-.07-.06-.07a1.74,1.74,0,0,1,.13.2l.09.18c.1.17-.09-.28,0-.09l.1.37c.05.15,0-.15,0-.16a1.41,1.41,0,0,0,0,.2v.2c0,.33.08-.31,0,0,0,.11-.06.22-.1.33s.14-.24,0-.07l-.09.17a1.63,1.63,0,0,0-.11.17c-.11.17.19-.2,0-.06l-.1.11-.11.1.09-.06a2.3,2.3,0,0,1-.72.4c-.18.1.26-.1.06,0l-.2.08-.5.17a3,3,0,0,1-.45.12s.38,0,.05,0h-.23s.36.09.08,0l-.15,0c-.07,0-.23-.12-.06,0s-.05,0-.1-.06L34,48.56c-.23-.14,0,0,.05,0s-.26-.22-.31-.28l-.3-.3-.14-.16-.09-.1c.12.13,0,0,0,0s-.2-.39,0,0v-.06c0-.11,0-.07,0,.11,0,0,0-.41,0-.15s0,0,0,0,0-.18.08-.28,0,.11,0,.09a1.13,1.13,0,0,1,.11-.22,3.73,3.73,0,0,0,.23-.37s-.22.25-.05.07l.17-.18.15-.13c.12-.13-.27.17,0,0l.42-.24a1.51,1.51,0,0,0,.54-2.06,1.54,1.54,0,0,0-2.05-.53Z"/><path fill="black" d="M38.7,43.83c1.51-4.21,2.76-8.63,5.11-12.46,1-1.66-1.58-3.16-2.59-1.52C38.73,33.91,37.4,38.59,35.8,43a1.51,1.51,0,0,0,1.05,1.84,1.54,1.54,0,0,0,1.85-1.05Z"/><path fill="black" d="M9.54,22.39l2.23,1.73a1.11,1.11,0,0,0,.48.31,1.27,1.27,0,0,0,.58.13,1.54,1.54,0,0,0,1.06-.44,1.52,1.52,0,0,0,.44-1.06l-.06-.4a1.45,1.45,0,0,0-.38-.66l-2.23-1.74a1.21,1.21,0,0,0-.48-.31,1.14,1.14,0,0,0-.58-.12,1.49,1.49,0,0,0-1.5,1.5l.06.39a1.54,1.54,0,0,0,.38.67Z"/><path fill="black" d="M7.7,24.37a41.64,41.64,0,0,0,4.75-4.55,8.49,8.49,0,0,0,1.16-1.24,2.11,2.11,0,0,0,.07-2.13,5.23,5.23,0,0,0-2.06-2.11A15.56,15.56,0,0,0,8.7,13a2.81,2.81,0,0,0-3.18.9c-1.49,1.52-3,3.05-4.44,4.58A2.77,2.77,0,0,0,0,20.34a2.26,2.26,0,0,0,1.29,1.81l3.19,2.08A1.5,1.5,0,1,0,6,21.64L4.18,20.45l-.82-.54-.46-.29c-.06,0-.46-.38-.29-.2l.39.66,0-.14v.8c-.25.34-.27.38-.05.14l.15-.15.52-.54,1-1,1.78-1.84.88-.91L7.64,16c.08-.09.34-.34.33-.34a.39.39,0,0,1-.32.1c-.05,0,0,0,.07.05a2.8,2.8,0,0,0,.65.24c.31.13.62.28.91.43a4.77,4.77,0,0,1,1.59,1.09l.07.1q.18.43.15-.33c.12-.79,0-.38-.31-.09l-1,1L8,20.08a16,16,0,0,1-1.79,1.7,1.54,1.54,0,0,0-.53,2,1.51,1.51,0,0,0,2.05.54Z"/><path fill="black" d="M29.79,11.3l.12,3a1.63,1.63,0,0,0,.44,1.06,1.56,1.56,0,0,0,1.06.44,1.54,1.54,0,0,0,1.06-.44,1.47,1.47,0,0,0,.44-1.06l-.12-3a1.63,1.63,0,0,0-.44-1.07,1.51,1.51,0,0,0-1.06-.43,1.49,1.49,0,0,0-1.5,1.5Z"/><path fill="black" d="M36.59,11.29a13.68,13.68,0,0,1-.07,2.86l0-.4s0,.08,0,.11a1.11,1.11,0,0,0,0,.6,1,1,0,0,0,.17.56,1.55,1.55,0,0,0,.9.69,1.52,1.52,0,0,0,1.16-.15,1.49,1.49,0,0,0,.69-.9,15.2,15.2,0,0,0,.14-3.37,1.66,1.66,0,0,0-.44-1.06,1.52,1.52,0,0,0-1.06-.44,1.5,1.5,0,0,0-1.06.44,1.44,1.44,0,0,0-.44,1.06Z"/><path fill="black" d="M28.34,10.65c1.09,1.44,2.9,1.26,4.54,1.23a33.31,33.31,0,0,0,5.18-.52A12.42,12.42,0,0,0,42.67,10c1.59-1.08,1.51-2.95.81-4.53-.31-.72-.68-1.41-1-2.11a9,9,0,0,0-1.19-2.06C40.19.07,38.56,0,37,0L31.9.08a10.55,10.55,0,0,0-4.8,1,5.06,5.06,0,0,0-2.76,4,3.51,3.51,0,0,0,.85,2.48c.47.56,1.1,1,1.56,1.51a1.5,1.5,0,0,0,2.12,0,1.53,1.53,0,0,0,0-2.12c-.58-.7-1.92-1.21-1.37-2.25a3.5,3.5,0,0,1,2.74-1.49A37.31,37.31,0,0,1,34.85,3L37,3a4,4,0,0,1,1.76.13c.49.24.71,1,.94,1.48.31.64.64,1.27.94,1.91.15.31.41.92.29,1a4.63,4.63,0,0,1-1.73.51,28.23,28.23,0,0,1-4.49.74c-.82.07-1.65.1-2.48.1-.48,0-1.36.15-1.75-.13l.54.53-.12-.15a1.54,1.54,0,0,0-2.05-.54,1.51,1.51,0,0,0-.54,2.05Z"/><path fill="black" d="M58.42,24.21a19.61,19.61,0,0,0,1.74-1.67,1.59,1.59,0,0,0,.44-1.07,1.14,1.14,0,0,0-.13-.57,1.11,1.11,0,0,0-.31-.49A1.56,1.56,0,0,0,59.1,20a1.54,1.54,0,0,0-1.06.44,19.67,19.67,0,0,1-1.74,1.68,1.14,1.14,0,0,0-.31.48,1.36,1.36,0,0,0,0,1.16,1.08,1.08,0,0,0,.31.48,1.5,1.5,0,0,0,1.06.44l.4,0a1.49,1.49,0,0,0,.66-.39Z"/><path fill="black" d="M56.19,19.78c1.4,1.87,3.22,3.88,5.49,4.68a3.57,3.57,0,0,0,3.56-.64,6.29,6.29,0,0,0,1.43-2.48c.1-.24-.16.31,0-.08l.12-.24c0-.07.31-.49.13-.26.31-.4.79-.59,1.2-1.05a2.43,2.43,0,0,0-.54-3.8A15,15,0,0,0,66,15.19l-1.87-.78c-1.14-.48-2.28-1-3.45-1.43a3.77,3.77,0,0,0-3.95.67,3.93,3.93,0,0,0-.9,1.74c-.06.23-.11.47-.18.7,0,0-.09.32,0,.15s0-.07,0,.07l0,0c-1.35,1.38.76,3.51,2.12,2.12a4.9,4.9,0,0,0,1.08-2.26c0-.07.16-.5,0-.26,0-.09.17-.39,0-.14,0,0,0-.06.16-.08s.25,0,.11,0,.23,0,.27,0a11.52,11.52,0,0,1,2.4.93l2.85,1.2c.41.17.9.36,1.26.53l.2.09c.21,0,0,0,0,0a7.37,7.37,0,0,1-.12-.73,2.92,2.92,0,0,0-.28.23,7.52,7.52,0,0,0-.62.5,4.29,4.29,0,0,0-.75,1,12.09,12.09,0,0,0-.49,1.11L63.6,21c.11-.26-.1.2-.13.26s-.26.39-.17.28-.34.28,0,0c-.13.1,0,.07-.21.1.24,0-.37,0-.16,0a4.89,4.89,0,0,1-2.13-1.3,14.64,14.64,0,0,1-2-2.12,1.55,1.55,0,0,0-2.05-.54,1.52,1.52,0,0,0-.54,2.06Z"/></g></g></svg>