<svg xmlns="http://www.w3.org/2000/svg" viewBox="0 0 481.09 119.99"><g id="Слой_2" data-name="Слой 2"><g id="Слой_2-2" data-name="Слой 2"><path d="M7.79,27.77q16.14,1.56,32.37,1.71c5.34,0,10.68,0,16,.15,4.83.16,10.34,0,14.53,2.72,3.85,2.55,6.24,6.86,8.46,10.78a1.5,1.5,0,0,0,2.59-1.51c-2.11-3.73-4.35-7.59-7.64-10.41A16.37,16.37,0,0,0,68.61,28a31.25,31.25,0,0,0-8-1.18c-11.17-.69-22.39-.21-33.57-.71q-9.64-.42-19.26-1.36c-1.92-.18-1.91,2.82,0,3Z" style="fill:#1e1e1c"/><path d="M4.53,24.7c-1.71,1.61-2.39,3.83-2.87,6.06A77,77,0,0,0,.37,39,78,78,0,0,0,.5,55.42c1.18,11,3.87,21.85,3,32.94-.11,1.38-.28,2.74-.52,4.1-.2,1.14-.44,2.36.73,3.06,1,.6,2.53.44,3.65.52,1.48.1,3,.19,4.45.26,5.6.27,11.21.32,16.82.23,5.78-.09,11.55-.32,17.33-.6,5.35-.26,10.8-.32,16.12-1a25.11,25.11,0,0,0,14.07-6.46c3.74-3.42,6.61-7.69,9.4-11.89C86.58,75,84,73.44,82.92,75,80.3,79,77.62,83,74.13,86.2a22.5,22.5,0,0,1-13.42,5.87c-5.8.61-11.69.73-17.52,1-6,.27-12,.48-18.07.51q-4.95,0-9.89-.13c-1.65-.06-3.3-.13-5-.22-.9,0-1.81-.1-2.71-.16a7.56,7.56,0,0,1-2.5-.21l.68.9A4.61,4.61,0,0,1,6,92.32c.08-.53.16-1.06.22-1.58.15-1.11.25-2.22.32-3.33a65.3,65.3,0,0,0,.06-6.71A129.1,129.1,0,0,0,5.16,67.41c-1.31-9-2.67-17.84-1.93-26.92a72.21,72.21,0,0,1,1.08-7.75c.41-2.06.74-4.41,2.34-5.92,1.41-1.32-.71-3.44-2.12-2.12Z" style="fill:#1e1e1c"/><path d="M4,61.79l24.78-.34c1.93,0,1.93-3,0-3L4,58.79c-1.93,0-1.93,3,0,3Z" style="fill:#1e1e1c"/><path d="M30.61,27.41A71,71,0,0,0,27.56,40a44.85,44.85,0,0,0,.15,12.78A101.49,101.49,0,0,1,29,65.93c.08,4.44-.06,8.9.28,13.34.36,4.76,2.11,9.83.95,14.57-.46,1.88,2.43,2.68,2.89.8,1.05-4.28,0-8.47-.58-12.72A109.71,109.71,0,0,1,32,68.6a90.05,90.05,0,0,0-.89-13.13,54.34,54.34,0,0,1-.87-12.92A63.64,63.64,0,0,1,33.5,28.21c.6-1.84-2.3-2.63-2.89-.8Z" style="fill:#1e1e1c"/><path d="M12.39,38.33a51.06,51.06,0,0,1,9.19,1,1.54,1.54,0,0,0,1.85-1.05,1.52,1.52,0,0,0-1.05-1.84,55.81,55.81,0,0,0-10-1.06,1.5,1.5,0,0,0,0,3Z" style="fill:#1e1e1c"/><path d="M13.06,45.81a42.82,42.82,0,0,1,9.67.77,1.55,1.55,0,0,0,1.85-1,1.52,1.52,0,0,0-1-1.85,47.18,47.18,0,0,0-10.47-.87,1.5,1.5,0,0,0,0,3Z" style="fill:#1e1e1c"/><path d="M14.05,52.56a69.64,69.64,0,0,1,9.9.28,1.52,1.52,0,0,0,1.5-1.5,1.54,1.54,0,0,0-1.5-1.5,69.64,69.64,0,0,0-9.9-.28,1.5,1.5,0,1,0,0,3Z" style="fill:#1e1e1c"/><path d="M13.72,69.59l8.91.56a1.5,1.5,0,0,0,1.5-1.5,1.54,1.54,0,0,0-1.5-1.5l-8.91-.56a1.5,1.5,0,0,0-1.5,1.5,1.54,1.54,0,0,0,1.5,1.5Z" style="fill:#1e1e1c"/><path d="M14.21,76.88a41,41,0,0,1,9,.51,1.55,1.55,0,0,0,1.85-1A1.53,1.53,0,0,0,24,74.49a44.36,44.36,0,0,0-9.83-.61,1.5,1.5,0,0,0,0,3Z" style="fill:#1e1e1c"/><path d="M15.28,85.18c3.76-.64,7.58.84,11.34.88a1.5,1.5,0,0,0,0-3c-4.09,0-8-1.47-12.14-.77a1.5,1.5,0,1,0,.8,2.89Z" style="fill:#1e1e1c"/><path d="M31.07,39.8l5.77.54,3.08.29a8.45,8.45,0,0,1,2.52.29,7,7,0,0,1,1.68,1.66c.7.74,1.39,1.5,2.08,2.26Q48.12,47,50,49.19c1.23,1.48,3.35-.65,2.12-2.12s-2.74-3.22-4.16-4.78c-.68-.76-1.38-1.51-2.08-2.25a6.86,6.86,0,0,0-2.3-1.89,10.66,10.66,0,0,0-2.86-.44l-3.08-.29-6.54-.62c-1.92-.18-1.91,2.82,0,3Z" style="fill:#1e1e1c"/><path d="M32.38,83.64c2.32,0,4.65,0,7-.12,2.16-.08,4.4.11,6.14-1.36A40.45,40.45,0,0,0,53.86,73c1-1.64-1.57-3.15-2.59-1.52a40.51,40.51,0,0,1-7.41,8.12,2.57,2.57,0,0,1-1.92.79c-1.07.06-2.13.11-3.19.14-2.12.08-4.25.11-6.37.1a1.5,1.5,0,0,0,0,3Z" style="fill:#1e1e1c"/><path d="M63.33,44.38c-2.48-2.14-5.54-2.94-8.45-4.31-1.24-.58-3.08-1.38-3.44-2.81a43.83,43.83,0,0,1-.67-6l-1.32-12c-.1-1-.21-2-.32-2.94,0-.21.1-1-.26-.66.14-.14,1.09,0,1.29,0l6.29-.09c3.69,0,7.62-.44,11.25.31S74.52,19,77.92,20.45c6.57,2.79,13.54,4.37,20.34,6.49s16.44,4.85,17,13.29c.13,1.91,3.13,1.93,3,0a13.61,13.61,0,0,0-4.61-9.45c-3-2.54-6.85-4-10.5-5.34-7.53-2.74-15.45-4.28-22.91-7.24a53.56,53.56,0,0,1-5.59-2.62,24.34,24.34,0,0,0-5.53-2.43c-4.1-1-8.53-.62-12.71-.57l-6.53.09c-1.71,0-3.62.31-3.84,2.37a13,13,0,0,0,.21,2.78l.38,3.43.75,6.86.84,7.6c.24,2.22.5,3.84,2.35,5.29,3.19,2.48,7.54,2.87,10.6,5.5,1.46,1.26,3.59-.85,2.12-2.12Z" style="fill:#1e1e1c"/><path d="M61.39,73.67l-5.17,3a22.16,22.16,0,0,0-4.89,3.14c-2.41,2.42-1.83,5.92-1.35,9a64.36,64.36,0,0,1,.44,11.94c0,1.41-.51,3.54.29,4.8,1,1.54,3.6.91,5.09.86,4.13-.15,8.26-.27,12.39-.44a21.21,21.21,0,0,0,5.49-.77,36.22,36.22,0,0,0,5.45-2.4L100.87,91.9c4-2,8.19-3.85,12.09-6.09,3.13-1.79,5.92-5,4.8-8.82-.54-1.85-3.44-1.06-2.9.8.92,3.14-2.62,5.07-4.92,6.23-3.15,1.6-6.32,3.16-9.48,4.74l-19.3,9.65c-2.94,1.47-5.94,3.33-9.16,4.11a25.93,25.93,0,0,1-5.28.47l-5.46.2-5,.17-2.74.09h-.24c-.71-.1-.7.11,0,.62,0,0,0-1.52,0-1.68.07-3.44.23-6.88,0-10.32-.12-1.76-.41-3.49-.67-5.24-.2-1.37-.42-3.06.3-4.32.83-1.42,2.95-2.22,4.31-3l5.6-3.25a1.5,1.5,0,0,0-1.51-2.59Z" style="fill:#1e1e1c"/><path d="M91,45.44c-7.77-.63-15.54-1.26-23.34-1.43a43.63,43.63,0,0,0-10.08.66c-2.86.62-6.25,1.83-8,4.35a9.39,9.39,0,0,0-1.35,4.11c-.26,1.86-.41,3.74-.49,5.61s-.11,3.54-.06,5.31a19.92,19.92,0,0,0,.42,5.35c.47,1.47,2.05,1.76,3.34,2.18l5.88,2c3.66,1.21,7,2.49,10.91,2a104.2,104.2,0,0,1,12.6-1.13,78,78,0,0,1,12.69.88c1.89.28,2.71-2.61.8-2.9a82,82,0,0,0-20.29-.61c-3.29.32-6.89,1.45-10.17.71s-6.53-2.07-9.74-3.14l-2.59-.85c-.18-.06-.95-.52-.6-.07-.15-.19-.08-.94-.1-1.2q-.18-2.53-.18-5.07a42.63,42.63,0,0,1,.74-9.77c.75-3,4-4.12,6.75-4.74A38.64,38.64,0,0,1,67.4,47c7.88.16,15.74.8,23.59,1.43,1.92.16,1.91-2.84,0-3Z" style="fill:#1e1e1c"/><path d="M49.22,64a24.45,24.45,0,0,0-5.08-2,23.36,23.36,0,0,0-2.6-.5c-.46-.07-.92-.12-1.38-.16l-.66,0h-.33c-.34,0-.3,0,.11.08l.54.54c.12.18,0-.21-.07-.28s-.09-.39-.13-.58c-.08-.35-.15-.7-.22-1.05-.13-.65-.24-1.3-.32-1.95,0-.4-.1-.79-.13-1.19a4.65,4.65,0,0,0-.09-1.06v-.2a.8.8,0,0,1-.24.43c0,.07-.24,0,0,0a6.94,6.94,0,0,0,1-.2l9-1.56a1.5,1.5,0,0,0,1.05-1.84,1.55,1.55,0,0,0-1.85-1l-6.47,1.12c-1.06.19-2.14.35-3.2.56a2.67,2.67,0,0,0-2.23,1.91,9.8,9.8,0,0,0,.19,3.28c.14,1.12.32,2.23.56,3.33s.53,2.44,1.92,2.63c.93.13,1.88.1,2.81.25a21,21,0,0,1,6.31,2.07A1.5,1.5,0,0,0,49.22,64Z" style="fill:#1e1e1c"/><path d="M62.84,46c-.58,2-1.1,4-1.51,6-.23,1.11-.2,2.25.91,2.88a9.94,9.94,0,0,0,2.74.75c1,.2,1.91.34,2.86.5.18,0,.74.15.77.17a7,7,0,0,1,.25,1.16l1.37,6.31c.41,1.89,3.3,1.09,2.89-.79l-1-4.53c-.28-1.28-.35-3-1.22-4s-2.19-1.15-3.45-1.36c-.72-.13-1.43-.26-2.15-.42a5.65,5.65,0,0,1-1.74-.47l.54.54v.7a51.14,51.14,0,0,1,1.62-6.65,1.5,1.5,0,0,0-2.89-.8Z" style="fill:#1e1e1c"/><path d="M49.32,61a134.07,134.07,0,0,0,21.34,5.17c7.4,1,14.88.83,22.32.65,1.93,0,1.94-3.05,0-3-7.33.18-14.71.38-22-.6-7.11-1-14-3-20.86-5.11-1.85-.57-2.64,2.33-.8,2.89Z" style="fill:#1e1e1c"/><path d="M62.93,64.92a38.1,38.1,0,0,0-1.17,7.79,1.5,1.5,0,0,0,1.5,1.5,1.54,1.54,0,0,0,1.5-1.5c0-.61.07-1.22.13-1.83,0-.31.06-.61.1-.91l0-.21q0,.24,0,0l.06-.41a35.87,35.87,0,0,1,.74-3.6,1.5,1.5,0,1,0-2.89-.8Z" style="fill:#1e1e1c"/><path d="M90.87,44.2c2,5.26.58,10.91.31,16.35-.3,6,.61,12.06,1.49,18,.28,1.91,3.17,1.1,2.89-.79-.88-6-1.74-12.08-1.32-18.16.37-5.42,1.53-11-.48-16.22-.68-1.79-3.58-1-2.89.8Z" style="fill:#1e1e1c"/><path d="M93.53,43.22c20.58,2.18,41.3,2.43,62,2.15,10.4-.14,20.79-.41,31.19-.65,5.14-.11,10.29-.19,15.43-.36a68.55,68.55,0,0,1,7.16-.27,28.93,28.93,0,0,1,7.1,1.91c2.75,1,5.51,1.86,8.25,2.84,2.44.88,4.17,2.12,5,4.67a32.5,32.5,0,0,1,.34,16.3l1.44-1.1a27,27,0,0,0-11.51,3.49c-1.8,1-3.54,2-5.28,3a14,14,0,0,1-2.48,1.3,8.14,8.14,0,0,1-3.4.26,267.61,267.61,0,0,0-27.46-.7c-18.35.44-36.71,2.1-55.08,1.17-10.41-.54-20.77-2.47-31.22-2.18-1.93.06-1.94,3.06,0,3,9.24-.26,18.38,1.3,27.58,2a265.71,265.71,0,0,0,27.51.29c18.34-.6,36.72-2.15,55.06-.82,2.42.17,5,.72,7.4,0,2.17-.6,4.1-2,6-3.16,4-2.31,8.17-4.51,12.85-4.68a1.56,1.56,0,0,0,1.45-1.1,38.52,38.52,0,0,0,.3-15.2,13.51,13.51,0,0,0-2.33-6.07,11.62,11.62,0,0,0-5.56-3.46c-2.53-.89-5.07-1.74-7.6-2.61a36.58,36.58,0,0,0-7.46-2.08,47.06,47.06,0,0,0-7.6.15c-2.57.1-5.13.14-7.7.2-21.61.49-43.24,1.22-64.86.82-12.19-.23-24.37-.85-36.5-2.14-1.91-.2-1.9,2.8,0,3Z" style="fill:#1e1e1c"/><path d="M93.64,62.92q30.58-1.05,61.2.41,8.7.42,17.39,1c1.93.14,1.92-2.86,0-3q-30.53-2.17-61.18-1.85-8.7.1-17.41.4c-1.93.07-1.94,3.07,0,3Z" style="fill:#1e1e1c"/><path d="M181.38,44.63l-.22,4.93c0,.67.12,1.55-.32,2.08A11.4,11.4,0,0,1,179.17,53c-2.5,2-5,4.05-7.31,6.24A4.88,4.88,0,0,0,170,62.68a28.57,28.57,0,0,0,.37,4.61,75.05,75.05,0,0,0,1.79,9.62c.47,1.87,3.37,1.08,2.89-.8a68.42,68.42,0,0,1-1.73-9.29c-.09-.78-.17-1.56-.23-2.34a5,5,0,0,1,0-2.25c.26-.58,1.06-1.11,1.53-1.52s1.16-1,1.75-1.55q1.77-1.54,3.58-3a29.65,29.65,0,0,0,3.19-2.6c1-1.05.88-2.39.94-3.72l.24-5.18c.08-1.93-2.92-1.93-3,0Z" style="fill:#1e1e1c"/><path d="M198.25,74.87a38.84,38.84,0,0,0-1.26-9.1c-.25-.93-1.26-2.61-.32-3.32s2-1.05,2.93-1.83c1.84-1.59,2.5-4.1,2.88-6.41.54-3.18,1-6.37,1.51-9.56.29-1.88-2.6-2.7-2.9-.79-.51,3.24-1,6.5-1.53,9.73a12.4,12.4,0,0,1-1,3.44,5.12,5.12,0,0,1-2.48,2.27,5.92,5.92,0,0,0-2.42,2c-.75,1.28-.39,2.6,0,3.92a35.43,35.43,0,0,1,1.54,9.64c0,1.92,3,1.93,3,0Z" style="fill:#1e1e1c"/><path d="M208,42.62c-3.07,4.65-2.94,10.49-2.38,15.81a75.66,75.66,0,0,0,4.15,18.06c.65,1.8,3.55,1,2.89-.8a72.2,72.2,0,0,1-4-16.79c-.55-4.93-.94-10.43,1.92-14.76C211.64,42.52,209,41,208,42.62Z" style="fill:#1e1e1c"/><path d="M173.24,68.11q10.23-.66,20.48-.48c1.93,0,1.93-3,0-3q-10.25-.18-20.48.48c-1.92.12-1.93,3.12,0,3Z" style="fill:#1e1e1c"/><path d="M133.33,59.83l-.05-2.31a11.46,11.46,0,0,0-.05-2.3s-1.4.27-.28.38l1.22.14,2.45.26q4.9.48,9.83.75c3.19.17,6.4.27,9.6.3h2.46a6.32,6.32,0,0,0,1.23,0c.57.09.65,0,.23-.2-.26-.28-.34-.27-.23,0a8,8,0,0,0,.42,2.25l.46,2.46c.36,1.9,3.25,1.1,2.9-.79l-.51-2.7a13.16,13.16,0,0,0-.57-2.72c-.73-1.75-2.89-1.33-4.42-1.33q-6,0-12.07-.34t-11.78-1c-1.4-.15-3.24-.51-3.84,1.2a9,9,0,0,0-.07,2.89l.07,3c0,1.93,3,1.94,3,0Z" style="fill:#1e1e1c"/><path d="M123.35,44.81V50.2l1.1-1.45-6.64,1.71c-1.66.43-3.68.68-4.84,2.08s-1.07,3.48-1.19,5.12a47.6,47.6,0,0,0,0,6.65c.07,1.1.19,2.21.33,3.31a4.26,4.26,0,0,0,.75,2.36,3.61,3.61,0,0,0,2.27,1,28.79,28.79,0,0,1,3.05.73c2.75.83,8.1,2.59,7.77,6.28-.17,1.93,2.84,1.91,3,0,.28-3.18-2.22-5.63-4.8-7.06a28.88,28.88,0,0,0-7.78-2.76c-1.34-.27-1.18.07-1.35-1.28a39.22,39.22,0,0,1,.06-11.75c.3-1.54,2.78-1.6,4-1.92l6.17-1.59a1.53,1.53,0,0,0,1.1-1.45V44.81a1.5,1.5,0,0,0-3,0Z" style="fill:#1e1e1c"/><path d="M135.18,42.28c.61-4.6-.33-9.26-.48-13.87-.08-2.29-.07-4.59,0-6.88,0-1.15.07-2.3.11-3.45a22.31,22.31,0,0,1,.18-3.84l-.69.9c-.39,0-.3,0,.26,0h1l2,0,3.44,0,7.38.07,7.37.08,3.68,0c.86,0,2.37-.31,3,.35,1.32,1.4,1.85,4,2.14,5.77a47.75,47.75,0,0,1,.31,7.07,54,54,0,0,0,1.86,14.26,1.5,1.5,0,0,0,2.89-.8,47.55,47.55,0,0,1-1.61-9.1c-.23-3.15,0-6.31-.25-9.45a20.72,20.72,0,0,0-1.82-7.67,7.52,7.52,0,0,0-2-2.75c-1.14-.86-2.68-.66-4-.68l-18.93-.19-4.42-.05c-1.2,0-3.11-.41-4,.59s-.57,2.7-.61,3.83c-.07,1.64-.13,3.28-.17,4.92-.07,3.44-.06,6.88.2,10.32s.76,6.94.3,10.43c-.11.81.77,1.49,1.5,1.5a1.54,1.54,0,0,0,1.5-1.5Z" style="fill:#1e1e1c"/><path d="M134.88,33.12l8.5.18a10.05,10.05,0,0,0,3.83-.22,3.65,3.65,0,0,0,2.14-2.7c1.2-5.12-1.62-10.26-1.31-15.4.11-1.93-2.89-1.93-3,0-.28,4.65,1.8,9.07,1.53,13.71a4.29,4.29,0,0,1-.21,1.23c-.13.36-.17.4-.41.42-1.17.09-2.38,0-3.55-.06l-7.52-.16c-1.94,0-1.93,3,0,3Z" style="fill:#1e1e1c"/><path d="M157.44,24.51a1.5,1.5,0,0,0,0-3,1.5,1.5,0,0,0,0,3Z" style="fill:#1e1e1c"/><path d="M156.89,32.88a1.5,1.5,0,0,0,0-3,1.5,1.5,0,0,0,0,3Z" style="fill:#1e1e1c"/><path d="M157,38.6a1.5,1.5,0,0,0,0-3,1.5,1.5,0,0,0,0,3Z" style="fill:#1e1e1c"/><path d="M130.93,80.67a71.64,71.64,0,0,0-.59,8.9,46.11,46.11,0,0,0,1.17,8.51c.27,1.3.54,2.6.69,3.92.12,1.14-.06,2.56.56,3.58s1.86,1.26,3,1.37c1.54.15,3.08.21,4.62.24a168.21,168.21,0,0,0,17.8-1.09l4.48-.41c1.16-.1,2.73,0,3.79-.53s1.25-1.73,1.4-2.83c.2-1.48.36-3,.49-4.45a84.57,84.57,0,0,0-.74-19.79c-.29-1.9-3.19-1.09-2.9.8a80.89,80.89,0,0,1,.86,15.39,77,77,0,0,1-.67,7.73c0,.11-.15.53-.1.63l0,.15c.49-.29.54-.39.14-.3a5.57,5.57,0,0,0-1.74.16L159,103c-5.12.47-10.25,1-15.39,1.14-2.6.06-5.18,0-7.78-.22-.7,0-.46-.08-.5-.8s-.1-1.23-.18-1.84c-.16-1.2-.38-2.39-.62-3.57a44.22,44.22,0,0,1-1.16-8.41,73.81,73.81,0,0,1,.59-8.66c.21-1.92-2.79-1.9-3,0Z" style="fill:#1e1e1c"/><path d="M158.05,85.61a1.5,1.5,0,0,0,0-3,1.5,1.5,0,0,0,0,3Z" style="fill:#1e1e1c"/><path d="M158.21,92.22a1.5,1.5,0,0,0,0-3,1.5,1.5,0,0,0,0,3Z" style="fill:#1e1e1c"/><path d="M158.05,98.82a1.5,1.5,0,0,0,0-3,1.5,1.5,0,0,0,0,3Z" style="fill:#1e1e1c"/><path d="M134.27,88.56l6.38.25c.45,0,1.76-.07,2,.18s.13.71.14,1l.12,1.72.87,12.91c.13,1.92,3.13,1.93,3,0-.34-5-.6-10-1-14.92a4.43,4.43,0,0,0-.93-2.74,4,4,0,0,0-3-1.06c-2.52-.13-5-.2-7.58-.3-1.93-.07-1.93,2.93,0,3Z" style="fill:#1e1e1c"/><path d="M231.54,51.62l49.7-.2c16.49-.06,33,0,49.48-.45,16.26-.46,32.52-2.14,48.8-1.83a178.1,178.1,0,0,1,47.35,7.59,76.06,76.06,0,0,0,12.65,2.91,73.46,73.46,0,0,0,12.93.17c8.61-.5,17.35-1.71,25.92-.12,1.89.35,2.7-2.54.8-2.89-7.63-1.42-15.33-.79-23-.23s-15.46.76-23.1-1.2c-3.8-1-7.53-2.2-11.32-3.22S414,50.2,410.05,49.43a175.45,175.45,0,0,0-23.72-3c-16.49-1-33,.73-49.45,1.37s-32.95.58-49.42.64l-49.71.19-6.21,0a1.5,1.5,0,0,0,0,3Z" style="fill:#1e1e1c"/><path d="M231.73,70.21c27.25-1.12,54.53-.38,81.79.21,27,.58,54.13,1.22,81.09-.7a132,132,0,0,0,22-3.33c7.21-1.77,14.32-3.93,21.64-5.22,1.9-.34,1.1-3.23-.8-2.89-6.45,1.13-12.74,2.95-19.08,4.57a127,127,0,0,1-19.44,3.52c-13.37,1.27-26.88,1.45-40.3,1.55-27.11.19-54.21-.87-81.31-1.2-15.2-.19-30.4-.13-45.59.49-1.92.08-1.93,3.08,0,3Z" style="fill:#1e1e1c"/><path d="M234,64.54a326.63,326.63,0,0,1,46.4-.29c3.55.23,7.56,1.14,10.94-.31,1.45-.62,2.77-1.51,4.17-2.24a53.77,53.77,0,0,1,5.19-2.34c3.43-1.35,6.93-2.67,10.47-3.7A33.34,33.34,0,0,1,322,54.51c8.8.39,17.59,1.11,26.38,1.67,1.93.13,1.92-2.87,0-3L325,51.68a44.94,44.94,0,0,0-11.53.33,67.1,67.1,0,0,0-10.07,3.14,71.17,71.17,0,0,0-10.23,4.4,16.66,16.66,0,0,1-4.18,2c-1.79.41-3.83,0-5.64-.13q-11.58-.86-23.2-.89-13.09,0-26.16,1c-1.91.15-1.93,3.15,0,3Z" style="fill:#1e1e1c"/><path d="M348.54,48.7a70.23,70.23,0,0,0-1.47,8.52c-.13,1.21-.6,3,.27,4,1.07,1.28,2.74.5,4.09.21a25.1,25.1,0,0,1,8-.44c1.33.13,2.65.31,3.78-.6s1.06-2.39.64-3.8L361,47.22c-.56-1.84-3.45-1.06-2.89.8l1.9,6.25.9,3c.08.27.15.57.25.82l.07.25a.53.53,0,0,1,.14-.29c.07.11-.54.09-.57.09-.95,0-1.9-.2-2.86-.24a29.53,29.53,0,0,0-3.12,0q-1.56.12-3.09.39c-.54.1-1.07.21-1.6.33l-.79.21-.26.07c-.33.06-.26.09.22.08l.54.54c0,.26,0,.3,0,.13s0-.16,0-.24,0-.46.05-.69c0-.47.09-.93.14-1.39.09-.84.2-1.68.32-2.51q.42-2.7,1.05-5.35c.45-1.88-2.45-2.68-2.89-.8Z" style="fill:#1e1e1c"/><path d="M307.37,50a77,77,0,0,0,0,17.82,1.55,1.55,0,0,0,1.5,1.5,1.5,1.5,0,0,0,1.5-1.5,77,77,0,0,1,0-17.82,1.5,1.5,0,0,0-1.5-1.5,1.54,1.54,0,0,0-1.5,1.5Z" style="fill:#1e1e1c"/><path d="M311,47.4c-1.58-2.17,2.07-3.55,3.56-4,2.71-.93,5.43-1.83,8.2-2.58A52.67,52.67,0,0,1,340,39.25c11.69.67,23.38,1.61,35.06,2.48,23.37,1.76,46.82,3.58,70.06,6.71,11.65,1.56,23.43,3.94,33.77,9.76a1.5,1.5,0,0,0,1.51-2.59c-9.72-5.48-20.66-8-31.62-9.66-11.83-1.75-23.76-2.89-35.66-4-12.43-1.19-24.87-2.2-37.32-3.14s-24.83-2-37.26-2.62a56.5,56.5,0,0,0-19.79,2.64c-1.67.52-3.33,1.08-5,1.64a13.94,13.94,0,0,0-3.64,1.66c-2.1,1.5-3.38,4.5-1.72,6.81,1.13,1.55,3.73,0,2.6-1.52Z" style="fill:#1e1e1c"/><path d="M307.83,68.19a5.55,5.55,0,0,0,1.55,6.59c2,1.77,4.89,2.48,7.37,3.36a78.86,78.86,0,0,0,17.88,4.47c12.47,1.35,24.93-1,37.28-2.53,12.62-1.52,25.32-1,38-2.15A331.23,331.23,0,0,0,444,73.42c11.89-2.3,23.7-6.07,33.62-13.21,1.55-1.11.06-3.72-1.51-2.59C458.9,70,436.75,72,416.37,74.27c-6,.68-11.94,1.11-17.95,1.3s-12.08.25-18.1.68c-11.87.85-23.57,3.37-35.48,3.71a65.18,65.18,0,0,1-19.61-2.22c-3.21-.9-6.34-2-9.48-3.13a16.13,16.13,0,0,1-3.9-1.7c-1-.66-2-2-1.43-3.2.81-1.74-1.78-3.27-2.59-1.52Z" style="fill:#1e1e1c"/><path d="M326.69,77.38a45.88,45.88,0,0,1,1.11-38c.86-1.72-1.72-3.24-2.59-1.51A49.18,49.18,0,0,0,324.1,78.9c.76,1.77,3.35.24,2.59-1.52Z" style="fill:#1e1e1c"/><path d="M389.17,67.48c2.34-3.37,3.75-7.24,3.18-11.38a19,19,0,0,0-1.78-5.68c-.81-1.68-2.07-3.11-4-3.22s-1.92,2.89,0,3c.95,0,1.58,2,1.87,2.69a14.4,14.4,0,0,1,1.08,4.56c.16,3.16-1.15,6-2.91,8.52-1.1,1.59,1.5,3.09,2.59,1.51Z" style="fill:#1e1e1c"/><path d="M392.06,59.93l15.67-.35c2.35,0,4.86-.34,7.14.32a18.78,18.78,0,0,1,5.91,3.51c1.53,1.17,3-1.44,1.51-2.59a22.72,22.72,0,0,0-6-3.61c-2.42-.87-5-.71-7.55-.65l-16.67.37c-1.92,0-1.93,3,0,3Z" style="fill:#1e1e1c"/><path d="M441.18,45.1a19.31,19.31,0,0,0-3.77,13.15c.44,5.07,3,9.4,6,13.4,1.14,1.53,3.74,0,2.59-1.51-2.62-3.53-5.16-7.4-5.57-11.89a16.79,16.79,0,0,1,3.36-11.64c1.16-1.54-1.45-3-2.59-1.51Z" style="fill:#1e1e1c"/><path d="M234.1,48.9,235,28.11c0-.83.07-1.65.1-2.48a2.7,2.7,0,0,1,0-.7c-.33.39.75.17.88.17l5.07,0h2.42a7.49,7.49,0,0,1,2.22.07,5.18,5.18,0,0,1,1.61,1.19l2.27,1.93L257.5,35a27.59,27.59,0,0,0,3.42,2.79,9,9,0,0,0,4.67.83l20.45.2,6,.06c1.67,0,3.68-.25,5.3.18s3.29,2,4.69,3l4.64,3.32c1.57,1.13,3.07-1.48,1.51-2.59l-4.25-3a33.28,33.28,0,0,0-4.6-3.17,10,10,0,0,0-4.3-.7l-6-.06-22.2-.22c-1.55,0-3.39.29-4.72-.65-1.55-1.09-2.95-2.49-4.39-3.72l-8.31-7.09c-1.21-1-2.27-2-3.93-2.13s-3.45,0-5.16,0-3.55-.06-5.32,0a2.68,2.68,0,0,0-2.84,2.34,48.26,48.26,0,0,0-.28,5.65l-.26,6.19L231.1,48.9c-.08,1.93,2.92,1.93,3,0Z" style="fill:#1e1e1c"/><path d="M230,70.23a44.61,44.61,0,0,0,2,22.24c.49,1.35,1,3.41,2.29,4.16a3.46,3.46,0,0,0,2.15.29l3.44-.4,6.14-.7a35.75,35.75,0,0,0,5.76-.75,5.73,5.73,0,0,0,3.4-3.23c.91-1.68,1.8-3.37,2.71-5,.81-1.5,1.69-3.15,3.25-4a9.33,9.33,0,0,1,5-.71c8.26.41,16.48,1,24.75,1.1a56.67,56.67,0,0,0,7,0,8,8,0,0,0,4.7-2.71,25.33,25.33,0,0,0,6.06-9.78c.62-1.83-2.27-2.62-2.9-.8a21.71,21.71,0,0,1-4.86,8c-1.16,1.21-2.17,2.24-3.91,2.32s-3.75,0-5.62,0c-7.61-.07-15.23-.38-22.82-.93-3.08-.23-6.5-.6-9.24,1.15s-4,5-5.48,7.66l-1.1,2c-.36.67-.69,1.56-1.41,1.94a5.66,5.66,0,0,1-1.83.35l-3.44.4-5.4.62-2.46.28-1.47.17-.83.09c0,.17-.05.11-.13-.19-.51-.47-.75-1.86-1-2.54-.34-1-.65-2-.92-3a40.73,40.73,0,0,1-1.12-5.7A41.77,41.77,0,0,1,232.84,71c.31-1.89-2.59-2.7-2.89-.8Z" style="fill:#1e1e1c"/><path d="M239.24,80.77a1.5,1.5,0,0,0,0-3,1.5,1.5,0,0,0,0,3Z" style="fill:#1e1e1c"/><path d="M239.46,89.14a1.5,1.5,0,0,0,0-3,1.5,1.5,0,0,0,0,3Z" style="fill:#1e1e1c"/><path d="M238.8,41.36a1.5,1.5,0,0,0,0-3,1.5,1.5,0,0,0,0,3Z" style="fill:#1e1e1c"/><path d="M239.46,35.19a1.5,1.5,0,0,0,0-3,1.5,1.5,0,0,0,0,3Z" style="fill:#1e1e1c"/><path d="M242.38,21.59,242.72,5a5.31,5.31,0,0,0,0-1c-.11-.7.12-.48-.3-.24a7,7,0,0,1,2.07-.29c1.36-.17,2.72-.31,4.08-.43s2.07-.18,2.88.9c.69.92,1.34,1.87,2.07,2.76,3.21,3.87,7.25,6.57,11.58,9A66.89,66.89,0,0,1,277,24.16a61.82,61.82,0,0,1,10.37,12.11c1.05,1.61,3.65.11,2.59-1.51A66.35,66.35,0,0,0,267,13.39c-4.84-2.76-9.27-5.73-12.54-10.34A8.34,8.34,0,0,0,252.32.64a5.66,5.66,0,0,0-3.73-.58c-1.52.13-3,.3-4.55.49-1.16.15-2.75.1-3.61,1-1,1.08-.7,3.05-.73,4.4l-.1,4.88-.22,10.74c0,1.93,3,1.93,3,0Z" style="fill:#1e1e1c"/><path d="M239.15,96.31c-2.5,4.84-1.92,10.38-.08,15.34.45,1.21,1,2.4,1.5,3.57a18.48,18.48,0,0,0,1.82,3.64,2.94,2.94,0,0,0,2.82,1.11c1.5-.12,3-.37,4.49-.55,2.66-.33,5.66-.35,8.2-1.23s4.15-3.12,5.86-5l11.93-13.45,13.58-15.32c1.28-1.44-.83-3.57-2.12-2.13L266,106.16l-5.3,6a20.72,20.72,0,0,1-2.28,2.4,6.39,6.39,0,0,1-3.28,1.21c-2.49.36-5,.62-7.52.93-.72.09-2.44.6-2.94.11a5.2,5.2,0,0,1-.68-1.4c-.33-.7-.66-1.4-1-2.11-2.14-4.77-3.78-10.51-1.23-15.46.88-1.71-1.71-3.23-2.59-1.51Z" style="fill:#1e1e1c"/><path d="M247.61,111.37a1.5,1.5,0,0,0,0-3,1.5,1.5,0,0,0,0,3Z" style="fill:#1e1e1c"/><path d="M246.73,12.07a1.5,1.5,0,0,0,0-3,1.5,1.5,0,0,0,0,3Z" style="fill:#1e1e1c"/></g></g></svg>