<svg xmlns="http://www.w3.org/2000/svg" viewBox="0 0 151 40.71"><g id="Слой_2" data-name="Слой 2"><g id="Слой_10" data-name="Слой 10"><polygon points="0 23.89 0 18.33 7.15 14.04 9.6 13.21 9.6 5.14 9.6 0 13.3 0 16.18 0 18.74 1.57 22.29 6.19 26.09 7.39 26.5 2.06 32.12 2.48 38.39 6.96 44.51 7.39 48.47 8.77 51.27 11.56 53.1 10.75 60.27 7.92 66.88 6.96 86.94 8.77 131.94 13.21 146.97 15.19 151 17.65 151 19.64 148.95 21.3 138.96 23.89 126.08 25.34 101.97 28.73 64.73 32.15 59.2 32.15 55.49 30.38 51.32 27.74 49.79 29.48 47.64 32.15 38.23 32.15 37.49 34.02 32.37 37.39 26.26 37.73 26.29 34.02 24.44 33.69 19.57 37.73 14.66 40.71 9.6 40.71 8.59 26.42 4.13 25.1 0 23.89" style="fill:none;stroke:#1d1d1b;stroke-miterlimit:10"/></g></g></svg>