<svg xmlns="http://www.w3.org/2000/svg" viewBox="0 0 485.04 120.82"><g id="Слой_2" data-name="Слой 2"><g id="Слой_1-2" data-name="Слой 1"><path d="M60.11,42.9a45.92,45.92,0,0,1-4.69-2.26A3.92,3.92,0,0,1,53,37.81a54.25,54.25,0,0,1-1.2-11c0-1.92,0-3.84.06-5.75.06-1.06,0-2.79.82-3.63s2.5-.69,3.5-.78q2.85-.24,5.71-.33a35.61,35.61,0,0,1,5.75,0A11.82,11.82,0,0,1,72,18.1a83.66,83.66,0,0,0,9.63,4.77C88.14,25.61,95,27.6,101.68,30q2.71,1,5.39,2.05a14.1,14.1,0,0,1,4.79,2.59c2.19,2.16,2.53,5.62,2.85,8.53a2.57,2.57,0,0,0,2.5,2.5,2.52,2.52,0,0,0,2.5-2.5c-.38-3.52-.81-7.33-2.87-10.31-2.35-3.4-6.18-4.77-9.88-6.21-7.52-2.94-15.33-5.06-22.83-8.08a98.33,98.33,0,0,1-10.57-5.29,15,15,0,0,0-5.89-1.93,51.82,51.82,0,0,0-6.71,0c-2.12.08-4.25.22-6.37.44s-3.93.6-5.38,2.07c-2.76,2.8-2.43,7.65-2.41,11.26q0,3.6.4,7.18a43,43,0,0,0,1.11,7.22c1.31,4.73,6.35,6.49,10.47,8.19A2.5,2.5,0,0,0,61.85,46a2.56,2.56,0,0,0-1.74-3.07Z" style="fill:#1d1d1b"/><path d="M115,76.2l-1,2.74c-.11.28-1,2.1-.87,2.29-.67-1,1.43,0,.17-.25-.06,0-.8.08-.87.09-1.09.12-2.17.28-3.24.49a47.07,47.07,0,0,0-9.67,3.13A122.63,122.63,0,0,0,81.32,95c-1.48,1-2.92,2-4.3,3.08a33,33,0,0,1-4.43,3.29c-2.78,1.54-6.13,1.62-9.13,2.52-.89.26-1.73.63-2.59,1a2.83,2.83,0,0,1-1.44.34,8.71,8.71,0,0,1-2.35-1.06l-3-1.48-2.18-1.07a10.27,10.27,0,0,0-1.16-.57c.64-.61.1,1.82.53.13a51.63,51.63,0,0,0,1.05-5.63A62.39,62.39,0,0,0,52.8,82.9c0-.44-.07-.89-.09-1.34a6.6,6.6,0,0,1,0-.77c.05-.15,0-.12-.07.08a7,7,0,0,1,1.84-.69l6.39-2.34A2.5,2.5,0,1,0,59.52,73l-6.16,2.25c-1.82.67-3.94,1.2-5,3s-.57,4.06-.49,6.06a61.23,61.23,0,0,1-.08,6.21A56,56,0,0,1,47,96.75c-.37,2-1.43,4.44-.75,6.43s3.05,2.71,4.78,3.55c2,1,3.9,2,5.9,2.84,2.35,1,4.18.46,6.42-.42a30.24,30.24,0,0,1,5.11-1.33,27.1,27.1,0,0,0,5.66-1.68,22.21,22.21,0,0,0,4.85-3.3,89.88,89.88,0,0,1,10-6.81c3.31-2,6.67-4,10.17-5.74a45.07,45.07,0,0,1,11.9-4c2.08-.36,4.49-.12,5.91-2a11.43,11.43,0,0,0,1.4-3.1l1.38-3.65a2.53,2.53,0,0,0-1.74-3.08A2.56,2.56,0,0,0,115,76.2Z" style="fill:#1d1d1b"/><path d="M59.74,44A69.63,69.63,0,0,0,52,46.15,8.68,8.68,0,0,0,48.6,47.8c-1.11,1.07-1.28,2.56-1.52,4A150.07,150.07,0,0,0,45.2,69.11a2.51,2.51,0,0,0,2.5,2.5,19.46,19.46,0,0,1,6.5.37,23.14,23.14,0,0,1,6,2.59,3.7,3.7,0,0,0,3.88.24,4.4,4.4,0,0,0,1.71-3.29,12.32,12.32,0,0,0,0-3.88A10.66,10.66,0,0,0,65.47,66c-.09-.27-.19-.54-.3-.8S65,64.8,65.08,65l-.34,1.26.11-.25-.9.9c-.38.09-.4.14-.07.13l.7.07,1.39.14,2.78.27a2.53,2.53,0,0,0,2.5-2.5,57,57,0,0,0-.19-6.27c-.18-2-.12-4.66-2.14-5.77a4.72,4.72,0,0,0-2.79-.47,6.72,6.72,0,0,0-1.54.16c-.27,0-.22,0,.14.08.38.94.54,1.09.49.44a9.92,9.92,0,0,0,.13-2.79l.14-3.26c.14-3.22-4.86-3.21-5,0l-.18,3.95a9.8,9.8,0,0,0,.23,4.11,4.11,4.11,0,0,0,2.89,2.34,6,6,0,0,0,1.79.1,7,7,0,0,1,1.43-.16l-.89-.9A3.84,3.84,0,0,1,66,58c.08.8.14,1.6.19,2.4.09,1.53.11,3.06.07,4.59l2.5-2.5c-1.54-.15-3.09-.32-4.64-.45s-3.23.31-3.82,2,.28,2.66.57,4.1c.19.92.3,2.59-.2,3.26l.89-.9-.31.13,1.26-.34c.52,0-.15-.27-.32-.37l-.73-.43c-.56-.3-1.13-.59-1.71-.85a25.81,25.81,0,0,0-4-1.42,23.6,23.6,0,0,0-8-.6l2.5,2.5a138.54,138.54,0,0,1,1.46-14.53c.18-1.1.47-2.22.58-3.33-.45.33-.47.36-.05.11a1.38,1.38,0,0,0,.47-.16c.57-.22,1.16-.4,1.74-.59a66.83,66.83,0,0,1,6.67-1.77c3.15-.68,1.82-5.5-1.33-4.83Z" style="fill:#1d1d1b"/><path d="M64.13,47.73q14.18,1,28.39,1.09c3.22,0,3.22-5,0-5q-14.2-.09-28.39-1.09a2.5,2.5,0,1,0,0,5Z" style="fill:#1d1d1b"/><path d="M65,75.47q13.86-.81,27.75-.25c3.22.13,3.21-4.87,0-5q-13.87-.56-27.75.25c-3.2.18-3.22,5.19,0,5Z" style="fill:#1d1d1b"/><path d="M232.18,51.31c.29-2.45-2.09-3.57-4-4.36l-6.73-2.84a49.49,49.49,0,0,0-12.31-3.87c-4.52-.63-9.06-.16-13.59.12-4.72.28-9.44.54-14.16.75q-28.2,1.28-56.44.75-15.91-.28-31.82-1.15a2.52,2.52,0,0,0-2.41,1.83,30.72,30.72,0,0,0-1,9.49,29.75,29.75,0,0,0,2.47,8.81,21.25,21.25,0,0,1,1.7,8.83,19.94,19.94,0,0,1-.59,3.83A5.4,5.4,0,0,0,93.74,78a4.6,4.6,0,0,0,3.9,1.78c1.72.06,3.44,0,5.16,0l10,0q10,0,20,0,20.22-.06,40.43-.36,10-.15,20-.37l10-.22c3.14-.08,6.45,0,9.42-1.17,3.14-1.27,5.7-3.57,8.9-4.74a25.68,25.68,0,0,1,4.67-1.23c1.51-.25,3.22-.06,4.59-.86,1.78-1,2-2.92,1.69-4.76-.21-1.47-.44-2.93-.56-4.41-.24-3-.21-6.16,1.19-8.91s-2.85-5.39-4.32-2.52c-2.61,5.13-2.11,10.82-1.26,16.33a5.58,5.58,0,0,1,.11.87c.08,0,.75-1.07.83-1-.15-.17-1.66.15-1.85.17a29.1,29.1,0,0,0-4.54.87,29.64,29.64,0,0,0-7.77,3.53,21.57,21.57,0,0,1-3.42,2,12.24,12.24,0,0,1-4.07.72c-3.11.15-6.23.17-9.35.24q-9.6.22-19.21.38-37.93.63-75.87.38l-2.74,0c-.25,0-1.93-.22-2.12,0,0,0,.59.74.58.75s.16-.72.15-.7c.2-.81.37-1.62.49-2.45A24,24,0,0,0,98,62.25c-.87-3-2.47-5.77-3.08-8.86a22.87,22.87,0,0,1,.64-9.52l-2.41,1.84q27.07,1.45,54.2,1.28c18-.12,35.87-1,53.81-2a37.64,37.64,0,0,1,7.12.11,33.25,33.25,0,0,1,6.57,1.71c2.19.78,4.33,1.69,6.47,2.6l3.44,1.45,1.61.68c.28.12.57.23.84.37a1.3,1.3,0,0,1,.31.16c.42.28.3,0-.37-.78a2.51,2.51,0,0,0,2.5,2.5,2.56,2.56,0,0,0,2.5-2.5Z" style="fill:#1d1d1b"/><path d="M202.2,44.49q-.3,3.93-.94,7.81a53.44,53.44,0,0,0-1,8.06,18.37,18.37,0,0,0,1.55,7.6c.84,2,2,3.84,1.84,6.05a2.52,2.52,0,0,0,2.5,2.5,2.55,2.55,0,0,0,2.5-2.5c.2-2.47-.76-4.72-1.77-6.91a15.18,15.18,0,0,1-1.62-6.74,50,50,0,0,1,.91-7.4q.69-4.22,1-8.47a2.51,2.51,0,0,0-2.5-2.5,2.56,2.56,0,0,0-2.5,2.5Z" style="fill:#1d1d1b"/><path d="M179.59,46a43.66,43.66,0,0,0,.75,5.69l1.15-2.83A41.4,41.4,0,0,0,175.25,53c-1.79,1.4-4,3.07-5.14,5.11-1.21,2.23-.63,5.44-.56,7.89.09,2.9.24,5.81.44,8.71a2.56,2.56,0,0,0,2.5,2.5,2.53,2.53,0,0,0,2.5-2.5q-.26-3.73-.39-7.47c0-1.33-.09-2.66-.11-4l0-1.5v-.89q.07-.66,0-.24a7.14,7.14,0,0,1,1.76-1.88c.78-.73,1.58-1.43,2.42-2.08a36.55,36.55,0,0,1,5.4-3.4,2.56,2.56,0,0,0,1.15-2.82,32.12,32.12,0,0,1-.57-4.36,2.57,2.57,0,0,0-2.5-2.5,2.51,2.51,0,0,0-2.5,2.5Z" style="fill:#1d1d1b"/><path d="M95.82,64.9l58.6-.2,16.7-.06c3.22,0,3.23-5,0-5l-58.59.2-16.71.06c-3.22,0-3.22,5,0,5Z" style="fill:#1d1d1b"/><path d="M233,71.49c28.35-.82,56.71-1.63,85.08-1.24,26.66.37,53.41,2.62,80,.61,14.7-1.1,29.33-3.56,43.28-8.38a2.52,2.52,0,0,0,0-4.82c-12.89-4.3-25.75-8.25-39.34-9.52-6.86-.64-13.76-.78-20.64-.94s-13.93-.3-20.9-.4q-41.81-.57-83.61.5-23.38.6-46.75,1.71c-3.2.15-3.22,5.15,0,5q41.52-2,83.08-2.33,20.89-.18,41.8.06c13.7.15,27.46.18,41.14,1A121.52,121.52,0,0,1,418.59,56c7.28,1.79,14.4,4.16,21.51,6.53V57.66C415.34,66.22,389,67.08,363,66.51c-13.31-.29-26.61-.92-39.93-1.18-14.09-.27-28.19-.22-42.29,0-15.92.24-31.84.7-47.76,1.16-3.21.09-3.23,5.09,0,5Z" style="fill:#1d1d1b"/><path d="M231.23,64.52l46.26-.94a39.86,39.86,0,0,0,10.88-1.28c3.22-1,6.19-2.61,9.36-3.7,3.47-1.19,7-1.31,10.66-1.38,3.87-.08,7.75-.11,11.62-.1q12.87,0,25.71.74c3.21.17,3.21-4.83,0-5q-11.61-.63-23.23-.73c-3.8,0-7.59,0-11.38,0a70.09,70.09,0,0,0-11.22.69c-3.37.6-6.44,2.1-9.57,3.4a28.36,28.36,0,0,1-10,2.24c-7.74.34-15.5.34-23.24.5l-25.87.52c-3.21.07-3.22,5.07,0,5Z" style="fill:#1d1d1b"/><path d="M345.89,51.32c0,.17.1.68,0,.83s.1-.46,0-.16c0,.13-.06.27-.09.41-.13.51-.32,1-.49,1.51a9.67,9.67,0,0,0-.63,3.1,5.7,5.7,0,0,0,.87,3.25,4.9,4.9,0,0,0,3.52,2.11,22.84,22.84,0,0,0,3.51.06l3.53,0a7.29,7.29,0,0,0,3.41-.71,4.46,4.46,0,0,0,2.2-3.81,14.29,14.29,0,0,0-.46-3.85c-.06-.31-.13-.61-.19-.92,0-.11,0-.21-.05-.31,0-.27-.1-.39,0-.05a5.47,5.47,0,0,1,0-1.85,2.44,2.44,0,0,0-.73-1.76,2.54,2.54,0,0,0-1.77-.74,2.49,2.49,0,0,0-1.76.74,3,3,0,0,0-.74,1.76,16.9,16.9,0,0,0,.68,5.69c.06.29,0-.12,0-.15s0,.21,0,.31,0,.42,0,.62,0,.7,0,.36,0,0,0,0c.09-.17.2-.31,0-.08,0,0,.39-.51.46-.45s-.17.14-.2.12l-.07,0,.3-.13a1.09,1.09,0,0,0-.24.07.7.7,0,0,0-.25.05s.52-.05.25,0l-.59,0c-2,0-4,.06-5.92.08h-.59s-.29,0-.29,0,.48.12.18,0l-.28-.07s.41.25.16.06.17.17.17.16l-.21-.2s.36.39.17.2-.18-.39-.05,0,0-.11-.05-.21a1.57,1.57,0,0,0,0-.23s0,.54,0,.27,0-.37,0-.56a2,2,0,0,0,0-.25c0-.32-.1.5,0,.18s.08-.36.13-.54c.13-.48.3-.94.46-1.41a8.79,8.79,0,0,0,.61-3.51,2.55,2.55,0,0,0-2.5-2.5,2.53,2.53,0,0,0-2.5,2.5Z" style="fill:#1d1d1b"/><path d="M385,50.89l.39,4.87a14.05,14.05,0,0,1,0,4c-.34,1.36-1,2.61-1.27,4a6.84,6.84,0,0,0,.7,4.88,2.5,2.5,0,1,0,4.32-2.52c-.14-.27-.17-.29-.08-.08a2.72,2.72,0,0,1-.13-.49c.07.45,0-.32,0-.35,0-.31,0-.35,0-.11,0-.13.05-.26.08-.39.08-.31.17-.63.28-.94a19.67,19.67,0,0,0,1.16-4.2,21.73,21.73,0,0,0-.11-4.11L390,50.89a2.56,2.56,0,0,0-2.5-2.5,2.53,2.53,0,0,0-2.5,2.5Z" style="fill:#1d1d1b"/><path d="M391.75,61.19c5.17-.36,10.35-.71,15.52-1a8.56,8.56,0,0,1,3,.12,6.8,6.8,0,0,1,2.21,1.6,16.61,16.61,0,0,0,6.11,3.41c3.09.93,4.41-3.89,1.33-4.82-2.15-.65-3.57-1.95-5.27-3.32a9.74,9.74,0,0,0-7-2c-5.32.25-10.63.64-15.94,1a2.57,2.57,0,0,0-2.5,2.5,2.52,2.52,0,0,0,2.5,2.5Z" style="fill:#1d1d1b"/><path d="M128.15,44.93c-2.11.45-4.2,1-6.27,1.58a27.37,27.37,0,0,0-5.87,2c-1.87,1.07-2.41,3.06-2.79,5a38.2,38.2,0,0,0-.69,6.21,37.25,37.25,0,0,0,.41,6.24c.29,2,.88,3.83,2.78,4.88,1.62.89,3.42,1.42,5,2.35a28.14,28.14,0,0,1,4.76,3.42c2.4,2.12,6-1.4,3.54-3.54a33.56,33.56,0,0,0-8.29-5.49,12.43,12.43,0,0,1-2.39-1c-.4-.32-.36-.35-.48-1a27.75,27.75,0,0,1-.38-4.9,29.65,29.65,0,0,1,.36-4.89c.14-.83.29-1.66.51-2.48.17-.66,0-.36.48-.62a28.58,28.58,0,0,1,5-1.59c1.84-.52,3.71-1,5.58-1.38,3.15-.68,1.82-5.5-1.33-4.82Z" style="fill:#1d1d1b"/><path d="M134.71,60.73a32.16,32.16,0,0,0-.54-6.78l-2.41,3.17q7.23.18,14.46.38c4.73.14,9.57,0,14.29.47l-1.26-.34.29.14-.89-.9a6.42,6.42,0,0,1,.23,1.71l.3,2.15a2.52,2.52,0,0,0,3.08,1.75A2.55,2.55,0,0,0,164,59.41a29,29,0,0,0-.61-4.18c-.54-1.86-2.26-2.26-4-2.32l-9.23-.29q-9.21-.27-18.44-.5a2.53,2.53,0,0,0-2.41,3.16,25.54,25.54,0,0,1,.36,5.45c-.11,3.22,4.89,3.22,5,0Z" style="fill:#1d1d1b"/><path d="M174,69q9.24-.24,18.49-.09a2.5,2.5,0,0,0,0-5q-9.24-.15-18.49.09a2.5,2.5,0,0,0,0,5Z" style="fill:#1d1d1b"/><path d="M196.33,73.76a27.22,27.22,0,0,0-.12-8.45,7.25,7.25,0,0,1-.12-2.82c.24-1,1.28-1.48,2-2.11,2-1.77,2.39-4.19,2.42-6.72a26,26,0,0,1,1.24-7.92c1-3.07-3.83-4.38-4.82-1.33a29.12,29.12,0,0,0-1.41,8.23,11.41,11.41,0,0,1-.19,3.09c-.28,1-1.26,1.46-2,2.1a7.57,7.57,0,0,0-2.23,6.73c.28,2.66.81,5.18.41,7.87a2.58,2.58,0,0,0,1.74,3.08,2.52,2.52,0,0,0,3.08-1.75Z" style="fill:#1d1d1b"/><path d="M129.27,80.89a125,125,0,0,0-1.6,16.84c-.07,2.47-.73,6.09,1.37,7.88,1.88,1.6,5.22,1.89,7.58,2.06,5.24.37,10.61-.56,15.81-1.08,2.76-.28,5.65-.34,8.37-.86a3.53,3.53,0,0,0,2.87-2.47,13.47,13.47,0,0,0,.06-4.06,91.25,91.25,0,0,1,1.37-18.6,2.57,2.57,0,0,0-1.74-3.08,2.53,2.53,0,0,0-3.08,1.75,99,99,0,0,0-1.51,13.64q-.14,3.14,0,6.29c0,.64.05,1.29.08,1.93l0,.49c0,.76.23.5.83-.76-.16-.14-1.44.15-1.69.17l-1.69.17c-4.29.43-8.58.9-12.88,1.28a44.61,44.61,0,0,1-6.33.22,18.62,18.62,0,0,1-2.88-.38,5.78,5.78,0,0,1-2.07-.68l.64,1.1a5.67,5.67,0,0,1-.13-2.1q0-1.33,0-2.67c0-1.78.12-3.56.24-5.33.24-3.49.64-7,1.19-10.42a2.58,2.58,0,0,0-1.74-3.08,2.54,2.54,0,0,0-3.08,1.75Z" style="fill:#1d1d1b"/><path d="M135.91,41.63l.15-15.54.08-7.9c0-.2,0-1.61,0-1.61s-.32.61-.38.52a9.88,9.88,0,0,0,1.62,0h2c5.18.07,10.33.53,15.47,1.11l3.67.44,2,.24c.34,0,1.48.25.61-.2-.35-.18.11-.25-.07,0a2.11,2.11,0,0,0,0,.5c0,.6-.06,1.19-.1,1.79-.08,1.3-.17,2.6-.29,3.89A140.23,140.23,0,0,1,158,42c-.67,3.14,4.15,4.48,4.82,1.33a150.17,150.17,0,0,0,2.75-18c.13-1.38.23-2.76.32-4.14a12.2,12.2,0,0,0-.11-4c-.92-3.26-4.28-3.2-7-3.53-5.95-.73-11.92-1.39-17.91-1.55-2.42-.06-5.63-.54-7.78.82-2.64,1.66-1.93,5.59-2,8.24l-.2,20.48c0,3.22,5,3.22,5,0Z" style="fill:#1d1d1b"/><path d="M233.8,50.48a72.53,72.53,0,0,0,1.32-12.89c0-2.09-.05-4.18-.22-6.27q-.12-1.56-.33-3.12c-.07-.54-.14-1.08-.22-1.62,0-.32-.09-.63-.14-.95,0-.63-.1-.64-.22,0l-.9.9c-.42.27-.5,0-.08.05s.79,0,1.18,0l2.13,0,4.26,0a6.68,6.68,0,0,1,2.92.27A11,11,0,0,1,246,29.27q2.85,3,5.94,5.66c2,1.75,4.13,3.83,6.78,4.53s5.88.5,8.71.62l8.51.36c2.88.12,5.76.23,8.64.18s5.85-.59,8.77-.54c5.05.09,8.67,4.73,11.57,8.3a2.5,2.5,0,0,0,3.54-3.54c-4.26-5.23-9.29-10.19-16.55-9.71-3.95.26-7.81.56-11.77.46s-7.83-.31-11.74-.47l-5.83-.25a7.11,7.11,0,0,1-4.62-1.4,76.8,76.8,0,0,1-8.25-7.57,19.07,19.07,0,0,0-3.49-3.23c-1.71-1.05-3.68-1-5.61-1.05l-5.68-.06c-1.85,0-4.05-.26-5.23,1.52s-.14,4.55.07,6.56.35,4.17.38,6.26A66.14,66.14,0,0,1,229,49.15a2.56,2.56,0,0,0,1.75,3.07,2.51,2.51,0,0,0,3.07-1.74Z" style="fill:#1d1d1b"/><path d="M228.69,70.45c-.74,8.2-.1,16.49.77,24.66.22,2.14,1.11,3.74,3.5,3.73a54.75,54.75,0,0,0,6.25-.67,53,53,0,0,0,5.63-.83A17,17,0,0,0,250,94.78a44.17,44.17,0,0,0,8.32-6.44c1.16-1.23,2-2.64,3.06-4a2.09,2.09,0,0,1,1.08-.85,12.78,12.78,0,0,1,3.09,0l24.61.37c4,.06,8.71.55,11.91-2.43a23.76,23.76,0,0,0,3.62-5.24l3.46-5.75c1.67-2.76-2.66-5.27-4.32-2.52q-2.28,3.8-4.58,7.59a8.26,8.26,0,0,1-1.85,2.49,5.51,5.51,0,0,1-3.06.88c-2.86.16-5.76,0-8.62-.07l-8.86-.13L269,78.6l-4.43-.07a9.93,9.93,0,0,0-4.62.64c-2.21,1.08-3.19,3.43-4.75,5.18a29.49,29.49,0,0,1-5.65,4.74c-2.28,1.55-4.46,3.21-7.24,3.65-1.5.24-3,.42-4.53.6l-2.64.29-1,.1-.72.06c-.65,0-.64.07,0,.23l.89.9c.27.48,0-.83,0-1-.05-.5-.09-1-.14-1.48-.1-1.07-.19-2.14-.28-3.21-.17-2-.32-4.11-.42-6.16a91.07,91.07,0,0,1,.19-12.58,2.53,2.53,0,0,0-2.5-2.5,2.55,2.55,0,0,0-2.5,2.5Z" style="fill:#1d1d1b"/><path d="M238.4,98.07a87.34,87.34,0,0,0-.86,20.24,2.53,2.53,0,0,0,3.16,2.41,23.53,23.53,0,0,1,5.71-1c2-.08,4.12.37,6-.66a39.47,39.47,0,0,0,4.64-3.44c1.58-1.22,3.15-2.47,4.7-3.73A206.51,206.51,0,0,0,279,96.05q4.6-4.72,8.9-9.75a2.56,2.56,0,0,0,0-3.53,2.53,2.53,0,0,0-3.54,0,204.68,204.68,0,0,1-32.76,30.74c-.82.61-1.48,1.3-2.31,1.28-1.05,0-2.1-.07-3.15,0a29.74,29.74,0,0,0-6.81,1.13l3.17,2.41a82,82,0,0,1,.68-18.91,2.58,2.58,0,0,0-1.75-3.08,2.51,2.51,0,0,0-3.07,1.75Z" style="fill:#1d1d1b"/><path d="M241.87,22.41q-.36-4.72-.52-9.46c0-1.54-.09-3.07-.11-4.61,0-.81,0-1.62,0-2.43V4.21c0-.36,0-.33-.09.11l-.89.9c-.24.15.17,0,.31,0,.48,0,1-.09,1.44-.13a25.52,25.52,0,0,1,2.9-.06,8.14,8.14,0,0,1,4.63,1.45c1.48,1.13,2.62,2.68,4,3.91s3.19,2.55,4.84,3.76a45.92,45.92,0,0,1,7.74,7.2c2.29,2.7,4.36,5.58,6.56,8.36a47.19,47.19,0,0,0,8.55,8.57,2.51,2.51,0,0,0,3.42-.89,2.55,2.55,0,0,0-.9-3.42c-7.79-5.85-11.89-15.29-19.38-21.47-2.09-1.72-4.37-3.21-6.46-4.93s-3.85-4.12-6.21-5.65A13.94,13.94,0,0,0,244.27,0a35.68,35.68,0,0,0-3.72.21c-1.56.16-3.06.32-3.9,1.85-.75,1.35-.43,3.34-.42,4.82,0,1.78,0,3.56.1,5.34.1,3.4.29,6.8.54,10.19a2.56,2.56,0,0,0,2.5,2.5,2.52,2.52,0,0,0,2.5-2.5Z" style="fill:#1d1d1b"/><path d="M47.08,51.29A37.14,37.14,0,0,0,36.57,53a2.58,2.58,0,0,0-1.75,1.75,2.64,2.64,0,0,0,.64,2.43c-.4-.5-.07,0,0,.07.24.38-.08-.33,0,0a5.27,5.27,0,0,0,.23.93l0-.31,0,.36c0,.15,0,.3,0,.44,0,.33,0,.66,0,1l0,2.44a5.65,5.65,0,0,0,.42,3c.76,1.26,2,1.39,3.36,1.45.4,0,.81,0,1.21.09l.55.06c.73.07-.52-.09.21,0a29.36,29.36,0,0,1,4.71,1.13,2.5,2.5,0,0,0,3.07-1.74A2.56,2.56,0,0,0,47.46,63a28.25,28.25,0,0,0-4.17-1c-.83-.14-1.68-.26-2.52-.34l-1.1-.09-.44,0H38.9c-.37,0-.15.05.65.2l.9.9c.15.9.21,1.17.2.8,0-.1,0-.2,0-.3v-.7l0-1.28c0-.8,0-1.6,0-2.41A8,8,0,0,0,39,53.69l-1.1,4.18a32.32,32.32,0,0,1,4.75-1.18c.36-.07.73-.13,1.1-.18-.58.08.16,0,.22,0l.66-.07c.82-.07,1.63-.11,2.45-.13a2.5,2.5,0,0,0,0-5Z" style="fill:#1d1d1b"/><path d="M51.34,45.8,47.88,42a34,34,0,0,0-3.41-3.68C42.94,37,41.1,37,39.19,36.83c-1.74-.11-3.49-.15-5.24-.13a2.5,2.5,0,0,0,0,5c1.6,0,3.2,0,4.79.1l2.1.16c.3,0,.32,0,.06,0,.29.09.32.08.1,0,.26.15.31.17.14.06.13.12.25.25.37.38,2.15,2.26,4.2,4.64,6.29,7a2.53,2.53,0,0,0,3.54,0,2.57,2.57,0,0,0,0-3.54Z" style="fill:#1d1d1b"/><path d="M46.83,25.93a81.29,81.29,0,0,0-12.38-.68,2.5,2.5,0,0,0,0,5,81.29,81.29,0,0,1,12.38.68,2.5,2.5,0,0,0,2.5-2.5,2.57,2.57,0,0,0-2.5-2.5Z" style="fill:#1d1d1b"/><path d="M44.87,76.27c-.88.72-1.75,1.46-2.64,2.17-.22.18-.23.19,0,0-.25.15-.26.16,0,.05l-.22,0c.29,0,.28,0,0,0l-1.7.08L33.13,79a2.5,2.5,0,0,0,0,5L41,83.59a12.16,12.16,0,0,0,2.25-.21,5.42,5.42,0,0,0,2.12-1.12c1-.8,2-1.63,3-2.45a2.53,2.53,0,0,0,0-3.54,2.57,2.57,0,0,0-3.54,0Z" style="fill:#1d1d1b"/><path d="M34.28,94.19c4.42.38,8.86.62,13.29.73a2.52,2.52,0,0,0,2.5-2.5,2.55,2.55,0,0,0-2.5-2.5c-4.43-.11-8.87-.35-13.29-.73a2.51,2.51,0,0,0-2.5,2.5,2.57,2.57,0,0,0,2.5,2.5Z" style="fill:#1d1d1b"/><path d="M27.94,27.71c-.47,8.82,1,17.6.67,26.42-.13,4.23-.55,8.46-.33,12.7a38.36,38.36,0,0,0,.91,6.56,55.32,55.32,0,0,1,1.31,6.08c.51,4.66-.54,9.27-1.87,13.71L31,91.34c-4.58-.36-9.17-.59-13.76-.66q-3.45-.06-6.89,0c-1.15,0-2.3,0-3.45.08l-1.47,0-1,0c-.74,0-.67.08.2.37l.65,1.11a15.88,15.88,0,0,1-.07-3.83c0-1.72.11-3.44.21-5.15.17-3.11.41-6.21.55-9.31a90.36,90.36,0,0,0,0-9.31c-.18-3.26-.53-6.49-.48-9.75.06-3.07.34-6.13.36-9.2a79.64,79.64,0,0,0-.69-9C5,34,4.71,31.08,5.61,28.41a4.15,4.15,0,0,0,.18-.48l-.59.41.72-.05c.72,0,1.44,0,2.16,0,1.6,0,3.2.22,4.8.33a99.42,99.42,0,0,0,21.39-.9A2.53,2.53,0,0,0,36,24.63a2.57,2.57,0,0,0-3.08-1.74,93.15,93.15,0,0,1-12.82.95c-4.27,0-8.5-.54-12.76-.58-2.18,0-4.64,0-5.89,2.15a14.06,14.06,0,0,0-1.43,6c-.25,4,.67,8,.86,11.94.2,4.35-.36,8.7-.32,13.06s.63,8.78.58,13.19-.38,8.67-.64,13C.39,84.82.29,87,.26,89.23c0,2-.41,4.57,1.32,5.93a4.85,4.85,0,0,0,3.4.67q1.84-.08,3.69-.12,3.69-.09,7.38,0c5,0,10,.29,15,.68a2.52,2.52,0,0,0,2.41-1.83,43.49,43.49,0,0,0,2.17-12.74c0-4.34-1.61-8.32-2.14-12.57s-.15-8.78.06-13.15a123,123,0,0,0-.21-13.16,134.94,134.94,0,0,1-.39-15.18c.18-3.22-4.82-3.21-5,0Z" style="fill:#1d1d1b"/><path d="M4.81,61a215,215,0,0,1,24,.34,2.51,2.51,0,0,0,2.5-2.5,2.55,2.55,0,0,0-2.5-2.5,215,215,0,0,0-24-.34c-3.21.14-3.23,5.14,0,5Z" style="fill:#1d1d1b"/><path d="M49.3,62.16C53.55,63.52,57.79,65,62.14,66a2.5,2.5,0,1,0,1.33-4.82c-4.35-1-8.59-2.49-12.84-3.85a2.5,2.5,0,1,0-1.33,4.82Z" style="fill:#1d1d1b"/><path d="M71.5,67.57q11.09,1.05,22.23,1c3.22,0,3.22-5,0-5q-11.13,0-22.23-1a2.5,2.5,0,0,0,0,5Z" style="fill:#1d1d1b"/><path d="M306,44q-.22,15.47-.16,30.93a2.51,2.51,0,0,0,2.5,2.5,4,4,0,0,1,3.16,1.18,51.59,51.59,0,0,0,4.12,3.25c3.89,2.43,8.77,1.31,13.07,1q14.79-1.2,29.58-2.5c19.71-1.76,39.41-3.74,59-6.25Q434,72,450.73,69.28a2.5,2.5,0,0,0-1.33-4.82C430,67.62,410.52,70.1,391,72.19S351.91,76,332.35,77.57l-8.39.67c-2,.17-4.07.46-5.86-.66-3.17-2-5.6-5.57-9.8-5.11l2.5,2.5Q310.73,59.51,311,44c.05-3.22-4.95-3.22-5,0Z" style="fill:#1d1d1b"/><path d="M310.74,45.33c8.58-5.39,19.11-5.16,28.86-4.35,11.82,1,23.62,2.31,35.43,3.48,24.2,2.4,48.43,4.65,72.55,7.72,6.65.85,13.28,1.76,19.9,2.77,4.22.64,10.09,1.12,12.44,5.27V57.7A6.09,6.09,0,0,1,476.11,61a55.52,55.52,0,0,1-7.62,2,141.22,141.22,0,0,1-17.22,2.75,2.57,2.57,0,0,0-2.5,2.5,2.52,2.52,0,0,0,2.5,2.5,149.73,149.73,0,0,0,22.55-3.88,20,20,0,0,0,8.05-3.5,8.45,8.45,0,0,0,2.37-3.12c.83-1.89-.49-3.58-1.78-4.91-4.32-4.43-11.33-4.85-17.07-5.69-7.56-1.12-15.13-2.12-22.71-3-30.33-3.72-60.78-6.43-91.19-9.44C337.27,35.72,321.05,33,308.21,41c-2.71,1.7-.21,6,2.53,4.31Z" style="fill:#1d1d1b"/><path d="M320.16,39.25c.47,13.46-3.2,27.42,1.81,40.42a2.59,2.59,0,0,0,3.08,1.75,2.53,2.53,0,0,0,1.75-3.08c-4.84-12.53-1.19-26.1-1.64-39.09-.11-3.2-5.11-3.22-5,0Z" style="fill:#1d1d1b"/><path d="M442.5,62.15q20.07.56,40.13-.18c3.21-.12,3.22-5.12,0-5q-20.06.73-40.13.18c-3.22-.09-3.21,4.92,0,5Z" style="fill:#1d1d1b"/><path d="M155,85.69c3.21,0,3.22-5,0-5s-3.23,5,0,5Z" style="fill:#1d1d1b"/><path d="M154.17,92.63c3.22,0,3.22-5,0-5s-3.22,5,0,5Z" style="fill:#1d1d1b"/><path d="M153.84,99.4c3.22,0,3.22-5,0-5s-3.22,5,0,5Z" style="fill:#1d1d1b"/><path d="M156.32,25.58c3.21,0,3.22-5,0-5s-3.23,5,0,5Z" style="fill:#1d1d1b"/><path d="M155.49,33.51c3.22,0,3.22-5,0-5s-3.22,5,0,5Z" style="fill:#1d1d1b"/><path d="M154.34,39.62c3.21,0,3.22-5,0-5s-3.23,5,0,5Z" style="fill:#1d1d1b"/><path d="M136.17,33.84h6.64a11.81,11.81,0,0,0,3.31-.16c1.55-.47,2.06-1.83,2.33-3.27q1.23-6.6,1.91-13.28a2.51,2.51,0,0,0-2.5-2.5,2.57,2.57,0,0,0-2.5,2.5c-.09.92-.2,1.84-.31,2.75-.06.51-.12,1-.19,1.52,0,.15,0,.18,0,.08l0,.21-.09.69q-.4,2.81-.9,5.61c-.09.45-.17.91-.26,1.36,0,.21-.1.42-.12.63-.06.78,2.45-1,1.48-1.14a20.56,20.56,0,0,0-2.83,0h-5.93a2.5,2.5,0,1,0,0,5Z" style="fill:#1d1d1b"/><path d="M132.7,90.52c1.93.07,3.85.17,5.78.3l2.82.21c.23,0,.46,0,.7.06s.37,0,.17,0c-.53,0-.91-.4-1.12-1.08a2.86,2.86,0,0,0,.1.42c-.1-.48,0,.38,0,.4q.7,5.84,1.18,11.69a2.5,2.5,0,0,0,5,0c-.18-2.24-.39-4.47-.62-6.71q-.16-1.63-.36-3.27a29.61,29.61,0,0,0-.47-3.65,3.58,3.58,0,0,0-3.09-2.72c-1.12-.15-2.25-.21-3.37-.29-2.26-.16-4.51-.29-6.77-.37a2.51,2.51,0,0,0-2.5,2.5,2.56,2.56,0,0,0,2.5,2.5Z" style="fill:#1d1d1b"/><path d="M52,92.79h10.9a50.06,50.06,0,0,0,5.2,0c1.79-.2,2.77-1.39,3.86-2.67,3.75-4.43,7.17-9.44,12.22-12.52,2.74-1.67.23-6-2.53-4.31-5,3-8.53,7.6-12.19,12-.43.53-.86,1-1.3,1.56-.22.26-.44.52-.67.77-.7.79.23.07.24.17,0-.09-4.64,0-5.08,0H52c-3.22,0-3.23,5,0,5Z" style="fill:#1d1d1b"/><path d="M52.78,30.3l9.31.78,4.9.41a7.8,7.8,0,0,1,2,.17c-.17-.07,0,.06.17.25s.49.55.72.83a64,64,0,0,1,9,14,2.52,2.52,0,0,0,3.42.89,2.55,2.55,0,0,0,.9-3.42A67.59,67.59,0,0,0,72.84,28.54a5.85,5.85,0,0,0-4.38-1.93l-5.15-.43L52.78,25.3a2.53,2.53,0,0,0-2.5,2.5,2.55,2.55,0,0,0,2.5,2.5Z" style="fill:#1d1d1b"/><path d="M238.23,90.15c3.21,0,3.22-5,0-5s-3.23,5,0,5Z" style="fill:#1d1d1b"/><path d="M238.39,82.72c3.22,0,3.22-5,0-5s-3.22,5,0,5Z" style="fill:#1d1d1b"/><path d="M238.56,35.49c3.21,0,3.22-5,0-5s-3.23,5,0,5Z" style="fill:#1d1d1b"/><path d="M238.39,42.92c3.22,0,3.22-5,0-5s-3.22,5,0,5Z" style="fill:#1d1d1b"/><path d="M247.23,111.62c3.21,0,3.22-5,0-5s-3.23,5,0,5Z" style="fill:#1d1d1b"/><path d="M246.07,13.77c3.22,0,3.22-5,0-5s-3.22,5,0,5Z" style="fill:#1d1d1b"/><path d="M12.15,39.6c2.59-.09,5.18-.07,7.76,0a2.51,2.51,0,0,0,2.5-2.5,2.55,2.55,0,0,0-2.5-2.5c-2.58-.11-5.17-.13-7.76,0a2.5,2.5,0,1,0,0,5Z" style="fill:#1d1d1b"/><path d="M12.32,45.88a77.85,77.85,0,0,1,9.16.48,2.48,2.48,0,0,0,1.76-.73A2.58,2.58,0,0,0,24,43.86a2.5,2.5,0,0,0-.74-1.77,2.9,2.9,0,0,0-1.76-.73,77.85,77.85,0,0,0-9.16-.48,2.5,2.5,0,0,0,0,5Z" style="fill:#1d1d1b"/><path d="M12.65,52.67c3.06-.06,6.11,0,9.16.26a2.51,2.51,0,0,0,2.5-2.5,2.55,2.55,0,0,0-2.5-2.5c-3-.24-6.1-.32-9.16-.26a2.5,2.5,0,1,0,0,5Z" style="fill:#1d1d1b"/><path d="M15.05,69.34l0-.08-.9.9a2.17,2.17,0,0,1-.87.24h.84l1.13,0c.78,0,1.56.07,2.33.12s1.5.13,2.24.21l1.12.13c.52.07-.51-.07.17,0l.65.1a2.67,2.67,0,0,0,1.92-.25,2.56,2.56,0,0,0,1.15-1.49c.27-1.2-.36-2.87-1.75-3.08-2-.3-4-.54-6-.67-.91-.06-1.81-.1-2.72-.11-.4,0-.82,0-1.22,0a3,3,0,0,0-2.5,1.42,2.52,2.52,0,0,0,.9,3.42,2.56,2.56,0,0,0,3.42-.9Z" style="fill:#1d1d1b"/><path d="M13.23,77.58q2.41,0,4.83.21,1.15.09,2.31.21l1.15.13.67.08-.18,0,.38,0A2.73,2.73,0,0,0,24.31,78a2.5,2.5,0,0,0,.9-3.42,2.39,2.39,0,0,0-1.49-1.15,81.94,81.94,0,0,0-10.49-.84,2.5,2.5,0,0,0,0,5Z" style="fill:#1d1d1b"/><path d="M12.81,85.2a107.58,107.58,0,0,1,13.78.88,2.49,2.49,0,0,0,2.5-2.5,2.57,2.57,0,0,0-2.5-2.5,107.58,107.58,0,0,0-13.78-.88,2.5,2.5,0,0,0,0,5Z" style="fill:#1d1d1b"/></g></g></svg>