<svg xmlns="http://www.w3.org/2000/svg" viewBox="0 0 106.52 103.67"><g id="Слой_2" data-name="Слой 2"><g id="Слой_6" data-name="Слой 6"><path d="M57.92,94.6a68.84,68.84,0,0,1-24.25-2.81c-6.71-2-13.79-5-17.43-11.37-1.81-3.15-2.92-6.64-4.46-9.93s-4.13-6.25-5.54-9.68-1.3-7.48-1.15-11.18a59.87,59.87,0,0,1,1.17-10c1.32-6.41,3.75-12.82,8-17.93C19,15.91,26,12,32.6,8.64a27.5,27.5,0,0,1,11-3.13,63.37,63.37,0,0,1,12,.83c7.85,1.09,15.95,2.44,23.12,6,6.17,3,11.59,7.57,14.57,13.87a40.46,40.46,0,0,1,3,11,57,57,0,0,1,.85,11.73,22.56,22.56,0,0,1-1,5.58c-1,3.08,3.87,4.39,4.82,1.33a33.55,33.55,0,0,0,1-13.08,75.4,75.4,0,0,0-2-12.49,33.18,33.18,0,0,0-13.3-19C79.82,6.38,71.56,4,63.38,2.52,59,1.75,54.6,1.09,50.19.69a36.37,36.37,0,0,0-13.39.9A51.64,51.64,0,0,0,25.42,6.88a68.82,68.82,0,0,0-10.77,7.25C9,19,5.18,25.65,2.91,32.69A63,63,0,0,0,.09,55.1,23.57,23.57,0,0,0,1.3,61.82a27.94,27.94,0,0,0,2.87,5.5,51.82,51.82,0,0,1,3,5.13c.86,1.76,1.56,3.58,2.32,5.39,1.56,3.72,3.34,7.29,6.28,10.14a32.09,32.09,0,0,0,10,6.27,71.37,71.37,0,0,0,25.58,5.46c2.18.07,4.36,0,6.54-.11,3.19-.19,3.21-5.19,0-5Z" style="fill:#1e1e1c"/><path d="M8.25,67.45a355.77,355.77,0,0,0,47.51,5.18c3.22.13,3.22-4.87,0-5a347.36,347.36,0,0,1-46.18-5A2.57,2.57,0,0,0,6.5,64.38a2.52,2.52,0,0,0,1.75,3.07Z" style="fill:#1e1e1c"/><path d="M7.08,37.79a286,286,0,0,1,69.55-1.4,86.34,86.34,0,0,1,18.42,3.77c3.06,1,4.37-3.8,1.33-4.82-11-3.7-22.93-4.48-34.48-5A294.68,294.68,0,0,0,26,30.78C19.22,31.27,12.47,32,5.75,33A2.53,2.53,0,0,0,4,36a2.58,2.58,0,0,0,3.08,1.75Z" style="fill:#1e1e1c"/><path d="M46.8,93.58a47.22,47.22,0,0,1-10-14.69,30.19,30.19,0,0,1-2.4-8.74,92.07,92.07,0,0,1-.27-10,107.88,107.88,0,0,1,1.76-20.06,164.32,164.32,0,0,1,4.53-19.39c2-6.2,5-12.11,9.92-16.52,2.4-2.16-1.15-5.69-3.53-3.54C36.64,9.87,34,24.09,31.46,36.91a113.07,113.07,0,0,0-2.29,21.31c-.08,6.94-.25,14,2.23,20.54A51.54,51.54,0,0,0,43.26,97.11c2.29,2.27,5.83-1.27,3.54-3.53Z" style="fill:#1e1e1c"/><path d="M57.63,7.9A58.86,58.86,0,0,1,70.38,50.25a2.5,2.5,0,0,0,5,0A63.85,63.85,0,0,0,61.17,4.36a2.54,2.54,0,0,0-3.54,0,2.57,2.57,0,0,0,0,3.54Z" style="fill:#1e1e1c"/><path d="M73.43,94.68c-3.85-1.32-7.82-2.78-10.26-6.25a16.58,16.58,0,0,1-2.82-11.07,23.3,23.3,0,0,1,5-11.77,12.2,12.2,0,0,1,4.61-4.16,19.23,19.23,0,0,1,6.66-1A53.58,53.58,0,0,1,91.35,62c3.74.94,7.8,2.21,9.12,6.24a29.13,29.13,0,0,1,.47,14.13A20.36,20.36,0,0,1,95.45,93a19.7,19.7,0,0,1-24.82,2.34c-2.69-1.78-5.2,2.55-2.52,4.32A24.55,24.55,0,0,0,104.89,87a36,36,0,0,0,1-17.41,14.58,14.58,0,0,0-3.24-7.35,15.38,15.38,0,0,0-6.3-3.94,51.73,51.73,0,0,0-16.73-2.87C74,55.29,68,55.55,63.77,59.77A29.88,29.88,0,0,0,56,73.42a22.17,22.17,0,0,0,2,16.26,18.35,18.35,0,0,0,5.78,6.17A35,35,0,0,0,72.1,99.5a2.5,2.5,0,1,0,1.33-4.82Z" style="fill:#1e1e1c"/><path d="M64.75,64.56Q72,73,79.27,81.36C83.69,86.43,87.93,92,93.6,95.76c2.69,1.78,5.19-2.55,2.52-4.32a36.74,36.74,0,0,1-6.78-6.17c-2.33-2.57-4.58-5.2-6.86-7.82Q75.36,69.26,68.29,61a2.54,2.54,0,0,0-3.54,0,2.56,2.56,0,0,0,0,3.54Z" style="fill:#1e1e1c"/></g></g></svg>