<svg xmlns="http://www.w3.org/2000/svg" viewBox="0 0 202.22 168.71"><g id="Слой_2" data-name="Слой 2"><g id="Слой_9" data-name="Слой 9"><path d="M3.17,26.89,32.51,16.07a92.41,92.41,0,0,1,14-4.46,30,30,0,0,1,14.43.79c3.09.92,4.41-3.9,1.33-4.83C54.31,5.21,46.33,6,38.59,8.58s-15.51,5.65-23.25,8.51l-13.5,5A2.56,2.56,0,0,0,.09,25.14a2.53,2.53,0,0,0,3.08,1.75Z" style="fill:#1e1e1c"/><path d="M59.42,24.33c.9-3.06,1.92-6.41,4.17-8.77,2.58-2.71,6.3-2.71,9.78-2.23.45.06.91.12,1.35.22a1.75,1.75,0,0,1,.51.14c-.29-.18-.24-.13-.17,0a7.49,7.49,0,0,1,1,2.11A14.15,14.15,0,0,1,73.92,29c-2.73,3.41-7,5-11.08,6.24-3.05,1-1.75,5.8,1.33,4.83,4.69-1.49,9.6-3.37,12.94-7.14a19.06,19.06,0,0,0,4.73-12A18.27,18.27,0,0,0,81,14.6c-.78-2.31-1.9-4.9-4.4-5.74a18.1,18.1,0,0,0-3.37-.56,24.44,24.44,0,0,0-4-.2,13.41,13.41,0,0,0-7.06,2.19C57.88,13.25,56,18.22,54.6,23c-.91,3.09,3.92,4.41,4.82,1.33Z" style="fill:#1e1e1c"/><path d="M64.48,7.62a4.16,4.16,0,0,1,0-.6s-.12.53,0,0c.07-.27.13-.35,0,0,.09-.19.19-.35.29-.53.22-.39-.16.13,0-.06s.23-.25.35-.37.5-.38.22-.2.21-.11.26-.14.65-.33.18-.12a5.49,5.49,0,0,1,.57-.2L67,5.18s.8-.15.3-.07A16.16,16.16,0,0,1,69.85,5L71,5l.55,0c.14,0,.71.16.21,0,.17,0,.35.07.52.12s.4.19.1,0c.15.09.52.43.2.08,0,0,.44.45.22.2s.12.19.15.26.22.63.1.16a9.47,9.47,0,0,1,.26,1c0-.35,0,.08,0,.22s0,.43,0,.64c0,.51,0,1-.07,1.53a2.51,2.51,0,0,0,2.5,2.5,2.56,2.56,0,0,0,2.5-2.5c.17-2.57,0-5.08-1.71-7.15S72.25,0,69.85,0s-5,.15-7,1.5-3.61,3.61-3.35,6.12a2.56,2.56,0,0,0,2.5,2.5,2.53,2.53,0,0,0,2.5-2.5Z" style="fill:#1e1e1c"/><path d="M83.56,27.88a67.3,67.3,0,0,0,18.68-3.57c5.41-1.88,10.83-5,16.73-4.83a32.86,32.86,0,0,1,8.13,1.68,70.33,70.33,0,0,1,6.8,2.41,68.56,68.56,0,0,1,12.57,6.9,60,60,0,0,1,19.11,21.21c5.51,10.45,6.78,22.58,8.79,34.06.3,1.7.65,3.41.88,5.13a5.57,5.57,0,0,1-.51,4,15.07,15.07,0,0,1-3.2,2.86c-1.16.91-2.34,1.81-3.53,2.68-4.86,3.55-10.29,7-16.39,7.8a2.6,2.6,0,0,0-2.5,2.5c0,1.22,1.16,2.68,2.5,2.5,6.13-.8,11.6-3.43,16.66-6.89,2.51-1.71,4.91-3.58,7.3-5.45,2.6-2,4.51-4.26,4.77-7.69.24-3.27-.81-6.79-1.37-10s-1.15-6.64-1.74-9.95c-1.11-6.28-2.37-12.59-4.77-18.52-8-19.65-26.24-33.85-46.53-39.09a27,27,0,0,0-11.15-.86,45.69,45.69,0,0,0-9.66,3.09,66.89,66.89,0,0,1-21.57,5c-3.2.16-3.22,5.16,0,5Z" style="fill:#1e1e1c"/><path d="M144.66,104.64l1.58,4.61a40.86,40.86,0,0,1,1.58,4.68,1.48,1.48,0,0,1,.08.75c0-.05,0-.14,0-.19a4.69,4.69,0,0,1-.75.24,11.07,11.07,0,0,0-3.52,1.3c-2,1.41-2.52,3.62-3.7,5.63-.52.88-1.14,1-2.28,1.23-1.58.33-3.17.62-4.76.89a157,157,0,0,1-19.58,2.09c-1.51.07-3,.13-4.54.14-.31,0-1,.12-1.3-.11,0,0-.07.11,0-.24.48-1.77,3.68-2.31,5.34-2.84l21.63-6.94c2.24-.72,2.51-4.24,0-4.82a43.14,43.14,0,0,1-9.67-3.55,36.43,36.43,0,0,1-8.12-5.11c-2-1.84-3.69-4.24-3.69-7.1a5.92,5.92,0,0,1,.33-2,4.73,4.73,0,0,1,.39-.78c.14-.23-.37-.14.19-.18,1.39-.09,2.84-.19,4-1.35,2.24-2.32-1.29-5.86-3.53-3.54.5-.19.54-.22.12-.1.16-.05.07-.06-.26,0s-.86.06-1.31.14a4.59,4.59,0,0,0-2.62,1.35,9.25,9.25,0,0,0-2.23,5.66,13.89,13.89,0,0,0,4,10.28,33.75,33.75,0,0,0,9.27,6.49,49.52,49.52,0,0,0,11.86,4.57v-4.82L110.6,118.3c-3.15,1-6.8,2.2-7.82,5.76a5.28,5.28,0,0,0,4.75,6.9,36.5,36.5,0,0,0,5.33-.07q2.9-.12,5.81-.34,5.89-.47,11.74-1.34,2.64-.37,5.27-.86c1.95-.35,4.18-.54,5.95-1.5a7,7,0,0,0,2.8-2.94,26.21,26.21,0,0,1,1.64-3.37c.56-.74,1.94-.79,3-1.16a5.23,5.23,0,0,0,3.65-3.65c.47-2.06-.4-4.06-1.06-6l-2.22-6.45a2.56,2.56,0,0,0-3.08-1.75,2.53,2.53,0,0,0-1.74,3.08Z" style="fill:#1e1e1c"/><path d="M90.84,91.7c-1.24,6.92-2.74,13.8-4.59,20.58-.77,2.84-1.65,5.65-3.84,7.73a19.63,19.63,0,0,1-7.54,4.17,22.73,22.73,0,0,1-8.86,1,7.37,7.37,0,0,1-3.37-.83c-.12-.08-.49-.48-.41-.34s0,.16-.07.22c.09-.26.08-.19.31-.35A7.15,7.15,0,0,1,65,123c1.45-.28,2.91-.5,4.33-.92a12.45,12.45,0,0,0,7.33-5.21c1.58-2.51,2.22-5.56,2.84-8.42.76-3.44,1.23-7,.34-10.5-1.52-5.94-6.56-10.12-11.56-13.18s-10.5-5.75-14.14-10.7a25.57,25.57,0,0,1-3.87-7.52c-.82-2.61-1.15-5.36-2.09-7.94a12,12,0,0,0-6.1-7.13c-3.5-1.62-7.43-2.48-11.11-3.6s-7.22-2-10.68-3.3a5.24,5.24,0,0,1-2.61-1.78,2.65,2.65,0,0,1-.19-1c.07-.48.09-.45.51-.65a2.52,2.52,0,0,0,.9-3.42,2.55,2.55,0,0,0-3.42-.89c-2.81,1.29-3.56,4.92-2.5,7.61,1.23,3.15,4.44,4.54,7.46,5.48C23.93,51,27.47,52.09,31,53.17l5.11,1.56A20.29,20.29,0,0,1,40.6,56.4c2.36,1.38,3,4.3,3.63,6.77A44.64,44.64,0,0,0,47,71.85c2.77,6,7.46,10.48,13,13.88,5.17,3.16,11.56,5.93,14.34,11.7,1.4,2.93,1.08,6.2.43,9.27-.58,2.75-1.06,6.25-3,8.43-3.64,4.14-12.68,1.36-14.36,7.68-.9,3.37,1.93,5.87,4.85,6.76a23.33,23.33,0,0,0,10,.34,27.24,27.24,0,0,0,10.57-4,17.37,17.37,0,0,0,7.14-8.73,89.31,89.31,0,0,0,3.17-11.72c1-4.14,1.8-8.3,2.55-12.48A2.56,2.56,0,0,0,93.91,90a2.51,2.51,0,0,0-3.07,1.74Z" style="fill:#1e1e1c"/><path d="M25.3,36.29C18.09,35,8.06,33.29,5.52,25.16,4.56,22.1-.27,23.41.7,26.49A18.36,18.36,0,0,0,9.34,36.71C13.82,39.27,19,40.23,24,41.11a2.58,2.58,0,0,0,3.08-1.75,2.52,2.52,0,0,0-1.75-3.07Z" style="fill:#1e1e1c"/><path d="M33.26,31.76c3,.37,6.46.3,8.53-2.29a5.6,5.6,0,0,0,1.28-4.8,6.74,6.74,0,0,0-2.33-3.52,10,10,0,0,0-7.11-2.32c-2.69.23-5.56,1.46-6.93,3.93-2.09,3.78,1.58,7.32,4.49,9.3a2.52,2.52,0,0,0,3.42-.9,2.56,2.56,0,0,0-.9-3.42l-.34-.24s-.31-.22-.08-.05-.09-.07-.15-.12l-.23-.2A11.65,11.65,0,0,1,31.74,26l-.27-.31-.06-.07c.19.24-.06-.08-.1-.14l-.16-.23S31,25,31,24.89s.12.58.05.08c0,0,0,.49,0,.2s-.09.51,0,0,0,.13,0,.08a1.58,1.58,0,0,1,.15-.24c.14-.3-.29.27,0,0,.07-.06.13-.14.2-.21s.22-.25.28-.26-.47.33-.1.08c.17-.12.35-.23.53-.34s.34-.15.49-.25-.47.14-.16.07a1,1,0,0,0,.23-.08c.2-.07.4-.12.6-.17a2.35,2.35,0,0,0,.62-.12s-.62.05-.19,0l.24,0h.55l.64,0c.08,0,.36,0,0,0s0,0,.14,0a10,10,0,0,1,1.07.3c.42.13-.13,0-.16-.08a2.53,2.53,0,0,0,.29.14,5.86,5.86,0,0,1,.55.3c.16.09.3.22.46.3s-.34-.33-.13-.1a1.37,1.37,0,0,0,.18.16,6.25,6.25,0,0,1,.45.44,1.37,1.37,0,0,0,.16.18c.14.13-.19-.34,0,0,0,.06.22.31.2.34s-.12-.45-.07-.14c0,.09.11.49,0,.09s0,0,0,0V26l0-.33s-.09.35-.08.32c0,.14-.16.21,0,0s-.06.06-.11.16c-.14.3-.12-.06.09-.08,0,0-.2.21-.24.25a2.09,2.09,0,0,1-.26.25c.16,0,.38-.26,0,0a1.71,1.71,0,0,1-.23.13c-.46.29.37-.09,0,0l-.93.25s.42,0,.13,0l-.55,0a8.42,8.42,0,0,1-.87,0c-.66,0-1.32-.11-2-.19a2.51,2.51,0,0,0-2.5,2.5,2.56,2.56,0,0,0,2.5,2.5Z" style="fill:#1e1e1c"/><path d="M63.94,88.41a33.48,33.48,0,0,1-1.47,6.16c-.31.89-.65,1.77-1,2.62a8,8,0,0,1-1.3,2.3,11.33,11.33,0,0,1-4.85,2.22c-1.7.44-3.54.33-5.21.86a4.71,4.71,0,0,0-3.47,4.68A6.24,6.24,0,0,0,50,112.19c3.48,1.93,8,1.39,11.78,1.4,4.4,0,9.45.65,12.44-3.26a2.51,2.51,0,0,0-.9-3.42,2.56,2.56,0,0,0-3.42.89c-.39.52-1.7.71-2.51.77-1.79.12-3.6,0-5.39,0s-3.7,0-5.55,0a9,9,0,0,1-3.78-.62c-.08,0-1.21-.92-1.07-1s-.08.4-.14.38a11.62,11.62,0,0,0,1.44-.23,24.89,24.89,0,0,0,3-.44c3.26-.71,7.2-2.23,9-5.22a32.64,32.64,0,0,0,3.92-11.75A2.59,2.59,0,0,0,67,86.67a2.52,2.52,0,0,0-3.08,1.74Z" style="fill:#1e1e1c"/><path d="M94.5,100.7A30.38,30.38,0,0,0,110,102.43a2.5,2.5,0,0,0,1.75-3.07,2.59,2.59,0,0,0-3.08-1.75c.43-.06-.52.06-.61.06l-.77.07c-.6,0-1.2.05-1.8.05a28.52,28.52,0,0,1-3.34-.2c.44,0-.35-.06-.36-.06l-.89-.16c-.55-.1-1.09-.23-1.63-.37a26.85,26.85,0,0,1-3.42-1.13,2.53,2.53,0,0,0-3.08,1.75,2.59,2.59,0,0,0,1.75,3.08Z" style="fill:#1e1e1c"/><path d="M111.08,101.8l-7,1.47a55.5,55.5,0,0,0-5.85,1.3,7.88,7.88,0,0,0-4.6,3.25,4.23,4.23,0,0,0,1.23,5.89c1.84,1.05,4.41.55,6.4.41,2.38-.17,4.74-.4,7.11-.6a76.56,76.56,0,0,1,14.44-.14,2.52,2.52,0,0,0,2.5-2.5,2.56,2.56,0,0,0-2.5-2.5c-7.77-.83-15.51.4-23.26.85l-1.23.06a4.76,4.76,0,0,0-1.13,0c.34-.22.36,1.06.77,1-.13,0,.06-.13.15-.18a12,12,0,0,1,1.13-.63,13.27,13.27,0,0,1,1.94-.53c3.75-.81,7.51-1.56,11.26-2.34a2.5,2.5,0,0,0-1.32-4.83Z" style="fill:#1e1e1c"/><path d="M174.24,105.12c3.57,4.24,7.72,8.39,10.32,13.33a22.7,22.7,0,0,1,2.52,12.38,17.21,17.21,0,0,1-5.32,11.27,39.72,39.72,0,0,1-6.16,4.56,38.71,38.71,0,0,1-6.74,3.62c-10.62,4.15-22-.08-32.1-3.65s-21.7-7.18-32.42-3.33a30.55,30.55,0,0,0-19.43,21.91c-.67,3.14,4.14,4.48,4.82,1.33A25.48,25.48,0,0,1,106,148c10.7-3.68,22,.85,32.06,4.39,11,3.84,22.81,6.89,33.93,2a48.13,48.13,0,0,0,6.86-3.85,43.86,43.86,0,0,0,6.59-5A21.83,21.83,0,0,0,191.84,133a28,28,0,0,0-2.46-16,37.57,37.57,0,0,0-5.1-7.58c-2.13-2.62-4.33-5.17-6.5-7.75a2.52,2.52,0,0,0-3.54,0,2.55,2.55,0,0,0,0,3.53Z" style="fill:#1e1e1c"/><path d="M181.09,94.21c7.61,7.13,14,16.93,15.88,27.32,1,5.53-1.24,11-3.87,15.8a65.81,65.81,0,0,1-9.75,13.07c-3.66,3.9-7.36,7.67-12.68,9.08-4.85,1.28-10.06.9-14.95.06a160.84,160.84,0,0,1-17.3-4.2c-5.93-1.72-11.71-3.88-17.6-5.73a26.91,26.91,0,0,0-10.13-1.54,19.6,19.6,0,0,0-9.27,3.4,58.92,58.92,0,0,0-14,13.48,2.52,2.52,0,0,0,.89,3.42,2.56,2.56,0,0,0,3.42-.9A51.94,51.94,0,0,1,104,155.78a14.35,14.35,0,0,1,7.64-2.76,26.24,26.24,0,0,1,8.79,1.7c11.69,3.84,23.39,8.08,35.62,9.9,5.42.81,11,1.08,16.37-.42,5.73-1.61,9.92-5.44,13.93-9.65A74.23,74.23,0,0,0,196.79,141c3-5.06,5.56-10.94,5.43-16.91-.14-6.47-3-13.09-6.12-18.67a60.19,60.19,0,0,0-11.48-14.7c-2.34-2.2-5.89,1.33-3.53,3.53Z" style="fill:#1e1e1c"/></g></g></svg>