<svg xmlns="http://www.w3.org/2000/svg" viewBox="0 0 83.94 58.97"><g id="Слой_2" data-name="Слой 2"><g id="Слой_11" data-name="Слой 11"><path fill="black" d="M23.71,28a13.17,13.17,0,0,1,2.43-5.47,62.82,62.82,0,0,1,3.93-5.28,35.29,35.29,0,0,1,4.38-4.68A14.91,14.91,0,0,1,40,9.89c4.13-1.21,8.12-2.66,12.15-4.15s8.56-3.12,12.92-2.68c2.49.25,4.91,1.43,7.22,2.29l7.94,3C82,9,82.82,6.07,81,5.41L73.56,2.63A41.94,41.94,0,0,0,66.39.23c-4.69-.82-9.6.68-14,2.24S43.55,5.71,39,7.06a17.68,17.68,0,0,0-6,2.88,30.94,30.94,0,0,0-4.73,4.84c-3.17,3.79-6.91,8.15-7.53,13.22-.23,1.91,2.77,1.9,3,0Z"/><path fill="black" d="M20.73,30c1.08,2.75,2.92,4.92,4.62,7.3a17.41,17.41,0,0,1,2,3.41,38.13,38.13,0,0,0,1.48,3.62c1.45,2.68,4,3.54,6.88,2.73,1.47-.42,2.89-.93,4.39-1.23,1.86-.37,3.75-.58,5.62-.94a81.37,81.37,0,0,0,10-2.76,53.31,53.31,0,0,0,9.06-3.53,35.14,35.14,0,0,0,12-11.17A47.6,47.6,0,0,0,81.34,19c1.41-3.31,2.73-6.81,2.59-10.47-.08-1.92-3.08-1.93-3,0a21,21,0,0,1-2,8.61A45.54,45.54,0,0,1,75.45,24,34,34,0,0,1,65.23,34.83a33.12,33.12,0,0,1-7.6,3.49c-3,1-6,2-9,2.8s-6.2,1.16-9.31,1.78c-1.43.28-2.78.74-4.18,1.16-1.24.38-2.43.53-3.28-.6a13,13,0,0,1-1.47-3.27,19.17,19.17,0,0,0-1.88-3.66c-1.63-2.43-3.78-4.61-4.86-7.37-.7-1.78-3.6-1-2.9.8Z"/><path fill="black" d="M52.62,12.56a11.3,11.3,0,0,0-3,5.12,6.6,6.6,0,0,0,1.48,5.39,13.57,13.57,0,0,0,4.73,3.39,5.91,5.91,0,0,0,3.14.83,7.86,7.86,0,0,0,2.91-1.1c3.32-1.78,6.65-4.8,5.87-9-.75-4-4.68-6.07-8.39-6.35a15.09,15.09,0,0,0-6.69,1,12.21,12.21,0,0,0-5.07,4.38,1.51,1.51,0,0,0,.54,2.05,1.53,1.53,0,0,0,2-.54,9.61,9.61,0,0,1,3-2.83,9.93,9.93,0,0,1,4.11-1c2.52-.18,5.53.23,7,2.59s-.23,4.82-2.32,6.2c-.6.39-1.22.73-1.85,1.06a2.69,2.69,0,0,1-1.79.52,7.75,7.75,0,0,1-1.92-.88,12.55,12.55,0,0,1-2-1.27,4.28,4.28,0,0,1-1.86-3.47,7.4,7.4,0,0,1,2.22-4c1.27-1.45-.85-3.58-2.13-2.12Z"/><path fill="black" d="M27.39,20.32c2.76,3.76,5.37,7.62,7.78,11.61a34.55,34.55,0,0,1,5,11.83c.33,1.9,3.22,1.1,2.89-.79A36.07,36.07,0,0,0,38,30.77c-2.47-4.11-5.16-8.1-8-12-1.13-1.54-3.74,0-2.59,1.51Z"/><path fill="black" d="M32.15,47.82a17.55,17.55,0,0,1-1.46,4.94A10.35,10.35,0,0,0,30,57.89a1.5,1.5,0,0,0,1.84,1c5.37-1.32,10.57-4.32,16.22-4.12,1.31,0,2.49-.12,3-1.53.43-1.25.45-2.67.82-4a46.6,46.6,0,0,1,3.47-8c.87-1.72-1.72-3.24-2.59-1.52a60.55,60.55,0,0,0-3.34,7.39,23.4,23.4,0,0,0-1,3.89c0,.24-.22.75-.14,1s0,.22.2,0,.29-.26-.17-.2a6.71,6.71,0,0,0-2,0C41,52.23,36.19,54.78,31.07,56l1.84,1.05c-.21-1.54.51-3.11,1.05-4.51a15.42,15.42,0,0,0,1.19-4.76c.09-1.93-2.91-1.93-3,0Z"/><path fill="black" d="M24.27,24.46c-.45-1.88-2.2-2.73-3.9-3.25-1.09-.34-2.2-.66-3.3-1l-1.75-.52-1-.28c-.36-.11-.63-.39-.42.08l.15,1.15c.06-.29,1.52-1.37,1.92-1.76.74-.7,1.46-1.42,2.17-2.15q2.13-2.19,4.08-4.55a10.93,10.93,0,0,1,1.73-2c.68-.48,1.76,0,2.53.18L33,11.68c1.88.39,2.69-2.5.8-2.89L28.11,7.6c-1.64-.34-3.67-1.14-5.27-.3-1.36.73-2.23,2.21-3.2,3.36q-1.73,2-3.59,4c-1.24,1.28-2.54,2.5-3.84,3.71s-1.52,3,.37,3.69S16.22,23.1,18,23.64c.86.25,3.1.53,3.36,1.62.45,1.88,3.34,1.08,2.89-.8Z"/><path fill="black" d="M7.93,38a66.79,66.79,0,0,0,10.42-5,1.5,1.5,0,1,0-1.51-2.59,62.29,62.29,0,0,1-9.71,4.67,1.54,1.54,0,0,0-1,1.84A1.5,1.5,0,0,0,7.93,38Z"/><path fill="black" d="M2.25,51a113.21,113.21,0,0,1,19.38-11.4,1.51,1.51,0,0,0,.54-2.05A1.53,1.53,0,0,0,20.12,37,111.81,111.81,0,0,0,.74,48.44,1.56,1.56,0,0,0,.2,50.5,1.5,1.5,0,0,0,2.25,51Z"/><path fill="black" d="M16.46,52.25A37.31,37.31,0,0,1,26,47.54a1.53,1.53,0,0,0,1-1.85,1.5,1.5,0,0,0-1.84-1,41,41,0,0,0-10.28,5,1.55,1.55,0,0,0-.53,2.06,1.52,1.52,0,0,0,2.05.54Z"/></g></g></svg>