<svg xmlns="http://www.w3.org/2000/svg" viewBox="0 0 164.31 124.38"><g id="Слой_2" data-name="Слой 2"><g id="Слой_4" data-name="Слой 4"><path d="M41.19,76.87c2.7-5.13,1.88-10.81.64-16.23a42.17,42.17,0,0,1-1.36-8.2,34.1,34.1,0,0,1,1-8.59,61.18,61.18,0,0,1,5.23-15.18A24.43,24.43,0,0,1,56,18.94a43.55,43.55,0,0,1,12.66-4.62A109.45,109.45,0,0,1,84,12.14,68,68,0,0,1,92.64,12,18.35,18.35,0,0,1,100,13.6a35.69,35.69,0,0,1,6.25,4.46c2.08,1.71,4.16,3.44,6.12,5.29a36.7,36.7,0,0,1,9,12.28,45.87,45.87,0,0,1,3.32,14.61,107.09,107.09,0,0,1-.44,17.36c-.26,2.93-.56,5.85-.83,8.78s-.24,5.69-.67,8.47a8.65,8.65,0,0,1-3.34,5.69,21.67,21.67,0,0,1-6.56,2.89c-4.4,1.42-9.15,3.18-11.67,7.35-1.4,2.32-1.46,4.91-1.6,7.53-.11,1.94-.61,3.46-2.34,4.46a13.91,13.91,0,0,1-5.32,1.51c-2.91.35-5.85.5-8.78.58a103.37,103.37,0,0,1-17.4-1c-1.37-.2-2.78-.6-4.16-.69-1-.07.27.14.16.2a14.21,14.21,0,0,0,0-2.36l.09-4.06a11.21,11.21,0,0,0-.45-4.35c-.93-2.41-3.27-3.54-5.63-4.16a77.42,77.42,0,0,1-7.61-2.14c-4.16-1.55-8-4.72-7.85-9.51.09-2.72,1-5.34,1.44-8a2.58,2.58,0,0,0-1.75-3.07,2.51,2.51,0,0,0-3.07,1.74c-.47,3.13-1.51,6.17-1.62,9.35a12.56,12.56,0,0,0,2.2,7.61c3.28,4.7,8.65,6.77,14,8.13,1.19.31,2.41.55,3.59.91.71.22,1.53.45,1.73,1.23a17.28,17.28,0,0,1,0,4.19c0,1.5-.16,3-.07,4.51a5.06,5.06,0,0,0,1.45,3.57c1.16,1.08,2.83,1.2,4.31,1.45,3.16.51,6.35.91,9.54,1.16a107.54,107.54,0,0,0,18.82-.16c4.58-.45,10.12-1.42,12.51-5.91,1.4-2.63.91-5.43,1.41-8.24a6.82,6.82,0,0,1,3.44-4.51c4.32-2.69,9.72-3,13.88-6A13.91,13.91,0,0,0,127,88.24c1.08-3,.93-6.32,1.18-9.42.51-6.26,1.29-12.51,1.57-18.79.49-11.12-.75-23.07-7.15-32.52-3.24-4.78-7.53-8.63-12-12.29A60.43,60.43,0,0,0,103.8,10a21,21,0,0,0-8.48-2.8c-6.17-.78-12.49-.09-18.62.72a83.7,83.7,0,0,0-14.7,3,38,38,0,0,0-13.07,6.94c-4.25,3.59-7,8.43-9,13.55A64.5,64.5,0,0,0,35.57,49.1a33.06,33.06,0,0,0,.67,9.41A76.31,76.31,0,0,1,38,67.1a12.89,12.89,0,0,1-1.08,7.25c-1.49,2.84,2.82,5.37,4.32,2.52Z" style="fill:#1e1e1c"/><path d="M38.45,21.68c-1.6-.72-3.46-1.46-4.63-2.82S33,15.47,33,13.71A11.64,11.64,0,0,0,27.45,3.14c-7.57-4.67-17.17,1.4-17.27,10L12,10.73C5.2,12.32-1.06,19.31.15,26.62c.71,4.28,4.61,6.26,8.55,6.74,4.09.49,8.19-.79,12.27-.24,4.23.58,7.85,3.37,11.2,5.82a2.51,2.51,0,0,0,3.67-1.5,90.5,90.5,0,0,1,2.28-11.28c.83-3.11-4-4.44-4.82-1.33A90.28,90.28,0,0,0,31,36.12l3.67-1.5c-3.57-2.61-7.36-5.31-11.78-6.21-4.62-.94-9.16.55-13.77,0-1.38-.17-3.3-.59-3.91-2s-.1-3.25.48-4.57a11.06,11.06,0,0,1,7.63-6.26,2.53,2.53,0,0,0,1.84-2.41,7,7,0,0,1,4.17-6.22A6.34,6.34,0,0,1,26.69,9c2.37,2.95.58,6.68,1.62,10,1.11,3.59,4.38,5.52,7.62,7a2.58,2.58,0,0,0,3.42-.9,2.52,2.52,0,0,0-.9-3.42Z" style="fill:#1e1e1c"/><path d="M125.3,26l5.16,11.08c.74,1.59,2.8,1.43,3.92.51,2.94-2.4,6.14-5,10-5.71,4.14-.81,8.11,1.77,12.3,1.13a9.19,9.19,0,0,0,7.27-6.74,10.48,10.48,0,0,0-2.26-9.86,13.65,13.65,0,0,0-11.3-4.21L152.5,16a10.3,10.3,0,0,0,.9-10.23A10.31,10.31,0,0,0,145,.06,11,11,0,0,0,135.67,4c-2.46,2.92-2.89,6.44-3.62,10.05a12,12,0,0,1-2.1,5.07,29.31,29.31,0,0,1-4.3,4.18,2.52,2.52,0,0,0,0,3.54,2.54,2.54,0,0,0,3.53,0c3-2.57,5.78-5.28,7.08-9.1,1.12-3.31.74-7.54,3.06-10.35a6,6,0,0,1,7.85-1.43c2.64,1.67,2.74,5.17,1,7.52a2.51,2.51,0,0,0,2.16,3.76,9.08,9.08,0,0,1,7.41,2.36,5.4,5.4,0,0,1,1.15,5.93,4.19,4.19,0,0,1-2,2.27,7.07,7.07,0,0,1-4.35.09c-3.79-.8-7.32-1.63-11.13-.38-4,1.31-7.37,4-10.6,6.58l3.92.51-5.15-11.08a2.53,2.53,0,0,0-3.43-.9A2.56,2.56,0,0,0,125.3,26Z" style="fill:#1e1e1c"/><path d="M122.16,101.75c4.11-1.18,6.75-4.81,7.85-8.79.1-.4.2-.8.27-1.2a2.48,2.48,0,0,0,.11-.68l.05-.35-1.4.63a7.13,7.13,0,0,0,1.13.36,14.45,14.45,0,0,1,1.51.79,43,43,0,0,0,5.68,3.13A11.42,11.42,0,0,0,144,96c2-.44,4-1.37,6-1.56a5.93,5.93,0,0,1,6.29,5.79c0,3.4-3.84,6-7,5.26a2.53,2.53,0,0,0-3.07,1.75,4.63,4.63,0,0,0,.31,3c.3.64.82,1.28,1.08,1.85A4.58,4.58,0,0,1,148,115a5.44,5.44,0,0,1-4.15,4.35,6.67,6.67,0,0,1-6.12-2.61c-2.07-2.7-1.22-6.53-2.31-9.6-1.36-3.84-4.63-6.19-7.94-8.29-2.72-1.73-5.23,2.59-2.52,4.32,3,1.88,5.6,3.73,6.15,7.42a31.83,31.83,0,0,0,1,6,11.43,11.43,0,0,0,2.84,4.46,11.63,11.63,0,0,0,9.78,3.22,10,10,0,0,0,7.34-5.74,10.53,10.53,0,0,0,1-5.41,9.71,9.71,0,0,0-.57-2.55,9.56,9.56,0,0,0-.67-1.41c-.09-.15-.19-.3-.29-.45a5.09,5.09,0,0,1-.3-.5c-.16-.33-.18-.21-.07.36l-3.08,1.74a11.1,11.1,0,0,0,12.06-5.45,10.48,10.48,0,0,0-3-13.11,10.23,10.23,0,0,0-6.87-2.32c-2.71.14-5.15,1.25-7.77,1.79-4.72,1-8-4-12.45-4.7a3.71,3.71,0,0,0-4.33,2.56c-.34,1.12-.39,2.29-.77,3.41a6.62,6.62,0,0,1-4.09,4.46c-3.09.88-1.78,5.71,1.32,4.82Z" style="fill:#1e1e1c"/><path d="M38.73,97a24.32,24.32,0,0,1-7.38,4.5c-2.73,1.11-5.48,2.36-6.94,5.08a2.53,2.53,0,0,0,2.16,3.76c1.5,0,2,1.93,1.49,3.16-.86,2.19-3.28,3.13-5.39,3.62-1.78.41-4.7,1.23-6.05-.44a13,13,0,0,1-2.36-7.33A2.55,2.55,0,0,0,11.1,107c-3.08.49-5-3-5.29-5.51a6.43,6.43,0,0,1,.71-4.33c.85-1.21,2.61-1.37,4-1.45,4-.24,8,.78,12,.36A15.89,15.89,0,0,0,28,94.56,11,11,0,0,0,30.24,93a4.14,4.14,0,0,0,.86-.75s.34-.19.33-.22a4.64,4.64,0,0,0-1.26-.19A13.94,13.94,0,0,0,31,94.05c.29.84.57,1.67.92,2.48a8,8,0,0,0,3.56,4.19c2.85,1.47,5.38-2.84,2.52-4.32-1.26-.65-1.65-2.11-2.12-3.52-.65-1.93-1.3-4.36-3.26-5.34-2.56-1.28-4.31.85-6.2,2.14a10.26,10.26,0,0,1-5.52,1.48c-4.88.14-10.1-1.5-14.83.34s-5.95,7.18-5,11.81c1.07,5.4,5.78,9.39,11.36,8.49l-3.17-2.41c.17,3.94,1.38,8.9,4.54,11.55s8.22,1.82,11.83.58c3.82-1.32,7.2-4.22,7.61-8.45a7,7,0,0,0-6.67-7.69l2.16,3.76c1.09-2,3.76-2.67,5.75-3.52a27.3,27.3,0,0,0,7.78-5c2.39-2.18-1.16-5.71-3.53-3.54Z" style="fill:#1e1e1c"/><path d="M54,84.27a8.29,8.29,0,0,1-4-8.88c.95-3.87,4.17-6.16,8-6.58,4.06-.44,8.52.46,11.44,3.48,2.1,2.17,4.11,6.85,1,9.08-1.82,1.33-4.39,1.75-6.57,2a73.46,73.46,0,0,1-8.65.4c-3.21,0-3.22,5,0,5a72.83,72.83,0,0,0,10.12-.6,18.27,18.27,0,0,0,7.77-2.62C78.33,82,77.7,74.86,74.22,70.25s-9.42-6.77-15.17-6.51c-6,.26-11.27,3.17-13.48,8.95a13.3,13.3,0,0,0,5.89,15.9c2.79,1.62,5.31-2.7,2.53-4.32Z" style="fill:#1e1e1c"/><path d="M92.3,79.4a7.14,7.14,0,0,1,2.89-9.25c1.85-1,4.07-1,6.13-1.27s4.29-.82,6.43-.67c4.13.29,4.76,5.06,4.82,8.34,0,1.49.41,3.36-1,4.23s-3.72,1.15-5.47,1.49c-4.23.83-9.39,1.3-12.77-2-2.32-2.23-5.86,1.3-3.53,3.53,4.38,4.22,10.51,4.46,16.19,3.5a27.07,27.07,0,0,0,7.67-2c2.72-1.36,3.86-3.84,3.92-6.78.1-5.37-.63-12.07-6.24-14.53-2.83-1.24-5.79-.75-8.73-.31-2.78.42-5.7.34-8.36,1.39a12,12,0,0,0-6.77,15.63,2.58,2.58,0,0,0,3.07,1.75A2.52,2.52,0,0,0,92.3,79.4Z" style="fill:#1e1e1c"/><path d="M77.18,95.94c.4-2,.8-4,1.21-6a6.82,6.82,0,0,1,.64-2.1A12.07,12.07,0,0,1,80.65,86a5.53,5.53,0,0,1,1.45-1.17c.08,0,.49-.18.3-.15a1.45,1.45,0,0,1,1,.15A4.11,4.11,0,0,1,84.75,86a7.58,7.58,0,0,1,.46.65c.27.43.52.86.75,1.31a42.73,42.73,0,0,1,2.16,5c.28.73.47,1,.31,1.62a3.27,3.27,0,0,1-.37.81c-.17.32-.17.28-.08.16s-.56.57-.28.34c-.3.25-.4.32-.59.28.31.07,0-.06-.09,0,.12,0,.44.18.2,0s.06,0,.07.1c0,.23-.07-.13-.11-.21-.16-.32-.31-.65-.5-1a3.68,3.68,0,0,0-5.81-.74,5.25,5.25,0,0,0-1.33,3,3.46,3.46,0,0,0-.12.61c0,.32,0,0,.15-.09-.5.16,0,.2,0,0-.25.14-.25.15,0,.05l-.21.08c-.13.14-.33,0,0,0H79c-.18,0-.15,0,.1,0,0,0-.52-.17,0,0,0,0-.64-.39-.36-.21,0,0-.34-.33-.14-.09a3.36,3.36,0,0,1-.35-.57c-.19-.38.09.46-.1-.28,0-.07-.18-.79-.13-.39a2.58,2.58,0,0,0-2.5-2.5,2.51,2.51,0,0,0-2.5,2.5c.31,2.45,1.39,4.86,3.76,6a5.51,5.51,0,0,0,6.5-1.31,6.22,6.22,0,0,0,1.24-3.33c.1-.68.12-.13-.07-.06l-.52.26a1.63,1.63,0,0,1-1.32-.27c-.13,0-.22-.47,0,0a4.79,4.79,0,0,0,.4.78,5.08,5.08,0,0,0,6.72,1.87,7.42,7.42,0,0,0,3.86-6.27,9.85,9.85,0,0,0-.91-3.57c-.48-1.22-1-2.45-1.52-3.65a14.46,14.46,0,0,0-4.21-5.89,6.72,6.72,0,0,0-7.28-.61,12.67,12.67,0,0,0-2.86,2.35,11.25,11.25,0,0,0-2.54,3.58,20.22,20.22,0,0,0-.92,3.68l-.9,4.46a2.55,2.55,0,0,0,1.74,3.07,2.52,2.52,0,0,0,3.08-1.74Z" style="fill:#1e1e1c"/><path d="M43.56,34.42c3.81,1.77,7.61,3.86,11.55,5.32a6.56,6.56,0,0,0,5.53-.55c1.48-.8,2.66-1.86,4.33-2.26,3.58-.86,7.37-.19,10.75-2,2.16-1.13,2.66-3.2,2-5.42A16,16,0,0,1,81,14.9a2.55,2.55,0,0,0,0-3.53,2.53,2.53,0,0,0-3.54,0,21.45,21.45,0,0,0-5.18,11.81,20.67,20.67,0,0,0,.24,6c.09.5.21,1,.34,1.5.08.26.15.52.23.79.48-.88.45-1.13-.09-.76-.89.15-1.73.5-2.65.61a56.5,56.5,0,0,0-6.74.76c-2.06.5-3.54,1.7-5.36,2.68a1.8,1.8,0,0,1-1.81.14c-1.17-.44-2.3-1.06-3.43-1.59L46.09,30.1a2.58,2.58,0,0,0-3.43.89,2.54,2.54,0,0,0,.9,3.43Z" style="fill:#1e1e1c"/><path d="M76.17,34.54c1.65.67,2.91,2.25,4.09,3.51a17.17,17.17,0,0,0,4.49,3.7,8.61,8.61,0,0,0,6.56.67,52.29,52.29,0,0,1,5.49-1.75c4-.71,7.91-1.05,10.64-4.51A51,51,0,0,0,111,30.61l3.75-6.25c1.67-2.77-2.66-5.28-4.31-2.53L107,27.46a60.33,60.33,0,0,1-3.27,5.33c-2,2.72-5.63,2.54-8.67,3.13A52.45,52.45,0,0,0,90,37.6a4.29,4.29,0,0,1-4.06-1,40.2,40.2,0,0,1-3.51-3.52,14.44,14.44,0,0,0-4.93-3.35,2.51,2.51,0,0,0-3.07,1.74,2.57,2.57,0,0,0,1.75,3.08Z" style="fill:#1e1e1c"/><path d="M102.89,42.13q-.84-1.38-.57-.57l0,.24c0,.27.07.54.13.81a10,10,0,0,0,.81,2.17,26,26,0,0,0,1.8,3.16,10.64,10.64,0,0,0,6.16,4.85c2.32.62,4.88.37,7.06.88,1.43.33,2.73.94,4.24.63a4,4,0,0,0,3.12-2.84c.93-3.09-3.89-4.41-4.82-1.33.24-.78.31-.32.53-.66,0-.06.33-.1.32,0L120.25,49a18,18,0,0,0-3.41-.57c-1.84-.16-3.83,0-5.34-.88s-2.28-2.4-3.17-4a8,8,0,0,1-1.09-2.77,4.19,4.19,0,0,0-1.83-3,2.5,2.5,0,1,0-2.52,4.32Z" style="fill:#1e1e1c"/><path d="M41.39,62.68A35,35,0,0,0,48.81,59a12.87,12.87,0,0,0,3-2.7,15.34,15.34,0,0,0,1.81-3.45c1-2.28,2.88-4,4.08-6.2a21.46,21.46,0,0,0,2.45-8,2.51,2.51,0,0,0-2.5-2.5,2.56,2.56,0,0,0-2.5,2.5,15.06,15.06,0,0,1-1.95,5.79C52.12,46.41,50.49,48,49.5,50a25.81,25.81,0,0,1-1.37,3,6.42,6.42,0,0,1-1.84,1.72,29.64,29.64,0,0,1-6.23,3.15,2.56,2.56,0,0,0-1.74,3.07,2.51,2.51,0,0,0,3.07,1.75Z" style="fill:#1e1e1c"/></g></g></svg>