<svg xmlns="http://www.w3.org/2000/svg" viewBox="0 0 75.92 67.19"><g id="Слой_2" data-name="Слой 2"><g id="Слой_12" data-name="Слой 12"><path fill="black" d="M1.88,66c9.39-1.57,18.8,1.22,28.2,1.17,4.76,0,9.37-1.07,14.06-1.77a55.33,55.33,0,0,1,14.43.12c5.29.59,10.6,1.3,15.93.66,1.89-.23,1.91-3.23,0-3-9.58,1.15-19-2.06-28.63-1-4.9.55-9.69,1.82-14.63,2a99.28,99.28,0,0,1-14-1c-5.4-.59-10.78-1-16.17-.06-1.9.32-1.09,3.21.8,2.89Z"/><path fill="black" d="M8.69,63.44A19.86,19.86,0,0,0,8.63,56c-.46-2.25-1.15-4.25-.9-6.58a22.86,22.86,0,0,1,.8-3.65,11.13,11.13,0,0,1,1-3c.51-.76,1.62-.64,2.44-.72,1.29-.14,2.59-.24,3.89-.32s2.43-.17,3.64-.12c.86,0,1.55.16,1.83,1.06a9.39,9.39,0,0,1,0,3.26l-.28,3.94L20,65.1c-.14,1.93,2.86,1.92,3,0l1-14c.15-2.23.37-4.48.46-6.72.07-1.8-.25-3.79-1.84-4.9s-3.5-.89-5.27-.81c-2.27.09-4.55.27-6.81.55a4.39,4.39,0,0,0-3.94,2.84A27.31,27.31,0,0,0,5,47.88a16.38,16.38,0,0,0,.32,7,18,18,0,0,1,.52,7.76c-.32,1.89,2.57,2.7,2.9.8Z"/><path fill="black" d="M32.22,64.37c-1-12.05-2-24.25-.42-36.3.1-.83.23-1.65.36-2.47a5,5,0,0,0,.17-1c-.07-.61.14-.11-.14,0a12.67,12.67,0,0,1,2.47-.18l2.48-.18c1.48-.11,3-.23,4.45-.32a4.27,4.27,0,0,1,1.78,0c.61.25.72.87.84,1.45,1.24,5.78.86,12,.39,17.81C44.05,50,43.12,56.8,43.07,63.62a1.5,1.5,0,0,0,3,0c0-6.74,1-13.42,1.51-20.13a98.49,98.49,0,0,0,.39-10c0-1.66-.13-3.32-.31-5a22.32,22.32,0,0,0-.75-4.59c-1-3.2-4-3.06-6.81-2.86l-5.19.38c-1.33.1-3.34-.1-4.48.73S29.28,24.7,29.08,26c-.25,1.73-.47,3.47-.63,5.2C28.14,34.57,28,38,28,41.34c0,7.69.61,15.37,1.23,23,.16,1.92,3.16,1.93,3,0Z"/><path fill="black" d="M54,62.88c1-8.76,1.5-17.56,1.85-26.36.18-4.4.41-8.81.42-13.22a77.41,77.41,0,0,0-1.25-13c-.18-1.05-.34-2.11-.44-3.17-.06-.71-.44-2.44,0-3s2-.63,2.66-.75a26.91,26.91,0,0,1,3.35-.31c1.72-.09,4.09-.5,5.61.56S67.55,7.43,67.79,9A120.14,120.14,0,0,1,68.51,35c-.31,4.83-.78,9.64-1.28,14.46a82.5,82.5,0,0,0-.63,14.9c.14,1.92,3.14,1.93,3,0a79.08,79.08,0,0,1,.55-14.18c.49-4.74,1-9.47,1.29-14.22a124.82,124.82,0,0,0-.8-28.06c-.3-1.93-.42-4.28-1.75-5.83A6.94,6.94,0,0,0,63.72,0a37.56,37.56,0,0,0-6.62.4c-1.76.26-4.3.61-5.27,2.34s-.31,4.61,0,6.46c.33,2.34.84,4.65,1.1,7A99.29,99.29,0,0,1,53,30.65c-.4,10.76-.82,21.53-2.08,32.23-.23,1.91,2.77,1.89,3,0Z"/></g></g></svg>