<svg xmlns="http://www.w3.org/2000/svg" viewBox="0 0 151.75 121.4"><g id="Слой_2" data-name="Слой 2"><g id="Слой_5" data-name="Слой 5"><path d="M47.16,6.39c.92,2,2,4.23,1.78,6.49-.19,2.11-1.58,4-2.79,5.64A60.51,60.51,0,0,1,41.81,24c-1.49,1.62-3.46,2.11-5.56,2.53a2.5,2.5,0,1,0,1.33,4.82,14,14,0,0,0,7.49-3.52,60,60,0,0,0,5.64-7.16,15.14,15.14,0,0,0,3.23-7.83c.19-3.19-1.16-6.19-2.46-9A2.52,2.52,0,0,0,48.06,3a2.56,2.56,0,0,0-.9,3.42Z" style="fill:#1e1e1c"/><path d="M48.82,2.17c-7.11.21-14,3.29-18,9.31-3.79,5.66-4,13.57.16,19.09a2.57,2.57,0,0,0,3.42.9,2.51,2.51,0,0,0,.89-3.42,11.9,11.9,0,0,1-.15-14c3-4.5,8.43-6.67,13.69-6.83,3.21-.1,3.23-5.1,0-5Z" style="fill:#1e1e1c"/><path d="M31.79,30.31A182.22,182.22,0,0,0,21.62,51.72c-1.44,3.63-3,7.35-3.12,11.32s1,7.83,1.86,11.61,1.76,7.8,2.69,11.7A27.47,27.47,0,0,0,27.5,96.6a68.1,68.1,0,0,0,14.67,14.34,71.09,71.09,0,0,0,20.52,10.33c3.07,1,4.39-3.85,1.33-4.82A66.63,66.63,0,0,1,33,95.61a22.42,22.42,0,0,1-4.62-8.4c-1-3.57-1.73-7.22-2.55-10.83A97.88,97.88,0,0,1,23.6,65.44c-.39-3.63.71-6.85,2-10.2a171.15,171.15,0,0,1,10.52-22.4c1.57-2.82-2.75-5.34-4.32-2.53Z" style="fill:#1e1e1c"/><path d="M39.35,110.77c-.36.48-2.42.59-3,.67a37.25,37.25,0,0,1-4.59.4,50.19,50.19,0,0,1-9.41-.63c-2.49-.41-5-.65-6.42-3s-2.11-5.18-3-7.76a2.56,2.56,0,0,0-3.08-1.74,2.52,2.52,0,0,0-1.74,3.07c1.09,3.18,1.94,6.79,3.91,9.57A9.53,9.53,0,0,0,16,114.75a21.55,21.55,0,0,0,5.55,1.35,53.93,53.93,0,0,0,11.7.67c3.6-.22,8.07-.37,10.43-3.47a2.51,2.51,0,0,0-.9-3.42,2.57,2.57,0,0,0-3.42.89Z" style="fill:#1e1e1c"/><path d="M12,103.57c9.68-2.74,18.78,3,25.29,9.67,2.25,2.3,5.78-1.23,3.53-3.54-7.77-8-18.72-14.19-30.15-11-3.09.87-1.77,5.7,1.33,4.82Z" style="fill:#1e1e1c"/><path d="M26.56,87.82a72.51,72.51,0,0,1-9-2.82c-2.46-1-5.25-2-7.19-3.84a18.57,18.57,0,0,1-3.84-6.55c-1.07-2.63-2.13-5.44-1-8.2a2.52,2.52,0,0,0-1.75-3.08A2.57,2.57,0,0,0,.71,65.08c-1.42,3.4-.48,7.17.82,10.45a27.3,27.3,0,0,0,4.74,8.6C8.58,86.68,11.84,88,15,89.32a72.34,72.34,0,0,0,10.27,3.32c3.12.76,4.46-4.06,1.33-4.82Z" style="fill:#1e1e1c"/><path d="M2.68,67.87a31.62,31.62,0,0,1,7.54,2.84,13.61,13.61,0,0,1,4.94,5.35,45.28,45.28,0,0,1,3,7.26A33.37,33.37,0,0,1,20.28,92a2.56,2.56,0,0,0,2.5,2.5,2.53,2.53,0,0,0,2.5-2.5A38.68,38.68,0,0,0,23,82a52.55,52.55,0,0,0-3.75-8.8,18.46,18.46,0,0,0-6.36-6.69A35.87,35.87,0,0,0,4,63.05C.91,62.16-.42,67,2.68,67.87Z" style="fill:#1e1e1c"/><path d="M22.57,50.21c-4.87-1-9.74-3.08-12.23-7.63-2.8-5.11-2-11.23-.53-16.6.86-3.11-4-4.44-4.82-1.33C3.14,31.36,2.56,38.78,6,45.1c3.1,5.65,9.12,8.68,15.22,9.93a2.56,2.56,0,0,0,3.08-1.75,2.52,2.52,0,0,0-1.75-3.07Z" style="fill:#1e1e1c"/><path d="M5.35,26.73c1.85,1.81,4,3.26,6,4.93a17.09,17.09,0,0,1,4.54,5.79c2.25,4.77,2,10.36.94,15.39-.66,3.14,4.16,4.48,4.83,1.33C22.91,48,23,41.56,20.49,35.66a20.1,20.1,0,0,0-4.85-6.83c-2.17-2-4.65-3.58-6.75-5.63-2.3-2.26-5.84,1.28-3.54,3.53Z" style="fill:#1e1e1c"/><path d="M113.35,29.22c-5.25-1.95-10.92-4.17-13.53-9.51-2.38-4.89-2.91-11.45.53-15.95A2.51,2.51,0,0,0,99.46.34a2.56,2.56,0,0,0-3.42.9c-4.48,5.83-3.61,14.28-.72,20.6,3.11,6.8,10.11,9.75,16.7,12.2a2.51,2.51,0,0,0,3.07-1.74,2.55,2.55,0,0,0-1.74-3.08Z" style="fill:#1e1e1c"/><path d="M97,4.83a39.63,39.63,0,0,1,6.77,5.33,25.92,25.92,0,0,1,6.81,21.12,2.52,2.52,0,0,0,2.5,2.5,2.55,2.55,0,0,0,2.5-2.5,30.68,30.68,0,0,0-3.14-17.38,30.23,30.23,0,0,0-5-7.13A45.11,45.11,0,0,0,99.53.51C96.85-1.29,94.34,3,97,4.83Z" style="fill:#1e1e1c"/><path d="M111.78,34.47A43.19,43.19,0,0,1,117.34,43a76.16,76.16,0,0,1,4.37,9.39c2.46,6.61,3.87,13.9,2.48,20.9a61.52,61.52,0,0,1-3.35,10.06c-1.19,3.07-1.81,6.49-3.48,9.33a54.73,54.73,0,0,1-6,7.62,68.52,68.52,0,0,1-6.8,7,29.64,29.64,0,0,1-20,7.52c-3.22,0-3.22,5,0,5a33.84,33.84,0,0,0,20.73-6.73c5.76-4.32,10.59-10,14.9-15.77,2.3-3.07,3.26-6.51,4.49-10.09s2.78-6.82,3.77-10.37c2.13-7.69,1.31-16-1.12-23.46a76.54,76.54,0,0,0-5.16-11.95,51.72,51.72,0,0,0-6.88-10.59c-2.16-2.4-5.68,1.14-3.54,3.54Z" style="fill:#1e1e1c"/><path d="M128,51.09c-.72-5.32-1.23-10.67.83-15.77,1.49-3.68,4.56-9.12,9.15-9,3.22.11,3.21-4.89,0-5-6.53-.23-11,5.88-13.39,11.25a26,26,0,0,0-2.22,9.18,56.58,56.58,0,0,0,.81,10.63,2.53,2.53,0,0,0,3.08,1.75A2.57,2.57,0,0,0,128,51.09Z" style="fill:#1e1e1c"/><path d="M128.28,55.89c7-1.38,11.86-7.21,14.8-13.35s5.25-14.18.78-20.33a2.58,2.58,0,0,0-3.42-.9,2.51,2.51,0,0,0-.9,3.42c3.47,4.78,1.39,10.88-1,15.68S132.59,50,127,51.07a2.5,2.5,0,1,0,1.33,4.82Z" style="fill:#1e1e1c"/><path d="M127.23,86.34c1.67-5.49,3.36-11,6.59-15.85,1.31-1.95,2.87-3.67,5.35-3.86,3-.24,6.06.84,9.05,1.17a2.51,2.51,0,0,0,2.5-2.5,2.56,2.56,0,0,0-2.5-2.5c-3.47-.38-6.76-1.55-10.29-1-3.38.5-5.78,2.57-7.75,5.23-3.92,5.3-5.88,11.79-7.77,18-.94,3.08,3.89,4.4,4.82,1.33Z" style="fill:#1e1e1c"/><path d="M126.31,90.27a26.17,26.17,0,0,0,10-1.91,17.77,17.77,0,0,0,7.25-6.53c.93-1.32,1.76-2.71,2.68-4s2-2.66,2.88-4.05c2-3.13,3.27-6.79,2.33-10.51-.78-3.11-5.61-1.79-4.82,1.33.68,2.67-.82,5.22-2.29,7.34-1.62,2.36-3.26,4.72-4.87,7.09a13,13,0,0,1-5.39,4.92,20.66,20.66,0,0,1-7.75,1.36c-3.21.08-3.22,5.08,0,5Z" style="fill:#1e1e1c"/><path d="M113.78,108a15.74,15.74,0,0,1,11.45-5c3.49-.1,9,.23,11.06,3.6,1.67,2.75,6,.24,4.32-2.52-3-4.94-9.58-6.14-14.92-6.08-5.75,0-11.55,2.1-15.44,6.46-2.14,2.39,1.38,5.94,3.53,3.53Z" style="fill:#1e1e1c"/><path d="M108.17,110.61a5.5,5.5,0,0,0,1.57,5.33,8.75,8.75,0,0,0,5.35,2,50.2,50.2,0,0,0,12.55,0,23.09,23.09,0,0,0,9.87-3.71c2.8-1.95,7-5.7,4.06-9.24a2.54,2.54,0,0,0-3.54,0,2.56,2.56,0,0,0,0,3.54l.2.23-.65-1.1c-.13-.34.35-.5,0-.27,0,0-.27.37-.26.36a11.81,11.81,0,0,1-1.21,1.24,14.14,14.14,0,0,1-2.78,1.94,19.92,19.92,0,0,1-6.81,2.15c-1.27.18-14,.6-13.55-1.12.78-3.12-4-4.45-4.82-1.33Z" style="fill:#1e1e1c"/><path d="M92.58,75.86c4-6.09,9.4-11.09,14.72-16,1.66-1.53.31-4.2-1.76-4.27l-12.31-.41c-2-.07-4-.08-6.06-.26A5,5,0,0,1,85,54.49c.21.17,0-.16-.13-.4s-.21-.78-.35-1.16c-1.15-3.26-3.57-5.65-5.33-8.56a24.22,24.22,0,0,1-3-9.69,2.54,2.54,0,0,0-4.27-1.77,29.85,29.85,0,0,0-8.83,11.52,2.58,2.58,0,0,0,.9,3.42,2.51,2.51,0,0,0,3.42-.9,26.73,26.73,0,0,1,8-10.51l-4.27-1.76a31.08,31.08,0,0,0,3.43,11.85c.94,1.62,2.14,3,3.22,4.57a18.09,18.09,0,0,1,2.31,4.71c1.66,4.72,7.49,4.16,11.58,4.3l13.79.46-1.77-4.26c-5.65,5.23-11.24,10.57-15.5,17-1.78,2.69,2.55,5.2,4.31,2.52Z" style="fill:#1e1e1c"/><path d="M60.83,50.46C53.9,53.79,47.13,57,39.36,57.78A2.59,2.59,0,0,0,37,59.61a2.55,2.55,0,0,0,1.15,2.83A51.73,51.73,0,0,1,48,68.77c1.54,1.32,3,2.69,4.53,4a26.29,26.29,0,0,0,2.29,2.06,3.64,3.64,0,0,1,.34.34c-.11-.79-.2-1-.26-.52-.22.12-.53.93-.65,1.14-4,6.8-7.26,14-8.17,21.94-.19,1.61,1.75,2.84,3.17,2.41a74.48,74.48,0,0,0,22.38-11.1,10,10,0,0,1,2.47-1.69c.63-.21.93,0,1.49.42,1.85,1.26,3.59,2.7,5.38,4l11.53,8.69c1.64,1.24,3.64-.48,3.76-2.16a32.67,32.67,0,0,0-2.67-15.11,2.52,2.52,0,0,0-3.42-.9,2.57,2.57,0,0,0-.9,3.42,27.25,27.25,0,0,1,2,12.59L95,96.22l-11.92-9a50.37,50.37,0,0,0-5.63-4.15,6.22,6.22,0,0,0-6.63.41c-1.82,1.17-3.51,2.56-5.34,3.74s-3.72,2.27-5.66,3.28a68.41,68.41,0,0,1-11.92,4.83L51,97.77a39.58,39.58,0,0,1,3.32-11.51c.85-1.91,1.81-3.77,2.83-5.59s2.6-3.74,2.68-5.92C60,72.4,58,71,56.39,69.6s-3.23-2.94-4.89-4.36a57.27,57.27,0,0,0-10.88-7.12l-1.26,4.66A47.94,47.94,0,0,0,51.71,60c4-1.49,7.81-3.4,11.65-5.24a2.53,2.53,0,0,0,.9-3.42,2.56,2.56,0,0,0-3.43-.9Z" style="fill:#1e1e1c"/></g></g></svg>